<?xml version="1.0" encoding="UTF-8" standalone="no"?>
<svg
   width="960"
   height="960"
   viewBox="0 0 253.99999 254.00001"
   version="1.1"
   id="svg8"
   inkscape:version="1.1.1 (3bf5ae0d25, 2021-09-20)"
   sodipodi:docname="fab.svg"
   xmlns:inkscape="http://www.inkscape.org/namespaces/inkscape"
   xmlns:sodipodi="http://sodipodi.sourceforge.net/DTD/sodipodi-0.dtd"
   xmlns="http://www.w3.org/2000/svg"
   xmlns:svg="http://www.w3.org/2000/svg"
   xmlns:rdf="http://www.w3.org/1999/02/22-rdf-syntax-ns#"
   xmlns:cc="http://creativecommons.org/ns#"
   xmlns:dc="http://purl.org/dc/elements/1.1/">
  <defs
     id="defs2" />
  <sodipodi:namedview
     id="base"
     pagecolor="#ffffff"
     bordercolor="#666666"
     borderopacity="1.0"
     inkscape:pageopacity="0.0"
     inkscape:pageshadow="2"
     inkscape:zoom="0.35"
     inkscape:cx="400"
     inkscape:cy="560"
     inkscape:document-units="px"
     inkscape:current-layer="layer1"
     inkscape:document-rotation="0"
     showgrid="false"
     units="px"
     inkscape:pagecheckerboard="0"
     objecttolerance="6" />
  <metadata
     id="metadata5">
    <rdf:RDF>
      <cc:Work
         rdf:about="">
        <dc:format>image/svg+xml</dc:format>
        <dc:type
           rdf:resource="http://purl.org/dc/dcmitype/StillImage" />
      </cc:Work>
    </rdf:RDF>
  </metadata>
  <g
     inkscape:label="Layer 1"
     inkscape:groupmode="layer"
     id="layer1">
    <path
       style="fill:none;stroke:#000000;stroke-width:0.264583px;stroke-linecap:butt;stroke-linejoin:miter;stroke-opacity:1"
       d="m 84.596381,63.544441 c 2.81661,12.285845 39.760209,17.455613 51.346739,20.277831"
       id="path2471"
       sodipodi:nodetypes="cc" />
    <path
       style="fill:none;stroke:#000000;stroke-width:0.264583px;stroke-linecap:butt;stroke-linejoin:miter;stroke-opacity:1"
       d="m 82.452847,84.990161 c -0.592659,1.23344 0.287043,3.332771 1.058333,4.224031 6.040765,6.980364 7.399022,17.908958 11.667506,26.445928 3.54648,7.09296 10.861644,21.50841 19.866484,23.85591 4.95898,1.29277 11.85822,-4.09263 15.67036,-6.19497 13.56429,-7.4805 15.54517,-12.33639 19.61018,-27.24485 1.15808,-4.24727 3.00325,-10.556818 0.95084,-14.661635"
       id="path2475"
       sodipodi:nodetypes="csssssc" />
    <path
       style="fill:none;stroke:#000000;stroke-width:0.264583px;stroke-linecap:butt;stroke-linejoin:miter;stroke-opacity:1"
       d="m 117.42074,94.506374 c 3.55195,-2.069303 18.23199,-10.146017 19.95485,-2.364713 0.16347,0.738322 -1.37189,-0.64552 -2.01176,-1.048515 -0.93843,-0.591026 -2.80159,-0.682646 -3.91139,-0.682646 -5.61397,0 -10.00869,2.812359 -15.23835,3.860747"
       id="path2483" />
    <path
       style="fill:none;stroke:#000000;stroke-width:0.264583px;stroke-linecap:butt;stroke-linejoin:miter;stroke-opacity:1"
       d="m 106.7015,94.952858 c -3.1135,-1.028059 -6.30816,-2.194946 -9.264553,-3.670575 -2.215354,-1.105752 -5.511485,-1.950103 -7.998479,-1.118796 -1.021183,0.341342 -1.00177,2.642045 -0.307475,2.871142 0.703337,0.232082 2.650093,-2.161021 3.519681,-1.581298 2.373987,1.582658 10.366146,1.962491 14.050826,3.499527 z"
       id="path2485" />
    <path
       style="fill:none;stroke:#000000;stroke-width:0.264583px;stroke-linecap:butt;stroke-linejoin:miter;stroke-opacity:1"
       d="m 107.49059,96.18896 c 4.75226,5.03939 0.9137,10.61836 -0.92965,15.78457"
       id="path2491" />
    <path
       style="fill:none;stroke:#000000;stroke-width:0.264583px;stroke-linecap:butt;stroke-linejoin:miter;stroke-opacity:1"
       d="m 121.26857,97.218353 c 1.19955,-5.616731 10.04849,-4.519088 12.24834,-0.852659"
       id="path2493" />
    <path
       style="fill:none;stroke:#000000;stroke-width:0.264583px;stroke-linecap:butt;stroke-linejoin:miter;stroke-opacity:1"
       d="m 121.26857,97.218351 c 2.26036,1.676106 6.74343,1.923325 9.43818,0.768432 1.04199,-0.446567 1.99934,-1.572559 2.81016,-1.621089"
       id="path2495" />
    <path
       style="fill:none;stroke:#000000;stroke-width:0.264583px;stroke-linecap:butt;stroke-linejoin:miter;stroke-opacity:1"
       d="m 124.61616,94.150324 c -0.65265,1.420125 0.51553,3.259712 1.73323,3.991489"
       id="path2497" />
    <path
       style="fill:none;stroke:#000000;stroke-width:0.264583px;stroke-linecap:butt;stroke-linejoin:miter;stroke-opacity:1"
       d="m 91.312771,98.426549 c -0.414324,-0.596598 -0.152257,-0.739116 0.223758,-1.365808 2.382891,-3.971483 9.147421,-0.378473 12.010641,1.386477 -2.64629,2.441592 -11.771651,4.596552 -12.326898,-0.943609"
       id="path2499" />
    <path
       style="fill:none;stroke:#000000;stroke-width:0.264583px;stroke-linecap:butt;stroke-linejoin:miter;stroke-opacity:1"
       d="m 96.043233,96.627176 c -0.670901,2.028333 1.333505,3.480014 2.825665,4.226094"
       id="path2501" />
    <path
       style="fill:none;stroke:#000000;stroke-width:0.264583px;stroke-linecap:butt;stroke-linejoin:miter;stroke-opacity:1"
       d="m 110.23978,120.05262 c 1.65846,-0.18145 3.44287,0.12106 5.04982,-0.46354 1.85463,-0.6747 4.23697,-2.05556 5.30304,-3.71088 0.007,-0.011 0.67763,2.01242 -0.55708,3.65869 -1.60458,2.13944 -6.96096,2.33032 -9.45988,2.02261"
       id="path2505" />
    <path
       style="fill:none;stroke:#000000;stroke-width:0.264583px;stroke-linecap:butt;stroke-linejoin:miter;stroke-opacity:1"
       d="m 135.94312,83.822272 c -0.68739,-0.747446 -2.22122,-3.17042 -1.09657,-4.282943 1.16659,-1.15402 4.12873,3.805314 4.50412,4.243671 3.94407,4.6057 3.28525,-1.490634 4.0783,0.256315 0.51219,1.128276 1.03321,4.310144 1.84692,5.179009 0.68162,0.72784 1.3407,-1.505651 2.1704,-2.058789 1.03277,-0.688512 4.46925,-2.358149 5.6162,-1.700154 2.86537,1.643846 3.00805,8.216651 1.07694,10.198862"
       id="path198" />
    <path
       style="fill:none;stroke:#000000;stroke-width:0.264583px;stroke-linecap:butt;stroke-linejoin:miter;stroke-opacity:1"
       d="m 142.3665,24.384041 c -14.07677,-7.44413 -39.2979,-4.415616 -47.85444,-0.06408 -1.851697,0.941704 -13.884394,4.0277 -13.979509,4.718058 -0.406207,2.948268 11.254261,-2.246407 8.919353,-0.401007 -1.742686,1.377333 -3.843332,2.234435 -5.832203,3.223574 -1.038299,0.516385 -19.404906,11.220625 -12.826089,9.246982 4.477088,-1.343129 -6.332305,11.103847 -7.339089,14.078725 -0.191876,0.566965 5.308203,-3.504031 5.308203,-3.152262 0,2.802541 -7.161078,9.09533 -8.952423,11.970329 -1.659755,2.663804 -0.932786,7.380116 -1.380795,10.260872 -0.134905,0.867469 -0.486907,4.185992 -0.473358,4.07107 0.115933,-0.983268 3.612356,-5.539258 3.614251,-5.53248 0.925332,3.310956 -0.4685,7.21182 0.80822,10.616406 0.618929,1.650479 4.174096,-4.886142 4.499983,-4.234365 1.608045,3.21609 0.974736,9.057177 1.896525,12.834358 0.331526,1.358482 2.510888,-3.782393 3.280421,-2.614827 0.919734,1.39546 0.874879,3.510894 2.395717,4.524788 0.772832,0.515221 1.144651,-1.038357 1.737363,-0.138493 1.373365,2.085067 1.606206,5.013965 3.506764,7.007331 0.813016,0.85271 0.902163,-3.115067 2.055688,-2.875283 0.348168,0.07237 0.784524,5.972303 1.354955,6.775813 0.493564,0.69524 1.141206,-1.2779 1.807641,-1.80971 3.866388,-3.085326 3.819776,1.70073 5.319572,5.08496"
       id="path208" />
    <path
       style="fill:none;stroke:#000000;stroke-width:0.264583px;stroke-linecap:butt;stroke-linejoin:miter;stroke-opacity:1"
       d="m 144.92862,24.733374 c 3.40115,-0.195398 7.11384,0.925155 10.03246,2.546615 9.21868,5.121486 18.7794,12.748696 21.77748,23.241991 0.39312,1.375908 4.67676,16.846516 4.83692,16.846516 1.21257,0 -1.35764,-2.026021 -2.20555,-2.892846 -1.17265,-1.198808 2.14045,10.368145 0.58394,11.927954 -0.77296,0.774602 -1.82501,-3.034504 -2.55902,-3.41788 -0.29491,-0.154037 0.23772,0.636728 0.23772,0.96945 0,1.823833 0,3.647667 0,5.471501 0,3.371405 -4.63612,16.635044 -6.21978,11.259261 -0.28836,-0.978868 -1.03579,8.837025 -3.03031,10.165784 -0.66965,0.44614 -0.80552,-3.100716 -1.17822,-3.011699 -2.50981,0.599458 -3.18619,11.148179 -5.14697,11.849409 -2.22941,0.79729 -1.8819,-6.83338 -2.11977,-5.56762 -1.51451,8.05902 -5.47666,15.313 -2.16524,23.51691"
       id="path214" />
    <path
       style="fill:none;stroke:#000000;stroke-width:0.264583px;stroke-linecap:butt;stroke-linejoin:miter;stroke-opacity:1"
       d="m 118.75761,139.82299 c 2.21399,2.70632 4.77077,5.20904 4.77077,8.78912"
       id="path218" />
    <path
       style="fill:none;stroke:#000000;stroke-width:0.264583px;stroke-linecap:butt;stroke-linejoin:miter;stroke-opacity:1"
       d="m 157.77228,127.63872 c 17.48435,20.81439 41.18439,21.54533 50.4641,55.52322 2.91252,10.66424 7.23133,40.8347 12.87054,48.35364"
       id="path224" />
    <path
       style="fill:none;stroke:#000000;stroke-width:0.264583px;stroke-linecap:butt;stroke-linejoin:miter;stroke-opacity:1"
       d="m 123.52838,148.61211 c -4.56951,1.9702 -6.43401,6.89354 -9.57875,10.33322 -2.10644,2.30401 -5.1946,3.71885 -6.61871,6.64043 -4.18071,8.5767 -6.26132,19.59647 -8.098736,28.75483 -0.508738,2.53574 0.139893,5.47594 -1.040762,7.83725"
       id="path234" />
    <path
       style="fill:none;stroke:#000000;stroke-width:0.264583px;stroke-linecap:butt;stroke-linejoin:miter;stroke-opacity:1"
       d="m 63.904108,159.274 c 2.346912,4.88493 3.418901,10.57739 5.062225,15.78611 4.196863,13.30251 14.693236,56.57285 24.312726,66.19234 7.605401,7.6054 15.286161,5.03612 17.775661,-4.89272"
       id="path250" />
    <path
       style="fill:none;stroke:#000000;stroke-width:0.264583px;stroke-linecap:butt;stroke-linejoin:miter;stroke-opacity:1"
       d="M 107.50248,211.57055 C 94.567146,195.37938 90.915206,172.38953 79.51866,155.81478 72.990368,147.13299 80.833371,138.2927 79.333659,129.312 c -0.788598,-4.72234 -1.852083,-9.72804 -1.852083,-14.51384 0,-1.8914 -5.910163,-8.93329 -7.889958,-5.12837 -2.885036,5.54468 6.859474,14.3203 1.581299,19.59157 -1.262237,-0.82121 -25.573955,-2.24395 -12.66486,4.2106 0.823666,0.41183 6.764994,0.69156 6.925675,1.33428 0.168554,0.67422 -12.140106,-0.0663 -12.082983,2.86598 0.07503,3.85134 8.628619,4.74286 11.329541,4.74286 1.529384,0 -9.18491,-0.78627 -9.645923,1.57303 -0.694548,3.55445 7.858664,3.67397 9.45472,3.91707 0.525582,0.0801 -11.642621,4.51517 -4.705656,6.82749 3.301515,1.10051 11.562634,2.74002 13.972274,-0.92087 2.062895,-3.13409 -2.058018,-3.45062 -1.816944,-4.33048 0.472554,-1.72471 5.053643,-0.95644 2.868042,-3.87057 -0.663917,-0.88522 -1.661179,-0.64522 -2.318204,-1.30225 -0.117623,-0.11762 5.305273,-3.36269 4.755265,-5.01054 -0.603177,-1.80715 -6.31944,-3.17704 -6.317961,-3.40341 0.01631,-2.4962 7.125515,-1.15749 1.705323,-3.07785 -1.207393,-0.42778 -0.613444,-2.59254 -1.458309,-3.55534"
       id="path256" />
    <path
       style="fill:none;stroke:#000000;stroke-width:0.264583px;stroke-linecap:butt;stroke-linejoin:miter;stroke-opacity:1"
       d="m 161.90226,196.06865 c -1.64679,9.22406 3.12862,17.86169 3.64422,26.88105 0.57546,10.06642 1.34119,21.14024 6.43062,30.04674"
       id="path268" />
    <path
       style="fill:none;stroke:#000000;stroke-width:0.264583px;stroke-linecap:butt;stroke-linejoin:miter;stroke-opacity:1"
       d="m 202.20161,190.87103 c 1.94462,14.76096 -0.42159,29.90534 0.60875,44.82517 0.2896,4.1936 1.60403,8.31496 1.60403,12.54911"
       id="path270" />
    <path
       style="fill:none;stroke:#000000;stroke-width:0.264583px;stroke-linecap:butt;stroke-linejoin:miter;stroke-opacity:1"
       d="m 154.13943,95.658243 c 0.82829,3.700994 -2.4723,15.711177 1.19889,18.343067 0.59561,0.42699 0.55526,-1.35891 0.76584,-2.06086 0.9515,-3.17165 2.14576,-4.01535 3.41375,-5.94382"
       id="path292" />
    <path
       style="fill:none;stroke:#000000;stroke-width:0.264583px;stroke-linecap:butt;stroke-linejoin:miter;stroke-opacity:1"
       d="m 76.904865,63.771816 c 1.482434,5.178139 8.371911,11.365968 13.858586,13.423471 2.93388,1.100204 8.734923,2.306564 8.734351,2.313038 -0.04563,0.515448 -4.915807,-3.660299 -5.73505,-4.206462 -3.046296,-2.030865 -8.853588,-9.730335 -9.166373,-11.757422"
       id="path1022" />
    <path
       style="fill:none;stroke:#000000;stroke-width:0.264583px;stroke-linecap:butt;stroke-linejoin:miter;stroke-opacity:1"
       d="m 82.308154,72.909244 c 0.661802,3.555211 -2.021697,8.8924 0.144693,12.080917"
       id="path1024" />
  </g>
</svg>
