<?xml version="1.0" encoding="UTF-8" standalone="no"?>
<!-- Created with Inkscape (http://www.inkscape.org/) -->

<svg
   width="720"
   height="720"
   viewBox="0 0 190.5 190.50001"
   version="1.1"
   id="svg5"
   inkscape:version="1.1.2 (0a00cf5339, 2022-02-04)"
   sodipodi:docname="falcon1.svgz"
   xmlns:inkscape="http://www.inkscape.org/namespaces/inkscape"
   xmlns:sodipodi="http://sodipodi.sourceforge.net/DTD/sodipodi-0.dtd"
   xmlns="http://www.w3.org/2000/svg"
   xmlns:svg="http://www.w3.org/2000/svg">
  <sodipodi:namedview
     id="namedview7"
     pagecolor="#ffffff"
     bordercolor="#666666"
     borderopacity="1.0"
     inkscape:pageshadow="2"
     inkscape:pageopacity="0.0"
     inkscape:pagecheckerboard="true"
     inkscape:document-units="px"
     showgrid="false"
     units="px"
     width="720px"
     objecttolerance="2"
     inkscape:snap-grids="false"
     inkscape:snap-to-guides="true"
     inkscape:snap-page="false"
     showborder="true"
     inkscape:showpageshadow="false"
     borderlayer="false"
     inkscape:zoom="0.70710678"
     inkscape:cx="374.05949"
     inkscape:cy="340.11836"
     inkscape:window-width="1366"
     inkscape:window-height="754"
     inkscape:window-x="0"
     inkscape:window-y="0"
     inkscape:window-maximized="1"
     inkscape:current-layer="layer2" />
  <defs
     id="defs2" />
  <g
     inkscape:groupmode="layer"
     id="layer2"
     inkscape:label="Calque 2">
    <path
       style="fill:none;stroke:#ffffff;stroke-width:19.05;stroke-miterlimit:4;stroke-dasharray:none;stroke-opacity:1"
       d="M 68.176282,17.533717 C 77.566855,11.649399 90.87427,5.3671064 102.20888,5.3671064 c 0.63471,0 -0.75514,1.0441871 -1.26285,1.4250895 -2.051278,1.5389572 -5.396824,4.1255931 -7.637016,5.9488351 -7.327435,5.963637 -16.138494,12.880725 -24.071589,17.792426 -1.650246,1.021734 3.43507,-1.812938 5.201941,-2.616319 4.765766,-2.16695 9.747642,-3.95849 14.708387,-5.60389 4.067982,-1.349286 25.873077,-11.099621 28.992897,-11.099621 0.0419,0 -0.66436,0.486848 -1.8475,1.128379 -5.6879,3.084123 -11.4149,5.732362 -17.146385,8.809246 -9.890046,5.30936 -17.459495,12.598335 -26.807759,18.416541 -8.660699,5.390274 -1.327235,0.205158 4.513514,-2.585625 15.302746,-7.311843 31.11671,-11.425782 47.0528,-16.810209 2.48846,-0.840791 4.39677,-2.807431 6.76881,-3.781237 0.92428,-0.379447 2.80423,0.241661 2.90134,-0.75274 7.9e-4,-0.0076 -3.21058,3.088882 -6.44287,5.650663 -6.92012,5.484604 -13.87206,10.535296 -21.75198,14.667458 -8.317621,4.361688 -17.878105,6.621209 -25.107887,12.646026 -0.593177,0.494315 -7.855648,4.588676 -6.735191,5.196096 3.008911,1.63118 6.415379,-2.393823 9.671609,-3.447986 12.907275,-4.178562 26.168479,-7.377835 39.181919,-11.220935 21.06213,-6.220023 0.39194,0.859523 15.55467,-5.234099 -0.48083,-0.44349 6.49492,-1.322344 1.91766,0.416566 -5.4149,3.754578 -4.83657,7.331027 -10.45942,10.766369 -11.27239,6.88698 -29.37675,12.400368 -40.962194,18.691327 -6.40738,3.479239 -12.264813,7.888554 -18.789259,11.150777 -1.414597,0.7073 -5.46459,1.795481 -4.994389,3.977095 0.06389,0.296429 16.09673,-4.21278 17.877201,-4.700601 17.329002,-4.747884 35.490421,-5.575049 52.438911,-11.042618 2.51989,-0.812914 -4.93638,1.929897 -7.32569,3.070886 -10.65016,5.085861 -2.70081,1.981124 -16.4565,6.977822 -5.87543,2.134225 -51.125038,13.718287 -55.16485,17.396323 -1.672278,1.522524 4.512808,-0.31905 6.761502,-0.559803 2.911427,-0.311708 5.843598,-0.382947 8.765397,-0.574421 4.594392,-0.702558 9.16972,-1.543703 13.783173,-2.107671 10.366444,-1.267237 20.697168,-2.915957 31.110798,-3.706693 7.00782,-1.929706 36.06718,1.384162 36.06718,1.384162 -7.82265,1.524492 -30.19133,1.013143 -37.22333,1.761266 -5.54025,0.589417 -66.791343,12.931158 -70.343877,20.363429 -0.384924,0.8053 1.800167,-0.1631 2.677708,0 l 7.069905,1.31401 23.818726,-4.7693 h 47.894698 c 1.22339,0 36.49012,1.58097 41.48107,-3.40998 1.6663,-1.666302 -4.34651,1.86188 -6.62119,2.47746 -2.27948,0.61688 -4.59926,1.07381 -6.89889,1.61072 -5.35103,1.70962 -10.67814,3.49597 -16.05309,5.12885 -20.46656,6.21766 -41.762298,11.22449 -62.964105,14.09743 -12.688707,1.71937 -23.684269,1.07786 -35.402144,6.70596 6.448198,-0.81421 6.334502,-0.0902 8.834093,-0.33179 9.141302,-0.89895 18.265662,-1.96356 27.404106,-2.8911 29.73488,-3.01807 60.57539,-2.74826 89.59063,-7.76711 0.35576,-0.0615 -0.57466,0.461 -0.91644,0.57734 -0.65966,0.22454 -1.29404,0.51742 -1.94105,0.77613 -2.30012,0.53691 -4.62983,0.95994 -6.90036,1.61072 -4.36322,1.25057 -8.60919,2.89498 -12.98804,4.08964 -13.48166,3.67813 -26.83689,7.82995 -40.39362,11.22093 -19.090806,4.77525 -42.725034,5.29938 -59.526351,16.13348 -1.824019,1.17619 3.068437,-0.97625 5.203403,-1.36663 5.467686,-0.99974 5.593442,7.4508 11.071849,6.51157 25.473695,-4.36728 55.973539,-17.17592 81.677359,-19.91033 6.17641,-0.65706 14.55273,-4.16472 20.91301,-4.29135 1.45761,-0.029 -2.45869,1.59024 -3.79293,2.17783 -3.33147,1.46716 -6.68042,2.90624 -10.10279,4.14665 -3.26733,1.18422 -18.39729,5.65129 -21.23164,6.43702 -25.02232,6.93662 -53.11399,20.03284 -76.085166,33.2974 -1.016979,0.58724 2.381658,0.21704 3.522528,-0.0614 4.215029,-1.02868 8.411959,-2.1373 12.577329,-3.35152 6.513192,-1.89861 12.916056,-4.16964 19.452839,-5.98538 23.97475,-6.6595 17.11595,-3.79833 40.41115,-9.72861 10.88569,-2.77118 21.94716,-5.77095 32.8516,-8.61923 2.9703,-0.77585 7.06339,-3.33252 10.05602,-3.33252 0.42728,0 -0.86286,-0.0838 -1.28185,0 -1.98836,0.39767 -4.04681,3.31669 -5.35395,4.32935 -5.60655,4.34346 -2.29919,8.92835 -9.24335,12.61387 -22.7319,12.06468 -50.7439,17.51685 -75.233034,24.93103 -2.26714,0.68638 -18.012762,3.44865 -18.301073,5.55419 -0.272402,1.98937 4.018703,-0.13698 6.011685,-0.38148 5.984246,-0.73417 7.099126,-2.20551 14.144197,-4.01802 19.44446,-5.00256 40.227185,-5.6816 60.134395,-8.02874 4.80182,-0.56615 9.58321,-1.29668 14.3839,-1.87235 9.35845,-1.1222 17.06485,-4.54217 7.94981,0.48234 -11.31566,6.23757 -23.26046,11.26791 -34.6611,17.36271 -1.5783,0.84376 -11.88898,6.35433 -11.67112,6.76442 0.8195,1.5426 24.22288,-3.89524 28.17438,-3.89524 5.09313,0 11.89221,-1.19862 16.97976,-1.92497"
       id="path4178"
       sodipodi:nodetypes="cssssssssssssscssssssccsssssssssscsccsssccssscssccssscsssssssssssssssssssssssssssssssc" />
  </g>
  <g
     inkscape:label="Calque 1"
     inkscape:groupmode="layer"
     id="layer1">
    <path
       style="fill:none;stroke:#000000;stroke-width:0.529167;stroke-miterlimit:4;stroke-dasharray:none;stroke-opacity:1"
       d="m 79.636516,48.280475 c 2.324521,3.366709 1.503318,7.33316 2.218955,11.053236 1.261157,6.555851 8.280427,16.753729 13.697834,20.474334 1.727234,1.186244 5.999425,0.06926 7.875105,0.06926 7.43737,0 9.64898,-2.350565 14.6801,-7.381686"
       id="path1340"
       sodipodi:nodetypes="csssc" />
    <path
       style="fill:none;stroke:#000000;stroke-width:0.529167;stroke-miterlimit:4;stroke-dasharray:none;stroke-opacity:1"
       d="m 78.371591,32.167527 c 0.52937,2.849402 -0.421751,13.106099 1.080855,15.396866"
       id="path1344"
       sodipodi:nodetypes="cc" />
    <path
       style="fill:none;stroke:#000000;stroke-width:0.529167;stroke-miterlimit:4;stroke-dasharray:none;stroke-opacity:1"
       d="m 77.87718,13.754256 c -0.144397,2.933628 0.06175,5.797466 0.754242,8.650775 0.833126,3.432771 3.211526,8.294452 7.548034,7.745571 1.38135,-0.174839 1.198785,-1.395827 3.542244,-0.798576 2.621513,0.668118 6.217457,1.026528 8.582869,2.217833 0.772729,0.389171 2.900351,0 3.769531,0 7.26594,0 21.52508,-2.28909 21.52508,8.439206"
       id="path1346" />
    <path
       style="fill:none;stroke:#000000;stroke-width:0.529167;stroke-miterlimit:4;stroke-dasharray:none;stroke-opacity:1"
       d="M 75.420844,35.046442 C 70.944255,27.875858 65.691207,15.030971 75.031374,9.5997511"
       id="path1356" />
    <path
       style="fill:none;stroke:#000000;stroke-width:0.529167;stroke-miterlimit:4;stroke-dasharray:none;stroke-opacity:1"
       d="m 76.133557,9.9970749 c 6.306034,-5.1726588 4.081891,1.2855411 5.338059,1.8704531 0.12075,0.05623 5.09887,-4.070166 6.508144,-4.1197108 0.474504,-0.016682 -0.848341,4.7746688 0.416965,7.7270528 0.850167,1.983724 4.220911,-3.05127 5.824612,-1.039327 2.253938,2.827704 2.331897,5.486176 3.664585,8.595778 0.131659,0.307206 0.07318,0.817336 0.390027,0.923722 0.672405,0.225771 2.920971,-1.458631 3.542801,-1.831731"
       id="path1362" />
    <path
       style="fill:none;stroke:#000000;stroke-width:0.529167;stroke-miterlimit:4;stroke-dasharray:none;stroke-opacity:1"
       d="M 124.25241,18.532806 C 117.47725,15.842389 104.43194,7.8178572 96.737162,13.0219"
       id="path1378" />
    <path
       style="fill:none;stroke:#000000;stroke-width:0.529167;stroke-miterlimit:4;stroke-dasharray:none;stroke-opacity:1"
       d="m 125.32316,19.630498 c 2.21613,0.06785 6.7336,-1.880252 8.88255,-0.63527 1.11577,0.646417 -3.80004,2.582754 -2.75994,4.144964 0.90738,1.36289 6.66225,6.648995 5.06644,8.544711 -0.15085,0.179202 -3.48352,-2.571626 -3.67469,-2.842999 -0.80123,-1.137396 0.98237,2.619733 1.69817,3.812739 1.59482,2.658033 1.97091,5.941412 1.97091,9.081209 0,11.063082 -1.60276,20.365583 -7.71752,29.203312"
       id="path1384" />
    <path
       style="fill:none;stroke:#000000;stroke-width:0.529167;stroke-miterlimit:4;stroke-dasharray:none;stroke-opacity:1"
       d="m 122.37466,55.447458 c 1.24311,-1.266574 2.86363,-1.174575 4.54902,-1.174575 7.22119,0 -3.38658,16.549534 -5.65176,10.886564"
       id="path1474" />
    <path
       style="fill:none;stroke:#000000;stroke-width:0.529167;stroke-miterlimit:4;stroke-dasharray:none;stroke-opacity:1"
       d="m 123.59918,40.009065 c 0.39947,2.522429 -0.26683,4.847643 -0.90745,7.135556 -0.0576,0.205761 1.69241,-0.894591 1.69761,-0.884999 1.10393,2.037154 -0.56151,6.018945 -1.03372,7.907755"
       id="path1476" />
    <path
       style="fill:none;stroke:#000000;stroke-width:0.529167;stroke-miterlimit:4;stroke-dasharray:none;stroke-opacity:1"
       d="m 98.426183,47.753287 c 4.208227,0.114626 12.728207,-2.701232 15.556497,1.295371"
       id="path3104" />
    <path
       style="fill:none;stroke:#000000;stroke-width:0.529167;stroke-miterlimit:4;stroke-dasharray:none;stroke-opacity:1"
       d="m 93.117175,47.959379 c -2.756387,0.0956 -11.226877,-1.471324 -13.155769,0.244822"
       id="path3108" />
    <path
       style="fill:none;stroke:#000000;stroke-width:0.529167;stroke-miterlimit:4;stroke-dasharray:none;stroke-opacity:1"
       d="m 100.4626,52.110408 c 0.28238,-2.000377 10.33783,-2.587982 11.34006,-2.045552 0.74863,0.405181 0.92192,1.170041 0.92192,1.953104"
       id="path3114" />
    <path
       style="fill:none;stroke:#000000;stroke-width:0.529167;stroke-miterlimit:4;stroke-dasharray:none;stroke-opacity:1"
       d="m 104.0129,50.857792 c -0.96974,0.317396 -0.74584,2.198433 0.12935,2.549083"
       id="path3118" />
    <path
       style="fill:none;stroke:#000000;stroke-width:0.529167;stroke-miterlimit:4;stroke-dasharray:none;stroke-opacity:1"
       d="m 109.48049,50.263638 c 0.68361,1.449245 0.53414,3.067251 -0.99135,3.41035"
       id="path3120" />
    <path
       style="fill:none;stroke:#000000;stroke-width:0.529167;stroke-miterlimit:4;stroke-dasharray:none;stroke-opacity:1"
       d="m 105.24268,50.384404 c -1.60886,2.713236 2.16392,3.738158 3.31516,1.435688 0.23172,-0.463444 0.23988,-1.402609 -0.3285,-1.511327"
       id="path3128" />
    <path
       style="fill:none;stroke:#000000;stroke-width:0.529167;stroke-miterlimit:4;stroke-dasharray:none;stroke-opacity:1"
       d="m 105.08957,51.221919 c 0.25463,-0.319532 0.67445,-0.530122 1.07832,-0.562726 0.18402,-0.01484 -0.85503,1.5616 -0.85999,1.752494 -0.005,0.189558 1.34515,-1.887757 1.41906,-1.830874 0.17194,0.132307 -0.97178,2.080312 -0.88593,2.089398 0.27762,0.02938 2.21308,-3.425298 1.44829,-1.105175 -0.12492,0.378995 -0.40144,0.708332 -0.54372,1.080876 -0.084,0.219858 0.28979,-0.371248 0.42351,-0.56492 0.28859,-0.418005 0.41337,-1.108472 0.74159,-1.470036 0.0395,-0.04347 0.008,0.117981 0,0.176128 -0.056,0.402016 -0.1384,0.826567 -0.0287,1.217356"
       id="path3130" />
    <path
       style="fill:none;stroke:#000000;stroke-width:0.529167;stroke-miterlimit:4;stroke-dasharray:none;stroke-opacity:1"
       d="M 92.395913,52.188548 C 91.560867,50.011371 82.339679,48.953948 82.339679,51.519337"
       id="path3267" />
    <path
       style="fill:none;stroke:#000000;stroke-width:0.529167;stroke-miterlimit:4;stroke-dasharray:none;stroke-opacity:1"
       d="m 87.754079,50.51604 c -1.383742,-0.07508 -1.60849,2.320962 -0.761712,3.094643"
       id="path3271" />
    <path
       style="fill:none;stroke:#000000;stroke-width:0.529167;stroke-miterlimit:4;stroke-dasharray:none;stroke-opacity:1"
       d="m 92.097741,51.954712 c 0.07154,0.638643 -0.004,1.301766 -0.600999,1.56347"
       id="path3273" />
    <path
       style="fill:none;stroke:#000000;stroke-width:0.529167;stroke-miterlimit:4;stroke-dasharray:none;stroke-opacity:1"
       d="m 88.574054,50.692514 c -2.144117,2.642069 2.796598,3.590917 2.796598,0.980432"
       id="path3392" />
    <path
       style="fill:none;stroke:#000000;stroke-width:0.529167;stroke-miterlimit:4;stroke-dasharray:none;stroke-opacity:1"
       d="m 88.033518,52.301977 c 0.150593,-0.601226 0.770795,-1.111726 1.330926,-1.381312 0.143817,-0.06922 -0.09749,0.30798 -0.184227,0.441965 -0.08424,0.130138 -0.789768,0.779428 -0.603451,1.002908 0.04318,0.05179 1.458296,-1.534554 1.685684,-1.402498 0.206608,0.119989 -1.277183,1.756511 -1.200184,1.761133 0.600945,0.03608 2.494037,-2.614763 1.450041,-0.543507 -0.25862,0.513093 -0.04685,0.0865 -0.25218,0.502036"
       id="path3394" />
    <path
       style="fill:none;stroke:#000000;stroke-width:0.529167;stroke-miterlimit:4;stroke-dasharray:none;stroke-opacity:1"
       d="m 93.684722,48.381546 c 0.33101,0.740809 0.872588,1.304951 1.062469,2.064472 0.421616,1.686462 1.962388,5.378754 1.190625,7.299812 -0.533837,1.328817 -2.246072,3.865933 -1.552361,5.272548"
       id="path3509" />
    <path
       style="fill:none;stroke:#000000;stroke-width:0.529167;stroke-miterlimit:4;stroke-dasharray:none;stroke-opacity:1"
       d="m 100.36985,67.461775 c -1.278717,0.386801 -3.412835,-0.177904 -4.101564,0.511728"
       id="path3519"
       sodipodi:nodetypes="cc" />
    <path
       style="fill:none;stroke:#000000;stroke-width:0.529167;stroke-miterlimit:4;stroke-dasharray:none;stroke-opacity:1"
       d="m 123.91994,75.053253 c -2.72054,4.335981 -2.68567,10.798855 -0.43849,15.335425"
       id="path4091" />
    <path
       style="fill:none;stroke:#000000;stroke-width:0.529167;stroke-miterlimit:4;stroke-dasharray:none;stroke-opacity:1"
       d="m 98.725815,81.250565 c 0.800037,1.996077 1.094761,3.553655 0.559806,5.476729"
       id="path4095" />
    <path
       style="fill:none;stroke:#000000;stroke-width:0.529167;stroke-miterlimit:4;stroke-dasharray:none;stroke-opacity:1"
       d="M 98.969909,83.380159 C 89.491933,86.432046 72.370333,83.851903 63.743156,87.985758 58.478239,90.508529 56.398,99.239848 54.733668,103.80644"
       id="path4097" />
    <path
       style="fill:none;stroke:#000000;stroke-width:0.529167;stroke-miterlimit:4;stroke-dasharray:none;stroke-opacity:1"
       d="m 122.47877,83.989661 c 19.27895,16.934689 44.72735,-2.592975 44.72735,30.242589"
       id="path4105" />
    <path
       style="fill:none;stroke:#000000;stroke-width:0.529167;stroke-miterlimit:4;stroke-dasharray:none;stroke-opacity:1"
       d="m 147.66412,121.05368 c -1.8926,16.36002 5.42983,33.00127 1.34324,49.15609"
       id="path4109" />
    <path
       style="fill:none;stroke:#000000;stroke-width:0.529167;stroke-miterlimit:4;stroke-dasharray:none;stroke-opacity:1"
       d="m 70.573357,118.64053 c 0.664511,4.02813 0.367514,8.15808 0.773202,12.18853 0.764876,7.59894 1.675744,15.18404 2.752249,22.71958 1.639163,11.47413 -1.902709,23.40754 -0.390255,34.68595"
       id="path4127" />
    <path
       style="fill:none;stroke:#000000;stroke-width:0.529167;stroke-miterlimit:4;stroke-dasharray:none;stroke-opacity:1"
       d="m 144.29214,129.64807 c -6.53452,19.63785 -5.04116,40.02384 -5.04116,60.34779"
       id="path4135" />
    <path
       style="fill:none;stroke:#000000;stroke-width:0.529167;stroke-miterlimit:4;stroke-dasharray:none;stroke-opacity:1"
       d="m 53.97216,104.36771 c 0.50479,21.67254 -6.910139,42.86639 0.127161,63.86009 1.36225,4.06387 0.896922,9.00872 3.377827,12.74687"
       id="path4151" />
    <path
       style="fill:none;stroke:#000000;stroke-width:0.529167;stroke-miterlimit:4;stroke-dasharray:none;stroke-opacity:1"
       d="m 167.40344,116.69948 c -0.28964,4.35762 -0.14617,8.74721 -0.14617,13.11667 0,12.87381 -1.04329,25.89677 -3.11765,38.34295 -1.54777,9.28659 -6.038,17.49352 -6.038,27.35295"
       id="path4157" />
    <path
       style="fill:none;stroke:#000000;stroke-width:0.529167;stroke-miterlimit:4;stroke-dasharray:none;stroke-opacity:1"
       d="m 150.64877,156.14304 c 3.81694,0.32521 6.75539,2.88347 10.22995,4.06187 1.85587,0.62942 4.99578,0 6.96028,0 0.30509,0 -4.31844,1.24638 -8.08866,-0.009 -4.21214,-1.40227 -7.64658,-3.63804 -11.90936,-4.85407"
       id="path4159" />
    <path
       style="fill:none;stroke:#000000;stroke-width:0.529167;stroke-miterlimit:4;stroke-dasharray:none;stroke-opacity:1"
       d="m 71.51757,134.59569 c -2.896428,16.44256 -0.05408,32.56865 -0.05408,48.75998"
       id="path4163" />
    <path
       style="fill:none;stroke:#000000;stroke-width:0.529167;stroke-miterlimit:4;stroke-dasharray:none;stroke-opacity:1"
       d="m 49.3461,145.9014 c 1.765649,0.39999 3.558074,0.69617 5.296948,1.19999 5.567214,1.61307 10.307847,3.94056 15.997542,3.94056 0.308893,0 -0.617781,0 -0.926674,0 -1.906535,0 -3.964072,-0.89051 -5.598044,-1.87089 -5.016868,-3.01012 -10.717834,-3.7759 -15.703754,-7.11521"
       id="path4165" />
    <path
       style="fill:none;stroke:#000000;stroke-width:0.529167;stroke-miterlimit:4;stroke-dasharray:none;stroke-opacity:1"
       d="m 89.634475,84.626931 c 0.990957,3.604824 1.566217,6.865051 3.532762,10.134944 2.532568,4.211056 6.232099,10.704325 10.780983,13.033355 6.65465,3.40718 26.63574,-10.932785 25.71885,-18.308379"
       id="path4175" />
  </g>
</svg>
