<?xml version="1.0" encoding="UTF-8" standalone="no"?>
<!-- Created with Inkscape (http://www.inkscape.org/) -->

<svg
   width="720"
   height="720"
   viewBox="0 0 190.5 190.50001"
   version="1.1"
   id="svg5"
   inkscape:version="1.1.2 (0a00cf5339, 2022-02-04)"
   sodipodi:docname="michelle1.svgz"
   xmlns:inkscape="http://www.inkscape.org/namespaces/inkscape"
   xmlns:sodipodi="http://sodipodi.sourceforge.net/DTD/sodipodi-0.dtd"
   xmlns="http://www.w3.org/2000/svg"
   xmlns:svg="http://www.w3.org/2000/svg">
  <sodipodi:namedview
     id="namedview7"
     pagecolor="#ffffff"
     bordercolor="#666666"
     borderopacity="1.0"
     inkscape:pageshadow="2"
     inkscape:pageopacity="0.0"
     inkscape:pagecheckerboard="true"
     inkscape:document-units="px"
     showgrid="false"
     units="px"
     width="720px"
     objecttolerance="2"
     inkscape:snap-grids="false"
     inkscape:snap-to-guides="true"
     inkscape:snap-page="false"
     showborder="true"
     inkscape:showpageshadow="false"
     borderlayer="false"
     inkscape:zoom="1"
     inkscape:cx="385.5"
     inkscape:cy="477.5"
     inkscape:window-width="1366"
     inkscape:window-height="754"
     inkscape:window-x="0"
     inkscape:window-y="0"
     inkscape:window-maximized="1"
     inkscape:current-layer="layer1" />
  <defs
     id="defs2" />
  <g
     inkscape:groupmode="layer"
     id="layer2"
     inkscape:label="Calque 2"
     sodipodi:insensitive="true">
    <path
       style="fill:none;stroke:#ffffff;stroke-width:19.05;stroke-miterlimit:4;stroke-dasharray:none;stroke-opacity:1"
       d="m 69.855731,62.401752 c 6.34998,-0.318479 10.40332,-4.414951 15.61455,-7.263638 3.44009,-1.880502 7.6758,-2.737088 11.120771,-4.493784 8.438618,-4.303101 16.015628,-7.726659 26.127608,-7.726659 2.46132,0 -3.58041,3.411138 -5.61826,4.791438 -6.04982,4.097724 -12.0887,7.819879 -18.053678,12.055078 -6.102331,4.332716 -31.492611,19.987454 -34.552931,27.107387 -0.70014,1.6289 3.66666,-0.54654 5.05809,-1.64538 6.74275,-5.324868 13.48328,-10.079475 21.07985,-14.407384 5.481181,-3.122732 10.700129,-5.379003 16.313209,-8.185547 7.51641,-3.758205 22.02923,-5.50004 28.13886,-11.172444 1.63595,-1.518881 -3.66932,2.626394 -5.1015,4.338754 -2.77815,3.321626 -11.57271,13.011885 -13.39867,14.744319 -8.93383,8.476245 -42.350179,27.67416 -47.023489,36.159028 -0.49927,0.90649 2.13537,-0.0629 3.05925,-0.52917 5.13598,-2.59223 10.21972,-5.2869 15.31069,-7.966438 15.885899,-8.361218 39.753159,-24.896892 56.629109,-30.317522 2.15091,-0.690885 -3.90737,2.279698 -5.75469,3.580144 -4.97979,3.505578 -9.95739,7.018779 -14.80633,10.703221 -5.9802,4.544019 -62.478699,42.723565 -67.197969,50.471345 -0.40884,0.6712 1.53746,0.40101 2.32337,0.40101 8.27028,0 21.29913,-5.47414 27.12186,-7.16649 4.32141,-1.256 8.705091,-2.28776 13.043131,-3.48506 1.430018,-0.39468 44.704828,-40.335198 48.978928,-40.441982 3.76024,-0.09395 -12.6603,26.334262 -14.95103,31.154692 -6.87097,4.91569 11.9293,-1.46485 2.8484,5.59758 -7.91736,6.15753 -10.49829,3.28557 -18.95284,8.67752 -10.52074,6.70968 -45.36076,21.84306 -51.59272,32.14068 -1.37255,2.26798 7.320371,2.60444 9.788551,1.6371 3.18722,-1.24914 6.38032,-2.48322 9.57047,-3.72483 4.38217,-2.04915 8.65623,-4.34747 13.146491,-6.14743 1.37563,-4.25883 53.620528,-36.90872 54.615788,-28.38896 -15.36694,6.96651 4.81058,5.79711 1.16582,8.36537 -7.39356,5.20982 -17.09695,5.92384 -25.75347,8.54522 -2.69961,0.8175 -62.975559,22.46874 -63.295359,31.97324 -0.0648,1.92489 10.608199,9.95183 15.959749,8.48321 19.119782,-5.24705 34.67928,-21.26339 52.57767,-28.79205 1.80503,-0.75925 17.7586,-6.39305 17.74155,-6.32726 -2.31425,8.93381 -53.329398,46.06633 -69.827259,57.34637 -2.13084,1.45691 -5.26099,1.5 -6.91844,3.47886 -3.7644,4.49438 16.18582,-6.26266 23.430091,-8.76226 7.204538,-2.48588 50.271618,-19.00238 54.652998,-26.68157 0.55063,-0.96509 -0.35199,5.17777 -0.40515,5.22552 -4.24557,3.81376 -9.85299,8.94803 -14.4942,12.32586 -8.24244,5.99876 -61.816789,32.54134 -62.555359,41.99227 -0.10869,1.39083 2.68213,-0.76908 4.01836,-1.16995 6.284,-1.8852 10.24979,-1.63676 17.115241,-4.96094 19.804638,-9.58922 38.701398,-19.74612 58.578328,-28.49852 3.05188,-1.34383 -4.07797,5.27967 -6.22391,7.83208 -4.65645,5.53846 -8.97632,11.1871 -14.75465,15.51533"
       id="path1273"
       sodipodi:nodetypes="csssssssssssssccsssssssscsssscccssssscsssscssssssc" />
  </g>
  <g
     inkscape:label="Calque 1"
     inkscape:groupmode="layer"
     id="layer1">
    <path
       style="fill:none;stroke:#000000;stroke-width:0.529167;stroke-miterlimit:4;stroke-dasharray:none;stroke-opacity:1;stroke-dashoffset:0"
       d="m 73.548838,80.404778 c -1.283214,3.170346 0.361836,6.168536 1.137581,9.133536 1.42381,5.441998 -0.521041,9.015368 3.27904,14.754586 3.412744,5.15422 9.784046,9.25954 15.361857,11.25664 5.522816,1.97739 17.550454,-3.9123 21.454214,-7.82143"
       id="path1033"
       sodipodi:nodetypes="csssc" />
    <path
       style="fill:none;stroke:#000000;stroke-width:0.529167;stroke-miterlimit:4;stroke-dasharray:none;stroke-opacity:1;stroke-dashoffset:0"
       d="m 121.70536,86.028024 c -2.33892,-0.58531 -3.60103,-3.09134 -5.84791,-3.830294 -9.05138,-2.976788 -21.736548,-6.877347 -22.012968,-18.509267 -3.80474,8.966902 -11.39897,14.86519 -20.295644,16.716315"
       id="path1117" />
    <path
       style="fill:none;stroke:#000000;stroke-width:0.529167;stroke-miterlimit:4;stroke-dasharray:none;stroke-opacity:1;stroke-dashoffset:0"
       d="m 142.31992,124.86033 c -0.71627,-1.60202 -1.57048,-3.41938 -1.57048,-5.23638 0,-4.45265 -1.79251,-5.54381 1.2954,-2.10968 0.1391,0.1547 6.79588,4.39208 6.74768,1.16608 -0.0301,-2.01203 -1.61354,-3.93394 -2.16557,-5.74271 -1.13172,-3.70818 -1.48398,-8.86592 -1.97269,-12.72711 -0.34699,-2.741538 0.55783,-5.678428 0.55783,-8.354318 0,-14.648403 -2.01122,-26.06552 -12.63395,-36.694129 -4.38399,-4.386422 -10.4084,-7.454102 -16.80618,-7.043585 -3.59269,-3.409075 -7.94392,-2.824104 -12.5397,-3.041221 C 80.637324,44.009829 65.39787,65.47836 70.767351,86.956284"
       id="path1129" />
    <path
       style="fill:none;stroke:#000000;stroke-width:0.529167;stroke-miterlimit:4;stroke-dasharray:none;stroke-opacity:1;stroke-dashoffset:0"
       d="m 102.99992,62.728425 c 2.66535,4.500669 7.38097,8.594225 11.76707,11.518289"
       id="path1145" />
    <path
       style="fill:none;stroke:#000000;stroke-width:0.529167;stroke-miterlimit:4;stroke-dasharray:none;stroke-opacity:1;stroke-dashoffset:0"
       d="m 107.69382,61.448371 c 17.34218,2.869615 19.0649,38.487381 19.0649,51.636129 0,5.32963 0.0173,11.00904 0.59509,16.29328 0.20629,1.88678 -0.4298,7.43449 0.30796,5.68572 6.42928,-15.23977 3.38286,2.63372 8.10555,-4.75417 1.28621,-2.01207 2.08642,-3.94697 2.53709,-6.15807"
       id="path1151" />
    <path
       style="fill:none;stroke:#000000;stroke-width:0.529167;stroke-miterlimit:4;stroke-dasharray:none;stroke-opacity:1;stroke-dashoffset:0"
       d="M 89.188941,62.215525 C 80.746534,61.139359 72.961733,72.54733 73.548838,80.404778"
       id="path1167" />
    <path
       style="fill:none;stroke:#000000;stroke-width:0.529167;stroke-miterlimit:4;stroke-dasharray:none;stroke-opacity:1;stroke-dashoffset:0"
       d="m 112.37456,57.219155 c 19.84778,15.826494 17.35415,41.324997 17.35415,64.567075"
       id="path1177" />
    <path
       style="fill:none;stroke:#000000;stroke-width:0.529167;stroke-miterlimit:4;stroke-dasharray:none;stroke-opacity:1;stroke-dashoffset:0"
       d="m 116.47117,51.183834 c 22.28085,10.809433 18.94142,36.30481 23.15604,56.554686"
       id="path1179" />
    <path
       style="fill:none;stroke:#000000;stroke-width:0.529167;stroke-miterlimit:4;stroke-dasharray:none;stroke-opacity:1;stroke-dashoffset:0"
       d="M 108.43467,48.242339 C 100.32152,47.671822 90.061807,46.259293 84.033659,52.28744"
       id="path1181" />
    <path
       style="fill:none;stroke:#000000;stroke-width:0.529167;stroke-miterlimit:4;stroke-dasharray:none;stroke-opacity:1;stroke-dashoffset:0"
       d="M 100.2283,52.223877 C 91.769264,51.205718 82.405887,52.528576 76.170316,58.63072"
       id="path1183" />
    <path
       style="fill:none;stroke:#000000;stroke-width:0.529167;stroke-miterlimit:4;stroke-dasharray:none;stroke-opacity:1;stroke-dashoffset:0"
       d="m 86.397044,85.318954 c -3.152695,-0.83918 -10.35164,-2.420192 -12.603813,-0.85976"
       id="path1215" />
    <path
       style="fill:none;stroke:#000000;stroke-width:0.529167;stroke-miterlimit:4;stroke-dasharray:none;stroke-opacity:1;stroke-dashoffset:0"
       d="m 97.921362,85.886104 c 3.083338,-1.05197 12.056618,-3.383355 14.608278,-0.0159"
       id="path1219" />
    <path
       style="fill:none;stroke:#000000;stroke-width:0.529167;stroke-miterlimit:4;stroke-dasharray:none;stroke-opacity:1;stroke-dashoffset:0"
       d="m 87.860942,86.434894 c 0.678577,0.24012 0.941255,0.91704 1.40581,1.43321 0.520584,0.57843 1.148882,1.0328 1.613218,1.61322 0.494541,0.61817 0.690652,1.757298 0.840859,2.520648 0.238189,1.21049 0.742913,2.51663 0.503857,3.79304 -0.348618,1.86139 -4.981073,-0.31614 -3.82097,3.52275"
       id="path1295"
       sodipodi:nodetypes="cssssc" />
    <path
       style="fill:none;stroke:#000000;stroke-width:0.529167;stroke-miterlimit:4;stroke-dasharray:none;stroke-opacity:1;stroke-dashoffset:0"
       d="m 89.971714,103.44382 c -0.233381,-0.0344 -0.354597,-0.0397 -0.520843,0.10822 -0.451252,0.40144 1.262452,1.2015 1.331836,1.24115 1.430393,0.81737 6.354575,-0.98497 4.292235,-0.98497"
       id="path1313" />
    <path
       style="fill:none;stroke:#000000;stroke-width:0.529167;stroke-miterlimit:4;stroke-dasharray:none;stroke-opacity:1;stroke-dashoffset:0"
       d="m 98.519762,116.32292 c 1.44295,1.87722 1.10169,4.6973 2.351178,6.57153"
       id="path2606" />
    <path
       style="fill:none;stroke:#000000;stroke-width:0.529167;stroke-miterlimit:4;stroke-dasharray:none;stroke-opacity:1;stroke-dashoffset:0"
       d="m 122.09355,107.50871 c -0.0179,5.04473 -1.78746,11.9178 1.26471,16.42727"
       id="path2610" />
    <path
       style="fill:none;stroke:#000000;stroke-width:0.529167;stroke-miterlimit:4;stroke-dasharray:none;stroke-opacity:1;stroke-dashoffset:0"
       d="m 123.13708,122.03429 c 3.74121,2.62766 23.41137,8.75601 23.41137,23.29401"
       id="path2614"
       sodipodi:nodetypes="cc" />
    <path
       style="fill:none;stroke:#000000;stroke-width:0.529167;stroke-miterlimit:4;stroke-dasharray:none;stroke-opacity:1;stroke-dashoffset:0"
       d="m 101.14586,121.6046 c -4.227278,0.10788 -9.522412,3.01411 -12.413853,4.46171 -8.133157,4.07188 -7.152004,7.02035 -8.592361,16.91546"
       id="path2616"
       sodipodi:nodetypes="csc" />
    <path
       style="fill:none;stroke:#000000;stroke-width:0.529167;stroke-miterlimit:4;stroke-dasharray:none;stroke-opacity:1;stroke-dashoffset:0"
       d="m 131.90765,142.85384 c -3.879,6.9931 -4.48368,15.5967 0.0991,15.79824 0.84544,0.0372 12.68389,1.65576 13.19501,-0.0914 1.26402,-4.32077 1.34664,-8.69598 1.34664,-13.23239"
       id="path2620"
       sodipodi:nodetypes="cssc" />
    <path
       style="fill:none;stroke:#000000;stroke-width:0.529167;stroke-miterlimit:4;stroke-dasharray:none;stroke-opacity:1;stroke-dashoffset:0"
       d="m 130.53227,156.24018 c -0.39356,5.87347 -0.688,12.75281 -5.76713,15.85225"
       id="path2622" />
    <path
       style="fill:none;stroke:#000000;stroke-width:0.529167;stroke-miterlimit:4;stroke-dasharray:none;stroke-opacity:1;stroke-dashoffset:0"
       d="m 144.93567,158.70384 c -1.2262,7.58542 -4.35457,16.26529 -9.631,22.86084 -9.5776,11.97199 -34.01139,-10.89474 -42.793955,-17.86583"
       id="path2624"
       sodipodi:nodetypes="csc" />
    <path
       style="fill:none;stroke:#000000;stroke-width:0.529167;stroke-miterlimit:4;stroke-dasharray:none;stroke-opacity:1;stroke-dashoffset:0"
       d="m 80.215589,144.09149 c 0.0296,4.25153 -9.132295,20.94782 -8.498036,23.25917 2.490883,9.0772 19.931479,11.56526 27.583349,11.56526"
       id="path2636" />
    <path
       style="fill:none;stroke:#000000;stroke-width:0.529167;stroke-miterlimit:4;stroke-dasharray:none;stroke-opacity:1;stroke-dashoffset:0"
       d="m 82.386982,159.19205 c 6.418779,3.01568 12.24454,6.61325 19.153508,8.34305"
       id="path2638" />
    <path
       style="fill:none;stroke:#000000;stroke-width:0.529167;stroke-miterlimit:4;stroke-dasharray:none;stroke-opacity:1;stroke-dashoffset:0"
       d="m 80.215589,144.09149 c 3.092175,2.80232 6.639986,5.61835 10.032424,7.6642"
       id="path2640" />
    <path
       style="fill:none;stroke:#000000;stroke-width:0.529167;stroke-miterlimit:4;stroke-dasharray:none;stroke-opacity:1;stroke-dashoffset:0"
       d="m 87.50781,153.51171 c -0.02966,2.75765 -0.262903,5.55255 -1.106619,7.98812"
       id="path2642" />
    <path
       style="fill:none;stroke:#000000;stroke-width:0.529167;stroke-miterlimit:4;stroke-dasharray:none;stroke-opacity:1;stroke-dashoffset:0"
       d="m 137.19876,180.28602 c -0.3241,9.74539 5.00802,19.80169 6.99929,29.68965"
       id="path2660" />
    <path
       style="fill:none;stroke:#000000;stroke-width:0.529167;stroke-miterlimit:4;stroke-dasharray:none;stroke-opacity:1;stroke-dashoffset:0"
       d="m 84.896105,177.59135 c -0.930172,11.76597 -1.332416,24.05231 -4.118052,35.19485"
       id="path2662" />
    <path
       style="fill:none;stroke:#000000;stroke-width:0.529167;stroke-miterlimit:4;stroke-dasharray:none;stroke-opacity:1;stroke-dashoffset:0"
       d="m 69.69185,90.039154 c 6.220032,15.429636 -2.553636,32.155136 1.734326,47.801646 0.717322,2.61746 -0.67123,-5.88784 0.914434,-8.09042 0.6238,-0.86649 4.062722,4.14281 4.711658,3.92587 4.335174,-1.44924 0.786537,-9.86155 3.364807,-11.50327 1.884849,-1.20019 2.612443,4.73403 4.587668,2.7588 2.440983,-2.44098 6.219683,-10.7211 8.358545,-6.63972"
       id="path2873" />
    <path
       style="fill:none;stroke:#000000;stroke-width:0.529167;stroke-miterlimit:4;stroke-dasharray:none;stroke-opacity:1;stroke-dashoffset:0"
       d="m 99.495742,124.39655 c -1.8961,1.82374 -1.59124,4.49797 -2.07843,6.93394 -0.39151,1.95755 -2.69237,8.09782 -0.87747,9.86916 1.7665,1.72411 19.872188,5.29709 22.409998,1.90893 3.22565,-4.30647 1.69316,-11.95403 5.34541,-15.60628"
       id="path4772" />
    <path
       style="fill:none;stroke:#000000;stroke-width:0.529167;stroke-miterlimit:4;stroke-dasharray:none;stroke-opacity:1;stroke-dashoffset:0"
       d="m 88.186866,158.51023 c 6.817596,-5.2008 16.443484,0.83873 22.209494,3.72173 5.33485,2.66743 11.29659,5.67653 16.9695,7.5675"
       id="path5098"
       sodipodi:nodetypes="csc" />
    <path
       style="fill:none;stroke:#000000;stroke-width:0.529167;stroke-miterlimit:4;stroke-dasharray:none;stroke-opacity:1;stroke-dashoffset:0"
       d="m 98.662712,179.01337 c 4.485628,-0.32647 9.022668,-0.20361 13.533018,-0.20361"
       id="path5108" />
    <path
       style="fill:none;stroke:#000000;stroke-width:0.529167;stroke-miterlimit:4;stroke-dasharray:none;stroke-opacity:1;stroke-dashoffset:0"
       d="m 130.8933,161.83509 c -4.62352,-1.60287 -7.50823,3.8778 -11.91142,3.8778"
       id="path5528" />
    <path
       style="fill:none;stroke:#000000;stroke-width:0.529167;stroke-miterlimit:4;stroke-dasharray:none;stroke-opacity:1;stroke-dashoffset:0"
       d="m 97.336982,91.246072 c 0.95523,-0.943858 2.36694,-2.234478 3.873678,-2.828618 2.2208,-0.87571 9.01591,-2.26332 10.44372,0.59525"
       id="path6582" />
    <path
       style="fill:none;stroke:#000000;stroke-width:0.529167;stroke-miterlimit:4;stroke-dasharray:none;stroke-opacity:1;stroke-dashoffset:0"
       d="m 103.34647,88.345464 c -0.72254,1.45404 -0.55269,3.370878 0.89854,4.081238"
       id="path6584" />
    <path
       style="fill:none;stroke:#000000;stroke-width:0.529167;stroke-miterlimit:4;stroke-dasharray:none;stroke-opacity:1;stroke-dashoffset:0"
       d="m 111.41942,89.151554 c -0.12028,1.500058 0.48413,3.198378 -1.17844,3.628858"
       id="path6586" />
    <path
       style="fill:none;stroke:#000000;stroke-width:0.529167;stroke-miterlimit:4;stroke-dasharray:none;stroke-opacity:1;stroke-dashoffset:0"
       d="m 105.04817,87.839374 c -2.61034,3.625318 3.7856,6.923528 6.357,4.103528"
       id="path6592" />
    <path
       style="fill:none;stroke:#000000;stroke-width:0.529167;stroke-miterlimit:4;stroke-dasharray:none;stroke-opacity:1;stroke-dashoffset:0"
       d="m 104.993,88.896504 c 0.66409,-0.72515 0.28707,-0.36844 1.56248,-1.24604 0.17635,-0.12135 -2.05122,2.04285 -1.74117,2.07003 0.46839,0.0411 2.75429,-1.79872 2.94299,-2.30901 0.12057,-0.32605 -2.97644,3.713998 -2.87904,3.713998 1.15875,0 3.10013,-2.340228 3.99792,-3.248468 0.2667,-0.2698 -3.76763,3.691938 -3.04092,3.406328 1.03805,-0.40798 1.95719,-2.663318 3.14799,-2.878678 0.84098,-0.1521 -2.58417,2.247848 -2.58417,2.888548 0,0.0198 0.64029,-0.4757 0.74142,-0.56346 0.478,-0.414848 2.55974,-1.603178 2.75882,-2.409128 0.0973,-0.39403 -0.50903,0.63636 -0.80791,0.91096 -0.8162,0.74989 -2.31004,1.858488 -2.27613,1.941038 0.17445,0.42461 0.8224,-0.40841 1.22741,-0.62448 0.41495,-0.221368 2.06165,-0.836728 2.20231,-1.480628 0.0119,-0.0545 -2.22064,2.741448 -2.17637,2.740918 0.44089,-0.005 0.67445,-0.56859 1.02387,-0.83751 0.65302,-0.50257 2.77603,-1.516808 1.95201,-1.516808 -0.30203,0 -1.72839,1.821938 -2.10877,2.202308 -0.0694,0.0694 -0.65694,0.75092 -0.6475,0.75347 0.60219,0.16293 2.65254,-1.93117 2.6715,-1.64141 0.0227,0.34681 -0.45909,0.8294 -0.5324,1.19452"
       id="path6594" />
    <path
       style="fill:none;stroke:#000000;stroke-width:0.529167;stroke-miterlimit:4;stroke-dasharray:none;stroke-opacity:1;stroke-dashoffset:0"
       d="M 88.076458,91.075422 C 86.394192,86.664614 80.449566,86.696614 77.195352,88.863244"
       id="path6598" />
    <path
       style="fill:none;stroke:#000000;stroke-width:0.529167;stroke-miterlimit:4;stroke-dasharray:none;stroke-opacity:1;stroke-dashoffset:0"
       d="m 81.172082,87.894184 c -1.109173,1.66468 -0.402437,4.149328 1.229233,4.965158"
       id="path6606" />
    <path
       style="fill:none;stroke:#000000;stroke-width:0.529167;stroke-miterlimit:4;stroke-dasharray:none;stroke-opacity:1;stroke-dashoffset:0"
       d="m 82.252227,87.891634 c -0.590518,1.71114 0.553728,3.873008 2.07917,4.623858"
       id="path6610" />
    <path
       style="fill:none;stroke:#000000;stroke-width:0.529167;stroke-miterlimit:4;stroke-dasharray:none;stroke-opacity:1;stroke-dashoffset:0"
       d="m 87.830539,90.687732 c -0.430867,1.3022 -2.174243,2.67669 -3.499142,1.82776"
       id="path6612" />
    <path
       style="fill:none;stroke:#000000;stroke-width:0.529167;stroke-miterlimit:4;stroke-dasharray:none;stroke-opacity:1;stroke-dashoffset:0"
       d="m 82.493395,88.427314 c 3.068299,-2.7252 -1.110491,2.703818 0.44251,1.31986 0.121833,-0.10857 1.900738,-1.77685 1.892081,-1.62132 -0.05717,1.02694 -1.627915,2.868068 -1.557002,2.938978 0.237345,0.23734 1.975814,-2.109808 2.337147,-2.149328 0.185851,-0.0203 -1.065236,2.390318 -1.144093,2.739458 -0.04918,0.21776 1.235708,-1.04703 1.962971,-2.081358 0.294743,-0.41919 -0.779675,1.744888 -0.670158,2.099268 0.05963,0.19294 0.936104,-0.73046 1.012544,-0.84519"
       id="path6616" />
    <path
       style="fill:none;stroke:#000000;stroke-width:0.529167;stroke-miterlimit:4;stroke-dasharray:none;stroke-opacity:1;stroke-dashoffset:0"
       d="m 115.5646,89.508564 c -1.3495,0.89131 -3.23911,1.145088 -3.91022,-0.49586 1.12437,0.59522 2.14321,-0.24393 3.07563,-0.71291"
       id="path6618" />
    <path
       style="fill:none;stroke:#000000;stroke-width:0.529167;stroke-miterlimit:4;stroke-dasharray:none;stroke-opacity:1;stroke-dashoffset:0"
       d="m 110.58812,88.327194 c 0.59472,-0.6323 0.23096,-0.31664 1.14153,-0.88574"
       id="path6620" />
    <path
       style="fill:none;stroke:#000000;stroke-width:0.529167;stroke-miterlimit:4;stroke-dasharray:none;stroke-opacity:1;stroke-dashoffset:0"
       d="m 75.573673,89.750464 c 1.24438,1.034328 1.386814,0.13172 1.835076,-1.04763 -0.79235,0.25893 -1.047602,-0.14785 -1.626062,-0.53349"
       id="path6622" />
    <path
       style="fill:none;stroke:#000000;stroke-width:0.529167;stroke-miterlimit:4;stroke-dasharray:none;stroke-opacity:1;stroke-dashoffset:0"
       d="m 79.17842,88.201864 c -0.703525,-0.0189 -1.128575,-0.52091 -1.698051,-0.81121"
       id="path6626" />
    <path
       style="fill:none;stroke:#000000;stroke-width:0.529167;stroke-miterlimit:4;stroke-dasharray:none;stroke-opacity:1;stroke-dashoffset:0"
       d="m 80.368185,93.032912 c 1.687502,-0.41828 3.349929,-0.32178 4.858094,0.30402"
       id="path6628" />
    <path
       style="fill:none;stroke:#000000;stroke-width:0.529167;stroke-miterlimit:4;stroke-dasharray:none;stroke-opacity:1;stroke-dashoffset:0"
       d="m 102.46474,93.431202 c 2.2112,-0.88802 4.28147,-0.35828 6.35188,0.15932"
       id="path6630" />
    <path
       style="fill:none;stroke:#000000;stroke-width:0.529167;stroke-miterlimit:4;stroke-dasharray:none;stroke-opacity:1;stroke-dashoffset:0"
       d="m 76.700229,106.20954 c 0.195006,7.65568 -2.938719,14.45293 -1.378728,22.07618"
       id="path7081" />
    <path
       style="fill:none;stroke:#000000;stroke-width:0.529167;stroke-miterlimit:4;stroke-dasharray:none;stroke-opacity:1;stroke-dashoffset:0"
       d="m 82.5407,111.32654 c 0.539305,2.98416 -0.619056,6.20123 0.812353,8.88111"
       id="path7083" />
    <path
       style="fill:none;stroke:#000000;stroke-width:0.529167;stroke-miterlimit:4;stroke-dasharray:none;stroke-opacity:1;stroke-dashoffset:0"
       d="m 121.62772,117.98221 c 0.3197,0.58049 0.66589,0.99527 1.08158,1.51489 0.11678,0.14597 0.7273,1.45236 0.90744,1.4366 0.9171,-0.0802 2.22174,-3.21757 2.98638,-1.24204"
       id="path7401" />
  </g>
</svg>
