<?xml version="1.0" standalone="no"?>
<!DOCTYPE svg PUBLIC "-//W3C//DTD SVG 20010904//EN" "http://www.w3.org/TR/2001/REC-SVG-20010904/DTD/svg10.dtd">
<!-- Created using Krita: http://krita.org -->
<svg xmlns="http://www.w3.org/2000/svg" 
    xmlns:xlink="http://www.w3.org/1999/xlink"
    xmlns:krita="http://krita.org/namespaces/svg/krita"
    xmlns:sodipodi="http://sodipodi.sourceforge.net/DTD/sodipodi-0.dtd"
    width="576pt"
    height="576pt"
    viewBox="0 0 576 576">
<defs/>
<path id="shape0" transform="translate(183.540841126404, 72.9952140272264)" fill="#d9c690" fill-rule="evenodd" stroke="#000000" stroke-width="0.7199989632" stroke-linecap="square" stroke-linejoin="bevel" d="M184.379 181.165C187.732 177.811 175.372 176.858 177.899 171.805C180.381 166.84 188.888 165.479 190.859 159.565C197.015 141.098 149.359 143.85 169.619 118.525C170.988 116.813 183.2 114.565 173.579 104.485C163.957 94.4048 70.8501 10.0357 62.3392 1.52479C53.8283 -6.98613 34.1893 21.4646 18.0592 53.7248C-3.77024 97.3837 21.7218 101.308 43.2592 122.845C41.7858 125.792 45.3673 130.843 43.9792 132.925C9.76273 180.177 32.9369 168.884 33.1791 199.165C32.1742 220.391 10.5187 216.867 10.4327 229.42C10.389 235.8 4.86989 252.269 22.3791 265.405C25.2918 286.054 7.16031 280.92 2.93914 297.805C-0.677129 312.27 8.22822 321.067 1.49914 334.525C-2.98391 344.931 3.16426 345.955 12.2991 353.965C39.1407 371.859 197.325 353.612 223.979 340.285C278.825 312.862 190.764 278.222 175.019 254.605C167.248 242.948 213.062 229.657 208.859 212.845C207.247 206.394 172.234 189.26 184.379 181.165Z"/><path id="shape01" transform="matrix(0.999999999396168 0 0 0.999999999396168 181.247365027344 232.74537199256)" fill="#ffebcc" fill-rule="evenodd" stroke="#000000" stroke-width="0.7199989632" stroke-linecap="square" stroke-linejoin="bevel" d="M167.593 88.3747C171.966 92.7479 194.049 149.759 191.713 166.135C191.204 187.876 207.486 223.238 207.486 257.571C207.38 265.439 207.97 266.198 206.406 270.891C201.79 284.739 184.742 294.969 204.246 307.971C222.015 319.817 220.51 256.671 220.446 253.971C220.446 231.947 221.556 185.821 220.955 178.621C220.955 152.712 212.233 130.418 209.353 115.375C204.912 100.255 197.742 47.2438 186.313 35.8146C174.186 23.6881 163.842 26.2342 159.673 23.5746C153.972 20.4941 132.18 10.681 132.313 10.6146C118.866 -1.32844 92.6552 0.0483293 91.7665 0.0483293C90.8779 0.0483293 87.5496 -0.316678 85.0208 2.46662C72.5368 13.3496 22.3582 15.1924 13.8726 49.1347C8.15924 71.9884 7.12589 88.4569 7.12589 112.436C6.10765 128.494 -3.7042 175.937 1.5256 193.895C12.7613 222.95 31.0092 266.653 47.3461 282.99C47.3461 292.899 73.009 301.993 78.5462 288.151C91.683 255.309 53.3449 279.022 53.3449 268.295C37.7252 242.493 43.5567 209.141 30.4326 179.095C24.6156 166.66 51.3126 107.169 51.3126 77.5746"/><path id="shape25" transform="translate(265.377167976517, 196.529734452574)" fill="#ffebcc" stroke="#000000" stroke-width="0.72" stroke-linecap="square" stroke-linejoin="bevel" d="M45.6629 54.7503C36.5582 36.5411 44.5829 23.2685 44.5829 4.35027C43.8274 1.99848 3.97551 -9.02732 0 16.7902C0 22.1874 6.3676 35.3655 1.38285 40.3503"/><path id="shape22" transform="translate(225.520481705482, 86.4377998519162)" fill="#ffebcc" stroke="#000000" stroke-width="0.72" stroke-linecap="square" stroke-linejoin="bevel" d="M103.88 84.7422C91.6285 112.36 64.1739 135.314 53.6595 133.342C48.9 134.343 4.87953 108.001 8.11953 77.0022C8.11953 67.7848 4.99431 65.5483 1.99953 57.5622C1.20546 55.4447 -0.180618 44.2221 0.019526 44.4222C0.496589 44.6454 0.347979 33.7054 0.781973 32.1864C3.2793 23.4458 9.85043 9.8936 18.0919 4.94869C34.0816 -4.6451 70.5749 1.9686 86.5682 5.96692C106.91 11.0523 114.119 59.3638 103.88 84.7422Z"/><path id="shape9" transform="translate(272.689478412301, 195.62067645746)" fill="none" stroke="#000000" stroke-width="0.72" stroke-linecap="square" stroke-linejoin="bevel" d="M13.4916 0.727601C11.5339 0.727601 0 -2.3931 0 4.29141C0.760623 3.88785 2.79133 3.09932 3.43053 3.09932"/><path id="shape10" transform="translate(231.705840029433, 124.890007454654)" fill="#d9c690" stroke="#000000" stroke-width="0.72" stroke-linecap="square" stroke-linejoin="bevel" d="M36.6561 14.1826C37.6818 18.3828 35.5163 20.5143 34.7778 21.2528C11.5325 27.4964 0.42309 -9.70153 2.20247 22.302C0.457387 21.1075 -2.5137 3.34779 4.07265 0.0546168C7.01041 -1.41426 22.1493 27.2909 35.8924 20.4193"/><path id="shape24" transform="translate(279.213298900958, 122.246372333842)" fill="#d9c690" stroke="#000000" stroke-width="0.72" stroke-linecap="square" stroke-linejoin="bevel" d="M2.25843 22.9356C16.1358 22.9356 40.1842 -28.5846 40.1876 22.8084C35.8834 -9.96373 20.504 23.3972 3.40396 23.9539C2.19367 21.4684 -0.541702 22.1331 0.0946942 16.5717"/><path id="shape29" transform="translate(286.877368476299, 148.697561517395)" fill="#ffffff" stroke="#000000" stroke-width="0.72" stroke-linecap="square" stroke-linejoin="bevel" d="M0.137278 5.43758C-1.00259 4.29771 5.30321 2.76026 6.24668 2.38287C11.9178 0.114422 22.671 -1.7858 27.3052 2.84842C26.9455 2.3296 25.4159 1.73738 25.4659 1.6192C20.0257 7.05942 17.4104 10.2742 9.30138 10.2742C6.73012 10.2742 1.61191 5.82351 1.79191 4.16478"/><path id="shape31" transform="translate(313.840228053552, 149.764078446074)" fill="none" stroke="#000000" stroke-width="0.72" stroke-linecap="square" stroke-linejoin="bevel" d="M0.342276 1.78191C-0.813833 0.163366 1.24758 1.00388 2.25146 0"/><path id="shape32" transform="translate(310.491403069295, 147.345773199266)" fill="none" stroke="#000000" stroke-width="0.72" stroke-linecap="square" stroke-linejoin="bevel" d="M0 1.90919C1.31477 1.90919 2.65182 0.911998 3.56382 0"/><path id="shape33" transform="translate(307.691260151939, 145.691143293556)" fill="none" stroke="#000000" stroke-width="0.72" stroke-linecap="square" stroke-linejoin="bevel" d="M0 2.03647C0.974976 2.03647 3.30926 1.47192 3.30926 0"/><path id="shape34" transform="translate(237.560407994521, 151.5459875753)" fill="none" stroke="#000000" stroke-width="0.72" stroke-linecap="square" stroke-linejoin="bevel" d="M1.01824 1.2728C1.95068 0.573454 0.578075 0.578075 0 0"/><path id="shape35" transform="translate(238.451362559134, 149.254961552009)" fill="none" stroke="#000000" stroke-width="0.72" stroke-linecap="square" stroke-linejoin="bevel" d="M2.92742 2.29103C2.03516 1.39876 0.818242 0.818242 0 0"/><path id="shape36" transform="translate(241.25150547649, 148.745844657944)" fill="none" stroke="#000000" stroke-width="0.72" stroke-linecap="square" stroke-linejoin="bevel" d="M2.92742 1.78191C2.12788 1.78191 0.596808 0.596808 0 0"/><path id="shape37" transform="translate(238.860001712104, 150.687860295379)" fill="#ffffff" stroke="#000000" stroke-width="0.72" stroke-linecap="square" stroke-linejoin="bevel" d="M22.68 2.94214C22.68 11.9415 12.2263 10.2243 7.2 7.35214C6.35113 6.86707 1.9948 3.06544 2.33412 1.15625C1.70376 0.19211 0.858231 2.28306 0 2.67214C6.64334 -3.1612 24.48 1.95419 24.48 4.83214"/><path id="shape39" transform="translate(293.028599282813, 151.136037073893)" fill="#b8826d" stroke="#000000" stroke-width="0.72" stroke-linecap="square" stroke-linejoin="bevel" d="M0 6.56292C0 -0.361245 13.3961 -3.09846 13.3961 4.81283C10.7551 7.0602 2.95924 9.0005 0 6.56292Z"/><path id="shape42" transform="translate(245.23527459427, 62.6223161069)" fill="#d9c690" stroke="#000000" stroke-width="0.72" stroke-linecap="square" stroke-linejoin="bevel" d="M86.3247 84.2577C86.3247 57.1343 15.4047 54.985 15.4047 25.5777C15.4047 57.4252 107.749 68.2337 77.3247 98.6577C74.8988 101.084 70.7255 105.138 67.2447 105.138C108.129 64.2538 0.284722 64.4736 0.284722 22.3377C0.284722 19.6781 -0.950517 1.45768 1.72472 1.45768C1.14947 -0.268156 19.876 0.0177218 21.8847 0.0176783C74.6014 0.0176783 121.245 32.3517 121.245 84.9777C121.245 93.6965 123.223 104.72 117.645 112.158C116.725 113.078 102.761 130.698 101.445 130.698"/><path id="shape41" transform="translate(246.600001773415, 152.393513255306)" fill="#b8826d" stroke="#000000" stroke-width="0.72" stroke-linecap="square" stroke-linejoin="bevel" d="M0 5.82649C0 -2.63449 12.3661 -1.41798 12.3661 6.49276C12.276 8.00497 5.16496 8.93371 0 5.82649Z"/><path id="shape2" transform="translate(209.118061043039, 86.4000005915609)" fill="#d9c690" fill-rule="evenodd" stroke="#000000" stroke-width="0.7199989632" stroke-linecap="square" stroke-linejoin="bevel" d="M36.402 0C40.7221 67.6817 -12.6576 35.851 24.8819 92.16C-17.017 48.101 2.27925 60.12 22.722 13.32"/><path id="shape02" transform="translate(267.72484717348, 145.352869789444)" fill="none" stroke="#000000" stroke-width="0.7199989632" stroke-linecap="square" stroke-linejoin="bevel" d="M1.97982 0C1.25875 0 2.24859 4.57649 2.61622 5.09117C12.5246 18.9629 -11.324 35.3836 7.45283 35.3836"/><path id="shape03" transform="translate(221.465851720498, 292.996776241717)" fill="#acd8b9" fill-rule="evenodd" stroke="#000000" stroke-width="0.7199989632" stroke-linecap="square" stroke-linejoin="bevel" d="M0 0C0 6.74384 7.42484 41.6814 7.49415 49.7232C7.49415 72.0365 38.1122 134.201 29.397 168.481C22.3955 182.484 3.60475 216.043 27.6542 216.043C24.3415 215.166 34.6047 215.544 37.9292 216.375C44.9658 218.134 52.2368 221.772 59.5667 222.993C71.6899 225.014 88.8027 226.679 100.805 224.011C106.434 222.761 149.638 205.972 147.174 203.803C162.988 187.99 134.934 123.823 134.934 97.2432C135.109 95.0719 137.337 80.4325 138.534 75.6432C141.96 61.9384 140.36 34.9887 130.254 24.8832"/><path id="shape23" transform="matrix(0.999999977959983 0 0 0.999999977959983 285.840006828944 346.319989734893)" fill="none" stroke="#000000" stroke-width="0.72" stroke-linecap="square" stroke-linejoin="bevel" d="M19.44 0C19.44 14.0995 6.25403 30.6919 0 43.2"/><path id="shape1" transform="translate(175.791111142584, 235.274713824408)" fill="#acd8b9" fill-rule="evenodd" stroke="#000000" stroke-width="0.7199989632" stroke-linecap="square" stroke-linejoin="bevel" d="M178.808 94.8453C185.323 101.361 181.049 112.206 184.208 115.366C186.62 117.778 190.324 120.396 192.128 121.845C201.615 131.332 213.935 116.904 216.608 108.885C217.749 105.462 217.328 94.4773 217.328 98.085C195.938 60.783 211.006 28.8663 159.009 14.5653C157.154 13.7122 153.075 8.08505 151.06 7.22578C148.351 4.82699 140.9 4.94182 142.809 10.6053C143.709 10.5153 144.718 10.6405 146.83 11.5458C166.199 30.9146 147.027 52.8115 116.528 42.6453C88.9006 33.4359 86.4351 30.8438 79.0889 8.80529C77.7146 4.68222 72.6464 -4.21094 68.2889 2.32529C63.8243 2.32529 59.4623 8.47638 53.1689 9.52526C29.0697 14.439 14.9827 33.5411 13.0913 72.741C1.4161 113.604 -2.5884 124.141 1.63613 128.49C10.3893 151.036 42.2431 135.949 45.9689 134.086C52.6798 130.01 55.3599 79.7253 62.1689 75.4053"/><path id="shape19" transform="matrix(0.999999977959983 0 0 0.999999977959983 347.726819618866 294.524107100313)" fill="#acd8b9" stroke="#000000" stroke-width="0.72" stroke-linecap="square" stroke-linejoin="bevel" d="M0 0C0.18 9.5511 11.7924 27.072 15.1532 43.8759C20.2136 69.1779 2.91319 87.0695 2.91319 110.116"/><path id="shape21" transform="translate(313.920022617648, 372.960026871426)" fill="none" stroke="#000000" stroke-width="0.7199989632" stroke-linecap="square" stroke-linejoin="bevel" d="M0 0C0 5.83086 6.11642 11.8764 10.08 15.84"/><path id="shape221" transform="matrix(1.00000000332288 0 0 1.00000000332288 325.093689059372 144.731634286886)" fill="#ffebcc" stroke="#000000" stroke-width="0.72" stroke-linecap="square" stroke-linejoin="bevel" d="M4.4058 6.85804C4.4058 2.22914 9.5978 -2.49906 12.8068 1.51234C18.5328 8.67054 9.1008 38.4023 0 29.3018"/>
</svg>
