<?xml version="1.0" standalone="no"?>
<!DOCTYPE svg PUBLIC "-//W3C//DTD SVG 20010904//EN" "http://www.w3.org/TR/2001/REC-SVG-20010904/DTD/svg10.dtd">
<!-- Created using Krita: http://krita.org -->
<svg xmlns="http://www.w3.org/2000/svg" 
    xmlns:xlink="http://www.w3.org/1999/xlink"
    xmlns:krita="http://krita.org/namespaces/svg/krita"
    xmlns:sodipodi="http://sodipodi.sourceforge.net/DTD/sodipodi-0.dtd"
    width="576pt"
    height="576pt"
    viewBox="0 0 576 576">
<defs/>
<path id="shape0" transform="translate(193.258110873213, 74.02980935068)" fill="none" stroke="#ffffff" stroke-width="0.72" stroke-linecap="square" stroke-linejoin="bevel" d="M50.8219 1.57019C42.311 -6.94073 24.472 20.43 8.34189 52.6902C-13.4875 96.3491 12.0045 100.273 33.5419 121.81"/><path id="shape1" transform="translate(178.416857768419, 233.279992610446)" fill="none" stroke="#ffffff" stroke-width="0.72" stroke-linecap="square" stroke-linejoin="bevel" d="M74.3031 0C69.8385 0 60.4365 9.03111 54.1431 10.08C23.1783 15.2408 17.5145 20.2001 8.06314 53.28C-4.49532 97.2346 -1.6868 108.99 11.6631 149.04"/><path id="shape2" transform="translate(225.359998621115, 343.439991494218)" fill="none" stroke="#ffffff" stroke-width="0.72" stroke-linecap="square" stroke-linejoin="bevel" d="M0 0C0 23.5175 43.546 100.454 22.32 121.68"/><path id="shape3" transform="translate(199.329607250595, 306.720018301882)" fill="none" stroke="#ffffff" stroke-width="0.72" stroke-linecap="square" stroke-linejoin="bevel" d="M33.9504 0C33.9504 29.5944 -14.6237 132.146 4.43039 151.2"/><path id="shape4" transform="translate(178.362905250386, 364.319991282645)" fill="none" stroke="#ffffff" stroke-width="0.72" stroke-linecap="square" stroke-linejoin="bevel" d="M7.3971 0C-0.536987 31.7363 -7.90652 85.4964 18.1971 111.6"/><path id="shape5" transform="translate(186.479999015077, 372.239991202393)" fill="none" stroke="#ffffff" stroke-width="0.72" stroke-linecap="square" stroke-linejoin="bevel" d="M0 2.16C18.1131 38.3861 41.8092 13.7292 28.08 0"/><path id="shape6" transform="translate(318.239983744935, 236.159978514754)" fill="none" stroke="#ffffff" stroke-width="0.72" stroke-linecap="square" stroke-linejoin="bevel" d="M49.68 120.96C59.1672 130.447 71.4871 116.019 74.16 108C75.3009 104.577 74.88 93.592 74.88 97.2C53.5313 33.1548 94.2938 31.4313 0 0"/><path id="shape7" transform="translate(252.719998343881, 230.954703575022)" fill="none" stroke="#ffffff" stroke-width="0.72" stroke-linecap="square" stroke-linejoin="bevel" d="M0 2.32529C4.35748 -4.21094 9.42564 4.68222 10.8 8.80529C18.1462 30.8438 11.9717 37.7559 39.6 46.9653C70.0988 57.1315 80.5688 25.2941 61.2 5.92529"/><path id="shape8" transform="translate(270.398452346843, 145.182030409976)" fill="none" stroke="#ffffff" stroke-width="0.72" stroke-linecap="square" stroke-linejoin="bevel" d="M0 0C10.784 0 1.90159 38.3186 4.83661 35.3836"/><path id="shape9" transform="translate(272.689478412301, 195.620684098163)" fill="none" stroke="#ffffff" stroke-width="0.72" stroke-linecap="square" stroke-linejoin="bevel" d="M0 4.29142C0 -2.39309 11.5339 0.727595 13.4916 0.727595"/><path id="shape10" transform="translate(231.705840344288, 124.890007415106)" fill="none" stroke="#ffffff" stroke-width="0.72" stroke-linecap="square" stroke-linejoin="bevel" d="M36.6561 14.1826C37.6818 18.3828 35.5163 20.5143 34.7778 21.2528C11.5325 27.4964 0.42309 -9.70153 2.20247 22.302C0.457387 21.1075 -2.5137 3.34779 4.07265 0.0546168C7.01041 -1.41426 22.1493 27.2909 35.8924 20.4193"/><path id="shape19" transform="translate(343.440011041155, 282.24000670983)" fill="none" stroke="#ffffff" stroke-width="0.72" stroke-linecap="square" stroke-linejoin="bevel" d="M0 0C0 15.3111 16.0792 39.3561 19.44 56.16C24.5004 81.462 7.2 99.3536 7.2 122.4"/><path id="shape20" transform="translate(356.400011443815, 390.240010065332)" fill="none" stroke="#ffffff" stroke-width="0.72" stroke-linecap="square" stroke-linejoin="bevel" d="M0 0C0 26.5801 28.0537 90.7463 12.24 106.56"/><path id="shape21" transform="translate(237.377082753291, 461.520012279963)" fill="none" stroke="#ffffff" stroke-width="0.72" stroke-linecap="square" stroke-linejoin="bevel" d="M13.9029 0C6.9014 14.003 -12.3065 47.52 11.7429 47.52"/><path id="shape22" transform="translate(226.240481714687, 131.577359374878)" fill="none" stroke="#ffffff" stroke-width="0.72" stroke-linecap="square" stroke-linejoin="bevel" d="M103.979 20.7323C103.979 16.1034 109.171 11.3752 112.38 15.3866C118.106 22.5448 108.674 52.2766 99.5732 43.1761C87.3222 70.7937 64.1739 90.8943 53.6595 88.9227C48.9 89.9231 4.87953 63.5818 8.11953 32.5826C8.11953 23.3652 4.99431 21.1287 1.99953 13.1426C1.20546 11.0251 -0.180618 -0.1975 0.019526 0.00264409"/><path id="shape23" transform="translate(282.960001805386, 345.599997300047)" fill="none" stroke="#ffffff" stroke-width="0.72" stroke-linecap="square" stroke-linejoin="bevel" d="M19.44 0C19.44 14.0995 6.25403 30.6919 0 43.2"/><path id="shape24" transform="translate(279.213298851537, 122.246370201482)" fill="none" stroke="#ffffff" stroke-width="0.72" stroke-linecap="square" stroke-linejoin="bevel" d="M2.25843 22.9356C16.1358 22.9356 40.1842 -28.5846 40.1876 22.8084C35.8834 -9.96373 20.504 23.3972 3.40396 23.9539C2.19367 21.4684 -0.541702 22.1331 0.0946942 16.5717"/><path id="shape25" transform="translate(306.69320160518, 200.880014402813)" fill="none" stroke="#ffffff" stroke-width="0.72" stroke-linecap="square" stroke-linejoin="bevel" d="M3.26681 0C3.26681 18.9182 -4.75781 32.1908 4.34681 50.4"/><path id="shape26" transform="translate(265.68001809089, 215.280015389569)" fill="none" stroke="#ffffff" stroke-width="0.72" stroke-linecap="square" stroke-linejoin="bevel" d="M0 0C0 5.3972 6.06475 16.6152 1.08 21.6"/><path id="shape27" transform="translate(307.08001757179, 238.680013448068)" fill="none" stroke="#ffffff" stroke-width="0.72" stroke-linecap="square" stroke-linejoin="bevel" d="M0 0C2.39309 0 8.15385 2.09692 10.44 3.24"/><path id="shape28" transform="translate(261.918158366518, 234.233803050019)" fill="none" stroke="#ffffff" stroke-width="0.72" stroke-linecap="square" stroke-linejoin="bevel" d="M5.09117 0C4.20253 0 0.619559 0.653233 0 1.27279"/><path id="shape29" transform="translate(286.877368227202, 148.697560893527)" fill="none" stroke="#ffffff" stroke-width="0.72" stroke-linecap="square" stroke-linejoin="bevel" d="M0.137278 5.43758C-1.00259 4.29771 5.30321 2.76026 6.24668 2.38287C11.9178 0.114423 22.671 -1.7858 27.3052 2.84842"/><path id="shape30" transform="translate(238.578645882153, 150.645556853637)" fill="none" stroke="#ffffff" stroke-width="0.72" stroke-linecap="square" stroke-linejoin="bevel" d="M28.5105 2.68234C28.5105 -0.195613 3.49334 -1.32012 0 2.17322"/><path id="shape31" transform="translate(313.840227671269, 149.764078446074)" fill="none" stroke="#ffffff" stroke-width="0.72" stroke-linecap="square" stroke-linejoin="bevel" d="M0.342276 1.78191C-0.813833 0.163366 1.24758 1.00388 2.25146 0"/><path id="shape32" transform="translate(310.491403069295, 147.345773199266)" fill="none" stroke="#ffffff" stroke-width="0.72" stroke-linecap="square" stroke-linejoin="bevel" d="M0 1.90919C1.31477 1.90919 2.65182 0.911998 3.56382 0"/><path id="shape33" transform="translate(307.691260151939, 145.691143293556)" fill="none" stroke="#ffffff" stroke-width="0.72" stroke-linecap="square" stroke-linejoin="bevel" d="M0 2.03647C0.974976 2.03647 3.30926 1.47192 3.30926 0"/><path id="shape34" transform="translate(237.560407994521, 151.5459875753)" fill="none" stroke="#ffffff" stroke-width="0.72" stroke-linecap="square" stroke-linejoin="bevel" d="M1.01824 1.2728C1.95068 0.573454 0.578075 0.578075 0 0"/><path id="shape35" transform="translate(238.451362559134, 149.254961552009)" fill="none" stroke="#ffffff" stroke-width="0.72" stroke-linecap="square" stroke-linejoin="bevel" d="M2.92742 2.29103C2.03516 1.39876 0.818242 0.818242 0 0"/><path id="shape36" transform="translate(241.25150547649, 148.745844657944)" fill="none" stroke="#ffffff" stroke-width="0.72" stroke-linecap="square" stroke-linejoin="bevel" d="M2.92742 1.78191C2.12788 1.78191 0.596808 0.596808 0 0"/><path id="shape37" transform="translate(240.289283963574, 152.989627656157)" fill="none" stroke="#ffffff" stroke-width="0.72" stroke-linecap="square" stroke-linejoin="bevel" d="M0.0138914 0C-0.32543 0 5.65626 4.73338 6.50513 5.21845C11.5314 8.09063 24.9606 9.12668 24.9606 0.127279"/><path id="shape38" transform="translate(288.66465023672, 150.316763945026)" fill="none" stroke="#ffffff" stroke-width="0.72" stroke-linecap="square" stroke-linejoin="bevel" d="M0.00462568 2.54558C-0.175375 4.20431 4.94284 8.65499 7.5141 8.65499C15.6231 8.65499 18.2384 5.44022 23.6786 0"/><path id="shape39" transform="translate(293.505891327036, 150.568685079939)" fill="none" stroke="#ffffff" stroke-width="0.72" stroke-linecap="square" stroke-linejoin="bevel" d="M0 5.98475C0 -0.939417 12.7279 -2.69021 12.7279 5.22108"/><path id="shape40" transform="translate(272.689478412301, 198.720002687903)" fill="none" stroke="#ffffff" stroke-width="0.72" stroke-linecap="square" stroke-linejoin="bevel" d="M0 1.19209C0.760623 0.788527 2.79133 0 3.43053 0"/><path id="shape41" transform="translate(249.120009054076, 151.718890916017)" fill="none" stroke="#ffffff" stroke-width="0.72" stroke-linecap="square" stroke-linejoin="bevel" d="M0 6.14113C0 -2.31985 13.14 -1.76961 13.14 6.14113"/><path id="shape42" transform="translate(245.235274270728, 62.6223161126832)" fill="none" stroke="#ffffff" stroke-width="0.72" stroke-linecap="square" stroke-linejoin="bevel" d="M86.3247 84.2577C86.3247 57.1343 15.4047 54.985 15.4047 25.5777C15.4047 57.4252 107.749 68.2337 77.3247 98.6577C74.8988 101.084 70.7255 105.138 67.2447 105.138C108.129 64.2538 0.284722 64.4736 0.284722 22.3377C0.284722 19.6781 -0.950517 1.45768 1.72472 1.45768C1.14947 -0.268156 19.876 0.0177218 21.8847 0.0176783C74.6014 0.0176783 121.245 32.3517 121.245 84.9777C121.245 93.6965 123.223 104.9 117.645 112.338C104.972 129.235 88.5006 132.842 75.1647 146.178"/><path id="shape01" transform="translate(390.960012380419, 342.720010852817)" fill="none" stroke="#ffffff" stroke-width="0.7199989632" stroke-linecap="square" stroke-linejoin="bevel" d="M12.24 126C12.24 103.976 8.16166 47.88 7.55999 40.68C7.55999 29.5302 0 11.0829 0 0"/><path id="shape11" transform="translate(365.760011582418, 369.360011696418)" fill="none" stroke="#ffffff" stroke-width="0.7199989632" stroke-linecap="square" stroke-linejoin="bevel" d="M0 0C0 35.9961 24.48 68.6265 24.48 102.96"/><path id="shape211" transform="translate(150.699450769093, 100.079995254011)" fill="none" stroke="#ffffff" stroke-width="0.7199989632" stroke-linecap="square" stroke-linejoin="bevel" d="M95.5406 0C95.5406 46.4417 -30.559 117.931 6.98055 174.24"/><path id="shape311" transform="translate(204.614831030859, 195.839802476092)" fill="none" stroke="#ffffff" stroke-width="0.7199989632" stroke-linecap="square" stroke-linejoin="bevel" d="M22.1852 0C20.7118 2.94735 24.2933 7.99802 22.9052 10.0802C9.05333 30.858 -13.5055 31.9895 10.6652 56.1602"/><path id="shape411" transform="translate(347.118366309931, 185.039998556546)" fill="none" stroke="#ffffff" stroke-width="0.7199989632" stroke-linecap="square" stroke-linejoin="bevel" d="M10.0016 0C7.74321 0 6.33116 1.88809 4.96163 3.6C-15.2984 28.925 33.4373 29.0528 27.2816 47.52C25.3103 53.434 16.8039 54.7954 14.3216 59.76C11.7949 64.8133 24.1551 65.7665 20.8016 69.12"/><path id="shape51" transform="translate(201.912998334781, 411.119996792949)" fill="none" stroke="#ffffff" stroke-width="0.7199989632" stroke-linecap="square" stroke-linejoin="bevel" d="M1.84699 0C7.28574 0 -3.33993 25.8221 1.12699 28.8C14.8271 37.9334 45.5858 18.5388 50.087 23.04"/><path id="shape61" transform="translate(392.840248971641, 323.999997472552)" fill="none" stroke="#ffffff" stroke-width="0.7199989632" stroke-linecap="square" stroke-linejoin="bevel" d="M0.279747 0C-2.93486 0 22.586 33.0788 24.0397 37.44C28.5296 50.9096 17.8683 62.023 12.5197 72.72C9.29981 79.1599 30.5709 84.9088 25.4797 90C23.6853 91.7944 11.2461 95.04 8.91975 95.04"/><path id="shape71" transform="translate(362.879997169258, 419.039996731167)" fill="none" stroke="#ffffff" stroke-width="0.7199989632" stroke-linecap="square" stroke-linejoin="bevel" d="M12.24 0C8.64912 0 2.44697 2.59303 0 5.04"/>
</svg>
