<?xml version="1.0" standalone="no"?>
<!DOCTYPE svg PUBLIC "-//W3C//DTD SVG 20010904//EN" "http://www.w3.org/TR/2001/REC-SVG-20010904/DTD/svg10.dtd">
<!-- Created using Krita: https://krita.org -->
<svg xmlns="http://www.w3.org/2000/svg" 
    xmlns:xlink="http://www.w3.org/1999/xlink"
    xmlns:krita="http://krita.org/namespaces/svg/krita"
    xmlns:sodipodi="http://sodipodi.sourceforge.net/DTD/sodipodi-0.dtd"
    width="640pt"
    height="640pt"
    viewBox="0 0 640 640">
<defs/>
<path id="shape0" transform="translate(386.223261347916, 306.996364081696)" fill="#000000" fill-rule="evenodd" stroke="#000000" stroke-opacity="0" stroke-width="0" stroke-linecap="square" stroke-linejoin="bevel" d="M33.7767 341.004C33.3442 251.571 23.118 283.71 19.7768 267.004C9.66797 216.46 -8.73154 163.037 4.77677 109.004C10.0271 88.0023 28.5811 83.5906 34.7768 65.0037C39.2745 51.5105 7.0313 0.0036591 40.7768 0.0036591C43.1902 -0.119251 59.6336 2.86049 64.7768 8.00366C80.3952 23.6221 73.2593 43.2274 83.7768 59.0037C93.8379 74.0953 105.232 75.37 111.777 95.0037C115.978 107.608 112.544 208.074 115.777 221.004C116.452 298.706 100.025 207.75 106.777 342.004"/><path id="shape1" transform="translate(541.368302454534, 296.506746632345)" fill="#000000" fill-rule="evenodd" stroke="#000000" stroke-opacity="0" stroke-width="0" stroke-linecap="square" stroke-linejoin="bevel" d="M29.6317 346.493C29.6317 313.234 26.8316 267.314 24.6317 246.493C24.5908 246.33 21.3781 263.356 11.5892 248.673C-1.25075 229.413 1.24272 114.271 7.63173 93.9933C9.77328 86.2102 19.1379 68.112 25.0067 62.2433C35.1662 52.9298 15.7542 56.4701 11.8817 43.2433C10.9768 39.9842 12.2449 38.2238 8.05365 34.0657C7.98122 28.7177 0 18.2609 0 13.3468C0 9.67637 2.1317 7.22946 2.1317 8.24326C2.1317 13.7375 8.8817 17.7658 8.8817 8.99326C8.8817 1.03939 8.53017 -1.45981 12.1317 5.74326C12.5375 6.5548 21.1911 12.7901 20.3817 8.74326C16.7819 -9.25562 27.2578 5.70194 34.8817 8.24326C42.4887 10.7789 44.5306 8.28945 48.7829 16.7942C50.3333 16.7942 52.2924 45.1539 57.1317 49.9933C76.9997 54.2464 78.6463 61.9372 85.1283 68.3604C90.8355 101.752 102.409 221.722 87.2496 220.388C93.4359 228.893 76.2569 309.369 88.6317 346.493"/>
</svg>
