<?xml version="1.0" standalone="no"?>
<!DOCTYPE svg PUBLIC "-//W3C//DTD SVG 20010904//EN" "http://www.w3.org/TR/2001/REC-SVG-20010904/DTD/svg10.dtd">
<!-- Created using Krita: https://krita.org -->
<svg xmlns="http://www.w3.org/2000/svg" 
    xmlns:xlink="http://www.w3.org/1999/xlink"
    xmlns:krita="http://krita.org/namespaces/svg/krita"
    xmlns:sodipodi="http://sodipodi.sourceforge.net/DTD/sodipodi-0.dtd"
    width="720pt"
    height="720pt"
    viewBox="0 0 720 720">
<defs>
  <linearGradient id="gradient0" gradientUnits="objectBoundingBox" x1="0.507480184729154" y1="0.0127856639431965" x2="0.501422976406442" y2="0.993607168028404" spreadMethod="pad">
   <stop stop-color="#000000" offset="0" stop-opacity="1"/>
   <stop stop-color="#000000" offset="1" stop-opacity="0.329411764705882"/>
  </linearGradient>
  <linearGradient id="gradient1" gradientUnits="objectBoundingBox" x1="0.496335122452198" y1="-0.00733138978971226" x2="0.499493994165849" y2="1.00733138978971" spreadMethod="pad">
   <stop stop-color="#000000" offset="0" stop-opacity="1"/>
   <stop stop-color="#000000" offset="1" stop-opacity="0.329411764705882"/>
  </linearGradient>
 </defs>
<path id="shape0" transform="matrix(1.00000001633843 0 0 1.00000001633843 235.531030738156 18.9803682866336)" fill="#3e434c" stroke="#000000" stroke-width="1.5" stroke-linecap="square" stroke-linejoin="bevel" d="M27.719 249.895C26.7114 246.872 17.4063 203.77 17.2189 203.77C11.837 203.77 11.0541 222.895 4.84394 222.895C-5.68412 201.838 2.92075 67.7411 11.9689 49.6446C16.1247 41.3331 56.3113 9.61198 61.4689 14.7696C61.4689 12.959 61.7167 11.8952 63.7189 11.3946C75.0398 8.56441 137.596 -3.97974 148.094 1.26962C152.677 3.56108 157.847 4.14544 162.719 5.76962C196.842 17.1438 221.299 116.445 227.672 148.314C229.346 156.68 243.662 208.327 243.719 224.77"/><path id="shape8" transform="translate(256.417875139994, 335.96409819233)" fill="#fae9c9" stroke="#000000" stroke-width="1.5" stroke-linecap="square" stroke-linejoin="bevel" d="M11.3321 15.0359C10.4945 15.0359 25.8181 107.126 27.0821 110.286C29.5729 117.45 31.5821 145.597 30.8321 153.786C30.8321 190.848 16.6457 235.714 11.3321 256.536C6.97105 275.536 -2.91788 344.102 0.832121 383.286C4.58212 422.47 244.835 410.792 244.582 383.286C244.329 355.78 242.853 307.891 237.832 282.786C220.863 197.94 257.207 152.069 252.699 0"/><path id="shape7" transform="translate(380.999976503755, 346.500023039273)" fill="#fae9c9" stroke="#000000" stroke-width="1.5" stroke-linecap="square" stroke-linejoin="bevel" d="M125.625 0C119.567 0 111.16 18.8721 110.035 24.8731C102.777 60.6314 40.3806 60.9602 19.5 54C8.63435 50.3781 7.78753 31.5563 2.25 23.25C1.74865 22.4979 0 17.0566 0 18.75"/><path id="shape5" transform="translate(135.749990493479, 217.045271947188)" fill="#fae9c9" stroke="#000000" stroke-width="1.5" stroke-linecap="square" stroke-linejoin="bevel" d="M135 142.205C131.469 161.173 72 212.408 72 220.955C71.25 225.589 87.1071 231.144 147 316.955C147.808 317.882 137.356 362.036 135.779 361.015C46.3087 294.59 0.435835 246.576 0 222.455C5.91192 173.504 44.8618 140.076 58.5 120.455C66.5916 108.11 90.2572 70.7518 108.75 59.7047C122.449 50.572 200.211 20.288 203.131 11.527C206.051 2.76594 273.965 1.61175 281.625 0.079716C289.285 -1.45232 325.832 19.5655 336 22.9547C366.243 33.7857 386.563 28.5345 406.91 51.0366C427.219 64.9814 438.532 117.645 447 180.454C454.042 222.704 464.621 266.738 464.251 295.204C463.578 321.584 457.5 414.073 450 452.704C452.145 458.669 450.209 465.143 450.265 469.217C449.919 471.527 447.281 504.524 444.431 513.749C441.34 523.757 426.827 522.241 395.633 515.684C384.032 494.886 406.778 463.275 407.308 446.943C400.558 303.537 412.28 327.631 405 283.954C401.021 255.577 383.25 252.441 363.75 137.705C363.071 133.541 356.09 124.14 355.071 122.101"/><path id="shape81" transform="translate(257.249999468704, 343.499999290573)" fill="#fae9c9" stroke="#000000" stroke-width="1.5" stroke-linecap="square" stroke-linejoin="bevel" d="M0 0C4.14152 0 9.8907 2.59781 11.0637 8.20216C18.4721 69.968 105.015 66.7192 111 54.75C116.547 43.6566 117 34.039 117 21"/><path id="shape1" transform="translate(338.062509664496, 166.765668593798)" fill="#fae9c9" stroke="#000000" stroke-width="1.5" stroke-linecap="square" stroke-linejoin="bevel" d="M2.81247 68.3594C1.33172 63.9171 0 62.2327 0 57.6719C0 53.111 72.5625 -13.1989 72.5625 2.35934C72.5625 17.9177 76.2592 40.0746 81.1875 54.8594"/><path id="shape01" transform="translate(254.597131530553, 569.625030870698)" fill="#4e545c" fill-rule="evenodd" stroke="#000000" stroke-width="1.5" stroke-linecap="square" stroke-linejoin="bevel" d="M1.5523 136.244C-1.8945 107.154 -1.38821 23.5411 22.1529 0C16.338 0 63.1981 17.9506 77.6529 24.375C96.7903 32.8805 221.446 47.8316 236.653 32.625C246.547 50.9285 248.156 115.893 248.156 150.033C248.156 184.173 4.9991 165.335 1.5523 136.244Z"/><path id="shape11" transform="translate(321.861419961971, 618.109863790756)" fill="#4e545c" fill-rule="evenodd" stroke="#000000" stroke-width="1.5" stroke-linecap="square" stroke-linejoin="bevel" d="M2.38491 0C2.38491 30.8463 -6.03249 77.2902 8.75991 106.875C23.5523 136.46 60.1262 116.805 73.4309 103.5C86.7355 90.1954 84.091 42.6487 85.8059 25.5C85.8864 24.695 85.7164 15.4527 86.5136 15.4527"/><path id="shape2" transform="translate(264.750003437003, 594.000007711348)" fill="none" stroke="#000000" stroke-width="1.5" stroke-linecap="square" stroke-linejoin="bevel" d="M0 0C11.3615 3.78717 21.5641 13.1255 33.375 16.5C74.1957 28.1631 198.329 60.3261 232.434 26.221"/><path id="shape3" transform="translate(268.125012474133, 583.875027163951)" fill="none" stroke="#000000" stroke-width="1.5" stroke-linecap="square" stroke-linejoin="bevel" d="M0 0C8.55032 20.5795 201.194 63.8161 227.734 31.0427"/><path id="shape4" transform="translate(273.375012718382, 575.250026762685)" fill="none" stroke="#000000" stroke-width="1.5" stroke-linecap="square" stroke-linejoin="bevel" d="M0 0C4.11686 6.62913 25.0271 14.7174 33.75 17.625C62.939 29.633 201.329 52.6802 220.097 32.7734"/><path id="shape01" transform="matrix(1.0000000265205 0 0 1.0000000265205 262.382669377033 521.311202846169)" fill="#fae9c9" stroke="#000000" stroke-width="1.5" stroke-linecap="square" stroke-linejoin="bevel" d="M21.8743 0.00328452C10.2342 -0.199265 14.5781 9.02307 11.6654 11.9357C9.0285 13.9631 5.5874 20.2375 5.83179 27.9782C2.17917 33.251 0.597628 38.9479 2.78239 45.0813C-0.120919 49.1778 -3.07016 62.3705 6.86734 66.6888C7.52406 63.5825 24.1009 5.7743 21.8743 0.00328452Z"/><path id="shape02" transform="translate(280.499999006912, 523.975262131925)" fill="#fae9c9" stroke="#000000" stroke-width="1.5" stroke-linecap="square" stroke-linejoin="bevel" d="M0 0.649737C6.1875 -4.20496 35.7452 19.5344 32.625 25.7748C28.7487 34.4648 8.73275 14.3774 1.37045 11.9233"/><path id="shape12" transform="translate(273.385171834669, 537.22440168481)" fill="#fae9c9" stroke="#000000" stroke-width="1.5" stroke-linecap="square" stroke-linejoin="bevel" d="M4.50781 0C4.8208 0 8.40239 5.69649 9.92734 6.71312C13.8119 9.30284 43.0486 26.8418 39.7398 31.8381C33.9998 39.4532 5.23559 19.5545 0 14.3189"/><path id="shape21" transform="translate(269.841039629378, 556.312522380574)" fill="#fae9c9" stroke="#000000" stroke-width="1.5" stroke-linecap="square" stroke-linejoin="bevel" d="M3.90897 0C3.90897 5.74218 33.9849 18.8236 30.159 24.5625C24.8617 32.5084 -2.31663 13.1631 0.158971 10.6875"/><path id="shape31" transform="translate(262.923183541544, 574.687523119805)" fill="#fae9c9" stroke="#000000" stroke-width="1.5" stroke-linecap="square" stroke-linejoin="bevel" d="M6.70183 0C8.36064 1.6875 8.261 4.91017 9.13616 5.49362C38.718 25.2148 -4.47238 15.2098 0.385717 5.49362"/><path id="shape011" transform="matrix(1.00000001326025 0 0 1.00000001326025 316.197774010477 431.249979123322)" fill="none" stroke="#000000" stroke-width="1.5" stroke-linecap="square" stroke-linejoin="bevel" d="M25.0522 0C14.0912 0 -7.37113 120.403 2.55222 140.25"/><path id="shape11" transform="matrix(1.00000001326025 0 0 1.00000001326025 428.999979470929 423.749979486395)" fill="none" stroke="#000000" stroke-width="1.5" stroke-linecap="square" stroke-linejoin="bevel" d="M0 0C19.0072 0 20.8043 143.25 15 151.5"/><path id="shape21" transform="matrix(1.00000001326025 0 0 1.00000001326025 373.015184834755 419.249979704238)" fill="none" stroke="#000000" stroke-width="1.5" stroke-linecap="square" stroke-linejoin="bevel" d="M13.9848 0C13.9848 52.157 -11.641 114.624 6.48479 163.5"/><path id="shape31" transform="matrix(1.00000001326025 0 0 1.00000001326025 317.249981292368 539.99996775095)" fill="none" stroke="#000000" stroke-width="1.5" stroke-linecap="square" stroke-linejoin="bevel" d="M0 0C12.3342 10.5 111.361 28.5286 129.75 8.25"/><path id="shape41" transform="matrix(1.00000001326025 0 0 1.00000001326025 327.749980665302 474.74997164771)" fill="none" stroke="#000000" stroke-width="1.5" stroke-linecap="square" stroke-linejoin="bevel" d="M0 0C10.0932 0 114.75 19.6295 114.75 5.25"/><path id="shape51" transform="matrix(1.00000001326025 0 0 1.00000001326025 272.999992071032 264.027614968427)" fill="none" stroke="#000000" stroke-width="1.5" stroke-linecap="square" stroke-linejoin="bevel" d="M0 0.722376C11.7803 0.722376 77.11 -1.3243 85.5 1.47239C89.0983 2.67181 92.8552 13.6431 93.75 17.2224"/><path id="shape6" transform="matrix(1.00000001326025 0 0 1.00000001326025 387.44894602445 248.820105934285)" fill="none" stroke="#000000" stroke-width="1.5" stroke-linecap="square" stroke-linejoin="bevel" d="M112.387 0.169875C97.1063 -1.19349 11.9291 5.85161 4.42608 14.0549C1.79599 17.428 -0.919746 28.1673 0.301085 32.4299"/><path id="shape13" transform="matrix(1.00000001326025 0 0 1.00000001326025 538.499969668373 362.999979392715)" fill="none" stroke="#000000" stroke-width="1.5" stroke-linecap="square" stroke-linejoin="bevel" d="M0 0C9.33468 18.6694 13.5 41.9495 13.5 63"/><path id="shape02" transform="matrix(1.00000001326025 0 0 1.00000001326025 197.249988313974 349.499978871045)" fill="none" stroke="#000000" stroke-width="1.5" stroke-linecap="square" stroke-linejoin="bevel" d="M34.5 0C21.5095 0 0 30.2157 0 42"/><path id="shape9" transform="matrix(1.00000001326025 0 0 1.00000001326025 385.500017749444 223.875010169187)" fill="none" stroke="#000000" stroke-width="1.5" stroke-linecap="square" stroke-linejoin="bevel" d="M5.25 0C5.25 6.7031 0 12.9315 0 20.25"/><path id="shape10" transform="matrix(1.00000001326025 0 0 1.00000001326025 361.50001665928 232.500010560965)" fill="none" stroke="#000000" stroke-width="1.5" stroke-linecap="square" stroke-linejoin="bevel" d="M0 0C4.8824 0 11.0165 11.3915 14.25 14.625"/><path id="shape03" transform="matrix(0.99999997482881 0 0 0.99999997482881 267.951246477343 65.3076531209595)" fill="#fae9c9" stroke="#000000" stroke-width="1.5" stroke-linecap="square" stroke-linejoin="bevel" d="M11.0485 82.4423C11.0485 95.6762 23.8863 106.993 29.4236 118.067C36.9423 133.105 64.6802 157.767 78.8844 163.53C92.4645 169.039 92.7092 165.472 107.799 160.442C116.611 157.505 123.951 160.763 130.061 151.597C138.581 138.818 143.049 117.051 143.049 101.192C143.049 89.7243 139.23 53.1242 135.174 41.1923C128.251 -33.8764 -44.6911 1.88154 11.0485 82.4423Z"/><path id="shape13" transform="matrix(0.99999997482881 0 0 0.99999997482881 339.146092974539 145.310440943507)" fill="none" stroke="#000000" stroke-width="1.5" stroke-linecap="square" stroke-linejoin="bevel" d="M0 0C-1.7053e-13 7.97122 4.75843 24.3661 8.48528 31.8198C10.0515 34.9523 15.3245 29.9637 18.8267 29.9637"/><path id="shape22" transform="matrix(0.99999997482881 0 0 0.99999997482881 356.43750883987 187.874999866252)" fill="none" stroke="#000000" stroke-width="1.5" stroke-linecap="square" stroke-linejoin="bevel" d="M0 4.3125C3.26655 4.3125 10.2228 3.17934 11.8125 0"/><path id="shape32" transform="matrix(0.99999997482881 0 0 0.99999997482881 364.687508833996 187.154517355513)" fill="none" stroke="#000000" stroke-width="1.5" stroke-linecap="square" stroke-linejoin="bevel" d="M0 0.345483C0 -1.01811 7.90993 2.13373 5.06251 1.56424"/><path id="shape42" transform="matrix(0.99999997482881 0 0 0.99999997482881 349.499997775018 120.469067267981)" fill="none" stroke="#000000" stroke-width="1.5" stroke-linecap="square" stroke-linejoin="bevel" d="M0 17.5309C6.25575 11.2752 29.1624 -6.55661 38.25 2.53094"/><path id="shape52" transform="matrix(0.99999997482881 0 0 0.99999997482881 291.749999645258 144.167646284828)" fill="none" stroke="#000000" stroke-width="1.5" stroke-linecap="square" stroke-linejoin="bevel" d="M38.0625 0.0198489C26.383 0.0198489 7.88497 -0.740119 0 7.14485"/><path id="shape71" transform="matrix(0.99999997482881 0 0 0.99999997482881 357.444797865185 132.448283775716)" fill="#ffffff" stroke="#000000" stroke-opacity="0" stroke-width="0" stroke-linecap="square" stroke-linejoin="bevel" d="M27.1177 4.98921C18.3186 13.7883 17.7024 16.6611 0.0708341 14.2236C-0.324505 13.8283 1.05546 12.1134 1.2427 11.5517C4.32158 2.31508 36.041 -4.12157 28.8052 3.11421"/><path id="shape81" transform="matrix(0.99999997482881 0 0 0.99999997482881 362.229722215336 134.089975795813)" fill="#7e571c" stroke="#000000" stroke-opacity="0" stroke-width="0" stroke-linecap="square" stroke-linejoin="bevel" d="M1.24526 13.2755C-4.1636 9.53979 9.04916 -8.06134 21.5967 4.39247C15.8469 10.3889 12.3729 13.4487 1.24526 13.2755Z"/><path id="shape101" transform="matrix(0.99999997482881 0 0 0.99999997482881 299.999999378081 152.296292182851)" fill="#ffffff" stroke="#000000" stroke-opacity="0" stroke-width="0" stroke-linecap="square" stroke-linejoin="bevel" d="M0.9375 12.1412C8.68064 12.1412 31.7344 14.0012 31.7344 0.000589483C19.0871 0.000589483 9.38365 -0.242448 0 9.14121"/><path id="shape111" transform="matrix(0.99999997482881 0 0 0.99999997482881 308.838788994273 152.274523007803)" fill="#7e571c" stroke="#000000" stroke-opacity="0" stroke-width="0" stroke-linecap="square" stroke-linejoin="bevel" d="M1.09873 12.8192C-4.42815 3.88497 12.2168 -5.71197 21.63 4.19423C22.8869 7.64559 11.9694 13.1899 1.09873 12.8192Z"/><path id="shape72" transform="matrix(0.999999955918817 0 0 0.999999955918817 357.444791111454 132.448283438349)" fill="none" stroke="#000000" stroke-width="1.5" stroke-linecap="square" stroke-linejoin="bevel" d="M27.1177 4.98921C18.3186 13.7883 17.7024 16.6611 0.0708341 14.2236C-0.324505 13.8283 1.05546 12.1134 1.2427 11.5517C4.32158 2.31508 36.041 -4.12157 28.8052 3.11421"/><path id="shape102" transform="matrix(0.999999955918817 0 0 0.999999955918817 299.999993705083 152.296292265418)" fill="none" stroke="#000000" stroke-width="1.5" stroke-linecap="square" stroke-linejoin="bevel" d="M0.9375 12.1412C8.68064 12.1412 31.7344 14.0012 31.7344 0.00058948C19.0871 0.00058948 9.38365 -0.242448 0 9.14121"/><path id="shape82" transform="matrix(0.99999997482881 0 0 0.99999997482881 364.868228453016 136.203207268536)" fill="url(#gradient0)" stroke="#000000" stroke-opacity="0" stroke-width="0" stroke-linecap="square" stroke-linejoin="bevel" d="M1.13178 11.1718C-3.83547 7.6677 8.68736 -7.32955 16.6005 4.4218C12.3668 8.15687 8.41567 11.5325 1.13178 11.1718Z"/><path id="shape112" transform="matrix(0.99999997482881 0 0 0.99999997482881 311.194120984954 154.069401966177)" fill="url(#gradient1)" stroke="#000000" stroke-opacity="0" stroke-width="0" stroke-linecap="square" stroke-linejoin="bevel" d="M0.905138 10.1341C-4.0555 3.72499 12.7551 -5.49613 17.8757 4.23413C18.3372 5.82933 11.7758 10.5048 0.905138 10.1341Z"/><path id="shape04" transform="matrix(0.99999998417358 0 0 0.99999998417358 247.329981401587 42.1612443207824)" fill="#3e434c" fill-rule="evenodd" stroke="#000000" stroke-width="1.5" stroke-linecap="square" stroke-linejoin="bevel" d="M1.65999 45.0781C-8.75909 133.378 33.2957 174.59 32.795 173.839C26.2969 164.091 17.0708 104.74 23.1384 87.7696C24.0599 87.7696 29.8776 124.117 39.3134 138.416C36.932 127.039 33.916 85.7496 35.42 72.2137C35.9586 67.3664 36.4844 45.4653 42.0789 43.6004C47.4101 43.3763 55.1728 45.323 59.2008 46.9342C61.5156 47.8601 65.4535 49.7267 65.4181 50.5826C65.6493 51.5077 69.3155 44.9627 70.3377 41.8961C72.6824 34.8622 80.7736 25.8409 89.1645 28.6378C96.0103 26.7997 149.252 52.9892 152.795 59.0887C155.06 61.3539 164.083 167.561 159.286 187.381C167.712 190.798 185.154 98.1696 183.298 75.3069C178.785 31.0323 160.289 7.40373 150.418 0"/><path id="shape14" transform="matrix(0.99999998417358 0 0 0.99999998417358 363.541271231607 77.6933614689165)" fill="#3e434c" fill-rule="evenodd" stroke="#000000" stroke-width="1.5" stroke-linecap="square" stroke-linejoin="bevel" d="M0 0C3.9038 0 29.5225 72.9955 28.6821 80.6853C39.1398 80.6853 38.0278 19.9061 38.0571 19.9353"/><path id="shape23" transform="matrix(0.99999998417358 0 0 0.99999998417358 328.141738343556 66.4238471256781)" fill="#3e434c" fill-rule="evenodd" stroke="#000000" stroke-width="1.5" stroke-linecap="square" stroke-linejoin="bevel" d="M0 0C10.0516 4.47083 20.32 32.9188 23.5856 45.9812C24.8021 50.8474 26.3095 55.8509 27.3356 60.9812C27.538 61.9934 26.8184 65.451 28.4606 64.3562C38.1968 57.8654 35.9532 9.54594 37.6534 9.54594"/><path id="shape131" transform="matrix(1.00000003395506 0 0 1.00000003395506 403.646949461335 193.499994046866)" fill="#3e434c" fill-rule="evenodd" stroke="#000000" stroke-width="1.5" stroke-linecap="square" stroke-linejoin="bevel" d="M17.103 0C17.103 20.2493 10.8198 39.2913 6.97803 58.5C6.61608 60.3098 -1.44409 79.875 0.228034 79.875C7.25594 79.875 30.603 46.7029 30.603 50.625C30.603 68.7184 34.0565 92.0147 28.353 109.125C27.5674 111.482 20.9924 131.625 22.728 131.625C24.9315 131.625 39.5243 109.71 41.853 103.5C50.3232 80.913 55.353 59.5137 55.353 33.75"/><path id="shape14" transform="matrix(1.00000003395506 0 0 1.00000003395506 274.499989055523 217.500017176772)" fill="#3e434c" fill-rule="evenodd" stroke="#000000" stroke-width="1.5" stroke-linecap="square" stroke-linejoin="bevel" d="M52.125 0C47.25 15.6667 55.3185 71.6466 55.0924 79.2275C54.562 90.3644 28.6553 17.625 28.125 17.625C26.1701 17.625 22.9519 108 41.625 134.625C21.0394 134.625 0 52.2446 0 34.5"/>
</svg>
