<?xml version="1.0" standalone="no"?>
<!DOCTYPE svg PUBLIC "-//W3C//DTD SVG 20010904//EN" "http://www.w3.org/TR/2001/REC-SVG-20010904/DTD/svg10.dtd">
<!-- Created using Krita: https://krita.org -->
<svg xmlns="http://www.w3.org/2000/svg" 
    xmlns:xlink="http://www.w3.org/1999/xlink"
    xmlns:krita="http://krita.org/namespaces/svg/krita"
    xmlns:sodipodi="http://sodipodi.sourceforge.net/DTD/sodipodi-0.dtd"
    width="600pt"
    height="600pt"
    viewBox="0 0 600 600">
<defs>
  <radialGradient id="gradient0" gradientUnits="objectBoundingBox" cx="0.588512661955754" cy="0.82221070054185" fx="1.11205442710363" fy="0.587523562520426" r="1.13619192454198" spreadMethod="pad">
   <stop stop-color="#000000" offset="0.322784810126582" stop-opacity="0"/>
   <stop stop-color="#000000" offset="0.9937" stop-opacity="1"/>
  </radialGradient>
 </defs>
<rect id="shape0" fill="#a9a9a9" fill-rule="evenodd" stroke-opacity="0" stroke="#000000" stroke-width="0" stroke-linecap="square" stroke-linejoin="bevel" width="600" height="600"/><path id="shape0" transform="translate(-14.1357212549135, 106.556683943031)" fill="#c5c5c5" fill-rule="evenodd" stroke="#000000" stroke-width="1.5" stroke-linecap="square" stroke-linejoin="bevel" d="M0.265868 356.366L228.979 289.082L228.912 289.613L227.649 83.5728L0 0L0.265868 356.366" sodipodi:nodetypes="cccccc"/><path id="shape1" transform="translate(211.850914380188, 170.781835595956)" fill="#c5c5c5" fill-rule="evenodd" stroke="#000000" stroke-width="1.5" stroke-linecap="square" stroke-linejoin="bevel" d="M398.186 247.395L398.652 247.196L0 225.654L2.85937 19.6135L393.2 0L398.186 247.395" sodipodi:nodetypes="cccccc"/><path id="shape2" transform="translate(380.796484034369, 402.020652947157)" fill="#717171" fill-rule="evenodd" stroke="#000000" stroke-width="1.5" stroke-linecap="square" stroke-linejoin="bevel" d="M4.98287 3.12523C2.22168 2.43304 -1.25537 20.6574 0.453204 18.3806C2.54573 24.3663 29.6002 18.1451 21.7619 16.685C14.0086 17.0552 12.5662 0 12.4294 0" sodipodi:nodetypes="cccc"/><path id="shape3" transform="translate(424.784747595638, 217.02755273188)" fill="#dedede" fill-rule="evenodd" stroke="#000000" stroke-width="0.75" stroke-linecap="square" stroke-linejoin="bevel" d="M0.697996 191.247L4.7871 1.99438L161.096 0L159.501 199.458Z" sodipodi:nodetypes="ccccc"/><path id="shape4" transform="translate(380.558139064773, 389.009026831785)" fill="#717171" fill-rule="evenodd" stroke="#000000" stroke-width="1.5" stroke-linecap="square" stroke-linejoin="bevel" d="M3.37648 7.76233C3.37648 4.75002 -7.72848 27.2153 10.3401 16.3361C15.184 13.4195 18.7103 10.3804 16.1914 4.50164C10.6285 -8.48156 -0.656015 10.7699 1.56424 10.5522" sodipodi:nodetypes="cccc"/><path id="shape5" transform="translate(124.28867361555, 414.617344726171)" fill="#879bad" fill-rule="evenodd" stroke="#000000" stroke-width="1.5" stroke-linecap="square" stroke-linejoin="bevel" d="M0 199.429C0 185.676 86.9334 126.336 101.857 116.387C127.027 99.6065 235.755 9.82999 257.767 3.95892C279.207 -1.75953 302.274 5.17933 323.855 6.28582C343.47 7.29152 361.907 -0.595703 381.498 0.0360833C400.582 0.651552 470.845 10.7245 490.979 13.8363C511.114 16.9482 472.124 199.298 490.913 197.205" sodipodi:nodetypes="ccccccc"/><path id="shape6" transform="translate(428.52996038369, 220.913034834583)" fill="none" stroke="#000000" stroke-width="1.5" stroke-linecap="square" stroke-linejoin="bevel" d="M0 184.565L3.85619 2.26025L78.5198 0L79.1182 187.424L0 184.565" sodipodi:nodetypes="ccccc"/><path id="shape7" transform="translate(508.579039797923, 219.250442100579)" fill="none" stroke="#000000" stroke-width="1.5" stroke-linecap="square" stroke-linejoin="bevel" d="M0 185.962L0 0L75.0628 0.598387L72.8692 195.07L0 185.962" sodipodi:nodetypes="ccccc"/><path id="shape8" transform="translate(411.272394040522, 434.934478330521)" fill="none" stroke="#000000" stroke-width="0.75" stroke-linecap="square" stroke-linejoin="bevel" d="M63.653 0C57.0421 0 35.0089 10.7271 24.1601 12.4995C16.8092 13.7004 9.18557 13.6962 1.75397 13.6962C0.54059 13.6962 -0.143639 13.2171 0.0254553 14.228" sodipodi:nodetypes="cccc"/><path id="shape9" transform="translate(350.728936839512, 465.185609472634)" fill="none" stroke="#000000" stroke-width="0.75" stroke-linecap="square" stroke-linejoin="bevel" d="M96.6047 0C94.7235 0 90.5252 3.60447 88.8257 4.52123C81.5089 8.46805 73.8399 12.043 65.9544 14.7605C51.3289 19.8007 36.2224 22.9951 21.2753 26.9941C15.53 28.5312 4.61388 29.7539 0 33.443" sodipodi:nodetypes="ccccc"/><path id="shape10" transform="translate(317.685089356095, 533.201033107265)" fill="none" stroke="#000000" stroke-width="0.75" stroke-linecap="square" stroke-linejoin="bevel" d="M68.8138 0C65.0779 0 51.2478 8.22472 46.8727 9.64084C31.603 14.5833 14.9785 13.1992 0 19.0817" sodipodi:nodetypes="ccc"/><path id="shape11" transform="translate(587.143102225331, 453.616150150358)" fill="none" stroke="#000000" stroke-width="0.75" stroke-linecap="square" stroke-linejoin="bevel" d="M0.941821 5.1205C0.867729 4.91473 -0.308402 -0.0764737 0.0775661 0.000890056C2.03795 0.393829 6.12143 7.99284 7.45743 9.44251C14.953 17.5758 22.9424 28.4393 32.7222 33.8423" sodipodi:nodetypes="cccc"/><path id="shape12" transform="translate(591.741162755718, 514.385903264161)" fill="none" stroke="#000000" stroke-width="0.75" stroke-linecap="square" stroke-linejoin="bevel" d="M0 0C1.58278 10.0011 18.5671 30.4104 26.0632 38.1627" sodipodi:nodetypes="cc"/><path id="shape13" transform="translate(485.740316081171, 318.059249029496)" fill="#b8b8b8" fill-rule="evenodd" stroke="#000000" stroke-width="1.5" stroke-linecap="square" stroke-linejoin="bevel" d="M3.14715 0.990318C-0.536091 4.66544 -2.62054 18.0748 6.40495 15.3509C18.7311 11.6307 6.73476 -7.76453 3.41302 3.44978" sodipodi:nodetypes="ccc"/><path id="shape14" transform="translate(516.176159919806, 314.453735250131)" fill="#b8b8b8" fill-rule="evenodd" stroke="#000000" stroke-width="1.5" stroke-linecap="square" stroke-linejoin="bevel" d="M1.83231 5.19422C-3.17206 5.19422 2.65631 22.9921 12.2708 15.6986C21.9343 8.36785 3.97679 -8.06875 2.62992 4.7284" sodipodi:nodetypes="ccc"/><path id="shape15" transform="translate(-10.6916089129197, 157.45049418773)" fill="#b6b6b6" fill-rule="evenodd" stroke="#000000" stroke-width="1.5" stroke-linecap="square" stroke-linejoin="bevel" d="M53.6673 289.872L53.4869 14.8923L1.95974 0L0 305.273Z" sodipodi:nodetypes="ccccc"/><path id="shape16" transform="translate(-9.92864061071049, 161.638470070126)" fill="#787878" fill-rule="evenodd" stroke="#000000" stroke-width="1.5" stroke-linecap="square" stroke-linejoin="bevel" d="M47.8514 285.851L48.5353 12.9653L0.930905 0L0 299.853Z" sodipodi:nodetypes="ccccc"/><path id="shape17" transform="translate(-15.1533057666921, 161.616079226009)" fill="#8791b3" fill-rule="evenodd" stroke="#000000" stroke-width="1.5" stroke-linecap="square" stroke-linejoin="bevel" d="M47.4247 286.771L48.6014 13.3804L0 0L0.089594 298.945Z" sodipodi:nodetypes="ccccc"/><path id="shape18" transform="translate(32.8996525544299, 174.215346124041)" fill="none" stroke="#000000" stroke-width="1.5" stroke-linecap="square" stroke-linejoin="miter" stroke-miterlimit="2" d="M0 0.847593L5.95036 0" sodipodi:nodetypes="cc"/><path id="shape19" transform="translate(38.2849515522066, 172.237263601414)" fill="none" stroke="#000000" stroke-width="1.5" stroke-linecap="square" stroke-linejoin="miter" stroke-miterlimit="2" d="M0 1.96142L4.13872 0" sodipodi:nodetypes="cc"/><path id="shape20" transform="translate(10.7895880506759, 312.688169603432)" fill="#a8a285" fill-rule="evenodd" stroke="#000000" stroke-width="1.5" stroke-linecap="square" stroke-linejoin="bevel" d="M0.280433 7.79005C-0.701796 7.79005 1.14326 1.53374 2.0198 0.902514C4.27541 -0.721846 18.6281 -0.060835 19.7299 2.1428C20.891 4.46507 10.6254 5.1537 7.83557 6.40925C6.0888 7.1954 -0.305804 7.59019 1.59667 7.81336" sodipodi:nodetypes="ccccc"/><path id="shape01" transform="matrix(0.999999980077446 0 0 0.999999980077446 289.711995663147 226.534894915341)" fill="#159aff" stroke="#000000" stroke-width="1.5" stroke-linecap="square" stroke-linejoin="bevel" d="M11.3637 3.08735C4.5805 3.08735 24.9885 1.69585 31.7082 2.62226C35.3577 3.12541 85.7147 -2.36444 87.49 1.22554C92.7958 11.955 82.3139 107.518 84.7647 130.874C84.9276 132.427 85.6156 137.34 84.3655 138.586C84.019 138.932 84.0195 139.795 83.7004 140.116C83.189 140.63 79.7099 141.246 79.1133 141.313C55.5169 143.926 26.9156 131.213 4.04981 136.592C3.45745 136.731 2.13102 137.57 1.65626 136.858C-2.75998 130.238 2.98603 111.526 3.58472 104.08C5.93112 74.8959 -4.68793 34.2509 4.71484 6.14593C6.21141 1.67268 13.9827 3.83171 18.0786 1.49214" sodipodi:nodetypes="cccccccccccc"/><path id="shape21" transform="translate(316.31361706866, 270.146742661146)" fill="#f1e2c5" fill-rule="evenodd" stroke="#000000" stroke-width="0.75" stroke-linecap="square" stroke-linejoin="bevel" d="M26.638 45.7616C26.6168 46.0173 26.5323 43.2725 26.5323 42.3884C26.5323 39.9993 26.8957 37.2039 27.6959 34.9135C30.2774 27.5242 36.1564 20.7998 34.9712 12.5001C34.4017 8.51237 31.2695 0.44155 25.8389 1.34624C24.8974 1.50309 18.0179 1.55155 18.1949 1.8713C21.0186 0.0566892 13.7981 0.427769 12.4285 0.00643119C11.0588 -0.414907 4.3846 19.9983 3.87211 22.4902C3.35963 24.9822 1.095 35.564 0 38.7373" sodipodi:nodetypes="ccccccccc"/><path id="shape22" transform="translate(301.261502129723, 317.028596316601)" fill="#f1e2c5" fill-rule="evenodd" stroke="#000000" stroke-width="0.75" stroke-linecap="square" stroke-linejoin="bevel" d="M24.4543 9.61781C22.9005 13.8941 19.6369 16.8064 17.5671 20.6894C17.2787 21.2304 14.017 26.956 15.287 26.3545C16.5571 25.753 3.91947 30.7649 0.524819 30.5386C-2.86983 30.3123 11.2782 2.66436 12.2181 0" sodipodi:nodetypes="ccccc"/><path id="shape23" transform="translate(328.066584684096, 318.409844934829)" fill="#f1e2c5" fill-rule="evenodd" stroke="#000000" stroke-width="0.75" stroke-linecap="square" stroke-linejoin="bevel" d="M0 9.43549C3.54074 13.8606 7.16289 19.295 9.33202 24.597C9.55183 25.1343 11.3796 29.7352 11.6828 29.6745C11.9859 29.6137 25.9657 26.7597 22.7541 26.7597C19.5426 26.7597 17.9366 16.4739 17.4182 14.795C16.9785 13.3708 15.7905 0 15.8815 0" sodipodi:nodetypes="cccccc"/><path id="shape24" transform="translate(313.046397342493, 309.399068034024)" fill="#a6003f" fill-rule="evenodd" stroke="#000000" stroke-width="0.75" stroke-linecap="square" stroke-linejoin="bevel" d="M0.131919 8.48187C2.18866 12.5953 14.831 18.0622 12.6778 17.239C12.7595 16.0161 14.5529 18.3237 16.9315 17.8971C19.83 17.3771 29.0902 11.7141 31.3014 11.7141C30.7019 10.5902 31.7441 4.50721 30.7019 4.39177C22.5036 3.48363 11.5337 2.21774 3.54034 0.0783149C1.98111 -0.854304 -0.614513 6.81769 0.131919 8.48187Z" sodipodi:nodetypes="ccccccc"/><path id="shape25" transform="translate(335.023700412497, 244.743122344486)" fill="#3d1821" fill-rule="evenodd" stroke="#000000" stroke-width="0.75" stroke-linecap="square" stroke-linejoin="bevel" d="M5.45433 22.9257C8.5209 31.6537 4.35195 52.6522 5.5012 61.9934C5.9358 65.5259 7.38169 68.6156 7.38169 72.2421C7.38169 74.3274 5.14914 78.9048 7.1937 78.495C8.19099 78.2951 7.77448 74.779 8.29863 75.6507C9.04621 76.8939 8.96865 83.408 10.2027 83.9013C11.4715 84.4086 9.62631 79.0154 10.7198 79.8348C11.4288 80.366 10.7071 83.4496 11.6365 83.7602C12.5253 84.0572 12.4648 79.3628 13.235 79.247C16.2081 78.8 15.8442 79.4847 15.8442 73.6291C15.8442 73.0221 16.4957 75.3834 16.996 75.0396C18.6543 73.8998 17.7362 62.8081 20.2398 65.8015C17.2873 65.5975 20.705 54.694 20.7805 52.8494C21.013 47.1683 18.1428 41.5349 19.0176 35.7367C20.2807 27.365 25.7933 20.9718 24.3771 11.8776C23.3703 5.41259 17.5436 -0.636999 10.6258 0.0540134C9.03608 0.212812 -0.101698 4.93909 0.000856547 4.99037" sodipodi:nodetypes="ccccccccccccccccc"/><path id="shape26" transform="translate(330.984449731372, 249.041420200707)" fill="#f1e2c5" fill-rule="evenodd" stroke="#000000" stroke-width="0.75" stroke-linecap="square" stroke-linejoin="bevel" d="M6.27303 0.950501C5.64893 -0.805304 8.58859 1.09197 10.9038 1.46762C12.8338 1.78076 15.3992 -0.156973 16.992 0.0102554C16.403 -0.285846 9.49859 15.1307 16.2316 13.1802C18.6108 13.1802 18.6004 17.6769 17.3447 18.8154C15.5507 20.442 10.4953 18.8637 11.4514 18.4579C11.3219 18.1463 4.28659 18.3867 3.02917 17.7576C-3.36719 14.5577 1.65433 3.26621 6.27303 0.950501Z" sodipodi:nodetypes="cccccccc"/><path id="shape27" transform="translate(122.74784343549, 205.243428485213)" fill="#000000" fill-rule="evenodd" stroke="#000000" stroke-width="1.5" stroke-linecap="square" stroke-linejoin="bevel" d="M4.30582 0C9.80923 0 52.5725 9.55909 56.0652 14.9926C56.8819 16.2632 50.7157 62.9115 49.6162 63.4612C44.7528 65.893 2.11395 61.5404 0.782147 56.4802C-1.44069 48.0344 1.62653 26.4495 3.14237 17.3532C3.43254 15.612 3.52182 -1.38122 3.74076 1.13049" sodipodi:nodetypes="cccccc"/><path id="shape28" transform="translate(137.263122754908, 212.542778750422)" fill="#fbffae" fill-rule="evenodd" stroke="#000000" stroke-width="0.75" stroke-linecap="square" stroke-linejoin="bevel" d="M16.7839 1.51019C15.7694 1.51019 16.013 0.356689 14.9887 0.0808769C12.9294 -0.473657 8.547 1.96422 6.91085 3.10577C4.38641 4.86709 1.75193 7.25211 0.661112 10.2198C-0.880307 14.4133 0.503361 17.8724 2.45627 21.3232C3.80412 23.7049 5.3685 28.5848 7.74178 29.9662C8.82171 30.5947 10.1549 30.4181 11.2325 31.1963C12.3565 32.008 12.5986 32.7667 14.0911 32.9581C18.5911 33.5351 21.4579 31.0278 24.8954 28.6365C29.571 25.3838 33.4018 20.2508 31.5106 14.1759C30.1193 9.70654 25.2232 3.21679 21.0392 0.978457C18.986 -0.119961 16.614 0.90767 14.457 1.07807C14.4048 1.08219 12.7947 1.25987 12.7947 0.745548" sodipodi:nodetypes="ccccccccccccc"/><path id="shape29" transform="translate(126.821118467941, 244.065586508152)" fill="none" stroke="#ffff7d" stroke-width="0.75" stroke-linecap="square" stroke-linejoin="bevel" d="M0 16.0291C0 14.0118 0.531737 11.8331 0.531737 9.74606C0.531737 8.33578 0.373702 6.93366 0.332152 5.52439C0.311906 4.83768 0.332152 4.15037 0.332152 3.46336C0.332152 2.84276 0.316984 2.22197 0.332152 1.60155C0.337354 1.38881 0.929989 -0.692754 1.16345 0.238517C1.64867 2.17408 1.28268 4.27194 1.89477 6.22239C2.57611 8.39348 4.68425 9.96276 5.15257 11.9404C5.24118 12.3146 5.52141 17.3801 6.61521 16.6275C7.31617 16.1452 7.43363 14.4979 7.57945 13.7685C8.16962 10.8165 8.57741 7.79974 9.04209 4.82639C9.08353 4.56121 9.35169 1.27424 9.07541 1.1361C8.47908 0.83793 8.62601 2.40262 8.54331 3.06419" sodipodi:nodetypes="ccccccccccccc"/><path id="shape30" transform="translate(137.026654659845, 246.630882567417)" fill="none" stroke="#ffff7d" stroke-width="0.75" stroke-linecap="square" stroke-linejoin="bevel" d="M0 13.3975C0.847711 9.71685 0.429075 4.77273 1.89477 1.36352C2.18755 0.68252 6.35163 -0.761472 6.18309 0.498897" sodipodi:nodetypes="ccc"/><path id="shape31" transform="translate(137.724650640244, 253.837751340077)" fill="none" stroke="#ffff7d" stroke-width="0.75" stroke-linecap="square" stroke-linejoin="bevel" d="M0 0.373061C0 1.90045 2.56035 -1.25171 3.49071 0.605605" sodipodi:nodetypes="cc"/><path id="shape32" transform="translate(136.191560371764, 258.366196015489)" fill="none" stroke="#ffff7d" stroke-width="0.75" stroke-linecap="square" stroke-linejoin="bevel" d="M0.835094 1.66223C-1.83918 2.73126 2.63103 0 4.15955 0" sodipodi:nodetypes="cc"/><path id="shape33" transform="translate(142.814655339566, 247.129779086532)" fill="none" stroke="#ffff7d" stroke-width="0.75" stroke-linecap="square" stroke-linejoin="bevel" d="M0.395086 0C0.199185 3.53055 -0.404419 8.70245 0.428412 12.6991C0.514268 13.1111 0.872695 16.1818 1.4256 16.389C2.36924 16.7425 3.19146 13.0893 3.3537 12.7324C4.7197 9.72698 5.73799 6.9262 6.6115 3.72326C6.76831 3.14826 7.75608 -0.49432 7.87492 1.99475" sodipodi:nodetypes="cccccc"/><path id="shape34" transform="translate(149.229152837596, 251.086801301071)" fill="none" stroke="#ffff7d" stroke-width="0.75" stroke-linecap="square" stroke-linejoin="bevel" d="M0.330302 11.5011C0.180424 11.8609 -0.0921077 13.0014 0.0311082 12.6316C1.02417 9.651 1.95433 6.6379 2.85642 3.62242C3.07607 2.88819 3.3875 0.664895 4.08652 0.0654268C4.61373 -0.386709 5.08148 1.64621 5.11703 1.82726C5.51677 3.86322 5.58248 5.83773 5.58248 7.91074C5.58248 8.56455 5.58248 9.21835 5.58248 9.87216C5.58248 9.96278 5.66774 10.6461 5.58248 10.6035" sodipodi:nodetypes="cccccccc"/><path id="shape35" transform="translate(150.705894400099, 257.298293592078)" fill="none" stroke="#ffff7d" stroke-width="0.75" stroke-linecap="square" stroke-linejoin="bevel" d="M0.0499677 0.269931C-0.255234 0.576819 0.920037 0.276261 1.34672 0.203647C2.33154 0.0360472 3.16437 -0.155417 4.10574 0.203647" sodipodi:nodetypes="ccc"/><path id="shape36" transform="translate(158.435282684055, 252.429488665586)" fill="none" stroke="#ffff7d" stroke-width="0.75" stroke-linecap="square" stroke-linejoin="bevel" d="M0 10.6572C0.463255 7.88272 0.933263 4.99293 1.03051 2.18013C1.04119 1.87122 0.842347 -0.36829 1.89477 0.0524474C4.59149 1.13054 7.7888 2.98738 5.81761 6.60138C5.07474 7.96337 3.84909 8.48698 2.52648 9.09453C2.28095 9.20732 0.995669 10.0801 1.16345 10.1917" sodipodi:nodetypes="cccccc"/><path id="shape37" transform="translate(163.128977667747, 251.465576347181)" fill="none" stroke="#ffff7d" stroke-width="0.75" stroke-linecap="square" stroke-linejoin="bevel" d="M0.093034 11.6873C-0.285944 13.7791 0.589288 12.0262 0.990614 10.9894C1.92561 8.57375 2.87148 6.16875 3.78333 3.74243C4.07579 2.96423 4.32325 2.166 4.68091 1.41553C4.68632 1.40419 5.35175 -0.191552 6.01062 0.0191703C6.67927 0.233022 6.59375 2.00353 6.64196 2.44604C6.88476 4.67449 7.43999 8.23493 6.57568 10.391C6.44768 10.7103 6.3818 9.73017 6.30981 9.39378" sodipodi:nodetypes="cccccccc"/><path id="shape38" transform="translate(165.871754886401, 254.942133887088)" fill="none" stroke="#ffff7d" stroke-width="0.75" stroke-linecap="square" stroke-linejoin="bevel" d="M0.0429978 1.76184C-0.472528 1.76184 3.79162 0.0788905 5.12929 0" sodipodi:nodetypes="cc"/><path id="shape39" transform="translate(145.370612995417, 226.319904172476)" fill="none" stroke="#000000" stroke-width="0.75" stroke-linecap="square" stroke-linejoin="bevel" d="M0.000133172 2.7257C-0.0302786 2.76614 5.15759 2.28353 5.75109 2.19396C10.38 1.49544 4.63103 2.20785 9.44102 1.59558C11.6998 1.30805 13.8448 0.926831 15.9233 0.465087C16.2788 0.386105 17.7071 0.41485 17.9847 0" sodipodi:nodetypes="ccccc"/><path id="shape40" transform="translate(146.180521512708, 220.396896746894)" fill="none" stroke="#000000" stroke-width="0.75" stroke-linecap="square" stroke-linejoin="bevel" d="M2.08218 0.371266C1.45402 0.371266 0.52185 -0.485875 0.0211548 0.404591C-0.259279 0.903331 2.33737 2.59612 2.54764 2.73149C6.12748 5.03629 10.1733 6.62979 13.4515 9.41335C14.1622 10.0168 14.58 10.7822 15.2467 11.3748C16.6185 12.5941 18.7989 12.3849 16.6427 13.1033" sodipodi:nodetypes="cccccc"/><path id="shape41" transform="translate(145.779180205334, 232.29949940462)" fill="none" stroke="#000000" stroke-width="0.75" stroke-linecap="square" stroke-linejoin="bevel" d="M1.88514 0.70227C1.51815 0.188168 -0.347264 -0.281826 0.0570187 0.203492C0.722778 1.0027 2.85052 1.03715 3.6803 1.16736C6.8406 1.66324 11.95 3.32405 15.1159 2.53039C15.4681 2.44212 14.3356 2.5366 14.0521 2.7633C13.5132 3.19418 13.5204 4.0688 13.1216 4.62474C11.9594 6.24465 9.57844 9.07811 7.37023 9.21225C4.41829 9.39158 1.75268 7.39733 0.72169 4.69139C0.298208 3.57993 -0.125281 1.62799 1.38673 2.79626" sodipodi:nodetypes="ccccccccc"/><path id="shape42" transform="translate(336.058801144981, 255.656958684993)" fill="none" stroke="#000000" stroke-width="0.75" stroke-linecap="square" stroke-linejoin="bevel" d="M0 0.0471288C0 2.85873 0.37625 0.0251218 0.752248 0" sodipodi:nodetypes="cc"/><path id="shape43" transform="translate(340.478032810399, 259.98219169258)" fill="none" stroke="#000000" stroke-width="0.75" stroke-linecap="square" stroke-linejoin="bevel" d="M0 0C0 2.3727 0.848244 0.81957 0.96381 0.846247" sodipodi:nodetypes="cc"/><path id="shape44" transform="translate(336.686830741243, 255.656958684993)" fill="none" stroke="#000000" stroke-width="0.75" stroke-linecap="square" stroke-linejoin="bevel" d="M0.124219 0C2.33544 3.44571 -1.41695 2.23022 0.641341 3.92567" sodipodi:nodetypes="cc"/><path id="shape45" transform="translate(333.802056508621, 260.640441246868)" fill="none" stroke="#000000" stroke-width="0.75" stroke-linecap="square" stroke-linejoin="bevel" d="M0 0C1.5893 1.58057 0.31887 2.43418 3.33812 1.57493" sodipodi:nodetypes="cc"/><path id="shape46" transform="translate(336.556143270606, 253.345083884183)" fill="none" stroke="#000000" stroke-width="0.75" stroke-linecap="square" stroke-linejoin="bevel" d="M0.155825 0C-0.708982 1.51401 2.27936 0.912935 2.90613 0.799377" sodipodi:nodetypes="cc"/><path id="shape47" transform="translate(342.161406188376, 257.934974991129)" fill="none" stroke="#000000" stroke-width="0.75" stroke-linecap="square" stroke-linejoin="bevel" d="M1.9038 1.92762C1.70894 4.07754 0 0.910206 0 0" sodipodi:nodetypes="cc"/><path id="shape48" transform="translate(353.82935133848, 271.194703769962)" fill="#f1e2c5" fill-rule="evenodd" stroke="#000000" stroke-width="0.75" stroke-linecap="square" stroke-linejoin="bevel" d="M3.07954 0C5.16686 2.08732 3.47446 6.6125 2.06886 8.58003C1.91206 8.79952 -0.0309699 12.3174 0.000375126 12.3174" sodipodi:nodetypes="ccc"/><path id="shape49" transform="translate(319.447719333171, 279.959297000168)" fill="#bc0058" fill-rule="evenodd" stroke="#000000" stroke-width="0.75" stroke-linecap="square" stroke-linejoin="bevel" d="M3.37975 0C2.63291 3.54699 1.37892 3.88586 0.404482 7.46299C-0.423577 10.5028 0.047988 11.1455 1.56069 12.948C1.68878 11.439 2.04564 9.68269 2.43671 8.77121C3.6467 6.35123 2.84872 2.68301 3.37975 0" sodipodi:nodetypes="ccccc"/><path id="shape50" transform="translate(309.616374746325, 302.37971761864)" fill="none" stroke="#000000" stroke-width="0.75" stroke-linecap="square" stroke-linejoin="bevel" d="M6.72745 6.66388C4.41748 5.93751 8.00048 0.628583 4.98346 0.0518639C1.20249 -0.670888 5.24257 6.40664 5.46421 5.96579C6.29253 4.31826 -2.68326 6.31746 0.811416 8.59536C3.22598 10.1692 4.2833 6.32276 6.49472 6.57251" sodipodi:nodetypes="ccccc"/><path id="shape51" transform="translate(329.158074863248, 271.616831815621)" fill="none" stroke="#000000" stroke-width="0.75" stroke-linecap="square" stroke-linejoin="bevel" d="M5.3211 0.330709C5.5518 -1.45277 6.02609 4.5079 5.85302 5.58326C5.18021 9.76355 3.40382 13.5644 2.36249 17.6006C1.98203 19.0753 -0.311262 22.7581 0.0355905 22.2379" sodipodi:nodetypes="cccc"/><path id="shape52" transform="translate(332.780392779977, 294.521280892121)" fill="none" stroke="#000000" stroke-width="0.75" stroke-linecap="square" stroke-linejoin="bevel" d="M5.7279 0.0366981C4.87264 0.896684 -0.922653 0.126526 0.126536 3.72681C0.642989 5.49902 5.23886 0.285819 4.94677 0.103165C3.49799 -0.802822 8.0559 4.59482 9.03569 3.19489C10.3197 1.36025 3.73363 0.819519 4.71405 0.551955" sodipodi:nodetypes="ccccc"/><path id="shape53" transform="translate(336.138947520549, 295.073236240915)" fill="none" stroke="#000000" stroke-width="0.75" stroke-linecap="square" stroke-linejoin="bevel" d="M1.35549 0C0.144602 0.808372 -0.468297 6.85893 0.424769 6.6154" sodipodi:nodetypes="cc"/><path id="shape54" transform="translate(338.170273870068, 294.557978977315)" fill="none" stroke="#000000" stroke-width="0.75" stroke-linecap="square" stroke-linejoin="bevel" d="M0.338017 0C-0.220992 1.24735 -0.00258463 5.29791 0.388005 6.38267" sodipodi:nodetypes="cc"/><path id="shape55" transform="translate(307.7219949237, 253.499108279345)" fill="#f1e2c5" fill-rule="evenodd" stroke="#000000" stroke-width="0.75" stroke-linecap="square" stroke-linejoin="bevel" d="M17.2652 30.2482C17.873 30.4796 14.4351 24.2201 13.5277 23.1962C10.4213 19.6909 5.56666 15.322 3.20835 11.2783C1.88329 9.00626 -1.26821 3.69497 0.552305 0.959173C1.25338 -0.0943797 2.34467 -0.296487 4.23652 0.434636C7.62429 -0.147902 24.229 8.84328 29.6234 13.3161C32.397 14.4745 30.8125 11.9254 34.1132 14.8206C36.1093 15.4945 34.0198 19.077 33.8781 20.8616C34.3122 21.459 28.8425 17.3528 28.2531 17.1354C25.9593 16.2892 8.39428 8.25356 8.044 7.28323C9.30732 8.54655 11.5678 9.74772 13.2362 10.2582C16.4964 11.2558 17.895 15.6927 21.0201 16.6541" sodipodi:nodetypes="cccccccccccc"/><path id="shape56" transform="translate(321.484865989619, 288.801196175629)" fill="none" stroke="#000000" stroke-width="0.75" stroke-linecap="square" stroke-linejoin="bevel" d="M0 0C2.65985 5.34926 14.1827 4.41163 18.8052 6.72285" sodipodi:nodetypes="cc"/><path id="shape57" transform="translate(301.783548841746, 341.295659956511)" fill="#f1e2c5" fill-rule="evenodd" stroke="#000000" stroke-width="0.75" stroke-linecap="square" stroke-linejoin="bevel" d="M0.00277197 6.27153C-0.182857 6.17737 9.00474 9.21675 12.5053 9.98947C20.0144 11.6471 27.6729 11.7504 34.8446 14.8764C36.3141 15.5169 45.9478 21.2944 46.7957 19.4305C47.3196 18.2788 43.2581 14.9554 42.6401 14.0286C36.9378 5.47634 28.7627 6.00302 19.6028 3.0086C17.2342 2.2343 15.3108 0.648317 12.8045 0.116272C11.487 -0.163413 7.68768 0.807645 8.76553 0" sodipodi:nodetypes="cccccccc"/><path id="shape58" transform="translate(339.719352969483, 342.226382298685)" fill="#f1e2c5" fill-rule="evenodd" stroke="#000000" stroke-width="0.75" stroke-linecap="square" stroke-linejoin="bevel" d="M0.029996 5.85793C-0.458204 5.278 5.13904 8.38788 7.62979 9.39127C13.6594 11.8203 20.0903 13.4195 26.1296 15.8902C26.9204 16.2138 32.87 19.303 33.5428 18.1842C34.7514 16.1743 30.114 11.7727 28.922 10.239C27.1005 7.89546 7.95101 0 4.93705 0" sodipodi:nodetypes="cccccc"/><path id="shape59" transform="translate(347.025363990746, 249.436291043325)" fill="#810020" fill-rule="evenodd" stroke="none" stroke-width="0.75" stroke-linecap="square" stroke-linejoin="bevel" d="M2.96126 0C1.25877 0 5.85448 1.97674 6.75098 3.42406C8.58076 6.37808 9.61722 10.819 9.22748 14.3278C8.54606 20.4624 4.85971 25.8097 4.40724 32.3788C3.80321 41.1484 7.41388 50.7258 4.02492 59.339C3.22109 61.382 1.79352 71.6265 0.268518 72.3869C-0.419673 72.73 0.420715 64.8546 0.517907 64.1261C1.23414 58.7576 2.36379 54.8311 2.21986 49.4464C1.79955 33.7219 2.25461 31.1413 5.96906 16.4904C6.56532 14.1385 7.54032 11.1753 6.61553 8.8625C6.33553 8.16229 2.78015 4.9632 3.60945 4.73729" sodipodi:nodetypes="ccccccccccc"/><path id="shape60" transform="translate(344.075497245742, 270.10903377533)" fill="#8b0022" fill-rule="evenodd" stroke="none" stroke-width="0.75" stroke-linecap="square" stroke-linejoin="bevel" d="M4.45439 0.497163C4.47242 0.465572 3.91411 4.11999 3.74914 4.8694C3.03391 8.11846 2.42335 11.2095 2.00965 14.5188C1.11822 21.6494 3.86217 28.8196 3.07924 35.9683C2.87054 37.8739 0.208449 40.9963 0.622842 42.6677C0.907443 43.8156 0.259274 40.6974 0.728623 39.6119C1.74484 37.2615 2.82112 35.4147 2.30355 32.936C0.499438 24.2961 -1.16777 15.9618 1.09296 7.24344C2.28342 2.65256 3.35742 -0.236761 4.11348 0.0152582" sodipodi:nodetypes="ccccccccc"/><path id="shape61" transform="translate(90.7581486187886, 309.775325019317)" fill="#908980" fill-rule="evenodd" stroke="#000000" stroke-width="1.5" stroke-linecap="square" stroke-linejoin="bevel" d="M1.52929 125.46L0 1.79516L118.943 0L159.766 1.99511L160.231 90.7541L51.9256 131.377L1.52929 125.46" sodipodi:nodetypes="ccccccc"/><path id="shape62" transform="translate(142.750426331913, 315.892494408924)" fill="none" stroke="#000000" stroke-width="1.5" stroke-linecap="square" stroke-linejoin="miter" stroke-miterlimit="2" d="M0.332519 125.327L0 0" sodipodi:nodetypes="cc"/><path id="shape63" transform="translate(144.744805193012, 311.836354073718)" fill="none" stroke="#000000" stroke-width="1.5" stroke-linecap="square" stroke-linejoin="miter" stroke-miterlimit="2" d="M106.112 0L0 4.85375" sodipodi:nodetypes="cc"/><path id="shape64" transform="translate(92.2207907728888, 313.298996227818)" fill="none" stroke="#000000" stroke-width="1.5" stroke-linecap="square" stroke-linejoin="miter" stroke-miterlimit="2" d="M50.8622 4.9204L0 0" sodipodi:nodetypes="cc"/><path id="shape65" transform="translate(148.401776788115, 374.200427252146)" fill="#7a7165" fill-rule="evenodd" stroke="#000000" stroke-width="1.5" stroke-linecap="square" stroke-linejoin="bevel" d="M0 58.9071L99.6625 23.7355L99.2641 0L2.06103 25.1322L0 58.9071" sodipodi:nodetypes="ccccc"/><path id="shape66" transform="translate(151.393711289617, 344.415115043437)" fill="#7a7165" fill-rule="evenodd" stroke="#000000" stroke-width="1.5" stroke-linecap="square" stroke-linejoin="bevel" d="M0.265868 48.402L95.873 25.464L93.1469 0L0 14.6931L0.265868 48.402" sodipodi:nodetypes="ccccc"/><path id="shape67" transform="translate(151.726229836418, 314.894938768521)" fill="#7a7165" fill-rule="evenodd" stroke="#000000" stroke-width="1.5" stroke-linecap="square" stroke-linejoin="bevel" d="M1.92773 40.4237L92.3493 26.1291L95.0088 0L0 7.37986L1.92773 40.4237" sodipodi:nodetypes="ccccc"/><path id="shape68" transform="translate(198.744250171679, 329.074830681882)" fill="#544531" fill-rule="evenodd" stroke="#000000" stroke-width="0.75" stroke-linecap="square" stroke-linejoin="bevel" d="M0.120512 3.04003C-0.80901 3.04003 3.90586 1.1123 5.10683 1.1123C9.27892 1.1123 13.1367 1.1566 17.2071 0.114744C17.5389 0.0298183 22.7947 -0.194265 21.9276 0.380612C19.4276 2.03813 -2.14816 3.66123 2.71328 1.57739" sodipodi:nodetypes="ccccc"/><path id="shape69" transform="translate(198.523241499803, 360.965745211909)" fill="#544531" fill-rule="evenodd" stroke="#000000" stroke-width="0.75" stroke-linecap="square" stroke-linejoin="bevel" d="M16.5639 0.735207C15.4016 0.735207 13.1254 -0.0650304 11.5109 0.00425246C8.53989 0.131751 5.56365 0.2038 2.60177 0.469339C0.908316 0.62116 -1.27946 3.21529 0.939908 4.32553C3.09661 5.40442 13.6398 2.46327 15.1012 1.00181C16.2735 -0.170497 11.6644 0.991332 10.1816 1.73276" sodipodi:nodetypes="cccccc"/><path id="shape70" transform="translate(192.016612153838, 394.354169949373)" fill="#544531" fill-rule="evenodd" stroke="#000000" stroke-width="0.75" stroke-linecap="square" stroke-linejoin="bevel" d="M26.2624 0.656498C26.2624 -2.2864 -0.0300268 5.59251 2.57432e-05 6.04198C0.687178 16.3191 26.6528 -3.26823 19.2143 0.789799" sodipodi:nodetypes="ccc"/><path id="shape71" transform="translate(344.385375252066, 443.482090997971)" fill="#6a7b86" fill-rule="evenodd" stroke="#000000" stroke-width="0.75" stroke-linecap="square" stroke-linejoin="bevel" d="M13.3707 1.69249C13.3707 1.53412 9.5883 4.67838 8.66971 5.35974C6.66436 6.84718 1.08661 8.01826 0.0192411 10.155C-0.314828 10.8237 3.80658 16.2662 4.20335 17.4889C5.15545 20.423 3.83344 25.8152 5.09672 28.3488C5.53096 29.2196 11.3033 31.5152 12.3364 32.204C14.545 33.6765 19.1833 35.8364 20.4229 38.3157C20.7733 39.0166 21.5624 37.1599 22.3034 36.905C24.3552 36.1991 26.5631 35.8271 28.6969 35.4005C39.3787 33.2645 41.839 36.2099 49.5708 30.2764C50.6086 29.4799 58.1387 25.0893 58.315 24.0238C58.6216 22.1707 52.434 18.1495 51.5921 17.4889C44.6485 12.0408 36.4545 7.99385 28.556 4.04324C25.8825 2.70601 23.2195 1.98166 20.3758 1.03424C19.0417 0.589776 14.8797 0 16.2859 0" sodipodi:nodetypes="ccccccccccccccc"/><path id="shape72" transform="translate(357.551286978499, 445.174584737873)" fill="none" stroke="#000000" stroke-width="0.75" stroke-linecap="square" stroke-linejoin="bevel" d="M0.204764 0C-1.20148 2.34432 5.03682 5.17927 6.693 6.29972C13.4956 10.9019 25.145 17.9256 32.5496 22.237C34.4668 23.3533 36.1309 24.6939 38.2382 25.5278C39.5102 26.031 43.1078 25.8299 42.1406 26.7971" sodipodi:nodetypes="ccccc"/><path id="shape73" transform="translate(349.598813232213, 455.588078331924)" fill="none" stroke="#000000" stroke-width="0.75" stroke-linecap="square" stroke-linejoin="bevel" d="M24.268 1.08755C24.9276 -2.90683 17.8661 5.34289 16.9541 5.94056C12.7034 8.72587 3.69431 9.30447 0 12.9886" sodipodi:nodetypes="ccc"/><path id="shape74" transform="translate(369.146362781927, 460.318039855644)" fill="none" stroke="#000000" stroke-width="0.75" stroke-linecap="square" stroke-linejoin="bevel" d="M12.2329 0.0138242C7.50028 -0.572861 1.8327 17.6897 0 21.3565" sodipodi:nodetypes="cc"/><path id="shape75" transform="translate(345.835844854655, 453.284521659928)" fill="none" stroke="#000000" stroke-width="0.75" stroke-linecap="square" stroke-linejoin="bevel" d="M0.372598 0C-1.52168 0 4.37362 1.1082 5.35891 2.72607C7.53943 6.30652 7.99126 13.2896 3.76297 15.2922" sodipodi:nodetypes="ccc"/><path id="shape76" transform="translate(367.171487557482, 475.863413905405)" fill="none" stroke="#000000" stroke-width="0.75" stroke-linecap="square" stroke-linejoin="bevel" d="M18.5964 2.81923C12.7652 -3.01193 -6.08817 1.31081 1.97488 5.81116" sodipodi:nodetypes="cc"/><path id="shape77" transform="translate(100.598529984751, 308.288613388361)" fill="#4b4b4b" fill-rule="evenodd" stroke="#000000" stroke-width="1.5" stroke-linecap="square" stroke-linejoin="bevel" d="M45.3044 0.978344C42.7135 -1.61261 32.5782 1.7486 29.4871 1.86977C24.4179 2.06849 11.9444 0.946696 7.60775 4.49327C3.59927 7.77147 3.56314 28.8589 2.6666 34.4979C1.9096 39.2592 -2.93518 56.9092 2.6666 60.427C13.1226 66.9932 14.8701 64.2267 18.4073 53.7791C19.5761 50.3269 21.7841 47.3578 22.7628 43.7691C28.2846 23.5238 23.9864 6.26888 49.0486 8.44142C53.9134 8.86312 53.5682 18.1649 53.99 21.0749C55.8829 34.1332 55.6603 47.5236 58.4982 60.4523C59.7214 66.0247 68.4696 69.7216 71.9213 65.0371C78.5779 56.0027 72.4367 25.2872 71.0806 13.7903C70.8238 11.6128 70.1876 7.37461 71.208 5.33391C71.4676 4.81461 74.8611 3.21428 74.5192 2.78673C71.5742 -0.896584 57.831 2.30334 53.2512 1.05494C52.88 0.953737 43.1156 0.602798 44.5149 0.0869167" sodipodi:nodetypes="cccccccccccccccc"/><path id="shape78" transform="translate(214.177811788088, 391.782157868456)" fill="none" stroke="#000000" stroke-width="1.5" stroke-linecap="square" stroke-linejoin="bevel" d="M2.92602 0C-2.32961 5.25562 2.82032 0.21061 0 2.12768" sodipodi:nodetypes="cc"/><path id="shape79" transform="translate(211.984214766791, 186.869552499164)" fill="none" stroke="#000000" stroke-width="1.5" stroke-linecap="square" stroke-linejoin="bevel" d="M1.39599 1.59802C4.55098 -4.7163 0 10.1411 0 3.99157" sodipodi:nodetypes="cc"/><rect id="shape02" fill="url(#gradient0)" fill-rule="evenodd" stroke-opacity="0" stroke="#000000" stroke-width="0" stroke-linecap="square" stroke-linejoin="bevel" width="600" height="600"/>
</svg>
