<?xml version="1.0" encoding="UTF-8" standalone="no"?>
<!-- Created with Inkscape (http://www.inkscape.org/) -->

<svg
   width="325.44003"
   height="210.24001"
   viewBox="0 0 86.106009 55.626004"
   version="1.1"
   id="svg5"
   inkscape:version="1.2.2 (b0a8486541, 2022-12-01)"
   sodipodi:docname="gothic_world.svg"
   xmlns:inkscape="http://www.inkscape.org/namespaces/inkscape"
   xmlns:sodipodi="http://sodipodi.sourceforge.net/DTD/sodipodi-0.dtd"
   xmlns="http://www.w3.org/2000/svg"
   xmlns:svg="http://www.w3.org/2000/svg">
  <sodipodi:namedview
     id="namedview7"
     pagecolor="#ffffff"
     bordercolor="#666666"
     borderopacity="1.0"
     inkscape:pageshadow="2"
     inkscape:pageopacity="0.0"
     inkscape:pagecheckerboard="true"
     inkscape:document-units="px"
     showgrid="false"
     units="px"
     width="720px"
     objecttolerance="2"
     inkscape:snap-grids="false"
     inkscape:snap-to-guides="true"
     inkscape:snap-page="false"
     showborder="true"
     inkscape:showpageshadow="false"
     borderlayer="false"
     inkscape:deskcolor="#d1d1d1"
     inkscape:zoom="2"
     inkscape:cx="184.25"
     inkscape:cy="100.75"
     inkscape:window-width="1366"
     inkscape:window-height="754"
     inkscape:window-x="0"
     inkscape:window-y="0"
     inkscape:window-maximized="1"
     inkscape:current-layer="text785" />
  <defs
     id="defs2">
    <rect
       x="74.340569"
       y="131.44862"
       width="547.36493"
       height="392.82043"
       id="rect787" />
  </defs>
  <g
     inkscape:label="Calque 1"
     inkscape:groupmode="layer"
     id="layer1"
     transform="translate(-0.26458269,-0.26458368)">
    <g
       aria-label="Gothic
World"
       transform="matrix(0.26458334,0,0,0.26458334,-80.693985,-34.92744)"
       id="text785"
       style="font-size:120px;line-height:1;font-family:'Berenis ADF Pro Math';-inkscape-font-specification:'Berenis ADF Pro Math';text-align:end;text-anchor:end;white-space:pre;shape-inside:url(#rect787)">
      <path
         d="m 341.62513,220.96922 c -8.64,0 -21.6,-6.6 -21.6,-41.4 0,-29.04 7.56,-44.64 21.36,-44.64 11.4,0 19.44,10.32 23.52,30.72 h 4.92 l -1.44,-32.04 h -4.32 v 12.96 c -6,-9.36 -14.88,-13.56 -22.32,-13.56 -16.2,0 -35.76,14.76 -35.76,46.56 0,32.16 20.76,43.32 34.68,43.32 8.52,0 14.4,-3.24 21,-11.4 l 3.72,11.76 h 4.68 v -37.08 h 10.68 v -2.88 h -32.88 v 2.88 h 10.92 v 9.12 c 0,21.96 -10.32,25.68 -17.16,25.68 z"
         id="path36719"
         style="stroke:none;fill:#ffffff;fill-opacity:1" />
      <path
         d="m 408.70505,173.20922 c 7.2,0 11.4,8.52 11.4,24.24 0,15.72 -4.2,24.24 -11.64,24.24 -7.44,0 -11.52,-8.52 -11.52,-24.24 0,-16.08 3.96,-24.24 11.76,-24.24 z m 0,-1.2 c -13.08,0 -23.16,11.16 -23.16,25.56 0,14.04 10.08,25.32 22.92,25.32 12.72,0 22.92,-11.28 22.92,-25.32 0,-14.04 -10.2,-25.56 -22.68,-25.56 z"
         id="path36717"
         style="stroke:none;fill:#ffffff;fill-opacity:1" />
      <path
         d="m 476.14504,204.88922 h -5.28 c -0.36,10.08 -3.12,15.12 -8.16,15.12 -5.4,0 -6,-7.32 -6,-12.96 v -31.56 h 14.64 v -2.04 h -14.64 v -21 h -4.8 c -1.08,11.28 -5.76,20.4 -14.16,21 v 2.04 h 8.64 v 31.2 c 0,8.28 0.36,16.2 13.68,16.2 12.84,0 16.08,-10.32 16.08,-18 z"
         id="path36715"
         style="stroke:none;fill:#ffffff;fill-opacity:1" />
      <path
         d="m 478.18498,135.64922 h 9.84 v 84 h -8.4 v 1.8 h 27.36 v -1.8 h -8.76 v -22.56 c 0,-7.92 5.04,-22.2 13.44,-22.2 h 0.12 c 8.64,0 9.6,10.32 9.6,16.2 v 28.56 h -8.4 v 1.8 h 27.24 v -1.8 h -8.4 v -27.96 c 0,-11.16 -2.88,-19.68 -16.92,-19.68 -6.84,0 -12,3 -16.68,9.84 v -48 h -20.04 z"
         id="path36713"
         style="stroke:none;fill:#ffffff;fill-opacity:1" />
      <path
         d="m 563.14497,173.44922 h -20.04 v 1.8 h 9.84 l 1.1e-4,164.4 h -8.52 v 1.8 h 27.6 v -1.8 h -9 z"
         id="path36711"
         sodipodi:nodetypes="ccccccccccc"
         style="stroke:none;fill:#ffffff;fill-opacity:1" />
      <path
         d="m 557.62497,149.92922 c -3.12,0 -5.76,2.52 -5.76,5.88 0,3.36 2.64,5.76 5.76,5.76 3,0 5.64,-2.4 5.64,-5.76 0,-3.36 -2.64,-5.88 -5.64,-5.88 z"
         id="path36709"
         style="stroke:none;fill:#ffffff;fill-opacity:1" />
      <path
         d="m 604.78505,184.72922 c 0,2.52 2.76,4.32 6.48,4.32 3.72,0 6.48,-2.28 6.48,-5.76 0,-6.24 -7.08,-11.28 -16.56,-11.28 -13.56,0 -23.4,11.04 -23.4,26.28 0,14.64 9,24.6 22.08,24.6 9.36,0 14.64,-3.84 19.2,-13.56 l -4.56,-0.6 c -3.12,8.04 -6.84,11.16 -12.24,11.16 -8.16,0 -13.08,-8.76 -13.08,-22.68 0,-14.4 4.92,-24 12.72,-24 2.88,0 5.52,2.16 5.52,5.04 0,3.48 -2.64,3 -2.64,6.48 z"
         id="path36707"
         style="stroke:none;fill:#ffffff;fill-opacity:1" />
      <g
         id="g36726"
         transform="translate(10.080171)"
         style="stroke:none;fill:#ffffff;fill-opacity:1">
        <path
           d="m 376.06496,322.36922 -14.28,-56.88 c -0.24,-1.08 -0.48,-2.16 -0.48,-3.24 0,-2.4 0.96,-4.56 3.84,-4.56 h 5.04 v -2.88 h -29.4 v 2.88 h 6.36 l 23.76,85.56 h 4.92 l 14.88,-62.04 16.32,62.04 h 4.44 l 17.52,-71.64 c 1.2,-5.04 4.08,-13.92 10.56,-13.92 h 0.72 v -2.88 h -25.56 v 2.88 h 12.6 l -15.6,64.68 -13.68,-55.68 c -0.36,-1.56 -0.6,-3.12 -0.6,-4.44 0,-2.64 1.08,-4.56 4.68,-4.56 h 4.08 v -2.88 h -30.12 v 2.88 h 7.32 l 4.08,15.12 z"
           id="path36705"
           style="stroke:none;fill:#ffffff;fill-opacity:1" />
        <path
           d="m 458.1449,293.20922 c 7.2,0 11.4,8.52 11.4,24.24 0,15.72 -4.2,24.24 -11.64,24.24 -7.44,0 -11.52,-8.52 -11.52,-24.24 0,-16.08 3.96,-24.24 11.76,-24.24 z m 0,-1.2 c -13.08,0 -23.16,11.16 -23.16,25.56 0,14.04 10.08,25.32 22.92,25.32 12.72,0 22.92,-11.28 22.92,-25.32 0,-14.04 -10.2,-25.56 -22.68,-25.56 z"
           id="path36703"
           style="stroke:none;fill:#ffffff;fill-opacity:1" />
        <path
           d="m 520.90489,296.08922 c -1.44,1.8 -1.8,3 -1.8,5.28 0,2.28 2.52,3.96 5.88,3.96 3.96,0 6.6,-2.16 6.6,-5.28 0,-3.84 -3.6,-6.6 -9.36,-6.6 -6.48,0 -12.12,5.28 -15.48,14.52 v -14.52 h -18.96 v 1.8 h 8.88 v 44.4 h -8.4 v 1.8 h 28.8 v -1.8 h -10.32 v -11.4 c 0,-11.64 4.32,-30.84 14.16,-32.16 z"
           id="path36701"
           style="stroke:none;fill:#ffffff;fill-opacity:1" />
        <path
           d="m 590.14498,294.28922 c 4.92,0 12.12,4.44 12.12,22.56 0,13.56 -4.8,23.52 -12.24,23.52 -7.44,0 -12,-8.88 -12,-21.84 0,-20.4 7.32,-24.24 12.12,-24.24 z m 12.36,47.16 h 18.84 v -1.8 h -8.76 v -85.8 h -21.24 v 1.8 h 11.16 v 43.92 c -3.72,-5.16 -8.4,-7.56 -14.4,-7.56 -12.24,0 -21.48,10.68 -21.48,25.08 0,14.28 9,25.8 21.48,25.8 6.72,0 11.16,-2.76 14.4,-9.12 z"
           id="path36543"
           style="stroke:none;fill:#ffffff;fill-opacity:1" />
      </g>
    </g>
  </g>
</svg>
