<?xml version="1.0" encoding="UTF-8" standalone="no"?>
<!-- Created using Krita: http://krita.org -->

<svg
   width="720"
   height="720"
   viewBox="0 0 576 576"
   version="1.1"
   id="svg121"
   sodipodi:docname="nota2.svg"
   inkscape:version="1.2.2 (b0a8486541, 2022-12-01)"
   xmlns:inkscape="http://www.inkscape.org/namespaces/inkscape"
   xmlns:sodipodi="http://sodipodi.sourceforge.net/DTD/sodipodi-0.dtd"
   xmlns="http://www.w3.org/2000/svg"
   xmlns:svg="http://www.w3.org/2000/svg">
  <sodipodi:namedview
     id="namedview123"
     pagecolor="#000000"
     bordercolor="#666666"
     borderopacity="1.0"
     inkscape:showpageshadow="2"
     inkscape:pageopacity="0"
     inkscape:pagecheckerboard="0"
     inkscape:deskcolor="#d1d1d1"
     inkscape:document-units="px"
     showgrid="false"
     inkscape:zoom="1.2208333"
     inkscape:cx="360"
     inkscape:cy="387.03072"
     inkscape:window-width="1366"
     inkscape:window-height="754"
     inkscape:window-x="0"
     inkscape:window-y="0"
     inkscape:window-maximized="1"
     inkscape:current-layer="layer2" />
  <defs
     id="defs2" />
  <g
     inkscape:groupmode="layer"
     id="layer1"
     inkscape:label="Layer 1">
    <path
       id="shape0"
       fill="#d2d2ff"
       fill-rule="evenodd"
       stroke="#000000"
       stroke-opacity="0"
       stroke-width="0"
       stroke-linecap="square"
       stroke-linejoin="bevel"
       d="m 342.72001,52.559994 c 15.893,15.89322 7.665,91.039716 11.52,111.599516 1.944,10.367 10.379,60.58 11.52,80.64 11.582,11.582 13.734,19.162 23.04,33.12 33.327,49.991 65.566,95.853 92.16,149.04 -54.903,0 -132.439,76.097 -185.04,98.64 -21.19,9.082 -42.422,14.777 -64.8,20.88 -6.643,1.812 -31.013,8.693 -30.96,8.64 -8.242,-8.241 -9.179,-31.678 -17.28,-42.48 -10.078,-13.436 -25.72,-22.062 -36,-35.28 -19.3468,-24.874 -29.3262,-54.923 -40.32,-84.24 -4.1638,-11.103 -28.800002,-45.193 -28.800002,-56.88 0,-60.957 -2.9408,-103.476 -10.08,-164.16 -2.9602,-25.1612 -27.36,-52.7008 -27.36,-75.599496 50.0962,0 85.361402,-17.5043 134.640002,-27.36 45.831,-9.16619 88.985,-9.46409 135.36,-13.68002 10.453,-0.9503 22.131,-6.30316 32.4,-2.88 z" />
    <path
       id="path5"
       fill="none"
       stroke="#b0b0c3"
       stroke-width="0.72"
       stroke-linecap="square"
       stroke-linejoin="bevel"
       d="M 57.599999,123.12 C 85.147899,95.572099 298.113,105.8069 329.04,74.879999" />
    <path
       id="shape1"
       fill="none"
       stroke="#b0b0c3"
       stroke-width="0.72"
       stroke-linecap="square"
       stroke-linejoin="bevel"
       d="M 84.239999,141.84 C 109.4177,141.84 307.051,117.0288 325.44,98.639999" />
    <path
       id="shape2"
       fill="none"
       stroke="#b0b0c3"
       stroke-width="0.72"
       stroke-linecap="square"
       stroke-linejoin="bevel"
       d="m 149.76,402.48 c 6.99302,0 162.994,-49.7522 177.12,-57.6 12.959,-7.1995 46.39,-33.12 61.2,-33.12" />
    <path
       id="shape3"
       fill="none"
       stroke="#b0b0c3"
       stroke-width="0.72"
       stroke-linecap="square"
       stroke-linejoin="bevel"
       d="m 151.2,429.12 c 42.2764,0 134.455,-38.3618 175.68,-57.6 19.279,-8.9971 35.315,-21.4195 54.72,-30.24 6.459,-2.93588 13.452,-4.64815 19.44,-8.64 1.387,-0.92476 8.074,-3.6 7.2,-3.6" />
    <path
       id="shape4"
       fill="none"
       stroke="#b0b0c3"
       stroke-width="0.72"
       stroke-linecap="square"
       stroke-linejoin="bevel"
       d="m 172.8,461.52 c 59.889,0 180.136,-52.6958 227.52,-100.08" />
    <path
       id="shape5"
       fill="none"
       stroke="#b0b0c3"
       stroke-width="0.72"
       stroke-linecap="square"
       stroke-linejoin="bevel"
       d="m 217.44,499.68 c 6.98944,0 182.93,-93.6251 221.76,-113.04" />
    <path
       id="shape6"
       fill="none"
       stroke="#b0b0c3"
       stroke-width="0.72"
       stroke-linecap="square"
       stroke-linejoin="bevel"
       d="m 217.44,529.2 c 9.02862,0 16.4477,-8.226 25.2,-10.8 78.877,-23.199 91.754,-54.8912 154.8,-89.28 17.059,-9.305 39.533,-11.7155 55.44,-22.32" />
    <path
       id="shape7"
       fill="none"
       stroke="#b0b0c3"
       stroke-width="0.72"
       stroke-linecap="square"
       stroke-linejoin="bevel"
       d="m 75.599999,113.04 c 0,20.39 10.733,49.4789 17.28,69.12 C 107.4582,225.895 111.0281,283.552 122.4,329.04 c 9.2821,37.128 46.3956,69.751 63.36,103.68 13.619,27.238 26.276,68.756 48.24,90.72" />
    <path
       id="shape8"
       fill="none"
       stroke="#b0b0c3"
       stroke-width="0.72"
       stroke-linecap="square"
       stroke-linejoin="bevel"
       d="m 104.4,114.48 c 0,64.0521 19.8675,136.02 41.76,194.4 10.2932,27.448 35.652,50.786 48.24,78.48 20.163,44.359 35.786,86.906 70.56,121.68" />
    <path
       id="shape9"
       fill="none"
       stroke="#b0b0c3"
       stroke-width="0.72"
       stroke-linecap="square"
       stroke-linejoin="bevel"
       d="m 138.24,108.72 c 0,29.8315 15.0049,59.9043 20.88,89.28 5.7178,28.589 1.8838,75.048 15.12,101.52 11.0125,22.025 77.82,88.88 98.64,116.64 16.397,21.862 21.648,58.368 39.6,76.32" />
    <path
       id="shape10"
       fill="none"
       stroke="#b0b0c3"
       stroke-width="0.72"
       stroke-linecap="square"
       stroke-linejoin="bevel"
       d="m 169.2,103.68 c 0,15.2423 17.6683,167.097 29.52,190.8 3.8845,7.769 16.3569,12.98 22.32,19.44 11.7078,12.683 19.481,29.598 27.36,44.64 13.9463,26.625 31.811,53.215 49.68,77.04 6.017,8.023 21.387,20.961 24.48,30.24 0.649,1.947 2.88,6.315 2.88,4.32" />
    <path
       id="shape11"
       fill="none"
       stroke="#b0b0c3"
       stroke-width="0.72"
       stroke-linecap="square"
       stroke-linejoin="bevel"
       d="m 188.64,100.8 c 0,-1.94547 -0.0582,0.0199 0.72,2.16 4.80701,13.21931 8.26826,26.81611 12.24001,40.32001 8.5698,29.1375 9.972,59.94 15.84,89.28 16.814,84.07 16.3542,58.649 71.28,124.56 24.242,29.091 38.742,70.422 64.8,96.48" />
    <path
       id="shape12"
       fill="none"
       stroke="#b0b0c3"
       stroke-width="0.72"
       stroke-linecap="square"
       stroke-linejoin="bevel"
       d="m 226.08,104.4 c 0,32.0782 14.9639,62.2671 19.44,93.6 3.7658,26.36 3.9557,56.507 12.24,81.36 3.4965,10.49 26.8165,26.113 34.56,34.56 10.2589,11.192 67.839,108.319 79.2,131.04" />
    <path
       id="shape13"
       fill="none"
       stroke="#b0b0c3"
       stroke-width="0.72"
       stroke-linecap="square"
       stroke-linejoin="bevel"
       d="m 244.8,93.599999 c -4.01007,0 6.94128,22.359501 7.92,24.480001 8.76945,19.0004 12.87695,36.388 17.99995,56.88 2.9378,11.751 10.5818,25.374 15.12,36.72 9.8082,24.52 11.3877,55.697 18.72,81.36 7.1359,24.975 36.265,54.037 51.1198,76.32 12.345,18.518 20.11,40.989 36,56.88" />
    <path
       id="shape14"
       fill="none"
       stroke="#b0b0c3"
       stroke-width="0.72"
       stroke-linecap="square"
       stroke-linejoin="bevel"
       d="m 280.08,87.119999 c 0,39.159001 19.2383,137.117001 38.16,174.960001 8.3264,16.653 24.2352,34.6 34.56,51.12 14.2166,22.747 30.312,44.063 42.48,68.4 4.075,8.15 6.347,20.027 12.96,26.64 0.826,0.826 6.48,8.439 6.48,5.76" />
    <path
       id="shape15"
       fill="none"
       stroke="#b0b0c3"
       stroke-width="0.72"
       stroke-linecap="square"
       stroke-linejoin="bevel"
       d="m 324.72,77.039999 c 0,45.711101 -9.07151,106.705001 5.76,151.200001 8.30774,24.923 35.56974,48.578 52.56004,68.4 25.4802,29.727 13.1862,86.513 63.3597,111.6" />
    <path
       id="shape16"
       fill="none"
       stroke="#ba9296"
       stroke-width="0.72"
       stroke-linecap="square"
       stroke-linejoin="bevel"
       d="m 75.599996,113.04 c -8.75236,8.75237 2.35062,77.4637 5.04,93.6 4.24152,25.449 13.70202,49.375 23.040024,72.72 7.4247,18.562 3.0765,40.91 9.36,59.76 19.9166,59.75 57.5726,133.173 102.96,178.56" />
    <path
       id="shape17"
       fill="#000000"
       fill-rule="evenodd"
       d="m 178.70003,485.69752 c -10.92778,5.46391 8.14591,20.10791 8.14591,2.03647 0,-9.86541 -11.20061,-8.7149 -11.20061,1.52735" />
    <path
       id="shape18"
       fill="#000000"
       fill-rule="evenodd"
       d="m 200.08294,514.71719 c -13.14176,0 -2.6075,25.26085 2.54559,13.23705 4.74836,-11.07953 -8.14587,-23.04405 -8.14587,-17.81911" />
    <path
       id="shape01"
       fill="none"
       stroke="#b0b0c3"
       stroke-width="0.72"
       stroke-linecap="square"
       stroke-linejoin="bevel"
       d="m 100.80001,169.92 c 9.60615,0 22.7498,-7.7516 32.4,-9.36 44.0309,-7.3385 88.481,-11.5002 131.76,-22.32 18.613,-4.6532 37.966,-19.44 57.6,-19.44" />
    <path
       id="path26"
       fill="none"
       stroke="#b0b0c3"
       stroke-width="0.72"
       stroke-linecap="square"
       stroke-linejoin="bevel"
       d="m 98.640011,198.72 c 18.677599,0 225.944999,-29.3849 246.959999,-50.4" />
    <path
       id="path28"
       fill="none"
       stroke="#b0b0c3"
       stroke-width="0.72"
       stroke-linecap="square"
       stroke-linejoin="bevel"
       d="m 101.52001,239.76 c 49.9563,-18.7336 107.044,-15.7876 159.12,-27.36 24.059,-5.3465 45.41,-20.16 69.84,-20.16" />
    <path
       id="path30"
       fill="none"
       stroke="#b0b0c3"
       stroke-width="0.72"
       stroke-linecap="square"
       stroke-linejoin="bevel"
       d="m 102.96001,313.92 c 36.2657,0 127.549,-33.1704 164.88,-50.4 17.1,-7.8924 47.848,-28.08 66.96,-28.08" />
    <path
       id="path32"
       fill="none"
       stroke="#b0b0c3"
       stroke-width="0.72"
       stroke-linecap="square"
       stroke-linejoin="bevel"
       d="m 133.20001,342.72 c 44.0771,0 132.535,-44.6608 178.56,-61.92 15.891,-5.959 27.885,-19.44 46.08,-19.44" />
    <path
       id="path34"
       fill="none"
       stroke="#b0b0c3"
       stroke-width="0.72"
       stroke-linecap="square"
       stroke-linejoin="bevel"
       d="m 143.28001,375.84 c 49.3559,-32.904 188.113,-57.7934 226.08,-95.76" />
    <path
       id="path36"
       fill="none"
       stroke="#b0b0c3"
       stroke-width="0.72"
       stroke-linecap="square"
       stroke-linejoin="bevel"
       d="m 118.8,274.32 c 41.3811,0 160.242,-38.001 206.64,-61.2" />
    <path
       id="path38"
       fill="#000000"
       fill-rule="evenodd"
       d="m 57.600006,123.12 c -0.982879,2e-5 -1.8,0.7147 -1.8,1.80001 0,2.3217 0.967768,3.40518 2.88,4.68 12.3189,8.21254 -2.52,-14.93949 -2.52,-3.24" />
    <path
       id="path40"
       fill="#000000"
       fill-rule="evenodd"
       d="m 72.549163,153.49874 c -7.21606,0 -5.528896,16.2998 2.54558,11.4551 6.93413,-4.16047 -1.32993,-13.17987 -5.34572,-9.16407" />
    <path
       id="path42"
       fill="#000000"
       fill-rule="evenodd"
       d="m 80.949594,187.35501 c -6.8807,0 -6.66688,13.6128 0,10.946 4.50506,-1.80201 8.04664,-13.18742 0.50911,-9.41865" />
    <path
       id="path44"
       fill="#000000"
       fill-rule="evenodd"
       d="m 84.258848,224.7751 c 0,21.16668 10.9344,-0.50912 2.54558,-0.50912" />
    <path
       id="path46"
       fill="#000000"
       fill-rule="evenodd"
       d="m 88.840895,250.99462 c 0,4.02003 -4.21602,6.29657 -2.036463,11.2006 5.580303,12.5557 10.645973,-9.41869 1.527353,-9.41869" />
    <path
       id="path48"
       fill="#000000"
       fill-rule="evenodd"
       d="m 91.080013,297.00002 c -7.54469,3.77234 4.46286,10.29712 7.92,6.84002 6.179197,-6.17919 -9,-18.796 -9,-7.20002" />
    <path
       id="path50"
       fill="#000000"
       fill-rule="evenodd"
       d="m 100.80001,337.32001 c -6.675144,0 -0.56086,10.62695 5.4,8.64005 2.76662,-0.9222 3.10542,-16.42544 -3.6,-9.72005" />
    <path
       id="path52"
       fill="#000000"
       fill-rule="evenodd"
       d="m 115.92001,363.24 c -8.29428,4.14714 3.97872,11.5013 7.92003,7.56 2.265,-2.26502 -2.36032,-10.08 -5.04003,-10.08 -2.25837,0 -3.97488,0.74975 -5.04001,2.88" />
    <path
       id="path54"
       fill="#000000"
       fill-rule="evenodd"
       d="m 132.48001,401.76001 c -3.526,0 -3.74376,13.15786 4.68,6.84 4.40319,-3.30243 0.0278,-12.62779 -3.6,-9" />
    <path
       id="path56"
       fill="#000000"
       fill-rule="evenodd"
       d="m 141.02538,435.80407 c -4.51702,0 7.63672,21.66708 7.63672,3.56378 0,-13.36202 -10.1823,-13.29519 -10.1823,-2.03643" />
    <path
       id="path58"
       fill="#000000"
       fill-rule="evenodd"
       d="m 157.82624,466.8602 c -3.06082,0 -2.54558,2.24603 -2.54558,4.58205 0,6.35252 14.05911,2.46622 11.70971,-4.58205 -2.88294,-8.64875 -11.70971,-1.70721 -11.70971,4.58205" />
  </g>
  <g
     inkscape:groupmode="layer"
     id="layer2"
     inkscape:label="Layer 2">
    <path
       id="path60"
       fill="none"
       stroke="#292c32"
       stroke-width="2.16"
       stroke-linecap="square"
       stroke-linejoin="bevel"
       d="m 93.24001,160.56001 h 0.72 l 0.36,-0.72 v -0.72 l 0.72,-2.16 v -1.08 l 0.36,-1.08 v -1.08 l 0.36,-1.08 v -1.44 l 0.36,-0.36 0.36,0.36 0.36,0.72 v 1.44 l 0.36,1.44 1.08,2.16 1.08,3.96 v 0.72 l 0.36,0.72 0.36,0.36 0.72,1.44 v 0.36 l 0.72,0.72 v 0.36" />
    <path
       id="shape19"
       fill="none"
       stroke="#292c32"
       stroke-width="2.16"
       stroke-linecap="square"
       stroke-linejoin="bevel"
       d="m 106.56001,164.16001 v 2.52 l 2.16,2.16 h 1.44 l 0.36,-0.36 v -1.44 l -1.08,-1.08 v -0.36 h -0.72" />
    <path
       id="shape20"
       fill="none"
       stroke="#292c32"
       stroke-width="2.16"
       stroke-linecap="square"
       stroke-linejoin="bevel"
       d="m 122.04001,158.04001 v -0.72 l 1.8,-3.6 0.72,-1.08 0.72,-0.72 h 0.72 l 0.72,0.72 0.72,1.08 0.72,2.52 0.72,1.44 v 0.72 l 0.72,2.16 v 0.72 l 0.36,0.36 v 0.36 -3.96 l 0.36,-0.72 0.36,-0.36 v -0.36 l 0.36,-0.36 h 0.36 l 1.08,0.72 0.72,1.08 0.36,1.44 0.36,0.72 0.36,1.08 v 1.8 -4.68 l 0.72,-0.72 h 1.08 l 1.44,1.44 v 0.72 l 0.36,1.08 v 0.72 l 0.36,0.36 v 0.72 l 0.36,0.36 v 0.36 l 0.36,0.36 h 2.52 l 1.44,-1.44 v -5.04 l -0.36,-0.72 -1.08,-1.08 h -1.8 l -0.36,0.36 v 3.24 l 1.8,1.8 1.08,0.72 1.44,0.72 h 0.72 l 0.72,0.36 h 1.08 l 0.72,-0.72 v -0.36 l 0.36,-0.36 v -1.8 l 0.36,-0.36" />
    <path
       id="shape21"
       fill="none"
       stroke="#292c32"
       stroke-width="2.16"
       stroke-linecap="square"
       stroke-linejoin="bevel"
       d="m 154.80001,156.96001 -0.36,-0.36 v -0.36 l -0.36,-1.08 v -1.44 l -0.36,-0.72 v -1.8 l 0.36,-0.72 h 3.24 l 2.52,2.52 0.72,1.44 v 0.72 l 0.72,-0.72 v -3.96 l -0.36,-0.36 v -0.36 l -0.72,-0.72 h 2.88 l 0.72,-0.36 1.8,-0.36 h 0.36 l 0.36,-0.36 0.72,-0.36 0.36,-0.36 -0.36,0.36 -0.36,1.08 -0.72,1.08 v 0.36 l -0.36,0.72 v 0.72 -4.68 l 0.72,-1.44 0.36,-1.08 0.72,-0.72 h 0.36 l 0.72,-0.36 h 4.68 l 0.72,0.36 0.36,0.72 v 1.08 l 0.36,0.72 v 5.4 l -0.36,0.72 -0.72,0.72 -2.16,0.72 h -3.24 l -1.08,-0.36 -1.08,-1.08 v -3.24 l 0.72,-0.72 h 3.96 l 0.72,0.36 h 3.96 l 0.72,-0.36 h 0.72 l 1.44,-0.72 0.36,-0.36 0.36,-1.08 0.36,-0.36 v -0.36 l 0.72,-1.44 1.08,-1.08 h 2.88 l 0.72,0.36 v 0.36 l 0.36,0.72 v 4.32 h 0.72 l 0.36,-0.36 0.36,-0.72 0.36,-1.08 0.36,-0.72 v -0.36 1.08 l 0.36,1.08 0.36,0.72 0.36,1.08 v 1.8 l 0.36,0.72 v 3.96 l -0.72,1.08 -0.72,0.36 h -0.36 l -0.36,0.36 h -0.72 l -0.36,0.36 h -0.72 l -0.72,-0.36 -0.36,-0.72 v -4.32 l 0.36,-1.08 0.72,-0.72 1.08,-0.72 2.16,-1.08 2.88,-1.08 1.44,-0.36 0.72,-0.72 0.72,-0.36 h 0.36 v -0.36" />
    <path
       id="shape22"
       fill="none"
       stroke="#292c32"
       stroke-width="2.16"
       stroke-linecap="square"
       stroke-linejoin="bevel"
       d="m 202.32002,146.52001 -0.36,-0.36 v -2.88 l 0.72,-1.08 0.72,-0.72 0.72,1.44 v 1.08 l 0.36,1.08 v 1.08 l 0.36,0.72 0.36,0.36 h 1.44 l 1.08,-1.08 v -1.8 0.36 l 1.08,1.44 0.36,0.36 1.8,2.52 0.36,0.72 0.36,0.36 0.36,0.72 v 3.24 l -2.16,2.16 h -0.36 v -1.08 l 0.36,-0.72 0.72,-1.08 0.36,-1.08 1.8,-3.6 0.72,-0.72 0.72,-1.08 0.72,-0.72 0.36,-0.72 0.72,-1.08 0.36,-0.36 v -0.72 l 0.36,-0.72 v -0.72" />
    <path
       id="shape23"
       fill="none"
       stroke="#292c32"
       stroke-width="2.16"
       stroke-linecap="square"
       stroke-linejoin="bevel"
       d="m 101.16001,196.92 h -1.08 l -0.360004,-0.36 -0.36,-0.72 V 189 l 0.36,-1.08 0.360004,-0.36 0.36,-0.72 0.36,-0.36 h 0.36 l 0.36,-0.36 h 1.8 l 1.08,0.72 1.44,1.44 0.36,0.72 0.36,0.36 0.36,0.72 v 2.16 l -0.72,0.72 -0.72,0.36 h -3.6 l -0.72,-0.36 v -0.36 l -0.36,-1.08 -0.36,-0.72 -0.36,-1.08 v -5.4 l 0.36,-0.36 h 3.96 l 1.08,0.72 0.36,0.36 1.08,0.72 0.36,0.72 0.72,0.72 v 0.72 l 0.72,0.72 v -3.96 l -0.36,-1.08 -0.36,-0.72 -0.36,-1.08 -0.72,-1.44 v -0.72 l -0.36,-0.72 v -5.4 1.08 l 1.08,3.24 0.36,1.8 0.36,0.72 0.72,2.16 v 0.72 l 0.36,1.8 0.36,1.08 1.08,2.52 0.36,0.36 0.36,1.08 0.36,0.36 0.36,0.72 2.88,2.88 h 0.72 l 0.36,0.36 h 0.72 l 0.36,0.36 h 4.32 l 1.08,-0.36 0.72,-0.72 2.16,-1.44 1.08,-1.08 0.36,-1.08 v -3.6 l -1.44,-1.44 h -5.4 l -1.08,0.36 -0.36,0.36 v 0.72 l -0.36,0.72 v 2.52 l 0.72,1.08 1.08,1.08 1.08,0.72 0.72,0.36 0.36,0.36 h 1.8 l 1.08,-0.72 0.36,-0.72 0.72,-0.72 0.36,-0.72 v -0.36 l 0.36,-0.36 V 189" />
    <path
       id="shape24"
       fill="none"
       stroke="#292c32"
       stroke-width="2.16"
       stroke-linecap="square"
       stroke-linejoin="bevel"
       d="m 136.08001,192.24 v -0.36 l 0.36,-0.72 0.72,-0.36 0.72,-0.72 0.72,-0.36 1.44,-1.44 1.44,-1.08 0.72,-1.08 0.36,-0.72 0.72,-1.08 0.72,-3.96 v -6.48 l -1.8,-1.8 h -1.44 l -0.72,0.36 -0.72,0.72 -0.72,2.16 v 7.2 l 0.72,1.44 1.08,1.08 1.08,0.72 0.72,0.36 h 3.96 l 1.08,-0.36 0.36,-0.36 v -0.36 l 0.36,-0.36 0.36,-1.08 0.72,-1.44 0.72,-0.72 0.36,-0.72 1.44,-1.44 h 2.16 l 0.36,0.36 0.36,0.72 v 5.4 l -0.72,0.72 h -0.36 l -0.36,0.36 h -3.96 l -2.16,-2.16 -0.36,-0.72 V 180 l 1.8,-1.8 h 0.72 l 0.72,-0.36 h 0.36 l 0.36,-0.36 h 1.44 l 1.44,0.72 h 0.36 l 1.8,1.8 0.72,1.08 0.36,0.72 v 0.36 l 0.36,0.36 v 0.72 l 0.36,0.36 0.36,0.72 0.36,0.36 h 0.36 l 0.36,0.36 h 0.36 l 0.72,-0.72 1.08,-2.16 v -4.32 l -0.36,-0.36 0.36,1.08 0.36,0.72 0.72,0.72 0.72,1.08 0.36,0.72 v 1.08 l 0.36,0.72 v 1.08 l -0.36,1.08 -1.44,1.44 h -0.72 l -0.72,0.36 h -3.96 l -1.08,-0.36 -0.36,-0.36 0.36,-0.36 0.72,-0.36 1.08,-0.36 8.28,-1.8 h 1.8 l 2.16,-0.72 0.36,-0.36" />
    <path
       id="shape25"
       fill="none"
       stroke="#292c32"
       stroke-width="2.16"
       stroke-linecap="square"
       stroke-linejoin="bevel"
       d="m 185.40001,177.48 v -2.52 l -0.72,-1.8 v -1.44 l -0.36,-1.08 v -3.6 l 0.36,-0.36 0.72,0.36 1.08,1.08 1.8,2.88 1.44,3.96 1.08,1.08 0.72,1.44 0.72,2.16 0.36,0.72 0.72,1.08 0.72,1.44 0.36,1.08 v 0.36 l 0.36,0.36" />
    <path
       id="shape26"
       fill="none"
       stroke="#292c32"
       stroke-width="2.16"
       stroke-linecap="square"
       stroke-linejoin="bevel"
       d="m 187.20001,166.68 v -0.36 h 9.72 l 1.08,0.36 0.72,0.72 v 1.44 l -0.72,1.44 -0.36,1.08 -0.72,0.72 -1.08,2.16 -1.8,1.44 -0.72,1.08 -1.44,1.44 -1.08,0.72 -0.72,0.72 h -0.36 l -0.36,0.36 1.08,0.36 0.72,0.36 1.8,0.36 h 1.44 l 1.8,0.36 h 3.96 l 1.44,-1.44 1.44,-0.72 h 0.72 l 0.36,-0.36 h 0.72" />
    <path
       id="shape27"
       fill="none"
       stroke="#292c32"
       stroke-width="2.16"
       stroke-linecap="square"
       stroke-linejoin="bevel"
       d="m 207.36001,166.32 h 9 l 0.36,0.36 h 0.36 v 0.36 l -0.72,1.08 -1.08,1.08 -1.08,0.72 -1.44,0.72 -1.44,1.44 -1.44,0.72 h -0.36 2.16 l 1.8,0.36 h 0.72 l 1.08,0.36 h 1.08 l 0.36,0.36 v 5.04 l -1.8,1.8 -0.72,0.36 h -0.36 l -0.72,0.36 h -0.36" />
    <path
       id="shape28"
       fill="none"
       stroke="#292c32"
       stroke-width="2.16"
       stroke-linecap="square"
       stroke-linejoin="bevel"
       d="m 221.40001,169.56 -0.72,0.72 v 1.44 l -0.36,0.72 v 1.44 l 0.36,0.72 0.72,0.72 h 3.24 l 2.16,-2.16 v -0.36 l 0.72,-1.44 v -2.88 l -0.72,-0.72 h -2.88 l -0.72,0.36 h -0.72 l -0.72,0.36 h -0.36 l -0.36,0.36 h -0.36 l -1.08,1.08 v 2.88 l 0.36,0.72 1.08,1.08 h 1.08" />
    <path
       id="shape29"
       fill="none"
       stroke="#292c32"
       stroke-width="2.16"
       stroke-linecap="square"
       stroke-linejoin="bevel"
       d="m 203.76001,172.8 v -0.36 h 0.36 l 0.36,-0.36 -0.36,-0.36 h -0.36 l -1.44,1.44" />
    <path
       id="shape30"
       fill="none"
       stroke="#292c32"
       stroke-width="2.16"
       stroke-linecap="square"
       stroke-linejoin="bevel"
       d="m 207.00001,179.64 v 0.72 l -0.36,0.72 -1.08,1.08" />
    <path
       id="shape31"
       fill="none"
       stroke="#292c32"
       stroke-width="2.16"
       stroke-linecap="square"
       stroke-linejoin="bevel"
       d="m 235.08001,175.32 v 3.6 l 0.36,0.36 v 3.6" />
    <path
       id="shape32"
       fill="none"
       stroke="#292c32"
       stroke-width="2.16"
       stroke-linecap="square"
       stroke-linejoin="bevel"
       d="M 254.16001,174.24 V 171 l 0.72,-2.52 V 154.8 l -0.36,-0.72 -0.72,-0.72 -0.36,0.72 v 7.2 l 1.08,1.44 1.44,1.44 0.72,1.44 0.72,0.72 0.36,0.72 0.72,1.08 0.36,0.36 v 0.36 l 0.36,0.36 h 0.36 l 0.36,-0.72 0.36,-1.08 0.72,-1.44 v -0.36 l 0.36,-0.36 0.72,0.36 v 0.72 l 0.36,0.72 v 3.6 l -0.36,0.72 v -7.56 l 0.36,-0.36 h 1.8 l 1.8,1.8 0.72,1.08 1.8,1.8 1.44,0.72 0.72,0.72 1.08,0.72 0.72,0.36 h 0.72 l 0.72,-0.72" />
    <path
       id="shape33"
       fill="none"
       stroke="#292c32"
       stroke-width="2.16"
       stroke-linecap="square"
       stroke-linejoin="bevel"
       d="m 282.24001,164.88 v -4.32 l -0.72,-1.8 v -4.68 l 0.72,-1.08 0.36,-0.36 h 5.4 l 2.52,2.52 0.36,0.72 0.36,1.08 v 4.32 l -1.08,1.08 h -3.24 l -1.08,-0.36 -1.44,-1.08 -1.8,-1.8 -0.72,-1.8 -1.08,-1.08 -0.72,-2.88 v -1.8 l 0.36,-0.72 h 0.36 l 0.36,-0.36 h 0.36 l 0.36,0.36 0.72,0.36 1.44,1.44 2.16,1.44 1.8,1.8 1.44,2.16 0.36,0.36 0.36,0.72 1.08,1.08 h 5.76 l 1.08,-0.72 0.72,-0.72 1.08,-0.72 0.72,-1.08 v -6.12 l -0.36,-1.8 -0.72,-1.44 -1.44,-1.44 -1.8,-4.68 -0.72,-1.08 -1.08,-0.72 -0.72,-0.72 v 8.28 l 0.72,3.6 1.08,2.52 1.44,2.16 0.72,2.52 3.6,4.68 1.08,1.08 h 0.72 l 0.72,-1.08 0.36,-1.08 0.72,-1.08 0.36,-1.8 0.72,-2.52 v -1.44 l 0.36,-0.72 v -0.72 l 0.36,-0.36 h 3.6 l 0.72,0.36 1.08,0.36 0.72,0.72 v 1.08 l 0.36,1.08 v 6.12 l -0.36,0.36 -0.72,-0.36 -0.36,-0.72 -0.72,-1.08 -0.72,-1.44 v -0.72 l -0.36,-0.72 v -3.6 l 0.72,-0.72 0.36,-0.72 h 1.8 l 1.08,0.72 0.72,0.36 1.08,0.72 0.36,0.36 0.72,0.36 0.72,0.72 h 0.36 l 0.36,0.36 v -1.08 l 0.36,-1.08 v -5.04 l -0.36,-0.72 0.36,-0.36 0.72,-0.36 1.08,-0.36 2.16,-1.08 0.72,-0.72 v -0.36 3.24 l 0.36,1.08 0.72,0.72 0.36,1.08 0.72,0.72 0.36,0.72 0.36,-0.36 v -1.44 l 1.08,-3.24 v -0.72 l 1.44,-2.88 V 144 l 0.36,-0.36 1.08,0.72 0.72,1.44 0.72,1.08 0.72,2.16 v 0.36 l 0.36,0.72 v 0.36 l 0.36,0.36 v -2.52 l 0.36,-1.44 v -0.36 l 1.08,-1.08 0.36,0.36 0.36,1.08 0.36,0.72 0.36,1.08 0.36,0.72 v 1.08 l 0.36,0.36 0.36,-0.72 v -2.16 l 0.36,-1.08 1.44,-2.88 v -0.36 l 0.72,-0.72 h 1.08 l 0.72,0.72 0.72,0.36 h 1.08 l 0.72,-0.36 0.72,-0.72 0.72,-1.08 v -0.36 l 1.8,-1.8 h 0.72 l 0.36,0.36 v 4.32 l -1.8,1.8 h -1.08 l -0.36,-0.36 v -0.72 l 0.36,-1.44 0.36,-0.36 v -1.08 l 0.72,-0.72 v -0.36 l 0.72,-0.72 0.72,0.72 v 0.36" />
    <path
       id="shape34"
       fill="none"
       stroke="#292c32"
       stroke-width="2.16"
       stroke-linecap="square"
       stroke-linejoin="bevel"
       d="m 114.12001,234.36 h 2.52 l 1.8,-0.72 1.8,-1.08 2.16,-2.16 2.52,-1.44 2.16,-1.8 1.08,-1.44 1.08,-1.08 0.36,-1.08 0.36,-0.72 v -3.24 l -0.36,-0.72 -0.36,-0.36 h -0.72 l -0.72,0.36 -0.72,0.72 v 1.8 l -0.36,1.08 v 1.8 l 0.72,1.44 2.16,2.16 0.72,0.36 h 6.84 l 1.8,-0.72 1.8,-1.08 0.36,-0.36 1.08,-0.72 1.08,-1.08 v -3.96 1.44 l 1.8,3.96 0.36,1.08 0.36,0.72 v 1.8 l -0.72,0.72 h 0.36 l 1.08,-0.72 1.08,-1.44 3.96,-2.52 2.52,-2.52 0.36,-1.44 0.72,-1.44 0.36,-1.08 0.36,-2.16 0.72,-2.16 v -7.92 l -1.08,-1.44 -1.44,-3.6 v -0.36 l -0.72,-1.44 -0.36,-0.36 v 3.24 l 0.72,2.52 1.08,2.16 0.36,2.88 1.8,3.24 0.36,2.88 0.36,1.44 0.72,1.44 0.36,1.8 0.72,1.08 v 2.52 l 0.36,0.72 v 0.36 l 0.36,-0.36 0.36,-0.72 0.72,-2.16 0.72,-1.08 0.36,-0.72 0.36,-1.08 0.36,-0.72 0.36,-1.08 v -0.36 l 0.36,-0.36 v -0.36 l 0.72,-0.72 h 2.52 l 1.44,1.44 0.72,1.44 v 4.32 l -1.08,1.08 h -3.6 l -1.44,-1.44 v -5.04 l 1.44,-1.08 0.36,-0.72 0.72,-1.08 v -0.36 l 1.08,-1.08 h 3.24 l 2.16,1.08 1.08,0.72 0.72,0.72 2.16,1.44 1.8,1.8" />
    <path
       id="shape35"
       fill="none"
       stroke="#292c32"
       stroke-width="2.16"
       stroke-linecap="square"
       stroke-linejoin="bevel"
       d="m 140.40001,209.52 0.36,-0.72 0.72,-0.36 1.08,-0.36 h 3.6 l 2.88,-0.72 6.12,-0.72 2.88,-0.72 3.24,-0.36 2.16,-0.72 1.8,-0.36 1.44,-0.72 1.08,-0.36 0.72,-0.72" />
    <path
       id="shape36"
       fill="none"
       stroke="#292c32"
       stroke-width="2.16"
       stroke-linecap="square"
       stroke-linejoin="bevel"
       d="m 190.08001,217.8 h 4.68 l 2.16,-1.08 3.96,-1.08 1.44,-1.08 0.72,-0.36 1.08,-0.72 0.36,-1.08 v -4.32 l -1.44,-1.44 h -0.36 l -1.08,-0.36 h -1.08 l -0.72,0.36 -0.36,1.08 v 5.76 l 0.72,1.08 2.16,2.16 h 2.16 l 1.08,-0.72 0.72,-0.72 1.44,-2.88 0.36,-1.08 v -0.72 l 0.36,-0.72 v -0.36 l 0.36,-0.72 0.72,0.72 0.36,1.08 v 0.72 l 0.36,1.08 v 0.72 h 0.72 l 0.36,-1.08 0.36,-0.36 0.36,-1.08 0.36,-0.36 0.36,-0.72 0.36,-0.36 h 0.72 l 1.08,1.08 0.36,0.72 0.36,1.08 v 1.8 l 1.08,1.08 h 0.72 l 0.36,-0.72 0.72,-0.72 1.44,-1.08 1.44,-1.44 0.72,-1.44 0.72,-2.16 v -2.88 h 2.16 l 1.08,0.36 h 1.08 l 0.72,0.72 v 0.36 l -0.72,0.72 -1.44,1.08 -0.72,1.08 -0.72,0.72 -1.44,1.08 -0.36,0.72 -0.36,0.36 v 2.88 l 0.72,0.72 5.04,1.08 1.08,0.36 h 2.88 l 1.08,-0.36 1.08,-0.72 4.32,-4.32 0.72,-1.08 0.72,-2.16 0.36,-0.72 v -1.44 l -1.08,-0.36 h -0.72 l -0.72,0.36 -1.08,0.72 -0.36,0.36 -0.72,0.36 -1.08,0.72 -0.36,0.36 v 0.36 l -0.36,0.72 v 1.8 l 0.36,0.72 0.72,0.72 0.72,0.36 h 3.24 l 1.08,-0.72 1.44,-1.44 0.72,-1.08 0.36,-0.36 0.72,-1.08 0.36,-0.72 0.72,-1.08 0.72,-1.44 v 0.36 l 0.36,1.08 0.36,0.36 0.36,1.08 0.36,0.36 0.36,0.72 0.36,0.36 0.36,-1.08 v -1.08 l 0.36,-1.08 v -1.44 l 0.72,-1.44 1.44,-1.44 h 3.24 l 0.72,0.72 v 0.36 l 0.72,0.72 v 0.36 l 1.08,2.16 V 207 l 0.36,0.36 v 0.36 l 0.36,0.36 h 1.08 l 1.44,-1.44 0.72,-1.44 0.36,-0.36 0.36,-0.72 v -1.08 l 0.72,-1.44 0.72,-0.72 h 2.52 l 1.8,1.08 0.72,0.72 1.08,1.44 1.08,1.08 v 2.52 l -0.36,0.36 h -0.36 l -0.36,0.36 h -1.44 l -2.16,-1.08 -1.8,-1.8 -0.36,-0.72 v -5.4 l 0.72,-0.36 h 3.24 l 0.36,-1.08 -0.36,-0.72 -0.72,-2.52 -1.8,-3.24 -1.44,-1.8 -0.72,-2.52 -2.52,-3.96 -0.36,-0.72 -0.36,-1.08 -0.72,-1.44 1.08,1.08 1.08,1.8 2.16,2.52 3.6,5.04 1.44,2.52 1.44,1.8 0.36,1.8 1.08,1.08 0.36,1.44 0.72,1.08 0.36,0.36 0.72,1.08 1.8,1.8 h 0.72 l 0.72,-0.72 0.36,-0.72 v -1.08 l 0.36,-1.08 v -3.96 0.36 l 0.72,0.72 1.08,1.44 1.8,0.72 0.72,0.72 1.08,0.36 0.72,0.36 0.36,0.36 h 0.36 l 0.72,-1.44 v -8.64 l 0.36,-0.72 v -1.8 l 1.08,-1.08 h 4.32 l 1.08,0.72 1.08,1.44 1.44,1.44 0.72,1.08 0.72,1.44 0.36,0.36 v 1.44 l 0.36,0.36 v 1.08 l -0.36,0.36 -0.36,0.72 -0.36,0.36 h -3.96 l -0.72,-0.72 -0.72,-0.36 -1.44,-1.44 -0.72,-1.08 -0.72,-0.72 -0.36,-0.72 -0.36,-0.36 v -5.4 l 0.36,-0.72 0.36,-0.36 h 0.72 l 3.96,3.96 -0.36,-0.72 -0.72,-1.08 -0.72,-1.44 -1.08,-1.08 -1.08,-2.16 -2.88,-3.6 -3.24,-3.24 -1.08,-1.8 -1.44,-1.44 -0.36,-0.72 -0.36,-1.08 -0.36,-0.36 -0.36,-0.72 2.88,2.88 1.44,1.8 1.44,2.52 2.52,3.24 6.84,6.84 1.8,1.44 1.44,1.44 0.72,0.36 0.36,0.36 h 3.6 l 0.72,-0.72 1.08,-0.72 1.44,-1.44 v -0.72 l 0.72,-1.44 v -0.36 l 0.36,-0.36 v -0.36 l 1.44,-1.44 h 6.12 l 3.96,1.8 1.8,1.44 1.08,0.36 1.44,1.08 1.8,1.8 0.36,1.08 0.36,0.72 v 0.72 l 0.36,0.72 v 0.72 l -0.36,0.72 -0.72,0.36 h -7.92 l -2.16,-0.36 -1.08,-1.08 -1.8,-0.72 -1.44,-1.44 -0.72,-0.36 -0.36,-0.36 -0.36,-0.72 v -5.4 l 1.8,-1.8 h 2.52 l 1.44,1.08 1.8,1.08 3.96,1.8 1.8,0.36 1.08,0.72 h 3.6 l 1.44,-0.72 0.36,-0.36 h 0.36 l 0.36,-0.36 0.72,-0.36" />
    <path
       id="shape37"
       fill="none"
       stroke="#292c32"
       stroke-width="2.16"
       stroke-linecap="square"
       stroke-linejoin="bevel"
       d="m 330.48001,188.64 v -0.36 h 1.08 l 0.72,0.36 0.72,-0.36 0.36,-0.36 0.36,-0.72 v -0.72 l -0.36,-0.36 -0.36,0.72 v 0.36 l -0.36,0.72 -0.72,0.72 v 2.52 l 0.72,0.36 h 2.16" />
    <path
       id="shape38"
       fill="none"
       stroke="#292c32"
       stroke-width="2.16"
       stroke-linecap="square"
       stroke-linejoin="bevel"
       d="m 120.15159,292.74219 -0.25456,-0.25455 v -0.50912 l 0.25456,-0.76368 0.50912,-0.50911 1.27279,-1.01824 2.29102,-2.29102 1.2728,-0.76368 3.30926,-1.27279 h 2.54555 l 0.5091,0.25456 0.5092,0.50911 2.5455,5.60029 v 4.83664 l -0.5091,1.0182 -0.5091,0.5091 -1.0182,1.2728 -0.7637,0.7637 -3.30925,2.5456 -1.52736,1.5273 0.50912,0.5091 h 0.25456 l 1.01823,1.0183 3.8184,1.5273 h 4.582 l 1.0183,-1.0182 0.5091,-0.2546 1.2728,-1.2728 1.0182,-1.2728 0.7637,-0.5091 1.0182,-1.0182 -0.5091,0.7637" />
    <path
       id="shape39"
       fill="none"
       stroke="#292c32"
       stroke-width="2.16"
       stroke-linecap="square"
       stroke-linejoin="bevel"
       d="m 147.38934,303.43365 h -0.76368 0.76368 l 0.50911,-0.50912 v -1.01823 l -0.25456,-0.25456" />
    <path
       id="shape40"
       fill="none"
       stroke="#292c32"
       stroke-width="2.16"
       stroke-linecap="square"
       stroke-linejoin="bevel"
       d="m 155.53521,279.50516 h 1.27279 l 0.76368,0.25456 h 1.52735 l 0.50911,0.25456 1.52736,1.52735 0.50911,1.01823 0.50912,0.50912 0.50912,0.76367 1.27279,2.54559 0.25456,1.01823 0.50911,0.76368 0.25456,0.76367 0.25456,0.50912 0.50908,0.76372 0.7637,1.5273 0.2546,0.7637 v 0.5091 l 0.5091,0.5091 0.2545,0.7637 v 0.2545 l 0.2546,0.2546 0.2546,0.5091 v 0.5091 l -0.7637,-1.5273 -0.5091,-2.8002 v -1.5273 l -0.5091,-2.29103 v -2.03647 l 0.2545,-0.50911 0.5091,-0.50912 h 1.0183 l 0.5091,0.25456 3.0547,3.0547 0.5091,0.76367 2.5456,2.5456 1.0182,0.5091 0.2546,0.2546 h 0.2545 l 0.5091,0.2545 0.2546,-0.7637 v -3.81833 l -0.2546,-0.50912 v -0.25456 l -0.2545,-0.25455 v -0.76368 l 0.5091,-0.25456 0.7637,0.25456 0.5091,0.50912 0.7637,0.25456 2.5456,2.54558 v 2.03648 l -1.2728,1.2728 -0.5091,0.7637 -0.2546,0.2545 -0.5091,0.2546 -0.7637,0.2545 -0.2546,0.2546 h -1.2728 l -0.5091,-0.5091 v -0.2546 l -0.2545,-0.5091 v -2.5456 l 0.2545,-0.2545 h 14.7644 l 0.7637,-0.2546 h 0.2546" />
    <path
       id="shape41"
       fill="none"
       stroke="#292c32"
       stroke-width="2.16"
       stroke-linecap="square"
       stroke-linejoin="bevel"
       d="m 198.04646,286.63275 v -1.0182 l -0.50911,-1.0182 v -4.073 l 0.25456,-0.5091 0.76367,-0.7637 h 2.03647 l 0.50912,0.2546 1.27279,1.2728 0.25456,0.5091 0.25456,0.7637 0.25455,0.5091 v 0.5091 l 0.25456,0.2546 v 1.2728 l -0.25456,0.5091 h -0.25455 l -0.76368,0.2546 h -3.81838 l -0.50911,-0.5092 -0.50912,-0.2545 v -3.0547 l 1.52735,-2.2911 1.27279,-1.2727 h 0.76368 l 0.76367,0.5091 0.25456,0.2545 0.76368,0.5091 1.01823,1.0183 0.50912,1.0182 0.76367,0.7637 0.76368,0.5091 0.50912,0.2546 h 2.29105 l 1.0182,-1.0183 0.7637,-0.5091 2.8001,-3.8184 0.5091,-1.0182 v -1.2728 l 0.2546,-1.0182 v -6.61854 l -0.7637,-1.27279 -1.0182,-0.76368 -0.7637,-1.27279 -1.7819,-1.78191 -1.0182,-0.50912 -0.7637,-0.50911 -0.76368,-0.25456 h -1.01823 l -0.25456,0.25456 v 5.60028 l 0.76367,2.03647 3.0547,4.07289 0.7637,1.5274 1.0182,0.7637 0.7637,1.0182 1.0182,0.7637 1.2728,1.2728 h 2.0365 l 1.2728,-1.2728 0.5091,-0.7637 0.2545,-0.2546 0.7637,-1.5273 v -2.0365 h 0.5091 l 0.2546,0.2546 h 1.7819 l 0.5091,-0.2546 1.0183,-1.0182 0.2545,-0.50912 0.2546,-0.25456 0.2545,-0.76367 v -1.78191 0.50911 l 0.5092,0.25456 0.2545,0.25456 0.7637,0.50912 0.2545,0.25456 0.7637,0.25455 0.2546,0.25456 h 0.7637 l 0.5091,-0.50911 v -0.25456 l 0.2545,-0.76368 0.2546,-0.50912 v -0.50911 l 0.2545,-0.76368 v -1.52735 0.25456 l 0.5092,0.50912 0.2545,0.50911 v 0.50912 l 0.5091,0.50912 0.2546,0.50911 2.291,2.29103 h 1.2728 l 0.5091,-0.25456 0.7637,-0.76367 0.5091,-1.01824 0.2546,-0.76367 v -2.54559 0.50912 l 0.5091,1.01823 0.2546,0.76368 1.0182,2.03647 0.5091,1.78191 0.2546,0.5091 v 0.2546 h 1.2728 l 1.5273,-0.7637 1.0182,-0.76368 2.8002,-1.52735 1.2728,-1.01823 1.0182,-1.01824 v -0.25456 l 0.2546,-0.50911 V 265.759 l 0.2545,-0.76367 v -1.01824 l -0.2545,-0.25456 -2.2911,2.29103 v 0.25456 l -0.2545,0.50912 v 2.80014 l 0.7637,0.76367 1.0182,0.50912 0.7637,0.25456 h 2.8001 l 0.5091,-0.25456 0.2546,-0.25456 0.2545,-0.50911 v -0.50912" />
    <path
       id="shape42"
       fill="none"
       stroke="#292c32"
       stroke-width="2.16"
       stroke-linecap="square"
       stroke-linejoin="bevel"
       d="m 257.35858,264.48626 v -3.3093 l 0.50912,-1.5274 v -0.2545 l 0.25456,-0.7637 0.25456,-0.2545 0.25456,-0.5092 0.50911,-0.7636 0.25456,-0.5092 0.25456,-0.2545 h 3.81838 l 0.50911,0.2545 1.01824,1.0183 v 1.7819 l -0.25456,0.5091 h -3.30926 l -0.50912,-0.2546 -0.25456,-0.2545 v -2.0365 l 0.25456,-0.2545 v -0.5092 l 0.25456,-0.2545 v -0.2546 l 0.25456,-0.2545 0.25456,-0.5091 0.50911,-0.5092 h 2.29103 l 0.25456,0.2546 h 0.25456 l 0.25456,0.2546 v -0.7637 l -1.01824,-1.0183 -0.25456,-0.7636 -1.01823,-1.52738 -0.50912,-1.52735 -2.80014,-3.56382 -0.76368,-0.76367 -1.78191,-2.54559 -0.50911,-1.01823 -0.25456,-0.25456 0.25456,0.25456 0.25456,0.76367 v 0.25456 l 1.01823,1.27279 0.50912,1.01824 0.50911,0.76367 1.01824,1.01824 0.76367,1.27279 3.81838,4.83658 1.01823,0.7637 0.50912,0.5091 0.76368,1.0183 1.0182,1.0182 0.5091,0.2545 0.7637,0.5092 1.0183,0.5091 0.7636,0.2545 h 2.8002 l 1.2728,-1.2728 v -0.5091 l 0.2545,-0.5091 v -2.5456 l -0.2545,-0.5091 -0.7637,-0.7637 h -0.7637 v 1.0183 l 0.2546,0.5091 1.7819,1.7819 h 0.2545 l 0.5092,-0.2546 1.0182,-1.0182 v -0.2546 l 0.2546,-0.2545 v -0.2546 l 0.2545,-0.2545" />
    <path
       id="shape43"
       fill="none"
       stroke="#292c32"
       stroke-width="2.16"
       stroke-linecap="square"
       stroke-linejoin="bevel"
       d="m 287.9056,249.97641 v -0.7637 l -0.25456,-1.0182 -0.76367,-1.5274 -0.25456,-0.7637 -1.52735,-3.30922 -1.01824,-1.01824 -0.50911,-1.52735 -1.52735,-3.30926 -0.25456,-0.76367 -0.25456,-0.25456 1.01823,2.03647 1.2728,1.27279 1.52735,2.29103 0.76367,1.52735 0.76368,0.50911 0.50911,0.76368 0.50912,1.01823 1.27279,1.27284 0.25456,0.5091 0.76368,0.7636 h 0.25456 l 0.50911,-0.2545 0.50912,-1.0182 0.25452,-0.76372 v -4.58205 l 3.8184,3.81837 0.7637,0.50912 0.7637,0.76368 h 0.2545 l 0.5091,0.2546 h 1.2728 l 0.7637,-0.76372 v -1.27279" />
    <path
       id="shape44"
       fill="none"
       stroke="#292c32"
       stroke-width="2.16"
       stroke-linecap="square"
       stroke-linejoin="bevel"
       d="m 278.48694,242.84875 0.25456,-0.25456 1.52735,-0.76367 2.80014,-1.78191 0.50912,-0.25456 0.50912,-0.50912 1.7819,-0.76367 0.25456,-0.25456" />
    <path
       id="shape45"
       fill="none"
       stroke="#292c32"
       stroke-width="2.16"
       stroke-linecap="square"
       stroke-linejoin="bevel"
       d="m 290.19662,238.2667 v -0.76368 l 0.25456,-0.25456 v -0.76367 l 0.25456,-0.25456" />
    <path
       id="shape46"
       fill="none"
       stroke="#292c32"
       stroke-width="2.16"
       stroke-linecap="square"
       stroke-linejoin="bevel"
       d="m 307.50659,241.83056 v -1.2728 l -0.50911,-1.0183 -0.25456,-0.2545 -0.76368,-1.0183 -0.76367,-1.5273 -0.25456,-0.7637 v -2.291 l 0.50912,-0.5091 h 3.0547 l 0.76367,0.2545 0.50912,0.5091 0.50912,0.2546 0.25456,0.2546 0.76367,0.5091 1.52735,1.5273 v 0.2546 l 0.50912,0.5091 -0.25456,-0.2546 -0.50912,-1.5273 -0.50911,-1.0182 v -2.0365 l 0.50911,-0.5091 h 0.76368 l 1.01823,0.5091 0.76364,0.2545 0.2546,0.2546 0.5091,0.2546 0.5091,0.5091 0.5091,0.2545 v 0.2546 l 0.2546,0.2546 v 0.2545 l 0.2546,0.2546 v 0.7637 -0.2546 l -0.5092,-0.5091 v -0.7637 l -0.2545,-1.0182 v -0.7637 l 0.2545,-0.5091 v -0.2546 l 0.5092,-0.5091 h 0.5091 l 0.5091,0.2546 0.7637,0.7636 0.2545,0.7637 0.7637,0.7637 0.2546,0.5091 0.5091,0.5091 0.2545,0.5091 h 0.2546 l 0.2546,0.2546 0.7636,-0.7637 v -0.2545 l 0.2546,-0.5092 0.2545,-0.7636 v -2.5456 l 0.7637,1.0182 1.0183,1.0182 0.7636,0.5092 0.5092,0.2545 0.7636,0.2546 0.5091,0.2545 h 1.782 l 0.5091,-0.2545 0.7636,-0.7637 0.2546,-0.5091 0.5091,-0.7637 0.7637,-1.5273 v -2.8002 l -0.5091,-0.7637 -0.5091,-0.5091 h -2.0365 l -0.5091,0.5091 v 1.782 l 0.2545,0.7636 0.2546,0.2546 0.5091,0.7637 0.2546,0.5091 2.0364,2.0364 h 2.8002 l 0.5091,-0.2545 0.5091,-0.5091 0.2546,-0.5091 0.5091,-0.7637 0.5091,-0.5091 0.5091,0.2545 0.2546,0.5091 0.5091,0.7637 0.2546,0.5091 0.2545,0.7637 0.2546,0.2546 0.2545,0.7636 v -2.0364 l 0.2546,-1.2728 0.2545,-0.5091 v -0.5092 l 0.2546,-0.2545 0.5091,0.2545 0.5091,1.0183 v 0.2545 l 0.2546,0.5092 v 0.2545 l 0.2546,0.2546 v 0.2545 l 0.5091,-0.2545 0.2545,-0.5091 v -0.2546 l 0.2546,-1.0182 v -0.5092 l 0.5091,-1.7819 v -6.36392 l -0.5091,-1.27279 v -0.76368 l -0.5091,-0.76368 v -0.50911 l -0.2546,-0.76368 -0.2545,-0.50911 v -0.50912 l -0.2546,-0.76368 v -1.01823 0.76367 l 0.2546,1.2728 0.7636,2.29102 0.2546,2.54559 2.8001,7.89132 0.7637,0.7637 h 0.2546 l 0.5091,-0.2546 0.7637,-0.7637 v -0.7636 l 0.2545,-0.5092 v -3.56378 l 0.2546,-0.25456 v -0.25456 h 0.2545 v 0.50912 l 0.5092,1.01828 v 0.5091 l 0.2545,0.5091 v 0.5091 l 0.2546,0.2546 0.2545,0.5091 0.5091,0.5091 0.5092,-0.5091 v -1.7819 l 0.2545,-0.2546 v -1.52734 l 0.7637,-0.76367 h 0.2546 l 0.5091,-0.25456 h 1.0182 l 0.5091,0.50912 v 3.05465 l -0.2545,0.2546 v -3.0547 l 0.2545,-0.25455 h 0.5091 l 0.7637,0.50911 0.7637,0.76364 h 0.5091 l 0.2546,0.2546 h 0.2545 l 0.5091,-0.50912 v -3.30926 l -0.2545,-0.25456 -0.2546,-0.50912 v 0.76368 l 0.5091,1.01823 v 1.2728 l 0.5092,1.01823 v 0.50912 l 0.2545,0.7637 0.2546,0.5091 v 1.0182 l -0.2546,0.5091 -0.5091,0.5092 0.5091,-0.2546 v -0.2546 l 0.5091,-0.2545 h 0.2546" />
    <path
       id="shape47"
       fill="none"
       stroke="#292c32"
       stroke-width="2.16"
       stroke-linecap="square"
       stroke-linejoin="bevel"
       d="m 337.28993,221.97496 v -0.25456 l 0.50912,-0.50912 0.76367,-0.25455 0.76368,-0.50912 1.52735,-0.76368 0.25456,-0.25455 0.50911,-0.25456 0.25456,-0.25456 0.76368,-0.25456 1.27279,-1.27279 h 0.25456 l 0.25456,-0.25456" />
    <path
       id="shape48"
       fill="none"
       stroke="#292c32"
       stroke-width="2.16"
       stroke-linecap="square"
       stroke-linejoin="bevel"
       d="m 321.84002,225.36001 h -0.72" />
    <path
       id="shape49"
       fill="none"
       stroke="#292c32"
       stroke-width="2.16"
       stroke-linecap="square"
       stroke-linejoin="bevel"
       d="m 273.60001,190.08001 -0.72,-0.72" />
    <path
       id="shape50"
       fill="none"
       stroke="#292c32"
       stroke-width="2.16"
       stroke-linecap="square"
       stroke-linejoin="bevel"
       d="m 144.08009,341.61741 h -0.25456 0.50912 l 1.01823,-1.0182 0.25456,-0.5091 0.25456,-0.7637 0.25456,-0.5091 v -0.7637 l 0.25455,-0.7637 v -4.3275 l -0.50911,-0.5091 h -0.50912 l -1.27279,1.2728 v 0.2546 l -0.25456,0.5091 0.25456,0.5091 0.25456,0.2546 0.25455,0.5091 1.78191,1.7819 h 0.50912 l 0.76368,0.2545 h 3.81837 l 0.76368,-0.2545 0.25456,-0.2546 1.01823,-0.7637 0.50908,-0.2545 1.0183,-1.0182 v -0.2546 l 0.2545,-0.5091 v -3.8184 l -0.2545,-0.7637 -0.7637,-1.5273 -0.2546,-0.2546 0.5092,0.5091 0.7636,0.5092 0.7637,0.7636 0.7637,1.2728 1.0182,0.5091 1.0182,1.0183 v 0.5091 l 0.2546,0.5091 v 0.5091 l -0.5091,1.0183 -0.2546,0.7636 -0.2545,0.2546 v 0.2545 l -0.2546,0.5092 -0.2545,0.2545 h 0.7636 l 3.8184,-1.7819 2.0365,-1.5273 1.0182,-1.2728 1.2728,-5.3458 v -5.3457 l -0.7637,-1.7819 -1.0182,-5.0912 -0.7637,-1.0182 v -1.01823 l -0.5091,-0.76368 v -0.76367 l -0.2546,-0.76368 -0.2545,-0.50911 v -0.25456 l -0.2546,-0.25456 v 0.76368 l 0.7637,1.01823 1.7819,3.81838 3.0547,6.6185 1.7819,3.8184 0.7637,2.5456 0.5091,1.0182 1.0182,1.5274 1.2728,1.2728 0.5092,0.2545 0.2545,0.2546 h 0.2546 l 0.5091,-0.5091 0.5091,-1.0183 1.0182,-4.582 v -6.6186 l 0.2546,-0.2545 0.2546,-0.5091 0.5091,-0.2546 h 4.0729 l 0.5091,0.2546 0.7637,0.7636 0.2546,0.5092 0.2545,0.7636 v 3.5639 l -0.2545,0.7636 -0.2546,0.5092 -0.5091,0.5091 -0.2546,0.5091 -0.7637,0.7637 h -0.5091 l -1.5273,-1.5274 -0.5091,-1.0182 -1.0183,-1.2728 -1.2728,-2.8002 -0.2545,-0.7636 v -3.3093 l 1.0182,-1.0182 h 0.2546 l 0.2545,-0.2546 h 1.5274 l 0.7637,0.2546 1.2727,1.2728 0.7637,1.5273 0.2546,0.7637 0.5091,1.0182 0.5091,0.5091 0.5091,0.7637 0.7637,0.7637 0.5091,0.2545 0.2546,0.2546 h 0.2545 l 0.2546,0.2546 h 0.2546 l 1.0182,0.5091 h 3.5638 l 0.7637,-0.5091 0.7637,-0.7637 0.5091,-1.7819 V 313.616 l -0.2546,-0.76368 -0.2545,-1.27279 -0.7637,-1.52735 -0.5091,-2.29103 -0.5091,-0.76367 -0.5092,-1.01824 -0.5091,-0.76367 -0.2545,-0.25456 h -0.5092 l -0.5091,0.50912 -0.2545,1.52735 -0.7637,1.52735 v 4.32749 l 0.5091,1.52735 1.2728,2.29104 1.7819,2.291 0.7637,0.5091 1.0182,1.0183 0.7637,0.5091 h 1.0182 l 0.5091,-0.5091 0.2546,-0.5092 v -1.0182 l 0.2546,-0.7637 v -4.0729 l -0.2546,-0.25455 V 313.616 l 0.2546,-0.25456 h 2.5455 l 1.5274,-0.50912 0.7637,-0.50912 0.5091,-0.50911 v -0.50912 l -1.2728,2.54559 v 1.01823 l -0.2546,0.76372 v 1.0182 l -0.2545,0.5091 v 1.0182 l 0.2545,0.5092 v 0.2545 -1.7819 l 0.2546,-1.0182 0.5091,-1.27282 v -1.01823 l 0.7637,-2.29103 v -0.25456 l 1.0182,-1.01823 h 0.7637 l 0.5091,-0.25456 h 3.0547 l 0.5091,0.25456 0.2546,0.25456 0.2546,0.50911 0.7636,2.29103 v 3.56377 l -0.2545,0.7637 -0.2546,0.2546 -0.5091,0.2545 -0.7637,0.2546 -0.5091,0.2546 h -2.0365 l -0.7636,-0.5092 -1.5274,-1.5273 v -1.2728 l -0.2546,-0.76368 v -3.30926 l 0.5092,-0.76367 2.0364,-2.03647 0.7637,-0.25456 0.5091,-0.25456 h 2.2911 l 1.2727,1.27279 v 0.50912 l 0.5092,1.01823 v 0.50912 l 0.2545,0.76368 0.2546,0.50911 0.2545,0.76368 0.5092,0.50912 v 0.25455 l 0.2545,0.25456 h 0.5091 l 0.5091,-0.25456 0.7637,-0.76367 0.2546,-0.50912 0.2545,-0.76367 v -2.80015 l -0.2545,-0.50911 -0.2546,-0.25456 v 0.25456 l 0.2546,0.76367 0.7637,0.76368 0.2545,0.50911 0.5091,0.76368 0.7637,1.52735 0.5091,1.52735 v 2.29098 l -0.7637,0.7637 h -1.7819 l -0.2545,-0.5091 1.2728,-1.2728 4.3275,-1.01822 5.0911,-2.54559 0.5092,-0.50911 h 0.2545" />
    <path
       id="shape51"
       fill="none"
       stroke="#292c32"
       stroke-width="2.16"
       stroke-linecap="square"
       stroke-linejoin="bevel"
       d="m 158.0808,316.92526 v -0.25456 l 0.76367,-0.76368 4.58206,-2.54558 7.38217,-3.0547 1.0183,-0.76368 1.0182,-0.25456 0.7637,-0.50911 0.2545,-0.25456" />
    <path
       id="shape52"
       fill="none"
       stroke="#292c32"
       stroke-width="2.16"
       stroke-linecap="square"
       stroke-linejoin="bevel"
       d="m 231.13907,311.32493 h 0.76367 l 0.50912,-0.2545 0.25456,-0.2546 0.50912,-1.5273 v -5.0912 l -0.50912,-1.0182 -1.52735,-1.5274 v 0.5091 l 0.25456,0.7637 0.25456,0.5091 0.50911,2.0365 0.50912,0.7637 0.25456,0.2545 0.50912,0.7637 1.52735,1.5274 h 1.01823 l 0.25456,-0.2546 0.50912,-1.0182 v -0.2546 l 0.25455,-0.5091 v -0.5091 l 0.25456,-0.7637 v -4.3275 l 0.25456,-0.2545 h 0.50912 l 0.76367,0.5091 1.01824,1.0182 1.27279,1.7819 0.50912,1.7819 v 1.0183 l 0.2546,0.2545 v -1.0182 l -1.01828,-3.3093 v -0.7637 l -0.25456,-0.7636 v -0.5091 l -0.25456,-0.5092 v -1.2728 l 0.25456,-0.2545 h 0.76364 l 0.5092,0.2545 0.5091,0.5092 0.7636,0.5091 1.5274,1.5273 0.2546,0.5091 v 0.2546 l 0.2545,0.2546 v 0.2545 l 0.5091,0.5091 h 0.7637 l 1.0182,-1.0182 0.5092,-1.0182 0.5091,-1.5274 0.2545,-0.5091 v -0.7637 l 0.2546,-0.7637 0.2545,-0.5091 0.5092,-1.5273 v -0.2546 l 0.2545,-0.2545 0.5091,-1.0183 0.2546,-0.2545 0.5091,-0.2546 h 0.7637 l 0.5091,-0.2545 h 3.8184 l -1.5274,0.5091 -0.5091,0.2545 -0.7637,0.5091 -0.5091,0.5092 -0.7636,0.5091 -1.2728,1.2728 v 0.2545 l -0.2546,0.2546 v 1.5273 l 0.5091,0.5092 0.2546,0.5091 0.2545,0.7637 1.0183,1.0182 0.7636,0.5091 h 0.5092 l 0.5091,0.2546 h 2.0364 l 1.5274,-1.5274 0.2546,-0.5091 1.0182,-3.8184 0.2545,-0.7637 0.5092,-1.0182 v -1.0182 l 0.7636,-1.0183 0.2546,-0.5091 0.2546,-0.7637 0.5091,-0.7636 0.2545,-0.5091 0.5091,-0.5092 0.2546,-0.5091 0.2546,-0.2545 v -0.2546 l 0.5091,-0.5091 h 0.2545 l 0.7637,0.2545 1.0182,1.0183 v 0.5091 l 0.2546,0.5091 v 2.5456 l -0.5091,0.5091 -0.2546,0.5091 -1.2728,1.2728 -0.7636,0.5091 -0.2546,0.2546 -0.5091,0.2546 h -0.2546 l -0.2545,0.2545 -0.5091,-0.5091 v -2.5456 l 0.5091,-0.5091 0.2545,-0.5091 0.2546,-0.2546 h 4.0729 l 0.7637,-0.2545 h 0.2546 l 0.5091,-0.2546 h 0.2545 l 1.2728,-1.2728 v -0.2545 l 1.7819,-1.782 h 0.7637 l 1.5274,1.5274 0.2545,0.5091 0.5091,0.5091 v 0.2546 l 0.2546,0.2545 -0.2546,-0.5091 v -0.7636 l -0.2545,-0.5092 v -0.5091 l -0.2546,-0.5091 v -1.0182 l 0.5091,-0.5091 h 2.5456 l 0.5091,0.5091 0.5092,0.2545 0.5091,0.5091 0.5091,0.2546 0.2545,0.2546 h 1.0183 l 0.5091,-0.2546 1.0182,-1.0182 v -0.7637 l 0.2546,-0.5091 v -2.8002 l 0.2545,-0.2545 v -1.2728 l 0.5092,-1.0182 0.5091,-0.5092 v -0.2545 l 0.5091,-1.0183 0.7637,-0.7636 0.2545,-0.5092 0.2546,-0.2545 v -0.2546 h 0.2545 -0.5091 l -1.2728,1.2728 -0.5091,0.7637 v 0.2546 l -0.2545,0.5091 v 1.0182 l -0.2546,0.2546 v 0.7636 l 1.0182,2.0365 0.2546,0.2546 0.2546,0.5091 0.2545,0.2545 h 1.5274 l 0.7636,-0.2545 1.2728,-1.2728 v -0.2546 l 0.2546,-0.2545 0.2545,-0.5091 v -0.2546 l 0.2546,-0.5091 v -0.7637 l 0.2546,-0.2545 v -0.7637 l 0.7636,0.7637 1.0183,0.5091 0.2545,0.2545 0.5092,0.2546 h 3.3092 l 0.5091,-0.2546 0.2546,-0.2545 h 0.2545 l 0.2546,-0.2546 h 0.2546 l 1.2728,-1.2728 0.2545,-0.7637 v -0.2545 l 0.2546,-0.5091 v -3.0547 l -0.2546,-0.2546 h -2.5456 l -0.5091,0.2546 -0.2545,0.5091 v 3.5638 l 0.5091,0.5091 h 0.2545 l 0.2546,0.2546 h 4.8366 l 0.5091,-0.2546 1.0182,-1.0182 0.5092,-0.7637 0.5091,-0.5091 0.2545,-0.5091 v -0.5091 l 0.2546,-0.5092 v -1.2728 l 0.2546,-0.2545 v -0.5091 h 2.291 l 0.5091,0.2545 1.2728,1.2728 -0.2546,0.2546 v -0.2546 l -0.5091,-0.5091 v -0.2546 l -0.2545,-0.5091 v -0.2545 l -0.2546,-0.2546 v -0.2545 l -0.2546,-0.5092 v -1.0182 l -0.2545,-0.2546 0.2545,-0.2545 h 1.2728 l 1.7819,1.7819 0.5092,0.2546 h 0.2545 l 0.5091,-0.5092 v -4.32745 l -0.5091,-0.50912 -0.5091,-0.76368 -0.2546,-0.50911 -0.5091,-0.76368 -1.0182,-1.01823 -0.5091,-0.76368 -1.2728,-1.27279 -0.7637,-1.01823 -1.0182,-0.76368 -0.5091,-0.50912 -0.7637,-0.50911 -0.5091,-0.25456 -0.2546,-0.25456 v 1.27279 l 0.7637,1.27279 0.5091,0.50912 1.0182,0.76368 3.0547,3.0547 0.7637,1.01823 0.5091,0.25456 0.5091,0.50912 1.0183,0.50911 0.2545,0.25456 0.5092,0.25456 0.7636,0.25456 h 7.6368 l 0.5091,-0.25456 1.2728,-1.27279 v -0.50912 l 0.2545,-0.25456 v -2.03646 l -2.0364,-2.03647 h -0.5091 l -0.5092,0.25456 -0.5091,1.01823 -0.2545,0.76368 v 2.54558 l 0.2545,0.25456 h 5.0912 l 0.2546,-0.25456 h 0.5091 -0.5091" />
    <path
       id="shape53"
       fill="none"
       stroke="#292c32"
       stroke-width="2.16"
       stroke-linecap="square"
       stroke-linejoin="bevel"
       d="m 297.32427,266.01357 0.25456,-0.50912 1.27279,-1.27279 3.81838,-2.54558 0.76367,-0.25456 1.01824,-1.01824 0.50911,-0.25455 0.50912,-0.50912" />
    <path
       id="shape54"
       fill="none"
       stroke="#292c32"
       stroke-width="2.16"
       stroke-linecap="square"
       stroke-linejoin="bevel"
       d="m 289.94207,274.92312 h -0.76367 v 0.50911 h 0.25455 v -0.25455 l -0.76367,-0.25456 h -0.25456 l -0.25456,-0.25456 h -0.76367 l -0.50912,0.25456" />
    <path
       id="shape55"
       fill="none"
       stroke="#292c32"
       stroke-width="2.16"
       stroke-linecap="square"
       stroke-linejoin="bevel"
       d="m 231.13907,295.79691 -0.76368,0.50912 -0.25456,0.25456 -0.50911,0.25456 h -0.25456 v 0.25455 l 0.25456,0.25456 h 1.01823 l 0.50912,-0.76367 v -0.25456 l 0.25456,-0.50912 v -1.01823 l -0.25456,-0.25456 h -0.25456 v 0.50912" />
    <path
       id="shape56"
       fill="none"
       stroke="#292c32"
       stroke-width="2.16"
       stroke-linecap="square"
       stroke-linejoin="bevel"
       d="m 324.30746,248.95816 v 0.25456 l 0.76367,0.76367 3.30927,4.3275 6.10936,7.12767 0.5092,0.5091 0.5091,0.7637 1.2728,1.2727 v 0.2546 l 0.7636,0.7637 v 0.2545 l 0.2546,0.2546 h 0.2546 l 0.7636,-0.5091 0.7637,-0.7637 h 0.2546 l 0.2545,-0.2546 h 0.2546 l 0.2545,-0.2545 h 0.2546 l 0.2546,-0.2546 h 0.7636 l 0.2546,-0.2545" />
    <path
       id="shape57"
       fill="none"
       stroke="#292c32"
       stroke-width="2.16"
       stroke-linecap="square"
       stroke-linejoin="bevel"
       d="m 341.87199,249.72183 v 3.56382 l 0.50912,0.76367 0.76367,1.52735 1.01824,1.01824 1.01823,1.27279 0.50912,0.50912 0.50911,0.25456 0.50912,0.50911 h 0.25456 l 0.25456,0.25456 h 2.54558 l 0.50912,-0.25456 0.76367,-0.76367 V 254.813 l -0.76367,-0.76368 -0.76368,-0.50911 -0.50911,-0.50912 -1.52735,-0.76368 -1.78191,-0.50911 h -2.54559 l -0.50912,0.25456 v 0.50911 l -0.25455,0.25456 v 2.80014 l 1.52735,1.52735 1.52735,0.50912 h 2.54558" />
    <path
       id="shape58"
       fill="none"
       stroke="#292c32"
       stroke-width="2.16"
       stroke-linecap="square"
       stroke-linejoin="bevel"
       d="m 349.25419,245.6489 3.56382,3.56382 1.78191,2.29102 1.01823,0.76368 0.25456,0.50912 0.50912,0.76367 0.25455,0.25456 v 0.25456 l 0.25456,0.50912 v 1.01823 l 0.50912,1.01822 0.76368,2.291 0.50911,0.7637 0.25456,0.7637 0.76368,0.7637 0.2546,-0.2546 0.2545,-0.5091 v -1.0182 l 1.2728,-2.5456 1.5274,-1.52738 h 1.2727 l 0.5092,-0.25456 h 0.7636" />
    <path
       id="shape59"
       fill="none"
       stroke="#292c32"
       stroke-width="2.16"
       stroke-linecap="square"
       stroke-linejoin="bevel"
       d="m 169.02684,397.1112 v -0.2546 l -0.2546,-0.7637 -0.2546,-0.5091 -0.5091,-0.7637 -1.0182,-1.0182 -3.81838,-5.0912 -1.52735,-1.52731 -3.56382,-5.60029 -0.50912,-0.50912 -0.50911,-1.01823 -0.50912,-0.50912 0.25456,-0.50911 h 0.25456 l 0.76367,-0.25456 h 1.27279 l 0.76368,-0.25456 h 3.30926 l 1.27279,1.27279 0.25456,0.50912 0.25456,0.25456 v 3.0547 l -0.25456,0.50912 -0.25456,0.25455 v 0.25456 l -0.50912,1.01824 v 0.25455 l -0.25455,0.50912 -0.25456,0.25456 v 0.50912" />
    <path
       id="shape60"
       fill="none"
       stroke="#292c32"
       stroke-width="2.16"
       stroke-linecap="square"
       stroke-linejoin="bevel"
       d="m 176.40903,392.52912 v -1.7819 l -1.0183,-0.7637 -0.76364,-1.2728 -1.01823,-1.0182 -1.27279,-1.0183 -5.34573,-6.87303 -0.50912,-1.01824 -0.50912,-1.52735 -0.50911,-0.50911 -0.25456,-0.76368 v -1.27279 h 0.25456 l 1.27279,0.25456 1.52735,0.76367 2.54559,0.25456 1.7819,0.50912 1.78191,0.25456 1.0182,0.25456 1.2728,0.76367 h 0.5091 l 0.2546,0.25456 h 0.2546 l 0.2545,0.25456 v 0.25456 l 0.5091,0.50911 0.2546,0.76368 v 0.76367 l 0.2546,0.76368 v 6.10938 l -0.2546,0.2546 v 0.2545 l -2.0365,2.0365 h -0.2545 l -0.5091,0.5091 h -0.2546" />
    <path
       id="shape61"
       fill="none"
       stroke="#292c32"
       stroke-width="2.16"
       stroke-linecap="square"
       stroke-linejoin="bevel"
       d="m 182.26385,375.98281 0.25456,0.25456 2.54558,0.76368 h 0.25456 v -0.25456 l -0.25456,-0.50912 -1.27279,-1.27279" />
    <path
       id="shape62"
       fill="none"
       stroke="#292c32"
       stroke-width="2.16"
       stroke-linecap="square"
       stroke-linejoin="bevel"
       d="m 188.88237,385.14691 1.01823,1.01824 h 0.76368 l 0.25456,-0.50912 v -0.50912 l -1.01824,-1.01823 h -0.76367 l -0.25456,0.25456 v 0.50911" />
    <path
       id="shape63"
       fill="none"
       stroke="#292c32"
       stroke-width="2.16"
       stroke-linecap="square"
       stroke-linejoin="bevel"
       d="m 188.88237,369.87344 0.25456,-0.5091 h 0.50911 l 1.52736,-0.5092 h 5.09116 l 1.78191,0.7637 1.5274,1.0182 1.0182,1.0183 v 0.2545 l 0.2545,0.7637 v 0.5091 l 0.2546,0.7637 v 1.2728 l 0.5091,0.7637 0.2546,0.7636 v 1.5274 l 0.5091,1.5273 v 0.7637 l 0.5091,0.7637 0.5091,1.0182 0.5091,0.5091 0.2546,0.5092 1.2728,1.2728 h 1.0182 l 0.7637,-1.0183 0.2546,-0.2545 0.5091,-1.5274 v -4.0729 l -0.5091,-1.0183 -1.0183,-0.7636 -0.7636,-1.2728 -1.0183,-1.0183 -0.5091,-0.7636 -0.5091,-0.5091 0.2545,0.5091 2.0365,1.5273 1.2728,0.7637 1.2728,1.2728 0.5091,0.2545 0.5091,0.5092 1.0183,0.5091 h 0.2545 l 0.5091,0.2545 h 1.5274 l 0.5091,-1.5273 v -0.7637 l 0.2546,-0.7637 v -3.3092 l -0.2546,-0.7637 -0.5091,-0.5091 -0.5091,-1.2728 -0.5091,-0.5091 -0.2546,-0.5091 v -0.7637 l -0.2546,-0.5091 v -1.2728 l -0.2545,-0.7637 v -0.2546 l -0.2546,-0.7636 -0.2545,-0.5091 v 0.7636 l 0.5091,0.7637 0.2545,0.7637 1.2728,1.7819 0.2546,0.5091 0.5091,0.7637 0.2546,0.7637 0.2545,0.2545 0.5091,1.0182 0.2546,0.7637 0.5091,1.0183 0.2546,0.2545 0.7637,1.5274 v 0.2545 l 0.2545,0.5091 0.2546,0.2546 v 0.5091 h 5.3457 l 1.5273,-0.5091 0.7637,-0.7637 v -0.2545 l 0.2546,-0.5092 0.2545,-0.7636 v -4.8366 l -1.2728,-1.2728 h -1.5273 l -0.2546,0.2545 -0.2545,0.7637 v 0.5091 l -0.2546,0.5091 v 4.3275 l 0.5091,1.0183 3.5639,3.5638 0.5091,0.2545 0.7636,0.2546 h 2.0365 l 0.5091,-0.5091 0.5091,-0.2546 0.5092,-0.5091 h 0.2545 l 0.2546,-0.2546 v -0.2545 l 0.2545,-0.2546 v -0.2545 l 0.2546,-0.2546 0.2546,-0.5091 v -0.5091 l 0.2545,-0.5091 v -0.7637 l 0.2546,-0.5091 v -1.0183 l 0.2545,-0.7636 v -19.09192 l -1.7819,-4.07294 -1.5273,-2.29102 -0.7637,-0.76368 -0.2546,0.25456 v 0.50912 l -0.2545,1.01823 v 4.58205 l 1.0182,2.291 0.5091,1.7819 0.7637,1.5274 0.2546,0.2545 0.2545,0.7637 0.2546,0.2546 0.5091,0.7637 0.2546,0.2545 0.5091,0.7637 1.5273,1.5273 0.2546,0.5092 1.2728,1.2728 0.7637,0.5091 h 0.2545 l 0.5091,0.5091 h 0.5091 l 0.7637,0.5091 h 0.5091 l 0.5092,0.2546 h 1.7819 l 0.7636,-0.7637 0.2546,-0.5091 v -0.2546 l 0.2546,-0.5091 v -0.7637 l 0.2545,-0.2545 0.2546,-0.5092 v -4.8366 l -0.2546,-0.7636 v -2.2911 l 0.2546,-0.2545 0.5091,-0.2546 h 3.0547 v 0.5091 l -0.7637,0.7637 -0.2545,0.7637 -0.2546,0.5091 v 0.2546 l -0.5091,1.0182 v 3.8184 l 0.2545,0.5091 1.0183,1.5273 1.2728,1.2728 0.5091,0.2546 0.2545,0.2545 0.5092,0.2546 h 0.2545 l 0.7637,-0.5091 0.2545,-0.5091 0.7637,-0.7637 1.0183,-1.5274 1.0182,-2.291 v -0.2545 l 0.2546,-0.5092 v -5.0911 l 0.2545,-0.7637 0.2546,-0.50912 v -0.25456 l 1.0182,-1.01823 h 3.8184 l 0.5091,0.25456 1.0182,1.01823 v 0.25452 l 0.2546,0.5092 0.2545,0.2545 0.2546,0.7637 v 0.5091 l 0.2546,0.5091 v 3.3093 l -1.2728,1.2728 -0.7637,0.2545 -0.5091,0.2546 h -0.2546 l -0.5091,0.2545 -0.7637,0.2546 h -1.0182 l -0.5091,-0.2546 -0.2546,-0.2545 -0.2545,-0.5091 v -0.7637 l -0.5092,-1.0182 v -2.2911 l 0.5092,-0.5091 0.5091,-0.2545 0.2545,-0.2546 h 1.0183 l 0.2545,-0.2546 h 0.7637 l 0.2546,0.2546 0.7636,0.2546 h 0.5092 l 0.5091,0.2545 h 2.5456 l 0.5091,-0.2545 1.2728,-1.2728 v -0.2546 l 0.2545,-0.5091 0.2546,-0.2546 v -0.25452 l 0.2545,-0.25456 v -0.25456 l 0.2546,-0.25456 h 0.5091 l 0.5091,-0.25455 h 1.5274 l 0.5091,0.25455 1.5273,1.5274 0.2546,0.5091 v 0.2545 l 0.2546,0.5091 0.2545,0.2546 v 0.7637 -1.0183 l -0.2545,-0.5091 -0.2546,-0.2545 v -0.2546 l -0.2546,-0.2545 v -0.2546 l -0.2545,-0.2546 v -2.03643 l 0.2545,-0.25456 h 0.5092 l 0.7636,-0.25456 h 3.3093 l 0.5091,0.25456 3.8184,3.81839 v -0.2546 l -0.2546,-0.5091 -0.5091,-0.5091 -1.0182,-0.76368 -1.2728,-1.27279 -0.2546,-0.50912 -0.2545,-0.25456 v -0.25456 l -0.2546,-0.25455 v -0.76368 l -0.2545,-0.25456 v -0.76367 l 0.5091,-0.50912 h 8.1458 l 0.7637,0.76368 1.0183,0.50911 h 0.2545 l 0.5091,0.25456 h 3.3093 l 0.5091,-0.50912 0.2541,-0.50911 0.255,-0.25456 v -3.81838 l -0.255,-0.50912 -0.7632,-0.76367 h -0.5091 l -0.5091,0.76367 -0.2546,0.50912 -0.2546,0.76368 v 1.78191 l 0.7637,0.76367 h 0.2546 l 0.5091,0.25456 h 4.5822 l 0.509,-0.25456 0.255,-0.25456 h 0.254 l 0.509,-0.50911 h 0.509 l 0.255,-0.25456 0.509,-0.25456 0.764,-0.76368 0.509,-0.25455 h 0.254" />
    <path
       id="shape64"
       fill="none"
       stroke="#292c32"
       stroke-width="2.16"
       stroke-linecap="square"
       stroke-linejoin="bevel"
       d="m 306.74292,343.90841 v -1.7819 l -0.50911,-1.0182 -0.50912,-3.56382 -2.54558,-5.60029 -0.50912,-1.78191 -0.76368,-0.76367 -0.76367,-1.52735 -0.25456,-0.25456 v 0.76367 l 0.76367,1.01824 0.50912,1.27279 0.76368,0.76368 0.76367,1.27279 2.03647,2.54558 0.76368,0.76368 0.50911,0.76367 0.76368,0.76368 0.76367,0.50912 3.05475,3.0547 1.5273,1.0182 0.5091,0.2546 h 0.2546 l 0.2545,0.2545 h 1.0183 l 0.5091,-0.5091 0.5091,-1.0182 0.5091,-0.7637 v -0.5091 l 0.5091,-0.5091 0.2546,-0.5091 0.2546,-0.7637 v -0.76368 l 0.2545,-0.50912 0.2546,-0.76367 0.5091,-0.50912 0.2545,-0.50912 1.0183,-1.01823 0.5091,-0.25456 h 3.5638 l 1.5274,1.52735 v 0.50912 l 0.2545,0.25456 v 1.52735 l -0.2545,0.50912 -1.0183,1.0182 -1.5273,0.7637 h -1.0182 l -0.7637,0.2546 h -1.7819 l -0.5092,0.2545 h -0.7636 l -0.5091,-0.2545 v -2.80018 l 1.0182,-1.01823 h 1.2728 l 0.5091,-0.25456 h 1.2728 l 0.7637,-0.25456 h 0.5091 l 1.5273,-0.76368 0.2546,-0.25455 0.5091,-0.25456 0.7637,-0.76368 v -0.25456 l 0.2545,-0.25455 v -0.25456 l 0.2546,-0.25456 v -1.27279" />
    <path
       id="shape65"
       fill="none"
       stroke="#292c32"
       stroke-width="2.16"
       stroke-linecap="square"
       stroke-linejoin="bevel"
       d="m 296.81514,334.23523 v -0.25456 l 0.50912,-0.50912 7.12763,-4.32749 1.2728,-0.76368 0.76367,-1.01823 1.01828,-0.50912 1.0182,-1.01823" />
    <path
       id="shape66"
       fill="none"
       stroke="#292c32"
       stroke-width="2.16"
       stroke-linecap="square"
       stroke-linejoin="bevel"
       d="m 338.05361,333.72607 h -0.25456 l 0.25456,-0.7636 v -7.3822 l -0.50911,-1.2728 -0.25456,-1.2728 v -1.5274 l -0.50912,-2.291 -1.27279,-3.30925 -0.50912,-0.76367 -0.50912,-1.01824 -0.76367,-0.76367 v 1.27279 l 0.25456,0.50912 0.25456,1.01823 0.76367,1.52735 0.25456,0.76364 1.01823,2.0365 0.25456,0.7637 v 0.5091 l 0.50912,1.0182 0.25456,0.7637 1.52735,1.5274 1.01823,0.5091 h 3.0547 l 1.5274,-0.5091 2.0364,-1.2728 1.0183,-0.5092 0.2545,-0.2545 1.0182,-2.0365 1.0183,-3.05468 v -0.50912 l 0.2545,-0.76367 0.2546,-1.27279 v -4.58206 l -0.5091,-0.50911 -0.2546,-0.50912 -0.5091,-0.76368 -0.7637,-0.76367 -0.7636,0.50912 -0.2546,0.50911 v 0.76368 l -0.2546,0.76367 v 5.60029 l 0.5092,0.76368 0.5091,1.01823 0.5091,0.76372 0.2545,0.5091 0.5092,0.5091 v 0.2545 l 1.7819,1.782 v 0.2545 -0.2545 l -0.5091,-0.5092 -0.5092,-1.0182 -0.2545,-0.2546 v -0.2545 l -0.2546,-0.5091 v -1.27282 l 0.5091,-0.50912 h 1.0183 l 0.5091,0.25456 1.2728,1.27278 h 0.2545 l 0.2546,0.2546 0.5091,0.2545 h 1.7819 l 1.5274,-0.7636 0.2545,-0.2546 0.7637,-0.50912 0.2546,-0.25456 0.5091,-0.25456 0.5091,-0.50911 0.5091,-1.01824 v -4.07293 l -0.7637,-0.76368 h -0.7636 l -1.2728,1.27279 -0.5091,0.76368 v 2.29102 l 0.2545,0.50912 0.7637,0.76368 h 3.3093 l 0.2545,-0.25456 1.5274,-0.76368 0.7636,-0.50911 1.0183,-0.50912 0.2545,-0.25456 0.7637,-0.50912 1.0182,-1.01823" />
    <path
       id="shape67"
       fill="none"
       stroke="#292c32"
       stroke-width="2.16"
       stroke-linecap="square"
       stroke-linejoin="bevel"
       d="m 330.1623,320.74363 h 0.25456 l 1.01823,-0.25455 0.76368,-1.01824 1.27279,-0.50911 2.54558,-2.03647 1.2728,-0.76368 2.03646,-1.52735 0.50912,-0.25456 0.76368,-0.50911 0.5091,-0.50912" />
    <path
       id="shape68"
       fill="none"
       stroke="#292c32"
       stroke-width="2.16"
       stroke-linecap="square"
       stroke-linejoin="bevel"
       d="m 201.61029,416.45765 v -0.5092 l 0.25456,-0.7636 0.25456,-0.5092 v -0.7636 l 0.25455,-0.7637 v -3.8184 l -0.50911,-1.0182 -0.25456,-0.7637 -0.76368,-0.7637 v -0.5091 l -0.76367,-1.5273 v -0.2546 l -0.25456,-0.5091 v 0.5091 l 0.50912,1.2728 2.03646,2.291 1.52735,2.5456 2.54559,2.291 0.76367,2.0365 1.01824,2.0365 1.01823,1.0182 0.25456,1.2728 0.76368,0.7637 0.2546,0.5091 0.2545,0.2545 v 2.2911 l 0.2546,0.2545 v 0.5091 l -0.5091,0.5092 h -0.5092 l -0.50908,-0.2546 -0.25456,-0.2546 -0.50911,-0.2545 -0.25456,-0.2546 -0.76368,-0.5091 -0.50912,-0.5091 h -0.25455 l -1.2728,-1.2728 v -4.582 l 1.01824,-1.2728 v -0.2546 l 0.50911,-0.5091 0.76368,-1.0182 v -0.2546 l 0.25456,-0.5091 0.25456,-0.7637 0.50911,-0.5091 0.25456,-0.5091 0.50912,-0.5092 0.50912,-0.7636 v -1.5274 l 0.2546,-0.7637 v -3.0547 l -0.2546,-0.5091 v -0.2545 l -0.50912,-0.5091 v -0.5092 l -0.25456,-0.5091 v -0.2545 l -0.50912,-1.0183 v -0.2545 l -0.25455,-0.2546 v -0.5091 0.2546 l 0.76367,1.0182 1.01828,0.7637 1.2727,1.7819 1.0183,1.0182 0.5091,0.7637 1.5273,1.5273 h 1.0183 l 0.5091,-0.2545 0.7637,-2.2911 v -4.582 l -0.5091,-0.7637 -0.5092,-1.0182 -0.5091,-0.5091 -0.2545,-0.5091 0.2545,0.5091 0.5091,0.7636 2.5456,2.5456 1.0183,0.7637 0.7636,0.2546 0.7637,0.7636 0.5091,0.2546 1.0183,1.0182 h 0.2545 l 0.5091,0.2546 0.2546,0.2545 h 0.5091 l 0.2546,0.2546 h 0.2545 l 0.5091,-0.5091 0.2546,-0.5091 v -1.2728 l 0.2546,-0.7637 v -6.1094 l -0.2546,-0.5091 v -2.0365 h 0.5091 l 2.5456,0.7637 1.0182,0.7637 0.7637,0.2545 0.5091,0.5091 0.5091,0.2546 1.2728,1.2728 0.2546,0.7637 v 1.0182 l 0.5091,1.0182 v 1.5274 l 0.2546,0.5091 v 0.2546 -0.7637 l -0.5091,-1.0182 -0.7637,-1.0183 -0.5091,-1.2728 -0.7637,-3.0547 v -0.7636 l -0.5091,-1.0183 v -0.5091 l 0.2545,-0.7637 0.2546,-0.2545 v -0.2546 l 0.2545,-0.2545 h 2.0365 l 0.5091,0.2545 1.0183,1.0182 0.5091,0.7637 2.5456,2.5456 0.2545,0.5091 0.2546,0.2546 v 0.5091 l 0.5091,0.5091 0.5091,0.7637 0.7637,0.7637 h 0.2545 l 0.2546,0.2545 h 2.291 l 1.0183,-1.0182 0.2545,-0.7637 0.5091,-0.7637 v -0.7636 l 0.2546,-1.2728 v -6.1094 l -0.2546,-0.2546 0.5092,-0.5091 h 0.2545 l 1.5274,-0.5091 h 5.3457 l 0.5091,0.2545 0.2546,0.2546 0.2545,0.5091 v 0.2546 l 0.5091,0.7636 v 0.5092 l 0.5092,1.5273 v 0.7637 l 0.2545,1.0182 v 1.7819 l -0.2545,0.5091 -0.2546,0.2546 v 0.5091 l -0.7637,0.7637 -0.5091,0.2546 h -0.7637 l -0.7636,0.2545 h -2.5456 l -0.7637,-0.5091 -0.2546,-0.5091 -2.0364,-2.8002 -1.0183,-3.0547 v -3.5638 l 0.5092,-0.7637 1.2728,-1.2728 h 3.3092 l 1.0182,0.5092 0.7637,0.2545 0.7637,0.5091 0.5091,0.2546 0.7637,0.2546 1.0182,0.5091 0.2546,0.2545 0.5091,0.2546 2.0365,2.0365 0.2545,0.7636 0.2546,0.5092 0.7637,2.5455 v 0.7637 l 1.5273,4.0729 0.2546,1.0183 v 0.7637 l 0.2545,0.5091 0.2546,0.7636 v 0.7637 l 0.2545,0.7637 v 1.0182 l 0.2546,1.2728 v 5.3457 l -0.5091,0.5092 h -0.2546 l -0.5091,-0.5092 -0.5091,-0.7636 -0.5091,-2.2911 -0.2546,-0.5091 v -5.0911 l 0.5091,-1.0183 0.2546,-1.2728 v -0.7636 l 0.5091,-0.7637 v -0.5091 l 0.2546,-0.5091 0.2545,-0.7637 v -0.2546 l 0.5091,-0.7637 v -0.5091 l 0.5092,-0.7636 0.5091,-0.5092 0.5091,-1.0182 0.5091,-0.5091 0.2546,-0.5091 0.5091,-0.7637 1.0182,-0.7637 0.5091,-1.0182 1.7819,-1.7819 0.5092,-0.7637 0.2545,-0.2546 0.2546,-0.7636 0.2545,-0.5092 0.5092,-0.7636 0.7636,-2.5456 v -5.09118 l -0.5091,-0.76368 v -0.50911 l -0.5091,-1.01824 v -0.50911 l -0.5091,-1.01824 -1.0183,-1.01823 v -0.25456 l -1.0182,-1.01823 -1.0182,-0.50912 h -3.0547 l -0.7637,0.50912 -2.0365,2.03646 -0.2545,1.01824 v 4.83661 l 0.7636,1.27279 0.2546,1.01828 1.0182,2.8001 4.3275,5.6003 1.7819,1.7819 1.2728,1.0182 1.0183,0.5091 1.5273,1.0183 0.7637,0.2545 h 0.5091 l 0.5091,0.2546 h 2.0365 l 0.7637,-0.2546 0.5091,-0.2545 1.7819,-1.7819 1.0182,-0.7637 0.2546,-0.7637 0.2545,-1.2728 0.5092,-1.0182 v -1.0182 l 0.5091,-1.782 v -3.0547 l -0.5091,-0.7636 -0.2546,-0.5091 -0.2546,-0.2546 -0.2545,-0.50912 h -1.2728 l -0.5091,0.25452 -1.2728,1.2728 -0.2546,0.7637 -0.2545,0.5091 -0.2546,0.7637 v 2.5456 l 0.2546,0.5091 1.5273,1.5273 0.5091,0.2546 h 0.5092 l 1.5273,0.5091 h 5.0912 l 0.7637,-0.5091 0.7636,-0.7637 0.2546,-1.0182 0.7637,-1.0182 0.2545,-1.2728 0.2546,-0.7637 v -1.2728 l 0.2545,-1.0182 v -3.81841 l -0.2545,-0.25455" />
    <path
       id="shape69"
       fill="none"
       stroke="#292c32"
       stroke-width="2.16"
       stroke-linecap="square"
       stroke-linejoin="bevel"
       d="m 196.77367,399.65674 v -4.07293 l -1.01823,-0.50912 h -0.25456 l -0.50911,0.25456 -0.50912,1.52735 -0.25456,0.50912 v 1.7819" />
    <path
       id="shape70"
       fill="none"
       stroke="#292c32"
       stroke-width="2.16"
       stroke-linecap="square"
       stroke-linejoin="bevel"
       d="m 291.97853,380.56486 h 0.50912 l 0.76367,0.76367 h 0.25456 l 0.50912,0.50912 v 0.25456 l 0.50911,1.01823 0.25456,0.25456 h -0.25456 l -0.50911,-0.50911" />
    <path
       id="shape71"
       fill="none"
       stroke="#292c32"
       stroke-width="2.16"
       stroke-linecap="square"
       stroke-linejoin="bevel"
       d="m 228.08435,452.09576 h -1.0182 l -1.2728,-1.2728 -1.5274,-0.7636 -1.0182,-1.0183 -1.2728,-0.5091 -0.7637,-0.7637 -0.76364,-0.5091 -2.29102,-2.291 -1.52735,-1.0182 -1.01824,-1.0183 -1.01823,-0.7636 -1.01824,-1.0183 -0.50911,-0.7637 -0.25456,-0.2545 -0.25456,-0.5091 v -0.5092 l -0.25456,-0.2545 -0.25456,-0.5091 v -0.2546 l -0.25455,-0.7637 -0.50912,-1.0182 v -0.7637 l -0.25456,-0.2545 v -0.2546 l 0.50912,-0.7637 0.25456,-0.2545 0.50911,-0.2546 0.76368,-0.5091 0.50911,-0.2546 1.52736,-0.5091 h 0.50911 l 0.25456,-0.2545 h 1.27279 l 0.76368,0.7636 v 0.2546 l 0.25456,0.2546 v 0.5091 l 0.25455,0.7637 v 5.0911 l -0.25455,0.7637 -0.76368,0.7637 v 0.5091 l -1.01823,1.0182 h -0.25456 l -0.25456,0.2546 v -0.2546 l 0.50912,-0.7636 0.76367,-0.5092 0.76368,-0.2545 0.76367,-0.7637 1.01824,-0.5091 0.76367,-0.5091 0.50912,-0.2546 0.76372,-0.5091 0.2545,-0.2546 0.5091,-0.2545 h 0.2546 l 0.2545,-0.2546 h 1.2728 l 0.2546,0.5091 0.2546,0.2546 0.2545,0.7637 0.2546,0.5091 v 2.0365 l 0.2545,0.7636 v 5.0912 l 0.2546,0.5091 0.5091,0.5091 h 0.5091 l 1.0183,0.7637 2.291,0.5091 h 1.7819 l 1.0182,0.2546 h 1.2728 l 0.5091,-0.5091 v -0.2546 l 0.2546,-0.5091 v -6.6185 l -0.5091,-1.0183 v -3.3092 l 0.2545,-0.7637 0.7637,-0.7637 1.0182,-0.5091 h 3.3093 l 0.7637,0.7637 0.2545,0.5091 0.5092,0.7637 0.2545,0.7636 v 0.5092 l 0.2546,0.7636 v 4.3275 l -0.7637,0.7637 -0.7637,0.2546 h -0.7637 l -0.7636,0.2545 h -4.5821 l -1.7819,-1.7819 v -2.5456 l 0.2546,-0.7636 1.7819,-1.782 0.5091,-0.7636 0.2546,-0.2546 h 6.1094 l 0.7636,0.2546 1.0183,0.5091 0.2545,0.2545 0.5091,0.2546 0.2546,0.2546 v 0.2545 h 0.2546 l 0.5091,0.2546 h 1.0182 l 0.5091,-0.2546 0.2546,-0.2545 v -1.2728 l 0.2545,-0.2546 v -2.0365 l -0.2545,-0.5091 -0.2546,-0.2545 v -0.2546 l -0.5091,-1.0182 v -0.5091 l -0.2546,-0.5092 -0.2545,-1.0182 v -0.2545 l -1.5274,-4.5821 -0.5091,-1.01823 -0.2545,-0.76368 -0.2546,-0.25455 v -0.25456 l -0.2546,-0.50912 v -0.50912 l -1.7819,-1.78191 -0.5091,-0.25456 -0.5091,-0.50911 -0.5091,-0.25456" />
    <path
       id="shape72"
       fill="none"
       stroke="#292c32"
       stroke-width="2.16"
       stroke-linecap="square"
       stroke-linejoin="bevel"
       d="m 247.93993,417.98496 v 4.32749 l -0.25456,0.50912 -0.25456,0.76368 -0.25456,0.50911 -1.27279,1.78191 -0.50912,1.27279 -0.50911,0.76368 -0.25456,0.76372 -0.25456,0.5091 -1.01823,1.0182 -0.25456,0.5091 -0.25456,0.2546 0.50912,0.2545 h 2.54558 l 0.50912,-0.2545 h 3.0547 l 0.50912,0.5091 1.52735,0.5091 0.50911,0.2546 0.76368,0.5091 h 0.50912 l 1.0182,1.0182 1.0183,0.5091 0.2545,0.2546 0.7637,0.2546 0.2546,0.2545 0.5091,0.2546 h 1.5273 l 0.7637,-0.5091 2.0365,-1.0183 0.7636,-0.5091 0.5092,-0.5091 0.7636,-0.5091 0.7637,-0.2546 1.0182,-1.0182 0.7637,-2.0365 v -0.7637 l 0.2546,-0.50908 v -2.03647 l -1.0183,-1.01823 h -2.291 l -1.0182,1.01823 -0.5091,0.25456 -0.7637,0.50912 -0.5091,0.50912 v 1.27275 l -0.2546,0.5092 v 3.8183 l 2.0365,2.0365 0.5091,0.7637 4.5821,1.2728 h 3.0547 l 1.7819,-1.2728 1.0182,-1.0183 0.5091,-0.7636 0.5091,-0.5092 0.2546,-0.5091 0.2545,-0.2545 v -0.2546" />
    <path
       id="shape02"
       fill="none"
       stroke="#292c32"
       stroke-width="2.16"
       stroke-linecap="square"
       stroke-linejoin="bevel"
       d="m 226.8,146.88 -0.36,-0.72 v -5.04 h 1.8 l 1.08,1.08 0.72,0.36 0.36,0.36 0.72,0.36 0.36,0.36 h 1.44 l 0.72,-0.36 v -0.72 l 0.36,-0.72 v -4.32 l 0.36,-0.36 h 5.76 l 0.36,-0.36 v 5.4 l 0.36,0.72 0.36,0.36 v 0.36 l 0.36,0.72 v 0.36 l 0.36,0.36 v -2.16 l -0.36,-1.08 v -0.72 l -0.36,-1.08 v -3.96 l 0.36,-0.72 h 1.08 l 1.08,-0.36 h 6.48 l 0.72,0.36 0.72,0.72 v 3.24 l -0.72,0.72 -1.44,1.08 -0.72,0.36 -1.08,0.72 -1.08,0.36 h -1.08 l -1.08,0.36 h -2.52 l -0.36,-0.36 v -1.08 l 0.36,-0.72 1.08,-1.08 h 0.36 l 1.08,-0.72 h 0.36 l 0.72,-0.36 h 1.44 l 1.8,-1.8 0.72,-0.36 2.16,-2.16 0.36,-0.72 1.44,-1.44 0.72,-0.36 1.8,-1.8 0.36,-0.72 0.36,-0.36 v -0.72 l 0.36,-0.36 0.36,-1.08 v -1.44 l 0.36,-0.72 v -0.72 l -0.36,0.36 -0.72,0.36 -0.36,0.72 -0.36,1.08 v 7.56 l 1.8,1.8 h 1.08 l 0.36,-0.36 0.36,-0.72 0.36,-0.36 v -4.32 l 0.36,-0.72 v -0.36 l 1.8,-1.8 h 2.16 l 0.72,0.36 0.36,1.08 0.36,0.72 v 0.72 l 0.36,0.72 0.36,0.36 v 0.36 l 0.36,0.72 0.36,0.36 v -0.36 l 0.36,-0.72 v -3.6 h 1.44 l 1.08,0.36 0.36,0.36 h 0.72 l 0.36,0.36 h 4.32 l 0.72,-0.36 0.36,-0.36 0.72,-0.36 0.36,-0.36 v -1.8 l -0.72,-0.72 h -2.52 l -0.72,0.36 V 126 l -0.36,0.72 v 1.08 l -0.72,1.44 v 1.8 l 0.36,0.36 h 3.96 l 0.36,-0.36 0.72,-0.36 1.44,-1.44 v -0.72 l 0.72,-1.44 v -0.72 l 0.36,-0.72 v -2.52 l -0.36,-0.36 v -0.36 l 0.72,-0.72 h 0.72 l 1.8,-0.72 h 2.16 l 2.16,-0.36 2.52,-1.08 h 0.36 l 0.72,-0.72 -2.16,2.16 v 2.88 l 0.72,0.36 1.08,0.36 h 2.52 l 1.08,-0.36 1.8,-1.8 v -0.72 l 0.36,-0.36 v -0.72 l -0.72,-0.72 h -1.44 l -0.72,0.72 v 3.24 l 1.08,1.08 h 1.44 l 1.08,-0.72 0.72,-0.72 1.08,-0.36 0.36,-0.36 0.72,-0.36 0.72,-0.72" />
    <path
       id="path117"
       fill="none"
       stroke="#292c32"
       stroke-width="2.16"
       stroke-linecap="square"
       stroke-linejoin="bevel"
       d="m 307.44,119.88 v -5.4 l 0.72,-1.44 0.72,-0.72 0.72,-0.36 0.72,-0.72 1.08,-0.36 0.36,-0.36 0.72,-0.36 0.72,0.72 0.72,1.44 0.36,1.08 0.36,0.36 1.08,2.16 v 0.36 l -0.72,1.08 -1.08,0.36 h -0.72 l -0.72,0.36 h -2.52 l -0.72,-0.36 -0.36,-0.36 V 117 l -0.36,-0.72 v -3.96 l 1.08,-1.08 h 0.36 l 2.16,-0.72 h 5.04 l 0.36,0.36 v 2.52 l 0.36,0.36 0.36,0.72 h 1.08 l 1.08,-1.08 0.36,-0.72 0.36,-1.08 v -1.08 l 0.36,-0.72" />
    <path
       id="path119"
       fill="none"
       stroke="#292c32"
       stroke-width="2.16"
       stroke-linecap="square"
       stroke-linejoin="bevel"
       d="m 328.31999,114.84 v -0.72 l 0.36,-0.36 v -0.36 l 0.72,-0.72 0.72,-1.44 0.72,-1.08 0.36,-1.08 0.36,-0.72 v -2.52 h -2.52 l -0.36,0.36 v 5.04 l 0.72,0.72 h 0.72 l 1.08,0.36 h 3.24 l 1.08,-1.08 0.36,-0.72 v -0.36 l 0.36,-1.08 0.36,-0.72 v -1.08 l 0.36,-0.72 v -2.16 l -0.36,-0.36 v 0.72 l 1.08,1.44 1.44,2.88 0.36,1.08 v 0.36 l 0.36,1.08 v 0.36 l 0.36,-0.36 v -1.08 l 0.72,-2.16 v -2.16 l 0.72,-0.72 h 1.8 l 0.72,0.36 0.36,0.36 0.36,0.72 v 0.36 l 0.36,0.72 v 1.8 l -0.36,0.72 -0.36,0.36 h -1.44 l -0.72,-0.72 v -0.36 l 0.36,-0.72 3.6,-3.6 0.72,-0.36 0.36,-0.36" />
  </g>
</svg>
