<?xml version="1.0" encoding="utf-8"?><svg xmlns:xlink="http://www.w3.org/1999/xlink" id="UntilTheDayIDie" image-rendering="optimizeQuality" baseProfile="basic" version="1.1" x="0px" y="0px" width="350" height="275" xmlns="http://www.w3.org/2000/svg"><defs><symbol id="Silla_atras" overflow="visible"><path fill="#CC980F" d="M29.3,55.35L29.275,55 29.1,55 29.1,53 23.1,53 22.9,53.875 22.575,55.35 16.5,90.85 33,90.85 29.3,55.35"/><path fill="#CC980F" d="M80.8,56.2L80.775,55.85 80.6,55.85 80.6,53.85 74.6,53.85 74.4,54.725 74.075,56.2 68,91.7 84.5,91.7 80.8,56.2"/><path fill="none" stroke="#000" stroke-width="2" stroke-linecap="round" stroke-linejoin="round" d="M16.5,90.85L22.575,55.35M33,90.85L16.5,90.85M29.3,55.35L33,90.85M29.275,55L29.3,55.35M29.1,55L29.275,55M29.1,53L29.1,55M22.75,54.35L22.9,53.875M22.575,55.35L22.75,54.35"/><path fill="none" stroke="#000" stroke-width="2" stroke-linecap="round" stroke-linejoin="round" d="M80.6,55.85L80.775,55.85M80.6,53.85L80.6,55.85M74.25,55.2L74.4,54.725M74.075,56.2L74.25,55.2M68,91.7L74.075,56.2M84.5,91.7L68,91.7M80.8,56.2L84.5,91.7M80.775,55.85L80.8,56.2"/><path fill="#CC980F" d="M51,1L51,0.075 48,0 19,0 7,21 6,21 6,71 61.375,71 62,70.5 62,69.525 61.5,69.85 62,69.525 62,67 62,18 51.225,1.325 51,1"/><path fill="#CC980F" d="M51.225,1.325L62,18 62,67 63.2,68.725 64.5,67.85 64.5,65.225 64.5,53 64.5,16.85 53.5,-0.15 51.225,1.325"/><path fill="#CC980F" d="M51,0.075L51,0 48,0 51,0.075"/><path fill="#CC980F" d="M80.5,57.5L80.5,53.85 64.5,65.225 64.5,67.85 63.2,68.725 63.65,69.35 80.5,57.5"/><path fill="#CC980F" d="M80.5,53.85L80.5,53 64.5,53 64.5,65.225 80.5,53.85"/><path fill="#CC980F" d="M6.4,72.875L6.075,74.35 0,109.85 16.5,109.85 12.775,74 12.6,74 12.6,72 6.6,72 6.4,72.875"/><path fill="#CC980F" d="M54.1,72L53.9,72.875 53.575,74.35 47.5,109.85 64,109.85 60.3,74.35 60.275,74 60.1,74 60.1,72 54.1,72"/><path fill="none" stroke="#000" stroke-width="2" stroke-linecap="round" stroke-linejoin="round" d="M48,0L51,0M19,0L48,0M7,21L19,0M6,71L6,21M6,71L6,72M61.375,71L6,71M62,71L61.375,71M62,70.5L62,71M63.65,69.35L62,70.5M80.5,57.5L63.65,69.35M80.5,53.85L80.5,57.5M80.5,53.85L81,53.5M80.5,53L80.5,53.85M64.5,53L80.5,53M64.5,16.85L64.5,53M53.5,-0.15L64.5,16.85M51,0.075L53.5,-0.15"/><path fill="none" stroke="#000" stroke-width="2" stroke-linecap="round" stroke-linejoin="round" d="M51,1L51.225,1.325"/><path fill="none" stroke="#000" stroke-width="2" stroke-linecap="round" stroke-linejoin="round" d="M51,0.075L48,0M62,70.5L62,69.525 61.5,69.85M62,69.525L62,67 62,18 51.225,1.325"/><path fill="none" stroke="#000" stroke-width="2" stroke-linecap="round" stroke-linejoin="round" d="M63.2,68.725L64.5,67.85 64.5,65.225 64.5,53"/><path fill="none" stroke="#000" stroke-width="2" stroke-linecap="round" stroke-linejoin="round" d="M80.5,53.85L64.5,65.225"/><path fill="none" stroke="#000" stroke-width="2" stroke-linecap="round" stroke-linejoin="round" d="M63.2,68.725L62,69.525"/><path fill="none" stroke="#000" stroke-width="2" stroke-linecap="round" stroke-linejoin="round" d="M6.075,74.35L6.25,73.35M0,109.85L6.075,74.35M16.5,109.85L0,109.85M12.775,74L16.5,109.85M12.6,74L12.775,74M12.6,72L12.6,74M6.25,73.35L6.4,72.875"/><path fill="none" stroke="#000" stroke-width="2" stroke-linecap="round" stroke-linejoin="round" d="M53.575,74.35L53.75,73.35M47.5,109.85L53.575,74.35M64,109.85L47.5,109.85M60.3,74.35L64,109.85M60.275,74L60.3,74.35M60.1,74L60.275,74M60.1,72L60.1,74M53.75,73.35L53.9,72.875"/>
</symbol><symbol id="Silla" overflow="visible"><path fill="#C90" d="M36.4,93.55L32.7,58.05 25.975,58.05 19.9,93.55 36.4,93.55"/><path fill="#C90" d="M71.975,59.45L65.9,94.95 82.4,94.95 78.7,59.45 71.975,59.45"/><path fill="none" stroke="#000" stroke-width="2" stroke-linecap="round" stroke-linejoin="round" d="M36.4,93.55L32.7,58.05M25.975,58.05L19.9,93.55 36.4,93.55"/><path fill="none" stroke="#000" stroke-width="2" stroke-linecap="round" stroke-linejoin="round" d="M71.975,59.45L65.9,94.95 82.4,94.95 78.7,59.45"/><path fill="#CC980F" d="M67.2,0L67.1,0.075 78.05,14 78.05,58.05 79.05,58.05 80,58.05 80.5,58.05 80.5,13.15 80.5,12.9 70,0.125 69.05,0.075 67.2,0"/><path fill="#C90" d="M67.05,0L65,0 37.05,0 27.05,16 27.05,58.05 78.05,58.05 78.05,14 67.1,0.075 67.05,0"/><path fill="#C90" d="M12.75,83L12.75,82.5 6.25,82.5 6.075,83.5 0,119 16.5,119 12.8,83.5 12.75,83"/><path fill="#C90" d="M6.2,79.95L6.25,80.175 63.05,80.175 63.225,79.95 78.05,59.425 78.05,58.05 27.05,58.05 6.2,79.95"/><path fill="#C90" d="M6.25,80.175L6.25,82.5 12.75,82.5 63.3,82.5 63.225,80.175 63.05,80.175 6.25,80.175"/><path fill="#C90" d="M6.25,79.25L6.2,78.925 6.125,79.05 6.15,79.25 6.25,79.25"/><path fill="#C90" d="M63.25,83.2L56.525,83.2 50.45,118.7 66.95,118.7 63.25,83.2"/><path fill="none" stroke="#000" stroke-width="2" stroke-linecap="round" stroke-linejoin="round" d="M65,0L67.05,0M37.05,0L65,0M27.05,16L37.05,0M27.05,58.05L27.05,16M6.2,79.95L27.05,58.05M6.125,80.05L6.2,79.95M6.15,80.175L6.125,80.05M6.25,80.175L6.15,80.175M6.25,82.5L6.25,80.175M6.075,83.5L6.25,82.5M0,119L6.075,83.5M16.5,119L0,119M12.8,83.5L16.5,119M12.75,83L12.8,83.5M63.3,82.5L12.75,82.5M63.3,82.15L63.3,82.5M78.55,61.025L63.3,82.15M78.55,58.75L78.55,61.025M79.05,58.05L78.55,58.75M79.925,58.375L80,58.05M79.425,59.625L79.925,58.375M79.425,59.625L79,60.65M80.5,58.325L79.425,59.625M80.5,58.325L81,57.65M80.5,58.05L80.5,58.325M80.5,13.15L80.5,58.05M70,0.125L80.5,12.9M69.05,0.075L70,0.125M67.2,0L69.05,0.075M67.05,0L67.2,0"/><path fill="none" stroke="#000" stroke-width="2" stroke-linecap="round" stroke-linejoin="round" d="M67.05,0L67.1,0.075"/><path fill="none" stroke="#000" stroke-width="2" stroke-linecap="round" stroke-linejoin="round" d="M67.1,0.075L78.05,14 78.05,58.05 79.05,58.05"/><path fill="none" stroke="#000" stroke-width="2" stroke-linecap="round" stroke-linejoin="round" d="M27.05,58.05L78.05,58.05"/><path fill="none" stroke="#000" stroke-width="2" stroke-linecap="round" stroke-linejoin="round" d="M12.75,82.5L6.25,82.5"/><path fill="none" stroke="#000" stroke-width="2" stroke-linecap="round" stroke-linejoin="round" d="M6.25,80.175L6.2,79.95"/><path fill="none" stroke="#000" stroke-width="2" stroke-linecap="round" stroke-linejoin="round" d="M6.25,80.175L63.05,80.175 63.225,79.95 78.05,59.425 78.05,58.05"/><path fill="none" stroke="#000" stroke-width="2" stroke-linecap="round" stroke-linejoin="round" d="M78.05,59.425L78.55,58.75"/><path fill="none" stroke="#000" stroke-width="2" stroke-linecap="round" stroke-linejoin="round" d="M63.225,79.95L63.3,82.15"/><path fill="none" stroke="#000" stroke-width="2" stroke-linecap="round" stroke-linejoin="round" d="M56.525,83.2L50.45,118.7 66.95,118.7 63.25,83.2"/>
</symbol></defs><g id="Escena_1_f250" overflow="visible"><path fill="#FC0" d="M368.95,-2L44,-2 44,160 368.95,160 368.95,-2"/><path fill="#900" d="M368.95,289L368.95,160 44,160 44,161 -12.275,218.75 -16,223 -17,223 -17,289 368.95,289"/><path fill="#FC0" d="M44,161L44,160 44,-2 -17,-2 -17,218.75 -12.275,218.75 44,161"/><path fill="none" stroke="#000" stroke-linecap="round" stroke-linejoin="round" d="M-17,-2L44,-2M-17,218.75L-17,-2M-17,223L-17,218.75M-17,289L-17,223M368.95,289L-17,289M368.95,160L368.95,289M368.95,-2L368.95,160M44,-2L368.95,-2M44,-2L44,-3"/><path fill="none" stroke="#000" stroke-linecap="round" stroke-linejoin="round" d="M44,-2L44,160 368.95,160"/><path fill="none" stroke="#000" stroke-linecap="round" stroke-linejoin="round" d="M44,160L44,161 -12.275,218.75 -16,223"/><use xlink:href="#Silla" transform="matrix(1 0 0 1 112 80.85)"/><use xlink:href="#Silla" transform="matrix(1 0 0 1 236.75 80.85)"/><g id="Mesa" transform="matrix(1.043 0 0 1.3 18 118.85)" opacity="0.14"><path fill="#C96" d="M327.075,-0.1L311.475,-0.1 311.475,4.4Q311.094,5.65 306,17 301.107,28.8 301.1,33.5 301.103,41.55 302.1,46.3 302.4,47.6 305.425,57.9L325.325,57.9 326.825,56.925Q325.654,54.24 323.6,51.35 320.222,46.55 320,46.2 316.023,39.75 316.025,29.4 316.027,24.35 317.975,20.2 319.145,17.75 322.175,13.8 325.107,10 326.05,7.75 327.566,4.207 327.075,-0.1"/><path fill="#C96" d="M89.25,34.45Q89.25,29.75 83.6,17.95 77.7,6.6 77.25,5.35L77.25,0.85 59.225,0.85Q58.653,5.157 60.4,8.7 61.5,10.95 64.9,14.75 68.4,18.7 69.75,21.15 72,25.3 72,30.35 72,40.7 67.4,47.15 67.15,47.5 63.25,52.3 60.864,55.19 59.5,57.875L61.25,58.85 84.25,58.85Q87.75,48.55 88.1,47.25 89.25,42.5 89.25,34.45"/><path fill="none" stroke="#000" stroke-linecap="round" stroke-linejoin="round" d="M311.475,4.4L311.475,-0.1M306,17Q311.094,5.65 311.475,4.4M301.1,33.5Q301.107,28.8 306,17M302.1,46.3Q301.103,41.55 301.1,33.5M305.425,57.9Q302.4,47.6 302.1,46.3M325.325,57.9L305.425,57.9M327.05,57.4L325.325,57.9M326.825,56.925Q326.946,57.161 327.05,57.4M323.6,51.35Q325.654,54.24 326.825,56.925M320,46.2Q320.222,46.55 323.6,51.35M316.025,29.4Q316.023,39.75 320,46.2M317.975,20.2Q316.027,24.35 316.025,29.4M322.175,13.8Q319.145,17.75 317.975,20.2M326.05,7.75Q325.107,10 322.175,13.8M327.075,-0.1Q327.566,4.207 326.05,7.75M327.475,-0.1L327.075,-0.1"/><path fill="none" stroke="#000" stroke-linecap="round" stroke-linejoin="round" d="M77.25,5.35Q77.7,6.6 83.6,17.95M77.25,0.85L77.25,5.35M59.225,0.85L58.75,0.85M60.4,8.7Q58.653,5.157 59.225,0.85M64.9,14.75Q61.5,10.95 60.4,8.7M69.75,21.15Q68.4,18.7 64.9,14.75M72,30.35Q72,25.3 69.75,21.15M67.4,47.15Q72,40.7 72,30.35M63.25,52.3Q67.15,47.5 67.4,47.15M59.5,57.875Q60.864,55.19 63.25,52.3M59.25,58.35Q59.365,58.111 59.5,57.875M61.25,58.85L59.25,58.35M84.25,58.85L61.25,58.85M88.1,47.25Q87.75,48.55 84.25,58.85M89.25,34.45Q89.25,42.5 88.1,47.25M83.6,17.95Q89.25,29.75 89.25,34.45"/><path fill="#C96" d="M327.1,0.825L327,0 61,0 0.5,58.525 0.55,59 9,59 266.95,59 266.975,58.975 325.725,2.15 327.1,0.825"/><path fill="#990" d="M325.725,2.15L327.5,4 327.1,0.825 325.725,2.15"/><path fill="#C96" d="M327.5,4L325.725,2.15 266.975,58.975 266.975,59 269.225,61.3 327.5,4"/><path fill="#990" d="M269.225,61.3L266.975,59 267.5,63 269.225,61.3"/><path fill="#C96" stroke-linecap="round" stroke-linejoin="round" d="M251.1,63.8L251.1,63.25 251.05,63.25 251.1,63.8"/><path fill="#990" d="M0.5,58.525L0.5,59 0.55,59 0.5,58.525"/><path fill="#C96" d="M266.975,59L266.95,59 9,59 0.55,59 0.8,61.225 0.875,61.95Q0.94,62.456 1,62.95L1,63 1.475,63 19.5,63 19.5,62.5 19.5,63 250.975,63 266.975,63 266.975,59"/><path fill="#C96" d="M266.3,70.85Q267.893,67.307 267.375,63L266.975,63 250.975,63 250.975,64.2 250.975,64.25 251.1,63.8 251.05,63.25 251.1,63.25 251.1,63.8 250.975,64.25 250.975,67.5Q250.568,68.75 245.2,80.1 240.054,91.9 240.05,96.6 240.052,104.65 241.1,109.4 241.416,110.7 244.6,121L265.525,121 267.125,120.025Q265.877,117.34 263.7,114.45 260.152,109.65 259.925,109.3 255.744,102.85 255.75,92.5 255.751,87.45 257.8,83.3 259.022,80.85 262.2,76.9 265.296,73.1 266.3,70.85"/><path fill="#C96" d="M1.475,63Q0.903,67.307 2.65,70.85 3.75,73.1 7.15,76.9 10.65,80.85 12,83.3 14.25,87.45 14.25,92.5 14.25,102.85 9.65,109.3 9.4,109.65 5.5,114.45 3.114,117.34 1.75,120.025L3.5,121 26.5,121Q30,110.7 30.35,109.4 31.5,104.65 31.5,96.6 31.5,91.9 25.85,80.1 19.95,68.75 19.5,67.5L19.5,63 1.475,63"/><path fill="none" stroke="#000" stroke-linecap="round" stroke-linejoin="round" d="M61,0L327,0M0.5,58.525L61,0M0,59L0.5,58.525M0.5,59L0,59M0.8,61.225L0.5,59M0.875,61.95L0.8,61.225M1,62.95Q0.94,62.456 0.875,61.95M1.475,63L1,63M2.65,70.85Q0.903,67.307 1.475,63M7.15,76.9Q3.75,73.1 2.65,70.85M12,83.3Q10.65,80.85 7.15,76.9M14.25,92.5Q14.25,87.45 12,83.3M9.65,109.3Q14.25,102.85 14.25,92.5M5.5,114.45Q9.4,109.65 9.65,109.3M1.75,120.025Q3.114,117.34 5.5,114.45M1.5,120.5Q1.615,120.261 1.75,120.025M3.5,121L1.5,120.5M26.5,121L3.5,121M30.35,109.4Q30,110.7 26.5,121M31.5,96.6Q31.5,104.65 30.35,109.4M25.85,80.1Q31.5,91.9 31.5,96.6M19.5,67.5Q19.95,68.75 25.85,80.1M19.5,63L19.5,67.5M250.975,63L19.5,63M250.975,64.2L250.5,68M245.2,80.1Q250.568,68.75 250.975,67.5M240.05,96.6Q240.054,91.9 245.2,80.1M241.1,109.4Q240.052,104.65 240.05,96.6M244.6,121Q241.416,110.7 241.1,109.4M265.525,121L244.6,121M263.7,114.45Q265.877,117.34 267.125,120.025M259.925,109.3Q260.152,109.65 263.7,114.45M255.75,92.5Q255.744,102.85 259.925,109.3M257.8,83.3Q255.751,87.45 255.75,92.5M262.2,76.9Q259.022,80.85 257.8,83.3M266.3,70.85Q265.296,73.1 262.2,76.9M267.375,63Q267.893,67.307 266.3,70.85M267.5,63L267.375,63M269.225,61.3L267.5,63M327.5,4L269.225,61.3M327.1,0.825L327.5,4M327.95,0L327.1,0.825M327,0L327.95,0"/><path fill="none" stroke="#000" stroke-linecap="round" stroke-linejoin="round" d="M327,0L327.1,0.825"/><path fill="none" stroke="#000" stroke-linecap="round" stroke-linejoin="round" d="M0.55,59L9,59 266.95,59 266.975,58.975 325.725,2.15 327.1,0.825"/><path fill="none" stroke="#000" stroke-linecap="round" stroke-linejoin="round" d="M266.975,58.975L266.975,59"/><path fill="none" stroke="#000" stroke-linecap="round" stroke-linejoin="round" d="M266.975,59L267.5,63"/><path fill="none" stroke="#000" stroke-linecap="round" stroke-linejoin="round" d="M266.975,63L267.375,63"/><path fill="none" stroke="#000" stroke-linecap="round" stroke-linejoin="round" d="M251.1,63.8L251.1,63.25 251.05,63.25 251.1,63.8"/><path fill="none" stroke="#000" stroke-linecap="round" stroke-linejoin="round" d="M0.5,59L0.5,58.525"/><path fill="none" stroke="#000" stroke-linecap="round" stroke-linejoin="round" d="M0.5,59L0.55,59"/><path fill="none" stroke="#000" stroke-linecap="round" stroke-linejoin="round" d="M1.475,63L19.5,63 19.5,62.5M250.975,63L266.975,63"/><path fill="none" stroke="#000" stroke-linecap="round" stroke-linejoin="round" d="M250.975,64.25L251.1,63.8"/></g><use xlink:href="#Silla_atras" transform="matrix(1 0 0 1 44 179.15)"/><use xlink:href="#Silla_atras" transform="matrix(1 0 0 1 179.05 179.15)"/></g></svg>