<?xml version="1.0" standalone="no"?>
<!DOCTYPE svg PUBLIC "-//W3C//DTD SVG 20010904//EN" "http://www.w3.org/TR/2001/REC-SVG-20010904/DTD/svg10.dtd">
<!-- Created using Krita: https://krita.org -->
<svg xmlns="http://www.w3.org/2000/svg" 
    xmlns:xlink="http://www.w3.org/1999/xlink"
    xmlns:krita="http://krita.org/namespaces/svg/krita"
    xmlns:sodipodi="http://sodipodi.sourceforge.net/DTD/sodipodi-0.dtd"
    width="600pt"
    height="600pt"
    viewBox="0 0 600 600">
<defs/>
<rect id="shape0" fill="#f2f2f2" fill-rule="evenodd" stroke-opacity="0" stroke="#000000" stroke-width="0" stroke-linecap="square" stroke-linejoin="bevel" width="600" height="600"/><path id="shape01" transform="translate(405.379367565982, -15.0253360572221)" fill="none" stroke="#000000" stroke-width="1.5" stroke-linecap="square" stroke-linejoin="bevel" d="M3.12391 116.004C2.0289 116.004 -0.630517 117.932 0.464494 117.932C3.46007 117.932 11.4996 106.962 13.7616 104.901C25.5067 94.2011 38.0248 84.2354 50.3957 74.3175C77.0542 52.9451 105.598 33.7031 133.769 14.4129C136.931 12.2481 160.063 -2.31966 163.688 0.318172C164.765 1.10207 155.14 8.70904 154.446 9.29398C143.528 18.5019 130.502 27.4628 118.544 35.2897C89.6295 54.2146 62.5234 75.1585 35.5027 96.5903C32.5288 98.9491 29.2507 101.028 26.3936 103.504C18.6704 110.198 9.34144 122.81 0.131976 127.44C-0.565512 127.791 1.69198 127.028 2.45887 127.174" sodipodi:nodetypes="cccccccccccc"/><path id="shape1" transform="translate(417.412430822685, 52.4926091504796)" fill="none" stroke="#000000" stroke-width="1.5" stroke-linecap="square" stroke-linejoin="bevel" d="M0 165.169C0 160.669 4.96158 157.925 7.97825 154.931C15.3479 147.616 23.7992 141.33 31.5146 134.386C63.584 105.525 96.5603 82.1511 130.246 55.2015C143.85 44.3183 163.709 27.0925 178.582 18.7665C184.263 15.5861 189.366 9.25153 194.073 4.87033C194.571 4.4065 198.965 0.892371 198.594 0.149881C198.221 -0.597324 197.781 1.64977 197.663 2.47678" sodipodi:nodetypes="cccccccc"/><path id="shape2" transform="translate(435.739384671428, 80.8315161515896)" fill="none" stroke="#000000" stroke-width="1.5" stroke-linecap="square" stroke-linejoin="bevel" d="M0.0230895 116.287C-0.170285 116.625 0.909424 107.504 1.08656 104.784C1.59196 97.0247 3.16612 89.3626 3.41419 81.5802C4.09566 60.2016 4.25961 38.8665 4.61097 17.4876C4.65145 15.0246 3.95522 -0.190581 7.60217 0.00180865C15.4231 0.414392 13.3493 18.3876 13.8519 22.7405C15.9151 40.609 12.2413 58.9723 11.5917 76.7938C11.4318 81.1795 11.9235 98.8856 9.99572 102.258C9.46767 103.182 11.0793 100.391 11.8575 99.6651" sodipodi:nodetypes="ccccccccc"/><path id="shape3" transform="translate(486.225459517815, 39.445959620183)" fill="none" stroke="#000000" stroke-width="1.5" stroke-linecap="square" stroke-linejoin="bevel" d="M0 114.589C0 116.143 0.0494326 111.473 0.265868 109.935C0.621966 107.403 1.14563 104.892 1.46264 102.355C2.43012 94.6156 3.51441 86.8897 3.78954 79.085C4.49729 59.0078 4.05541 38.3969 4.05541 18.2502C4.05541 11.7748 2.89912 1.08539 11.0368 0.0327513C17.9391 -0.860078 14.6202 16.7734 14.4939 19.7129C13.6022 40.4483 10.3528 60.9834 9.57419 81.6785C9.36425 87.2587 10.5823 93.2981 9.37424 98.8318C9.37199 98.8421 7.52634 108.406 8.17747 108.406C9.29628 108.406 9.47867 106.581 10.0393 105.613" sodipodi:nodetypes="ccccccccccc"/><path id="shape4" transform="translate(542.07392698624, 5.52017807262199)" fill="none" stroke="#000000" stroke-width="1.5" stroke-linecap="square" stroke-linejoin="bevel" d="M0 100.046C0 82.7253 0.18134 65.2867 0.730955 47.9206C1.00279 39.3316 -0.49743 30.8681 0.730955 22.1907C1.12574 19.4019 1.9481 16.8961 2.06103 14.0792C2.10589 12.9601 3.04689 0.354758 4.58788 0.11708C14.3045 -1.38158 13.0848 11.8918 12.632 17.9354C11.1232 38.0771 7.41754 58.1044 5.78392 78.2384C5.47386 82.0598 5.96888 85.8633 5.65135 89.6744C5.60472 90.2342 4.67815 95.555 5.45213 95.7242C8.09433 96.3018 9.90027 92.8936 11.1694 91.6022" sodipodi:nodetypes="cccccccccc"/><path id="shape5" transform="translate(591.103736574604, -16.3778749153684)" fill="none" stroke="#000000" stroke-width="1.5" stroke-linecap="square" stroke-linejoin="bevel" d="M1.63239 83.2491C1.63239 85.3856 1.69965 65.0674 1.10066 60.5778C-1.07708 44.2548 0.203179 29.3066 2.96247 13.3059C3.71762 8.92693 2.51353 0.488102 9.2122 0.00811835C14.9777 -0.405002 13.9793 15.0746 13.3343 17.6939C9.44763 33.4758 7.03107 49.66 6.35284 65.8966C6.21965 69.0851 4.25983 84.5428 8.08208 80.9222" sodipodi:nodetypes="ccccccc"/><path id="shape6" transform="translate(389.222328734973, 140.615156900169)" fill="none" stroke="#000000" stroke-width="1.5" stroke-linecap="square" stroke-linejoin="bevel" d="M0 55.7046C3.09708 41.725 3.87817 27.0337 5.91722 12.7548C6.14683 11.1469 6.13336 -0.920355 9.30759 0.0561255C11.7593 0.810344 11.5271 11.8249 11.3027 13.6191C9.59497 27.2746 8.37668 42.2447 8.37668 56.0372C8.37668 57.98 10.1065 52.4692 11.5019 51.1175" sodipodi:nodetypes="cccccc"/><path id="shape7" transform="translate(525.385743971131, 180.229758126725)" fill="none" stroke="#000000" stroke-width="1.5" stroke-linecap="square" stroke-linejoin="bevel" d="M0 66.1546C0 65.7682 14.7422 54.8684 16.6882 53.2559C32.8066 39.9001 50.5855 28.5011 66.4861 14.7607C67.3243 14.0364 84.4647 -0.0677506 84.7036 0.000245056" sodipodi:nodetypes="cccc"/><path id="shape8" transform="translate(-3.977190758604, -18.5633535859197)" fill="none" stroke="#000000" stroke-width="1.5" stroke-linecap="square" stroke-linejoin="bevel" d="M47.9361 188.356C47.9361 189.678 49.2446 170.456 49.3988 166.083C50.0168 148.552 51.9625 131.089 52.6566 113.558C53.9674 80.4525 60.9854 35.9263 30.0512 13.1645C21.025 6.52289 7.82447 8.21677 0 0" sodipodi:nodetypes="ccccc"/><path id="shape9" transform="translate(527.233228303791, 341.991487164343)" fill="none" stroke="#000000" stroke-width="1.5" stroke-linecap="square" stroke-linejoin="bevel" d="M87.9757 0C90.0703 0 75.7293 3.19794 72.6835 3.2578C61.7848 3.47201 51.5673 0.503683 40.438 1.59521C10.2013 4.56075 -0.447576 30.5355 0.0143266 58.6405C0.274256 74.4561 4.86614 87.9974 6.46328 103.452C7.86164 116.983 6.06485 130.573 6.06485 144.142C6.06485 157.054 7.80595 169.638 6.39663 182.571C5.41347 191.593 7.12832 200.805 7.12832 209.897C7.12832 213.58 5.79358 219.296 7.99257 222.596C9.29579 224.551 12.2779 225.42 14.3756 226.119C16.881 226.954 16.8726 214.356 17.6993 212.423C17.8705 212.023 18.5356 212.176 18.9628 212.091C21.4723 211.594 31.4523 217.484 34.5867 218.939C44.4152 223.503 53.1034 230.369 62.9768 234.962C66.1037 236.417 69.898 236.797 72.8828 238.552C74.9102 239.744 79.6974 244.857 81.3268 245.4C82.1606 245.678 81.1981 237.467 81.1943 237.422" sodipodi:nodetypes="ccccccccccccccccc"/><path id="shape10" transform="translate(553.991975084638, 367.791679885871)" fill="none" stroke="#000000" stroke-width="1.5" stroke-linecap="square" stroke-linejoin="bevel" d="M3.83923 0.0630119C3.4613 -0.503877 4.43895 2.9249 4.70348 3.52003C5.97627 6.38352 5.46558 9.57793 7.2296 12.3625C11.8972 19.7306 10.2952 29.8872 9.42393 38.1591C7.75208 54.0309 1.53851 69.1237 0.581426 84.9658C-0.0242096 94.9906 1.23768 105.153 0.648077 115.15C0.410993 119.17 -0.721013 137.814 0.713994 140.681C1.47682 142.205 3.2331 146.927 4.70348 147.662C10.0956 150.358 17.0349 151.933 22.921 153.513C27.7082 154.798 46.7914 166.585 50.5127 165.613C52.3473 165.134 53.2587 162.99 54.5014 161.558" sodipodi:nodetypes="ccccccccccc"/><path id="shape11" transform="translate(553.470676151913, 443.453829644409)" fill="none" stroke="#000000" stroke-width="1.5" stroke-linecap="square" stroke-linejoin="bevel" d="M1.30194 15.2876C-2.25906 16.1754 2.45137 8.75579 3.96136 7.44188C8.949 3.10189 17.2222 0.877118 23.7748 0.128666C32.8731 -0.910568 41.2456 4.62455 49.8372 6.71092C51.2354 7.05047 63.3163 11.067 58.7464 9.23704" sodipodi:nodetypes="ccccc"/><path id="shape12" transform="translate(564.098349606931, 456.547056216093)" fill="none" stroke="#000000" stroke-width="1.5" stroke-linecap="square" stroke-linejoin="bevel" d="M0.0492425 0C-1.15802 3.32245 20.2017 6.29297 23.6515 6.84812C30.2609 7.91176 37.0936 8.90043 43.3982 11.2361C44.2778 11.5619 48.5099 15.0585 49.5147 13.9621C50.2613 13.1475 51.164 10.5768 51.3098 10.2392" sodipodi:nodetypes="ccccc"/><path id="shape13" transform="translate(539.63408442444, 394.1300212127)" fill="none" stroke="#000000" stroke-width="1.5" stroke-linecap="square" stroke-linejoin="bevel" d="M1.84146 3.44407C-1.40991 2.42745 1.51366 10.1468 3.1708 8.69625C5.21177 6.90969 4.93961 -1.75635 2.17397 0.31883C-0.325133 2.19402 -0.914985 6.06601 1.70816 7.56612" sodipodi:nodetypes="cccc"/><path id="shape14" transform="translate(540.913369524515, 387.468159167465)" fill="none" stroke="#000000" stroke-width="1.5" stroke-linecap="square" stroke-linejoin="bevel" d="M1.16056 0C-1.76607 0 0.792474 19.7143 9.40468 10.2385" sodipodi:nodetypes="cc"/><path id="shape15" transform="translate(541.265059082028, 397.308272738106)" fill="none" stroke="#000000" stroke-width="1.5" stroke-linecap="square" stroke-linejoin="bevel" d="M9.05298 0.398382C0.946915 -3.167 -2.7684 18.4445 2.33816 15.7565" sodipodi:nodetypes="cc"/><path id="shape16" transform="translate(405.612876789111, 182.758501063628)" fill="none" stroke="#000000" stroke-width="1.5" stroke-linecap="square" stroke-linejoin="bevel" d="M0.363553 19.4785C-1.06012 20.0492 2.14198 18.3185 2.35867 18.2158C4.01135 17.4331 5.83616 15.5882 7.14503 14.3596C10.1104 11.5763 25.8336 -3.11312 26.7585 0.596737" sodipodi:nodetypes="cccc"/><path id="shape17" transform="translate(446.267570004, 139.607076574749)" fill="none" stroke="#000000" stroke-width="1.5" stroke-linecap="square" stroke-linejoin="bevel" d="M0 31.3153C1.40496 31.3153 7.40026 24.2929 8.8425 23.2038C14.4396 18.977 35.5129 1.57149 39.692 0" sodipodi:nodetypes="ccc"/><path id="shape18" transform="translate(495.128209054124, 99.2500183208315)" fill="none" stroke="#000000" stroke-width="1.5" stroke-linecap="square" stroke-linejoin="bevel" d="M0.00640378 34.7724C-0.296913 35.6806 10.2615 25.7998 13.2368 23.8022C19.2208 19.7846 37.7681 1.75159 43.0229 0" sodipodi:nodetypes="ccc"/><path id="shape19" transform="translate(545.530948001439, 59.81335505784)" fill="none" stroke="#000000" stroke-width="1.5" stroke-linecap="square" stroke-linejoin="bevel" d="M0 35.5138C0 35.5617 3.50813 32.2748 4.38866 31.4584C7.12502 28.9213 10.1592 26.6572 13.0312 24.2778C21.0083 17.6689 29.7192 11.9509 38.0302 5.86108C40.2089 4.26463 42.5856 -0.246052 45.1442 0.0105105" sodipodi:nodetypes="ccccc"/><path id="shape20" transform="translate(358.970440443001, 368.840328997597)" fill="none" stroke="#000000" stroke-width="1.5" stroke-linecap="square" stroke-linejoin="bevel" d="M30.2519 0.144487C30.2519 -0.77918 26.6487 3.02078 26.4616 3.20307C24.3006 5.30917 22.502 7.2629 20.0127 9.05364C15.287 12.4531 11.2795 16.6729 6.64893 20.2897C5.63682 21.0802 -1.44896 25.1564 0.266625 26.8719" sodipodi:nodetypes="ccccc"/><path id="shape171" transform="translate(109.213678320478, 416.283814297563)" fill="none" stroke="#000000" stroke-width="1.5" stroke-linecap="square" stroke-linejoin="bevel" d="M0 2.65942C2.63397 9.26616 8.51141 15.5251 14.2946 19.6135C18.0838 22.2922 20.7617 26.0316 24.9982 28.0575C46.0318 38.116 50.0494 32.9193 57.8428 10.5051C58.9731 7.25446 58.0275 2.90942 59.7706 0" sodipodi:nodetypes="ccccc"/><path id="shape31" transform="translate(94.7959746083456, 240.627359544884)" fill="#000000" stroke="#000000" stroke-width="1.5" stroke-linecap="square" stroke-linejoin="bevel" d="M54.3756 5.9841C47.5766 5.9841 63.9424 1.07278 65.4791 0.86449C73.6907 -0.248588 82.946 -0.670578 90.8764 1.99461C115.303 10.2036 133.542 26.1632 145.994 48.8673C152.278 60.3251 156.964 94.384 154.105 107.243C153.379 110.506 151.178 103.488 151.047 102.788C150.898 101.993 150.648 99.5856 150.648 100.394C150.648 104.744 147.32 137.766 145.728 140.951C143.954 144.5 138.285 134.325 141.605 133.77C145.273 133.158 140.662 141.952 140.672 144.264C140.201 146.727 133.151 151.157 131.965 153.649C129.207 159.446 127.178 169.883 127.178 176.321C127.178 177.907 125.522 173.612 124.585 172.333C118.931 164.607 116.706 162.304 116.607 162.426C112.496 167.485 108.971 174.664 107.432 180.909C107.247 181.659 107.559 185.899 106.767 186.361C102.861 188.638 92.3578 166.174 92.1399 166.282C91.9995 166.352 94.4321 180.044 94.2009 179.978C90.0491 178.795 87.3093 176.543 85.0701 173.859C83.0325 172.767 80.447 167.666 76.1964 167.559C72.8414 167.475 72.3289 175.349 67.7458 172.519C65.4632 171.109 63.8393 162.718 62.2571 162.599C58.5504 162.321 57.0688 172.167 52.4902 170.591C47.5703 168.898 49.2159 162.392 46.1669 159.343C44.5947 157.771 38.1049 168.001 36.6468 168.299C35.2367 168.588 32.3142 157.078 32.78 153.502C32.9246 152.392 30.8831 154.713 30.0651 155.477C29.247 156.24 36.9676 145.856 24.9887 160.232C13.0098 174.608 22.7465 160.349 22.1301 150.858C21.9704 148.4 21.0084 149.54 19.8032 150.659C17.5645 152.737 18.4331 152.064 16.3454 154.98C14.9423 156.94 12.7525 159.634 11.5583 161.695C10.4862 163.545 9.95634 165.693 8.89891 167.546C8.56852 168.125 8.90738 166.206 9.03221 165.551C9.40634 163.589 9.98216 161.665 10.3616 159.7C12.1 150.699 13.5044 141.252 12.1567 132.109C11.8996 130.364 12.3232 126.056 10.8274 126.989C7.15507 129.28 10.913 145.086 5.90698 145.472C3.60021 145.65 7.62625 140.862 7.03784 138.624C5.96251 134.535 2.37709 131.47 1.65235 127.122C-1.96379 105.429 0.498936 79.423 7.63622 58.8406C13.0298 43.2866 21.042 28.731 34.3637 18.6161C39.9488 14.3754 58.3633 8.11759 58.6309 6.38254" sodipodi:nodetypes="ccccccccccccccccccccccccccccccccccccccccccc"/><path id="shape191" transform="translate(112.504630877187, 410.985340378571)" fill="#ffffff" stroke="#000000" stroke-width="1.5" stroke-linecap="square" stroke-linejoin="bevel" d="M56.4796 5.29847C58.0926 10.4297 49.0349 6.29751 50.0973 6.82776C51.1598 7.35802 10.9911 3.07742 16.5217 0.31216C22.0523 -2.4531 -3.86948 14.074 0.498588 13.6759" sodipodi:nodetypes="cccc"/><path id="shape161" transform="translate(127.784367062051, 369.546965759007)" fill="#ffffff" stroke="#000000" stroke-width="1.5" stroke-linecap="square" stroke-linejoin="bevel" d="M33.0224 53.8508C29.8075 53.839 38.2224 35.7881 40.5107 34.2625C42.7989 32.737 2.37965 -1.68055 9.55276 0.0641351C16.7259 1.80883 5.30206 28.6801 4.4998 35.3015C4.08785 38.7016 -1.26643 45.9332 0.279367 45.5457" sodipodi:nodetypes="ccccc"/><path id="shape02" transform="translate(127.623978508816, 294.941019886397)" fill="#ffffff" stroke="#000000" stroke-width="1.5" stroke-linecap="square" stroke-linejoin="bevel" d="M9.71316 74.6701C-7.47728 75.572 1.42047 35.0186 11.375 33.9139C12.1491 33.828 10.4123 45.7745 10.4448 47.211C10.6214 55.0045 8.19054 72.0299 11.7742 78.5922C12.8931 80.6412 13.3589 74.2 14.1677 72.01C15.7771 67.6524 17.2513 62.9931 19.354 58.8462C26.2076 45.3299 32.3115 25.6069 44.153 15.5638C44.4797 15.2868 42.8694 47.9785 45.1506 48.7403C46.6084 49.2271 46.3473 41.9421 46.3473 41.3604C46.3473 36.0803 47.3472 31.674 48.6742 26.5999C50.7516 18.6568 53.7959 8.60403 59.9769 2.79847C60.8858 1.94483 65.9488 0.626225 66.16 0.20497C66.16 -0.811988 62.8588 2.2219 64.099 3.46277C68.4302 7.79647 72.8182 9.34385 76.1326 15.2972C82.2586 26.3007 82.449 41.6839 82.449 53.9924C82.449 55.5526 82.9791 50.9131 83.3799 49.4053C84.6436 44.651 86.6974 40.2244 88.7654 35.7757C89.5778 34.028 90.5068 29.2679 91.6907 30.7886C97.4895 38.2378 102.86 62.7692 98.5389 71.4119C96.3268 75.3948 94.3031 80.9991 91.5574 84.7094C87.0582 90.7891 68.6649 111.497 60.7079 112.634C49.4684 114.239 33.3394 108.566 24.6062 102.062C21.8608 100.017 13.0589 89.2965 13.9685 89.2965" sodipodi:nodetypes="ccccccccccccccccccccccc"/><path id="shape41" transform="translate(177.324975921733, 321.827866496383)" fill="none" stroke="#000000" stroke-width="1.5" stroke-linecap="square" stroke-linejoin="bevel" d="M13.5337 0.0455827C12.3078 3.12044 8.60008 5.50948 6.61968 8.35635C6.15616 9.02268 -1.42092 20.5571 0.236644 20.7233C4.42561 21.1431 12.3072 4.76036 13.7996 1.57488C15.3022 -1.63237 11.9275 0.798117 12.0711 2.37248" sodipodi:nodetypes="ccccc"/><path id="shape51" transform="translate(153.726598315575, 348.372619631006)" fill="none" stroke="#000000" stroke-width="1.5" stroke-linecap="square" stroke-linejoin="bevel" d="M0.298715 25.6264C0.527002 21.0707 14.1603 -0.907634 16.8543 0.0290716C17.6706 0.312904 17.6036 1.4262 17.6519 2.02345C18.3222 10.3007 9.54992 12.2744 5.88415 17.3156C3.04128 21.2252 0.567605 28.0222 0.432015 27.8867C-1.26415 26.1905 2.49574 23.5451 3.75647 21.5043" sodipodi:nodetypes="cccccc"/><path id="shape61" transform="translate(193.65138336743, 326.128807771525)" fill="none" stroke="#000000" stroke-width="1.5" stroke-linecap="square" stroke-linejoin="bevel" d="M8.1775 3.2578C1.20313 -0.495354 -2.66892 21.4657 2.12772 24.6664C4.59354 26.3118 9.39021 16.6434 9.70679 15.2915C10.6325 11.3386 5.34258 1.4554 10.4385 0" sodipodi:nodetypes="cccc"/><path id="shape71" transform="translate(195.978314024617, 339.21517082815)" fill="none" stroke="#000000" stroke-width="1.5" stroke-linecap="square" stroke-linejoin="bevel" d="M0 0.875752C1.2659 1.96053 1.45172 4.6067 3.3911 4.86524C14.12 6.2955 -0.866888 -5.25676 4.52123 3.00343" sodipodi:nodetypes="ccc"/><path id="shape81" transform="translate(161.006737873403, 364.003018569419)" fill="none" stroke="#000000" stroke-width="1.5" stroke-linecap="square" stroke-linejoin="bevel" d="M0 22.9606C0 17.438 22.5653 -2.63095 27.6584 0.28852C28.96 1.03465 26.4224 4.11428 26.1291 4.47723C21.4769 10.2328 16.7371 15.4083 9.84006 18.3068C5.63926 20.0721 2.59051 23.2264 2.65942 23.2264" sodipodi:nodetypes="ccccc"/><path id="shape91" transform="translate(175.602737655041, 367.009093399536)" fill="none" stroke="#000000" stroke-width="1.5" stroke-linecap="square" stroke-linejoin="bevel" d="M4.55164 1.6711C4.55164 1.7503 -2.93358 7.50738 1.29384 9.11761C3.58526 9.99042 8.47203 2.57105 7.34436 0.540246C5.98711 -1.904 1.07381 4.64126 0.961329 6.3249" sodipodi:nodetypes="cccc"/><path id="shape101" transform="translate(188.259076895854, 351.405926913206)" fill="none" stroke="#000000" stroke-width="1.5" stroke-linecap="square" stroke-linejoin="bevel" d="M0.272726 2.84633C-1.10264 4.22423 3.13791 4.06788 3.7964 4.04311C7.86664 3.88998 12.0984 2.71202 15.9634 1.45034C16.9261 1.13605 18.3031 -0.652291 18.7561 0.253568C19.9406 2.62256 15.4983 4.85224 15.4983 7.50086" sodipodi:nodetypes="ccccc"/><path id="shape111" transform="translate(205.63105915979, 359.945036819885)" fill="none" stroke="#000000" stroke-width="1.5" stroke-linecap="square" stroke-linejoin="bevel" d="M1.18487 13.9873C-2.39441 13.9873 3.07267 2.73825 5.24028 1.62117C6.2891 1.08065 7.66323 0.201928 8.89725 0.0252237C12.9934 -0.561326 6.43705 9.29433 6.43705 7.47173" sodipodi:nodetypes="cccc"/><path id="shape121" transform="translate(192.431086671728, 324.424130595307)" fill="none" stroke="#000000" stroke-width="1.5" stroke-linecap="square" stroke-linejoin="bevel" d="M5.80748 0.907071C5.80748 -2.63648 1.64517 5.3394 1.61951 5.42756C0.0559859 10.7973 -1.71177 19.828 3.34802 23.2459" sodipodi:nodetypes="ccc"/><path id="shape131" transform="translate(161.006737873403, 362.29715772334)" fill="none" stroke="#000000" stroke-width="1.5" stroke-linecap="square" stroke-linejoin="bevel" d="M24.5331 0C14.0652 0 3.86079 10.7726 0 19.946" sodipodi:nodetypes="cc"/><path id="shape201" transform="translate(28.2041457454216, 417.359126938615)" fill="none" stroke="#000000" stroke-width="1.5" stroke-linecap="square" stroke-linejoin="bevel" d="M81.0095 1.58409C85.1601 -4.36948 69.5739 8.23781 67.5125 10.1615C57.7925 19.232 50.9211 28.9153 42.7135 39.415C29.4967 56.3229 22.592 73.4011 16.2519 93.4683C15.2343 96.6891 16.1983 101.081 15.321 103.708C11.6938 114.569 2.67197 122.173 0.827153 135.089C-1.36837 150.461 0.0663405 161.624 14.3235 169.395" sodipodi:nodetypes="ccccccc"/><path id="shape21" transform="translate(168.9842533178, 413.774327118208)" fill="none" stroke="#000000" stroke-width="1.5" stroke-linecap="square" stroke-linejoin="bevel" d="M0 2.50949C0.288329 1.73385 0.561436 0.952392 0.864988 0.18259C1.25655 -0.8104 0.475498 2.53121 1.13086 3.37374C2.23184 4.78917 4.78584 6.71392 6.18382 7.7624C11.3683 11.6507 17.0639 14.5964 22.3395 18.4001C35.9431 28.208 57.8672 60.8177 62.6307 76.5754C65.3238 85.4844 69.0218 95.3413 70.9414 104.3C71.6235 107.484 72.1889 110.946 72.3374 114.206C72.3728 114.982 71.9571 118.293 72.6033 117.863" sodipodi:nodetypes="ccccccccc"/><path id="shape22" transform="translate(160.646839658562, 471.002158158689)" fill="none" stroke="#000000" stroke-width="1.5" stroke-linecap="square" stroke-linejoin="bevel" d="M33.4697 0C29.5424 3.92726 29.7423 10.6213 27.5379 16.1332C20.985 32.5183 12.9452 51.9743 5.74463 68.0821C4.28606 71.3449 -3.59535 86.1798 1.95509 88.5598" sodipodi:nodetypes="cccc"/><path id="shape23" transform="translate(63.8282812131691, 473.794874499993)" fill="none" stroke="#000000" stroke-width="1.5" stroke-linecap="square" stroke-linejoin="bevel" d="M39.6674 0C24.549 25.1603 10.5706 51.9351 2.76735 80.9133C1.30087 86.3593 -3.05901 107.019 3.56568 106.71" sodipodi:nodetypes="ccc"/><path id="shape24" transform="translate(195.836241496816, 480.110529630091)" fill="none" stroke="#000000" stroke-width="1.5" stroke-linecap="square" stroke-linejoin="bevel" d="M0.873027 0C-0.306875 0 0.00457353 0.257945 0.142072 1.33007C1.87989 14.8804 11.1627 26.0887 15.6994 38.6952C19.377 48.9144 9.80356 76.4745 12.2424 79.7173C13.4974 81.3861 18.0689 81.971 19.9548 82.51C38.1714 87.7161 44.7943 60.5276 52.2669 49.9979" sodipodi:nodetypes="cccccc"/><path id="shape25" transform="translate(198.197500039699, 555.506546648231)" fill="none" stroke="#000000" stroke-width="1.5" stroke-linecap="square" stroke-linejoin="bevel" d="M13.8699 4.91966C13.8699 3.68785 13.482 7.35326 13.3381 8.57663C13.0332 11.1692 11.7633 13.2646 10.4795 15.4907C8.80591 18.3927 -1.45317 31.9265 0.174363 34.6391C4.26495 41.4567 11.2661 24.2398 16.1309 26.0624C23.7802 28.9283 26.4689 40.1747 36.5419 38.4952C45.8344 36.9459 29.1626 29.9596 33.55 27.3258C36.1321 25.7759 45.0638 32.5601 49.9723 30.6496C54.139 29.0278 49.3686 26.2309 47.6454 25.5307C46.612 25.1108 43.7314 23.5451 44.5202 24.3339C45.9141 25.7279 54.6828 24.5498 55.1578 22.4055C55.7108 19.9095 52.5718 19.0492 50.7033 18.8151C49.8432 18.7074 47.2437 18.6159 48.1105 18.6159C49.3784 18.6159 54.4322 19.2271 54.6261 17.4858C55.077 13.4372 46.854 14.6235 43.6559 12.1003C39.3875 8.73261 35.8622 1.84132 41.7941 0" sodipodi:nodetypes="cccccccccccccccc"/><path id="shape26" transform="translate(32.876845391758, 576.183487385538)" fill="none" stroke="#000000" stroke-width="1.5" stroke-linecap="square" stroke-linejoin="bevel" d="M32.3228 0C21.3344 9.15365 10.6893 28.2629 4.73109 41.2213C3.72071 43.4188 -2.28097 54.4267 0.941549 55.9151" sodipodi:nodetypes="ccc"/><path id="shape27" transform="translate(166.724006103201, 542.009516294822)" fill="none" stroke="#000000" stroke-width="1.5" stroke-linecap="square" stroke-linejoin="bevel" d="M0 10.7043C9.63972 10.7043 31.1079 2.09434 41.8864 0" sodipodi:nodetypes="cc"/><path id="shape28" transform="translate(245.245470612955, 532.370242820305)" fill="none" stroke="#000000" stroke-width="1.5" stroke-linecap="square" stroke-linejoin="bevel" d="M0.39749 5.64979C-1.27783 6.48975 2.85963 4.61197 3.25685 4.45301C6.25501 3.25322 9.3538 2.20712 12.5644 1.52773C21.3609 -0.333668 33.6708 -1.45869 41.287 4.05458C65.9724 21.924 73.5396 50.9929 90.6199 74.4635" sodipodi:nodetypes="ccccc"/><path id="shape29" transform="translate(150.501642021496, 574.416744573385)" fill="none" stroke="#000000" stroke-width="1.5" stroke-linecap="square" stroke-linejoin="bevel" d="M0 28.8267C4.77853 28.8267 35.3143 8.09288 44.9442 4.29286C47.2628 3.37792 52.9726 -1.06574 55.5826 0.23745" sodipodi:nodetypes="ccc"/><path id="shape30" transform="translate(245.044575009835, 563.537834522967)" fill="none" stroke="#000000" stroke-width="1.5" stroke-linecap="square" stroke-linejoin="bevel" d="M0 2.3405C0 2.85395 1.72581 2.74861 2.19433 2.67302C5.81508 2.08886 19.3095 -2.15221 22.8713 1.4096C22.8732 1.41149 24.3231 7.05349 24.8664 7.99185C29.0269 15.1774 46.2733 40.8358 54.12 40.8358" sodipodi:nodetypes="ccccc"/><path id="shape311" transform="translate(74.3868710494463, 558.329109252133)" fill="none" stroke="#000000" stroke-width="1.5" stroke-linecap="square" stroke-linejoin="bevel" d="M88.2151 1.23284C89.373 -5.42741 88.377 16.9543 75.3164 19.3837C65.477 21.2139 54.7659 19.9195 45.3978 24.1041C36.7708 27.9577 31.7342 36.7026 21.1306 36.2711C16.7464 36.0927 -5.29947 27.293 1.18457 22.774" sodipodi:nodetypes="ccccc"/><path id="shape32" transform="translate(42.5037573597828, 568.271889714736)" fill="none" stroke="#000000" stroke-width="1.5" stroke-linecap="square" stroke-linejoin="bevel" d="M0.0238392 18.4826C-0.899966 15.9745 25.3046 3.74824 30.0758 0" sodipodi:nodetypes="cc"/><path id="shape33" transform="translate(109.159240351653, 480.690377287405)" fill="none" stroke="#000000" stroke-width="1.5" stroke-linecap="square" stroke-linejoin="bevel" d="M23.3908 5.13815C5.88966 5.13815 -8.01768 29.0404 5.30661 37.8495C13.7462 43.4291 23.9273 42.6572 33.1642 40.243C37.6154 39.0797 43.7744 36.3459 46.9271 32.9298C58.972 19.8787 42.7847 3.46132 29.7738 0.0851896C27.8477 -0.414602 20.697 1.34683 20.9972 3.74216" sodipodi:nodetypes="cccccc"/><path id="shape34" transform="translate(106.354311785872, 471.929664445549)" fill="none" stroke="#000000" stroke-width="1.5" stroke-linecap="square" stroke-linejoin="bevel" d="M0 60.7715C0 51.179 23.1729 22.0277 30.0519 13.8322C32.0746 11.4225 38.9612 0.497942 42.9506 0.00339917C44.792 -0.224882 43.156 11.1208 43.1498 11.1728C41.6893 23.4079 41.3986 36.7448 41.6871 49.0704C41.8011 53.9386 42.3446 58.8508 42.8173 63.6968C42.8598 64.1334 43.9474 72.3568 43.9474 69.2156" sodipodi:nodetypes="ccccccc"/><path id="shape35" transform="translate(101.708185833607, 497.597050125405)" fill="none" stroke="#000000" stroke-width="1.5" stroke-linecap="square" stroke-linejoin="bevel" d="M2.05338 8.64255C-7.91692 10.7464 21.5225 5.73279 24.127 5.25218C36.817 2.91058 47.6521 7.41768 60.0962 7.04734C67.5026 6.82693 69.2197 1.63939 73.9916 0" sodipodi:nodetypes="cccc"/><path id="shape03" transform="translate(450.942371777731, 257.899448392538)" fill="none" stroke="#000000" stroke-width="1.5" stroke-linecap="square" stroke-linejoin="bevel" d="M64.0926 0.245409C58.1135 -2.73591 63.3714 22.3896 63.6935 24.5127C63.9994 26.5291 64.2615 28.6372 63.8268 30.6298C63.1211 33.8642 60.368 36.3618 59.4381 39.539C57.5741 45.9077 59.8139 54.5217 58.9064 61.3461C57.4865 72.0221 52.0212 81.3372 50.3964 91.9297C49.4359 98.1915 49.9458 109.268 45.476 113.738C37.5039 121.71 11.4367 129.042 0 125.771" sodipodi:nodetypes="cccccccc"/><path id="shape72" transform="translate(472.531051998702, 314.609503335807)" fill="none" stroke="#000000" stroke-width="1.5" stroke-linecap="square" stroke-linejoin="bevel" d="M0.93997 0C-0.721345 0.554788 2.88711 7.41715 3.86525 8.1782C8.75935 11.986 26.6383 18.7059 28.7976 22.4062C29.7904 24.1076 25.1097 23.9758 23.1462 24.1347C20.5043 24.3485 -3.09761 26.25 0.341583 21.8744" sodipodi:nodetypes="ccccc"/><path id="shape82" transform="translate(477.491684555723, 332.893628891619)" fill="none" stroke="#000000" stroke-width="1.5" stroke-linecap="square" stroke-linejoin="bevel" d="M0.300612 0C-1.93118 0.742563 8.97513 5.05437 9.60893 2.52612C11.1389 -3.57713 -5.28721 4.83666 2.16242 0.864255" sodipodi:nodetypes="ccc"/><path id="shape122" transform="translate(399.31115536637, 305.283390517815)" fill="none" stroke="#000000" stroke-width="1.5" stroke-linecap="square" stroke-linejoin="bevel" d="M21.0476 0C21.0476 0.269015 16.7954 1.55196 16.2605 1.79516C11.9174 3.76991 -9.04495 10.4632 4.49198 14.5605C18.4282 18.7787 -1.78975 11.4654 13.667 17.0207C15.9397 17.8375 17.9084 18.9306 20.1167 19.8134" sodipodi:nodetypes="ccccc"/><path id="shape132" transform="translate(509.915379530155, 307.012633445122)" fill="none" stroke="#000000" stroke-width="1.5" stroke-linecap="square" stroke-linejoin="bevel" d="M0 0C0 5.85382 12.2715 7.46687 12.4995 11.8344C12.7765 17.1414 4.47163 15.4365 2.72607 18.35" sodipodi:nodetypes="ccc"/><path id="shape011" transform="translate(421.821402058517, 282.867158330375)" fill="none" stroke="#000000" stroke-width="1.5" stroke-linecap="square" stroke-linejoin="bevel" d="M0 16.6997C0 19.2174 2.02349 13.4193 3.3911 11.846C6.51699 8.24989 9.87356 5.9246 14.7605 4.79861C23.1554 2.86431 32.3626 6.07784 40.557 3.80105C40.8477 3.72028 49.3025 2.05013 47.8702 0.6099C46.5055 -0.762375 39.6299 0.6099 38.0302 0.6099C27.7125 0.6099 17.3834 1.08604 7.44651 3.7344C4.30863 4.57071 0.191739 13.4478 0.266601 12.1785" sodipodi:nodetypes="cccccccc"/><path id="shape110" transform="translate(477.050800563108, 282.83950416043)" fill="none" stroke="#000000" stroke-width="1.5" stroke-linecap="square" stroke-linejoin="bevel" d="M29.1417 8.41658C29.1417 9.69341 28.9202 7.3705 28.61 6.68807C27.6704 4.62174 24.3016 2.67894 22.5594 2.03355C20.4401 1.24841 1.45572 -0.922529 0.0873323 0.438336C-0.966154 1.48603 7.85121 3.1138 8.26553 3.23032C13.8645 4.80498 18.3985 5.88974 24.4212 5.88974C26.9442 5.88974 31.4871 6.11125 31.4686 6.08969" sodipodi:nodetypes="ccccccc"/><path id="shape210" transform="translate(458.695469365513, 332.760328505016)" fill="none" stroke="#000000" stroke-width="1.5" stroke-linecap="square" stroke-linejoin="bevel" d="M3.87201 0C3.87201 0.607427 -3.59477 5.80459 2.20942 6.24974" sodipodi:nodetypes="cc"/><path id="shape36" transform="translate(414.926223638318, 262.296707325683)" fill="none" stroke="#000000" stroke-width="1.5" stroke-linecap="square" stroke-linejoin="bevel" d="M0.844659 0.369378C0.844659 -2.66533 6.49013 13.9136 7.892 16.725C8.87104 18.6885 4.85628 10.4532 3.30486 12.0046C-0.108695 15.4182 10.6847 33.187 10.6847 37.6679C10.6847 37.7646 4.56755 29.9154 4.56755 30.1554C4.56755 38.7999 3.64984 53.3232 7.16105 61.2042C7.19899 61.2893 7.10128 61.0853 7.0944 61.0716C6.32079 59.5286 5.59973 57.5809 5.03337 55.952C4.72619 55.0685 4.88716 52.4477 4.36833 53.2259C3.61753 54.3521 4.27888 73.3492 3.83659 73.5703C2.55824 74.2095 3.56047 70.7219 3.30486 69.3157C2.75816 66.3081 1.44305 63.2985 1.44305 60.2066C1.44305 52.4159 -0.478165 42.7662 0.112972 35.6068" sodipodi:nodetypes="ccccccccccccc"/><path id="shape42" transform="translate(406.020158147781, 218.16547103195)" fill="none" stroke="#000000" stroke-width="1.5" stroke-linecap="square" stroke-linejoin="bevel" d="M0.309835 23.4245C-0.279309 22.54 0.104077 23.5237 0.376485 23.757C1.77348 24.9538 5.67411 22.2978 6.55957 21.7619C13.3812 17.6333 20.1554 13.7635 26.3056 8.53148C27.0872 7.86661 31.5774 5.64931 31.7577 4.21021C31.9105 2.99109 29.9805 5.96999 29.4308 7.06884C28.5383 8.8532 27.7276 11.2308 27.5024 13.2519C27.2025 15.9428 32.0341 15.8934 33.8188 15.6455C50.1144 13.3816 76.6603 7.38127 91.3291 0.0874155C92.4798 -0.484745 89.5117 1.90479 88.603 2.81348C88.1148 3.30175 79.3411 12.1849 81.2232 12.7868C92.1431 16.2793 105.741 16.0644 117.126 17.3073C119.117 17.5247 128.269 17.1221 129.426 19.435C129.633 19.8486 127.45 19.9436 127.365 19.9675C122.364 21.3709 116.009 22.2739 111.408 24.4221C111.132 24.5511 110.396 25.2585 110.61 25.6848C111.71 27.8716 125.031 33.0627 128.428 36.3224C129.865 37.7004 134.091 39.1037 132.684 40.5111C130.699 42.4957 123.714 41.8412 121.182 41.8412C110.211 41.8412 100.026 38.7431 89.2014 37.5192C87.5692 37.3346 81.0154 34.3136 79.4947 35.3256C78.9477 35.6896 90.0289 39.5014 88.2046 42.2404C86.669 44.5459 75.5796 41.9451 74.1092 41.7079C68.1352 40.7441 45.4038 36.0744 40.1352 38.716C39.7743 38.8969 40.3845 39.0655 40.5336 39.1151C41.5116 39.4407 48.9199 43.023 47.7142 44.8331C45.808 47.6951 42.2833 46.7063 39.4035 46.6283C30.9923 46.4004 22.8802 43.6364 14.6704 43.6364C13.1243 43.6364 8.57514 42.3517 7.35718 43.5697C6.75185 44.175 8.98996 44.1081 9.75073 44.5006" sodipodi:nodetypes="cccccccccccccccccccccccccccccc"/><path id="shape52" transform="translate(382.66083416377, 227.587792068862)" fill="none" stroke="#000000" stroke-width="1.5" stroke-linecap="square" stroke-linejoin="bevel" d="M23.6692 14.0022C27.1281 14.8666 27.1026 10.6117 28.3896 6.22315C28.3918 6.21575 29.0549 -0.580636 28.5222 0.0400667C21.0233 8.77724 20.0466 22.2365 13.6958 31.7538C10.6669 36.293 1.52789 38.5986 0.000283441 43.1898C-0.0475227 43.3335 5.95649 41.3701 14.6267 38.4694C15.8127 38.0726 13.3245 40.6084 12.7656 41.7272C11.7366 43.787 10.0635 46.6844 9.50782 48.9071C8.43227 53.2093 1.63285 70.5334 3.39065 74.0394C3.49758 74.2526 8.95538 65.616 9.70704 64.8643C10.5433 64.0281 9.26983 67.195 8.90944 68.3214C8.21849 70.4808 7.91745 72.7968 7.44606 75.0362C6.08578 81.4985 6.11672 88.1963 6.11672 94.783C6.11672 97.0657 6.11672 99.3484 6.11672 101.631C6.11672 102.607 6.24929 105.532 6.24929 104.556C6.24929 102.08 7.60414 99.1275 8.44362 96.7773C8.81138 95.7477 8.6681 92.8798 9.44117 93.6528C11.5211 95.7328 7.85643 114.931 7.04763 118.119C6.86214 118.85 6.43042 123.611 5.58498 124.037C4.44063 124.612 7.19158 122.038 7.91188 120.979C8.47218 120.155 12.3062 112.935 12.699 113.066C13.6099 113.37 12.0704 121.078 11.9006 121.975C10.1508 131.224 6.68411 141.297 3.19144 150.033C2.45189 151.883 5.07853 146.521 5.9175 144.714C6.64935 143.138 11.6437 133.372 14.1616 133.877C14.8138 134.007 14.0914 137.809 14.0283 137.999C12.6527 142.123 -1.54122 159.999 8.31105 150.764" sodipodi:nodetypes="ccccccccccccccccccccccccccc"/><path id="shape62" transform="translate(388.485898515467, 326.513318814771)" fill="none" stroke="#000000" stroke-width="1.5" stroke-linecap="square" stroke-linejoin="bevel" d="M23.628 0.312001C23.628 -1.23926 23.7429 3.41879 23.628 4.9658C23.4291 7.64495 23.0494 10.3908 22.6971 13.0773C21.4833 22.3349 19.1331 32.5735 15.118 41.0016C14.5613 42.1703 16.1943 30.788 15.9156 30.9623C13.7886 32.2924 13.2007 38.5087 12.4586 40.7357C10.563 46.4242 6.72029 55.5165 2.41933 59.8174C2.05613 60.1806 4.70648 49.8183 3.48281 49.5116C3.13293 49.4239 -3.4862 57.2684 2.48598 51.8385" sodipodi:nodetypes="ccccccccc"/><path id="shape711" transform="translate(440.573318710785, 351.770977373953)" fill="none" stroke="#000000" stroke-width="1.5" stroke-linecap="square" stroke-linejoin="bevel" d="M0.611797 8.09008C0.611797 3.21294 6.74111 3.2123 9.356 1.22637C12.1496 -0.895304 16.5283 0.380121 19.887 0.380121C25.5856 0.380121 52.0905 -1.34392 52.8429 7.00871C52.9675 8.39096 48.6254 10.0465 47.6246 9.54745C37.4985 4.49837 32.886 3.05023 19.887 3.67085C8.86001 4.19732 9.08333 8.56612 1.7403 11.0048C-0.147028 11.6316 -0.225946 7.8507 0.235803 7.61983" sodipodi:nodetypes="cccccccc"/><path id="shape811" transform="translate(434.320192307579, 356.664069431079)" fill="none" stroke="#000000" stroke-width="1.5" stroke-linecap="square" stroke-linejoin="bevel" d="M0.941195 0C-1.00979 0.489089 0.600699 6.46481 1.08258 7.42822" sodipodi:nodetypes="cc"/><path id="shape92" transform="translate(493.286340825246, 353.514208070588)" fill="none" stroke="#000000" stroke-width="1.5" stroke-linecap="square" stroke-linejoin="bevel" d="M2.05754 0C2.00074 0 3.73476 5.18055 3.37404 6.44111C2.88616 8.146 -1.30904 11.2871 0.412174 10.8603" sodipodi:nodetypes="ccc"/><path id="shape102" transform="translate(469.157872908292, 275.190797493277)" fill="none" stroke="#000000" stroke-width="1.5" stroke-linecap="square" stroke-linejoin="bevel" d="M0 10.6252C0 13.4968 3.32134 2.23196 1.83336 0" sodipodi:nodetypes="cc"/><path id="shape112" transform="translate(474.752217271335, 277.447801079107)" fill="none" stroke="#000000" stroke-width="1.5" stroke-linecap="square" stroke-linejoin="bevel" d="M0.799118 6.95745C1.10334 7.56589 0.37868 5.65661 0.282255 4.98322C0.0474046 3.34314 0 1.66311 0 0" sodipodi:nodetypes="ccc"/><path id="shape1211" transform="translate(429.7186026615, 296.417812901999)" fill="none" stroke="#000000" stroke-width="1.5" stroke-linecap="square" stroke-linejoin="bevel" d="M1.68806 4.63013C1.68806 4.5217 8.3228 7.67232 8.7869 7.82712C11.6219 8.77269 31.5467 21.4302 33.3747 16.8536C34.4714 14.1077 29.5834 12.1266 28.0621 10.9298C21.47 5.74441 12.5216 3.7814 4.88454 0.728274C-2.74486 -2.3218 0.648296 5.3938 1.40581 2.27938" sodipodi:nodetypes="cccccc"/><path id="shape1311" transform="translate(445.557218156961, 302.082182117111)" fill="none" stroke="#000000" stroke-width="1.5" stroke-linecap="square" stroke-linejoin="bevel" d="M2.02188 0.235126C-2.16398 2.33382 1.52517 7.08671 3.14986 5.54773C5.95163 2.89377 3.52406 0 0 0" sodipodi:nodetypes="ccc"/><path id="shape141" transform="translate(475.889601120451, 298.556326125294)" fill="none" stroke="#000000" stroke-width="1.5" stroke-linecap="square" stroke-linejoin="bevel" d="M28.0105 0C20.9823 4.22003 11.9685 4.3903 5.35034 10.0136C4.4197 10.8043 -0.718217 14.4254 0.0848577 16.0316C0.719316 17.3005 8.67408 14.6648 10.0047 14.3391C17.2828 12.5572 23.3548 9.28017 27.6345 3.0556C29.476 0.377192 23.5488 1.02108 22.369 2.39787" sodipodi:nodetypes="cccccc"/><path id="shape151" transform="translate(484.924130451279, 305.280451405346)" fill="none" stroke="#000000" stroke-width="1.5" stroke-linecap="square" stroke-linejoin="bevel" d="M3.41517 1.26808C2.46812 1.03132 2.12849 2.32856 1.95728 3.05432C1.10526 6.66603 7.44718 4.1351 6.04765 1.97346C2.61172 -3.33348 -1.11284 3.30962 0.311915 7.28555" sodipodi:nodetypes="cccc"/><path id="shape162" transform="translate(404.81939830886, 356.042371252735)" fill="none" stroke="#000000" stroke-width="1.5" stroke-linecap="square" stroke-linejoin="bevel" d="M6.23104 0.236473C6.23104 -0.938294 6.29769 2.58538 6.29769 3.76014C6.29769 5.93201 6.29769 8.10388 6.29769 10.2758C6.29769 16.4896 3.81373 23.2039 2.83993 29.2908C2.42765 31.8679 -1.67866 37.5738 0.778907 34.9422" sodipodi:nodetypes="ccccc"/><path id="shape172" transform="translate(418.962035523912, 366.149833090358)" fill="none" stroke="#000000" stroke-width="1.5" stroke-linecap="square" stroke-linejoin="bevel" d="M0 51.6947C4.30976 37.9016 11.8337 26.8909 17.2866 13.2661C18.8831 9.27707 21.645 7.08306 23.5022 5.31133C24.8891 3.37673 29.3202 0.236764 29.6843 0.116282C32.567 -0.83753 28.3917 4.33264 28.3917 6.27514C28.3917 10.3909 25.5658 14.8206 24.268 18.7175C23.545 20.8887 19.6967 24.0727 21.7411 25.1006C22.2388 25.3508 23.5622 23.6787 23.9355 23.3054" sodipodi:nodetypes="cccccccc"/><path id="shape181" transform="translate(439.972227227727, 364.425325896331)" fill="none" stroke="#000000" stroke-width="1.5" stroke-linecap="square" stroke-linejoin="bevel" d="M0 28.8195C1.32405 28.8195 12.0528 9.38367 13.023 7.20027C13.7237 5.62305 22.4149 -2.36356 23.0368 0.688984C22.9721 4.05796 21.8261 6.72593 19.8398 9.59788C14.7849 18.925 11.4735 28.5931 6.91404 37.662C6.4922 38.501 8.68249 37.0287 9.57346 36.7318" sodipodi:nodetypes="cccccc"/><path id="shape192" transform="translate(449.612335406127, 364.61612905222)" fill="none" stroke="#000000" stroke-width="1.5" stroke-linecap="square" stroke-linejoin="bevel" d="M0 30.4238C0 29.3701 2.31834 28.883 3.19115 27.3652C6.13219 22.2508 9.49192 17.3153 12.7653 12.4063C13.5088 11.2914 18.8295 -1.27626 20.2119 0.10605C22.3219 2.21608 19.7198 8.34298 19.0151 10.8104C17.0616 17.6501 15.4796 23.7758 12.8986 30.2246C11.7128 33.1877 6.31521 40.8746 9.10837 38.3362" sodipodi:nodetypes="ccccccc"/><path id="shape202" transform="translate(456.655604207841, 372.66455935623)" fill="none" stroke="#000000" stroke-width="1.5" stroke-linecap="square" stroke-linejoin="bevel" d="M6.71963 18.5859C6.7881 18.5859 7.35979 17.5252 7.45058 17.3891C9.95196 13.6393 18.1549 4.64444 18.1549 0.102518C18.1549 -0.39747 18.4376 1.06767 18.4874 1.56516C18.6135 2.8229 18.7533 4.08026 18.7533 5.3547C18.7533 8.66774 17.0416 12.0383 15.828 15.0622C13.33 21.2865 5.68024 42.7411 0.00407362 45.5792C-0.124061 45.6433 2.81235 41.9733 2.92936 41.8563" sodipodi:nodetypes="cccccccc"/><path id="shape211" transform="translate(439.772276647822, 396.160363862719)" fill="none" stroke="#000000" stroke-width="1.5" stroke-linecap="square" stroke-linejoin="bevel" d="M0 40.2342C6.78303 35.1469 16.944 30.6438 22.6721 24.2777C29.0941 17.1404 34.6177 5.98332 42.5514 0.674758C44.1174 -0.373121 38.6968 -0.025482 36.9 0.54219C34.4856 1.305 24.7254 5.86056 25.7966 8.71966" sodipodi:nodetypes="ccccc"/><path id="shape221" transform="translate(335.706754799672, 459.06662663589)" fill="none" stroke="#000000" stroke-width="1.5" stroke-linecap="square" stroke-linejoin="bevel" d="M82.9894 0C69.0002 12.8208 53.7199 24.9198 37.646 35.37C31.3361 39.4724 22.9182 45.6136 15.4398 43.7474C12.4003 42.9889 -0.500873 35.333 0.0150486 36.235" sodipodi:nodetypes="cccc"/><path id="shape231" transform="translate(332.460619323084, 391.317071354759)" fill="none" stroke="#000000" stroke-width="1.5" stroke-linecap="square" stroke-linejoin="bevel" d="M67.8189 0C66.7252 0 66.7575 3.69865 65.2927 4.18871C62.7136 5.05157 59.9914 5.56397 57.4471 6.58226C49.8719 9.61397 41.502 9.6924 34.5091 14.0947C22.8681 21.4232 11.0997 48.7895 7.18329 61.8323C5.09225 68.7961 2.70289 75.5542 1.33272 82.6418C0.738799 85.7141 1.63277 89.3927 0.667686 92.2827C-0.12245 94.6488 -0.616801 103.137 1.59859 101.059" sodipodi:nodetypes="cccccccc"/><path id="shape241" transform="translate(356.485955927136, 469.478803771198)" fill="none" stroke="#000000" stroke-width="1.5" stroke-linecap="square" stroke-linejoin="bevel" d="M13.2099 27.0196C13.2099 25.653 11.4814 28.9267 11.4814 30.3433C11.4814 33.509 11.821 36.6199 11.9464 39.7849C12.2954 48.587 10.8838 58.3184 8.75529 66.8442C5.61658 79.4164 -1.39549 96.4385 0.245307 109.529C2.36454 126.436 26.994 134.88 41.5333 132.466C50.54 130.97 47.7611 119.241 45.722 113.119C36.8927 86.6119 41.1604 62.1393 49.0464 35.8621C51.3822 28.0792 53.1599 19.1283 54.1653 11.0624C54.4838 8.50777 54.5645 5.93243 54.5645 3.34999C54.5645 1.56691 53.9675 -0.236754 54.0987 0.0255361" sodipodi:nodetypes="ccccccccccc"/><path id="shape251" transform="translate(400.080255487507, 387.660099759655)" fill="none" stroke="#000000" stroke-width="1.5" stroke-linecap="square" stroke-linejoin="bevel" d="M0 0C0 9.05489 4.90303 16.4602 5.98387 25.7299C6.30038 28.4444 6.19114 43.2126 6.71482 40.4904" sodipodi:nodetypes="ccc"/><path id="shape261" transform="translate(398.950131880207, 486.585094725744)" fill="none" stroke="#000000" stroke-width="1.5" stroke-linecap="square" stroke-linejoin="bevel" d="M0 68.9529C1.44385 68.9529 2.67371 63.7893 3.05785 62.6365C5.30873 55.8818 6.26522 48.8885 9.04172 42.2255C13.9728 30.3921 16.427 2.98037 32.6447 0.272464C39.3069 -0.839936 46.3659 1.73126 52.7232 2.99853C61.0696 4.66229 61.8175 13.4939 62.6966 20.551C64.7698 37.1937 64.2252 54.6562 64.2252 71.479C64.2252 81.951 64.2918 92.4065 64.2918 102.861C64.2918 103.715 64.1359 112.036 63.4942 112.036" sodipodi:nodetypes="ccccccccc"/><path id="shape271" transform="translate(428.071139415021, 536.05712135532)" fill="none" stroke="#000000" stroke-width="1.5" stroke-linecap="square" stroke-linejoin="bevel" d="M0 0C4.53454 9.16985 5.13565 34.4752 7.11399 46.3409C7.96071 51.4194 8.8891 56.5657 9.17502 61.6998C9.23371 62.7535 10.8962 69.5356 11.3686 68.7471" sodipodi:nodetypes="cccc"/><path id="shape281" transform="translate(463.109365759537, 486.527322188024)" fill="none" stroke="#000000" stroke-width="1.5" stroke-linecap="square" stroke-linejoin="bevel" d="M0 21.5397C0 2.66745 28.1755 -7.03246 39.8253 5.91495C43.4974 9.99598 42.9302 17.9209 43.4149 22.9356C45.3051 42.4913 46.0133 62.7579 43.0165 82.2411C41.7136 90.7118 41.8788 99.6202 41.0214 108.171C40.9361 109.021 41.69 115.283 40.4896 115.684C37.5769 116.657 26.5444 120.734 23.8014 118.676C19.911 115.758 19.2459 108.062 18.6159 103.65C17.0865 92.9399 14.9551 81.994 12.632 71.5368C11.7479 67.5571 6.38249 42.2536 8.37668 45.6736" sodipodi:nodetypes="cccccccccc"/><path id="shape291" transform="translate(477.204050593539, 402.41982168726)" fill="none" stroke="#000000" stroke-width="1.5" stroke-linecap="square" stroke-linejoin="bevel" d="M0 0C0.992302 1.97915 5.42581 2.0238 7.24729 3.32445C12.4067 7.00855 21.1077 14.0937 24.2673 19.8793C38.9052 46.6842 34.2719 78.6929 36.4342 107.974C37.6797 124.84 37.5651 142.203 37.5651 159.102C37.5651 162.27 39.1163 168.58 36.5675 171.136C35.3788 172.328 30.446 171.998 31.8471 172.931" sodipodi:nodetypes="ccccccc"/><path id="shape301" transform="translate(481.060240348841, 444.837908995578)" fill="none" stroke="#000000" stroke-width="1.5" stroke-linecap="square" stroke-linejoin="bevel" d="M0 0C5.09793 5.09793 3.85619 19.7445 3.85619 26.5949C3.85619 29.5643 4.18871 32.5659 4.18871 35.504C4.18871 37.0337 4.1412 41.6185 4.05614 40.0912C3.9263 37.7597 3.91165 39.0876 4.72045 35.7033" sodipodi:nodetypes="ccccc"/><path id="shape312" transform="translate(462.843497406037, 422.631675910869)" fill="none" stroke="#000000" stroke-width="1.5" stroke-linecap="square" stroke-linejoin="bevel" d="M0 0C0 14.0635 3.0709 29.2663 4.78636 44.014C5.13359 46.9991 5.69396 67.2884 8.11082 65.356" sodipodi:nodetypes="ccc"/><path id="shape321" transform="translate(406.06412449051, 401.688866820063)" fill="none" stroke="#000000" stroke-width="1.5" stroke-linecap="square" stroke-linejoin="bevel" d="M0 0C2.88428 2.88428 6.48716 5.25151 9.44089 8.37742C11.0963 10.1293 12.7703 10.8426 14.3606 12.4328C14.4936 12.5659 14.6756 13.0003 14.7597 12.832C15.778 10.7954 9.50754 6.68842 9.50754 4.38793" sodipodi:nodetypes="ccccc"/><path id="shape331" transform="translate(464.22038584562, 289.476156981465)" fill="none" stroke="#000000" stroke-width="1.5" stroke-linecap="square" stroke-linejoin="bevel" d="M3.14434 1.64664C5.50264 -5.40236 -0.38274 12.4123 0.019836 13.2152" sodipodi:nodetypes="cc"/><path id="shape341" transform="translate(477.138132819944, 289.860096336023)" fill="none" stroke="#000000" stroke-width="1.5" stroke-linecap="square" stroke-linejoin="bevel" d="M0 0C1.6768 3.33518 -1.74271 8.31335 1.66259 11.0361" sodipodi:nodetypes="cc"/><path id="shape351" transform="translate(394.346747550513, 372.012313556899)" fill="none" stroke="#000000" stroke-width="1.5" stroke-linecap="square" stroke-linejoin="bevel" d="M0 28.5263C0 25.5008 3.11025 21.0151 2.9383 16.9846C2.8727 15.4471 -0.0986547 7.99494 1.10468 6.87682C2.77138 5.32813 13.5465 -2.86424 14.9264 1.04735" sodipodi:nodetypes="cccc"/><path id="shape361" transform="translate(395.48316841507, 379.449873248386)" fill="none" stroke="#000000" stroke-width="1.5" stroke-linecap="square" stroke-linejoin="bevel" d="M4.59709 8.21023C5.15566 9.82709 2.60374 3.30044 1.14363 2.04843C0.710048 1.67664 -0.123331 -0.0889745 0.0153864 0.00350385" sodipodi:nodetypes="ccc"/><path id="shape37" transform="translate(431.545866922323, 400.435690040759)" fill="none" stroke="#000000" stroke-width="1.5" stroke-linecap="square" stroke-linejoin="bevel" d="M5.70647 0C5.18748 0 5.39922 0.99544 5.17474 1.46337C3.77585 4.37933 -1.90433 16.1564 0.653512 16.1564" sodipodi:nodetypes="ccc"/><path id="shape38" transform="translate(438.450817194062, 407.749633230967)" fill="none" stroke="#000000" stroke-width="1.5" stroke-linecap="square" stroke-linejoin="bevel" d="M7.57811 0C5.86559 0 -1.81687 11.3931 0.397468 10.0393" sodipodi:nodetypes="cc"/><path id="shape39" transform="translate(443.869054091317, 409.278925578368)" fill="none" stroke="#000000" stroke-width="1.5" stroke-linecap="square" stroke-linejoin="bevel" d="M10.6699 0C10.6699 2.47866 -2.52346 11.09 0.431363 10.1059" sodipodi:nodetypes="cc"/><path id="shape40" transform="translate(352.88198639405, 422.344883934292)" fill="none" stroke="#000000" stroke-width="1.5" stroke-linecap="square" stroke-linejoin="bevel" d="M0 46.2395C0 49.278 1.26755 42.9854 2.26025 41.6517C5.18462 37.7226 9.39514 32.0362 13.5629 29.4847C24.7871 22.6134 37.2836 17.9548 48.202 10.4696C53.2885 6.98258 58.2152 0.677693 64.691 0.0319033C67.0462 -0.202975 69.2189 0.876609 70.8074 2.69132C71.8945 3.93326 91.5188 15.6199 91.2851 16.3209C89.8785 20.5408 73.2227 32.5571 69.8099 34.6043C68.393 35.4542 63.7428 37.4397 64.0259 38.9922" sodipodi:nodetypes="ccccccccc"/><path id="shape0_1b73bbd9" transform="translate(504.513635347738, 586.312884593867)" fill="none" stroke="#000000" stroke-width="1.5" stroke-linecap="square" stroke-linejoin="bevel" d="M0 0.391319C0 -1.5018 1.72561 4.04044 3.38499 4.95168C8.20013 7.5959 12.5903 15.4431 17.2771 17.0576C17.6135 17.1734 18.26 17.4238 18.6169 17.1984C20.4689 16.0292 16.676 8.31951 15.0439 7.63129C14.906 7.57314 14.5678 7.35255 14.7151 7.32573C19.1721 6.51373 21.5825 21.7215 26.186 19.5727C28.6993 18.3996 25.9576 11.9005 25.0578 10.5227C24.3616 9.45672 22.6289 6.04733 23.2008 7.18486C25.0225 10.8082 29.132 13.3818 31.9922 16.1173C32.2598 16.3733 34.8236 19.0987 35.142 18.8674C37.2181 17.3586 34.5626 11.7027 33.5435 10.3347C32.767 9.2923 31.3106 5.83787 31.3106 7.13773C31.3106 8.17204 34.1582 10.6772 34.7425 11.651C35.3332 12.6356 42.0376 19.885 42.8523 18.2562C45.6661 12.6305 34.2607 4.35358 34.8365 1.96625" sodipodi:nodetypes="cccccccccccccccc"/><path id="shape1_25315446" transform="translate(513.23013879378, 572.807681419251)" fill="none" stroke="#000000" stroke-width="1.5" stroke-linecap="square" stroke-linejoin="bevel" d="M0 0C0.696138 2.7769 9.41158 4.62108 11.6352 5.05296C20.0326 6.68395 27.9836 11.3702 35.7362 14.1617C37.1674 14.677 39.7475 17.5959 40.7369 18.3363C44.7825 21.3635 28.6459 21.9048 30.0519 18.2504" sodipodi:nodetypes="ccccc"/><path id="shape2_69c055c7" transform="translate(524.567609535836, 583.062756754144)" fill="none" stroke="#000000" stroke-width="1.5" stroke-linecap="square" stroke-linejoin="bevel" d="M0 0C0.921886 0 9.09189 1.85333 9.09189 1.89477" sodipodi:nodetypes="cc"/><path id="shape3_64bc342e" transform="translate(519.614438164959, 584.348378178979)" fill="none" stroke="#000000" stroke-width="1.5" stroke-linecap="square" stroke-linejoin="bevel" d="M0 0.210346C0 -0.268641 0.706249 0.19781 1.03051 0.359943C3.32511 1.50724 5.61412 2.1135 7.94511 3.01936" sodipodi:nodetypes="ccc"/><path id="shape4_3d52b21a" transform="translate(512.118122467806, 585.689030717121)" fill="none" stroke="#000000" stroke-width="1.5" stroke-linecap="square" stroke-linejoin="bevel" d="M0 0C1.54089 0 6.00514 3.91576 8.11118 2.41003" sodipodi:nodetypes="cc"/><path id="shape04" transform="translate(308.224708407964, 95.2884267407189)" fill="none" stroke="#000000" stroke-width="1.5" stroke-linecap="square" stroke-linejoin="bevel" d="M66.4684 0C64.8636 3.20079 65.3979 9.80422 64.6066 13.5637C60.9302 31.0293 56.051 52.8964 41.9345 65.0901C33.7441 72.165 23.529 70.0921 13.6785 70.6089C8.63232 70.8737 -1.956 73.0046 0.314796 71.3399" sodipodi:nodetypes="ccccc"/><path id="shape113" transform="translate(337.117877093904, 90.6803570155589)" fill="none" stroke="#000000" stroke-width="1.5" stroke-linecap="square" stroke-linejoin="bevel" d="M34.2508 3.5446C33.9465 4.53388 27.9164 0.997807 26.0067 0.885181C22.1296 0.656529 -2.07585 -2.88061 0.143464 6.0048C0.286881 6.57899 1.64895 6.64068 2.00527 6.6691C8.87666 7.21724 17.2507 3.67491 24.1449 2.81291C26.8095 2.47974 40.5091 8.62196 37.5752 4.60807" sodipodi:nodetypes="cccccc"/><path id="shape212" transform="translate(335.014761862174, 98.4550507891011)" fill="none" stroke="#000000" stroke-width="1.5" stroke-linecap="square" stroke-linejoin="bevel" d="M0.252203 6.60678C-1.31627 9.34731 4.89007 2.05572 6.23534 0.822866C7.96782 -0.764842 14.6771 0.421313 16.6738 0.490347C18.8983 0.567258 31.5897 0.777473 32.6969 3.01646C33.8186 5.2847 31.8644 10.7952 34.1596 5.87583" sodipodi:nodetypes="ccccc"/><path id="shape53" transform="translate(280.424179911827, 99.1395461716318)" fill="none" stroke="#000000" stroke-width="1.5" stroke-linecap="square" stroke-linejoin="bevel" d="M33.8659 6.85356C31.3699 6.85356 31.1832 3.00038 28.6804 1.99982C24.9178 0.495608 19.9375 0.116215 15.8484 0.00543652C7.83973 -0.211529 -4.80417 6.17008 1.88626 0.470523" sodipodi:nodetypes="cccc"/><path id="shape83" transform="translate(279.1852210039, 88.38086294887)" fill="none" stroke="#000000" stroke-width="1.5" stroke-linecap="square" stroke-linejoin="bevel" d="M0 5.04612C0 5.14355 8.784 1.44406 10.1726 1.05736C14.3235 -0.0985937 38.2335 -1.40083 39.4928 3.65013C40.2748 6.78695 14.973 3.96305 14.4939 3.84935C11.1554 3.05713 3.76717 8.62963 8.24485 5.64451" sodipodi:nodetypes="ccccc"/><path id="shape93" transform="translate(327.040069212342, 98.2137110489192)" fill="none" stroke="#000000" stroke-width="1.5" stroke-linecap="square" stroke-linejoin="bevel" d="M4.76914 0C-1.57047 0 4.02154 24.6382 6.36508 29.321C8.0425 32.6727 -1.65173 33.8639 0.247915 33.443" sodipodi:nodetypes="ccc"/><path id="shape103" transform="translate(315.786064792468, 140.446431273109)" fill="none" stroke="#000000" stroke-width="1.5" stroke-linecap="square" stroke-linejoin="bevel" d="M0 6.50176C2.8524 3.68071 12.9717 -4.59677 15.4248 3.37726C17.0761 8.74512 8.98809 9.48947 4.9204 9.22783C3.73254 9.15142 -0.652761 7.026 1.13012 8.36357" sodipodi:nodetypes="cccc"/><path id="shape114" transform="translate(263.544761160746, 55.3971874202053)" fill="none" stroke="#000000" stroke-width="1.5" stroke-linecap="square" stroke-linejoin="bevel" d="M62.0814 0C62.0814 0.605354 47.0092 28.0522 44.8614 35.57C43.8597 39.0761 43.4196 47.0362 40.7394 49.7313C40.0865 50.3877 40.4084 47.909 40.2076 47.0052C39.3307 43.0577 39.5717 39.2204 39.0109 35.3041C38.661 32.8609 36.2925 39.5116 35.6198 41.8864C31.7416 55.5767 28.2958 69.2374 26.644 83.4402C26.0363 88.6646 26.5233 99.7832 22.256 104.05C21.0477 105.259 22.3331 100.629 22.5219 98.9309C22.917 95.3759 22.6123 91.4434 22.3227 87.8948C22.3103 87.7429 21.654 83.3291 21.2585 83.9719C8.89246 104.071 18.8459 139.655 5.83371 159.101C4.96884 160.394 6.16623 156.003 6.16623 154.448C6.16623 151.077 5.22852 147.499 4.57102 144.208C3.29272 137.81 -5.04212 110.846 4.57102 108.438" sodipodi:nodetypes="ccccccccccccccc"/><path id="shape123" transform="translate(330.346568559875, 51.872783791998)" fill="none" stroke="#000000" stroke-width="1.5" stroke-linecap="square" stroke-linejoin="bevel" d="M0 0C0 0.00217194 18.8376 23.3483 21.2094 28.5226C23.8976 34.3871 28.424 39.0618 30.2511 45.2775C30.5124 46.1663 33.5163 56.8787 34.4398 56.3809C36.3964 55.3264 36.8557 50.9496 37.2326 49.0003C37.4681 47.7817 36.7466 44.1661 37.2992 45.2775C46.6657 64.1146 36.6342 111.616 36.6342 134.901C36.6342 135.921 36.7087 132.861 36.7667 131.843C36.8504 130.374 36.7572 128.92 36.9667 127.454C37.3179 124.997 41.0587 105.423 42.8839 106.644C43.1157 106.799 43.349 107.3 43.349 107.575C43.349 119.679 46.5854 131.723 47.3385 143.81C47.6008 148.02 47.2375 152.13 47.006 156.309C46.8697 158.769 47.6884 165.36 45.9418 163.623C45.5125 163.196 54.5804 150.312 56.3802 144.142C59.0456 135.005 55.8145 119.87 61.4332 113.226" sodipodi:nodetypes="cccccccccccccccc"/><path id="shape133" transform="translate(354.79461899665, 23.7493318975874)" fill="none" stroke="#000000" stroke-width="1.5" stroke-linecap="square" stroke-linejoin="bevel" d="M0.617549 0C-1.98538 0 4.35848 3.62492 6.33482 5.31883C10.0018 8.4618 13.7997 11.3563 17.3057 14.6938C27.106 24.0232 44.4792 33.7503 46.1601 48.3353C47.9206 63.61 50.9155 78.611 51.9448 94.0119C52.0196 95.1314 52.6278 108.147 50.5488 107.109C47.8876 105.78 47.4831 88.3606 45.3625 88.3606C45.2915 88.3606 45.3736 89.9223 45.4292 90.0891C47.0169 94.8582 45.9717 102.572 45.3625 107.442C43.9476 118.753 39.914 129.664 37.4509 140.751C37.2971 141.444 37.628 142.812 36.9185 142.812C34.4245 142.812 37.7548 137.839 38.7803 135.566" sodipodi:nodetypes="cccccccccccc"/><path id="shape142" transform="translate(252.401990256024, 27.6721718461905)" fill="none" stroke="#000000" stroke-width="1.5" stroke-linecap="square" stroke-linejoin="bevel" d="M31.4044 0C21.0314 20.6891 -0.797048 62.2541 0.0224456 85.5012C0.609188 102.146 5.00408 115.703 8.59981 131.443C8.83805 132.486 11.0526 144.009 11.2592 144.009C14.2666 144.009 13.9516 138.6 15.7138 136.163" sodipodi:nodetypes="ccccc"/><path id="shape152" transform="translate(208.050328168194, 164.700574755855)" fill="none" stroke="#000000" stroke-width="1.5" stroke-linecap="square" stroke-linejoin="bevel" d="M49.7596 0C47.9297 16.519 15.124 31.9124 9.33588 49.2662C7.3442 55.2376 -3.91189 86.0088 1.42021 86.0088" sodipodi:nodetypes="ccc"/><path id="shape163" transform="translate(326.894514131801, 168.157595771054)" fill="none" stroke="#000000" stroke-width="1.5" stroke-linecap="square" stroke-linejoin="bevel" d="M6.24477 0C6.24477 0.375433 5.82006 1.09936 5.7123 1.46264C5.4385 2.38574 5.2656 3.09991 4.9147 3.98876C4.56253 4.88081 -1.28964 24.8656 0.260901 24.8656" sodipodi:nodetypes="cccc"/><path id="shape173" transform="translate(336.72047576978, 171.947135333054)" fill="none" stroke="#000000" stroke-width="1.5" stroke-linecap="square" stroke-linejoin="bevel" d="M0.00913053 0C-0.537683 4.09209 23.6397 9.78701 28.5977 12.167C30.7621 13.2059 41.4167 17.4858 39.6345 17.4858" sodipodi:nodetypes="ccc"/><path id="shape182" transform="translate(390.091326470308, 192.085107379425)" fill="none" stroke="#000000" stroke-width="1.5" stroke-linecap="square" stroke-linejoin="bevel" d="M0.0931995 0.0738822C-0.738242 -0.340693 4.24622 1.11154 5.01286 1.40396C7.05421 2.18258 13.2213 5.58285 14.9196 6.85536C18.4213 9.47924 23.8412 23.2175 25.2914 23.4102" sodipodi:nodetypes="cccc"/><path id="shape193" transform="translate(346.424954772139, 244.749654170088)" fill="none" stroke="#000000" stroke-width="1.5" stroke-linecap="square" stroke-linejoin="bevel" d="M37.7757 0C31.1517 5.29625 32.1269 25.6646 30.0633 33.5756C22.6566 61.9693 8.46583 88.3298 2.07244 117.082C-0.548507 128.869 -0.782385 148.691 1.93914 160.498C2.01992 160.849 2.23814 172.241 2.33831 172.266C3.41757 172.536 4.20077 169.537 4.46599 168.542" sodipodi:nodetypes="cccccc"/><path id="shape203" transform="translate(246.498396271755, 237.303143012984)" fill="none" stroke="#000000" stroke-width="1.5" stroke-linecap="square" stroke-linejoin="bevel" d="M13.24 0C13.24 13.1444 9.47435 27.4872 6.39186 40.2245C5.46549 44.0524 4.69184 48.083 3.20071 51.6598C2.45313 53.453 -1.40149 56.846 0.541291 56.846" sodipodi:nodetypes="cccc"/><path id="shape222" transform="translate(326.228924435241, 491.931040869908)" fill="none" stroke="#000000" stroke-width="1.5" stroke-linecap="square" stroke-linejoin="bevel" d="M34.5021 0.0146588C36.9679 -0.692077 36.0533 24.3718 35.6988 28.5373C34.5139 42.4623 37.8131 67.7417 29.1166 80.0637C24.2798 86.9169 15.9111 90.2087 8.50557 86.5127C5.85152 85.1881 -2.10735 87.6147 0.527323 84.4517" sodipodi:nodetypes="ccccc"/><path id="shape232" transform="translate(301.488095581226, 509.473209022909)" fill="none" stroke="#000000" stroke-width="1.5" stroke-linecap="square" stroke-linejoin="bevel" d="M0 0C0.3648 1.897 0.113915 18.8037 0.867615 20.3027C1.61711 21.7935 2.46871 17.3697 3.39441 15.9814" sodipodi:nodetypes="ccc"/><path id="shape242" transform="translate(260.270100616012, 514.15193275391)" fill="none" stroke="#000000" stroke-width="1.5" stroke-linecap="square" stroke-linejoin="bevel" d="M39.9586 2.06103C34.6312 5.59314 21.3915 1.7861 15.3581 2.06103C14.6033 2.09543 -0.0172363 3.0897 1.52549e-05 2.92528C0.161187 1.38925 0.582807 1.40619 1.72853 0" sodipodi:nodetypes="cccc"/><path id="shape252" transform="translate(259.129485185121, 509.564038823184)" fill="none" stroke="#000000" stroke-width="1.5" stroke-linecap="square" stroke-linejoin="bevel" d="M7.05785 0C5.5939 6.4616 4.56249 12.8825 2.40406 19.1484C1.24761 22.5055 -1.51719 24.0507 1.07399 21.2761" sodipodi:nodetypes="ccc"/><path id="shape272" transform="translate(328.418839892077, 298.802960937612)" fill="none" stroke="#000000" stroke-width="1.5" stroke-linecap="square" stroke-linejoin="bevel" d="M35.9025 6.64891C36.901 7.31339 24.6101 12.353 23.6022 12.632C13.8903 15.3207 0 13.3317 0 0" sodipodi:nodetypes="ccc"/><path id="shape282" transform="translate(255.05013876421, 303.069906189507)" fill="none" stroke="#000000" stroke-width="1.5" stroke-linecap="square" stroke-linejoin="bevel" d="M60.005 0.25428C61.6611 -1.42027 58.2008 5.6832 57.079 6.76988C54.2172 9.54194 48.8295 11.0288 44.9786 11.4903C34.7965 12.7107 23.2362 12.9847 13.3982 9.56187C12.2638 9.16721 -3.78456 2.59739 0.83205 1.78357" sodipodi:nodetypes="ccccc"/><path id="shape292" transform="translate(281.895202907056, 296.381488988571)" fill="none" stroke="#000000" stroke-width="1.5" stroke-linecap="square" stroke-linejoin="bevel" d="M0.182711 5.21419C-1.56672 5.21419 9.82282 6.75117 9.82282 1.29135C9.82282 -1.60884 1.06841 0.76715 1.51205 4.54915" sodipodi:nodetypes="ccc"/><path id="shape302" transform="translate(350.453045585649, 292.608372109946)" fill="none" stroke="#000000" stroke-width="1.5" stroke-linecap="square" stroke-linejoin="bevel" d="M1.36881 2.4717C-2.90866 6.72567 4.05757 8.00384 5.69008 4.39942C7.94239 -0.573432 2.12292 -1.81347 0.637113 3.20265" sodipodi:nodetypes="ccc"/><path id="shape313" transform="translate(268.647532475048, 320.657764275968)" fill="none" stroke="#000000" stroke-width="1.5" stroke-linecap="square" stroke-linejoin="bevel" d="M0 60.9203C0 42.8712 8.5267 26.9857 17.4858 11.6541C19.9254 7.4792 28.1107 -2.58007 33.974 0.617298" sodipodi:nodetypes="ccc"/><path id="shape322" transform="translate(333.072634707877, 314.938488248202)" fill="none" stroke="#000000" stroke-width="1.5" stroke-linecap="square" stroke-linejoin="bevel" d="M4.05541 0.419354C4.05541 -1.6096 5.34699 4.28831 6.31639 6.0707C8.0115 9.18745 9.4806 12.4477 9.84006 16.0441C10.912 26.7691 7.70701 38.542 4.85375 48.7547C4.04435 51.6517 3.15609 54.5264 2.26025 57.3979C1.79928 58.8755 0 63.0019 0 61.4541" sodipodi:nodetypes="cccccc"/><path id="shape332" transform="translate(294.312215836309, 329.918347333525)" fill="none" stroke="#000000" stroke-width="1.5" stroke-linecap="square" stroke-linejoin="bevel" d="M0.198521 0C-1.38817 3.80945 6.94173 6.32343 10.7695 6.91477C24.0627 8.96839 35.5382 4.38624 48.4005 2.3269" sodipodi:nodetypes="ccc"/><path id="shape342" transform="translate(282.011262441854, 359.238573028536)" fill="none" stroke="#000000" stroke-width="1.5" stroke-linecap="square" stroke-linejoin="bevel" d="M0 0C0 3.47386 13.6396 1.65078 15.0256 1.66259C20.2184 1.70684 48.0283 0.980083 51.128 4.52123" sodipodi:nodetypes="ccc"/><path id="shape352" transform="translate(303.950184609645, 319.280683514721)" fill="none" stroke="#000000" stroke-width="1.5" stroke-linecap="square" stroke-linejoin="bevel" d="M15.3596 0C15.3596 14.7937 18.2139 27.1139 12.5676 41.953C10.6627 46.9592 -0.143397 64.0908 0.00144255 63.8934" sodipodi:nodetypes="ccc"/><path id="shape362" transform="translate(328.5727814106, 202.33156686177)" fill="none" stroke="#000000" stroke-width="1.5" stroke-linecap="square" stroke-linejoin="bevel" d="M37.8762 0C34.3106 0 4.59319 0.557428 3.83482 1.06347C3.09132 1.5596 -2.73645 18.311 1.57458 12.5661" sodipodi:nodetypes="ccc"/><path id="shape371" transform="translate(275.893317755831, 201.850234999267)" fill="none" stroke="#000000" stroke-width="1.5" stroke-linecap="square" stroke-linejoin="bevel" d="M0.267376 0.68055C-1.96755 0.456566 10.4847 0.398625 12.5002 0.215464C25.801 -0.993246 28.9779 2.98552 38.0976 9.5897" sodipodi:nodetypes="ccc"/><path id="shape381" transform="translate(291.518802653359, 172.176539070041)" fill="none" stroke="#000000" stroke-width="1.5" stroke-linecap="square" stroke-linejoin="bevel" d="M0 3.69343C0 -6.71226 3.3968 7.73224 7.18064 12.0042" sodipodi:nodetypes="cc"/><path id="shape411" transform="translate(230.928980058858, 13.6426168552919)" fill="none" stroke="#000000" stroke-width="1.5" stroke-linecap="square" stroke-linejoin="bevel" d="M54.6037 0C48.9304 0 31.7553 17.8985 28.1428 22.6721C-0.191056 60.1125 5.33749 77.8879 5.33749 122.401C5.33749 140.577 2.53141 157.458 0.0186613 174.992C-0.243065 176.818 2.3155 172.104 3.47641 170.67" sodipodi:nodetypes="ccccc"/><path id="shape421" transform="translate(287.992728207361, 7.99126639908921)" fill="none" stroke="#000000" stroke-width="1.5" stroke-linecap="square" stroke-linejoin="bevel" d="M0.000154585 2.85863C-0.0383601 2.85863 7.12794 0 12.6329 0C20.3839 0 27.5643 3.18199 35.3709 3.78954C43.9625 4.45818 59.0299 7.26491 66.4863 12.0344C70.0715 14.3276 77.4391 26.5616 78.1882 26.2624" sodipodi:nodetypes="ccccc"/><path id="shape43" transform="translate(354.389249796065, 140.963528973548)" fill="none" stroke="#000000" stroke-width="1.5" stroke-linecap="square" stroke-linejoin="bevel" d="M8.53383 0C3.00681 5.52703 3.90078 19.776 2.28409 27.06C1.64248 29.9508 1.61906 33.4237 1.61906 36.3683C1.61906 37.9037 -0.22948 42.204 0.0238467 40.6896C0.28539 39.1261 2.33905 37.884 3.41422 37.0333" sodipodi:nodetypes="ccccc"/><path id="shape44" transform="translate(415.361946406827, 215.495346248671)" fill="none" stroke="#000000" stroke-width="1.5" stroke-linecap="square" stroke-linejoin="bevel" d="M0.0207474 0C-0.347241 1.62864 4.27608 4.53285 6.25409 5.63201C6.81573 5.94411 7.2256 7.76915 7.42946 7.15981" sodipodi:nodetypes="ccc"/><path id="shape45" transform="translate(380.50969887647, 250.269170065702)" fill="none" stroke="#000000" stroke-width="1.5" stroke-linecap="square" stroke-linejoin="bevel" d="M0 0C0 0.761823 7.59384 11.2363 10.2492 11.2363" sodipodi:nodetypes="cc"/><path id="shape012" transform="translate(224.869875721505, 395.942649114622)" fill="none" stroke="#000000" stroke-width="1.5" stroke-linecap="square" stroke-linejoin="bevel" d="M1.22294 0.0384643C-3.23712 -0.769614 16.6006 11.4125 18.6421 12.3387C33.5697 19.1113 48.006 26.3011 64.2513 29.492C72.3538 31.0835 97.7563 26.228 107.268 22.378C108.863 21.7321 119.113 20.3352 119.834 19.2535C120.542 18.192 119.583 17.0701 121.297 16.7266C123.572 16.2706 128.466 19.8316 126.549 22.7105C123.089 27.9044 112.202 30.2035 106.537 31.4871C89.952 35.2446 50.2684 36.617 34.1335 31.4205C24.0203 28.1633 15.3978 26.1637 6.94021 19.5194C4.62041 17.6969 -3.16795 12.8587 1.42216 11.607" sodipodi:nodetypes="ccccccccccc"/><path id="shape11_31cfffe7" transform="translate(350.165611380029, 396.784447795089)" fill="none" stroke="#000000" stroke-width="1.5" stroke-linecap="square" stroke-linejoin="bevel" d="M0.725333 16.5072C-1.45548 12.3126 1.09144 -2.59759 10.9605 0.39344C16.4497 2.05707 16.5503 14.609 12.8882 17.8133C10.574 19.8383 -0.761553 24.9039 6.83844 18.0125" sodipodi:nodetypes="cccc"/><path id="shape213" transform="translate(189.297636707589, 417.988128309668)" fill="none" stroke="#000000" stroke-width="1.5" stroke-linecap="square" stroke-linejoin="bevel" d="M3.21959 0C2.2031 3.30114 -1.94246 9.33254 1.09191 12.3669" sodipodi:nodetypes="cc"/><path id="shape310" transform="translate(234.322852295609, 497.372903050006)" fill="none" stroke="#000000" stroke-width="1.5" stroke-linecap="square" stroke-linejoin="bevel" d="M0.0140749 3.72289C-0.421421 3.61492 9.3747 8.40208 11.9811 9.50754C20.3486 13.0565 29.6526 14.3133 38.7085 14.4939C62.1785 14.9618 85.5148 18.3358 108.918 19.4802C113.237 19.6914 128.602 20.7007 131.457 16.4223C133.553 13.2819 130.755 3.68211 130.459 0" sodipodi:nodetypes="cccccc"/><path id="shape46" transform="translate(226.144689352755, 421.910968258271)" fill="none" stroke="#000000" stroke-width="1.5" stroke-linecap="square" stroke-linejoin="bevel" d="M0.0140395 0C-0.57168 1.76363 17.3447 10.342 20.9576 12.4995C22.5342 13.4409 24.1395 14.3338 25.7447 15.2255C33.2255 19.3814 40.7632 21.4196 48.416 24.8656C65.427 32.5258 76.3787 38.8895 95.0228 35.3707C97.1031 34.9781 110.161 33.617 110.248 33.443" sodipodi:nodetypes="cccccc"/><path id="shape511" transform="translate(217.316225638485, 434.077924424476)" fill="none" stroke="#000000" stroke-width="1.5" stroke-linecap="square" stroke-linejoin="bevel" d="M0 0C0 1.64264 5.42702 4.21604 6.18309 4.7871C13.0642 9.9844 18.2438 16.1983 24.0014 22.5388C36.7817 36.613 50.7778 45.1522 67.2178 54.12C72.3797 56.9357 79.7373 63.2366 85.4346 64.4918C90.1501 65.5306 92.9701 58.8122 96.2055 56.9119C103.41 52.6807 111.789 52.7228 119.808 51.9923" sodipodi:nodetypes="ccccccc"/><path id="shape63" transform="translate(231.278342505592, 471.443048176892)" fill="none" stroke="#000000" stroke-width="1.5" stroke-linecap="square" stroke-linejoin="bevel" d="M0 0C0 2.35604 7.46821 8.33513 9.04245 9.97336C19.9167 21.2896 32.9812 26.8202 47.2718 31.5812" sodipodi:nodetypes="ccc"/><path id="shape73" transform="translate(347.496504291346, 387.666732803494)" fill="none" stroke="#000000" stroke-width="1.5" stroke-linecap="square" stroke-linejoin="bevel" d="M0 14.6974C2.68192 14.6974 2.74376 2.76022 4.12206 0.00361418C4.1827 -0.117674 5.93996 2.85355 5.98387 2.92963C7.17243 4.98911 10.7683 10.9342 11.0368 10.4421" sodipodi:nodetypes="cccc"/><path id="shape812" transform="translate(320.220909240519, 396.646150478759)" fill="none" stroke="#000000" stroke-width="1.5" stroke-linecap="square" stroke-linejoin="bevel" d="M15.3745 0C12.9909 1.08379 -3.15028 25.4396 0.548135 21.7411" sodipodi:nodetypes="cc"/><path id="shape911" transform="translate(257.051457848148, 398.984773738766)" fill="none" stroke="#000000" stroke-width="1.5" stroke-linecap="square" stroke-linejoin="bevel" d="M0.15674 0.0549243C-0.686122 -0.366507 2.12164 1.76227 2.6162 2.1826C5.0757 4.27293 7.15539 5.1333 9.13254 7.83395C11.9983 11.7484 15.2728 15.414 18.3735 19.1367C19.1494 20.0682 20.3863 21.8263 20.767 22.8595C21.0702 23.6823 21.1941 26.2087 21.4987 25.3864C22.2107 23.4646 22.9881 21.5076 23.2272 19.4692" sodipodi:nodetypes="ccccccc"/><path id="shape1011" transform="translate(198.021517441466, 493.583363488005)" fill="none" stroke="#000000" stroke-width="1.5" stroke-linecap="square" stroke-linejoin="bevel" d="M0.212977 0C0.450151 0 -0.368103 11.4117 0.212977 17.9509C0.318075 19.1336 1.11736 28.4714 1.6097 25.1982" sodipodi:nodetypes="ccc"/><path id="shape1111" transform="translate(182.991359723355, 506.348706554511)" fill="none" stroke="#000000" stroke-width="1.5" stroke-linecap="square" stroke-linejoin="bevel" d="M0.0842446 0C-1.31204 1.74631 15.1106 1.07338 15.1106 5.718" sodipodi:nodetypes="cc"/><path id="shape1212" transform="translate(168.233701086735, 541.121064545527)" fill="none" stroke="#000000" stroke-width="1.5" stroke-linecap="square" stroke-linejoin="bevel" d="M0.879786 0C-2.61449 0 5.37221 2.60504 6.19862 3.1245C9.20309 5.01305 15.9885 8.68223 19.6956 7.44651" sodipodi:nodetypes="ccc"/><path id="shape1312" transform="translate(320.431738061763, 576.382740903217)" fill="none" stroke="#000000" stroke-width="1.5" stroke-linecap="square" stroke-linejoin="bevel" d="M6.32451 0C8.95136 2.24901 -1.29098 3.2832 0.137355 1.57171" sodipodi:nodetypes="cc"/><path id="shape1411" transform="translate(422.791406342759, 222.655156248671)" fill="none" stroke="#000000" stroke-width="1.5" stroke-linecap="square" stroke-linejoin="bevel" d="M0 0C0.184271 0.822336 3.5636 9.96881 5.41921 8.57327" sodipodi:nodetypes="cc"/><path id="shape0_6c0ee9e1" transform="translate(307.615550797918, 101.975256667097)" fill="none" stroke="#000000" stroke-width="1.5" stroke-linecap="square" stroke-linejoin="bevel" d="M0 0.108088C2.4226 -1.09652 0.199218 8.12634 0.199218 9.94815" sodipodi:nodetypes="cc"/><path id="shape1_23c46244" transform="translate(290.950639025107, 100.35483494461)" fill="none" stroke="#000000" stroke-width="1.5" stroke-linecap="square" stroke-linejoin="bevel" d="M3.03531 12.832C-0.0113903 15.862 -1.44214 0 2.00443 0" sodipodi:nodetypes="cc"/><path id="shape2_5d711617" transform="translate(344.448937843335, 98.9880180921466)" fill="none" stroke="#000000" stroke-width="1.5" stroke-linecap="square" stroke-linejoin="bevel" d="M0.465453 10.143C0.262088 9.23013 0 8.32341 0 7.38365C0 6.0532 3.70793 -1.1937 4.38793 0.170043" sodipodi:nodetypes="ccc"/><path id="shape3_413b4c8b" transform="translate(357.214280909841, 99.5975883786798)" fill="none" stroke="#000000" stroke-width="1.5" stroke-linecap="square" stroke-linejoin="bevel" d="M0 10.1315C0 11.4089 2.07565 8.20313 2.16064 7.93752C2.72155 6.18448 4.02476 2.25114 2.92528 0.491012C2.58749 -0.0497519 1.78799 -0.294199 1.89477 0.557662" sodipodi:nodetypes="cccc"/><path id="shape05" transform="translate(128.360769110364, 69.7584730274141)" fill="none" stroke="#000000" stroke-width="1.5" stroke-linecap="square" stroke-linejoin="bevel" d="M80.9805 0C73.36 22.9037 74.3749 52.6066 49.5326 65.0235C40.7748 69.4009 20.6656 71.4094 11.3699 69.6773C7.86556 69.0243 4.6455 67.9582 1.06403 68.2146C0.710445 68.24 -0.0230745 68.5683 0.000557601 68.2146C0.126039 66.3366 1.57582 66.9739 3.39093 66.6187" sodipodi:nodetypes="cccccc"/><path id="shape115" transform="translate(163.858661479653, 82.1246473538174)" fill="none" stroke="#000000" stroke-width="1.5" stroke-linecap="square" stroke-linejoin="bevel" d="M3.59703 0C3.59703 4.41095 0.788113 8.81176 2.53283 13.4296C2.80552 14.1514 8.5358 19.5277 7.38657 20.6769C4.76771 23.2958 -1.80657 20.5604 0.471797 25.9291" sodipodi:nodetypes="cccc"/><path id="shape214" transform="translate(171.377800919001, 75.993353097551)" fill="none" stroke="#000000" stroke-width="1.5" stroke-linecap="square" stroke-linejoin="bevel" d="M0 5.86469C0 6.40109 0.618426 4.98145 0.997556 4.602C3.74734 1.84988 7.66024 -0.639369 11.7685 0.147426C26.2655 2.9238 30.6056 18.4749 28.3901 9.58832" sodipodi:nodetypes="cccc"/><path id="shape314" transform="translate(178.329197255343, 77.000108249226)" fill="none" stroke="#000000" stroke-width="1.5" stroke-linecap="square" stroke-linejoin="bevel" d="M1.0935 11.1743C-0.122423 12.397 -0.0293657 8.56347 0.0300283 7.84987C0.384652 3.58918 2.85987 -0.842196 7.27659 0.137493" sodipodi:nodetypes="ccc"/><path id="shape47" transform="translate(187.302071496614, 81.526260453517)" fill="none" stroke="#000000" stroke-width="1.5" stroke-linecap="square" stroke-linejoin="bevel" d="M4.95262 0C10.6218 5.03769 -1.53957 10.1009 0.165525 9.83933C2.21542 9.52489 3.39156 6.92772 5.08592 5.71727" sodipodi:nodetypes="ccc"/><path id="shape54" transform="translate(172.158005679145, 63.9923026784626)" fill="none" stroke="#000000" stroke-width="1.5" stroke-linecap="square" stroke-linejoin="bevel" d="M29.6709 6.29717C29.6709 8.9951 24.9848 3.12306 22.291 2.97345C17.6455 2.71544 4.902 -2.05891 0.949038 1.04499C-4.53909 5.35432 15.5421 6.50178 16.1079 6.56377C19.3758 6.92177 28.7499 7.63713 31.0002 9.88749" sodipodi:nodetypes="ccccc"/><path id="shape64" transform="translate(122.341369488998, 76.4924047238178)" fill="none" stroke="#000000" stroke-width="1.5" stroke-linecap="square" stroke-linejoin="bevel" d="M33.3211 6.22112C34.1063 -7.24127 -2.57756 3.78991 0.144348 14.3989" sodipodi:nodetypes="cc"/><path id="shape74" transform="translate(132.215634023854, 77.3900696331979)" fill="none" stroke="#000000" stroke-width="1.5" stroke-linecap="square" stroke-linejoin="bevel" d="M0 3.80252C0 8.34368 6.26587 17.9948 11.9011 11.8474C14.7123 8.78072 15.2574 2.50479 11.1035 0.478064C8.38767 -0.847008 5.33065 0.825007 3.32445 2.53909C1.59458 4.01709 1.09559 4.00174 1.86181 4.00174" sodipodi:nodetypes="ccccc"/><path id="shape84" transform="translate(117.681219901471, 62.488863834603)" fill="none" stroke="#000000" stroke-width="1.5" stroke-linecap="square" stroke-linejoin="bevel" d="M0.00723544 7.13515C-0.277 10.3961 7.89063 4.98129 10.8441 4.54166C19.8677 3.19848 28.772 0.913185 37.7715 0.0211622C38.5867 -0.059637 39.9923 0.0498459 40.1651 1.08464C41.685 10.1877 -4.04342 10.6783 2.99917 6.9352" sodipodi:nodetypes="ccccc"/><path id="shape94" transform="translate(164.790999109163, 113.177843744277)" fill="none" stroke="#000000" stroke-width="1.5" stroke-linecap="square" stroke-linejoin="bevel" d="M0.00302969 1.98913C-0.113179 2.33904 3.12369 -1.84463 7.98128 0.992308" sodipodi:nodetypes="cc"/><path id="shape104" transform="translate(107.839372302555, -8.96541365194715)" fill="none" stroke="#000000" stroke-width="1.5" stroke-linecap="square" stroke-linejoin="bevel" d="M0.108635 20.9462C-0.69248 20.9462 3.15787 18.7934 4.43064 17.8876C8.1381 15.2492 12.1168 12.725 16.3317 10.9728C22.2499 8.51255 55.9745 -2.19025 61.8084 0.401795C62.9921 0.92773 45.4518 14.7044 45.5194 14.7623C48.1063 16.9826 59.8726 11.4819 62.606 11.1061C68.661 10.2736 110.636 14.3824 110.21 24.1373C110.057 27.6473 96.08 25.0784 94.7856 24.8024C92.6189 24.3403 86.3205 22.5414 88.5359 22.5414C96.4208 22.5414 126.3 41.0483 126.3 49.0696C126.3 53.6786 109.812 43.3352 109.944 43.95C111.779 52.4821 127.972 80.226 119.651 88.5624C119.266 88.9488 112.38 79.124 111.207 77.8581C110.941 77.5705 110.415 76.6752 110.343 77.0605C109.629 80.8737 112.178 86.5742 112.471 90.4242C112.627 92.4851 112.773 98.5262 112.006 96.6073C106.694 83.3362 92.52 66.0345 77.8315 63.0984C77.1329 62.9587 89.3703 75.7796 88.1367 75.2653C77.1553 70.6873 67.6175 63.6646 56.0238 60.1065C55.5803 59.9704 45.3399 56.4717 45.1869 57.8455C44.8407 60.9534 50.4674 62.8804 52.6334 63.231C54.2357 63.4903 58.6362 64.7757 57.4864 63.6301C55.4818 61.6328 22.9382 61.5449 21.3847 63.0984C21.0174 63.4657 31.9146 68.9633 31.2248 68.6164C24.9516 65.4625 15.5223 64.1708 8.61935 65.2261C5.18868 65.7505 4.63632 71.4288 6.75754 70.2124C8.05482 69.4685 9.06222 68.3061 10.2146 67.353" sodipodi:nodetypes="ccccccccccccccccccccccccccc"/><path id="shape116" transform="translate(60.9201422399438, 10.4423987566281)" fill="none" stroke="#000000" stroke-width="1.5" stroke-linecap="square" stroke-linejoin="bevel" d="M47.0279 1.53834C44.083 -3.66042 33.1558 5.79383 30.1405 8.11987C14.2544 20.3744 3.422 38.4644 0.0226317 58.317C-0.274744 60.0537 2.43941 55.7301 3.413 54.2616C4.64791 52.3988 12.174 40.0691 14.6498 40.5653C14.6598 40.5673 12.4924 45.7444 11.0595 50.2062C8.34798 58.6488 7.18694 68.3537 8.26675 77.1995C8.33428 77.7527 12.7008 93.7022 14.849 92.0925C15.4317 91.6559 16.6805 76.1828 17.3092 76.6011C23.312 80.5956 15.779 109.205 33.3323 104.99" sodipodi:nodetypes="cccccccccc"/><path id="shape124" transform="translate(106.938969854184, 60.7811491727114)" fill="none" stroke="#000000" stroke-width="1.5" stroke-linecap="square" stroke-linejoin="bevel" d="M6.062 0C4.14404 7.1963 2.31403 13.2421 3.80175 20.6777C4.36324 23.4839 4.96895 26.2635 5.59691 29.0544C5.9639 30.6854 7.52043 34.9676 6.12865 34.0414C5.16758 33.4019 0.381193 25.101 0.344731 25.1982C-0.219599 26.7027 0.0788628 29.1683 0.0788628 30.717C0.0788628 33.6825 1.91624 49.7987 6.52782 49.7987C6.55004 49.7987 6.57876 49.8144 6.59447 49.7987C6.71577 49.6774 2.20581 45.6003 2.20581 44.9449" sodipodi:nodetypes="ccccccccc"/><path id="shape134" transform="translate(98.0222480294139, 68.0950923629188)" fill="none" stroke="#000000" stroke-width="1.5" stroke-linecap="square" stroke-linejoin="bevel" d="M11.1225 37.631C12.123 43.2857 4.43959 31.3922 3.87597 28.8551C1.78733 19.4534 5.85526 27.8408 3.4768 15.2248C3.03372 12.8746 -2.06992 1.29183 0.950688 0" sodipodi:nodetypes="cccc"/><path id="shape143" transform="translate(87.3981909400171, 75.4572893861677)" fill="none" stroke="#000000" stroke-width="1.5" stroke-linecap="square" stroke-linejoin="bevel" d="M10.9764 0.549401C12.7003 -1.17459 2.82099 0.902383 0.272043 10.4561C-1.8026 18.2321 8.46517 25.9395 14.8992 21.7588" sodipodi:nodetypes="ccc"/><path id="shape013" transform="translate(85.9882991387696, 111.553244520231)" fill="none" stroke="#000000" stroke-width="1.5" stroke-linecap="square" stroke-linejoin="bevel" d="M11.7194 0C10.1887 0 8.76077 14.1118 8.46159 15.1589C6.26109 22.8603 3.90433 30.4273 2.01264 38.2294C0.550104 44.2614 -2.26071 47.2198 3.34198 42.2189" sodipodi:nodetypes="cccc"/><path id="shape11_54e23c3d" transform="translate(151.156145752846, 140.674252055044)" fill="none" stroke="#000000" stroke-width="1.5" stroke-linecap="square" stroke-linejoin="bevel" d="M2.9984 0C1.21384 0 1.17276 8.47364 1.13659 9.57419C1.00022 13.7229 -1.26355 24.166 1.00329 20.2785" sodipodi:nodetypes="ccc"/><path id="shape215" transform="translate(153.738876616604, 145.222454704036)" fill="none" stroke="#000000" stroke-width="1.5" stroke-linecap="square" stroke-linejoin="bevel" d="M2.07754 0.0396744C-6.09769 -0.643471 12.3353 7.71235 14.6437 8.41636C22.2222 10.7277 31.4445 11.1551 39.1101 13.0709C44.7027 14.4685 49.7134 11.7738 55.3999 14.4002C61.8294 17.3698 67.6961 20.459 72.2873 25.9688C74.1075 28.1532 79.1212 35.135 79.2013 34.812" sodipodi:nodetypes="cccccc"/><path id="shape315" transform="translate(-9.33277706793048, 142.136894209144)" fill="none" stroke="#000000" stroke-width="1.5" stroke-linecap="square" stroke-linejoin="bevel" d="M96.8012 0C93.4239 6.75466 82.281 10.4274 76.2569 14.1621C67.4581 19.617 58.8519 24.5729 49.7294 29.3869C46.0241 31.3422 41.8866 31.0513 38.0941 32.1796C26.2683 35.6978 16.2242 46.4668 10.9016 57.1119C7.41334 64.0884 -5.57538 84.8067 2.72339 90.1557" sodipodi:nodetypes="cccccc"/><path id="shape412" transform="translate(16.6961072463197, 227.854274846487)" fill="none" stroke="#000000" stroke-width="1.5" stroke-linecap="square" stroke-linejoin="bevel" d="M35.4683 0.183C34.8894 -0.68604 33.2131 1.79038 32.9421 2.37733C31.2494 6.04462 29.7909 10.39 28.6201 14.2118C26.1541 22.2622 21.1579 29.5238 17.9825 37.2156C12.9539 49.3962 5.10436 63.2681 3.62119 76.5758C1.95824 91.4967 3.42197 107.911 3.42197 122.917C3.42197 129.762 3.0178 143.943 1.16172 150.442C0.264647 153.583 0.486022 156.181 0.629987 159.484C0.697593 161.036 -0.670906 165.233 0.430037 164.138C1.7512 162.824 2.86261 161.107 4.21958 159.75" sodipodi:nodetypes="cccccccccc"/><path id="shape512" transform="translate(197.568851889406, 212.080778931279)" fill="none" stroke="#000000" stroke-width="1.5" stroke-linecap="square" stroke-linejoin="bevel" d="M4.1234 0C-2.61405 6.70043 0.381895 20.1563 2.79332 27.9902C3.70949 30.9664 4.75297 40.2126 5.0543 39.3595" sodipodi:nodetypes="ccc"/><path id="shape611" transform="translate(1.03634837508611, 387.604429200659)" fill="none" stroke="#000000" stroke-width="1.5" stroke-linecap="square" stroke-linejoin="bevel" d="M19.8793 0C14.8494 4.62248 20.9899 12.8397 23.1371 18.6159C28.0207 31.7531 33.3089 48.0045 26.5282 61.5657C24.6544 65.3135 20.6024 63.0991 19.7468 60.1031C18.5959 56.0735 17.4444 37.8252 9.17502 41.9523C2.71397 45.1769 2.48202 65.4507 6.18309 71.0074C7.25961 72.6236 10.1415 78.9818 9.1091 81.0466C7.46337 84.3381 1.2312 84.2356 0 86.698" sodipodi:nodetypes="cccccccc"/><path id="shape712" transform="translate(33.6530223778882, 383.349070705255)" fill="none" stroke="#000000" stroke-width="1.5" stroke-linecap="square" stroke-linejoin="bevel" d="M69.3735 0C65.7899 0 61.0533 2.06678 57.4724 2.72607C49.2341 4.24284 39.069 4.32128 30.6783 4.32128C25.8391 4.32128 20.2795 4.91551 15.7853 2.99193C15.6072 2.91571 15.1865 2.36107 14.9877 2.4602C9.90469 4.99469 5.12216 15.8354 3.81828 21.5412C-0.418397 40.081 6.02599 59.009 4.41666 77.523C3.6837 85.9551 -0.694016 95.8577 0.0946549 104.117C0.816811 111.68 9.13711 120.344 9.13711 124.927" sodipodi:nodetypes="ccccccccc"/><path id="shape813" transform="translate(43.5808005786505, 388.667902614656)" fill="none" stroke="#000000" stroke-width="1.5" stroke-linecap="square" stroke-linejoin="bevel" d="M62.7702 0C49.0849 0 37.0694 7.55138 23.0115 5.5847C22.5471 5.51973 -0.457402 -0.0908427 0.00693549 0.930905" sodipodi:nodetypes="ccc"/><path id="shape912" transform="translate(28.8071562595331, 378.208935417344)" fill="none" stroke="#000000" stroke-width="1.5" stroke-linecap="square" stroke-linejoin="bevel" d="M20.1661 9.39549C15.3115 8.42244 15.106 -1.82755 5.00717 0.286389C-0.0716958 1.34953 -1.14853 8.02423 1.15098 11.7224C4.1544 16.5526 10.3875 12.5378 10.7918 17.1738" sodipodi:nodetypes="cccc"/><path id="shape1012" transform="translate(32.6957772362619, 368.639937107794)" fill="none" stroke="#000000" stroke-width="1.5" stroke-linecap="square" stroke-linejoin="bevel" d="M11.3578 15.4408C11.3578 10.8615 9.14447 7.34483 6.03821 4.13812C4.82751 2.88827 3.22731 -1.20829 2.44863 0.347848C1.41271 2.41805 -0.62708 4.63513 0.187646 7.19597C1.66825 11.8498 8.01628 11.4814 9.2301 15.64" sodipodi:nodetypes="ccccc"/><path id="shape1112" transform="translate(55.0359954475949, 399.039698079961)" fill="none" stroke="#000000" stroke-width="1.5" stroke-linecap="square" stroke-linejoin="bevel" d="M0.12031 0C-0.918165 0 5.0943 3.0285 5.57244 3.32445C17.9802 11.0045 0.610591 0.0347721 13.3515 8.31077C24.4739 15.5355 33.643 18.7081 46.8604 19.0151" sodipodi:nodetypes="cccc"/><path id="shape1213" transform="translate(51.3927561182605, 421.645099904772)" fill="none" stroke="#000000" stroke-width="1.5" stroke-linecap="square" stroke-linejoin="bevel" d="M0.771614 0C-2.14193 2.32956 4.02449 5.14396 5.55871 6.38304C11.4916 11.1746 18.6073 15.8232 21.1827 23.3364" sodipodi:nodetypes="ccc"/><path id="shape1313" transform="translate(-23.3310718736924, 496.575297989507)" fill="none" stroke="#000000" stroke-width="1.5" stroke-linecap="square" stroke-linejoin="bevel" d="M61.4667 0C49.6746 0 34.2102 2.84973 22.9714 6.24974C22.9393 6.25946 -2.69766 12.9423 0.233458 15.0922" sodipodi:nodetypes="ccc"/><path id="shape1412" transform="translate(-19.3080738154197, 551.389718236056)" fill="none" stroke="#000000" stroke-width="1.5" stroke-linecap="square" stroke-linejoin="bevel" d="M45.2767 8.48056C36.0427 13.3156 20.6959 7.09219 12.167 3.69346C9.23557 2.52533 3.03182 -1.79453 0 0.834097" sodipodi:nodetypes="ccc"/><path id="shape153" transform="translate(32.2966493350043, 270.189493614303)" fill="none" stroke="#000000" stroke-width="1.5" stroke-linecap="square" stroke-linejoin="bevel" d="M2.11606 0C2.11606 2.51965 -0.399991 5.58115 0.0550359 8.70994C1.29273 17.2203 8.33554 21.4876 10.4935 29.2543C14.2058 42.6154 16.9826 57.0102 19.0701 70.7415C20.6415 81.0778 21.4325 93.1032 20.3335 103.519C19.923 107.41 15.9725 109.754 16.2774 113.425" sodipodi:nodetypes="cccccc"/><path id="shape164" transform="translate(48.7532232758263, 242.53112823359)" fill="none" stroke="#000000" stroke-width="1.5" stroke-linecap="square" stroke-linejoin="bevel" d="M0.552514 0C-1.52712 2.07963 2.81507 10.0139 4.47535 13.8295C7.75637 21.3699 12.4048 28.0953 15.7114 35.57C16.902 38.2613 19.9984 48.2889 23.9555 50.5963C31.193 54.8165 36.0701 58.4744 44.8324 58.8404C47.6788 58.9593 56.9224 56.4959 57.066 59.5054" sodipodi:nodetypes="cccccc"/><path id="shape174" transform="translate(94.385775456911, 283.952392321212)" fill="none" stroke="#000000" stroke-width="1.5" stroke-linecap="square" stroke-linejoin="bevel" d="M5.84803 0C-3.14206 0 -1.38641 7.57397 8.50745 5.98387C18.288 4.41198 10.4695 -0.986307 4.58534 0.797605" sodipodi:nodetypes="ccc"/><path id="shape183" transform="translate(78.3948123936527, 306.322208790794)" fill="none" stroke="#000000" stroke-width="1.5" stroke-linecap="square" stroke-linejoin="bevel" d="M4.95159 81.2822C2.5186 81.2822 3.58837 70.3897 2.82391 68.3836C-3.23347 52.4876 1.75522 34.4261 5.68328 18.7182C6.09413 17.0752 7.14015 -2.65573 11.6005 0.301503" sodipodi:nodetypes="cccc"/><path id="shape194" transform="translate(85.0749179312239, 369.581909570793)" fill="none" stroke="#000000" stroke-width="1.5" stroke-linecap="square" stroke-linejoin="bevel" d="M0 2.06529C0 0.534921 13.3128 -1.01823 14.3613 0.868518" sodipodi:nodetypes="cc"/><path id="shape204" transform="translate(82.224119295472, 336.961294449989)" fill="none" stroke="#000000" stroke-width="1.5" stroke-linecap="square" stroke-linejoin="bevel" d="M0.258033 2.97213C-1.26852 4.49869 4.39026 1.71874 6.44112 1.04441C10.143 -0.172797 15.2978 -0.158255 19.1405 0.246068" sodipodi:nodetypes="ccc"/><path id="shape21_4c44c862" transform="translate(58.8799271243173, 170.649981665306)" fill="none" stroke="#000000" stroke-width="1.5" stroke-linecap="square" stroke-linejoin="bevel" d="M0 4.06568C8.32689 4.06568 16.5266 5.10865 24.8656 3.79907C41.5689 1.17596 59.7402 -5.55218 70.0098 9.38451" sodipodi:nodetypes="ccc"/><path id="shape223" transform="translate(142.890642647118, 165.34122581205)" fill="none" stroke="#000000" stroke-width="1.5" stroke-linecap="square" stroke-linejoin="bevel" d="M1.42385 18.7487C-2.61872 18.7487 2.99099 10.6869 5.34669 10.0387C16.9903 6.83523 28.8816 5.7296 40.5841 3.39056C44.0229 2.70325 50.6901 -2.47212 50.6901 1.4621" sodipodi:nodetypes="cccc"/>
</svg>
