<?xml version="1.0" encoding="utf-8"?><svg xmlns:xlink="http://www.w3.org/1999/xlink" id="Helicoptero" image-rendering="optimizeQuality" baseProfile="basic" version="1.1" x="0px" y="0px" width="350" height="275" xmlns="http://www.w3.org/2000/svg"><g id="Escena_1_f293_l1" overflow="visible"><path fill="#900" d="M362.95,140L362.95,139 247.95,69 147.4,141 362.95,140"/><path fill="#999" d="M362.95,285L362.95,140 147.4,141 146,142 146,279 146,279.025 362.95,285"/><path fill="#999" d="M146,142L146,141 146,137 101,137 98,137 98,279 145,279 146,279 146,142"/><path fill="#999" d="M98,137L101,137 101,56 -4,56 -4,279 98,279 98,137"/><path fill="#06F" stroke-linecap="round" stroke-linejoin="round" d="M82,86L82,68 64,68 64,86 82,86"/><path fill="#06F" stroke-linecap="round" stroke-linejoin="round" d="M22,67L6,67 6,85 22,85 22,67"/><path fill="#06F" stroke-linecap="round" stroke-linejoin="round" d="M34,67L34,86 51,86 51,67 34,67"/><path fill="#06F" stroke-linecap="round" stroke-linejoin="round" d="M57,131L57,113 39,113 39,131 57,131"/><path fill="#06F" stroke-linecap="round" stroke-linejoin="round" d="M69,114L69,132 87,132 87,114 69,114"/><path fill="#06F" stroke-linecap="round" stroke-linejoin="round" d="M26,112L6,112 6,132 26,132 26,112"/><path fill="#06F" stroke-linecap="round" stroke-linejoin="round" d="M23,152L8,152 8,167 23,167 23,152"/><path fill="#06F" stroke-linecap="round" stroke-linejoin="round" d="M39,153L39,169 55,169 55,153 39,153"/><path fill="#06F" stroke-linecap="round" stroke-linejoin="round" d="M30,192L10,192 10,212 30,212 30,192"/><path fill="#06F" stroke-linecap="round" stroke-linejoin="round" d="M71,151L71,171 91,171 91,151 71,151"/><path fill="#06F" stroke-linecap="round" stroke-linejoin="round" d="M64,189L43,189 43,210 64,210 64,189"/><path fill="#06F" stroke-linecap="round" stroke-linejoin="round" d="M94,194L73,194 73,215 94,215 94,194"/><path fill="#06F" stroke-linecap="round" stroke-linejoin="round" d="M90,260L90,243 73,243 73,260 90,260"/><path fill="#06F" stroke-linecap="round" stroke-linejoin="round" d="M66,240L44,240 44,262 66,262 66,240"/><path fill="#06F" stroke-linecap="round" stroke-linejoin="round" d="M31,237L8,237 8,260 31,260 31,237"/><path fill="none" stroke="#000" stroke-linecap="round" stroke-linejoin="round" d="M247.95,69L362.95,139M147.4,141L247.95,69M146,141L147.4,141M146,137L146,141M101,137L146,137M101,56L101,137M-4,56L101,56M-4,279L-4,56M98,279L-4,279M145,279L98,279M146,279.025L145,279M362.95,285L146,279.025M362.95,140L362.95,285M362.95,140L363.95,140M362.95,139L362.95,140"/><path fill="none" stroke="#000" stroke-linecap="round" stroke-linejoin="round" d="M147.4,141L362.95,140"/><path fill="none" stroke="#000" stroke-linecap="round" stroke-linejoin="round" d="M147.4,141L146,142 146,279"/><path fill="none" stroke="#000" stroke-linecap="round" stroke-linejoin="round" d="M146,141L146,142"/><path fill="none" stroke="#000" stroke-linecap="round" stroke-linejoin="round" d="M101,137L98,137 98,279M145,279L146,279"/><path fill="none" stroke="#06F" stroke-linecap="round" stroke-linejoin="round" d="M82,86L82,68 64,68 64,86 82,86"/><path fill="none" stroke="#06F" stroke-linecap="round" stroke-linejoin="round" d="M22,67L6,67 6,85 22,85 22,67"/><path fill="none" stroke="#06F" stroke-linecap="round" stroke-linejoin="round" d="M34,67L34,86 51,86 51,67 34,67"/><path fill="none" stroke="#06F" stroke-linecap="round" stroke-linejoin="round" d="M57,131L57,113 39,113 39,131 57,131"/><path fill="none" stroke="#06F" stroke-linecap="round" stroke-linejoin="round" d="M69,114L69,132 87,132 87,114 69,114"/><path fill="none" stroke="#06F" stroke-linecap="round" stroke-linejoin="round" d="M26,112L6,112 6,132 26,132 26,112"/><path fill="none" stroke="#06F" stroke-linecap="round" stroke-linejoin="round" d="M23,152L8,152 8,167 23,167 23,152"/><path fill="none" stroke="#06F" stroke-linecap="round" stroke-linejoin="round" d="M39,153L39,169 55,169 55,153 39,153"/><path fill="none" stroke="#06F" stroke-linecap="round" stroke-linejoin="round" d="M30,192L10,192 10,212 30,212 30,192"/><path fill="none" stroke="#06F" stroke-linecap="round" stroke-linejoin="round" d="M71,151L71,171 91,171 91,151 71,151"/><path fill="none" stroke="#06F" stroke-linecap="round" stroke-linejoin="round" d="M64,189L43,189 43,210 64,210 64,189"/><path fill="none" stroke="#06F" stroke-linecap="round" stroke-linejoin="round" d="M94,194L73,194 73,215 94,215 94,194"/><path fill="none" stroke="#06F" stroke-linecap="round" stroke-linejoin="round" d="M90,260L90,243 73,243 73,260 90,260"/><path fill="none" stroke="#06F" stroke-linecap="round" stroke-linejoin="round" d="M66,240L44,240 44,262 66,262 66,240"/><path fill="none" stroke="#06F" stroke-linecap="round" stroke-linejoin="round" d="M31,237L8,237 8,260 31,260 31,237"/></g></svg>