<?xml version="1.0" standalone="no"?>
<!DOCTYPE svg PUBLIC "-//W3C//DTD SVG 20010904//EN" "http://www.w3.org/TR/2001/REC-SVG-20010904/DTD/svg10.dtd">
<!-- Created using Krita: https://krita.org -->
<svg xmlns="http://www.w3.org/2000/svg" 
    xmlns:xlink="http://www.w3.org/1999/xlink"
    xmlns:krita="http://krita.org/namespaces/svg/krita"
    xmlns:sodipodi="http://sodipodi.sourceforge.net/DTD/sodipodi-0.dtd"
    width="600pt"
    height="600pt"
    viewBox="0 0 600 600">
<defs/>
<rect id="shape0" fill="#f2f2f2" fill-rule="evenodd" stroke="#000000" stroke-width="0.75" stroke-linecap="square" stroke-linejoin="bevel" width="600" height="600"/><path id="shape01" transform="translate(11.6269704551992, 150.24846989344)" fill="#808080" fill-rule="evenodd" stroke="#808080" stroke-width="0.75" stroke-linecap="square" stroke-linejoin="bevel" d="M0 1.36672L1.15503 39.6481L115.751 39.6429L117.017 0Z" sodipodi:nodetypes="ccccc"/><path id="shape1" transform="translate(33.5922422174415, 182.849217696737)" fill="none" stroke="#808080" stroke-width="0.75" stroke-linecap="square" stroke-linejoin="miter" stroke-miterlimit="2" d="M0 0L6.9995 428.888" sodipodi:nodetypes="cc"/><path id="shape2" transform="translate(100.34646653463, 186.417472815557)" fill="#808080" fill-rule="evenodd" stroke-opacity="0" stroke="#000000" stroke-width="0" stroke-linecap="square" stroke-linejoin="bevel" d="M0 0.963864L1.13012 5.55174L12.1003 5.25255L12.1003 0L0 0.963864" sodipodi:nodetypes="ccccc"/><path id="shape3" transform="translate(92.9464929077891, 188.977279690159)" fill="none" stroke="#808080" stroke-width="0.75" stroke-linecap="square" stroke-linejoin="miter" stroke-miterlimit="2" d="M13.6827 0L0 430.231" sodipodi:nodetypes="cc"/><path id="shape4" transform="translate(27.6768818743458, 186.665063947714)" fill="#808080" fill-rule="evenodd" stroke-opacity="0" stroke="#000000" stroke-width="0" stroke-linecap="square" stroke-linejoin="bevel" d="M0 1.2817L0.997189 6.00215L12.1096 5.75096L12.5088 0L0 1.2817" sodipodi:nodetypes="ccccc"/><path id="shape02" transform="translate(132.240055401579, 351.621365301352)" fill="#775555" fill-rule="evenodd" stroke="#000000" stroke-width="0.75" stroke-linecap="square" stroke-linejoin="bevel" d="M148.267 263.306C149.543 274.575 151.458 243.783 151.458 240.834C151.458 236.791 151.348 232.774 151.192 228.734C150.183 202.482 146.538 177.28 149.464 150.947C152.207 126.258 155.148 59.1484 145.94 36.1294C139.503 20.0384 132.678 12.9275 118.443 3.97614C107.39 -1.35514 52.0631 -1.97175 36.8761 6.13863C29.5669 10.4964 19.0552 18.9394 16.1588 25.8904C0.398843 63.7144 3.36423 137.959 3.12749 177.74C3.03723 192.908 2.4691 208.084 1.53183 223.216C1.28692 227.169 -2.06535 256.666 1.99719 248.378" sodipodi:nodetypes="ccccccccccc"/><path id="shape11" transform="translate(288.488824518067, 360.324741101147)" fill="#775555" fill-rule="evenodd" stroke="#000000" stroke-width="0.75" stroke-linecap="square" stroke-linejoin="bevel" d="M5.64782 240.508C5.64782 243.042 4.39243 235.581 4.11862 233.062C3.54935 227.824 3.03158 222.565 2.65588 217.305C1.50116 201.138 -0.95702 184.669 0.395363 168.439C2.0066 149.102 3.64509 129.73 5.98025 110.465C9.28144 83.2293 8.00913 49.5718 21.1722 24.5618C35.8278 -2.8579 101.971 -2.64709 117.384 3.07698C127.817 7.20274 145.918 12.5081 150.787 24.1013C161.988 50.7703 161.588 82.4653 160.893 111.329C160.243 138.332 161.447 164.604 161.824 191.575C161.958 201.144 160.994 210.772 160.095 220.297C159.838 223.024 163.509 243.641 161.292 239.675" sodipodi:nodetypes="cccccccccccc"/><path id="shape0_1a8cece7" transform="translate(147.043406417784, 245.643469561486)" fill="#444444" fill-rule="evenodd" stroke="#000000" stroke-width="0.75" stroke-linecap="square" stroke-linejoin="bevel" d="M90.9229 143.19C89.5285 143.846 90.8236 133.999 90.9229 131.86C91.2957 123.819 90.089 116.124 91.0171 108.071C91.6959 102.182 92.3965 90.724 93.4319 86.2957C99.2376 68.5287 92.8803 64.1521 98.92 47.5398C101.344 40.8707 103.395 24.2234 103.993 17.1956C104.19 14.8704 104.36 8.99659 104.777 6.69921C104.98 5.58736 95.5301 -1.00023 95.5301 0.129839C95.5301 1.25991 0 81.7845 0 98.1515C0 114.519 17.2432 114.663 22.2842 113.619C25.9895 112.725 39.772 107.915 43.7097 110.279C53.8843 116.386 48.9442 134.441 48.9442 144.433" sodipodi:nodetypes="cccccccccccc"/><path id="shape1_4bc7bdaa" transform="translate(197.347448477287, 317.138746500007)" fill="none" stroke="#000000" stroke-width="0.75" stroke-linecap="square" stroke-linejoin="bevel" d="M0 35.8707C0 35.5064 9.82977 28.9148 10.3896 28.4901C21.4357 20.11 27.2702 9.8764 36.0116 0" sodipodi:nodetypes="ccc"/><path id="shape21" transform="translate(157.997486923498, 370.921515747676)" fill="none" stroke="#000000" stroke-width="0.75" stroke-linecap="square" stroke-linejoin="bevel" d="M0 3.29073C0.463281 3.17587 0.198694 4.57219 0.282255 4.79523C1.136 7.07397 3.39377 8.37351 5.17122 9.96697C7.48565 12.727 14.0191 16.052 22.613 17.6829C40.5618 19.7473 61.8633 19.3962 79.7638 17.7737C93.073 14.9478 97.7267 13.8481 99.8084 0" sodipodi:nodetypes="cccccc"/><path id="shape31" transform="translate(336.08830546219, 244.701198727292)" fill="#444444" fill-rule="evenodd" stroke="#000000" stroke-width="0.75" stroke-linecap="square" stroke-linejoin="bevel" d="M4.64976 149.646C3.65932 146.626 5.07985 138.981 5.21226 135.811C5.70032 124.127 5.02427 112.516 5.02427 100.833C5.02427 92.2857 2.98138 91.2174 2.30724 84.0698C1.51327 71.0771 2.46582 73.5649 2.38729 65.2225C2.32435 60.6591 1.37285 45.4042 0.744906 38.8435C0.195696 33.7366 -1.22355 3.72004 2.34466 0.132123C5.91286 -3.4558 81.588 67.1086 83.0182 80.6649C84.4485 94.2212 83.1819 118.123 68.9614 125.233C64.3251 127.551 49.6404 124.525 47.3827 130.169C44.6754 136.937 45.5372 146.209 46.4893 153.253" sodipodi:nodetypes="ccccccccccc"/><path id="shape41" transform="translate(346.235169715229, 331.398051115469)" fill="none" stroke="#000000" stroke-width="0.75" stroke-linecap="square" stroke-linejoin="bevel" d="M0 0C1.41127 4.78125 4.2931 11.1068 5.30861 12.4044C8.35939 16.4437 17.8825 26.9386 22.049 30.315C24.0349 31.4181 31.8961 37.6576 31.3552 35.9565" sodipodi:nodetypes="cccc"/><path id="shape5" transform="translate(323.529900169608, 381.373988242401)" fill="none" stroke="#000000" stroke-width="0.75" stroke-linecap="square" stroke-linejoin="bevel" d="M0 0.0313558C0 -0.42273 0.6062 4.18526 1.59175 5.43222C3.31064 8.03148 13.14 12.8135 15.9264 12.8769C21.2097 14.284 47.027 16.3757 60.1974 16.7466C71.7024 17.0706 99.683 11.2268 102.159 7.03646C103.032 5.55858 103.838 3.48125 102.817 1.86472C102.693 1.66889 101.514 -0.195005 101.783 0.877603" sodipodi:nodetypes="ccccccc"/><path id="shape03" transform="matrix(1.00000002133277 0 0 1.00000002133277 491.927848926331 273.45175277693)" fill="#555555" fill-rule="evenodd" stroke="#000000" stroke-width="0.75" stroke-linecap="square" stroke-linejoin="bevel" d="M2.5292 5.67652C-0.620662 12.4297 0.248602 20.5737 0.0735691 25.2015C-0.391757 37.5045 1.46099 294.527 2.52221 316.485C2.83804 323.02 36.3295 398.809 48.6639 407.305C57.5176 413.404 121.278 380.68 126.848 379.195C132.867 377.591 150.925 50.0931 148.071 4.8563C130.657 3.37759 34.2643 0.175588 23.0621 0.0466941C12.9176 0.36436 7.35977 -1.73483 2.5292 5.67652Z" sodipodi:nodetypes="cccccccc"/><path id="shape12" transform="matrix(1.00000002133277 0 0 1.00000002133277 512.506673232639 281.3024726226)" fill="#777777" stroke="#000000" stroke-width="0.75" stroke-linecap="square" stroke-linejoin="bevel" d="M94.6511 91.5517C84.8462 90.3368 58.3162 94.44 49.7822 88.2437C40.556 81.5449 34.8891 68.4138 29.6724 58.6256C23.9842 47.9527 16.9615 37.9266 11.8663 26.9388C9.0822 20.9351 0.485596 10.391 0.00425262 3.6509C-0.230483 0.363956 9.32259 0.495129 11.2755 0.407043C23.6561 -0.151365 36.1021 0.17025 48.4862 0.301262C62.4469 0.448954 76.7422 -0.580951 90.645 0.501042" sodipodi:nodetypes="cccccccc"/><path id="shape22" transform="matrix(1.00000002133277 0 0 1.00000002133277 498.791243840902 299.08902800531)" fill="#777777" stroke="#000000" stroke-width="0.75" stroke-linecap="square" stroke-linejoin="bevel" d="M55.1635 376.017C55.1635 377.885 52.5772 317.406 51.5732 295.834C50.7035 277.147 52.4888 190.798 52.1831 172.096C51.487 129.501 54.5495 89.5738 50.8185 82.2441C45.6847 74.3042 14.9597 6.5641 6.17314 0.299847C-2.26143 -3.53429 0.397616 30.2882 0.397616 51.0794C0.397616 91.5747 -0.719236 276.285 4.89976 288.521C10.551 302.158 51.7847 383.897 55.1635 376.017Z" sodipodi:nodetypes="cccccccc"/><path id="shape32" transform="matrix(1.00000002133277 0 0 1.00000002133277 567.196753859007 387.275034323524)" fill="#777777" stroke="#000000" stroke-width="0.75" stroke-linecap="square" stroke-linejoin="bevel" d="M44.0801 229.214C41.6913 229.214 0 230.424 0 229.182C0 220.608 1.32823 212.232 1.46264 203.652C1.80047 182.086 1.64345 160.717 0.798339 139.16C-0.602173 103.435 -0.214798 16.3335 2.85777 8.48563C5.22226 2.63737 9.87305 1.6327 18.2825 0.706598C19.8289 0.809391 35.9008 -0.35165 43.5803 0.108211" sodipodi:nodetypes="ccccccc"/><path id="shape42" transform="matrix(1.00000002133277 0 0 1.00000002133277 544.491474264313 341.534390899819)" fill="#333333" fill-rule="evenodd" stroke="#000000" stroke-width="0.75" stroke-linecap="square" stroke-linejoin="bevel" d="M9.87609 0.0211216C-1.22085 -0.773388 -4.2613 21.1085 7.51587 21.496C16.9484 21.8064 33.7979 8.83617 20.1479 2.51428C15.1567 0.202638 9.54725 2.78015 4.42396 2.78015" sodipodi:nodetypes="cccc"/><path id="shape51" transform="matrix(1.00000002133277 0 0 1.00000002133277 503.428774487508 265.411693354159)" fill="#333333" fill-rule="evenodd" stroke="#000000" stroke-width="0.75" stroke-linecap="square" stroke-linejoin="bevel" d="M10.7813 0C9.14568 1.62665 5.49623 0.854474 3.634 3.15783C-3.38229 11.8361 -0.13477 23.6784 12.4765 22.4058C21.2848 21.517 25.2141 7.39493 17.5628 2.3269C16.4736 1.60543 9.50548 -0.834748 8.65364 0.864255" sodipodi:nodetypes="ccccc"/><rect id="shape04" transform="matrix(0.999999986991806 0 0 0.999999986991806 0 0)" fill="#000000" fill-opacity="0.12156862745098" fill-rule="evenodd" stroke="#000000" stroke-width="0.75" stroke-linecap="square" stroke-linejoin="bevel" width="600" height="600"/><path id="shape0_12c937ed" transform="translate(-80.9752120569968, -11.9122657732138)" fill="none" stroke="#000000" stroke-width="0.75" stroke-linecap="square" stroke-linejoin="miter" stroke-miterlimit="2" d="M266.078 0L0 537.674" sodipodi:nodetypes="cc"/><path id="shape13" transform="translate(285.230979149469, -12.6439530601172)" fill="none" stroke="#000000" stroke-width="0.75" stroke-linecap="square" stroke-linejoin="miter" stroke-miterlimit="2" d="M26.1291 0L0 668.121" sodipodi:nodetypes="cc"/><path id="shape23" transform="translate(452.488862572595, -16.2394258246107)" fill="none" stroke="#000000" stroke-width="0.75" stroke-linecap="square" stroke-linejoin="miter" stroke-miterlimit="2" d="M0 0L199.791 530.759" sodipodi:nodetypes="cc"/><path id="shape33" transform="translate(-99.2802558217529, -14.1783967702101)" fill="none" stroke="#000000" stroke-width="0.75" stroke-linecap="square" stroke-linejoin="miter" stroke-miterlimit="2" d="M156.375 0L0 178.914" sodipodi:nodetypes="cc"/><path id="shape43" transform="translate(-62.6468193562404, 70.5252098795295)" fill="none" stroke="#000000" stroke-width="0.75" stroke-linecap="square" stroke-linejoin="miter" stroke-miterlimit="2" d="M0 2.65942L738.197 0" sodipodi:nodetypes="cc"/><path id="shape52" transform="translate(-114.904965422864, 188.471882172884)" fill="none" stroke="#000000" stroke-width="0.75" stroke-linecap="square" stroke-linejoin="miter" stroke-miterlimit="2" d="M0 5.91722L847.899 0" sodipodi:nodetypes="cc"/><path id="shape6" transform="translate(-74.8796932960407, 382.07970741817)" fill="none" stroke="#000000" stroke-width="0.75" stroke-linecap="square" stroke-linejoin="miter" stroke-miterlimit="2" d="M0 1.72851L759.405 0" sodipodi:nodetypes="cc"/><path id="shape05" transform="translate(144.237101912723, 228.188227549378)" fill="#444444" fill-rule="evenodd" stroke="#000000" stroke-width="0.75" stroke-linecap="square" stroke-linejoin="bevel" d="M122.508 0C118.648 2.413 98.992 17.2311 108.507 18.5092C105.751 21.7864 103.668 24.6007 102.258 26.952C100.755 29.457 101.489 33.194 100.396 35.928C95.5166 48.124 90.2686 62.815 83.9736 74.356C77.314 86.565 66.1705 94.619 56.1823 103.609C39.4501 118.668 23.6777 129.023 2.92694 116.573C-4.00511 112.414 3.27444 90.961 5.38694 85.924C8.91754 77.505 11.408 68.853 15.4263 60.593C21.6764 47.747 42.5595 21.583 37.4333 6.209" sodipodi:nodetypes="cccccccccc"/><path id="shape14" transform="translate(334.143385689882, 236.067435505502)" fill="#444444" fill-rule="evenodd" stroke="#000000" stroke-width="0.75" stroke-linecap="square" stroke-linejoin="bevel" d="M73.1841 11.2277C66.6001 24.3967 80.2431 41.4757 84.2871 54.1107C87.1161 62.9497 85.8851 103.932 81.1621 111.354C79.1931 114.448 51.0687 121.56 46.7222 121.26C32.3837 120.271 22.6187 95.0107 16.7369 84.2277C6.35482 65.1947 11.0722 42.0007 6.03262 21.0017C3.21452 9.25868 6.3982 9.213 0 0" sodipodi:nodetypes="ccccccc"/><path id="shape011" transform="matrix(0.99999996248398 0 0 0.99999996248398 131.183768116231 -13.5130399499543)" fill="#775555" fill-rule="evenodd" stroke="#000000" stroke-width="0.75" stroke-linecap="square" stroke-linejoin="bevel" d="M174.77 0.752712C174.127 -1.49523 171.195 21.3091 171.195 21.9802C171.195 26.7365 170.726 31.4538 170.796 36.2079C170.979 48.6529 169.728 61.9762 168.27 74.3698C163.891 111.591 164.362 149.701 160.491 187.127C158.618 205.233 150.39 231.304 139.991 242.73C122.939 264.06 52.3517 259.229 42.8285 249.606C36.6737 248.01 16.3226 232.167 13.9173 225.913C6.75205 207.284 8.33297 182.32 7.93348 162.753C7.28872 131.174 5.49484 99.0106 2.74758 67.6145C1.20868 50.0277 0.687021 32.0799 0.354035 14.4271C0.33365 13.3464 -0.739058 0 0.952422 0" sodipodi:nodetypes="cccccccccccc"/><path id="shape111" transform="matrix(0.99999996248398 0 0 0.99999996248398 293.536535662549 -9.95415013733781)" fill="#775555" fill-rule="evenodd" stroke="#000000" stroke-width="0.75" stroke-linecap="square" stroke-linejoin="bevel" d="M160.132 2.13971C164.573 4.36034 164.459 37.6553 164.584 41.7834C165.33 66.3998 166.607 90.8852 167.111 115.581C167.682 143.598 171.483 173.648 167.443 201.479C165.083 217.737 152.954 241.821 138.94 250.83C135.318 255.502 39.977 272.27 26.2262 239.109C17.1839 226.088 17.0637 200.441 14.7241 185.323C11.8043 166.456 11.904 147.533 10.2031 128.612C8.19187 106.239 3.6874 85.2327 3.6874 62.5265C3.6874 51.6205 3.488 40.7209 3.488 29.8162C3.488 26.3839 0 -1.27002 0 0.045443" sodipodi:nodetypes="ccccccccccc"/><path id="shape06" transform="translate(504.146524388627, 238.326741376001)" fill="#333333" fill-rule="evenodd" stroke="#000000" stroke-width="0.75" stroke-linecap="square" stroke-linejoin="bevel" d="M14.8418 1.5027C6.31359 1.5027 -1.6064 7.87246 0.28131 18.9885C1.27613 24.8466 6.55778 32.4267 13.9109 30.092C19.2133 28.4084 23.9162 24.8924 27.9389 21.0495C30.3157 18.779 33.033 7.17422 28.2055 4.7605C24.4654 2.89043 20.5923 1.06317 16.5037 0.0400592C15.2605 -0.271009 10.7408 1.37376 11.1848 0.0400592" sodipodi:nodetypes="ccccccc"/><path id="shape15" transform="translate(543.602786547206, 312.396289511114)" fill="#333333" fill-rule="evenodd" stroke="#000000" stroke-width="0.75" stroke-linecap="square" stroke-linejoin="bevel" d="M15.1938 2.99433C4.35812 2.99433 -5.90728 24.6501 4.02444 31.3844C17.9089 40.7988 39.0374 25.1508 31.0178 9.1115C28.5765 4.22895 24.6786 0.323242 18.9175 0.00239637C17.6174 -0.0700044 10.7393 1.52415 10.7393 1.26582" sodipodi:nodetypes="ccccc"/><path id="shape24" transform="translate(497.151373499918, -20.1315796402025)" fill="#555555" fill-rule="evenodd" stroke="#262626" stroke-width="0.75" stroke-linecap="square" stroke-linejoin="bevel" d="M3.91174 1.76308C3.91174 40.2554 0.979812 172.991 0.122196 201.221C-0.203639 211.947 0.0445385 227.408 1.82433 238.087C4.54749 254.426 12.5934 265.407 19.4434 280.04C25.4814 292.938 31.4073 305.94 39.1895 317.937C46.431 329.1 48.1994 343.74 56.8745 354.039C66.2895 365.217 90.7574 363.825 103.814 363.081C110.139 362.721 119.099 360.481 123.893 365.275C127.369 366.517 125.19 358.744 124.957 355.768C124.176 345.818 122.245 335.987 121.366 326.048C119.039 299.73 120.378 273.654 122.165 247.395C125.659 196.018 127.073 144.598 129.744 93.2136C131.016 68.7434 137.919 34.6809 130.608 10.9035C127.853 1.94426 114.223 3.45702 107.006 3.45702C84.4847 3.45702 61.5379 0 39.1228 0C31.809 0 2.1956 3.37055 3.91174 1.76308Z" sodipodi:nodetypes="cccccccccccccccc"/><path id="shape34" transform="translate(569.861109396156, -6.15848739711284)" fill="#777777" stroke="#000000" stroke-width="0.75" stroke-linecap="square" stroke-linejoin="bevel" d="M36.1145 0C36.8381 2.902 39.494 336.893 36.4236 336.808C28.1835 336.581 15.0051 339.215 7.50181 334.082C-2.4495 327.275 -0.0042006 305.537 1.05286 295.853C2.44794 283.072 12.754 4.47523 12.754 1.91749C12.754 1.46275 12.0572 -0.863767 12.2223 0.454843" sodipodi:nodetypes="cccccc"/><path id="shape44" transform="translate(506.381379442585, -13.1829673351236)" fill="#777777" stroke="#000000" stroke-width="0.75" stroke-linecap="square" stroke-linejoin="bevel" d="M58.3092 8.9758C56.2897 13.6296 52.0717 283.795 49.4396 297.824C48.9988 300.174 48.8877 309.992 45.185 310.456C39.0995 311.219 36.0452 304.156 34.1482 299.685C28.739 286.939 21.3208 275.052 15.8648 262.32C10.5569 249.934 2.73026 234.922 0.505919 221.564C-2.04352 206.258 5.87271 5.79737 5.85186 0" sodipodi:nodetypes="ccccccc"/>
</svg>
