<?xml version="1.0" encoding="UTF-8" standalone="no"?>
<svg
   width="720"
   height="720"
   viewBox="0 0 190.49999 190.50001"
   version="1.1"
   id="svg8"
   inkscape:version="1.1.1 (3bf5ae0d25, 2021-09-20)"
   sodipodi:docname="dream.svgz"
   xmlns:inkscape="http://www.inkscape.org/namespaces/inkscape"
   xmlns:sodipodi="http://sodipodi.sourceforge.net/DTD/sodipodi-0.dtd"
   xmlns="http://www.w3.org/2000/svg"
   xmlns:svg="http://www.w3.org/2000/svg"
   xmlns:rdf="http://www.w3.org/1999/02/22-rdf-syntax-ns#"
   xmlns:cc="http://creativecommons.org/ns#"
   xmlns:dc="http://purl.org/dc/elements/1.1/">
  <defs
     id="defs2" />
  <sodipodi:namedview
     id="base"
     pagecolor="#ffffff"
     bordercolor="#666666"
     borderopacity="1.0"
     inkscape:pageopacity="0.0"
     inkscape:pageshadow="2"
     inkscape:zoom="0.35"
     inkscape:cx="400"
     inkscape:cy="560"
     inkscape:document-units="px"
     inkscape:current-layer="layer1"
     inkscape:document-rotation="0"
     showgrid="false"
     units="px"
     inkscape:pagecheckerboard="true"
     width="720px"
     objecttolerance="3" />
  <metadata
     id="metadata5">
    <rdf:RDF>
      <cc:Work
         rdf:about="">
        <dc:format>image/svg+xml</dc:format>
        <dc:type
           rdf:resource="http://purl.org/dc/dcmitype/StillImage" />
      </cc:Work>
    </rdf:RDF>
  </metadata>
  <g
     inkscape:label="Layer 1"
     inkscape:groupmode="layer"
     id="layer1">
    <path
       style="fill:none;stroke:#ffffff;stroke-width:9.525;stroke-linecap:round;stroke-linejoin:round;stroke-miterlimit:4;stroke-dasharray:none;stroke-dashoffset:26.6835;stroke-opacity:1"
       d="m 51.090422,77.818506 c 5.740376,-6.734226 11.399239,-13.860143 17.390152,-20.54655 7.488182,-8.357499 4.124571,-5.434893 10.051066,-10.627775 0.972939,-0.852503 2.836267,-3.000838 3.414778,-1.843815 0.175451,0.350898 -2.602941,2.531274 -4.067968,4.436938 -5.275099,6.861688 -11.013313,13.194847 -16.27291,20.080428 -5.940269,7.77668 -3.49441,4.191714 -6.699332,9.796816 -0.446582,0.781035 -2.022104,2.454633 -1.122412,2.454633 1.461394,0 8.001862,-6.014472 9.071281,-6.85333 4.821762,-3.782209 9.913229,-7.225049 14.595491,-11.178646 4.488685,-3.79014 10.10548,-10.518063 15.838826,-12.630753 0.229515,-0.08457 0.109389,0.515027 0,0.733806 -0.65745,1.3149 -4.054483,5.669057 -4.734594,6.371703 -0.900063,0.929889 -23.250594,17.609677 -20.516578,18.819524 0.509138,0.225301 0.862696,-0.704426 1.306381,-1.040765 1.509633,-1.144378 3.036951,-2.265973 4.52479,-3.438548 9.381175,-7.393364 18.716577,-14.867319 29.419387,-20.176546 0.60262,-0.298934 8.61962,-5.144489 9.21081,-4.578532 1.6768,1.605222 -2.72453,3.821057 -4.50515,5.310269 -9.197223,7.692054 -18.462256,15.807896 -28.373461,22.570199 -2.684298,1.831467 -6.136809,2.916465 -8.033617,5.774325 -0.239631,0.36104 0.676807,-0.544232 1.042828,-0.776179 4.346269,-2.754209 2.279182,-1.313442 8.973095,-5.452898 2.676166,-1.654916 34.178225,-20.804084 35.204055,-20.523811 1.71661,0.469005 -1.45593,3.298301 -2.59519,4.665347 -0.8477,1.017189 -1.70549,2.030222 -2.59484,3.013232 -0.87343,0.965413 2.63586,3.239254 1.6812,4.122249 -1.83219,1.694653 -37.922753,21.170171 -37.309351,23.072493 0.502409,1.55811 6.837208,-0.294151 8.342642,-0.937408 9.813073,-4.193043 19.946869,-7.154035 29.357379,-12.301059 2.9634,-1.620813 6.0321,-3.826327 6.02134,-3.794082 -2.0309,6.084085 -13.98233,11.632713 -18.95181,13.949534 -7.293701,3.40039 -14.235545,6.503709 -20.227193,10.988476 -2.5272,1.891618 6.233691,-1.059481 9.281088,-1.88309 11.995435,-3.241952 23.547215,-6.633416 34.712095,-12.177032 0.43062,-0.213812 1.27401,-1.037786 1.32912,-0.560173 0.24168,2.094606 -26.886153,18.865964 -30.185242,21.282424 -1.95534,1.43221 -5.928313,2.72967 -5.230689,5.05085 0.07859,0.26149 27.268331,-7.55815 29.286071,-8.06876 0.11628,-0.0294 20.43662,-7.749661 20.18481,-7.313244 -2.20027,3.813268 -56.682171,22.261494 -56.796531,26.443864 -0.01479,0.5406 4.643011,-1.40072 9.5374,-3.65456 13.023191,-5.99711 27.123581,-8.71902 40.631111,-13.26327 9.33604,-3.140868 3.6072,1.79465 10.55853,-1.11518 0.90655,-0.37948 4.26845,-1.72233 3.84576,-0.83509 -1.22736,2.57631 -12.3872,6.27878 -13.87823,7.04453 -6.80903,3.49692 -47.456548,20.4641 -50.497168,24.93491 -0.687952,1.01154 2.448173,0.42106 3.660759,0.25942 5.998191,-0.79959 12.139771,-2.47984 17.967899,-3.8778 11.33493,-2.71885 22.07799,-8.68311 32.95199,-12.99972 2.68812,-1.0671 6.00593,-2.53005 8.6279,-3.75068 1.0816,-0.50353 6.66245,-1.66656 6.79234,-0.48059 0.51974,4.74546 -9.88525,8.83139 -14.07149,11.12593 -10.7179,5.87468 -22.07793,11.12784 -33.3375,15.875 -0.79209,0.33396 -16.887807,4.57536 -18.030937,6.67143 -0.494858,0.90739 2.031513,-0.38695 3.035475,-0.63252 2.889771,-0.70683 5.880417,-0.99295 8.735385,-1.82934 17.466047,-5.11685 34.627247,-10.18656 52.968337,-11.03912 1.32122,-0.0614 -2.41767,1.07383 -3.61631,1.63297 -1.93675,0.90346 -3.81648,1.92443 -5.72472,2.88665 -2.72438,1.2833 -5.43428,2.5978 -8.17314,3.84989 -5.75141,2.62932 -34.16565,13.47637 -37.833351,16.97985 -0.930055,0.88841 2.555283,-0.3584 3.793051,-0.70797 14.19783,-4.00983 1.50455,-0.87236 20.94549,-5.4467 4.58153,-1.078 9.11858,-2.38434 13.75833,-3.175 5.71683,-0.9742 19.14612,-0.14113 24.47809,-2.63653 2.13852,-1.00084 -4.59858,1.0783 -6.87606,1.70119 -2.86738,0.78422 -5.73587,1.56547 -8.58966,2.39778 -4.36142,1.27203 -17.06239,5.26382 -21.24108,6.23632 -6.27174,1.45961 -27.760958,3.85564 -32.341176,10.26294 -0.711168,0.99485 2.415204,-0.38645 3.619418,-0.59945 2.497293,-0.44173 4.993492,-0.89198 7.499288,-1.28261 14.158,-2.20712 28.54984,-3.23739 42.83459,-4.2261 3.22791,-0.22342 6.47127,0 9.7069,0 1.5885,0 5.32344,-1.24417 4.7594,0.24081 -0.27986,0.73682 -9.87165,3.22212 -10.19059,3.31453 -15.8622,4.59596 -33.16631,6.63478 -48.46009,13.00179 -2.510633,1.04521 5.45058,-0.0221 8.15144,-0.34003 54.29759,-6.39156 -11.637357,1.40162 30.32476,-3.66799 2.97623,-0.35957 5.95601,-0.68909 8.93486,-1.0263 1.29818,-0.14695 4.81711,-1.37546 3.8933,-0.45165 -3.7244,3.7244 -16.25557,5.01718 -20.58169,6.21254 -10.377,2.86731 -20.80669,6.06729 -30.71234,10.31152 -0.13512,0.0579 -7.77549,3.33313 -8.059455,4.7935 -0.144634,0.74384 1.734392,-0.24231 8.949325,-1.04283 11.46068,-1.2716 22.9043,-2.48919 34.3762,-3.65042 25.32574,-2.56357 3.92399,2.431 -6.80992,4.7811 -3.59076,0.78617 -7.31129,0.87703 -10.8996,1.67432 -1.168,0.25952 2.35782,0.50126 3.55431,0.50126 3.46628,0 6.86125,0.3669 10.31565,0.3669"
       id="path9412"
       sodipodi:nodetypes="cssssssssssssssssssssssssssssscsssssssscssssssssssssssssssscsscsssssssssssssscsssssssssssc" />
    <path
       style="fill:none;stroke:#000000;stroke-width:0.264583;stroke-linecap:round;stroke-linejoin:round;stroke-dashoffset:26.6835"
       d="m 67.273413,79.34916 c 1.138343,3.058205 15.214131,23.30314 18.241779,23.26266 7.208216,-0.0964 17.470478,-10.708837 20.482468,-16.732826"
       id="path4777" />
    <path
       style="fill:none;stroke:#000000;stroke-width:0.264583;stroke-linecap:round;stroke-linejoin:round;stroke-dashoffset:26.6835"
       d="m 77.981801,68.702782 c 3.306707,2.996596 5.078828,9.105886 4.503087,13.711824 -0.354772,2.838175 -2.76524,4.539218 -2.710948,4.542359 0.315392,0.01826 2.023457,1.192908 3.773414,2.359546"
       id="path4791" />
    <path
       style="fill:none;stroke:#000000;stroke-width:0.264583;stroke-linecap:round;stroke-linejoin:round;stroke-dashoffset:26.6835"
       d="M 109.08998,56.074095 C 101.28673,51.794502 92.453067,48.03386 83.789199,45.649927 c -2.574859,-0.708496 -7.873847,-2.082011 -7.99021,0.58601 -0.02936,0.673275 4.668403,1.482921 3.672128,1.985409 -2.065446,1.041742 -24.064687,2.070066 -7.513754,1.342552 1.422157,-0.06251 -2.456154,1.440021 -3.694864,2.141471 -3.113016,1.762826 -5.423125,3.686387 -7.72356,6.424414 -5.527945,6.579486 -8.69627,16.45897 -7.402132,25.125082 0.105016,0.703236 0.816452,-1.164368 1.218531,-1.750798 1.271352,-1.854259 6.032418,-10.254732 8.919353,-10.897526 1.444812,-0.321697 -0.225994,2.952181 -0.29559,4.430739 -0.175673,3.732135 0.502311,5.68575 1.384927,9.018571"
       id="path4793" />
    <path
       style="fill:none;stroke:#000000;stroke-width:0.264583;stroke-linecap:round;stroke-linejoin:round;stroke-dashoffset:26.6835"
       d="m 114.80746,56.060659 c 3.88278,6.273192 9.36845,26.707939 3.62769,32.803166 -0.53618,0.569285 -0.24082,-1.551675 -0.24082,-2.333707 0,-1.360538 -0.75358,-13.966073 -2.10839,-13.966073 -0.86463,0 -0.44008,1.688906 -0.8475,2.451531 -0.68159,1.275839 -1.34651,2.571636 -2.19315,3.744473 -1.85764,2.573393 -4.15214,4.838086 -5.77742,7.629509"
       id="path4795" />
    <path
       style="fill:none;stroke:#000000;stroke-width:0.264583;stroke-linecap:round;stroke-linejoin:round;stroke-dashoffset:26.6835"
       d="m 98.180053,66.31533 c -5.56205,-2.563781 -15.124927,-3.182898 -20.698478,0.161232 -1.489745,0.893847 -2.667881,1.793285 -3.704167,3.175 -0.172059,0.229412 -0.308052,1.079531 -0.331764,0.79375 -0.157797,-1.901881 1.541767,-3.928068 1.615406,-6.029606 0.0092,-0.26149 -5.585058,3.852884 -6.285921,4.436938 -3.606093,3.005077 -4.773869,7.804888 -4.773869,12.41888"
       id="path4799" />
    <path
       style="fill:none;stroke:#000000;stroke-width:0.264583;stroke-linecap:round;stroke-linejoin:round;stroke-dashoffset:26.6835"
       d="m 100.46518,65.376887 c 0.30979,3.332626 3.0133,5.068234 4.04007,8.10183 1.67711,4.955051 -0.61551,10.662383 -0.58291,10.657747 1.23932,-0.176178 5.24205,-12.157895 5.24205,-6.001699 0,1.581642 0.0768,3.165154 0,4.744929 -0.17733,3.645849 -0.0869,2.856632 -0.87333,5.609994"
       id="path4801" />
    <path
       style="fill:none;stroke:#000000;stroke-width:0.264583;stroke-linecap:round;stroke-linejoin:round;stroke-dashoffset:26.6835"
       d="m 112.43034,80.05506 c 3.06855,5.482151 7.05157,9.973575 10.27638,13.194027"
       id="path4807" />
    <path
       style="fill:none;stroke:#000000;stroke-width:0.264583;stroke-linecap:round;stroke-linejoin:round;stroke-dashoffset:26.6835"
       d="m 101.00985,95.313044 c 1.59735,-0.401061 6.86739,1.482156 5.99757,3.946011 -0.65314,1.850095 -11.462966,1.187315 -13.374893,1.763205 -0.453618,0.13663 -1.22274,1.71624 -1.529623,2.05879 -8.447891,9.42958 -6.943762,23.8056 -5.539713,35.72288"
       id="path4811" />
    <path
       style="fill:none;stroke:#000000;stroke-width:0.264583;stroke-linecap:round;stroke-linejoin:round;stroke-dashoffset:26.6835"
       d="m 122.87415,94.379768 c 3.83593,1.827837 19.66838,-6.294897 22.29631,-3.666961 1.14694,1.146937 0.96716,3.420632 1.58027,4.793507 1.59138,3.563406 3.83164,6.916686 5.28857,10.570926 2.53158,6.34968 2.90661,20.33725 3.14916,26.96787 0.22263,6.08606 2.28251,12.26694 0.27492,18.21801"
       id="path4813" />
    <path
       style="fill:none;stroke:#000000;stroke-width:0.264583;stroke-linecap:round;stroke-linejoin:round;stroke-dashoffset:26.6835"
       d="m 132.65753,110.51108 c -0.41111,15.35346 9.1306,29.23032 12.79922,43.93427"
       id="path4817" />
    <path
       style="fill:none;stroke:#000000;stroke-width:0.264583;stroke-linecap:round;stroke-linejoin:round;stroke-dashoffset:26.6835"
       d="m 99.23632,118.53953 c -0.0049,9.70435 0.87953,19.59567 0.87953,29.4318 0,2.29384 -0.91073,6.17393 -0.0171,8.0579"
       id="path4821" />
    <path
       style="fill:none;stroke:#000000;stroke-width:0.264583;stroke-linecap:round;stroke-linejoin:round;stroke-dashoffset:26.6835"
       d="m 69.622106,77.643838 c 5.785998,-1.031467 22.946933,-5.98946 29.16928,-1.84123"
       id="path4823" />
    <path
       style="fill:none;stroke:#000000;stroke-width:0.264583;stroke-linecap:round;stroke-linejoin:round;stroke-dashoffset:26.6835"
       d="m 85.885971,78.976962 c 2.258227,-0.805447 4.688999,-1.221351 6.997118,-1.912286 0.680517,-0.203713 1.31409,-0.339167 1.947297,-0.670502 0.848045,-0.443754 0.84443,0.06107 1.149543,0.823852"
       id="path4829" />
    <path
       style="fill:none;stroke:#000000;stroke-width:0.264583;stroke-linecap:round;stroke-linejoin:round;stroke-dashoffset:26.6835"
       d="m 88.645621,78.683053 c 0.11286,1.764771 2.983949,1.802201 4.109569,1.285192 0.436014,-0.200266 0.993066,-0.607825 1.361157,-0.933019 0.699492,-0.617974 1.037555,-1.430501 1.529365,-2.168212"
       id="path4833" />
    <path
       style="fill:none;stroke:#000000;stroke-width:0.264583;stroke-linecap:round;stroke-linejoin:round;stroke-dashoffset:26.6835"
       d="m 89.41728,78.413688 c 0.852549,0.594302 1.813076,1.814045 2.972171,1.610495 1.083852,-0.190333 1.638141,-2.287135 1.638141,-3.138437"
       id="path4835" />
    <path
       style="fill:none;stroke:#000000;stroke-width:0.264583;stroke-linecap:round;stroke-linejoin:round;stroke-dashoffset:26.6835"
       d="m 90.283635,78.981741 c 0.230047,-0.280173 0.453011,-0.566312 0.690139,-0.840518 1.656289,-1.915258 0.247401,1.223719 1.030428,1.798728 0.08777,0.06445 0.188063,-0.113142 0.267168,-0.187971 0.10922,-0.103322 0.691488,-0.78218 0.756026,-0.897363 0.194487,-0.347118 0.542075,-1.952705 0.707191,-0.53162 0.03251,0.279773 0.07428,0.569931 0.07428,0.852403"
       id="path4837" />
    <path
       style="fill:none;stroke:#000000;stroke-width:0.264583;stroke-linecap:round;stroke-linejoin:round;stroke-dashoffset:26.6835"
       d="m 80.236059,79.213897 c -0.430416,0.136763 -0.890685,0.198715 -1.321239,0.331248 -1.173184,0.361129 -2.381168,0.782703 -3.621096,0.854339 -0.556551,0.03216 -2.922653,-0.06842 -3.161048,0.176864 -0.242533,0.249541 -0.433911,0.849172 -0.572058,1.174088"
       id="path4839" />
    <path
       style="fill:none;stroke:#000000;stroke-width:0.264583;stroke-linecap:round;stroke-linejoin:round;stroke-dashoffset:26.6835"
       d="m 78.863274,80.146011 c -0.02729,0.540144 -0.05242,1.174213 -0.386927,1.633363 -0.333597,0.457898 -0.897139,0.456115 -1.392163,0.531881 -1.613691,0.246983 -3.261474,-0.491665 -4.009576,-1.986444"
       id="path4841" />
    <path
       style="fill:none;stroke:#000000;stroke-width:0.264583;stroke-linecap:round;stroke-linejoin:round;stroke-dashoffset:26.6835"
       d="m 74.929404,80.494827 c 0.176384,3.116664 2.781477,0.456708 3.42279,-0.825918"
       id="path4843" />
    <path
       style="fill:none;stroke:#000000;stroke-width:0.264583;stroke-linecap:round;stroke-linejoin:round;stroke-dashoffset:26.6835"
       d="m 77.381451,80.187222 c -0.356658,0.463939 -0.835726,0.798092 -1.207032,1.245016 -0.08475,0.10201 -0.06164,-1.134999 -0.161229,-0.931985 -0.142296,0.290071 -0.556302,1.399691 -0.41393,0.545444"
       id="path4845" />
    <path
       style="fill:none;stroke:#000000;stroke-width:0.264583;stroke-linecap:round;stroke-linejoin:round;stroke-dashoffset:26.6835"
       d="m 83.171876,91.158223 c 2.401445,-0.985023 5.531527,-0.886746 7.524472,-2.275028"
       id="path4964" />
    <path
       style="fill:none;stroke:#000000;stroke-width:0.264583;stroke-linecap:round;stroke-linejoin:round;stroke-dashoffset:26.6835"
       d="m 122.6337,95.412297 c -2.13853,1.094719 -9.28539,13.738143 -9.7308,13.916183 -1.00895,0.40329 -4.93857,-8.77229 -5.95176,-10.275263"
       id="path4966" />
    <path
       style="fill:none;stroke:#000000;stroke-width:0.264583;stroke-linecap:round;stroke-linejoin:round;stroke-dashoffset:26.6835"
       d="m 116.03078,56.284457 c -0.93655,0.01796 5.86751,-1.811078 5.16467,-1.713762 -1.45718,0.201764 -3.59691,-1.128709 -4.91765,-1.65895 -0.42075,-0.168918 -3.06568,-0.170223 -3.31717,-0.546651 -0.50866,-0.761354 0.73593,-6.017217 0.73593,-7.485739 0,-1.105985 -0.99803,1.977474 -1.58441,2.915221 -1.05787,1.691775 -2.80998,4.657942 -2.80998,6.656266"
       id="path4970" />
    <path
       style="fill:none;stroke:#000000;stroke-width:0.264583;stroke-linecap:round;stroke-linejoin:round;stroke-dashoffset:26.6835"
       d="m 71.263972,87.371139 c 2.8359,15.760671 0.359095,12.797831 6.192197,6.390978 0.691666,-0.759698 0.947396,1.825636 1.349084,2.771251 0.579319,1.363774 1.470734,2.843932 2.518389,3.891592"
       id="path4972" />
    <path
       style="fill:none;stroke:#000000;stroke-width:0.264583;stroke-linecap:round;stroke-linejoin:round;stroke-dashoffset:26.6835"
       d="m 143.85272,90.821329 c -2.98204,5.764218 -11.03189,10.589821 -11.03189,17.548281"
       id="path4974" />
    <path
       style="fill:none;stroke:#000000;stroke-width:0.264583;stroke-linecap:round;stroke-linejoin:round;stroke-dashoffset:26.6835"
       d="m 92.358185,99.820263 c 2.927601,5.174097 7.224366,10.364087 7.224366,16.435167"
       id="path4976" />
    <path
       style="fill:none;stroke:#000000;stroke-width:0.264583;stroke-linecap:round;stroke-linejoin:round;stroke-dashoffset:26.6835"
       d="m 96.057184,101.71575 c 0.260104,0.66697 0.488421,1.34723 0.780315,2.00092 1.636384,3.66461 2.921786,5.80684 2.921786,9.80715 0,0.82855 -0.575691,5.12787 0.607715,3.35277"
       id="path4978" />
    <path
       style="fill:none;stroke:#000000;stroke-width:0.264583;stroke-linecap:round;stroke-linejoin:round;stroke-dashoffset:26.6835"
       d="m 141.93139,91.888962 c -4.77322,4.070282 -10.65155,12.596108 -10.65155,19.113048"
       id="path4980" />
    <path
       style="fill:none;stroke:#000000;stroke-width:0.264583;stroke-linecap:round;stroke-linejoin:round;stroke-dashoffset:26.6835"
       d="m 105.8602,100.65639 c 5.36068,0.93411 3.91667,10.02869 7.43211,12.06851 0.22533,0.13075 1.63901,-3.59737 1.79834,-3.91604 2.19698,-4.39397 6.37317,-9.283584 9.78958,-12.7"
       id="path4982" />
  </g>
</svg>
