<?xml version="1.0" encoding="UTF-8" standalone="no"?>
<svg
   width="720"
   height="720"
   viewBox="0 0 190.49999 190.50001"
   version="1.1"
   id="svg8"
   inkscape:version="1.1.2 (0a00cf5339, 2022-02-04)"
   sodipodi:docname="fab.svgz"
   xmlns:inkscape="http://www.inkscape.org/namespaces/inkscape"
   xmlns:sodipodi="http://sodipodi.sourceforge.net/DTD/sodipodi-0.dtd"
   xmlns="http://www.w3.org/2000/svg"
   xmlns:svg="http://www.w3.org/2000/svg"
   xmlns:rdf="http://www.w3.org/1999/02/22-rdf-syntax-ns#"
   xmlns:cc="http://creativecommons.org/ns#"
   xmlns:dc="http://purl.org/dc/elements/1.1/">
  <defs
     id="defs2" />
  <sodipodi:namedview
     id="base"
     pagecolor="#ffffff"
     bordercolor="#666666"
     borderopacity="1.0"
     inkscape:pageopacity="0.0"
     inkscape:pageshadow="2"
     inkscape:zoom="0.35"
     inkscape:cx="400"
     inkscape:cy="560"
     inkscape:document-units="px"
     inkscape:current-layer="layer4"
     inkscape:document-rotation="0"
     showgrid="false"
     units="px"
     inkscape:pagecheckerboard="true"
     width="720px"
     objecttolerance="3" />
  <metadata
     id="metadata5">
    <rdf:RDF>
      <cc:Work
         rdf:about="">
        <dc:format>image/svg+xml</dc:format>
        <dc:type
           rdf:resource="http://purl.org/dc/dcmitype/StillImage" />
      </cc:Work>
    </rdf:RDF>
  </metadata>
  <g
     inkscape:groupmode="layer"
     id="layer4"
     inkscape:label="Layer 2">
    <path
       style="fill:none;fill-opacity:1;stroke:#ffffff;stroke-width:19.05;stroke-linecap:square;stroke-linejoin:round;stroke-miterlimit:4;stroke-dasharray:none;stroke-dashoffset:26.6835;stroke-opacity:1"
       d="m 59.367951,29.839004 c 9.266523,-0.452482 17.534943,-6.083778 25.886793,-9.633519 9.211625,-3.915168 17.721596,-9.401322 27.797786,-9.716203 1.30311,-0.04072 -1.65047,2.023797 -2.56729,2.950724 -8.96325,9.062101 1.74583,1.491862 -13.437935,12.141895 -9.825323,6.891573 -16.377025,10.857494 -26.458333,16.404166 -5.166531,2.842594 -10.819471,4.873273 -15.635221,8.276497 -0.867531,0.613072 -1.349179,1.6422 -2.060855,2.43086 -0.44015,0.487759 -2.002875,1.033626 -1.430404,1.355989 7.107063,4.002035 42.516631,-15.672416 50.700778,-19.214329 4.52089,-1.956541 8.78939,-3.645239 13.16612,-5.835304 0.33011,-0.165182 4.20199,-1.372311 4.17443,-0.880567 -0.13855,2.471663 -3.0101,3.950342 -4.76457,5.696809 -5.95254,5.925386 -9.35538,8.536361 -16.674952,13.535091 -3.798404,2.594033 -7.772533,4.921033 -11.641667,7.408334 -5.352074,3.44062 -22.734198,11.614303 -26.455232,17.384984 -0.794986,1.232887 2.966717,-0.341087 4.293277,-0.967382 2.849002,-1.345068 5.543077,-3.003609 8.394319,-4.343919 15.579847,-7.323764 30.396615,-16.28785 46.881895,-21.119126 4.41503,-1.293897 10.26546,-4.642937 15.09778,-4.789371 0.53479,-0.01622 -0.85021,0.651486 -1.2485,1.008724 -5.24319,4.702786 -2.64969,2.472526 -11.8246,7.580931 -19.78071,11.013506 -8.93605,4.766273 -28.575,16.404167 -20.014847,11.860651 -8.240609,5.147172 -28.045833,15.875 9.926552,1.613274 7.367421,7.382165 8.763291,6.918441 19.671446,-5.711066 44.958632,-25.066115 64.588302,-30.803287 -1.81496,6.223519 -14.38478,17.991188 -15.59388,18.862414 -16.41643,8.575746 -26.638075,18.445308 -42.692999,27.704257 -6.568287,3.78796 -30.869388,17.96434 -30.512865,18.32239 0.507659,0.50983 26.26231,-11.16296 27.937313,-11.64063 18.521971,-5.28202 28.766191,-12.189158 47.057591,-18.245917 1.00539,-0.332912 -5.32943,16.504157 -6.1588,17.162777 -6.33942,5.03425 8.20816,-9.57723 -1.4335,-4.67568 -3.97136,2.01892 -23.212739,10.70912 -27.516668,12.17083 -4.658612,1.58217 -9.634067,2.10682 -14.2875,3.70417 -4.117486,1.41337 -8.397015,4.55161 -12.371337,6.5412 -2.358528,1.1807 -19.100046,15.15597 -19.074805,15.25902 0.194082,0.79232 7.240004,1.40642 16.099275,-0.94051 23.509425,-6.22795 50.657045,-20.25837 74.026485,-26.93996 19.45185,-5.94256 -0.12187,-0.066 12.03648,-3.51503 1.00646,-0.28551 -1.7417,1.15949 -2.6138,1.73736 -24.31777,16.11329 -50.224524,32.35817 -77.639699,42.64856 -0.818758,0.30732 -21.215434,4.48578 -24.553539,8.20932 -0.406123,0.45301 1.223134,0.0875 1.825209,0 2.79564,-0.40641 5.55484,-1.05912 8.284766,-1.78594 7.556095,-2.01176 15.143858,-3.92051 22.62601,-6.19187 -19.425137,22.26306 98.891713,-43.50426 74.083323,-27.45672 -1.88514,1.22308 -10.75726,6.58154 -12.71756,7.68014 -23.36071,13.09201 33.58643,-3.79486 6.7014,11.84734 -5.46527,3.1798 -23.17689,4.52066 -28.83235,7.34839 -20.110415,10.05521 -40.411696,16.57349 -61.323388,24.11429 -4.609915,1.66235 -13.640742,4.07358 -13.709756,5.28134 -0.111644,1.95374 3.936685,-0.0151 5.858039,-0.38654 21.930235,-4.23938 15.71444,-3.78891 37.355859,-8.89868 17.263647,-4.07614 34.229886,-8.50596 51.329166,-13.22917 2.16176,-0.59713 17.57779,-4.18442 20.41323,-6.82956 0.43967,-0.41017 -1.00196,0.6651 -1.49965,1.00252 -7.09109,4.80752 -14.06542,9.79459 -21.3031,14.37845 -15.65968,9.9178 -32.509966,17.94181 -49.212498,25.92917 -4.710824,2.25278 -11.346521,2.31005 -14.154173,6.71277 -0.519166,0.81411 1.963668,0.0257 2.884577,-0.26459 5.64542,-1.77922 11.278039,-3.66439 16.694589,-6.0513 15.471075,-6.81766 30.660515,-14.21717 46.566665,-20.10834 4.4996,-1.66652 9.18495,-2.7815 13.75833,-4.23333 3.09206,-0.98158 6.19565,-1.93661 9.23665,-3.06648 3.35848,-1.24783 7.91378,-4.88574 4.14031,-0.46922 -4.00698,4.68982 -33.21818,25.72655 -33.37987,27.20971 -0.18085,1.65897 3.33761,0 5.00641,0 3.64733,0 7.29674,0.12361 10.94197,0 4.93249,-0.16727 6.72951,-0.40838 11.00708,-0.86197"
       id="path14851"
       sodipodi:nodetypes="csscsssssssssssssssssssccccssssssssssscscsscscccsssscssssssscssssssssc" />
  </g>
  <g
     inkscape:label="Layer 1"
     inkscape:groupmode="layer"
     id="layer1">
    <path
       style="fill:none;fill-opacity:0;stroke:#000000;stroke-width:0.529167;stroke-linecap:square;stroke-linejoin:round;stroke-miterlimit:4;stroke-dasharray:none;stroke-dashoffset:26.6835;stroke-opacity:1"
       d="m 73.475616,66.874471 c 6.53392,13.699527 6.148607,24.582797 21.363038,31.510221 3.618097,1.647388 5.040556,4.655998 9.765816,2.964158 3.25339,-1.16485 14.91859,-11.331074 17.10076,-14.930354 0.005,-0.0087 4.1218,-18.131533 4.7594,-20.681942"
       id="path5503" />
    <path
       style="fill:none;fill-opacity:0;stroke:#000000;stroke-width:0.529167;stroke-linecap:square;stroke-linejoin:round;stroke-miterlimit:4;stroke-dasharray:none;stroke-dashoffset:26.6835;stroke-opacity:1"
       d="m 127.28108,69.19991 c -0.2357,-0.235696 -3.48452,-4.85168 -3.67523,-4.740796 -0.20385,0.118525 -1.51115,2.236819 -1.51515,2.236554 -2.43048,-0.180882 -5.93229,-6.658477 -8.43256,-5.575884 -1.22828,0.531828 -2.60244,4.29809 -4.22507,5.283398 -0.18334,0.111331 -5.55114,-3.983281 -5.27203,-3.704166 0.45582,0.455813 -0.73174,1.145452 -0.73174,1.79007 0,0.210034 0.12975,1.971737 -0.0692,1.964737 -5.930959,-0.207822 -7.390668,-7.157624 -11.32644,-9.783381 -0.825844,-0.55096 -0.569904,4.150222 0.02997,4.750096 0.233844,0.233847 -0.525862,-0.408141 -0.821656,-0.556037 -1.153398,-0.5767 -2.599822,-1.860717 -3.439583,-2.910417 -3.786987,-4.733735 -5.523315,-12.098007 -6.129859,-17.934821 -3.156673,5.138577 -3.313491,10.99872 -3.313491,16.943668 0,1.468883 1.677183,4.801413 0.264584,4.398698 -2.126213,-0.606157 -1.433325,-5.799463 -2.616895,-7.114811 -0.108889,-0.121012 -1.031148,4.211304 -1.059367,4.351156 -0.745065,3.692559 -1.791318,7.713713 -0.540535,11.458732"
       id="path5509" />
    <path
       style="fill:none;fill-opacity:0;stroke:#000000;stroke-width:0.529167;stroke-linecap:square;stroke-linejoin:round;stroke-miterlimit:4;stroke-dasharray:none;stroke-dashoffset:26.6835;stroke-opacity:1"
       d="m 72.808987,81.630159 c -2.389582,-0.503457 -4.159414,-6.033952 -4.611603,-1.512054 -0.129786,1.297863 -0.384432,2.574478 -0.520899,2.710947 -0.191084,0.191082 -2.402022,-4.201773 -2.555917,-4.406966 -3.917243,-5.222994 -5.202782,-11.486647 -5.202782,-18.054711 0,-0.781415 -1.214425,3.37425 -1.953371,2.800861 -1.908251,-1.480723 -0.174836,-9.421691 0.08372,-11.187946 0.299353,-2.044936 2.313342,-6.182646 2.153875,-7.89926 -0.05312,-0.571783 -1.7521,2.499328 -2.238623,2.103231 -0.242447,-0.197384 -0.382474,-0.953315 -0.238747,-1.234035 1.668513,-3.258812 2.121831,-7.589919 4.067969,-10.991575 0.663792,-1.16024 2.866744,-4.512619 2.120802,-3.403409 -0.08673,0.128968 -1.569586,0.964628 -1.600936,0.745172 -0.80614,-5.642988 7.226345,-10.296732 11.439094,-11.702644 2.413838,-0.805565 5.155758,-1.90103 7.696689,-1.375627 7.180803,-4.196619 16.628478,-7.221161 25.143682,-5.417757 0.51054,0.108125 -5.28957,0.973188 -5.58312,3.570842 -0.16007,1.416502 2.84478,-0.1888 4.26744,-0.279053 3.37426,-0.214062 6.82312,-0.2946 9.94565,1.058333 2.46209,1.066778 4.61104,2.721031 7.02593,3.792017 0.69819,0.309645 -2.22818,-0.761162 -2.29134,0 -0.11236,1.354226 1.8452,2.010091 2.90732,2.857707 5.26831,4.204328 9.969,8.194947 12.73514,14.418758 2.82155,6.348501 0.95415,11.701655 2.38125,17.999935 0.11006,0.485718 0.47025,-6.9611 0.47025,-6.275586 0,0.696536 1.08888,22.124719 0.1602,21.882902 -1.45937,-0.380002 0.22141,-9.374458 -1.41283,-4.183724 -1.48015,4.701279 -2.66916,9.866503 -5.35678,13.981575 -0.53595,0.820604 -1.06647,-10.064639 -1.2082,-9.922908 -2.71393,2.713931 -7.89671,10.262275 -8.3044,12.463322"
       id="path5517" />
    <path
       style="fill:none;fill-opacity:0;stroke:#000000;stroke-width:0.529167;stroke-linecap:square;stroke-linejoin:round;stroke-miterlimit:4;stroke-dasharray:none;stroke-dashoffset:26.6835;stroke-opacity:1"
       d="m 117.86981,90.58155 c -1.23367,4.095853 -3.70417,7.736806 -3.70417,12.176"
       id="path5535" />
    <path
       style="fill:none;fill-opacity:0;stroke:#000000;stroke-width:0.529167;stroke-linecap:square;stroke-linejoin:round;stroke-miterlimit:4;stroke-dasharray:none;stroke-dashoffset:26.6835;stroke-opacity:1"
       d="m 87.027244,93.63666 c 0.773279,3.231552 0.300371,6.42015 -0.333828,9.59115"
       id="path5537" />
    <path
       style="fill:none;fill-opacity:0;stroke:#000000;stroke-width:0.529167;stroke-linecap:square;stroke-linejoin:round;stroke-miterlimit:4;stroke-dasharray:none;stroke-dashoffset:26.6835;stroke-opacity:1"
       d="m 81.93815,97.052473 c -6.871626,4.987597 -15.019525,7.662397 -22.383131,11.815297 -16.311242,9.19917 -18.691224,32.74211 -22.145418,49.34686 -0.687049,3.30275 -6.623629,18.91958 -3.507795,20.08973"
       id="path5547" />
    <path
       style="fill:none;fill-opacity:0;stroke:#000000;stroke-width:0.529167;stroke-linecap:square;stroke-linejoin:round;stroke-miterlimit:4;stroke-dasharray:none;stroke-dashoffset:26.6835;stroke-opacity:1"
       d="m 127.65154,103.38424 c 5.76059,4.70061 15.94747,7.79102 16.46473,9.43781 3.78477,12.04981 6.86412,24.27711 10.00662,36.57968 2.25506,8.82835 6.39134,17.70589 6.39134,26.93169"
       id="path5549"
       sodipodi:nodetypes="ccsc" />
    <path
       style="fill:none;fill-opacity:0;stroke:#000000;stroke-width:0.529167;stroke-linecap:square;stroke-linejoin:round;stroke-miterlimit:4;stroke-dasharray:none;stroke-dashoffset:26.6835;stroke-opacity:1"
       d="m 107.60997,76.257101 c 0.31498,-3.032191 10.62835,-6.618496 11.52694,-3.08379"
       id="path5571" />
    <path
       style="fill:none;fill-opacity:0;stroke:#000000;stroke-width:0.529167;stroke-linecap:square;stroke-linejoin:round;stroke-miterlimit:4;stroke-dasharray:none;stroke-dashoffset:26.6835;stroke-opacity:1"
       d="m 119.07955,73.568377 c 0.58178,-0.405892 1.33104,-0.759386 2.05879,-0.759386"
       id="path5573" />
    <path
       style="fill:none;fill-opacity:0;stroke:#000000;stroke-width:0.529167;stroke-linecap:square;stroke-linejoin:round;stroke-miterlimit:4;stroke-dasharray:none;stroke-dashoffset:26.6835;stroke-opacity:1"
       d="m 96.4923,76.110599 c -0.06695,-0.754348 -0.802635,-0.881518 -1.280801,-1.300697 -2.209853,-1.937245 -5.309809,-2.974758 -8.356594,-2.537828 -2.049828,0.293958 -1.75845,1.085086 -3.911132,0.540536"
       id="path5579" />
    <path
       style="fill:none;fill-opacity:0;stroke:#000000;stroke-width:0.529167;stroke-linecap:square;stroke-linejoin:round;stroke-miterlimit:4;stroke-dasharray:none;stroke-dashoffset:26.6835;stroke-opacity:1"
       d="m 115.03225,72.408758 c 0.47943,0.346612 0.32427,0.869318 0.32427,1.415158 0,3.235 -5.08986,3.267319 -5.70766,1.208712"
       id="path5583" />
    <path
       style="fill:none;fill-opacity:0;stroke:#000000;stroke-width:0.529167;stroke-linecap:square;stroke-linejoin:round;stroke-miterlimit:4;stroke-dasharray:none;stroke-dashoffset:26.6835;stroke-opacity:1"
       d="m 114.23695,72.470253 c 0.70617,3.605768 -2.60701,4.438869 -4.21679,1.219305"
       id="path5589" />
    <path
       style="fill:none;fill-opacity:0;stroke:#000000;stroke-width:0.529167;stroke-linecap:square;stroke-linejoin:round;stroke-miterlimit:4;stroke-dasharray:none;stroke-dashoffset:26.6835;stroke-opacity:1"
       d="m 110.55462,74.224022 c 0.067,-0.218506 0.13222,-0.437542 0.20089,-0.655516 0.2884,-0.91536 0.13037,0.806746 0.29197,0.87204 0.0265,0.01072 0.27168,-0.402291 0.50824,-0.749953 0.0243,-0.03578 0.36729,-0.458534 0.36729,-0.606682 0,-0.118483 -5.3e-4,0.241173 -0.0386,0.353338 -0.0599,0.175953 -0.8173,1.22219 -0.70008,1.2808 0.12738,0.06369 1.95308,-2.030608 2.20916,-2.222992 0.12525,-0.09409 -0.11468,0.292039 -0.18525,0.431885 -0.26838,0.531783 -0.52501,1.057367 -0.86132,1.551069 -0.0858,0.126008 -0.39551,0.353717 -0.24637,0.385377 0.33196,0.07047 1.04073,-1.506395 1.50211,-1.679356 0.0752,-0.02821 -0.0332,0.159166 -0.0695,0.230865 -0.2348,0.463733 -1.05142,1.073086 -1.06286,1.586598 -0.004,0.191503 1.44687,-0.631825 1.60236,-0.735486"
       id="path5591" />
    <path
       style="fill:none;fill-opacity:0;stroke:#000000;stroke-width:0.529167;stroke-linecap:square;stroke-linejoin:round;stroke-miterlimit:4;stroke-dasharray:none;stroke-dashoffset:26.6835;stroke-opacity:1"
       d="m 87.058896,72.405398 c -0.18342,0.613651 0.02421,1.195596 0.181255,1.79369 0.214257,0.815967 1.079728,2.073531 1.953371,2.323242 1.483186,0.423937 4.331325,-0.0013 4.700358,-1.853763"
       id="path5595" />
    <path
       style="fill:none;fill-opacity:0;stroke:#000000;stroke-width:0.529167;stroke-linecap:square;stroke-linejoin:round;stroke-miterlimit:4;stroke-dasharray:none;stroke-dashoffset:26.6835;stroke-opacity:1"
       d="m 88.416309,72.608487 c -0.600731,0.719407 -0.115311,1.315148 0.322588,1.966288 1.007739,1.498467 2.568728,1.238808 3.898471,0.353078 0.333333,-0.222027 0.613984,-0.401497 0.732642,-0.79194"
       id="path5597" />
    <path
       style="fill:none;fill-opacity:0;stroke:#000000;stroke-width:0.529167;stroke-linecap:square;stroke-linejoin:round;stroke-miterlimit:4;stroke-dasharray:none;stroke-dashoffset:26.6835;stroke-opacity:1"
       d="m 88.575987,72.884955 c -0.02191,0.163513 -0.07791,0.326012 -0.06576,0.49054 0.223713,3.027773 0.776157,-0.434525 0.842711,-1.071769 0.0044,-0.04167 0,0.0838 0,0.125701 0,0.263983 0,0.527963 0,0.791943 0,0.361193 -0.263851,1.662602 -0.01072,1.940449 0.101269,0.111159 0.124809,-0.273775 0.179962,-0.413668 0.148524,-0.376722 0.145523,-1.369031 0.475554,-1.634786 0.07548,-0.06078 0.114265,0.192013 0.217815,0.661072 0.102262,0.463222 0.347652,0.947729 0.347652,1.426397 0,0.102021 0.019,-0.203316 0.03553,-0.303985 0.02355,-0.143248 0.137255,-1.835031 0.210322,-1.835031 0.07546,0 0.267137,1.035085 0.364578,1.171893 0.06117,0.08589 0.137093,-1.048311 0.475554,-1.396685 0.07829,-0.08058 0.478782,0.878319 0.489246,0.900462 0.557599,1.180184 0.06285,-0.798034 0.520123,0.106582 0.183322,0.275648 0.104042,0.137422 0.241586,0.412509"
       id="path5599" />
    <path
       style="fill:none;fill-opacity:0;stroke:#000000;stroke-width:0.529167;stroke-linecap:square;stroke-linejoin:round;stroke-miterlimit:4;stroke-dasharray:none;stroke-dashoffset:26.6835;stroke-opacity:1"
       d="m 104.44815,75.172154 c -0.39898,0.679537 -0.55843,1.452007 -0.76869,2.20555 -0.435,1.558936 -0.79658,3.14859 -0.65526,4.784723 0.0418,0.483409 0.86813,2.700954 0.66947,3.084306 -0.16352,0.315542 -0.4899,0.550084 -0.7612,0.761195"
       id="path5609" />
    <path
       style="fill:none;fill-opacity:0;stroke:#000000;stroke-width:0.529167;stroke-linecap:square;stroke-linejoin:round;stroke-miterlimit:4;stroke-dasharray:none;stroke-dashoffset:26.6835;stroke-opacity:1"
       d="m 106.43433,71.654539 c 1.7549,-1.816441 4.31039,-2.238621 6.71303,-2.770113 2.7082,-0.599088 5.43523,-0.740841 8.04472,0.236934 0.38983,0.146072 1.90224,0.699879 1.30923,0.99813 -1.11938,0.562991 -3.21229,-0.219445 -4.36227,-0.333827 -3.77355,-0.375343 -8.61702,-0.589391 -11.43057,2.224154"
       id="path5892" />
    <path
       style="fill:none;fill-opacity:0;stroke:#000000;stroke-width:0.529167;stroke-linecap:square;stroke-linejoin:round;stroke-miterlimit:4;stroke-dasharray:none;stroke-dashoffset:26.6835;stroke-opacity:1"
       d="m 98.75082,71.647046 c -2.465927,-1.471601 -5.28801,-1.899689 -8.032586,-2.268595 -1.514941,-0.203626 -7.34696,-1.301885 -8.57803,-0.479558 -0.111656,0.07459 -2.176248,0.955154 -1.661395,1.41981 0.978411,0.883026 4.184605,-0.238702 5.421114,-0.331504 2.221386,-0.166717 9.805037,-0.04478 11.939841,0.755769 0.445365,0.167013 0.498756,0.64375 0.911056,0.904078 z"
       id="path5896" />
    <path
       style="fill:none;fill-opacity:0;stroke:#000000;stroke-width:0.529167;stroke-linecap:square;stroke-linejoin:round;stroke-miterlimit:4;stroke-dasharray:none;stroke-dashoffset:26.6835;stroke-opacity:1"
       d="m 99.411135,98.207117 c -0.07729,0.774478 -0.05159,1.753968 0.623935,2.260773"
       id="path6021" />
    <path
       style="fill:none;fill-opacity:0;stroke:#000000;stroke-width:0.529167;stroke-linecap:square;stroke-linejoin:round;stroke-miterlimit:4;stroke-dasharray:none;stroke-dashoffset:26.6835;stroke-opacity:1"
       d="m 101.19268,97.878433 c -0.009,1.045869 0.37218,2.036546 0.7109,3.009497"
       id="path6023" />
    <path
       style="fill:none;fill-opacity:0;stroke:#000000;stroke-width:0.529167;stroke-linecap:square;stroke-linejoin:round;stroke-miterlimit:4;stroke-dasharray:none;stroke-dashoffset:26.6835;stroke-opacity:1"
       d="m 104.1037,98.365886 c 0.51712,0.796284 0.63379,1.911664 0.49348,2.872834"
       id="path6025" />
    <path
       style="fill:none;fill-opacity:0;stroke:#000000;stroke-width:0.529167;stroke-linecap:square;stroke-linejoin:round;stroke-miterlimit:4;stroke-dasharray:none;stroke-dashoffset:26.6835;stroke-opacity:1"
       d="m 105.75607,97.946217 c 0.62898,0.700775 0.21918,4.901223 -0.19586,4.249143"
       id="path6027" />
    <path
       style="fill:none;fill-opacity:0;stroke:#000000;stroke-width:0.529167;stroke-linecap:square;stroke-linejoin:round;stroke-miterlimit:4;stroke-dasharray:none;stroke-dashoffset:26.6835;stroke-opacity:1"
       d="m 107.32531,97.246643 c -0.40478,1.353579 -1.33176,2.957447 -2.65998,3.621557"
       id="path6029" />
    <path
       style="fill:none;fill-opacity:0;stroke:#000000;stroke-width:0.529167;stroke-linecap:square;stroke-linejoin:round;stroke-miterlimit:4;stroke-dasharray:none;stroke-dashoffset:26.6835;stroke-opacity:1"
       d="m 102.3143,97.893414 c -0.0336,1.180941 -0.37003,2.556756 0.39281,3.573866"
       id="path6031" />
    <path
       style="fill:none;fill-opacity:0;stroke:#000000;stroke-width:0.529167;stroke-linecap:square;stroke-linejoin:round;stroke-miterlimit:4;stroke-dasharray:none;stroke-dashoffset:26.6835;stroke-opacity:1"
       d="m 97.166072,95.669178 c -0.491665,2.027256 -0.293164,3.742833 0.929229,5.413332"
       id="path6033" />
    <path
       style="fill:none;fill-opacity:0;stroke:#000000;stroke-width:0.529167;stroke-linecap:square;stroke-linejoin:round;stroke-miterlimit:4;stroke-dasharray:none;stroke-dashoffset:26.6835;stroke-opacity:1"
       d="m 97.224171,96.980443 c -0.241501,1.738508 0.856467,3.102407 1.908522,4.339577"
       id="path6035" />
    <path
       style="fill:none;fill-opacity:0;stroke:#000000;stroke-width:0.529167;stroke-linecap:square;stroke-linejoin:round;stroke-miterlimit:4;stroke-dasharray:none;stroke-dashoffset:26.6835;stroke-opacity:1"
       d="m 101.04926,87.538678 c -0.44564,0.397229 -0.82711,0.864833 -1.050184,1.422532"
       id="path6037" />
    <path
       style="fill:none;fill-opacity:0;stroke:#000000;stroke-width:0.529167;stroke-linecap:square;stroke-linejoin:round;stroke-miterlimit:4;stroke-dasharray:none;stroke-dashoffset:26.6835;stroke-opacity:1"
       d="m 99.68245,87.237217 c -0.392692,0.500851 -0.785384,1.001705 -1.178074,1.502556"
       id="path6039" />
    <path
       style="fill:none;fill-opacity:0;stroke:#000000;stroke-width:0.529167;stroke-linecap:square;stroke-linejoin:round;stroke-miterlimit:4;stroke-dasharray:none;stroke-dashoffset:26.6835;stroke-opacity:1"
       d="m 98.087994,88.001283 c -0.296776,0.584999 -0.979879,1.240502 -0.859438,1.963153"
       id="path6041" />
    <path
       style="fill:none;fill-opacity:0;stroke:#000000;stroke-width:0.529167;stroke-linecap:square;stroke-linejoin:round;stroke-miterlimit:4;stroke-dasharray:none;stroke-dashoffset:26.6835;stroke-opacity:1"
       d="m 95.97868,88.47412 c -0.108696,0.390681 -0.623335,1.831973 0.121131,1.831973"
       id="path6043" />
    <path
       style="fill:none;fill-opacity:0;stroke:#000000;stroke-width:0.529167;stroke-linecap:square;stroke-linejoin:round;stroke-miterlimit:4;stroke-dasharray:none;stroke-dashoffset:26.6835;stroke-opacity:1"
       d="m 105.13579,87.238312 c 0.66729,1.182108 0.36136,0.756883 0.81121,1.345978"
       id="path6045" />
    <path
       style="fill:none;fill-opacity:0;stroke:#000000;stroke-width:0.529167;stroke-linecap:square;stroke-linejoin:round;stroke-miterlimit:4;stroke-dasharray:none;stroke-dashoffset:26.6835;stroke-opacity:1"
       d="m 106.36904,86.904879 c 0.1377,0.123386 0.2754,0.246772 0.4131,0.370158"
       id="path6047" />
    <path
       style="fill:none;fill-opacity:0;stroke:#000000;stroke-width:0.529167;stroke-linecap:square;stroke-linejoin:round;stroke-miterlimit:4;stroke-dasharray:none;stroke-dashoffset:26.6835;stroke-opacity:1"
       d="m 107.6962,86.84221 c 0.40631,0.506177 0.69391,1.098026 1.00762,1.666258"
       id="path6049" />
    <path
       style="fill:none;fill-opacity:0;stroke:#000000;stroke-width:0.529167;stroke-linecap:square;stroke-linejoin:round;stroke-miterlimit:4;stroke-dasharray:none;stroke-dashoffset:26.6835;stroke-opacity:1"
       d="m 109.13006,87.366572 1.82957,2.104969"
       id="path6051" />
    <path
       style="fill:none;fill-opacity:0;stroke:#000000;stroke-width:0.529167;stroke-linecap:square;stroke-linejoin:round;stroke-miterlimit:4;stroke-dasharray:none;stroke-dashoffset:26.6835;stroke-opacity:1"
       d="m 81.050865,83.985054 c 0.507621,2.109814 3.013921,6.069378 3.344499,6.606831"
       id="path6166" />
    <path
       style="fill:none;fill-opacity:0;stroke:#000000;stroke-width:0.529167;stroke-linecap:square;stroke-linejoin:round;stroke-miterlimit:4;stroke-dasharray:none;stroke-dashoffset:26.6835;stroke-opacity:1"
       d="m 83.462605,85.605627 c 0.256029,1.915663 1.616803,5.545357 1.914612,6.680729"
       id="path6168" />
    <path
       style="fill:none;fill-opacity:0;stroke:#000000;stroke-width:0.529167;stroke-linecap:square;stroke-linejoin:round;stroke-miterlimit:4;stroke-dasharray:none;stroke-dashoffset:26.6835;stroke-opacity:1"
       d="m 84.68992,87.378129 c 1.1001,2.629852 3.289146,6.747118 4.447273,8.443412"
       id="path6170" />
    <path
       style="fill:none;fill-opacity:0;stroke:#000000;stroke-width:0.529167;stroke-linecap:square;stroke-linejoin:round;stroke-miterlimit:4;stroke-dasharray:none;stroke-dashoffset:26.6835;stroke-opacity:1"
       d="m 88.333108,90.593951 c 0.669978,2.196357 2.690061,4.763548 3.765145,6.203757"
       id="path6172" />
    <path
       style="fill:none;fill-opacity:0;stroke:#000000;stroke-width:0.529167;stroke-linecap:square;stroke-linejoin:round;stroke-miterlimit:4;stroke-dasharray:none;stroke-dashoffset:26.6835;stroke-opacity:1"
       d="m 91.384603,92.725088 c 1.234133,2.154206 2.13478,3.136405 3.63492,4.808492"
       id="path6174" />
    <path
       style="fill:none;fill-opacity:0;stroke:#000000;stroke-width:0.529167;stroke-linecap:square;stroke-linejoin:round;stroke-miterlimit:4;stroke-dasharray:none;stroke-dashoffset:26.6835;stroke-opacity:1"
       d="m 94.239724,95.20194 c 0.773523,1.398963 1.591705,2.768449 2.306836,4.19871"
       id="path6176" />
    <path
       style="fill:none;fill-opacity:0;stroke:#000000;stroke-width:0.529167;stroke-linecap:square;stroke-linejoin:round;stroke-miterlimit:4;stroke-dasharray:none;stroke-dashoffset:26.6835;stroke-opacity:1"
       d="m 121.25926,84.678035 c 0.0138,0.995286 0.15507,8.134442 -1.45107,5.992915"
       id="path6178" />
    <path
       style="fill:none;fill-opacity:0;stroke:#000000;stroke-width:0.529167;stroke-linecap:square;stroke-linejoin:round;stroke-miterlimit:4;stroke-dasharray:none;stroke-dashoffset:26.6835;stroke-opacity:1"
       d="m 119.2568,84.805675 c -0.34455,1.179142 -2.41015,10.052349 -3.22409,8.305953"
       id="path6180" />
    <path
       style="fill:none;fill-opacity:0;stroke:#000000;stroke-width:0.529167;stroke-linecap:square;stroke-linejoin:round;stroke-miterlimit:4;stroke-dasharray:none;stroke-dashoffset:26.6835;stroke-opacity:1"
       d="m 117.58507,88.484521 c 0.21447,0.433316 -2.23006,9.9617 -2.85151,7.642945"
       id="path6182" />
    <path
       style="fill:none;fill-opacity:0;stroke:#000000;stroke-width:0.529167;stroke-linecap:square;stroke-linejoin:round;stroke-miterlimit:4;stroke-dasharray:none;stroke-dashoffset:26.6835;stroke-opacity:1"
       d="m 115.0214,91.449198 c -0.3702,1.940484 -0.90507,4.123577 -2.2934,5.596557"
       id="path6184" />
    <path
       style="fill:none;fill-opacity:0;stroke:#000000;stroke-width:0.529167;stroke-linecap:square;stroke-linejoin:round;stroke-miterlimit:4;stroke-dasharray:none;stroke-dashoffset:26.6835;stroke-opacity:1"
       d="m 113.02101,92.648608 c -1.06139,2.442059 -2.20636,5.206177 -4.45916,6.772714"
       id="path6186" />
    <path
       style="fill:none;fill-opacity:0;stroke:#000000;stroke-width:0.529167;stroke-linecap:square;stroke-linejoin:round;stroke-miterlimit:4;stroke-dasharray:none;stroke-dashoffset:26.6835;stroke-opacity:1"
       d="m 109.62277,94.915653 c -0.11034,1.802151 -0.81593,3.403176 -1.37563,5.074626"
       id="path6188" />
    <path
       style="fill:none;fill-opacity:0;stroke:#000000;stroke-width:0.529167;stroke-linecap:square;stroke-linejoin:round;stroke-miterlimit:4;stroke-dasharray:none;stroke-dashoffset:26.6835;stroke-opacity:1"
       d="m 78.280492,74.884835 c 0.80377,3.684733 -1.256903,8.992015 0.911571,12.244728"
       id="path6190" />
    <path
       style="fill:none;fill-opacity:0;stroke:#000000;stroke-width:0.529167;stroke-linecap:square;stroke-linejoin:round;stroke-miterlimit:4;stroke-dasharray:none;stroke-dashoffset:26.6835;stroke-opacity:1"
       d="m 122.69845,76.771023 c 0.92002,2.436923 1.06039,5.00575 1.58182,7.502903"
       id="path6192" />
    <path
       style="fill:none;fill-opacity:0;stroke:#000000;stroke-width:0.529167;stroke-linecap:square;stroke-linejoin:round;stroke-miterlimit:4;stroke-dasharray:none;stroke-dashoffset:26.6835;stroke-opacity:1"
       d="m 72.772817,83.913222 c 1.478846,3.975666 3.554992,8.119592 6.43165,11.32024 0.0959,0.106704 -1.29559,-6.404829 0.01447,-7.116878 1.613519,-0.876988 1.908754,3.198243 2.359543,4.978508"
       id="path6309" />
    <path
       style="fill:none;fill-opacity:0;stroke:#000000;stroke-width:0.529167;stroke-linecap:square;stroke-linejoin:round;stroke-miterlimit:4;stroke-dasharray:none;stroke-dashoffset:26.6835;stroke-opacity:1"
       d="m 129.09703,82.71743 c -0.70036,1.144818 -4.72691,12.744251 -6.05235,12.259717 -0.55384,-0.202464 2.13626,-7.870565 -0.68522,-2.780191 -0.74288,1.340255 -1.49595,1.900769 -2.13837,3.1843"
       id="path6311" />
    <path
       style="fill:none;fill-opacity:0;stroke:#000000;stroke-width:0.529167;stroke-linecap:square;stroke-linejoin:round;stroke-miterlimit:4;stroke-dasharray:none;stroke-dashoffset:26.6835;stroke-opacity:1"
       d="m 86.269089,93.632092 c -16.509756,7.734528 8.381258,18.728398 9.185549,21.141258 1.957208,5.87163 -2.534195,16.34309 -3.559474,22.49475 -0.459115,2.75471 -0.03386,6.16813 0.269751,8.88318 0.62611,5.59899 0.01937,11.27896 0.834059,16.8951 1.060318,7.30933 5.159637,14.73396 6.869864,21.56044"
       id="path6327"
       sodipodi:nodetypes="cssssc" />
    <path
       style="fill:none;fill-opacity:0;stroke:#000000;stroke-width:0.529167;stroke-linecap:square;stroke-linejoin:round;stroke-miterlimit:4;stroke-dasharray:none;stroke-dashoffset:26.6835;stroke-opacity:1"
       d="m 122.45997,97.571858 c 1.20838,1.346106 -0.98135,5.358992 -1.22603,6.137572 -1.73604,5.52414 -8.29643,10.99828 -9.01547,13.71079 -0.55284,4.00723 7.3283,29.74904 9.14053,41.17888 0.8311,5.24183 0.76682,10.78207 1.77663,15.93598 0.6594,3.36544 3.44476,5.02976 3.44476,8.54005"
       id="path6329"
       sodipodi:nodetypes="cscssc" />
    <path
       style="fill:none;fill-opacity:0;stroke:#000000;stroke-width:0.529167;stroke-linecap:square;stroke-linejoin:round;stroke-miterlimit:4;stroke-dasharray:none;stroke-dashoffset:26.6835;stroke-opacity:1"
       d="m 53.267033,115.15163 c 15.162484,7.44116 8.512201,27.6471 7.407298,40.45127 -0.897477,10.40045 -0.314192,21.00241 -0.314192,31.45131"
       id="path6333" />
    <path
       style="fill:none;fill-opacity:0;stroke:#000000;stroke-width:0.529167;stroke-linecap:square;stroke-linejoin:round;stroke-miterlimit:4;stroke-dasharray:none;stroke-dashoffset:26.6835;stroke-opacity:1"
       d="m 85.766562,99.078301 c -0.959985,7.431859 7.360992,11.143159 12.684276,14.692019 0.842148,0.56143 4.256992,4.22827 5.258592,3.96875 7.75703,-2.00992 11.21114,-10.81808 12.87276,-17.45798"
       id="path6429"
       sodipodi:nodetypes="cssc" />
    <path
       style="fill:none;fill-opacity:0;stroke:#000000;stroke-width:0.529167;stroke-linecap:square;stroke-linejoin:round;stroke-miterlimit:4;stroke-dasharray:none;stroke-dashoffset:26.6835;stroke-opacity:1"
       d="m 86.933956,97.639562 c -4.041631,2.175097 -3.581742,4.399378 -2.265855,7.031148 0.761079,1.52216 12.948201,10.70471 15.422429,12.56038 0.79658,0.59743 2.78891,3.31439 3.64319,3.16104 1.91981,-0.34461 4.65525,-2.10213 5.96553,-3.63078 2.14681,-2.50462 9.4914,-13.49379 8.57444,-15.28663 -0.27227,-0.53234 -1.42034,-1.12533 -1.6915,-1.19363"
       id="path6431"
       sodipodi:nodetypes="csssssc" />
    <path
       style="fill:none;fill-opacity:0;stroke:#000000;stroke-width:0.529167;stroke-linecap:square;stroke-linejoin:round;stroke-miterlimit:4;stroke-dasharray:none;stroke-dashoffset:26.6835;stroke-opacity:1"
       d="m 100.48818,90.563463 c 1.06462,0.185195 2.08274,0.353201 3.12772,0.140044"
       id="path8049" />
    <path
       style="fill:none;fill-opacity:0;stroke:#000000;stroke-width:0.529167;stroke-linecap:square;stroke-linejoin:round;stroke-miterlimit:4;stroke-dasharray:none;stroke-dashoffset:26.6835;stroke-opacity:1"
       d="m 144.15864,114.24729 c -8.52959,13.33698 -2.61051,34.59854 0.91984,48.76498 2.33646,9.37562 1.18625,19.59705 3.82406,28.78894"
       id="path8442" />
    <path
       style="fill:none;fill-opacity:0;stroke:#000000;stroke-width:0.529167;stroke-linecap:square;stroke-linejoin:round;stroke-miterlimit:4;stroke-dasharray:none;stroke-dashoffset:26.6835;stroke-opacity:1"
       d="m 83.151159,95.089142 c -16.775624,9.512318 2.457257,26.035898 6.222195,27.471848 0.80785,0.30812 1.910512,-8.51294 5.73505,-7.51995"
       id="path8702"
       sodipodi:nodetypes="csc" />
    <path
       style="fill:none;fill-opacity:0;stroke:#000000;stroke-width:0.529167;stroke-linecap:square;stroke-linejoin:round;stroke-miterlimit:4;stroke-dasharray:none;stroke-dashoffset:26.6835;stroke-opacity:1"
       d="m 112.21847,117.42022 c 3.07013,-0.60905 3.09489,3.89358 5.1015,4.5744 2.75476,0.93465 9.9865,-12.71216 10.30866,-20.0474 0.0862,-1.962704 -5.11105,-6.005534 -11.08022,-7.263543"
       id="path8704"
       sodipodi:nodetypes="cssc" />
    <path
       style="fill:none;fill-opacity:0;stroke:#000000;stroke-width:0.529167;stroke-linecap:square;stroke-linejoin:round;stroke-miterlimit:4;stroke-dasharray:none;stroke-dashoffset:26.6835;stroke-opacity:1"
       d="m 118.57804,101.63884 c 0.83365,0.5411 1.85457,0.74823 2.65615,1.1503"
       id="path10054" />
    <path
       style="fill:none;fill-opacity:0;stroke:#000000;stroke-width:0.529167;stroke-linecap:square;stroke-linejoin:round;stroke-miterlimit:4;stroke-dasharray:none;stroke-dashoffset:26.6835;stroke-opacity:1"
       d="m 83.756528,100.58683 c -0.615722,0.59842 -1.746806,1.5653 -2.126673,1.67138"
       id="path10062" />
    <path
       style="fill:none;fill-opacity:0;stroke:#000000;stroke-width:0.529167;stroke-linecap:square;stroke-linejoin:round;stroke-miterlimit:4;stroke-dasharray:none;stroke-dashoffset:26.6835;stroke-opacity:1"
       d="m 114.77155,99.222109 c 0.0615,0.682379 0.65732,1.217951 1.16607,1.611531"
       id="path11526" />
    <path
       style="fill:none;fill-opacity:0;stroke:#000000;stroke-width:0.529167;stroke-linecap:square;stroke-linejoin:round;stroke-miterlimit:4;stroke-dasharray:none;stroke-dashoffset:26.6835;stroke-opacity:1"
       d="m 106.85006,104.51093 c 0.0978,1.20139 -0.74243,2.32738 -1.18674,3.43597"
       id="path12559" />
  </g>
</svg>
