<?xml version="1.0" standalone="no"?>
<!DOCTYPE svg PUBLIC "-//W3C//DTD SVG 20010904//EN" "http://www.w3.org/TR/2001/REC-SVG-20010904/DTD/svg10.dtd">
<!-- Created using Krita: http://krita.org -->
<svg xmlns="http://www.w3.org/2000/svg" 
    xmlns:xlink="http://www.w3.org/1999/xlink"
    xmlns:krita="http://krita.org/namespaces/svg/krita"
    xmlns:sodipodi="http://sodipodi.sourceforge.net/DTD/sodipodi-0.dtd"
    width="576pt"
    height="576pt"
    viewBox="0 0 576 576">
<defs/>
<path id="shape0" transform="translate(177.780896439255, 72.9952149338192)" fill="#d9c690" fill-rule="evenodd" stroke="#000000" stroke-width="0.7199989632" stroke-linecap="square" stroke-linejoin="bevel" d="M198.059 189.085C201.412 185.731 187.612 182.618 190.139 176.125C192.621 171.16 201.128 169.799 203.099 163.885C209.255 145.418 161.599 148.17 181.859 122.845C183.228 121.133 188.96 114.565 179.339 104.485C169.717 94.4048 76.61 10.0357 68.0991 1.52479C59.5882 -6.98613 39.9492 21.4646 23.8191 53.7248C1.9897 97.3837 21.7218 102.748 43.2592 124.285C41.7858 127.232 45.3673 132.283 43.9792 134.365C9.76273 181.617 32.9369 170.324 33.1791 200.605C32.1742 221.831 10.5187 218.307 10.4327 230.86C10.389 237.24 4.86989 253.709 22.3791 266.845C25.2918 287.494 7.16031 282.36 2.93914 299.245C-0.677127 313.71 8.22822 322.507 1.49914 335.965C-2.98391 346.371 3.16426 347.395 12.2991 355.405C39.1407 373.299 195.885 365.852 222.539 352.525C277.385 325.102 201.564 289.742 185.819 266.125C178.048 254.468 222.422 236.857 218.219 220.045C216.607 213.594 185.914 197.18 198.059 189.085Z"/><path id="shape01" transform="matrix(0.999999999396168 0 0 0.999999999396168 206.640015078899 232.745371934368)" fill="#ffebcc" fill-rule="evenodd" stroke="#000000" stroke-width="0.7199989632" stroke-linecap="square" stroke-linejoin="bevel" d="M142.2 88.3747C146.573 92.7479 168.656 149.759 166.32 166.135C165.811 187.876 182.093 223.238 182.093 257.571C181.987 265.439 182.577 266.198 181.013 270.891C176.397 284.739 159.349 294.969 178.853 307.971C196.622 319.817 195.117 256.671 195.053 253.971C195.053 231.947 196.163 185.821 195.562 178.621C195.562 152.712 186.84 130.418 183.96 115.375C179.519 100.255 172.349 47.2438 160.92 35.8146C148.793 23.6881 138.449 26.2342 134.28 23.5746C128.579 20.4941 106.787 10.681 106.92 10.6146C93.4734 -1.32844 67.2626 0.0483294 66.3739 0.0483294C65.4853 0.0483294 62.157 -0.316678 59.6282 2.46662C47.1442 13.3496 8.4856 18.4323 0 52.3746"/><path id="shape25" transform="translate(265.377167976517, 196.529729977506)" fill="#ffebcc" stroke="#000000" stroke-width="0.72" stroke-linecap="square" stroke-linejoin="bevel" d="M45.6629 54.7503C36.5582 36.5411 44.5829 23.2685 44.5829 4.35027C43.8274 1.99848 3.97551 -9.02732 0 16.7902C0 22.1874 6.3676 35.3655 1.38285 40.3503"/><path id="shape22" transform="matrix(-1 0 0 1 343.022300399949 90.0378026794561)" fill="#ffebcc" stroke="#000000" stroke-width="0.72" stroke-linecap="square" stroke-linejoin="bevel" d="M103.88 84.7422C91.6285 112.36 64.1739 135.314 53.6595 133.342C48.9 134.343 4.87953 108.001 8.11953 77.0022C8.11953 67.7848 4.99431 65.5483 1.99953 57.5622C1.20546 55.4447 -0.180618 44.2221 0.019526 44.4222C0.496589 44.6454 0.347979 33.7054 0.781973 32.1864C3.2793 23.4458 9.85043 9.8936 18.0919 4.94869C34.0816 -4.6451 70.5749 1.9686 86.5682 5.96692C106.91 11.0523 114.119 59.3638 103.88 84.7422Z"/><path id="shape10" transform="matrix(-1 0 0 1 336.836941733051 128.490007560378)" fill="#d9c690" stroke="#000000" stroke-width="0.72" stroke-linecap="square" stroke-linejoin="bevel" d="M36.6561 14.1826C37.6818 18.3828 35.5163 20.5143 34.7778 21.2528C11.5325 27.4964 0.42309 -9.70153 2.20247 22.302C0.457387 21.1075 -2.5137 3.34779 4.07265 0.0546168C7.01041 -1.41426 22.1493 27.2909 35.8924 20.4193"/><path id="shape24" transform="matrix(-1 0 0 1 289.329483225802 125.846370346753)" fill="#d9c690" stroke="#000000" stroke-width="0.72" stroke-linecap="square" stroke-linejoin="bevel" d="M2.25843 22.9356C16.1358 22.9356 40.1842 -28.5846 40.1876 22.8084C35.8834 -9.96373 20.504 23.3972 3.40396 23.9539C2.19367 21.4684 -0.541702 22.1331 0.0946942 16.5717"/><path id="shape29" transform="matrix(-1 0 0 1 281.665413850137 152.297561038798)" fill="#ffffff" stroke="#000000" stroke-width="0.72" stroke-linecap="square" stroke-linejoin="bevel" d="M0.137278 5.43758C-1.00259 4.29771 5.30321 2.76026 6.24668 2.38287C11.9178 0.114423 22.671 -1.7858 27.3052 2.84842C26.9455 2.3296 25.4159 1.73738 25.4659 1.6192C20.0257 7.05942 17.4104 10.2742 9.30138 10.2742C6.73012 10.2742 1.61191 5.82351 1.79191 4.16478"/><path id="shape31" transform="matrix(-1 0 0 1 254.702554406071 153.364078591346)" fill="none" stroke="#000000" stroke-width="0.72" stroke-linecap="square" stroke-linejoin="bevel" d="M0.342276 1.78191C-0.813833 0.163366 1.24758 1.00388 2.25146 0"/><path id="shape32" transform="matrix(-1 0 0 1 258.051379008045 150.945773344538)" fill="none" stroke="#000000" stroke-width="0.72" stroke-linecap="square" stroke-linejoin="bevel" d="M0 1.90919C1.31477 1.90919 2.65182 0.911998 3.56382 0"/><path id="shape33" transform="matrix(-1 0 0 1 260.851521925401 149.291143438828)" fill="none" stroke="#000000" stroke-width="0.72" stroke-linecap="square" stroke-linejoin="bevel" d="M0 2.03647C0.974976 2.03647 3.30926 1.47192 3.30926 0"/><path id="shape34" transform="matrix(-1 0 0 1 330.982374082819 155.145987720572)" fill="none" stroke="#000000" stroke-width="0.72" stroke-linecap="square" stroke-linejoin="bevel" d="M1.01824 1.2728C1.95068 0.573454 0.578075 0.578075 0 0"/><path id="shape35" transform="matrix(-1 0 0 1 330.091419518206 152.854961697281)" fill="none" stroke="#000000" stroke-width="0.72" stroke-linecap="square" stroke-linejoin="bevel" d="M2.92742 2.29103C2.03516 1.39876 0.818242 0.818242 0 0"/><path id="shape36" transform="matrix(-1 0 0 1 327.29127660085 152.345844803216)" fill="none" stroke="#000000" stroke-width="0.72" stroke-linecap="square" stroke-linejoin="bevel" d="M2.92742 1.78191C2.12788 1.78191 0.596808 0.596808 0 0"/><path id="shape37" transform="matrix(-1 0 0 1 329.682780365236 154.287860387213)" fill="#ffffff" stroke="#000000" stroke-width="0.72" stroke-linecap="square" stroke-linejoin="bevel" d="M22.68 2.94214C22.68 11.9415 12.2263 10.2243 7.2 7.35214C6.35113 6.86707 1.9948 3.06544 2.33412 1.15625C1.70376 0.19211 0.858231 2.28306 0 2.67214C6.64334 -3.1612 24.48 1.95419 24.48 4.83214"/><path id="shape39" transform="matrix(-1 0 0 1 275.514409898028 153.252385196706)" fill="#b8826d" stroke="#000000" stroke-width="0.72" stroke-linecap="square" stroke-linejoin="bevel" d="M0.000227104 8.04658C-0.0634125 -1.48682 13.269 -3.14215 13.3963 6.29649C10.7553 8.54386 2.95947 10.4842 0.000227104 8.04658Z"/><path id="shape42" transform="translate(253.155274590326, 66.2223162579549)" fill="#d9c690" stroke="#000000" stroke-width="0.72" stroke-linecap="square" stroke-linejoin="bevel" d="M82.9947 91.7277C103.515 41.5643 15.4047 54.985 15.4047 25.5777C15.4047 57.4252 102.889 46.9937 80.5647 92.5377C78.1388 94.964 72.1655 104.778 68.6847 104.778C109.569 63.8935 0.284722 64.4736 0.284722 22.3377C0.284722 19.6781 -0.950517 1.45768 1.72472 1.45768C1.14947 -0.268156 19.876 0.0177218 21.8847 0.0176783C74.6014 0.0176783 121.245 32.3517 121.245 84.9777C121.245 93.6965 123.223 104.72 117.645 112.158C116.725 113.078 104.921 126.738 103.605 126.738"/><path id="shape41" transform="matrix(-1 0 0 1 321.948668456768 154.677064361532)" fill="#b8826d" stroke="#000000" stroke-width="0.72" stroke-linecap="square" stroke-linejoin="bevel" d="M0.00588816 7.14294C-0.31231 -2.27264 12.372 -2.71076 12.372 7.80921C12.2819 9.32142 5.17085 10.2502 0.00588816 7.14294Z"/><path id="shape02" transform="matrix(-1 0 0 1 300.817931138856 148.952869934716)" fill="none" stroke="#000000" stroke-width="0.7199989632" stroke-linecap="square" stroke-linejoin="bevel" d="M1.97982 0C1.25875 0 2.24859 4.57649 2.61622 5.09117C12.5246 18.9629 -11.324 35.3836 7.45283 35.3836"/><path id="shape221" transform="matrix(-0.999999962104959 0 0 0.999999962104959 239.566018775323 146.171635547688)" fill="#ffebcc" stroke="#000000" stroke-width="0.72" stroke-linecap="square" stroke-linejoin="bevel" d="M4.4058 6.85804C4.4058 2.22914 9.5978 -2.49906 12.8068 1.51234C18.5328 8.67054 9.1008 38.4023 0 29.3018"/><path id="shape2" transform="translate(224.50239896015, 86.0400005884361)" fill="#d9c690" fill-rule="evenodd" stroke="#000000" stroke-width="0.7199989632" stroke-linecap="square" stroke-linejoin="bevel" d="M29.2977 0C33.6178 67.6817 -6.0819 28.651 31.4576 90C-10.4413 53.501 -4.82509 60.12 15.6177 13.32"/><path id="shape0" transform="translate(285.660012257266, 199.980008580859)" fill="none" stroke="#000000" stroke-width="0.7199989632" stroke-linecap="square" stroke-linejoin="bevel" d="M0 0C4.93754 9.87508 9.92404 6.09596 15.48 0.54"/><path id="shape03" transform="translate(221.465851720498, 292.996776241717)" fill="#acd8b9" fill-rule="evenodd" stroke="#000000" stroke-width="0.7199989632" stroke-linecap="square" stroke-linejoin="bevel" d="M0 0C0 6.74384 7.42484 41.6814 7.49415 49.7232C7.49415 72.0365 38.1122 134.201 29.397 168.481C22.3955 182.484 3.60475 216.043 27.6542 216.043C24.3415 215.166 34.6047 215.544 37.9292 216.375C44.9658 218.134 52.2368 221.772 59.5667 222.993C71.6899 225.014 88.8027 226.679 100.805 224.011C106.434 222.761 149.638 205.972 147.174 203.803C162.988 187.99 134.934 123.823 134.934 97.2432C135.109 95.0719 137.337 80.4325 138.534 75.6432C141.96 61.9384 140.36 34.9887 130.254 24.8832"/><path id="shape1" transform="translate(202.442176991366, 278.460014855823)" fill="#93ad9b" fill-rule="evenodd" stroke="#000000" stroke-width="0.7199989632" stroke-linecap="square" stroke-linejoin="bevel" d="M4.01783 0C-15.4222 53.3036 41.9978 62.2113 41.9978 38.88"/><path id="shape2" transform="translate(207.124702111248, 274.652080366243)" fill="#daceae" fill-rule="evenodd" stroke="#000000" stroke-width="0.7199989632" stroke-linecap="square" stroke-linejoin="bevel" d="M0.775309 12.8079C9.34487 23.5592 17.5692 36.5185 20.0353 46.1079C27.8895 55.322 36.6625 44.1181 37.6753 36.5679C27.7473 -8.10834 -5.46797 -6.39534 0.775309 12.8079Z"/><path id="shape23" transform="matrix(0.999999977959983 0 0 0.999999977959983 285.840006828944 346.319989734893)" fill="none" stroke="#000000" stroke-width="0.72" stroke-linecap="square" stroke-linejoin="bevel" d="M19.44 0C19.44 14.0995 6.25403 30.6919 0 43.2"/><path id="shape21" transform="translate(313.920022617648, 372.960026871426)" fill="none" stroke="#000000" stroke-width="0.7199989632" stroke-linecap="square" stroke-linejoin="bevel" d="M0 0C0 5.83086 6.11642 11.8764 10.08 15.84"/><path id="shape04" transform="translate(199.968301469994, 235.136658880113)" fill="#acd8b9" fill-rule="evenodd" stroke="#000000" stroke-width="0.7199989632" stroke-linecap="square" stroke-linejoin="bevel" d="M59.4268 69.8244C61.1015 69.8244 55.7848 72.6902 55.5157 72.4211C53.1232 70.0285 41.9045 88.3459 43.6357 81.4211C43.8157 74.9327 58.1669 41.7746 38.0438 37.75C33.6425 36.8697 18.5173 37.858 14.879 40.041C5.11321 45.9005 11.5046 62.0308 5.96948 70.3335C5.14922 71.5639 2.27462 74.2424 3.55813 74.9768C-6.26016 52.3232 4.89251 14.5771 28.9917 9.66331C35.2851 8.61443 42.2342 2.62091 46.6988 2.62091C51.0563 -3.91532 57.0342 3.33445 58.4085 7.45752C74.6688 14.7878 69.0308 26.4668 92.3508 42.7834C122.85 52.9496 142.022 31.0527 122.653 11.6839C120.541 10.7786 119.532 10.6534 118.632 10.7434C116.723 5.07987 124.174 4.96504 126.883 7.36383C128.898 8.2231 132.977 13.8503 134.832 14.7034C186.829 29.0044 171.761 60.9211 193.151 98.2231C193.151 94.6154 193.572 105.6 192.431 109.023C189.758 117.042 177.438 131.47 167.951 121.983C166.147 120.534 162.443 117.916 160.031 115.504C156.872 112.344 161.146 101.499 154.631 94.9834"/><path id="shape19" transform="matrix(0.999999977959983 0 0 0.999999977959983 347.726819618866 294.524107100313)" fill="#acd8b9" stroke="#000000" stroke-width="0.72" stroke-linecap="square" stroke-linejoin="bevel" d="M0 0C0.18 9.5511 11.7924 27.072 15.1532 43.8759C20.2136 69.1779 2.91319 87.0695 2.91319 110.116"/><path id="shape3" transform="translate(208.69591406733, 270.482293068092)" fill="#ffebcc" fill-rule="evenodd" stroke="#000000" stroke-width="0.7199989632" stroke-linecap="square" stroke-linejoin="bevel" d="M35.5529 5.58634C37.9926 8.02603 40.7714 14.1952 40.7714 17.4233C40.7714 20.6514 28.7411 40.2063 16.5883 40.2063C4.43549 40.2063 -1.99446 23.4477 0.551124 12.9685C1.37372 -2.90931 31.2375 -2.73045 35.5529 5.58634Z"/><path id="shape4" transform="translate(219.24000635826, 282.773242098309)" fill="#ffebcc" fill-rule="evenodd" stroke="#000000" stroke-width="0.7199989632" stroke-linecap="square" stroke-linejoin="bevel" d="M19.62 0.186757C32.22 -1.67428 44.2977 10.9868 48.06 10.9868C51.6023 10.1619 49.2932 38.7453 41.4 39.6068C36.8907 29.7795 14.3337 39.7204 0 22.8668"/><path id="shape5" transform="translate(243.0440516903, 291.149700007725)" fill="#ffebcc" fill-rule="evenodd" stroke="#000000" stroke-width="0.7199989632" stroke-linecap="square" stroke-linejoin="bevel" d="M22.8159 0.630302C16.9787 -2.28677 10.325 5.72481 15.4359 8.2803C15.4712 8.29792 8.8888 15.5703 14.851 17.1903C13.411 20.9051 10.1452 20.8545 14.221 24.9303C14.221 28.6254 1.56805 28.1753 0.822941 29.9758C-2.14279 32.9415 3.72446 33.4123 5.53227 33.4123C12.1805 33.4123 20.9749 32.6064 27.4243 30.994C30.275 30.2813 36.676 32.7753 36.676 29.2503"/><path id="shape05" transform="matrix(1.0000000193331 0 0 1.0000000193331 266.777254823928 290.069349804894)" fill="#707071" fill-rule="evenodd" stroke="#000000" stroke-width="0.7199989632" stroke-linecap="square" stroke-linejoin="bevel" d="M16.1645 0.381838C15.451 9.03682 14.0369 36.184 13.7462 36.911C8.14083 38.3236 7.89131 37.7969 0 36.5291C0.763675 23.6789 -0.381838 10.6903 1.90919 0"/><path id="shape6" transform="translate(264.837186777814, 299.880016120044)" fill="#ffebcc" fill-rule="evenodd" stroke="#000000" stroke-width="0.7199989632" stroke-linecap="square" stroke-linejoin="bevel" d="M0.302827 0C10.5739 2.54539 21.1469 -0.648172 22.4011 1.14548C26.9762 3.63791 26.6013 8.19033 0 8.90953"/><path id="shape7" transform="translate(265.14000449972, 307.90424270948)" fill="#ffebcc" fill-rule="evenodd" stroke="#000000" stroke-width="0.7199989632" stroke-linecap="square" stroke-linejoin="bevel" d="M0 0.885763C16.02 1.68402 23.3967 -3.47435 21.42 4.66576C19.2693 7.8918 3.63575 8.82294 0.215345 8.82294"/><path id="shape06" transform="matrix(0.999999991552193 0 0 0.999999991552193 259.781813724721 262.057478160598)" fill="#a4a7af" stroke="#000000" stroke-width="0.7199989632" stroke-linecap="square" stroke-linejoin="bevel" d="M31.438 9.5171C31.0106 -0.66524 2.78711 -4.98621 0 8.37159C0 12.8118 5.20532e-07 15.4426 5.46078e-07 25.9361C1.34706 27.9567 30.1652 29.1948 30.1652 28.0999C31.6289 11.338 31.0112 18.5089 31.438 9.5171Z"/><path id="shape1" transform="matrix(0.999999991552193 0 0 0.999999991552193 268.248422294801 269.526678932819)" fill="#707071" stroke="#000000" stroke-width="0.7199989632" stroke-linecap="square" stroke-linejoin="bevel" d="M7.57058 0.0114291C-1.77822 -0.434048 -2.82265 12.2864 6.42506 13.1212C15.861 13.5902 17.9058 1.13132 7.57058 0.0114291Z"/><path id="shape07" transform="matrix(0.999999955688769 0 0 0.999999955688769 263.899651726853 290.925953859794)" fill="#ffebcc" fill-rule="evenodd" stroke="#000000" stroke-width="0.7199989632" stroke-linecap="square" stroke-linejoin="bevel" d="M1.3734 8.75749C7.2129 8.88477 31.8898 8.4393 27.6633 2.09967C25.5038 -1.13968 2.07 0.275697 0 0.499767"/><path id="shape01" transform="matrix(0.999999962686509 0 0 0.999999962686509 271.543978695282 290.411885861204)" fill="#a4a7af" stroke="#000000" stroke-width="0.7199989632" stroke-linecap="square" stroke-linejoin="bevel" d="M0.456637 0C-0.391367 4.86777 -0.0126703 7.18847 1.21539 9.07612C2.48253 10.5147 4.93067 10.378 6.30656 9.58524C7.43938 7.88459 7.95142 5.45785 7.83884 0.509117"/><path id="shape11" transform="matrix(0.99999997865753 0 0 0.99999997865753 285.75000291912 291.828642647363)" fill="none" stroke="#000000" stroke-width="0.7199989632" stroke-linecap="square" stroke-linejoin="bevel" d="M0.81 0.401354C0.353057 0.401354 0 4.1948 0 5.08135C8.54468 4.5464 3.27843 -1.6068 0.81 0.401354Z"/>
</svg>
