<?xml version="1.0" standalone="no"?>
<!DOCTYPE svg PUBLIC "-//W3C//DTD SVG 20010904//EN" "http://www.w3.org/TR/2001/REC-SVG-20010904/DTD/svg10.dtd">
<!-- Created using Krita: https://krita.org -->
<svg xmlns="http://www.w3.org/2000/svg" 
    xmlns:xlink="http://www.w3.org/1999/xlink"
    xmlns:krita="http://krita.org/namespaces/svg/krita"
    xmlns:sodipodi="http://sodipodi.sourceforge.net/DTD/sodipodi-0.dtd"
    width="720pt"
    height="720pt"
    viewBox="0 0 720 720">
<defs/>
<rect id="shape0" fill="#ffffff" fill-rule="evenodd" stroke-opacity="0" stroke="#000000" stroke-width="0" stroke-linecap="square" stroke-linejoin="bevel" width="720" height="720"/><path id="shape3" transform="matrix(1.00000002587632 0 0 1.00000002587632 414.7500123242 118.500003206136)" fill="none" stroke="#000000" stroke-width="1.5" stroke-linecap="square" stroke-linejoin="bevel" d="M0 0C66.4332 0 66.9365 149.813 34.5 182.25" sodipodi:nodetypes="cc"/><path id="shape4" transform="matrix(1.00000002587632 0 0 1.00000002587632 235.37061281523 110.706801224361)" fill="none" stroke="#000000" stroke-width="1.5" stroke-linecap="square" stroke-linejoin="bevel" d="M129.13 4.0432C4.36807 -24.8447 -24.3665 107.909 18.8794 184.793" sodipodi:nodetypes="cc"/><path id="shape5" transform="matrix(1.00000002587632 0 0 1.00000002587632 363.749395435405 111.000003003215)" fill="none" stroke="#000000" stroke-width="1.5" stroke-linecap="square" stroke-linejoin="bevel" d="M0.750615 3.75C-1.06005 3.75 0.897061 3 1.50061 3C22.1133 3 46.0953 0 64.5006 0C66.1014 0 61.8825 1.86808 60.7506 3C56.7513 6.99931 52.0518 7.5 46.5006 7.5" sodipodi:nodetypes="ccccc"/><path id="shape01" transform="translate(279.750016123518, 239.250015640813)" fill="none" stroke="#000000" stroke-width="1.5" stroke-linecap="square" stroke-linejoin="bevel" d="M0 0C7.95495 17.9875 -1.48023 30.6553 17.7652 49.9007C22.9935 55.129 47.6948 77.3983 54 79.5C72.2027 85.5676 126.944 48.169 132.75 30.75C134.679 24.9645 135.15 6.59981 139.5 2.24997" sodipodi:nodetypes="ccccc"/><path id="shape1" transform="translate(403.500000476001, 174.000000205264)" fill="none" stroke="#000000" stroke-width="1.5" stroke-linecap="square" stroke-linejoin="bevel" d="M0 0C0 20.136 1.21615 46.6916 15.4608 60.9362" sodipodi:nodetypes="cc"/><path id="shape2" transform="translate(275.988618963532, 171.000000201725)" fill="none" stroke="#000000" stroke-width="1.5" stroke-linecap="square" stroke-linejoin="bevel" d="M128.261 0C127.134 0 126.782 0.729132 126.011 1.5C115.324 12.1873 114.146 33.9462 116.261 48.75C116.739 52.0944 121.327 59.5119 118.312 61.0194C117.027 61.6619 114.638 61.0194 113.062 61.0194C111.812 61.0194 110.557 61.1326 109.312 61.0194C105.011 60.6284 -2.60345 41.7773 0.0482026 64.2014" sodipodi:nodetypes="ccccccc"/><path id="shape6" transform="translate(345.000001930441, 248.151744687033)" fill="none" stroke="#000000" stroke-width="1.5" stroke-linecap="square" stroke-linejoin="bevel" d="M0 10.2205C8.35248 1.86802 36.633 -3.16974 36.633 14.7366C38.689 12.6805 41.6802 18.3164 44.5879 18.3164C49.3711 18.3164 37.844 11.3251 35.7049 7.04688C30.2077 -3.94755 7.08399 -1.45724 0 10.2205Z" sodipodi:nodetypes="ccccc"/><path id="shape7" transform="translate(286.907777705874, 244.574901007455)" fill="none" stroke="#000000" stroke-width="1.5" stroke-linecap="square" stroke-linejoin="bevel" d="M38.5146 12.7795C39.1233 2.77234 9.15934 -1.32548 8.91985 7.08215C-2.33803 9.0811 -2.85661 8.58406 6.8951 5.20863C9.87414 -1.90527 37.0579 -3.73358 38.5146 12.7794" sodipodi:nodetypes="cccc"/><path id="shape8" transform="translate(355.660739398598, 251.751459509807)" fill="none" stroke="#000000" stroke-width="1.5" stroke-linecap="square" stroke-linejoin="bevel" d="M0.383776 1.19325C-2.21448 4.11006 8.91626 19.8244 17.6195 8.22012C19.6816 5.47068 20.0173 2.5304 17.4869 0" sodipodi:nodetypes="ccc"/><path id="shape9" transform="translate(305.22424107148, 248.20390744071)" fill="none" stroke="#000000" stroke-width="1.5" stroke-linecap="square" stroke-linejoin="bevel" d="M1.30103 0C-0.570702 0 0.0788542 3.93643 0.240375 4.90555C2.87259 20.6988 22.7695 4.63707 13.6312 1.59099" sodipodi:nodetypes="ccc"/><path id="shape10" transform="translate(324.165487455026, 247.229324849207)" fill="none" stroke="#000000" stroke-width="1.5" stroke-linecap="square" stroke-linejoin="bevel" d="M2.75686 0C3.75559 0 4.34811 1.35562 4.81936 2.0625C7.60403 6.2395 10.9103 19.1839 9.0693 24.7068C8.37871 26.7786 -4.08307 26.3669 1.3818 31.8318" sodipodi:nodetypes="cccc"/><path id="shape11" transform="translate(338.062517223339, 239.900562537071)" fill="none" stroke="#000000" stroke-width="1.5" stroke-linecap="square" stroke-linejoin="bevel" d="M0 7.78696C10.4937 -1.82915 52.2062 2.03373 57 15.662C57.7216 0.343885 6.38322 -6.4065 0 7.78696Z" sodipodi:nodetypes="ccc"/><path id="shape12" transform="translate(283.422355153244, 237.523864720225)" fill="none" stroke="#000000" stroke-width="1.5" stroke-linecap="square" stroke-linejoin="bevel" d="M0 6.61447C7.33201 -1.06231 37.415 3.24168 42.9375 7.73947C34.9876 -3.11978 5.82696 -1.66344 0 6.61447Z" sodipodi:nodetypes="ccc"/><path id="shape15" transform="translate(334.505656765436, 287.252303700815)" fill="none" stroke="#000000" stroke-width="1.5" stroke-linecap="square" stroke-linejoin="bevel" d="M0.272853 0C-1.32059 0 4.58535 0.469056 4.58535 2.0625" sodipodi:nodetypes="cc"/><path id="shape02" transform="translate(377.999986019251, 296.249989042865)" fill="none" stroke="#000000" stroke-width="1.5" stroke-linecap="square" stroke-linejoin="bevel" d="M10.5 0C9.02508 0 0 30.6783 0 34.5" sodipodi:nodetypes="cc"/><path id="shape11" transform="translate(313.499988404855, 304.49998873773)" fill="none" stroke="#000000" stroke-width="1.5" stroke-linecap="square" stroke-linejoin="bevel" d="M1.5 0C1.5 6.25516 2.8628 17.3872 0 20.25" sodipodi:nodetypes="cc"/><path id="shape21" transform="translate(191.999999470548, 307.65753601073)" fill="none" stroke="#000000" stroke-width="1.5" stroke-linecap="square" stroke-linejoin="bevel" d="M121.5 0.592463C115.037 -5.87093 51.8282 42.5664 36 47.8425C8.81312 56.9048 0 257.754 0 308.092" sodipodi:nodetypes="ccc"/><path id="shape31" transform="translate(383.249998943163, 313.499999135503)" fill="none" stroke="#000000" stroke-width="1.5" stroke-linecap="square" stroke-linejoin="bevel" d="M0 0C8.036 0 14.0539 12.277 21 15.75C38.0499 24.275 63.9928 33.3642 75.75 51C107.485 98.6029 102 292.582 102 361.5" sodipodi:nodetypes="cccc"/><path id="shape41" transform="translate(310.115602341405, 318.749999121026)" fill="none" stroke="#000000" stroke-width="1.5" stroke-linecap="square" stroke-linejoin="bevel" d="M1.13439 0C-3.36402 0 6.84783 16.6415 8.63439 19.5C12.8322 26.2164 42.7658 81.75 48.3844 81.75C62.8805 81.75 70.1344 19.6982 70.1344 7.5" sodipodi:nodetypes="cccc"/><path id="shape51" transform="translate(263.999999272003, 336.74999907139)" fill="none" stroke="#000000" stroke-width="1.5" stroke-linecap="square" stroke-linejoin="bevel" d="M0 0C0 19.078 24.8302 49.6203 35.25 65.25C38.2005 69.6757 47.6875 67.6251 48 68.25C52.021 76.2919 45.142 88.784 49.5 97.5C60.7864 120.073 80.936 138.558 89.25 163.5C93.7455 176.987 95.6463 193.543 102 206.25C102.303 206.855 107.413 188.77 108 185.25C111.053 166.935 119.284 149.114 123.75 131.25C126.775 119.152 136.436 108.878 141.75 98.25C146.173 89.4046 130.332 78.5047 132.75 71.25C139.379 51.3617 153.75 26.5825 153.75 1.5" sodipodi:nodetypes="ccccccccccc"/><path id="shape03" transform="matrix(1.00000002439942 0 0 1.00000002439942 316.209324924487 333.694824172068)" fill="none" stroke="#000000" stroke-width="1.5" stroke-linecap="square" stroke-linejoin="bevel" d="M0 0.0153921C0 -0.564824 19.4966 15.4415 24.5278 17.1186C50.2684 25.6987 28.9889 51.5433 42.8242 65.3786" sodipodi:nodetypes="ccc"/><path id="shape12" transform="matrix(1.00000002439942 0 0 1.00000002439942 356.940263364794 330.130485439045)" fill="none" stroke="#000000" stroke-width="1.5" stroke-linecap="square" stroke-linejoin="bevel" d="M5.67294 67.3519C0.349595 62.5589 -2.56777 52.513 3.0213 28.3727C4.4797 23.5749 20.4864 11.1369 21.848 0" sodipodi:nodetypes="ccc"/><path id="shape22" transform="matrix(1.00000002439942 0 0 1.00000002439942 362.183288462341 362.179383576444)" fill="none" stroke="#000000" stroke-width="1.5" stroke-linecap="square" stroke-linejoin="bevel" d="M0 0C7.84349 0 -1.80211 18.2423 11.6673 4.77297" sodipodi:nodetypes="cc"/><path id="shape32" transform="matrix(1.00000002439942 0 0 1.00000002439942 340.074176838024 361.287378643131)" fill="none" stroke="#000000" stroke-width="1.5" stroke-linecap="square" stroke-linejoin="bevel" d="M9.14819 0C9.14819 8.18367 11.5115 17.2904 0 11.5347" sodipodi:nodetypes="cc"/><path id="shape42" transform="matrix(1.00000002439942 0 0 1.00000002439942 354.302239791574 364.542987127589)" fill="#ffffff" fill-rule="evenodd" stroke="#000000" stroke-width="1.5" stroke-linecap="square" stroke-linejoin="bevel" d="M0.356008 1.64994C-0.205261 7.45263 -0.496257 17.5301 2.60991 16.8969C11.9939 15.5564 4.33348 7.70785 4.33348 1.51736C4.33348 -0.585589 0.917277 -0.466425 0.356008 1.64994Z" sodipodi:nodetypes="cccc"/><path id="shape52" transform="matrix(1.00000002439942 0 0 1.00000002439942 354.790831027071 384.356731360924)" fill="none" stroke="#000000" stroke-width="1.5" stroke-linecap="square" stroke-linejoin="bevel" d="M0 0C0.486136 0 0.972272 0 1.45841 0" sodipodi:nodetypes="cc"/><path id="shape61" transform="matrix(1.00000002439942 0 0 1.00000002439942 354.9234135491 389.129702153954)" fill="none" stroke="#000000" stroke-width="1.5" stroke-linecap="square" stroke-linejoin="bevel" d="M0 0C0.795495 0 1.59099 0 2.38649 0" sodipodi:nodetypes="cc"/><path id="shape71" transform="matrix(1.00000002439942 0 0 1.00000002439942 356.381821291415 393.637507902927)" fill="none" stroke="#000000" stroke-width="1.5" stroke-linecap="square" stroke-linejoin="bevel" d="M0 1.98874C1.18632 1.98874 2.40068 0.64872 3.0494 0" sodipodi:nodetypes="cc"/><path id="shape04" transform="matrix(0.999999904415117 0 0 0.999999904415117 390.749991446554 235.499977767574)" fill="none" stroke="#000000" stroke-width="1.5" stroke-linecap="square" stroke-linejoin="bevel" d="M21.75 0C21.4077 0 22.5 19.5834 22.5 22.5C22.5 42.2521 21.4041 61.3808 20.25 81C17.2045 132.774 15.75 185.074 15.75 237C15.75 261.168 8.53585 279.357 3 301.5C2 305.5 0 313.5 0 313.5C0 313.5 4.69599 301.858 7.5 296.25C19.5443 272.161 32.0771 229.152 34.5 202.5C36.9895 175.116 37.5 147.888 37.5 120C37.5 115.538 29.4302 7.11042 27.75 3.75" sodipodi:nodetypes="cccccccccc"/><path id="shape13" transform="matrix(0.999999904415117 0 0 0.999999904415117 275.377305328684 242.249977130339)" fill="none" stroke="#000000" stroke-width="1.5" stroke-linecap="square" stroke-linejoin="bevel" d="M5.87271 0C5.87271 77.3085 -6.82572 153.335 5.12271 231C6.44603 239.602 27.3805 316.863 33.6227 307.5C44.7124 290.865 -19.3343 84.164 9.62271 26.25" sodipodi:nodetypes="cccc"/>
</svg>
