<?xml version="1.0" standalone="no"?>
<!DOCTYPE svg PUBLIC "-//W3C//DTD SVG 20010904//EN" "http://www.w3.org/TR/2001/REC-SVG-20010904/DTD/svg10.dtd">
<!-- Created using Krita: https://krita.org -->
<svg xmlns="http://www.w3.org/2000/svg" 
    xmlns:xlink="http://www.w3.org/1999/xlink"
    xmlns:krita="http://krita.org/namespaces/svg/krita"
    xmlns:sodipodi="http://sodipodi.sourceforge.net/DTD/sodipodi-0.dtd"
    width="480pt"
    height="480pt"
    viewBox="0 0 480 480">
<defs/>
<rect id="shape0" transform="translate(-4.5, -3.75)" fill="#fee4b3" fill-rule="evenodd" stroke="#cfe6fe" stroke-width="0.75" stroke-linecap="square" stroke-linejoin="bevel" width="492" height="486"/><path id="shape01" transform="translate(-312.750001807515, -27.750000160379)" fill="#cfc3ab" fill-rule="evenodd" stroke="#000000" stroke-width="0.75" stroke-linecap="square" stroke-linejoin="bevel" d="M1033.5 19.5C1006.9 19.5 407.212 123 380.25 123C359.369 112.559 22.1407 0 0 0" sodipodi:nodetypes="ccc"/><path id="shape1" transform="translate(88.4451491031416, 209.250001209345)" fill="#a2402b" fill-rule="evenodd" stroke="#000000" stroke-width="0.75" stroke-linecap="square" stroke-linejoin="bevel" d="M72.8049 249C72.8049 251.906 -1.30138 246.966 0.0548514 249C0.0548514 225.179 -0.657858 10.0691 3.05485 4.5C14.8179 3.35542 51.2429 0 65.3049 0" sodipodi:nodetypes="cccc"/><path id="shape2" transform="translate(147.000000849575, -8.25000004768025)" fill="#fff0c7" fill-rule="evenodd" stroke="#000000" stroke-width="0.75" stroke-linecap="square" stroke-linejoin="bevel" d="M372 0C362.893 9.10716 5.21414 64.5717 4.5 66C6.15153 69.3031 0 404.897 0 452.25C0 450.452 323.674 502.5 381 509.25" sodipodi:nodetypes="cccc"/><path id="shape3" transform="translate(64.9858262759016, 95.2500005504901)" fill="none" stroke="#000000" stroke-width="0.75" stroke-linecap="square" stroke-linejoin="bevel" d="M2.51418 0C-2.0681 4.58227 1.01418 80.7724 1.01418 90C1.01418 169 1.01418 263.75 1.01418 342.75" sodipodi:nodetypes="ccc"/><path id="shape4" transform="translate(-75.6646808717528, 429.703340236601)" fill="#acd8b9" fill-rule="evenodd" stroke="#000000" stroke-width="0.75" stroke-linecap="square" stroke-linejoin="bevel" d="M24.6647 72.7967C-64.972 45.212 116.303 -7.0671 146.165 0.796662C176.429 -4.2913 745.628 34.8677 787.415 48.7967" sodipodi:nodetypes="ccc"/><path id="shape02" transform="matrix(1.00000002088824 0 0 1.00000002088824 229.277813057072 90.7012741886884)" fill="#84a2b2" fill-rule="evenodd" stroke="#000000" stroke-width="0.75" stroke-linecap="square" stroke-linejoin="bevel" d="M0.222193 20.2987C0.222193 51.2987 -0.277742 87.5528 0.222193 118.549C0.22222 118.55 138.8 121.603 144.972 113.299C156.22 85.1796 150.084 0.133197 147.972 0.0487281C129.21 -0.701761 13.2512 7.26973 0.222193 20.2987Z" sodipodi:nodetypes="ccccc"/><path id="shape03" transform="matrix(0.999999984566621 0 0 0.999999984566621 303.544276591725 142.838787158299)" fill="none" stroke="#000000" stroke-width="0.75" stroke-linecap="square" stroke-linejoin="bevel" d="M15.4493 4.59298C10.819 -0.0373763 -16.55 -5.04273 14.919 10.6918C16.1622 11.3134 18.3661 12.8815 18.3661 14.4041" sodipodi:nodetypes="ccc"/><path id="shape11" transform="matrix(0.999999984566621 0 0 0.999999984566621 281.960593714069 127.777474263742)" fill="none" stroke="#000000" stroke-width="0.75" stroke-linecap="square" stroke-linejoin="bevel" d="M21.9185 10.1084C19.114 7.30379 -2.1337 6.50561 0.175 1.88822C3.03867 -3.83912 29.2106 4.92847 30.5364 8.78253C34.9085 11.4342 47.6396 27.2817 47.6396 32.117" sodipodi:nodetypes="cccc"/><path id="shape21" transform="matrix(0.999999984566621 0 0 0.999999984566621 276.402151911078 131.503083881933)" fill="none" stroke="#000000" stroke-width="0.75" stroke-linecap="square" stroke-linejoin="bevel" d="M9.71091 1.34459C5.29871 -3.06761 -7.98473 4.79174 6.7941 4.79174C9.90538 4.79174 22.4388 5.92647 22.4388 10.3602" sodipodi:nodetypes="ccc"/><path id="shape31" transform="matrix(0.999999984566621 0 0 0.999999984566621 278.675474549523 137.090322718522)" fill="none" stroke="#000000" stroke-width="0.75" stroke-linecap="square" stroke-linejoin="bevel" d="M0.0129737 0C-0.531057 0 16.1999 4.78483 19.1049 7.68979" sodipodi:nodetypes="cc"/><path id="shape41" transform="matrix(0.999999984566621 0 0 0.999999984566621 280.279462680538 138.150993430993)" fill="none" stroke="#000000" stroke-width="0.75" stroke-linecap="square" stroke-linejoin="bevel" d="M0 0C0.0340174 0.742551 -0.277307 3.06311 2.12132 3.44715C8.00296 4.3199 16.6524 10.0533 19.6222 12.4627C24.0975 16.938 33.5037 23.8648 40.3051 23.8648" sodipodi:nodetypes="cccc"/><path id="shape7" transform="matrix(0.999999984566621 0 0 0.999999984566621 320.798525097935 159.894515440219)" fill="none" stroke="#000000" stroke-width="0.75" stroke-linecap="square" stroke-linejoin="bevel" d="M8.80161 0C11.6159 0 -3.04847 0.612675 0.581493 4.24264" sodipodi:nodetypes="cc"/><path id="shape8" transform="matrix(0.999999984566621 0 0 0.999999984566621 320.603911735235 159.039126955803)" fill="#ffffff" stroke="#000000" stroke-width="0.75" stroke-linecap="square" stroke-linejoin="bevel" d="M2.10193 3.7722C-2.14294 3.7722 0.805935 8.28001 4.22325 8.28001C15.0576 8.28001 10.6279 -3.16282 6.60974 0.855388" sodipodi:nodetypes="ccc"/>
</svg>
