<?xml version="1.0" standalone="no"?>
<!DOCTYPE svg PUBLIC "-//W3C//DTD SVG 20010904//EN" "http://www.w3.org/TR/2001/REC-SVG-20010904/DTD/svg10.dtd">
<!-- Created using Krita: https://krita.org -->
<svg xmlns="http://www.w3.org/2000/svg" 
    xmlns:xlink="http://www.w3.org/1999/xlink"
    xmlns:krita="http://krita.org/namespaces/svg/krita"
    xmlns:sodipodi="http://sodipodi.sourceforge.net/DTD/sodipodi-0.dtd"
    width="480pt"
    height="480pt"
    viewBox="0 0 480 480">
<defs/>
<rect id="shape0" fill="#000000" fill-rule="evenodd" stroke="#000000" stroke-opacity="0" stroke-width="0" stroke-linecap="square" stroke-linejoin="bevel" width="480" height="480"/><path id="shape1" transform="matrix(0.999999958671576 0 0 0.999999958671576 327.298453142879 190.390645397363)" fill="#ffffff" fill-rule="evenodd" stroke="#000000" stroke-opacity="0" stroke-width="0" stroke-linecap="square" stroke-linejoin="bevel" d="M65.1875 71.125L65.1875 70.7685L65.4208 70.759L66.7109 70.75L66.7109 67.7813L65.8637 67.8413L64.9263 67.8921L63.9146 67.9345L62.8442 67.9692L61.7311 67.997L60.5909 68.0186L59.4395 68.0348L58.2927 68.0465L57.1662 68.0543L56.0759 68.059L55.0375 68.0615L54.0668 68.0624L53.1797 68.0625L41.5547 67.7813L41.5547 68.3248L40.5798 68.2935L39.6263 68.2544L38.7663 68.2088L38.0156 68.1563L38.0156 71.125L41.0781 71.125L43.943 71.1776L46.1199 71.3464L47.7032 71.6482L48.6767 72.0536L48.7912 72.1508L49.3846 73.1706L49.8203 74.5938L50.0075 75.3991L50.0156 75.7344L50.0156 81.875L49.8233 84.1029L49.2824 86.0268L48.4471 87.669L47.3717 89.0517L46.1102 90.1971L44.717 91.1276L43.2461 91.8652L41.7518 92.4324L40.2882 92.8513L38.9096 93.1441L37.6701 93.3332L36.6239 93.4407L35.8252 93.4889L35.3281 93.5L34.9513 93.4943L34.5354 93.4759L34.0827 93.4427L33.5952 93.3925L33.0752 93.3233L32.5246 93.233L31.9457 93.1195L31.3405 92.9806L30.7112 92.8142L30.0599 92.6184L29.3888 92.3909L28.6999 92.1297L27.9953 91.8327L27.2773 91.4977L26.5479 91.1227L25.8093 90.7056L25.0636 90.2442L24.3128 89.7365L23.5592 89.1804L22.8049 88.5738L22.0519 87.9145L21.3024 87.2005L20.5586 86.4297L19.8225 85.5999L19.0963 84.7092L18.3821 83.7553L17.682 82.7362L16.9982 81.6497L16.3327 80.4938L15.6878 79.2664L15.0655 77.9654L14.4679 76.5887L13.8972 75.1341L13.3555 73.5996L12.8449 71.9831L12.3676 70.2825L11.9257 68.4956L11.5212 66.6205L11.1564 64.6549L10.8333 62.5967L10.5541 60.444L10.3209 58.1945L10.1359 55.8463L10.001 53.3971L9.91858 50.8448L9.89063 48.1875L9.9163 45.6025L9.99206 43.1164L10.116 40.7276L10.2863 38.4339L10.5011 36.2336L10.7584 34.1247L11.0564 32.1054L11.3932 30.1737L11.7669 28.3278L12.1756 26.5657L12.6175 24.8856L13.0907 23.2855L13.5933 21.7636L14.1234 20.318L14.6792 18.9467L15.2587 17.6479L15.86 16.4196L16.4814 15.26L17.1209 14.1672L17.7766 13.1393L18.4466 12.1743L19.1292 11.2705L19.8223 10.4258L20.5241 9.63838L21.2327 8.90637L21.9463 8.22785L22.6629 7.60093L23.3808 7.0237L24.0979 6.49427L24.8125 6.01075L25.5225 5.57123L26.2263 5.17382L26.9218 4.81661L27.6072 4.49772L28.2807 4.21525L28.9402 3.96729L29.584 3.75195L30.2102 3.56734L30.8169 3.41155L31.4022 3.28269L31.9642 3.17886L32.5011 3.09816L33.0109 3.0387L33.4918 2.99857L33.9419 2.97589L34.3594 2.96875L35.7196 3.02113L37.0217 3.17544L38.267 3.42746L39.4566 3.77298L40.5919 4.20777L41.6741 4.72761L42.7043 5.32827L43.684 6.00554L44.6143 6.75519L45.4965 7.573L46.3319 8.45476L47.1216 9.39623L47.8669 10.3932L48.5692 11.4414L49.2295 12.5367L49.8493 13.6748L50.4297 14.8516L50.972 16.0627L51.4774 17.304L51.9472 18.5712L52.3826 19.8601L52.7849 21.1665L53.1553 22.4863L53.4951 23.815L53.8056 25.1486L54.0879 26.4828L54.3434 27.8134L54.5732 29.1362L54.7787 30.4469L54.9611 31.7413L55.1216 33.0153L55.2615 34.2645L55.382 35.4848L55.4844 36.6719L55.8164 38.5762L57.0156 38.9688L58.3691 38.5762L58.5625 36.6719L58.5625 2.29688L58.4297 0.539063L57.5 0L56.793 0.203125L56.1563 1.34375L51.5469 11.0313L50.8514 9.99064L50.1203 8.97332L49.3516 7.98444L48.5436 7.02913L47.6943 6.11251L46.8017 5.23972L45.8642 4.4159L44.8796 3.64617L43.8462 2.93568L42.7621 2.28955L41.6253 1.71292L40.434 1.21091L39.1863 0.788673L37.8804 0.451328L36.5142 0.204012L35.086 0.0518586L33.5938 0L32.5095 0.0253099L31.4308 0.100803L30.3582 0.225824L29.2925 0.399719L28.2344 0.621831L27.1847 0.891507L26.144 1.20809L25.113 1.57093L24.0924 1.97936L23.0831 2.43274L22.0855 2.93041L21.1006 3.4717L20.129 4.05598L19.1714 4.68258L18.2285 5.35085L17.301 6.06013L16.3896 6.80977L15.4951 7.59911L14.6182 8.4275L13.7595 9.29428L12.9198 10.1988L12.0998 11.1404L11.3002 12.1184L10.5217 13.1322L9.76506 14.1812L9.03093 15.2645L8.32004 16.3817L7.63311 17.5321L6.97084 18.7149L6.33395 19.9296L5.72315 21.1755L5.13914 22.4519L4.58265 23.7582L4.05437 25.0937L3.55503 26.4577L3.08533 27.8497L2.64598 29.269L2.23769 30.7148L1.86118 32.1866L1.51715 33.6837L1.20632 35.2054L0.929391 36.7511L0.687083 38.3201L0.480103 39.9118L0.309161 41.5255L0.174969 43.1606L0.078238 44.8164L0.019678 46.4923L0 48.1875L0.0193163 49.8764L0.0768286 51.5467L0.171882 53.1977L0.303821 54.8286L0.471991 56.4389L0.675737 58.0278L0.914404 59.5947L1.18734 61.1388L1.49388 62.6595L1.83338 64.1561L2.20518 65.628L2.60863 67.0743L3.04306 68.4946L3.50784 69.888L4.00229 71.254L4.52577 72.5917L5.07762 73.9006L5.65718 75.1799L6.26381 76.4291L6.89684 77.6473L7.55562 78.8339L8.2395 79.9883L8.94782 81.1097L9.67992 82.1975L10.4352 83.2509L11.2129 84.2694L12.0124 85.2522L12.8331 86.1986L13.6743 87.108L14.5354 87.9797L15.4156 88.813L16.3144 89.6072L17.2311 90.3616L18.1651 91.0756L19.1156 91.7485L20.082 92.3795L21.0637 92.9681L22.06 93.5135L23.0703 94.015L24.0939 94.472L25.1302 94.8838L26.1784 95.2497L27.238 95.5691L28.3082 95.8411L29.3885 96.0653L30.4782 96.2408L31.5766 96.367L32.683 96.4432L33.7969 96.4688L34.9001 96.4456L36.0369 96.3748L37.1992 96.2544L38.3787 96.0827L39.5672 95.8576L40.7566 95.5774L41.9385 95.2401L43.1049 94.8439L44.2475 94.3868L45.3581 93.8669L46.4284 93.2824L47.4504 92.6314L48.4158 91.912L49.3163 91.1223L50.1438 90.2604L50.89 89.3244L51.5469 88.3125L52.565 89.7416L53.6202 90.9463L69.6953 160.125L70.2676 161.637L71.4141 162.141L72.6035 161.648L73.1484 160.219L89.1797 91.3906L89.2734 91.3906L105.305 160.219L105.842 161.648L107.023 162.141L108.178 161.637L108.758 160.125L128.055 77.2813L128.44 75.9554L128.973 74.7249L129.681 73.6148L130.594 72.6504L131.741 71.8566L133.152 71.2585L134.856 70.8813L136.883 70.75L136.883 67.7813L135.8 67.8472L134.709 67.9043L133.614 67.9526L132.516 67.9922L131.417 68.0229L130.322 68.0449L129.231 68.0581L128.148 68.0625L116.727 67.7813L116.727 70.75L119.043 70.9259L120.97 71.3396L122.532 71.9434L123.754 72.6895L124.661 73.53L125.278 74.4172L125.63 75.3034L125.742 76.1406L125.695 76.5195L125.367 78.0469L110.102 143.719L110.008 143.719L93.9766 75.0781L93.6797 73.8281L93.9491 72.8121L94.6804 72.0486L95.7586 71.5015L97.0684 71.1348L98.4946 70.9123L99.9221 70.7981L101.236 70.756L102.32 70.75L102.32 67.7813L101.473 67.8413L100.537 67.8921L99.5259 67.9345L98.4567 67.9692L97.3447 67.997L96.2057 68.0186L95.0552 68.0348L93.9089 68.0465L92.7825 68.0543L91.6917 68.059L90.6521 68.0615L89.6793 68.0624L88.7891 68.0625L77.0859 67.7813L77.0859 70.75L79.7019 70.7872L81.6324 70.9291L83.0012 71.2211L83.9321 71.7085L84.549 72.4366L84.9757 73.451L85.3359 74.7969L88.0234 85.9219L74.4922 143.719L74.3984 143.719L58.5625 75.7835L58.5625 75.3594L58.6515 73.479L59.0945 72.2489L60.0698 71.5931L60.2427 71.5207L62.0985 71.2054L65.1875 71.125"/><path id="shape2" transform="translate(22.0312480176188, 15.3593795311574)" fill="#ffffff" fill-rule="evenodd" stroke="#000000" stroke-opacity="0" stroke-width="0" stroke-linecap="square" stroke-linejoin="bevel" d="M55.2969 3.73438L55.1479 3.50072L54.7749 3.25554L54.1997 3.0016L53.4441 2.74166L52.53 2.47849L51.4793 2.21483L50.3137 1.95346L49.0552 1.69712L47.7256 1.4486L46.3468 1.21064L44.9406 0.986004L43.5289 0.777457L42.1335 0.587759L40.7763 0.41967L39.4792 0.275951L38.2639 0.159364L37.1524 0.0726691L36.1665 0.0186274L35.3281 0L33.6988 0.0359526L32.0854 0.142825L30.4897 0.319139L28.9137 0.563417L27.3591 0.87418L25.828 1.24995L24.322 1.68925L22.8432 2.1906L21.3933 2.75252L19.9743 3.37354L18.588 4.05218L17.2363 4.78695L15.921 5.57638L14.6441 6.419L13.4074 7.31332L12.2128 8.25787L11.0622 9.25116L9.95733 10.2917L8.9002 11.3781L7.89263 12.5087L6.9365 13.6823L6.03368 14.8971L5.18605 16.1519L4.39547 17.445L3.66381 18.7751L2.99296 20.1406L2.38477 21.54L1.84113 22.972L1.36389 24.435L0.954947 25.9275L0.616157 27.448L0.349396 28.9952L0.156535 30.5674L0.0394457 32.1633L0 33.7813L0.0424997 35.3841L0.16851 36.9616L0.375798 38.5123L0.662131 40.0345L1.02528 41.5268L1.463 42.9876L1.97307 44.4155L2.55325 45.8088L3.20131 47.1662L3.91501 48.486L4.69213 49.7668L5.53043 51.007L6.42767 52.2051L7.38163 53.3595L8.39007 54.4689L9.45076 55.5316L10.5615 56.5461L11.7199 57.5108L12.924 58.4244L14.1713 59.2852L15.4598 60.0918L16.787 60.8426L18.1509 61.5361L19.5492 62.1707L20.9796 62.745L22.44 63.2574L23.928 63.7065L25.4415 64.0906L26.9782 64.4083L28.5359 64.6581L30.1123 64.8383L31.7053 64.9476L33.1835 64.9814L51.5156 110.984L52.2637 112.797L52.8594 113.672L54.0254 112.691L54.9688 110.703L55.3943 109.509L55.8077 108.351L56.2103 107.228L56.6029 106.137L56.9868 105.074L57.363 104.038L57.7327 103.025L58.0968 102.033L58.4567 101.058L58.8132 100.1L59.1675 99.1533L59.5208 98.217L59.8741 97.2879L60.2285 96.3633L60.5851 95.4405L60.9451 94.5167L61.3094 93.5894L61.6792 92.6557L62.0557 91.7129L62.4398 90.7585L62.8328 89.7896L63.2356 88.8035L63.6494 87.7975L64.0753 86.769L64.5145 85.7152L64.9678 84.6334L65.4366 83.5209L65.9219 82.375L66.4805 81.3027L66.9688 81.8125L67.4128 82.9207L67.8426 84.0028L68.2593 85.0606L68.664 86.0962L69.0579 87.1115L69.4423 88.1082L69.8181 89.0885L70.1866 90.0541L70.5489 91.007L70.9063 91.9491L71.2597 92.8823L71.6105 93.8085L71.9597 94.7297L72.3086 95.6477L72.6582 96.5645L73.0097 97.4819L73.3644 98.402L73.7232 99.3265L74.0875 100.257L74.4583 101.197L74.8369 102.146L75.2242 103.108L75.6217 104.084L76.0303 105.076L76.4512 106.085L76.8856 107.115L77.3346 108.166L77.7995 109.241L78.2813 110.341L78.7813 111.469L79.5586 112.705L80.4063 113.297L80.7677 112.986L81.2459 112.152L81.7988 110.945L82.3843 109.514L82.9601 108.009L83.4844 106.578L98.9375 60.875L99.4615 59.5868L100.141 58.1691L101.002 56.7161L102.073 55.3222L103.38 54.0815L104.951 53.0886L106.813 52.4375L109.225 51.6172L109.984 50.5156L109.201 49.6973L107.188 49.4531L106.26 49.4659L105.275 49.4995L104.239 49.5471L103.16 49.6016L102.044 49.6561L100.899 49.7036L99.7308 49.7372L98.5469 49.75L97.3463 49.7431L96.2078 49.7257L95.0996 49.7031L93.9902 49.6806L92.8477 49.6632L91.6406 49.6563L89.6406 49.8926L88.8594 50.7031L89.9414 51.8398L92.0313 52.625L93.7141 53.5243L94.6296 54.9549L94.9063 56.75L94.7637 58.4473L94.3281 60.2031L93.9787 61.3924L93.6296 62.5782L93.2812 63.7599L92.9335 64.9369L92.5866 66.1086L92.2406 67.2745L91.8957 68.434L91.5519 69.5865L91.2094 70.7314L90.8684 71.8681L90.5288 72.9961L90.1909 74.1148L89.8548 75.2236L89.5206 76.3219L89.1883 77.4092L88.8582 78.4848L88.5303 79.5482L88.2048 80.5988L87.8818 81.6361L87.5613 82.6593L87.2436 83.6681L86.9286 84.6618L86.6167 85.6397L86.3078 86.6014L86.002 87.5463L85.6996 88.4737L85.4006 89.3831L85.1052 90.2739L84.8134 91.1456L84.5254 91.9975L84.2413 92.8291L83.9612 93.6398L83.6852 94.429L83.4135 95.1961L83.1461 95.9406L82.8833 96.6619L82.625 97.3594L82.0527 98.2227L81.5625 97.9375L71.6719 72.5L71.5898 72.1934L71.5781 71.8281L71.7734 70.3711L72.25 68.8438L72.6898 67.6801L73.1668 66.4565L73.6702 65.199L74.189 63.9337L74.7126 62.6867L75.2299 61.4839L75.7301 60.3515L76.2025 59.3156L76.6361 58.4021L77.0201 57.6372L77.3438 57.0469L78.2494 55.627L79.1513 54.5379L80.2519 53.6977L81.7537 53.0249L83.8594 52.4375L86.2773 51.6172L87.0313 50.5156L86.25 49.6973L84.25 49.4531L82.707 49.4995L81.3867 49.6016L80.084 49.7036L78.5938 49.75L77.4324 49.7183L76.4512 49.6484L75.2913 49.5786L73.5938 49.5469L71.5938 49.791L70.8125 50.6094L71.7321 51.8906L73.4398 53.0052L74.3594 54.7344L74.3477 55.0352L74.2656 55.4063L74.0821 56.0153L73.8284 56.8325L73.5141 57.8194L73.1489 58.9375L72.7422 60.1484L72.3036 61.4138L71.8427 62.695L71.3691 63.9537L70.8923 65.1516L70.4219 66.25L69.9219 67.2031L69.5625 67.5L69.168 67.2031L68.7031 66.25L68.3799 65.5372L67.9545 64.5373L67.4562 63.327L66.9141 61.983L66.3574 60.582L65.8153 59.2007L65.3168 57.9158L64.8911 56.804L64.5675 55.9419L64.375 55.4063L64.2461 55.0234L64.1875 54.6406L65.2083 52.9774L67.1042 51.8872L68.125 50.6094L67.3438 49.791L65.3438 49.5469L64.3286 49.5619L63.2124 49.5995L62.0059 49.6484L60.7199 49.6973L59.3654 49.735L57.9531 49.75L56.696 49.7372L55.6983 49.7091L55.7257 48.6499L55.7813 47.5078L55.8681 46.3345L55.9913 45.0978L56.1563 43.7656L56.7569 41.5637L57.9931 40.0457L60.1875 39.0625L61.377 38.4902L62.2031 37.3438L61.377 36.1016L60.1875 35.7969L58.8039 35.8185L57.5737 35.8743L56.4378 35.9506L55.3371 36.0338L54.2126 36.1101L53.0054 36.1659L51.6563 36.1875L50.2902 36.1784L49.0555 36.1535L47.926 36.1162L46.8759 36.0701L45.8791 36.0187L44.9096 35.9656L43.9415 35.9143L42.9487 35.8682L41.9053 35.8309L40.7852 35.806L39.5625 35.7969L38.4199 36.2539L37.6406 37.4375L38.4199 38.6074L39.5625 39.0625L40.4467 39.1042L41.6057 39.2322L42.9438 39.4506L44.3652 39.7637L45.7742 40.1756L47.075 40.6907L48.1717 41.313L48.9688 42.0469L49.3438 43.1563L49.4375 44.9219L49.4082 46.2942L49.3438 47.7441L49.2793 49.1736L49.273 49.4572L48.9219 49.4531L46.9219 49.6973L46.1406 50.5156L46.9355 51.6406L49.0484 52.5156L48.8241 53.5741L48.3516 54.9004L47.7593 56.0666L47.0871 57.0617L46.375 57.875L46.008 58.2186L45.5312 58.6077L44.9345 59.0258L44.2081 59.4564L43.342 59.8831L42.3264 60.2894L41.1511 60.6588L39.8657 60.9608L39.4219 59.8281L39.2234 59.2066L38.8547 57.6684L38.6563 55.7031L39.0371 53.7129L40.5781 52.5313L42.9824 51.6758L43.7344 50.6094L42.959 49.791L40.9531 49.5469L40.1635 49.5556L39.2471 49.5786L38.2208 49.6111L37.1016 49.6484L35.9061 49.6857L34.6514 49.7183L33.3541 49.7413L32.0313 49.75L30.6862 49.7336L29.4308 49.6911L28.236 49.6332L27.073 49.57L25.9127 49.512L24.7261 49.4696L23.4844 49.4531L21.4844 49.6973L20.7031 50.5156L21.498 51.6406L23.875 52.625L25.4141 53.199L26.7766 53.967L27.9785 54.9277L29.0359 56.0799L29.9648 57.4221L30.7813 58.9531L31.692 61.2386L30.7203 61.0988L29.4277 60.8373L28.1496 60.5029L26.8891 60.0962L25.649 59.6179L24.4324 59.069L23.2421 58.45L22.0812 57.7618L20.9525 57.0051L19.859 56.1806L18.8037 55.2892L17.7896 54.3316L16.8195 53.3084L15.8964 52.2206L15.0232 51.0687L14.203 49.8537L13.4386 48.5762L12.7331 47.2369L12.0892 45.8368L11.5101 44.3764L10.9987 42.8565L10.5578 41.278L10.1905 39.6415L9.89965 37.9479L9.68827 36.1978L9.55928 34.392L9.51563 32.5313L9.55136 30.9689L9.65769 29.4198L9.83333 27.8869L10.077 26.3732L10.3873 24.8817L10.7631 23.4156L11.2029 21.9777L11.7056 20.5712L12.2698 19.1991L12.8941 17.8644L13.5774 16.5701L14.3183 15.3193L15.1155 14.115L15.9677 12.9602L16.8737 11.858L17.832 10.8113L18.8414 9.82326L19.9007 8.89684L21.0085 8.03509L22.1635 7.24103L23.3644 6.5177L24.6099 5.86812L25.8988 5.29533L27.2296 4.80235L28.6012 4.3922L30.0122 4.06793L31.4613 3.83256L32.9473 3.68911L34.4688 3.64063L36.3595 3.69311L38.1219 3.84243L39.7574 4.07634L41.267 4.38261L42.6523 4.74901L43.9144 5.16331L45.0547 5.61328L46.0744 6.08669L46.9749 6.5713L47.7575 7.05489L48.4234 7.52523L48.974 7.97007L49.4106 8.3772L49.7344 8.73438L50.7366 10.0156L51.5059 11.2031L52.1316 12.4258L52.7031 13.8125L53.4551 15.543L54.9219 16.4063L55.9277 15.8086L56.3594 14.4844L56.3452 13.6885L56.3044 12.7994L56.2391 11.8287L56.1519 10.7881L56.0449 9.68945L55.9206 8.54437L55.7813 7.36461L55.6294 6.16187L55.4671 4.94789L55.2969 3.73438M41.1239 64.1581L42.4547 63.8573L43.7992 63.5054L45.0874 63.1247L46.3175 62.7219L47.4876 62.3037L48.5957 61.877L49.64 61.4484L50.6186 61.0247L51.5296 60.6127L52.371 60.2191L53.1411 59.8506L53.8379 59.5141L54.4595 59.2163L55.004 58.9639L55.4696 58.7637L55.8543 58.6225L56.1563 58.5469L56.9888 57.9799L57.6978 59.0164L58.4219 60.5L63.9063 74.125L64.4648 75.6973L64.6719 76.9063L64.5234 77.8691L64.0938 79.125L56.6094 97.6406L55.9961 98.5313L55.1719 97.5469L54.6698 96.4161L54.1794 95.3097L53.7004 94.2263L53.2319 93.1645L52.7735 92.1229L52.3245 91.1001L51.8844 90.0947L51.4526 89.1051L51.0285 88.1302L50.6114 87.1683L50.2009 86.2182L49.7963 85.2784L49.397 84.3474L49.0024 83.4239L48.612 82.5065L48.2252 81.5937L47.8413 80.6842L47.4598 79.7765L47.0801 78.8691L46.7016 77.9608L46.3237 77.0501L45.9458 76.1355L45.5674 75.2157L45.1878 74.2892L44.8064 73.3546L44.4227 72.4106L44.0361 71.4557L43.646 70.4884L43.2518 69.5075L42.8529 68.5114L42.4487 67.4987L42.0386 66.4681L41.6221 65.4181L41.1985 64.3474L41.1239 64.1581"/><path id="shape3" transform="matrix(0.999999958671576 0 0 0.999999958671576 197.740943161024 26.5187507915585)" fill="#ffffff" fill-rule="evenodd" stroke="#000000" stroke-opacity="0" stroke-width="0" stroke-linecap="square" stroke-linejoin="bevel" d="M33.8309 5.67188L33.7587 6.14258L33.5419 6.58594L33.2782 7.05273L33.0653 7.59375L32.7372 8.4043L32.5341 8.74219L32.2841 8.98633L31.8153 9.51563L31.579 9.85742L31.4325 10.1328L31.3095 10.3613L31.1434 10.5625L30.6942 10.6172L30.0966 10.375L29.0341 9.49023L27.7841 8.55469L26.3915 7.6543L24.9013 6.875L23.327 6.26367L21.6825 5.86719L19.993 5.79492L18.2841 6.15625L17.0336 6.61133L15.6884 7.21094L14.2484 7.95508L12.7138 8.84375L11.1918 9.8584L9.78992 10.9805L8.50818 12.21L7.34656 13.5469L6.5154 14.7127L5.82399 15.908L5.27234 17.1328L4.86045 18.3872L4.58832 19.671L4.45594 20.9844L4.44791 22.2951L4.54882 23.5712L4.75867 24.8125L5.07747 26.0191L5.5052 27.191L6.04188 28.3281L7.03992 29.9448L8.26063 31.4355L9.70398 32.8003L11.37 34.0391L12.4129 34.6668L13.5103 35.2062L14.6623 35.6572L15.8687 36.0199L17.1297 36.2943L18.4453 36.4804L19.8153 36.5781L21.4125 36.2257L22.8709 35.6684L24.1903 34.9063L25.9442 33.4766L27.4559 31.7813L28.3353 30.5365L29.1191 29.2396L29.8075 27.8906L30.4039 26.5417L30.9117 25.2448L31.3309 24L30.244 24.2725L29.1569 24.5343L28.0697 24.7856L26.9822 25.0262L25.8945 25.2563L24.8066 25.4757L23.7186 25.6845L22.6303 25.8827L21.5419 26.0703L20.4534 26.227L19.3652 26.3327L18.2771 26.3872L17.1893 26.3905L16.1016 26.3428L15.0141 26.2439L13.9268 26.0939L12.8397 25.8928L11.7528 25.6406L11.4384 25.4297L11.4638 25.3906L11.7313 25.2109L12.1434 24.5781L12.3192 24.1406L12.4716 23.5781L12.7723 23.0117L13.3934 22.5625L14.5499 22.3607L15.7172 22.1406L16.8954 21.9023L18.0844 21.6458L19.2843 21.3711L20.495 21.0781L21.7164 20.7826L22.9481 20.5L24.1903 20.2305L25.4429 19.974L26.7059 19.7305L27.9794 19.5L29.0774 19.3217L30.1796 19.1709L31.286 19.0475L32.3965 18.9515L33.5111 18.883L34.6299 18.8418L35.7528 18.8281L36.8797 18.8533L38.0105 18.9289L39.145 19.0548L40.2834 19.2312L41.4256 19.4579L42.5717 19.735L43.7216 20.0625L44.1356 20.2266L44.6278 20.3125L45.1473 20.3945L45.6434 20.5469L46.1024 20.7715L46.5106 21.0703L46.7977 21.4668L46.8934 21.9844L46.6747 22.2773L46.0184 22.375L44.7304 22.3838L43.3505 22.4102L41.8788 22.4541L40.3153 22.5156L38.7509 22.6191L37.2763 22.7891L35.8915 23.0254L34.5966 23.3281L34.5526 24.5137L34.5145 25.7578L34.4823 27.0605L34.4559 28.4219L34.4506 29.8218L34.4813 31.2402L34.5482 32.6772L34.6513 34.1328L34.7672 35.3025L34.9213 36.4678L35.1134 37.6287L35.1315 37.7193L35.4286 38.502L35.857 39.7769L36.2932 41.219L36.7372 42.8281L36.8738 43.4105L37.1473 43.9863L37.8622 45.2188L38.0028 45.5527L38.0497 46.1797L38.0028 46.877L37.8908 47.3109L38.12 48.1094L38.5326 49.4976L38.9501 50.8809L39.3724 52.2593L39.7997 53.6328L40.2299 54.9883L40.661 56.3125L41.0931 57.6055L41.5263 58.8672L42.0723 60.4549L42.554 61.895L42.9716 63.1875L43.6263 62.0776L44.3407 60.7637L45.1146 59.2456L45.9481 57.5234L46.4473 56.4723L46.9583 55.4035L47.4811 54.3173L48.0157 53.2135L48.5621 52.0922L49.1203 50.9533L49.6903 49.7969L50.2681 48.6315L50.8498 47.4659L51.4352 46.2999L52.0245 45.1336L52.6176 43.967L53.2145 42.8001L53.8153 41.6328L54.5158 40.3045L55.2111 39.0434L55.9013 37.8496L56.5861 36.7231L57.2658 35.6638L57.9403 34.6719L58.329 34.1914L58.7138 33.9063L59.0985 33.6914L59.4872 33.4219L59.7587 33.1973L60.0106 32.8984L60.2391 32.6465L60.4403 32.5625L61.0145 32.5898L61.2059 33.0469L61.6391 34.3741L62.1677 35.9392L62.7919 37.7422L63.1969 38.9222L63.6056 40.1559L64.0181 41.4434L64.4344 42.7847L64.8544 44.1797L65.202 45.3763L65.5419 46.5964L65.8739 47.8398L66.1981 49.1068L66.5145 50.3971L66.8231 51.7109L67.0755 52.8444L67.3104 53.9724L67.5277 55.095L67.7275 56.2122L67.9097 57.324L68.0744 58.4303L68.2216 59.5313L68.6859 58.4612L69.1666 57.3263L69.6634 56.1262L70.1766 54.8612L70.7059 53.5313L71.1606 52.3865L71.6287 51.2231L72.1102 50.041L72.6052 48.8403L73.1137 47.6209L73.6356 46.3828L74.1723 45.1326L74.725 43.8767L75.2938 42.6152L75.8787 41.3481L76.4796 40.0753L77.0966 38.7969L77.7307 37.5265L78.383 36.2778L79.0536 35.0508L79.7424 33.8455L80.4494 32.6619L81.1747 31.5L81.9423 30.4863L82.9013 29.5391L83.9071 28.6152L84.8153 27.6719L85.5204 26.918L86.0731 26.2188L86.622 25.5469L87.3153 24.875L87.4638 25.457L87.1278 26.7969L86.5966 27.9414L85.9716 29.25L85.3739 30.5586L84.9247 31.7031L84.5514 32.764L84.1777 33.8252L83.8037 34.8868L83.4294 35.9488L83.0548 37.0112L82.6799 38.0739L82.3046 39.137L81.929 40.2005L81.5531 41.2644L81.1769 42.3287L80.8003 43.3933L80.4234 44.4583L80.0462 45.5237L79.6686 46.5895L79.2908 47.6556L78.9126 48.7222L78.5341 49.7891L78.1786 50.7994L77.8277 51.8148L77.4811 52.8353L77.139 53.8608L76.8013 54.8914L76.4681 55.9271L76.1393 56.9678L75.8149 58.0136L75.495 59.0645L75.1795 60.1204L74.8685 61.1814L74.5618 62.2474L74.2597 63.3185L73.9619 64.3947L73.6686 65.4759L73.3797 66.5622L73.0953 67.6536L72.8153 68.75L72.6493 69.3398L72.3388 70.1406L71.9579 70.8945L71.5809 71.3438L71.122 71.7578L70.7138 72.25L70.3309 72.7441L69.9481 73.1641L69.577 73.4629L69.2294 73.5938L68.8798 73.5117L68.5028 73.1719L67.7372 72.2031L66.7931 70.9584L65.9609 69.6744L65.2406 68.3509L64.6322 66.9881L64.1356 65.5859L63.7778 64.3945L63.4386 63.1901L63.118 61.9727L62.8162 60.7422L62.533 59.4987L62.2684 58.2422L62.0486 57.1547L61.8265 56.0572L61.6021 54.9499L61.3756 53.8327L61.1468 52.7057L60.9158 51.5687L60.6825 50.4219L60.4298 49.272L60.1404 48.126L59.8144 46.9837L59.4516 45.8453L59.0522 44.7108L58.6162 43.58L58.1434 42.4531L57.42 43.6022L56.7122 44.8244L56.02 46.1197L55.3434 47.4881L54.6825 48.9297L54.145 50.1654L53.6209 51.4089L53.1102 52.6602L52.6131 53.9193L52.1293 55.1862L51.6591 56.4609L51.2033 57.7357L50.7632 59.0026L50.3388 60.2617L49.9299 61.513L49.5367 62.7565L49.1591 63.9922L48.7328 65.43L48.3416 66.7872L47.9853 68.0637L47.6641 69.2597L47.3778 70.375L47.0595 71.2793L46.6669 71.8672L46.2704 72.334L45.9403 72.875L45.704 73.3711L45.37 74.0781L44.9618 74.6875L44.5028 74.8906L44.0927 74.8184L43.8309 74.6016L43.5927 74.2676L43.2528 73.8438L42.6107 72.8551L41.9886 71.86L41.3866 70.8584L40.8045 69.8504L40.2424 68.8359L39.7003 67.815L39.1782 66.7876L38.6761 65.7537L38.1941 64.7134L37.732 63.6667L37.2899 62.6134L36.8678 61.5538L36.4657 60.4876L36.0836 59.415L35.7216 58.3359L35.3757 57.2569L35.0421 56.1843L34.7209 55.1181L34.4121 54.0584L34.1157 53.0052L33.8316 51.9584L33.5598 50.9181L33.3005 49.8843L33.0534 48.8569L32.8188 47.8359L32.5965 46.8215L32.3866 45.8134L32.189 44.8119L32.0038 43.8168L31.8309 42.8281L30.3266 41.1432L29.2719 39.6719L28.6669 38.4141L28.4994 37.9552L28.2362 38.1689L27.1938 38.9375L26.1459 39.6325L25.0927 40.2539L24.034 40.8018L22.9698 41.276L21.9003 41.6768L20.8253 42.0039L19.7449 42.2575L18.6591 42.4375L17.118 42.543L15.9325 42.4844L14.7665 42.1875L13.2841 41.5781L12.4579 41.3086L11.3231 41.0938L10.2352 40.832L9.54969 40.4219L7.88997 39.0139L6.36913 37.4774L4.98719 35.8125L4.05066 34.4917L3.20984 33.123L2.46473 31.7065L1.81531 30.2422L1.365 29.0422L0.976563 27.8234L0.65 26.5859L0.385313 25.3297L0.1825 24.0547L0.0509375 22.7644L0 21.4622L0.0296875 20.1481L0.14 18.8222L0.330938 17.4844L0.415573 16.0699L0.606979 14.7118L0.905156 13.4102L1.3101 12.1649L1.82182 10.9761L2.44031 9.84375L3.51111 8.25684L4.70789 6.80859L6.03064 5.49902L7.47938 4.32813L8.70813 3.49062L9.97563 2.74063L11.2819 2.07813L12.6269 1.50313L14.0106 1.01563L15.3959 0.62L16.7456 0.320625L18.0597 0.1175L19.3381 0.010625L20.5809 0L22.0636 0.108507L23.5532 0.288194L25.0497 0.539063L26.5132 0.894097L27.9039 1.38628L29.2216 2.01563L30.7626 2.87305L31.9169 3.50781L32.8759 4.31055L33.8309 5.67188"/><path id="shape4" transform="matrix(0.999999958671576 0 0 0.999999958671576 347.415643755078 21.3593783709534)" fill="#ffffff" fill-rule="evenodd" stroke="#000000" stroke-opacity="0" stroke-width="0" stroke-linecap="square" stroke-linejoin="bevel" d="M43.2031 46.75L43.2031 57.8906L46.0781 57.8906L46.0781 35.3281L53.0938 35.3281L53.0938 32.4531L25.0625 32.4531L25.0625 35.3281L43.2031 35.3281L43.2031 38.1094C43.2031 46.9531 33.0313 56.2656 24.3906 56.2656C10.5625 56.2656 2.875 45.4063 2.875 30.25C2.875 14.3125 11.1406 2.89063 24.6719 2.89063C33.7031 2.89063 41.8594 6.71875 42.7188 14.2188C40.5156 11.0469 34.4688 12.4844 34.4688 17.1875C34.4688 20.2656 36.5781 22.6563 40.2188 22.6563C43.4844 22.6563 45.6875 19.6875 45.6875 15.75C45.6875 6.4375 37.5313 0 24.6719 0C9.03125 0 0 13.25 0 30.25C0 46.6563 8.73438 59.1406 24.3906 59.1406C32.25 59.1406 39.5469 53.4688 43.2031 46.75M110.484 55.25L110.484 52.3594L95.7969 52.3594L95.7969 55.25L104.344 55.25L94.1719 104.969L85.0469 61L82.0781 61L72.9531 104.969L62.7813 55.25L71.3281 55.25L71.3281 52.3594L56.6406 52.3594L56.6406 55.25L59.7969 55.25L70.75 109L75.0625 109L83.6094 68.2031L92.0625 109L96.375 109L107.328 55.25L110.484 55.25"/><path id="shape5" transform="matrix(0.999999958671576 0 0 0.999999958671576 42.392183982174 201.406268189389)" fill="#ffffff" fill-rule="evenodd" stroke="#000000" stroke-opacity="0" stroke-width="0" stroke-linecap="square" stroke-linejoin="bevel" d="M19.1875 0L22.75 0L22.75 0.953125L29.1719 0.953125L29.1719 1.82813L31.1484 2.11328L32.6406 2.78125L34.5469 2.78125L35.6198 2.25174L36.901 1.93403L38.3906 1.82813L40.8906 1.82813L43.5781 3.64063L43.3954 5.36241L43.1701 6.88194L42.9023 8.19922L42.592 9.31424L42.2391 10.227L41.8438 10.9375L42.6094 14.5938L40.8906 15.4531L40.8906 16.4063L41.9583 17.6163L42.599 19.184L42.8125 21.1094L42.7871 21.6055L42.7109 22.3125L42.6348 23.043L42.6094 23.6094L41.6094 25.4375L40.8906 27.2656L37.2344 27.2656L36.2813 25.4375L35.5156 25.4375L35.5156 24.5781L34.5469 24.5781L32.6406 22.75L32.6406 18.2344L31.582 16.6992L30.9063 14.5938L30.0742 14.2656L29.7031 14.0625L29.5 13.668L29.1719 12.7656L24.5625 13.625L24.5625 9.10938L23.2994 9.45812L22.035 9.72938L20.7694 9.92312L19.5025 10.0394L18.2344 10.0781L18.2344 11.7969L15.5469 14.5938L11.9063 15.4531L13.625 17.2813L13.625 18.2344L10.9375 20.9219L10.9375 24.5781L11.1387 24.873L11.3672 25.1953L11.5605 25.4707L11.6563 25.625L11.7168 25.7559L11.8047 25.9609L11.8809 26.2148L11.9063 26.4922L11.9063 27.2656L10.3164 29.4648L9.01563 30.9063L9.98438 32.3438L9.95898 32.4395L9.88281 32.5391L9.74805 32.6855L9.54688 32.9219L9.29688 33.2305L9.01563 33.5938L10.7031 34.293L12.6719 35.4219L12.4492 36.9297L12.375 38.3906L12.4492 39.5469L12.6719 40.8906L9.98438 44.5313L10.9375 44.7324L11.7031 45.1172L12.291 45.582L12.7109 46.0234L13.1074 46.5977L13.625 47.4609L14.1563 48.3613L14.5938 49.0469L13.625 53.6563L15.2246 54.0684L16.3672 54.5234L17.291 55.2168L18.2344 56.3438L19.9688 56.3438L20.3438 55.6289L20.5313 55.3906L21.875 55.3906L22.707 55.709L23.0781 55.9141L23.2813 56.3105L23.6094 57.2031L28.2188 56.3438L28.9609 54.4551L29.6563 52.9141L30.3047 51.7207L30.9063 50.875L30.9063 47.2188L31.8594 44.5313L30.7969 43.3924L29.901 41.8924L29.1719 40.0313L27.7813 41.1563L26.2969 41.8438L25.498 40.7285L25.0078 40.0703L24.5508 39.6035L23.8516 39.0625L22.9473 38.5586L21.875 38.2031L22.0859 37.6621L22.3125 37.1953L22.5977 36.7773L22.9844 36.3828L23.3711 36.0469L23.6563 35.8047L24 35.5508L24.5625 35.1797L25.1406 34.8066L25.5313 34.5469L26.3047 34.5469L26.5801 34.5234L26.8281 34.4531L27.0293 34.3711L27.1641 34.3125L27.3242 34.2168L27.6016 34.0234L27.9238 33.7949L28.2188 33.5938L30.9063 34.5469L31.7539 33.4316L32.3906 32.7734L33.1953 32.3301L34.5469 31.8594L35.4316 32.7305L36.5234 33.4063L37.5527 33.8633L38.25 34.0781L39.1758 34.2422L40.8906 34.5469L41.7383 33.6309L42.375 33.1641L43.1797 32.9355L44.5313 32.7344L46.2656 35.4219L49.9063 34.5469L50.582 36.0859L51.8281 38.2031L51.8281 39.0625L50.78 40.0637L49.6231 40.8425L48.3575 41.3988L46.9831 41.7325L45.5 41.8438L44.9102 43.041L44.2969 43.7266L43.3711 44.1426L41.8438 44.5313L42.207 46.0996L42.3281 47.7109L42.207 49.3184L41.8438 50.875L43.5781 51.8281L43.5781 52.7031L41.8438 53.6563L41.8438 55.3906L42.4316 55.9102L42.8516 56.3438L43.1406 56.8164L43.3359 57.4531L43.4473 58.0527L43.4844 58.4141L43.5078 58.9316L43.5781 60L44.5313 60L44.5313 64.5L42.5664 65.6289L40.8906 66.3281L38.2031 66.3281L38.002 66.4473L37.7734 66.6172L37.5684 66.7754L37.4375 66.8594L37.3301 66.918L37.1953 67L37.0605 67.0703L36.9531 67.0938L36.8594 67.1055L36.7656 67.1406L36.6348 67.1758L36.4297 67.1875L35.5156 67.1875L34.3418 66.4707L33.0234 65.9453L31.5605 65.6113L29.9531 65.4688L27.2656 68.1563L21.875 67.1875L21.875 66.3281L16.3125 66.3281L14.1523 64.5508L12.6719 62.6875L10.9375 62.6875L9.01563 60.8594L7.29688 58.1719L7.29688 54.5156L3.64063 52.7031L3.64063 49.0469L2.34375 48.4023L0.953125 47.2188L0.953125 46.6563L1.19531 45.5469L1.92188 44.5313L1.92188 41.8438L1.27951 40.6406L0.894097 39.0729L0.765625 37.1406L0.789063 36.1953L0.859375 34.8906L0.929688 33.6094L0.953125 32.7344L0 32.7344L0 30.0469L0.343125 29.0387L0.61 27.9394L0.800625 26.7488L0.915 25.4669L0.953125 24.0938L0.953125 20.9219L2.39453 18.9102L2.875 17.2813L2.85156 17.1289L2.78125 16.8906L2.71094 16.6289L2.6875 16.4063L4.07813 15.2813L5.5625 14.5938L5.5625 10.0781L7.29688 9.10938L7.29688 7.29688L9.01563 5.46875L12.6719 5.46875L14.5938 0.953125L19.1875 0.953125L19.1875 0M75.5469 62.2344L75.5469 64.0625L76.3789 63.7344L76.75 63.5313L76.9531 63.1367L77.2813 62.2344L75.5469 62.2344M84.5625 62.2344L85.1387 63.1484L85.5234 63.5781L86.0996 63.793L87.25 64.0625L87.25 63.3906L87.0859 62.7578L86.7813 62.4219L86.2969 62.2344L84.5625 62.2344M85.7188 66.4531L85.8125 67.0313L86.1094 67.0313L86.0156 66.4531L85.7188 66.4531M62.6875 49.5625L63.6406 52.25L62.6875 53.1094L60 52.25L60.5039 53.293L60.8594 53.7344L61.457 53.8906L62.6875 54.0781L62.6387 54.918L62.3457 57.2695L62.2969 58.1094L62.3945 59.4023L62.6875 60.4063L62.1133 61.3164L61.9219 62.5156L61.9219 63.0938L64.6094 68.5625L65.6328 67.9629L66.2344 67.5078L66.6953 66.9082L67.2969 65.875L65.5625 66.75L65.5625 65.875L66.5703 64.5547L66.9063 63.2813L66.834 62.7969L66.6172 62.2813L66.2324 61.6797L65.6563 60.9375L65.0586 60.1836L64.6094 59.5469L70.9375 59.5469L70.9375 58.5781L74.5781 58.5781L74.5781 57.7188L69.2031 57.7188L69.832 55.8008L70.9375 54.0781L70.1787 52.7979L69.6367 51.457L69.3115 50.0557L69.2031 48.5938L64.6094 48.5938L62.6875 49.5625M82.6563 48.5938L83.6094 52.25L80.9219 53.1094L80.9922 53.3008L81.0156 53.5L81.4531 54.2891L81.9844 54.75L82.2188 54.7969L82.5469 54.9375L82.6563 54.9375L82.6563 58.5781L88.2188 59.5469L88.2188 53.1094L84.5625 52.25L84.5625 51.2813L86.7266 50.4688L88.2188 49.5625L86.9688 49.1387L85.625 48.8359L84.1875 48.6543L82.6563 48.5938M95.5156 42.2656L96.3633 41.3398L97 40.875L97.8047 40.6484L99.1563 40.4375L100.891 44.9531L102.762 45.2383L104.531 45.9063L104.531 49.5625L103.04 50.434L101.503 51.0069L99.9219 51.2813L99.3631 52.7987L98.9119 54.2013L98.5681 55.4888L98.3319 56.6613L98.2031 57.7188L97.2344 57.7188L97.2344 64.0625L97.9141 65.2109L98.2031 66.75L97.6159 67.6684L97.1354 68.7049L96.7617 69.8594L96.4948 71.1319L96.3346 72.5226L96.2813 74.0313L96.0801 74.3496L95.8516 74.7109L95.6582 75.0098L95.5625 75.1406L95.3203 75.3828L95.1504 75.541L95.0313 75.625L94.8633 75.707L94.5469 75.8594L94.5469 77.5938L94.3086 79.6758L93.5938 81.3281L93.5938 82.2031L94.168 83.1816L94.3594 84.0234L94.168 84.8652L93.5938 85.8438L94.5469 89.5L93.9596 90.4158L93.4792 91.4444L93.1055 92.5859L92.8385 93.8403L92.6784 95.2075L92.625 96.6875L93.5762 97.5586L94.1172 98.2344L94.3926 99.0508L94.5469 100.344L93.6426 100.674L93.2109 100.914L92.9668 101.326L92.625 102.172L91.8594 103.125L90.9063 103.125L89.9375 105.813L89.375 105.813L88.1719 105.598L87.25 104.953L85.5313 104.953L83.9922 105.598L81.875 105.813L81.875 101.297L79.9688 100.344L79.9688 95.8281L78.6895 94.9082L77.9453 94.0547L77.541 92.959L77.2813 91.3125L79.9688 90.3594L79.5347 89.0868L79.2743 87.5816L79.1875 85.8438L77.2813 84.0156L77.2813 83.2578L77.3047 82.9805L77.375 82.7266L77.457 82.5215L77.5156 82.3906L77.6113 82.2363L77.8047 81.9609L78.0332 81.6348L78.2344 81.3281L77.6602 80.4453L77.4688 79.8906L77.6602 79.4141L78.2344 78.5469L78.2344 76.7188L77.5195 75.1367L77.2813 73.0781L76.3125 71.3438L75.5469 71.3438L75.2578 73.3906L74.5781 74.9063L74.5781 76.7188L75.2578 77.9023L75.5469 79.5156L73.8672 80.1602L71.8906 80.375L72.6143 81.543L73.1445 82.8438L73.4814 84.2773L73.625 85.8438L74.5762 86.7129L75.1172 87.3828L75.3926 88.1973L75.5469 89.5L71.8906 89.5L72.6719 94L71.6602 95.8281L70.9375 97.6563L72.7148 96.9766L74.5781 96.6875L75.5469 97.6563L75.2578 99.5273L74.5781 101.297L73.6738 100.967L73.2422 100.727L73.002 100.318L72.6719 99.4844L70.9375 99.4844L70.4805 100.539L70.0781 101.016L69.7578 101.133L69.2031 101.297L69.2031 102.172L70.0488 102.746L70.4609 103.125L70.6777 103.723L70.9375 104.953L66.3281 104.953L65.5625 106.672L62.6875 106.672L60.9531 104.953L60.9531 104.227L60.9648 103.998L61 103.797L61.0605 103.607L61.1484 103.414L61.2363 103.244L61.2969 103.125L61.3789 102.971L61.5313 102.695L61.7227 102.396L61.9219 102.172L60.4258 101.473L59.0313 100.344L58.9834 98.666L58.8398 97.1953L58.6006 95.9316L58.2656 94.875L59.0313 90.3594L57.8828 89.2305L57.5 88.3438L57.6914 87.6445L58.2656 86.7031L58.2656 84.8906L57.4023 83.8828L56.3438 82.2031L56.3438 72.2188L54.625 70.3906L54.625 69.2344L54.3828 68.1367L53.6563 66.75L54.332 65.2109L55.5781 63.0938L54.2773 61.8242L53.8438 60.8906L54.0391 60.2188L54.625 58.5781L53.3242 57.1641L52.8906 55.6094L53.082 54.4336L53.6563 52.25L49.0469 52.25L48.9883 50.793L48.8125 49.8906L48.3242 49.0391L47.3281 47.7344L47.3281 44.9531L50.9688 42.2656L55.5781 43.125L57.3125 41.3125L59.0313 41.3125L59.0313 43.125L63.6406 41.3125L63.6406 44.9531L66.3281 45.9063L66.4492 45.7891L66.625 45.625L66.7422 45.457L66.7188 45.1406L66.6348 44.9766L66.5703 44.8594L66.5176 44.7285L66.4688 44.5234L66.4102 44.2949L66.3281 44.0938L67.0977 44.1641L68.0625 44.1875L69.1133 44.1641L69.9844 44.0938L69.9844 43.125L71.8906 42.2656L72.6719 42.2656L72.8965 42.4551L73.1953 42.6484L73.459 42.8066L73.5781 42.8906L73.6621 42.9609L73.8203 43.0781L73.9785 43.1836L74.0625 43.2188L74.1211 43.2676L74.2031 43.4141L74.2852 43.584L74.3438 43.7031L74.4258 43.8477L74.5781 44.0938L75.8789 43.4414L77.2813 42.2656L79 43.1328L80.5313 43.4219L80.9336 43.3848L81.5469 43.2734L82.1836 43.1621L82.6563 43.125L82.8438 43.3613L83.0313 43.6641L83.1855 43.9395L83.2734 44.0938L83.3379 44.2109L83.4219 44.375L83.5039 44.5645L83.5625 44.7578L83.5977 44.9648L83.6094 45.1953L83.6094 45.9063L89.9375 44.0938L89.9375 43.3672L89.9512 43.1387L89.9922 42.9375L90.0566 42.748L90.1406 42.5547L90.2227 42.3848L90.2813 42.2656L90.3652 42.1113L90.5234 41.8359L90.7168 41.5371L90.9063 41.3125L95.5156 42.2656"/><path id="shape6" transform="matrix(0.999999958671576 0 0 0.999999958671576 188.040638773872 204.062518254882)" fill="#ffffff" fill-rule="evenodd" stroke="#000000" stroke-opacity="0" stroke-width="0" stroke-linecap="square" stroke-linejoin="bevel" d="M9.83594 61.2891C9.67448 61.0026 9.59375 60.5703 9.59375 59.9922C9.59375 59.4141 9.67448 58.9818 9.83594 58.6953C9.9974 58.4089 10.5417 58.1693 11.4688 57.9766C12.3958 57.7839 13.5651 57.6719 14.9766 57.6406C16.388 57.6094 18.5964 57.5938 21.6016 57.5938C24.6068 57.5938 26.8125 57.6094 28.2188 57.6406C29.625 57.6719 30.7943 57.7839 31.7266 57.9766C32.6589 58.1693 33.2031 58.4089 33.3594 58.6953C33.5156 58.9818 33.5938 59.4141 33.5938 59.9922C33.5938 60.5703 33.5156 61.0026 33.3594 61.2891C33.2031 61.5755 32.6589 61.8151 31.7266 62.0078C30.7943 62.2005 29.625 62.3125 28.2188 62.3438C26.8125 62.375 24.6068 62.3906 21.6016 62.3906C18.5964 62.3906 16.388 62.375 14.9766 62.3438C13.5651 62.3125 12.3958 62.2005 11.4688 62.0078C10.5417 61.8151 9.9974 61.5755 9.83594 61.2891M29.7109 52.3516C29.1016 52.0651 28.7969 51.4115 28.7969 50.3906C28.7969 49.3698 29.1016 48.7135 29.7109 48.4219C30.3203 48.1302 31.6172 47.9844 33.6016 47.9844C35.5859 47.9844 36.8802 48.1302 37.4844 48.4219C38.0885 48.7135 38.3906 49.3698 38.3906 50.3906C38.3906 51.4115 38.0885 52.0651 37.4844 52.3516C36.8802 52.638 35.5859 52.7813 33.6016 52.7813C31.6172 52.7813 30.3203 52.638 29.7109 52.3516M5.71094 52.3516C5.10156 52.0651 4.79688 51.4115 4.79688 50.3906C4.79688 49.3698 5.10156 48.7135 5.71094 48.4219C6.32031 48.1302 7.61719 47.9844 9.60156 47.9844C11.5859 47.9844 12.8828 48.1302 13.4922 48.4219C14.1016 48.7135 14.4063 49.3698 14.4063 50.3906C14.4063 51.4115 14.1016 52.0651 13.4922 52.3516C12.8828 52.638 11.5859 52.7813 9.60156 52.7813C7.61719 52.7813 6.32031 52.638 5.71094 52.3516M20.7344 42.8047C19.7135 42.5495 19.2031 41.8776 19.2031 40.7891C19.2031 39.7005 19.7135 39.0286 20.7344 38.7734C21.7552 38.5182 24.4427 38.3906 28.7969 38.3906C33.151 38.3906 35.8385 38.5182 36.8594 38.7734C37.8802 39.0286 38.3906 39.7005 38.3906 40.7891C38.3906 41.8776 37.8802 42.5495 36.8594 42.8047C35.8385 43.0599 33.151 43.1875 28.7969 43.1875C24.4427 43.1875 21.7552 43.0599 20.7344 42.8047M0.914063 42.7578C0.304688 42.4714 0 41.8151 0 40.7891C0 39.763 0.304688 39.1068 0.914063 38.8203C1.52344 38.5339 2.82031 38.3906 4.80469 38.3906C6.78906 38.3906 8.08333 38.5339 8.6875 38.8203C9.29167 39.1068 9.59375 39.763 9.59375 40.7891C9.59375 41.8151 9.29167 42.4714 8.6875 42.7578C8.08333 43.0443 6.78906 43.1875 4.80469 43.1875C2.82031 43.1875 1.52344 43.0443 0.914063 42.7578M0.914063 33.1563C0.304688 32.8646 0 32.2083 0 31.1875C0 30.1667 0.304688 29.513 0.914063 29.2266C1.52344 28.9401 2.82031 28.7969 4.80469 28.7969C6.78906 28.7969 8.08333 28.9401 8.6875 29.2266C9.29167 29.513 9.59375 30.1667 9.59375 31.1875C9.59375 32.2083 9.29167 32.8646 8.6875 33.1563C8.08333 33.4479 6.78906 33.5938 4.80469 33.5938C2.82031 33.5938 1.52344 33.4479 0.914063 33.1563M0.914063 23.5547C0.304688 23.2682 0 22.6146 0 21.5938C0 20.5729 0.304688 19.9167 0.914063 19.625C1.52344 19.3333 2.82031 19.1875 4.80469 19.1875C6.78906 19.1875 8.08333 19.3333 8.6875 19.625C9.29167 19.9167 9.59375 20.5729 9.59375 21.5938C9.59375 22.6146 9.29167 23.2682 8.6875 23.5547C8.08333 23.8411 6.78906 23.9844 4.80469 23.9844C2.82031 23.9844 1.52344 23.8411 0.914063 23.5547M29.7109 13.9609C29.1016 13.6745 28.7969 13.0182 28.7969 11.9922C28.7969 10.9661 29.1016 10.3099 29.7109 10.0234C30.3203 9.73698 31.6172 9.59375 33.6016 9.59375C35.5859 9.59375 36.8802 9.73698 37.4844 10.0234C38.0885 10.3099 38.3906 10.9661 38.3906 11.9922C38.3906 13.0182 38.0885 13.6745 37.4844 13.9609C36.8802 14.2474 35.5859 14.3906 33.6016 14.3906C31.6172 14.3906 30.3203 14.2474 29.7109 13.9609M5.71094 13.9609C5.10156 13.6745 4.79688 13.0182 4.79688 11.9922C4.79688 10.9661 5.10156 10.3099 5.71094 10.0234C6.32031 9.73698 7.61719 9.59375 9.60156 9.59375C11.5859 9.59375 12.8828 9.73698 13.4922 10.0234C14.1016 10.3099 14.4063 10.9661 14.4063 11.9922C14.4063 13.0182 14.1016 13.6745 13.4922 13.9609C12.8828 14.2474 11.5859 14.3906 9.60156 14.3906C7.61719 14.3906 6.32031 14.2474 5.71094 13.9609M9.83594 3.6875C9.67448 3.39583 9.59375 2.96354 9.59375 2.39063C9.59375 1.81771 9.67448 1.38802 9.83594 1.10156C9.9974 0.815104 10.5417 0.575521 11.4688 0.382813C12.3958 0.190104 13.5651 0.078125 14.9766 0.046875C16.388 0.015625 18.5964 0 21.6016 0C24.6068 0 26.8125 0.015625 28.2188 0.046875C29.625 0.078125 30.7943 0.190104 31.7266 0.382813C32.6589 0.575521 33.2031 0.815104 33.3594 1.10156C33.5156 1.38802 33.5938 1.81771 33.5938 2.39063C33.5938 2.96354 33.5156 3.39583 33.3594 3.6875C33.2031 3.97917 32.6589 4.22135 31.7266 4.41406C30.7943 4.60677 29.625 4.71875 28.2188 4.75C26.8125 4.78125 24.6068 4.79688 21.6016 4.79688C18.5964 4.79688 16.388 4.78125 14.9766 4.75C13.5651 4.71875 12.3958 4.60677 11.4688 4.41406C10.5417 4.22135 9.9974 3.97917 9.83594 3.6875M72.8984 98.7734C72.2891 98.487 71.9844 97.8307 71.9844 96.8047C71.9844 95.7786 72.2891 95.1224 72.8984 94.8359C73.5078 94.5495 74.8047 94.4063 76.7891 94.4063C78.7734 94.4063 80.0677 94.5495 80.6719 94.8359C81.276 95.1224 81.5781 95.7786 81.5781 96.8047C81.5781 97.8307 81.276 98.487 80.6719 98.7734C80.0677 99.0599 78.7734 99.2031 76.7891 99.2031C74.8047 99.2031 73.5078 99.0599 72.8984 98.7734M53.6953 98.7734C53.0859 98.487 52.7813 97.8307 52.7813 96.8047C52.7813 95.7786 53.0859 95.1224 53.6953 94.8359C54.3047 94.5495 55.6016 94.4063 57.5859 94.4063C59.5703 94.4063 60.8672 94.5495 61.4766 94.8359C62.0859 95.1224 62.3906 95.7786 62.3906 96.8047C62.3906 97.8307 62.0859 98.487 61.4766 98.7734C60.8672 99.0599 59.5703 99.2031 57.5859 99.2031C55.6016 99.2031 54.3047 99.0599 53.6953 98.7734M47.9844 87.2031C47.9844 86.2448 48.4635 85.6354 49.4219 85.375C50.9635 84.9896 56.8854 84.7969 67.1875 84.7969C78.2604 84.7969 84.3698 85.0885 85.5156 85.6719C86.0885 85.9219 86.375 86.4323 86.375 87.2031C86.375 88.1615 85.8958 88.7708 84.9375 89.0313C83.4063 89.4063 77.4896 89.5938 67.1875 89.5938C56.1146 89.5938 50 89.3073 48.8438 88.7344C48.2708 88.4844 47.9844 87.974 47.9844 87.2031M77.6953 79.5703C77.0859 79.2839 76.7813 78.6276 76.7813 77.6016C76.7813 76.5755 77.0859 75.9193 77.6953 75.6328C78.3047 75.3464 79.6016 75.2031 81.5859 75.2031C83.5703 75.2031 84.8646 75.3464 85.4688 75.6328C86.0729 75.9193 86.375 76.5755 86.375 77.6016C86.375 78.6276 86.0729 79.2839 85.4688 79.5703C84.8646 79.8568 83.5703 80 81.5859 80C79.6016 80 78.3047 79.8568 77.6953 79.5703M63.2969 79.5703C62.6927 79.2839 62.3906 78.6276 62.3906 77.6016C62.3906 76.5755 62.6927 75.9193 63.2969 75.6328C63.901 75.3464 65.1953 75.2031 67.1797 75.2031C69.1641 75.2031 70.4609 75.3464 71.0703 75.6328C71.6797 75.9193 71.9844 76.5755 71.9844 77.6016C71.9844 78.6276 71.6797 79.2839 71.0703 79.5703C70.4609 79.8568 69.1641 80 67.1797 80C65.1953 80 63.901 79.8568 63.2969 79.5703M48.8984 79.5703C48.2891 79.2839 47.9844 78.6276 47.9844 77.6016C47.9844 76.5755 48.2891 75.9193 48.8984 75.6328C49.5078 75.3464 50.8047 75.2031 52.7891 75.2031C54.7734 75.2031 56.0677 75.3464 56.6719 75.6328C57.276 75.9193 57.5781 76.5755 57.5781 77.6016C57.5781 78.6276 57.276 79.2839 56.6719 79.5703C56.0677 79.8568 54.7734 80 52.7891 80C50.8047 80 49.5078 79.8568 48.8984 79.5703M77.6953 69.9688C77.0859 69.6771 76.7813 69.0208 76.7813 68C76.7813 66.9792 77.0859 66.3255 77.6953 66.0391C78.3047 65.7526 79.6016 65.6094 81.5859 65.6094C83.5703 65.6094 84.8646 65.7526 85.4688 66.0391C86.0729 66.3255 86.375 66.9792 86.375 68C86.375 69.0208 86.0729 69.6771 85.4688 69.9688C84.8646 70.2604 83.5703 70.4063 81.5859 70.4063C79.6016 70.4063 78.3047 70.2604 77.6953 69.9688M63.2969 69.9688C62.6927 69.6771 62.3906 69.0208 62.3906 68C62.3906 66.9792 62.6927 66.3255 63.2969 66.0391C63.901 65.7526 65.1953 65.6094 67.1797 65.6094C69.1641 65.6094 70.4609 65.7526 71.0703 66.0391C71.6797 66.3255 71.9844 66.9792 71.9844 68C71.9844 69.0208 71.6797 69.6771 71.0703 69.9688C70.4609 70.2604 69.1641 70.4063 67.1797 70.4063C65.1953 70.4063 63.901 70.2604 63.2969 69.9688M48.8984 69.9688C48.2891 69.6771 47.9844 69.0208 47.9844 68C47.9844 66.9792 48.2891 66.3255 48.8984 66.0391C49.5078 65.7526 50.8047 65.6094 52.7891 65.6094C54.7734 65.6094 56.0677 65.7526 56.6719 66.0391C57.276 66.3255 57.5781 66.9792 57.5781 68C57.5781 69.0208 57.276 69.6771 56.6719 69.9688C56.0677 70.2604 54.7734 70.4063 52.7891 70.4063C50.8047 70.4063 49.5078 70.2604 48.8984 69.9688M77.6953 60.3672C77.0859 60.0807 76.7813 59.4271 76.7813 58.4063C76.7813 57.3854 77.0859 56.7292 77.6953 56.4375C78.3047 56.1458 79.6016 56 81.5859 56C83.5703 56 84.8646 56.1458 85.4688 56.4375C86.0729 56.7292 86.375 57.3854 86.375 58.4063C86.375 59.4271 86.0729 60.0807 85.4688 60.3672C84.8646 60.6536 83.5703 60.7969 81.5859 60.7969C79.6016 60.7969 78.3047 60.6536 77.6953 60.3672M48.8984 60.3672C48.2891 60.0807 47.9844 59.4271 47.9844 58.4063C47.9844 57.3854 48.2891 56.7292 48.8984 56.4375C49.5078 56.1458 50.8047 56 52.7891 56C54.7734 56 56.0677 56.1458 56.6719 56.4375C57.276 56.7292 57.5781 57.3854 57.5781 58.4063C57.5781 59.4271 57.276 60.0807 56.6719 60.3672C56.0677 60.6536 54.7734 60.7969 52.7891 60.7969C50.8047 60.7969 49.5078 60.6536 48.8984 60.3672M77.6953 50.7734C77.0859 50.487 76.7813 49.8307 76.7813 48.8047C76.7813 47.7786 77.0859 47.1224 77.6953 46.8359C78.3047 46.5495 79.6016 46.4063 81.5859 46.4063C83.5703 46.4063 84.8646 46.5495 85.4688 46.8359C86.0729 47.1224 86.375 47.7786 86.375 48.8047C86.375 49.8307 86.0729 50.487 85.4688 50.7734C84.8646 51.0599 83.5703 51.2031 81.5859 51.2031C79.6016 51.2031 78.3047 51.0599 77.6953 50.7734M48.8984 50.7734C48.2891 50.487 47.9844 49.8307 47.9844 48.8047C47.9844 47.7786 48.2891 47.1224 48.8984 46.8359C49.5078 46.5495 50.8047 46.4063 52.7891 46.4063C54.7734 46.4063 56.0677 46.5495 56.6719 46.8359C57.276 47.1224 57.5781 47.7786 57.5781 48.8047C57.5781 49.8307 57.276 50.487 56.6719 50.7734C56.0677 51.0599 54.7734 51.2031 52.7891 51.2031C50.8047 51.2031 49.5078 51.0599 48.8984 50.7734M77.6953 41.1719C77.0859 40.8802 76.7813 40.224 76.7813 39.2031C76.7813 38.1823 77.0859 37.5286 77.6953 37.2422C78.3047 36.9557 79.6016 36.8125 81.5859 36.8125C83.5703 36.8125 84.8646 36.9557 85.4688 37.2422C86.0729 37.5286 86.375 38.1823 86.375 39.2031C86.375 40.224 86.0729 40.8802 85.4688 41.1719C84.8646 41.4635 83.5703 41.6094 81.5859 41.6094C79.6016 41.6094 78.3047 41.4635 77.6953 41.1719M48.8984 41.1719C48.2891 40.8802 47.9844 40.224 47.9844 39.2031C47.9844 38.1823 48.2891 37.5286 48.8984 37.2422C49.5078 36.9557 50.8047 36.8125 52.7891 36.8125C54.7734 36.8125 56.0677 36.9557 56.6719 37.2422C57.276 37.5286 57.5781 38.1823 57.5781 39.2031C57.5781 40.224 57.276 40.8802 56.6719 41.1719C56.0677 41.4635 54.7734 41.6094 52.7891 41.6094C50.8047 41.6094 49.5078 41.4635 48.8984 41.1719"/><path id="shape7" transform="matrix(0.999999958671576 0 0 0.999999958671576 32.6968714446871 365.281280258387)" fill="#ffffff" fill-rule="evenodd" stroke="#000000" stroke-opacity="0" stroke-width="0" stroke-linecap="square" stroke-linejoin="bevel" d="M20.5313 0.65625L20.9063 0L34.7813 0L35.3438 0.84375L35.7422 1.30078L36 1.54688L36.3164 1.65234L36.8906 1.6875L37.4766 1.71094L37.8281 1.78125L38.168 2.01563L38.7188 2.53125L39.8438 3.65625L40.1953 4.03125L40.6875 4.59375L41.25 5.15625L44.7188 5.15625L45.5625 4.21875L46.3008 3.51563L46.6406 3.28125L46.8867 3.09375L47.3438 2.53125L47.9063 1.78125L49.6875 1.78125L51.1523 1.85156L51.7969 2.0625L51.8337 2.19401L51.8659 2.49479L51.8936 2.96484L51.9167 3.60417L51.9352 4.41276L51.9492 5.39063L51.9587 6.53776L51.9635 7.85417L51.9639 9.33984L51.9596 10.9948L51.9508 12.819L51.9375 14.8125L51.9229 16.8063L51.9102 18.6315L51.8994 20.2881L51.8906 21.776L51.8838 23.0954L51.8789 24.2461L51.876 25.2282L51.875 26.0417L51.876 26.6865L51.8789 27.1628L51.8838 27.4704L51.8906 27.6094L51.7734 27.9375L51.3281 28.2656L50.8008 28.6523L50.4375 29.1563L49.9922 29.7188L49.4063 29.9063L48.8203 29.5547L48.9375 28.5L48.8906 27.3984L48.1875 26.7188L47.3906 25.9922L47.25 24.9375L47.2852 24.4453L47.2031 24.0938L46.793 23.625L45.8438 22.7813L45.5859 22.1953L45.5625 21L45.668 19.7578L45.6094 19.0313L45.3398 18.6094L44.8125 18.2813L44.0859 17.6016L43.9688 16.6875L43.8516 15.6328L43.125 14.9063L42.668 14.625L42.4219 14.3438L42.3164 13.8984L42.2813 13.125L42.1992 12.4453L42.1406 12.0938L41.9648 11.8594L41.5313 11.5313L40.8867 11.0391L40.4531 10.5L40.125 10.043L39.7969 9.79688L39.3867 9.50391L38.8125 8.90625L38.25 8.0625L36.0938 8.0625L35.5313 7.3125L35.0391 6.72656L34.6875 6.46875L34.3359 6.1875L33.8438 5.53125L33.1875 4.6875L31.7813 4.6875L30.1406 4.61719L28.2188 4.59375L26.0625 4.5L24.5625 6.1875L21.0938 6.1875L20.1563 7.03125L17.1094 10.0781L16.7461 10.6523L16.6875 11.3438L16.5703 12.3984L15.8438 12.9375L15.1172 13.7344L15 15.375L14.9063 17.0625L14.25 18L13.7109 18.293L13.4063 18.6094L13.3388 18.9675L13.2863 19.7794L13.2488 21.045L13.2263 22.7644L13.2188 24.9375L13.2188 30.9375L12.75 31.2188L11.9883 31.7813L11.5781 32.1563L11.4023 32.5078L11.3438 33L11.5781 34.4063L12.2813 35.0625L12.7969 35.4961L13.0313 36.2344L13.0613 36.7687L13.0763 37.6594L13.0763 38.9063L13.0613 40.5094L13.0313 42.4688L13.0365 44.5156L13.0521 46.2188L13.0781 47.5781L13.1146 48.5938L13.1615 49.2656L13.2188 49.5938L13.5 50.0156L13.9688 50.3438L14.6719 51.1875L14.7188 52.7813L14.7422 54.375L15.375 55.2188L16.1484 55.9453L16.4063 57L16.5117 57.8672L16.8281 58.4063L17.3789 58.8984L18.1875 59.625L19.0313 60.4688L21.375 60.5625L23.4141 60.5508L24.8438 60.5156L25.7578 60.5977L26.25 60.9375L26.7656 61.6172L27.1875 61.9688L27.668 62.1094L28.3594 62.1563L29.0391 62.1094L29.4844 61.9688L29.8945 61.6172L30.4688 60.9375L30.75 60.4688L36.2813 60.4688L36.75 59.7188L37.2539 59.1328L37.6406 58.875L38.0508 58.6055L38.625 57.9844L39.1758 57.3867L39.5156 57.1875L39.7734 57.0938L40.0781 56.8125L40.3125 56.2852L40.3594 55.4531L40.4297 54.6445L40.7344 54.1875L41.168 53.8594L41.625 53.4375L41.7256 53.3571L41.6836 53.0273L41.7188 51.75L41.5547 50.0859L40.875 49.2188L40.3594 48.8906L40.125 48.4688L40.0547 47.5781L40.0313 45.8438L40.0664 44.1211L39.9844 43.2656L39.6211 42.7617L38.8125 42.0938L38.5313 41.6367L38.4375 40.8281L38.3203 39.9727L37.9688 39.375L37.1484 38.6719L36.375 37.875L35.8594 37.4531L35.25 37.3125L35.0625 37.5L34.5938 37.957L34.3125 38.2031L33.9844 38.2852L33.375 38.25L32.6133 38.0625L32.0156 37.5L31.4883 36.8672L30.9375 36.4688L30.3867 35.8828L30.2344 35.0625L30.457 34.2422L31.0313 33.6563L31.5703 33.2109L32.0625 32.625L32.6484 32.1328L33.4688 31.9688L33.6856 31.9606L33.7969 31.875L34.2539 31.6055L34.4063 31.3594L35.0156 31.1836L36.8438 31.125L39.375 31.125L39.8438 31.6875L40.1719 32.2266L40.4063 32.5313L40.4531 32.5464L40.5531 32.5614L40.7062 32.5762L40.9125 32.591L41.1719 32.6056L41.4844 32.62L41.8501 32.6343L42.2689 32.6485L42.7409 32.6625L43.266 32.6764L43.8443 32.6902L44.4756 32.7038L45.1602 32.7173L45.8978 32.7307L46.6887 32.7439L47.5326 32.757L48.4297 32.7699L49.38 32.7827L50.3833 32.7954L51.4399 32.8079L52.5495 32.8203L53.7123 32.8326L54.9283 32.8447L56.1973 32.8567L57.0385 32.8642L57.5156 32.3438L57.9375 32.1563L58.3359 32.3438L58.7597 32.8791L58.8949 32.8802L60.3234 32.8918L61.8051 32.9032L63.3399 32.9145L64.9278 32.9257L66.5689 32.9367L68.2631 32.9476L70.0104 32.9584L71.8109 32.969L73.6646 32.9795L75.5713 32.9898L77.5313 33L83.25 33L83.5313 32.5313L84.4688 31.5469L85.4063 31.2188L86.0859 31.3594L86.625 31.7813L87.1523 32.3789L87.7969 33.0469L88.3242 33.75L88.5 34.4531L88.4531 35.0742L88.3125 35.5313L88.125 36L82.5 36L81.9375 36.75L81.3984 37.3594L80.9063 37.6875L80.5078 37.9805L80.25 38.4844L80.1094 39.457L80.0625 41.1563L80.0391 42.8555L80.1563 43.8281L80.4375 44.3555L80.9063 44.7188L81.3633 44.9297L81.6094 45.1875L81.6914 46.0313L81.6563 48L81.6797 50.0156L81.9375 51L82.2773 51.3516L82.5469 51.4688L82.8047 51.5742L83.1094 51.8906L83.332 52.8164L83.3438 54.75L83.25 57.2813L83.7188 57.75L84.2344 58.1719L84.6563 58.5L84.9258 59.3555L84.9844 61.3594L84.9844 63.375L85.0781 64.2656L85.3477 64.5938L85.875 64.9219L86.3906 65.25L86.625 65.5781L86.6836 66.4453L86.6719 68.3906L86.707 70.3477L86.9063 71.25L87.1758 71.5313L87.4219 71.625L87.7383 71.8125L88.2188 72.375L89.2969 73.3359L90.2813 72.6563L90.75 72.0938L91.2188 71.7188L91.6758 71.25L91.9219 70.7813L92.0273 69.9141L92.0625 68.25L92.0625 65.625L92.5313 65.25L92.9297 64.9219L93.375 64.5L93.8438 64.125L93.8438 61.5938L93.8086 59.918L93.8906 59.0156L94.1602 58.5586L94.6875 58.2188L95.4141 57.3047L95.5313 55.5L95.6016 53.8125L96.1875 53.25L96.5039 53.1563L96.8906 52.875L97.207 51.9141L97.3125 49.7813L97.3125 47.0625L97.6875 46.7813L98.4258 46.207L98.7656 45.7969L98.8945 45.0352L99 43.4063L98.9648 41.5547L98.8594 40.5L98.6016 39.9023L98.1094 39.4219L97.5586 38.9648L97.125 38.4375L96.7734 37.9922L96.4688 37.7813L95.8359 37.7109L94.5 37.6875L92.7188 37.6875L92.25 36.9375L91.8047 36.3984L91.4063 36.0938L90.7031 35.2969L90.6563 34.0313L90.8672 33.5156L91.3125 33.0938L91.8281 32.6484L92.25 32.0625L92.7188 31.4063L96.2813 31.4063L97.125 32.25L97.875 33.0938L100.594 33.0938L102.316 33.0586L103.172 32.9531L103.652 32.6133L104.25 31.875L104.461 31.6406L104.719 31.5L105.258 31.4297L106.313 31.4063L108.188 31.4063L108.656 32.1563L109.219 32.8125L109.219 35.4375L109.102 37.5703L108.75 38.7188L108.422 39.1523L108.188 39.3281L107.859 39.3867L107.25 39.4688L106.125 39.7031L105.375 40.4063L105.07 40.8281L104.531 41.1563L103.734 42.0938L103.594 43.9688L103.57 45.1289L103.313 45.7969L102.973 46.1133L102.703 46.2188L102.445 46.3359L102.141 46.6875L101.958 47.3229L101.849 48.6042L101.813 50.5313L101.848 52.7109L101.766 53.8125L101.496 54.3047L100.969 54.6563L100.313 55.5L100.219 57.2813L100.242 58.3008L100.125 58.9219L99.8203 59.3203L99.2813 59.6719L98.7656 59.9883L98.5313 60.2813L98.4609 60.9141L98.4375 62.25L98.4023 63.3984L98.2969 64.0313L98.0039 64.4063L97.4063 64.7813L96.7969 65.7188L96.6563 67.5938L96.6328 68.8008L96.375 69.4219L96.0469 69.668L95.8125 69.75L95.5898 69.8438L95.2969 70.125L95.0391 70.875L94.9219 72.375L94.9336 73.9219L95.0625 74.8125L95.0391 75.7031L94.4063 76.3125L93.4688 77.1094L93.2813 78.1875L93.1875 79.1484L92.5313 79.7813L91.9922 80.168L91.6875 80.7656L91.5703 81.9727L91.5938 84.1875L91.5586 86.6836L91.4531 87.6094L91.207 87.832L90.75 88.2188L90.1523 88.6758L89.8594 89.1094L89.7773 89.7305L89.8125 90.75L89.7891 92.3906L89.1563 93.1875L88.4297 93.8203L88.125 94.9688L87.9609 95.918L87.4688 96.5156L86.8828 96.9961L86.4375 97.5938L85.9688 98.1563L84.1875 98.1563L82.6523 98.0508L81.9844 97.7344L81.832 96.6445L81.8438 94.2188L81.8789 91.9453L81.7969 90.75L81.5039 90.1875L80.9063 89.8125L80.5195 89.5313L80.2969 89.25L80.2148 88.418L80.25 86.4844L80.2266 84.5039L79.9688 83.5313L79.6289 83.1797L79.3594 83.0625L79.1016 82.957L78.7969 82.6406L78.5742 81.7617L78.5625 79.9688L78.6094 78.1758L78.5625 77.2969L78.3164 76.8633L77.7656 76.4063L77.2031 75.9727L76.9219 75.6094L76.8633 74.7773L76.9688 72.9375L77.0039 71.332L76.9219 70.4531L76.6289 69.9727L76.0313 69.5625L75.2813 69.1875L75.2813 66.375L75.2109 64.1836L75 63.2344L74.7305 62.9883L74.4844 62.9063L74.2266 62.8242L73.9219 62.5781L73.6992 61.7227L73.6875 59.8125L73.7227 58.1133L73.6406 57.1406L73.3711 56.5898L72.8438 56.1563L72.3516 55.7344L72 55.2188L71.6719 54.75L71.25 54.4688L70.4531 54.3984L69.9375 54.9375L69.8672 55.7813L69.8203 59.7188L69.75 60.5625L69.5391 60.8438L69.0938 61.125L68.625 61.418L68.3438 61.7344L68.2031 62.8242L68.1563 65.4375L68.1563 68.9063L67.6875 69.1875L66.8789 69.832L66.5156 70.2656L66.4336 70.8633L66.4688 72L66.3633 73.4883L66.0469 74.2031L65.5898 74.5664L65.0625 75L64.5938 75.4688L64.6875 78.0938L64.6641 80.0625L64.4063 80.9063L63.9844 81.2578L63.4688 81.75L62.9063 82.2188L63 85.6875L62.9766 87.8203L62.9063 88.9688L62.7188 89.4609L62.3438 89.625L62.0391 89.7305L61.6875 90.0469L61.4063 90.8086L61.3125 92.25L61.2773 93.4805L61.1719 94.1719L60.9258 94.5352L60.4688 94.7813L60.082 95.0156L59.6719 95.5313L59.2383 96.082L58.7813 96.4219L58.2891 96.7617L57.75 97.3125L57.4219 97.7578L57.1875 97.9688L56.8594 98.0156L56.25 97.9688L55.4297 97.7813L54.8438 97.2188L54.3984 96.6328L54 96.375L53.4844 96.0469L53.25 95.625L53.2031 94.7578L53.25 93.0938L53.2383 91.0195L53.0156 90.0469L52.7227 89.7305L52.5 89.625L51.7969 89.2031L51.5625 87.9375L51.3516 86.6719L50.7188 86.25L50.5078 86.168L50.25 85.9219L50.0938 85.2604L50 83.7135L49.9688 81.2813L50.0625 76.9688L49.5 76.5L48.9844 76.0664L48.5625 75.7031L48.3047 75.0352L48.2813 73.6875L48.3164 72.5391L48.2344 71.9063L47.918 71.5078L47.25 71.0625L46.8867 70.7344L46.7344 70.5L46.6992 70.1719L46.6875 69.5625L46.6406 68.8008L46.5 68.3906L46.1484 68.0508L45.4688 67.5L44.9063 67.0313L45 63.5625L45.0469 60.9023L45 59.8594L44.7927 59.6417L44.625 59.8828L44.25 60.1875L43.8633 60.4922L43.4531 61.0313L43.0078 61.5938L42.5156 61.9688L42.0586 62.3086L41.7188 62.7656L41.3672 63.2344L40.875 63.6094L40.3359 64.0195L39.8438 64.5938L39.4688 65.25L36.75 65.25L34.0313 65.1563L33.1875 66L32.4375 66.9375L25.5938 66.75L18.75 66.6563L18.375 66.0938L18.0117 65.5547L17.6719 65.25L17.2383 65.1094L16.5938 65.0625L15.75 64.9688L15.2813 64.6875L14.8242 64.1602L14.0156 63.3281L13.2773 62.5547L13.0313 62.2031L12.9023 62.0273L12.5156 61.7813L12.0234 61.4063L11.5781 60.8438L11.168 60.3047L10.3945 59.6953L9.98438 59.1563L9.58594 58.6406L9.23438 58.4063L8.83594 58.125L8.29688 57.4688L7.78125 56.8359L7.45313 56.625L7.19531 56.543L6.89063 56.2969L6.69141 55.8398L6.75 55.125L6.63281 53.9063L5.90625 53.25L5.44922 53.0039L5.01563 52.4531L4.61719 51.9023L4.26563 51.6563L3.9375 51.5039L3.60938 51.2344L3.38672 50.543L3.375 49.125L3.46875 47.4375L3 46.9688L2.54297 46.5469L2.10938 46.2188L1.80469 45.5625L1.73438 44.1563L1.73438 42.7383L1.64063 42.0469L1.34766 41.7305L0.75 41.4375L0.046875 40.8281L0 39.9375L0.0410156 39.4395L0.0703125 38.3203L0.0878906 36.5801L0.09375 34.2188L0.102539 32.2881L0.128906 30.8086L0.172852 29.7803L0.234375 29.2031L0.503906 28.6289L1.03125 28.3125L1.6875 27.7266L1.78125 26.5313L1.96875 25.4766L2.71875 24.9375L3.44531 24.1406L3.5625 22.3125L3.51563 21.1289L3.5625 20.5781L3.79688 20.3086L4.3125 19.9688L5.0625 19.0078L5.25 17.25L5.41406 15.6797L6.09375 14.9063L6.82031 14.3672L6.9375 13.3125L7.03125 12.1641L7.6875 11.5313L8.14453 11.2266L8.57813 10.6875L9 10.1602L9.42188 9.89063L9.84375 9.60938L10.2656 9.04688L10.6172 8.51953L10.8281 8.34375L11.5078 7.78125L13.2656 6.09375L14.9883 4.37109L15.5625 3.70313L15.7031 3.52734L16.125 3.28125L16.6641 2.90625L17.1563 2.34375L17.7188 1.85156L18.4688 1.6875L19.6406 1.42969L20.5313 0.65625M60.1737 37.5L60.0469 38.0156L59.6367 38.332L58.875 38.4375L57.9141 38.2266L57.2813 37.5938L56.6016 36.7266L55.875 36.75L55.5703 37.0547L55.2188 37.5938L54.7734 38.1563L54.1875 38.5313L53.6602 38.8477L53.3906 39.2344L53.332 39.7852L53.4375 40.5938L53.5547 41.5313L53.5313 42.0938L53.5134 42.2756L53.4975 42.6713L53.4834 43.2806L53.4712 44.1038L53.4609 45.1406L53.4525 46.3912L53.4459 47.8556L53.4412 49.5337L53.4384 51.4256L53.438 52.4634L53.4961 52.5703L54.0938 53.0625L54.8438 53.3438L54.75 55.2188L54.7266 56.4727L54.8438 57.2344L55.1484 57.6914L55.6875 58.0313L56.1328 58.4297L56.3438 59.0625L56.3958 59.8229L56.4271 61.1042L56.4375 62.9063L56.401 64.8177L56.4167 66.1771L56.4844 66.9844L56.7539 67.6758L57.2813 68.1563L57.7383 68.4727L57.9844 68.8594L58.0664 69.5039L58.0313 70.5938L58.1484 72.2109L58.875 73.125L59.3203 73.5L59.7188 74.0625L60.7266 74.9297L61.875 73.9688L62.2852 73.418L62.7656 73.0781L63.1758 72.7969L63.375 72.4219L63.4688 71.2617L63.5625 68.625L63.5625 65.3438L64.3125 64.875L64.8516 64.4063L65.1563 63.9375L65.2734 63L65.25 61.125L65.2734 59.2852L65.5313 58.4531L65.9531 58.0898L66.4688 57.6563L67.0313 57.1875L66.9375 54.75L66.9023 52.8984L66.9844 52.0313L67.2422 51.6797L67.7344 51.375L68.2266 51.0938L68.4844 50.8125L68.5518 50.3496L68.6133 49.2422L68.6689 47.4902L68.7188 45.0938L68.7188 39.75L68.0625 39.375L67.418 38.8828L66.9844 38.3438L66.6563 37.8867L66.3281 37.6406L65.2148 37.5352L62.5313 37.5L60.1737 37.5"/><path id="shape8" transform="matrix(0.999999958671576 0 0 0.999999958671576 185.57578618689 348.68752971728)" fill="#ffffff" fill-rule="evenodd" stroke="#000000" stroke-opacity="0" stroke-width="0" stroke-linecap="square" stroke-linejoin="bevel" d="M46.9336 80.9063L45.3398 79.125L45.3361 77.9494L45.3998 76.7475L45.5311 75.5194L45.7298 74.265L45.9961 72.9844L46.2698 71.6925L46.4911 70.4044L46.6598 69.12L46.7761 67.8394L46.8398 66.5625L45.7924 67.3304L44.7334 68.0509L43.6628 68.724L42.5806 69.3495L41.4868 69.9277L40.3815 70.4583L39.2646 70.9416L38.1361 71.3773L36.9961 71.7656L35.8491 72.1076L34.6998 72.4045L33.5482 72.6563L32.3942 72.8628L31.238 73.0243L30.0794 73.1406L28.9185 73.2118L27.7554 73.2378L26.5898 73.2188L25.5225 73.1348L24.458 73.0331L23.3963 72.9136L22.3373 72.7763L21.2813 72.6211L20.228 72.4481L19.1775 72.2573L18.1298 72.0487L17.085 71.8223L16.043 71.5781L14.5975 71.162L13.2343 70.6368L11.9534 70.0026L10.7547 69.2592L9.63831 68.4069L8.60419 67.4455L7.65234 66.375L6.99186 65.429L6.35417 64.4661L5.73926 63.4863L5.14714 62.4896L4.5778 61.4759L4.03125 60.4453L3.50749 59.3978L3.00651 58.3333L2.52832 57.252L2.07292 56.1536L1.6403 55.0384L1.23047 53.9063L0.912628 52.9228L0.64214 51.9279L0.419005 50.9216L0.243224 49.9037L0.114796 48.8744L0.0337213 47.8335L0 46.7813L0.013632 45.7175L0.0746173 44.6422L0.182956 43.5555L0.338648 42.4573L0.541693 41.3476L0.792092 40.2264L1.08984 39.0938L1.33228 37.832L1.59082 36.6013L1.86548 35.4018L2.15625 34.2334L2.46313 33.0961L2.78613 31.99L3.12524 30.915L3.48047 29.8711L3.85181 28.8583L4.23926 27.8767L4.64282 26.9262L5.0625 26.0068L5.49829 25.1186L5.9502 24.2615L6.41821 23.4355L6.90234 22.6406L7.71328 21.4092L8.57109 20.2087L9.47578 19.0392L10.4273 17.9006L11.4258 16.793L12.4711 15.7162L13.5633 14.6705L14.7023 13.6556L15.8883 12.6717L17.1211 11.7188L18.0814 10.8714L19.056 10.0794L20.0449 9.34277L21.0482 8.66146L22.0658 8.03548L23.0977 7.46484L24.1439 6.94954L25.2044 6.48958L26.2793 6.08496L27.3685 5.73568L28.472 5.44173L29.5898 5.20313L30.7116 4.99707L31.8268 4.80078L32.9355 4.61426L34.0378 4.4375L35.1335 4.27051L36.2227 4.11328L37.3053 3.96582L38.3815 3.82813L39.4512 3.7002L40.5143 3.58203L41.571 3.47363L42.6211 3.375L51.2461 3.375L52.5305 3.7275L53.8336 4.035L55.1555 4.2975L56.4961 4.515L57.8555 4.6875L59.4756 5.00977L60.9141 5.60156L62.1709 6.46289L63.2461 7.59375L64.0664 5.83594L64.6523 3.9375L65.4023 2.10938L66.7148 0.5625L67.418 0.257813L68.0273 0.09375L68.6602 0.0234375L69.4336 0L69.9609 0.292969L70.418 0.796875L70.7578 1.39453L70.9336 1.96875L70.4648 3.75L70.0742 4.79398L69.694 5.84259L69.3242 6.89583L68.9648 7.9537L68.6159 9.0162L68.2773 10.0833L67.9492 11.1551L67.6315 12.2315L67.3242 13.3125L67.0123 14.3935L66.6807 15.4699L66.3294 16.5417L65.9585 17.6088L65.5679 18.6713L65.1576 19.7292L64.7276 20.7824L64.2779 21.831L63.8086 22.875L63.2344 23.1797L62.6367 23.3438L61.9688 23.4141L61.1836 23.4375L60.7148 23.1563L60.2461 22.6875L59.8945 22.1016L59.7773 21.4688L59.8037 20.1094L59.7891 18.75L59.7334 17.3906L59.6367 16.0313L59.4463 14.707L59.1094 13.4531L58.626 12.2695L57.9961 11.1563L56.6576 10.6458L55.2669 10.2396L53.8242 9.9375L52.3607 9.66667L50.9076 9.35417L49.4648 9L41.4023 9L40.3277 9.07709L39.2515 9.172L38.1738 9.28474L37.0945 9.41529L36.0137 9.56366L34.9313 9.72986L33.8473 9.91387L32.7618 10.1157L31.6748 10.3354L30.5862 10.5728L29.4961 10.8281L28.3064 11.153L27.1373 11.5462L25.9889 12.008L24.8611 12.5381L23.7539 13.1367L22.6673 13.8037L21.6014 14.5392L20.5561 15.3431L19.5314 16.2155L18.5273 17.1563L17.3526 18.1325L16.2449 19.1447L15.2044 20.1927L14.231 21.2766L13.3248 22.3964L12.4857 23.5521L11.7137 24.7436L11.0088 25.9711L10.3711 27.2344L9.98844 28.0755L9.61727 28.9515L9.25757 29.8625L8.90936 30.8084L8.57262 31.7891L8.24737 32.8048L7.93359 33.8555L7.6313 34.941L7.34048 36.0615L7.06114 37.2168L6.79329 38.4071L6.53691 39.6323L6.29201 40.8925L6.05859 42.1875L5.96446 43.3218L5.92068 44.4406L5.92727 45.5439L5.98421 46.6317L6.09152 47.704L6.24919 48.7608L6.45722 49.8022L6.71562 50.828L7.02437 51.8383L7.38349 52.8332L7.79297 53.8125L8.33637 54.9896L8.90408 56.1458L9.49609 57.2813L10.1124 58.3958L10.753 59.4896L11.418 60.5625L12.1072 61.6146L12.8207 62.6458L13.5586 63.6563L14.6472 64.2962L15.7703 64.8769L16.9279 65.3983L18.1198 65.8603L19.3462 66.2631L20.6071 66.6065L21.9023 66.8906L23.0552 67.0964L24.2168 67.2686L25.3872 67.407L26.5664 67.5117L27.7544 67.5828L28.9512 67.6201L30.1567 67.6238L31.3711 67.5938L32.5166 67.4238L33.6563 67.1953L34.79 66.9082L35.918 66.5625L37.04 66.1582L38.1563 65.6953L39.2666 65.1738L40.3711 64.5938L48.9961 59.8125L51.6211 49.7813L51.6211 49.0313L44.9648 49.0313L34.8398 49.7813L32.8711 48.8438L32.4258 48.2227L32.2148 47.4844L32.2617 46.6523L32.5898 45.75L32.9883 45.1172L33.6211 44.5313L34.3242 44.0625L34.9336 43.7813L36.5273 43.7813L36.9961 44.1563L46.1836 43.4063L66.9961 43.4063L67.5234 43.6875L67.9805 44.1563L68.3438 44.7188L68.5898 45.2813L68.2148 46.875L67.6992 47.4492L67.0898 48.0469L66.4336 48.5508L65.7773 48.8438L64.7461 49.0313L57.4336 49.0313L54.9023 58.4063L52.4648 67.7813L52.3066 69.1494L52.1133 70.5352L51.8848 71.9385L51.6211 73.3594L51.3633 74.7803L51.1523 76.1836L50.9883 77.5693L50.8711 78.9375L50.4844 79.5L49.8867 80.0625L49.1719 80.5547L48.4336 80.9063L46.9336 80.9063M61.7773 121.906L60.1836 120.406L60.1441 119.423L60.1053 118.44L60.067 117.457L60.0293 116.473L59.9923 115.489L59.9558 114.505L59.9199 113.521L59.8847 112.537L59.85 111.553L59.816 110.568L59.7826 109.583L59.7497 108.598L59.7175 107.613L59.6858 106.628L59.6548 105.643L59.6244 104.657L59.5945 103.671L59.5653 102.685L59.5367 101.699L59.5087 100.713L59.4812 99.7262L59.4544 98.7396L59.4282 97.7528L59.4026 96.7658L59.3776 95.7786L59.3532 94.7912L59.3294 93.8037L59.3062 92.816L59.2836 91.8282L59.2616 90.8401L59.2402 89.8519L59.2194 88.8636L59.1992 87.875L59.1796 86.9141L59.1595 85.9507L59.1388 84.9846L59.1175 84.016L59.0956 83.0448L59.0732 82.0709L59.0502 81.0945L59.0266 80.1155L59.0025 79.1339L58.9778 78.1497L58.9526 77.1628L58.9267 76.1734L58.9003 75.1814L58.8734 74.1869L58.8458 73.1897L58.8177 72.1899L58.7891 71.1875L58.7598 70.1825L58.73 69.175L58.6997 68.1648L58.6687 67.152L58.6372 66.1367L58.6051 65.1187L58.5725 64.0982L58.5393 63.075L58.5055 62.0493L58.4712 61.021L58.4362 59.9901L58.4008 58.9565L58.3647 57.9204L58.3281 56.8817L58.2909 55.8404L58.2532 54.7965L58.2148 53.75L58.6133 53.1875L59.2461 52.625L59.9492 52.1563L60.5586 51.875L62.9023 51.875L63.4414 52.1563L63.9336 52.625L64.3086 53.1875L64.4961 53.75L64.1211 55.3438L63.7461 56.0938L63.8011 57.1681L63.8551 58.2386L63.9081 59.305L63.9601 60.3674L64.011 61.4259L64.0609 62.4803L64.1098 63.5308L64.1576 64.5773L64.2044 65.6198L64.2502 66.6583L64.295 67.6928L64.3387 68.7234L64.3814 69.7499L64.423 70.7725L64.4637 71.7911L64.5033 72.8057L64.5419 73.8163L64.5794 74.8229L64.6159 75.8256L64.6514 76.8242L64.6859 77.8189L64.7193 78.8095L64.7518 79.7962L64.7831 80.7789L64.8135 81.7577L64.8428 82.7324L64.8711 83.7031L64.8997 84.7091L64.9277 85.7149L64.9551 86.7205L64.982 87.7261L65.0084 88.7314L65.0342 89.7367L65.0594 90.7418L65.0841 91.7468L65.1082 92.7516L65.1318 93.7563L65.1548 94.7608L65.1773 95.7653L65.1992 96.7695L65.2206 97.7737L65.2414 98.7777L65.2616 99.7815L65.2813 100.785L65.3005 101.789L65.319 102.792L65.3371 103.796L65.3545 104.799L65.3715 105.802L65.3878 106.805L65.4036 107.807L65.4189 108.81L65.4336 109.813L65.9143 108.765L66.4017 107.721L66.8959 106.679L67.3969 105.639L67.9047 104.602L68.4193 103.568L68.9406 102.536L69.4687 101.507L70.0036 100.48L70.5453 99.4554L71.0938 98.4336L71.649 97.4143L72.211 96.3974L72.7798 95.3831L73.3554 94.3714L73.9377 93.3621L74.5269 92.3553L75.1228 91.3511L75.7255 90.3494L76.3349 89.3502L76.9512 88.3535L77.5742 87.3594L78.2674 86.2696L78.9688 85.1848L79.6783 84.105L80.3961 83.03L81.1221 81.96L81.8563 80.8948L82.5986 79.8346L83.3492 78.7794L84.108 77.729L84.875 76.6836L85.6502 75.6431L86.4336 74.6075L87.2252 73.5768L88.025 72.5511L88.833 71.5303L89.6492 70.5144L90.4736 69.5034L91.3063 68.4973L92.1471 67.4962L92.9961 66.5L93.6523 66.1953L94.3086 66.0313L94.9883 65.9609L95.7148 65.9375L96.1836 66.2188L96.6523 66.6875L97.0273 67.25L97.2148 67.8125L97.3353 68.8213L97.46 69.8345L97.5888 70.8521L97.7218 71.8741L97.8589 72.9006L98.0002 73.9314L98.1456 74.9667L98.2952 76.0064L98.4489 77.0505L98.6068 78.099L98.7689 79.152L98.9351 80.2093L99.1054 81.2711L99.2799 82.3373L99.4586 83.4079L99.6414 84.4829L99.8284 85.5623L100.02 86.6461L100.215 87.7344L100.4 88.7695L100.58 89.803L100.754 90.8348L100.924 91.865L101.088 92.8936L101.247 93.9205L101.401 94.9457L101.55 95.9694L101.694 96.9914L101.832 98.0117L101.965 99.0304L102.094 100.047L102.217 101.063L102.335 102.077L102.447 103.089L102.555 104.099L102.657 105.108L102.755 106.115L102.847 107.121L102.934 108.125L103.549 107.211L104.165 106.291L104.779 105.364L105.393 104.431L106.006 103.492L106.619 102.547L107.231 101.595L107.843 100.636L108.454 99.6719L109.064 98.701L109.674 97.7237L110.283 96.7401L110.892 95.7502L111.5 94.7539L112.107 93.7513L112.714 92.7423L113.32 91.7271L113.926 90.7054L114.531 89.6775L115.135 88.6432L115.739 87.6025L116.342 86.5556L116.945 85.5023L117.547 84.4426L118.149 83.3766L118.749 82.3043L119.35 81.2256L119.949 80.1406L120.571 79.0159L121.192 77.8989L121.812 76.7894L122.432 75.6874L123.052 74.5931L123.671 73.5064L124.29 72.4272L124.909 71.3556L125.527 70.2917L126.145 69.2353L126.763 68.1865L127.38 67.1453L127.996 66.1116L128.613 65.0856L129.229 64.0671L129.844 63.0563L130.459 62.053L131.074 61.0573L131.689 60.0692L132.303 59.0887L132.916 58.1157L133.529 57.1504L134.142 56.1926L134.755 55.2425L135.367 54.2999L135.979 53.3649L136.59 52.4375L137.293 52.1328L137.902 51.9688L138.512 51.8984L139.215 51.875L139.813 52.1563L140.293 52.625L140.633 53.1875L140.809 53.75L140.34 55.5313L122.246 86.2813L103.777 117.031L103.883 117.688L103.824 118.344L103.672 119.023L103.496 119.75L103.098 120.383L102.465 120.969L101.762 121.438L101.152 121.719L99.5586 121.719L98.9023 121.414L98.4336 120.875L98.1055 120.172L97.8711 119.375L97.8258 118.386L97.775 117.395L97.7188 116.404L97.6573 115.411L97.5902 114.417L97.5178 113.422L97.4399 112.426L97.3566 111.429L97.2679 110.43L97.1738 109.431L97.0742 108.43L96.9692 107.428L96.8588 106.425L96.743 105.42L96.6217 104.415L96.4951 103.408L96.363 102.4L96.2254 101.391L96.0825 100.381L95.9341 99.3698L95.7803 98.3574L95.6211 97.3438L92.1523 75.6875L91.3814 76.6612L90.6198 77.6392L89.8675 78.6214L89.1245 79.608L88.3907 80.5987L87.6663 81.5938L86.9512 82.593L86.2453 83.5966L85.5488 84.6044L84.8615 85.6165L84.1836 86.6328L83.5149 87.6534L82.8556 88.6783L82.2055 89.7074L81.5648 90.7408L80.9333 91.7784L80.3112 92.8203L79.6983 93.8665L79.0948 94.9169L78.5005 95.9716L77.9155 97.0305L77.3398 98.0938L64.4961 121.344L63.8398 121.648L63.1836 121.813L62.5039 121.883L61.7773 121.906"/><path id="shape0" transform="matrix(0.999999966265095 0 0 0.999999966265095 376.176475123178 402.938879114631)" fill="none" stroke="#ffffff" stroke-width="1.5" stroke-linecap="square" stroke-linejoin="bevel" d="M15.3236 11.8111C31.0415 11.8111 9.24232 46.1487 1.82356 31.3111C-7.71994 12.2241 22.6393 -9.37309 36.3236 4.31114"/><path id="shape1" transform="matrix(0.999999966265095 0 0 0.999999966265095 409.500028968557 419.250017518101)" fill="none" stroke="#ffffff" stroke-width="1.5" stroke-linecap="square" stroke-linejoin="bevel" d="M0 0C0 11.9897 5.7954 34.2276 9.75 10.5C12.1592 -3.95509 18.1107 15.2215 21 21C21.1118 21.2236 21 20.5 21 20.25C21 16.8301 23.2151 3.03488 25.5 0.75"/><path id="shape2" transform="matrix(0.999999966265095 0 0 0.999999966265095 440.638372456407 410.250017142042)" fill="none" stroke="#ffffff" stroke-width="1.5" stroke-linecap="square" stroke-linejoin="bevel" d="M29.6117 0C18.7158 0 -11.7662 7.3721 4.86166 24C22.8972 42.0356 24.4029 2.20874 10.8617 15.75"/>
</svg>
