<?xml version="1.0" standalone="no"?>
<!DOCTYPE svg PUBLIC "-//W3C//DTD SVG 20010904//EN" "http://www.w3.org/TR/2001/REC-SVG-20010904/DTD/svg10.dtd">
<!-- Created using Krita: https://krita.org -->
<svg xmlns="http://www.w3.org/2000/svg" 
    xmlns:xlink="http://www.w3.org/1999/xlink"
    xmlns:krita="http://krita.org/namespaces/svg/krita"
    xmlns:sodipodi="http://sodipodi.sourceforge.net/DTD/sodipodi-0.dtd"
    width="720pt"
    height="720pt"
    viewBox="0 0 720 720">
<defs/>
<rect id="shape0" fill="#ffffff" fill-rule="evenodd" stroke-opacity="0" stroke="#000000" stroke-width="0" stroke-linecap="square" stroke-linejoin="bevel" width="720" height="720"/><path id="shape01" transform="translate(364.712567062078, 22.9456123604211)" fill="none" stroke="#000000" stroke-width="1.5" stroke-linecap="square" stroke-linejoin="bevel" d="M14.7874 2.55439C-4.21475 2.55439 -9.87107 55.7739 28.2874 43.0544C46.4032 37.0158 22.5403 -23.4513 5.78741 10.0544" sodipodi:nodetypes="ccc"/><path id="shape1" transform="translate(293.222208077698, 188.222213169239)" fill="none" stroke="#000000" stroke-width="1.5" stroke-linecap="square" stroke-linejoin="bevel" d="M0.777778 0.0277777C-0.222222 0.0277777 0.0277777 -0.222222 0.0277777 0.777778C0.0277777 29.1633 20.31 57.8314 33.7778 80.2778C45.4181 99.6783 53.9652 115.496 75.0278 126.028C101.654 139.341 137.791 74.1989 141.028 54.7778C143.061 42.5776 157.617 14.4553 151.528 2.27778" sodipodi:nodetypes="cccccc"/><path id="shape2" transform="translate(185.237547435896, 63.5740929447708)" fill="none" stroke="#000000" stroke-width="1.5" stroke-linecap="square" stroke-linejoin="bevel" d="M164.262 11.4259C164.262 -14.785 127.687 11.251 120.012 18.9259C110.473 28.4657 106.628 42.8099 97.5124 51.9259C81.1905 68.2478 68.6144 83.5938 72.0125 114.176C73.9333 131.463 77.9121 142.389 71.2624 160.676C62.9466 183.544 23.7036 178.102 16.5124 199.676C8.70893 223.086 58.2708 228.634 54.0124 249.926C51.0124 264.926 -0.921441 297.94 0.0124435 301.676C4.19742 318.416 68.2624 347.079 68.2624 363.176C68.2624 366.391 60.7396 370.722 59.2624 373.676" sodipodi:nodetypes="cccccccccc"/><path id="shape3" transform="translate(337.499983634335, 73.4999964359218)" fill="none" stroke="#000000" stroke-width="1.5" stroke-linecap="square" stroke-linejoin="bevel" d="M18.75 0C12.914 0 6.68495 3 0 3" sodipodi:nodetypes="cc"/><path id="shape4" transform="translate(344.249983307021, 68.6558862452906)" fill="none" stroke="#000000" stroke-width="1.5" stroke-linecap="square" stroke-linejoin="bevel" d="M0 19.8441C19.0589 19.8441 38.0097 -11.8161 63 4.84411C73.1076 11.5825 48.3449 36.1416 78.75 51.3441C95.4231 59.6806 119.994 52.0879 134.25 66.3441C147.259 79.3527 120.443 99.7872 125.25 104.594C144.08 123.424 203.833 124.009 210 154.844C217.306 191.375 164.069 189.138 156 213.344C149.798 231.95 198.148 249.184 202.5 266.594C210.069 296.869 157.509 310.08 144 330.344C135.664 342.848 210.15 385.844 225 385.844" sodipodi:nodetypes="cccccccccc"/><path id="shape5" transform="translate(283.499986252841, 131.249993635575)" fill="none" stroke="#000000" stroke-width="1.5" stroke-linecap="square" stroke-linejoin="bevel" d="M72 0C61.5878 10.4122 63.5398 28.5841 48.75 34.5C44.5652 36.1739 17.6318 36.3545 16.5 39.75C13.7965 47.8604 20.1245 58.0011 16.5 65.25C11.9388 74.3724 6.31778 69.4322 0 75.75" sodipodi:nodetypes="ccccc"/><path id="shape6" transform="translate(355.499982761499, 130.618536457841)" fill="none" stroke="#000000" stroke-width="1.5" stroke-linecap="square" stroke-linejoin="bevel" d="M0 0.631457C0 -2.13611 14.4873 5.03964 15.75 5.88146C30.6456 15.8118 9.29343 27.1749 23.25 41.1315C35.6814 53.5628 65.9357 47.0672 80.25 61.3815C92.0279 73.1594 80.8232 97.3815 105 97.3815" sodipodi:nodetypes="ccccc"/><path id="shape7" transform="translate(395.891410245884, 224.329626971211)" fill="none" stroke="#000000" stroke-width="1.5" stroke-linecap="square" stroke-linejoin="bevel" d="M0 0C0 2.82843 0 5.65685 0 8.48528C0 40.6384 1.85616 -24.1754 1.85616 16.1751" sodipodi:nodetypes="ccc"/><path id="shape8" transform="translate(348.957197510773, 228.970020302752)" fill="none" stroke="#000000" stroke-width="1.5" stroke-linecap="square" stroke-linejoin="bevel" d="M0 1.4584C0 2.25003 2.45782 14.7569 2.91682 18.429C3.16014 20.3755 0.500675 0 2.78424 0" sodipodi:nodetypes="ccc"/><path id="shape9" transform="translate(336.494440456817, 224.454788980651)" fill="none" stroke="#000000" stroke-width="1.5" stroke-linecap="square" stroke-linejoin="bevel" d="M0 0.935498C2.93408 0.935498 21.309 -0.751312 20.1525 0.405168" sodipodi:nodetypes="cc"/><path id="shape10" transform="translate(388.20162397855, 221.412811490498)" fill="none" stroke="#000000" stroke-width="1.5" stroke-linecap="square" stroke-linejoin="bevel" d="M0 1.06066C5.89953 1.06066 12.5411 0 18.8267 0" sodipodi:nodetypes="cc"/><path id="shape11" transform="translate(366.375010558444, 223.842197138767)" fill="none" stroke="#000000" stroke-width="1.5" stroke-linecap="square" stroke-linejoin="bevel" d="M0.75 0.78281C0.75 -3.10025 1.5 8.52475 1.5 12.4078C1.5 15.8512 5.88044 46.5328 0 46.5328" sodipodi:nodetypes="ccc"/><path id="shape12" transform="translate(368.314261568303, 287.232678045708)" fill="none" stroke="#000000" stroke-width="1.5" stroke-linecap="square" stroke-linejoin="bevel" d="M0 1.53206C0 -1.91508 6.89429 1.53206 10.3414 1.53206" sodipodi:nodetypes="cc"/><path id="shape13" transform="translate(336.749984299848, 284.249986747533)" fill="none" stroke="#000000" stroke-width="1.5" stroke-linecap="square" stroke-linejoin="bevel" d="M0 0C0 13.3466 8.25 26.6393 8.25 40.5" sodipodi:nodetypes="cc"/><path id="shape14" transform="translate(414.606982416323, 272.854833188871)" fill="none" stroke="#000000" stroke-width="1.5" stroke-linecap="square" stroke-linejoin="bevel" d="M6.74028 0C5.18696 13.2583 -4.36898 42.1332 2.393 48.8952C25.1578 71.6599 121.643 76.6148 121.643 129.895" sodipodi:nodetypes="ccc"/><path id="shape15" transform="translate(223.815208139461, 324.749984859319)" fill="none" stroke="#000000" stroke-width="1.5" stroke-linecap="square" stroke-linejoin="bevel" d="M121.185 0C121.185 15.5189 45.2743 44.3745 35.6848 66.75C30.5305 78.7768 25.6938 90.482 19.9348 102C13.011 115.848 -9.97821 322.587 4.93478 337.5" sodipodi:nodetypes="cccc"/><path id="shape16" transform="translate(536.249974998645, 402.749981222758)" fill="none" stroke="#000000" stroke-width="1.5" stroke-linecap="square" stroke-linejoin="bevel" d="M0 0C0.500004 0.250003 1.1646 0.302791 1.50001 0.750008C9.77176 11.779 35.8899 216.551 30.75 242.25C27.7066 257.467 25.5206 266.959 18.75 280.5" sodipodi:nodetypes="cccc"/><path id="shape17" transform="translate(274.499992655929, 434.999988361855)" fill="none" stroke="#000000" stroke-width="1.5" stroke-linecap="square" stroke-linejoin="bevel" d="M12.75 0C10.8096 0 13.2189 21.189 13.5 24C16.8823 57.8233 22.5207 95.312 33 126.75C47.2296 169.439 0 238.841 0 288" sodipodi:nodetypes="cccc"/><path id="shape18" transform="translate(469.886347697376, 425.24998862271)" fill="none" stroke="#000000" stroke-width="1.5" stroke-linecap="square" stroke-linejoin="bevel" d="M24.3636 0C24.3636 45.8978 -6.13371 112.516 1.11364 156C8.119 198.032 41.6136 241.55 41.6136 284.25" sodipodi:nodetypes="ccc"/><path id="shape19" transform="translate(289.689538739204, 283.52619725765)" fill="#ffffff" fill-rule="evenodd" stroke="#000000" stroke-width="1.5" stroke-linecap="square" stroke-linejoin="bevel" d="M16.3104 7.4738C34.4713 -10.6871 47.4982 13.6863 67.3104 9.7238C79.6329 7.25931 91.6058 12.2147 104.06 9.7238C120.765 6.38298 158.598 -7.95084 165.56 5.9738C169.349 13.5507 186.32 29.7037 183.56 35.2238C180.053 42.2384 191.65 55.0446 190.31 57.7238C181.726 74.8929 23.7076 88.3709 6.56046 71.2238C4.26613 68.9295 15.3668 57.5546 16.3104 54.7238C21.3545 39.5917 -19.2493 26.7537 11.8104 11.2238C16.3854 8.9363 19.6412 2.9738 25.3104 2.9738" sodipodi:nodetypes="cccccccccc"/><path id="shape20" transform="translate(303.749991873365, 313.49999161251)" fill="none" stroke="#000000" stroke-width="1.5" stroke-linecap="square" stroke-linejoin="bevel" d="M0 7.5C22.292 7.5 44.0496 19.3626 67.5 13.5C93.0045 7.12386 115.211 0 142.5 0C144.725 0 146.233 0.732701 147.75 2.25" sodipodi:nodetypes="cccc"/><path id="shape21" transform="translate(320.999991411852, 330.749991150997)" fill="none" stroke="#000000" stroke-width="1.5" stroke-linecap="square" stroke-linejoin="bevel" d="M0 12C24.8945 12 102.106 17.8944 120 0" sodipodi:nodetypes="cc"/><path id="shape22" transform="translate(245.249986129475, 56.5004361073524)" fill="#ffffff" fill-rule="evenodd" stroke="#000000" stroke-width="1.5" stroke-linecap="square" stroke-linejoin="bevel" d="M0 124.25C37.0828 124.25 74.1084 119.75 111.75 119.75C134.75 119.75 157.75 119.75 180.75 119.75C196.166 119.75 216.749 117.049 231 122.75C234.82 124.278 239.275 127.983 243.75 125C263.067 112.121 234.769 53.0184 223.5 41.7495C173.109 -8.64186 77.5948 -21.1039 38.25 47.7495C26.1455 68.9325 1.86884 96.8561 11.25 125" sodipodi:nodetypes="cccccccc"/><path id="shape23" transform="translate(251.802701621742, 146.175492004113)" fill="none" stroke="#000000" stroke-width="1.5" stroke-linecap="square" stroke-linejoin="bevel" d="M0.197284 17.3245C-1.38483 15.7424 7.04888 16.5745 7.69728 16.5745C25.006 16.5745 43.0641 12.7852 60.1973 10.5745C100.623 5.35823 150.519 -4.49691 191.447 2.3245C206.312 4.80197 221.033 17.3245 235.697 17.3245" sodipodi:nodetypes="ccccc"/><path id="shape24" transform="translate(319.124999464355, 202.327972421594)" fill="none" stroke="#000000" stroke-width="1.5" stroke-linecap="square" stroke-linejoin="bevel" d="M0 15.3595C15.1488 7.78515 37.9037 17.5014 51.1875 10.8595C67.9232 2.49166 94.6436 -11.0221 103.687 16.1095" sodipodi:nodetypes="ccc"/>
</svg>
