<?xml version="1.0" standalone="no"?>
<!DOCTYPE svg PUBLIC "-//W3C//DTD SVG 20010904//EN" "http://www.w3.org/TR/2001/REC-SVG-20010904/DTD/svg10.dtd">
<!-- Created using Krita: https://krita.org -->
<svg xmlns="http://www.w3.org/2000/svg" 
    xmlns:xlink="http://www.w3.org/1999/xlink"
    xmlns:krita="http://krita.org/namespaces/svg/krita"
    xmlns:sodipodi="http://sodipodi.sourceforge.net/DTD/sodipodi-0.dtd"
    width="480pt"
    height="480pt"
    viewBox="0 0 480 480">
<defs/>
<rect id="shape0" transform="translate(-8.25, -6)" fill="#fdfffc" fill-rule="evenodd" stroke="#000000" stroke-opacity="0" stroke-width="0" stroke-linecap="square" stroke-linejoin="bevel" width="495.75" height="496.5"/><path id="shape01" transform="translate(53.999998354603, -13.4999995886508)" fill="none" stroke="#000000" stroke-width="0.75" stroke-linecap="square" stroke-linejoin="bevel" d="M0 0C2.25 269.642 36.8244 453.824 45.75 509.25"/><path id="shape1" transform="translate(372.74998864219, -9.74999970291449)" fill="none" stroke="#000000" stroke-width="0.75" stroke-linecap="square" stroke-linejoin="bevel" d="M51 0C54.75 267.452 16.0211 482.792 0 517.5"/><path id="shape2" transform="translate(173.249994721018, -11.9999996343562)" fill="none" stroke="#000000" stroke-width="0.75" stroke-linecap="square" stroke-linejoin="bevel" d="M0 0C0 196.736 9.75 347.127 16.5 507.75"/><path id="shape3" transform="translate(290.999991133139, -17.9999994515343)" fill="none" stroke="#000000" stroke-width="0.75" stroke-linecap="square" stroke-linejoin="bevel" d="M21.75 0C21.75 186.39 16.7229 330.548 0 514.5"/><path id="shape4" transform="translate(-32.9999989944797, -5.24999984003085)" fill="none" stroke="#000000" stroke-width="0.75" stroke-linecap="square" stroke-linejoin="bevel" d="M0 0C0 100.237 29.812 535.312 69 551.25"/><path id="shape5" transform="translate(433.499986791119, -28.499999131596)" fill="none" stroke="#000000" stroke-width="0.75" stroke-linecap="square" stroke-linejoin="bevel" d="M54 0C85.9113 31.9113 60.3026 545.395 0 587.25"/><path id="shape6" transform="translate(-40.4999987659523, 69.7499978746956)" fill="none" stroke="#000000" stroke-width="0.75" stroke-linecap="square" stroke-linejoin="bevel" d="M0 5.25C192.916 5.25 388.151 0 582 0"/><path id="shape7" transform="translate(-75.7499976918737, 164.249994995251)" fill="none" stroke="#000000" stroke-width="0.75" stroke-linecap="square" stroke-linejoin="bevel" d="M0 0C206.905 0 415.597 6 623.25 6"/><path id="shape8" transform="translate(-62.9999980803702, 267.749991841573)" fill="none" stroke="#000000" stroke-width="0.75" stroke-linecap="square" stroke-linejoin="bevel" d="M0 0.75C185.8 12.5142 389.967 14.1883 594 0"/><path id="shape9" transform="translate(-36.749998880216, 362.249988962129)" fill="none" stroke="#000000" stroke-width="0.75" stroke-linecap="square" stroke-linejoin="bevel" d="M0 0C39.0746 9.7357 379.282 26.6578 540.75 0"/><path id="shape10" transform="translate(-78.7499976004628, 429.749986905383)" fill="none" stroke="#000000" stroke-width="0.75" stroke-linecap="square" stroke-linejoin="bevel" d="M0 3C45.4733 25.7367 606.792 39.708 646.5 0"/><path id="shape02" transform="translate(71.99999777895, 21.7426401475739)" fill="#f4fbf1" fill-rule="evenodd" stroke="#000000" stroke-width="0.75" stroke-linecap="square" stroke-linejoin="bevel" d="M0 3.75735C11.1389 0.0469528 317.327 -1.31485 337.5 1.50735C338.92 135.481 325.825 294.858 312.75 374.257C300.747 384.759 39.9721 383.257 30 375.757C16.755 305.017 1.91049 131.427 0 3.75735Z"/><path id="shape03" transform="translate(107.683664117696, 40.0989363796489)" fill="#e7e4ce" fill-rule="evenodd" stroke="#564e2e" stroke-width="0.75" stroke-linecap="square" stroke-linejoin="bevel" d="M22.0663 358.901C20.8283 357.663 17.0192 298.963 15.3163 292.151C-1.33946 225.528 1.81634 152.544 1.81634 83.6511C1.81634 67.2391 -5.77018 25.2087 10.0663 14.6511C40.3313 -5.52556 165.576 -1.04695 199.066 5.65107C205.145 6.86674 245.71 5.9391 249.316 13.1511C267.541 49.6011 233.819 247.642 222.316 293.651C218.117 310.449 222.316 333.809 222.316 351.401"/><path id="shape11" transform="translate(359.250021044102, 27.0000015816026)" fill="none" stroke="#000000" stroke-width="0.75" stroke-linecap="square" stroke-linejoin="bevel" d="M42 0C42 92.6905 33.5778 180.197 17.25 270C15.6194 278.968 4.03438 364.966 0 369"/><path id="shape21" transform="translate(336.000019682166, 369.75002165917)" fill="none" stroke="#000000" stroke-width="0.75" stroke-linecap="square" stroke-linejoin="bevel" d="M0 0.75C9.2115 0.75 42.8185 6.68148 49.5 0"/><path id="shape31" transform="translate(333.750019550366, 333.000019506433)" fill="none" stroke="#000000" stroke-width="0.75" stroke-linecap="square" stroke-linejoin="bevel" d="M0 0.75C5.4381 0.75 46.8218 5.67822 52.5 0"/><path id="shape41" transform="translate(345.000020209367, 294.750017265829)" fill="none" stroke="#000000" stroke-width="0.75" stroke-linecap="square" stroke-linejoin="bevel" d="M0 0C16.3826 0 30.7677 4.5 46.5 4.5"/><path id="shape51" transform="translate(354.750020780501, 264.179893188447)" fill="none" stroke="#000000" stroke-width="0.75" stroke-linecap="square" stroke-linejoin="bevel" d="M0 0.570123C0 -0.987832 7.59456 1.11934 9 1.32012C17.8345 2.58219 25.4266 3.57012 35.25 3.57012"/><path id="shape61" transform="translate(360.000021088035, 220.500012916422)" fill="none" stroke="#000000" stroke-width="0.75" stroke-linecap="square" stroke-linejoin="bevel" d="M0 0C12.75 0 25.5 0 38.25 0"/><path id="shape71" transform="translate(362.250021219836, 172.09200321444)" fill="none" stroke="#000000" stroke-width="0.75" stroke-linecap="square" stroke-linejoin="bevel" d="M0 1.90801C0 -1.1794 32.9533 0.408008 38.25 0.408008"/><path id="shape81" transform="translate(365.822418632073, 131.826012618332)" fill="none" stroke="#000000" stroke-width="0.75" stroke-linecap="square" stroke-linejoin="bevel" d="M0.177603 0.923995C-1.28615 -0.539765 6.72913 0.173994 8.42761 0.173994C17.4276 0.173994 26.4276 0.173994 35.4276 0.173994"/><path id="shape91" transform="translate(369.000021615236, 93.0000054477424)" fill="none" stroke="#000000" stroke-width="0.75" stroke-linecap="square" stroke-linejoin="bevel" d="M0 0.75C11.172 0.75 23.1073 0 33.75 0"/><path id="shape101" transform="translate(364.500021351636, 53.8088273486263)" fill="none" stroke="#000000" stroke-width="0.75" stroke-linecap="square" stroke-linejoin="bevel" d="M0 3.19118C0 -1.13352 26.8567 0.191176 32.25 0.191176"/><path id="shape11" transform="translate(360.000021088035, 24.7500014498024)" fill="none" stroke="#000000" stroke-width="0.75" stroke-linecap="square" stroke-linejoin="bevel" d="M1.5 26.25C1.5 17.036 0 9.18055 0 0"/><path id="shape12" transform="translate(302.250017705163, 22.5000013180022)" fill="none" stroke="#000000" stroke-width="0.75" stroke-linecap="square" stroke-linejoin="bevel" d="M4.5 18.75C0.24823 14.4982 3.78225 3.78225 0 0"/><path id="shape13" transform="translate(272.250015947827, 22.5000013180022)" fill="none" stroke="#000000" stroke-width="0.75" stroke-linecap="square" stroke-linejoin="bevel" d="M3.75 15.75C1.93238 13.9324 2.93391 0 0 0"/><path id="shape14" transform="translate(231.750013575423, 22.5000013180022)" fill="none" stroke="#000000" stroke-width="0.75" stroke-linecap="square" stroke-linejoin="bevel" d="M0 15.75C0 10.5 0 5.25 0 0"/><path id="shape15" transform="translate(185.250010851551, 26.2500015376692)" fill="none" stroke="#000000" stroke-width="0.75" stroke-linecap="square" stroke-linejoin="bevel" d="M0 0C0 3.25 0 6.5 0 9.75"/><path id="shape16" transform="translate(141.619919128094, 24.000001405869)" fill="none" stroke="#000000" stroke-width="0.75" stroke-linecap="square" stroke-linejoin="bevel" d="M2.38009 0C-0.813144 0 0.130089 15.5905 0.130089 18.75"/><path id="shape17" transform="translate(106.993372627696, 27.750001625536)" fill="none" stroke="#000000" stroke-width="0.75" stroke-linecap="square" stroke-linejoin="bevel" d="M1.75664 0C-1.6966 0 1.00664 23.2188 1.00664 27"/><path id="shape18" transform="translate(75.0000043933406, 60.3866219384864)" fill="none" stroke="#000000" stroke-width="0.75" stroke-linecap="square" stroke-linejoin="bevel" d="M0 2.61338C3.94886 -1.33548 14.5997 0.363382 20.25 0.363382"/><path id="shape19" transform="translate(75.7500044372741, 93.0000054477424)" fill="none" stroke="#000000" stroke-width="0.75" stroke-linecap="square" stroke-linejoin="bevel" d="M0 5.25C0 0.338617 20.8282 0 25.5 0"/><path id="shape20" transform="translate(78.7500046130077, 132.750007776213)" fill="none" stroke="#000000" stroke-width="0.75" stroke-linecap="square" stroke-linejoin="bevel" d="M0 3C9.43325 3 19.2788 0 28.5 0"/><path id="shape21" transform="translate(80.2500047008746, 173.250010148617)" fill="none" stroke="#000000" stroke-width="0.75" stroke-linecap="square" stroke-linejoin="bevel" d="M0 2.25C8.108 2.25 16.0641 0 24 0"/><path id="shape22" transform="translate(82.5000048326748, 212.250012433154)" fill="none" stroke="#000000" stroke-width="0.75" stroke-linecap="square" stroke-linejoin="bevel" d="M0 3.75C0 1.73371 21.5211 3.22888 24.75 0"/><path id="shape23" transform="translate(88.500005184142, 255.000014937358)" fill="none" stroke="#000000" stroke-width="0.75" stroke-linecap="square" stroke-linejoin="bevel" d="M0 0C8.31093 0 15.8963 1.5 24 1.5"/><path id="shape24" transform="translate(90.7500053159422, 293.250017177962)" fill="none" stroke="#000000" stroke-width="0.75" stroke-linecap="square" stroke-linejoin="bevel" d="M0 0C7.75 0 15.5 0 23.25 0"/><path id="shape25" transform="translate(93.7500054916759, 328.500019242832)" fill="none" stroke="#000000" stroke-width="0.75" stroke-linecap="square" stroke-linejoin="bevel" d="M0 0C7.5725 0 15.1658 0.75 22.5 0.75"/><path id="shape26" transform="translate(99.7500058431431, 371.250021747036)" fill="none" stroke="#000000" stroke-width="0.75" stroke-linecap="square" stroke-linejoin="bevel" d="M0 0C8.21508 0 15.8788 0.75 24 0.75"/><path id="shape04" transform="matrix(0.999999969961513 0 0 0.999999969961513 131.446378746009 73.8480283497074)" fill="#d5b191" stroke="#803f1c" stroke-width="0.75" stroke-linecap="square" stroke-linejoin="bevel" d="M92.8036 4.52697C99.678 -0.628806 117.655 0.0269697 126.554 0.0269697C182.883 0.0269697 198.179 55.3456 198.179 104.277C198.179 113.939 201.913 144.042 194.804 151.152C191.087 151.152 189.932 162.03 187.304 159.402C186.657 158.756 184.55 134.341 183.929 134.652C181.093 136.07 165.585 170.652 164.429 170.652C160.75 170.652 165.426 157.479 162.554 159.777C159.206 162.455 147.407 183.027 143.054 183.027C142.282 183.027 140.723 171.703 138.929 172.152C135.114 173.106 133.679 180.607 133.679 183.777C133.679 183.939 125.776 171.979 123.929 172.902C121.152 174.29 117.206 184.152 115.304 184.152C113.124 184.152 109.726 171.378 105.929 173.277C103.626 174.428 98.5643 185.72 95.4286 184.152C89.9152 181.395 84.7517 170.277 78.5536 170.277C75.5981 170.277 72.7616 185.652 69.9286 185.652C67.513 185.652 41.7212 154.429 38.0536 155.652C34.2043 156.935 36.6739 168.612 32.8036 169.902C26.5602 171.983 16.7821 142.63 15.5536 141.402C15.3043 141.153 14.5613 157.394 14.4286 157.527C12.7381 159.218 4.92019 151.688 3.55363 150.777C-3.78948 143.434 2.25651 120.513 3.92863 112.152C10.702 78.2853 12.6164 34.9393 45.1786 15.402C53.5468 10.3811 82.8909 -5.38576 92.8036 4.52697Z"/><path id="shape01" transform="translate(145.500003916147, 221.250005954966)" fill="none" stroke="#803f1c" stroke-width="1" stroke-linecap="square" stroke-linejoin="bevel" d="M0 0C0 5.73065 5.25 10.6081 5.25 15.75"/><path id="shape12" transform="translate(124.50000335093, 159.750004299687)" fill="none" stroke="#803f1c" stroke-width="1" stroke-linecap="square" stroke-linejoin="bevel" d="M16.5 0C11.0557 8.16639 6.53093 20.4691 0 27"/><path id="shape22" transform="translate(327.000008801238, 150.750004057452)" fill="none" stroke="#803f1c" stroke-width="1" stroke-linecap="square" stroke-linejoin="bevel" d="M0 0C0 7.02978 4.87591 18.3759 9.75 23.25"/><path id="shape32" transform="translate(329.250008861797, 193.500005208072)" fill="none" stroke="#803f1c" stroke-width="1" stroke-linecap="square" stroke-linejoin="bevel" d="M0 0C4.21124 8.42249 10.93 23.8901 6 33.75"/><path id="shape42" transform="translate(225.000006055898, 66.750001796583)" fill="none" stroke="#803f1c" stroke-width="1" stroke-linecap="square" stroke-linejoin="bevel" d="M0 13.5C0 8.22498 15.1282 0 19.5 0"/><path id="shape52" transform="translate(285.75000769099, 80.2500021599369)" fill="none" stroke="#803f1c" stroke-width="1" stroke-linecap="square" stroke-linejoin="bevel" d="M0 0C9.71603 4.85802 21.4255 5.25 32.25 5.25"/><path id="shape62" transform="translate(209.480393149805, 121.975925125203)" fill="none" stroke="#803f1c" stroke-width="1" stroke-linecap="square" stroke-linejoin="bevel" d="M18.5616 0C12.106 0 4.38391 6.75302 0 11.1369"/><path id="shape72" transform="translate(297.515191283647, 164.932663973644)" fill="none" stroke="#803f1c" stroke-width="1" stroke-linecap="square" stroke-linejoin="bevel" d="M0 0C0 1.72867 3.50022 4.56088 4.77297 5.83363"/><path id="shape82" transform="translate(171.750001902731, 165.75000183626)" fill="none" stroke="#803f1c" stroke-width="1" stroke-linecap="square" stroke-linejoin="bevel" d="M3 0C3 3.3524 0 5.84748 0 9"/><path id="shape92" transform="translate(132.052195109504, 215.314020941601)" fill="none" stroke="#803f1c" stroke-width="1" stroke-linecap="square" stroke-linejoin="bevel" d="M0 0C0 4.18298 0.230064 14.0186 3.18198 16.9706"/><path id="shape102" transform="translate(117.749991298011, 136.499989912343)" fill="none" stroke="#803f1c" stroke-width="1" stroke-linecap="square" stroke-linejoin="bevel" d="M37.5 0C37.1698 0 19.4877 18.75 0 18.75"/><path id="shape111" transform="translate(312.749976887072, 126.74999063289)" fill="none" stroke="#803f1c" stroke-width="1" stroke-linecap="square" stroke-linejoin="bevel" d="M0 0C11.2945 0 23.163 4.5 35.25 4.5"/><path id="shape011" transform="matrix(1.0000000317299 0 0 1.0000000317299 137.958373648197 71.5099602722781)" fill="none" stroke="#803f1c" stroke-width="0.75" stroke-linecap="square" stroke-linejoin="bevel" d="M33.0416 24.49C30.6311 22.0795 25.5053 25.24 22.5416 25.24C16.4255 25.24 -4.27824 19.6298 0.791638 9.49005C1.57146 7.93041 4.37939 5.74005 6.04164 5.74005C19.2464 5.74005 12.0416 14.736 12.0416 7.99005C12.0416 -6.81499 25.4723 3.49005 30.7916 3.49005"/><path id="shape05" transform="translate(204.142532464989, 218.250001587146)" fill="#fffaeb" fill-rule="evenodd" stroke="#935a34" stroke-width="0.75" stroke-linecap="square" stroke-linejoin="bevel" d="M50.1075 0C55.02 2.625 67.72 4.49375 72.6075 6.9375C65.5426 56.2944 -8.43073 38.4194 0.794981 6.18751C2.90535 6.70215 16.0502 3.25526 16.7325 3.9375"/><path id="shape012" transform="matrix(0.999999965176548 0 0 0.999999965176548 97.1250012582164 219.937508565546)" fill="#c5b6ce" fill-rule="evenodd" stroke="#65506e" stroke-width="0.75" stroke-linecap="square" stroke-linejoin="bevel" d="M77.8839 55.8341C77.8839 66.4345 80.5602 89.8247 85.5737 99.8515C91.8259 112.356 80.5356 157.84 80.5356 174.097C80.1749 188.192 201.104 187.071 201.45 176.219C201.45 163.288 193.46 145.884 189.253 133.262C186.69 125.57 187.948 114.52 190.385 102.682C194.053 84.8678 200.39 65.2709 200.39 52.6522C202.741 52.6522 209.124 49.8596 208.345 49.4702C212.324 49.4702 226.533 67.1283 229.558 70.1531C248.734 89.3287 267.327 112.321 286.277 131.27C291.046 139.726 294.909 94.6196 293.25 90.5625C247.981 45.2939 233.106 0 164.813 0C189.776 9.09791 168.374 21.3363 154.313 32.625C129.291 30.2955 93.7721 23.609 111.375 3.00001C103.359 3.00001 107.728 3.64613 100.313 3.37501C72.8736 4.18648 65.2436 8.57109 40.875 41.0625C31.7116 53.2804 21.343 68.1906 17.625 83.0625C15.8891 90.006 0 104.183 0 111.187C0 118.192 2.29823 167.015 7.875 161.438C13.4518 155.861 22.1582 138.463 24.75 130.688C29.6065 116.118 52.0849 93.2381 61.4437 80.7597C63.7784 77.6467 73.7694 55.8341 77.8839 55.8341Z"/><path id="shape33" transform="matrix(0.999999965176548 0 0 0.999999965176548 299.106166393589 260.392068621784)" fill="none" stroke="#462156" stroke-width="0.75" stroke-linecap="square" stroke-linejoin="bevel" d="M6.36395 9.0156C6.36404 12.6941 2.60108 2.60108 0 0"/><path id="shape43" transform="matrix(0.999999965176548 0 0 0.999999965176548 293.272535528336 252.437117441893)" fill="none" stroke="#462156" stroke-width="0.75" stroke-linecap="square" stroke-linejoin="bevel" d="M7.95495 16.9706C7.95495 13.9789 2.17985 2.17985 0 0"/><path id="shape53" transform="matrix(0.999999965176548 0 0 0.999999965176548 200.306963191006 219.032484970472)" fill="#9f98a6" stroke="#765c85" stroke-width="0.75" stroke-linecap="square" stroke-linejoin="bevel" d="M13.6812 3.83873C11.3045 2.77321 7.31228 3.11295 6.64492 3.51117C-18.7593 21.9577 35.5135 39.1144 54.7818 35.2608C65.268 33.1635 71.5762 20.4096 74.404 11.9262C77.0526 3.98039 61.3399 -2.20707 61.3399 0.75341C59.1769 0.464781 70.6917 4.77174 70.6917 7.94878C70.6917 17.0251 59.899 25.8079 52.6604 29.4271C43.2408 34.1369 17.9078 26.1046 9.70374 22.0025C5.4308 19.866 -0.561539 8.20453 13.6812 3.83873Z"/><path id="shape13" transform="translate(201.000002120986, 321.000003387247)" fill="none" stroke="#462156" stroke-width="0.75" stroke-linecap="square" stroke-linejoin="bevel" d="M0 1.5C2.09874 -0.598742 5.75957 2.6887 8.25 3C23.0221 4.84652 45.4937 8.87659 60 5.25C64.5248 4.11881 69.8361 0 74.25 0"/><path id="shape23" transform="translate(175.272251896054, 267.816696501687)" fill="none" stroke="#462156" stroke-width="0.75" stroke-linecap="square" stroke-linejoin="bevel" d="M1.0625 0C-0.0921681 2.30934 0.00184354 5.14145 0.00184354 7.68979"/><path id="shape06" transform="matrix(0.999999969787265 0 0 0.999999969787265 215.249998968312 214.342548768294)" fill="#fffaeb" stroke="#87451a" stroke-width="0.75" stroke-linecap="square" stroke-linejoin="bevel" d="M0 22.6575C2.49029 20.1672 2.64418 2.96998 2.81251 2.96998C2.98084 2.96998 42.375 -2.55837 42.375 1.46998C42.375 5.49833 39.4473 15.9797 42.75 19.2825"/><path id="shape013" transform="matrix(0.999999985628201 0 0 0.999999985628201 172.0411464006 178.312507790509)" fill="#fffaeb" stroke="#87451a" stroke-width="0.75" stroke-linecap="square" stroke-linejoin="bevel" d="M6.08386 0C-11.0299 0 13.3964 20.9932 13.3964 15.5625"/><path id="shape14" transform="matrix(0.999999985628201 0 0 0.999999985628201 289.687507584826 174.38439049148)" fill="#fffaeb" stroke="#87451a" stroke-width="0.75" stroke-linecap="square" stroke-linejoin="bevel" d="M4.5 0.36561C4.5 -0.983876 9 1.70185 9 3.55311C9 10.4888 4.08668 12.2164 0 16.3031"/><path id="shape112" transform="translate(174.824685275279, 121.682973853662)" fill="#fffaeb" stroke="#87451a" stroke-width="0.75" stroke-linecap="square" stroke-linejoin="bevel" d="M112.05 21.5671C108.984 21.5671 108.246 41.1215 106.8 42.5671C103.675 45.6921 104.618 32.3396 100.425 30.9421C98.9015 30.4341 96.6753 38.5821 96.6753 39.5671C96.6753 40.4421 96.952 37.7722 96.6753 36.9421C94.5598 30.5954 90.3003 20.7096 90.3003 14.0671C90.3003 11.5546 89.5503 19.0546 89.5503 21.5671C89.5503 25.1848 88.3701 28.9682 87.6753 32.4421C84.8906 46.3658 81.3003 23.9521 81.3003 34.3171C81.3003 36.7052 80.5503 41.4421 80.5503 41.4421C80.5503 41.4421 80.1857 36.5981 79.4253 34.3171C75.7773 23.373 73.6814 14.3231 65.1753 5.81702C62.7679 3.40961 59.8361 0.402068 55.5191 0.00453306C51.7191 -0.139159 48.3928 3.17012 47.1753 4.69202C39.3179 14.5138 35.5503 30.1014 35.5503 42.567C35.5503 43.0689 35.7249 45.192 34.8003 45.192C33.6425 45.192 32.2137 40.3937 31.8003 39.567C25.544 27.0544 31.7861 45.8123 27.6753 44.442C21.8058 42.4855 27.8187 24.2637 23.9253 22.317C16.0436 18.3762 13.0503 42.3704 13.0503 46.317C13.0503 46.4714 13.1496 47.3427 13.0503 47.442C9.74782 50.7445 9.30032 33.942 9.30032 33.942C9.30032 33.942 6.67532 39.817 6.67532 42.942C6.67532 44.6504 4.42062 35.8217 2.92532 37.317C-1.76677 42.0091 3.07974 48.7215 0.675319 46.317C-1.7291 43.9126 3.00845 52.7327 3.67532 56.067C4.94392 62.41 8.08853 67.8067 10.0503 73.692C15.4933 90.0211 41.9609 97.3348 55.4253 104.067C65.4891 109.099 102.596 84.2712 110.175 76.692C117.99 68.8771 120.131 45.9052 122.175 42.192C117.829 34.8426 115.616 21.5671 112.05 21.5671Z"/><path id="shape0" transform="translate(248.625015987189, 176.451408359324)" fill="#ffffff" fill-rule="evenodd" stroke="#7b4424" stroke-width="0.75" stroke-linecap="square" stroke-linejoin="bevel" d="M5.24998 11.0486C5.51515 17.3963 32.4149 9.65698 30.75 2.4236C27.8918 -0.434551 0 -0.705662 0 1.2986"/><path id="shape1" transform="translate(253.968760524155, 176.698108389912)" fill="#b48867" fill-rule="evenodd" stroke="#7b4424" stroke-width="0.75" stroke-linecap="square" stroke-linejoin="bevel" d="M0 0.0206489C0 11.2509 14.625 10.5491 14.625 0.208149C13.875 0.0859953 1.03125 -0.0533144 0 0.0206489Z"/><path id="shape2" transform="translate(193.123082838783, 176.167954633042)" fill="#ffffff" fill-rule="evenodd" stroke="#7b4424" stroke-width="0.75" stroke-linecap="square" stroke-linejoin="bevel" d="M28.1269 12.6446C24.1854 18.5568 -0.249695 9.92122 0.00192958 1.58206C3.30295 -1.71897 25.1165 0.821583 27.3769 3.08206"/><path id="shape3" transform="translate(204.565196886479, 176.295880157106)" fill="#b48867" fill-rule="evenodd" stroke="#7b4424" stroke-width="0.75" stroke-linecap="square" stroke-linejoin="bevel" d="M0.278562 0.0478772C-2.43453 8.18717 15.5598 15.0467 15.7473 2.57912C10.9661 0.611584 5.05416 -0.216412 0.278562 0.0478772Z"/><path id="shape4" transform="translate(232.779763829244, 198.562515090235)" fill="none" stroke="#7b4424" stroke-width="0.75" stroke-linecap="square" stroke-linejoin="bevel" d="M2.15775 0C-0.689773 0 -0.872247 5.4375 2.53275 5.4375"/><path id="shape5" transform="translate(231.507660950403, 210.990792200872)" fill="none" stroke="#7b4424" stroke-width="0.75" stroke-linecap="square" stroke-linejoin="bevel" d="M0.0548566 0.321724C-0.765731 -0.498864 7.88185 0.509224 8.49236 0.509224"/><path id="shape6" transform="translate(243.937502295111, 166.312501564768)" fill="none" stroke="#866042" stroke-width="1.5" stroke-linecap="square" stroke-linejoin="bevel" d="M0 0C13.1213 0 26.5527 4.3125 39.5625 4.3125"/><path id="shape7" transform="translate(193.835649322101, 166.852941387019)" fill="none" stroke="#866042" stroke-width="1.5" stroke-linecap="square" stroke-linejoin="bevel" d="M34.7366 0.466203C32.7159 -1.55455 5.58265 3.64818 0 3.64818"/><path id="shape8" transform="translate(189.562512501772, 177.750011429755)" fill="none" stroke="#7b4424" stroke-width="0.75" stroke-linecap="square" stroke-linejoin="bevel" d="M3.5625 0C3.5625 1.35917 1.38503 1.3125 0 1.3125"/><path id="shape9" transform="translate(190.312512551235, 176.062511611438)" fill="none" stroke="#7b4424" stroke-width="0.75" stroke-linecap="square" stroke-linejoin="bevel" d="M5.0625 0.9375C3.36614 0.9375 1.4401 0.720051 0 0"/><path id="shape10" transform="translate(279.375017964488, 178.125011747461)" fill="none" stroke="#7b4424" stroke-width="0.75" stroke-linecap="square" stroke-linejoin="bevel" d="M0 0.75C0.59729 1.94458 5.61703 0.757975 6.375 0"/><path id="shape11" transform="translate(277.500018301308, 177.187511685632)" fill="none" stroke="#7b4424" stroke-width="0.75" stroke-linecap="square" stroke-linejoin="bevel" d="M0 0.75C0 0.334534 3.31432 0.311591 3.9375 0"/><path id="shape12" transform="translate(195.028882669177, 174.346009999978)" fill="none" stroke="#7b4424" stroke-width="0.75" stroke-linecap="square" stroke-linejoin="bevel" d="M3.44715 1.59099C2.27076 1.59099 0.800857 0.800857 0 0"/><path id="shape13" transform="translate(271.528996429482, 174.743758444364)" fill="none" stroke="#7b4424" stroke-width="0.75" stroke-linecap="square" stroke-linejoin="bevel" d="M0 2.38649C0 1.72536 3.35067 0.626809 3.97748 0"/><path id="shape07" transform="translate(225.217346980332, 382.980687412454)" fill="#e6e6e6" fill-rule="evenodd" stroke="#000000" stroke-width="0.75" stroke-linecap="square" stroke-linejoin="bevel" d="M4.68074 7.07709C-5.27949 6.41418 2.01481 -0.846266 13.8452 0.0818119C28.4292 0.754395 32.0198 7.01931 20.4077 7.01931C8.79547 7.01931 14.641 7.74 4.68074 7.07709Z"/><path id="shape15" transform="translate(226.125006813866, 422.888927192559)" fill="#e6e6e6" fill-rule="evenodd" stroke="#000000" stroke-width="0.75" stroke-linecap="square" stroke-linejoin="bevel" d="M12.75 56.1736C12.75 53.7074 12.2142 36.6736 13.875 36.6736C15.5358 36.6736 15.4393 34.3513 16.5 26.3611C16.8588 -7.00657 0.989938 -10.2597 0 25.6111C0.795495 36.0259 1.875 34.6111 1.875 40.2361C1.875 45.8611 1.875 51.4861 1.875 57.1111C1.875 62.7361 12.75 58.6398 12.75 56.1736Z"/><path id="shape24" transform="translate(228.322884331611, 369.295261220854)" fill="#e6e6e6" fill-rule="evenodd" stroke="#000000" stroke-width="0.75" stroke-linecap="square" stroke-linejoin="bevel" d="M0.249393 33.7556C-1.8096 31.6966 9.33596 -16.6937 16.9271 6.07974C18.2162 9.94704 17.3021 15.4746 17.3021 19.5797C17.3021 24.2957 16.9271 29.2558 16.9271 33.8297"/><path id="shape34" transform="translate(217.875010822138, 450.727813642414)" fill="#e6e6e6" fill-rule="evenodd" stroke="#000000" stroke-width="0.75" stroke-linecap="square" stroke-linejoin="bevel" d="M5.4375 0.0222088C1.12126 1.0658 0 4.39694 0 6.39721C0.1875 10.6715 31.4223 11.8027 32.625 9.3972C37.7814 -0.915614 10.6081 0.0222088 5.4375 0.0222088Z"/><rect id="shape08" transform="translate(-6, -6)" fill="#79536d" fill-opacity="0.188235294117647" fill-rule="evenodd" stroke="#000000" stroke-opacity="0" stroke-width="0" stroke-linecap="square" stroke-linejoin="bevel" width="501" height="495.75"/>
</svg>
