<?xml version="1.0" standalone="no"?>
<!DOCTYPE svg PUBLIC "-//W3C//DTD SVG 20010904//EN" "http://www.w3.org/TR/2001/REC-SVG-20010904/DTD/svg10.dtd">
<!-- Created using Krita: http://krita.org -->
<svg xmlns="http://www.w3.org/2000/svg" 
    xmlns:xlink="http://www.w3.org/1999/xlink"
    xmlns:krita="http://krita.org/namespaces/svg/krita"
    xmlns:sodipodi="http://sodipodi.sourceforge.net/DTD/sodipodi-0.dtd"
    width="576pt"
    height="576pt"
    viewBox="0 0 576 576">
<defs/>
<path id="shape0" transform="translate(251.999997869682, 149.039997920752)" fill="none" stroke="#000000" stroke-width="0.7199989632" stroke-linecap="square" stroke-linejoin="bevel" d="M0 0C0 38.553 32.1182 64.3382 39.6 63.9C45.1703 64.2698 81.9 59.7777 92.16 1.44"/><path id="shape1" transform="translate(299.627692030856, 144.655932802413)" fill="none" stroke="#000000" stroke-width="0.7199989632" stroke-linecap="square" stroke-linejoin="bevel" d="M0 7.92198C5.60029 10.4506 10.1014 8.47156 12.2188 7.41286C16.6246 5.20996 24.2865 -1.77884 28.6923 0.424072C33.5996 2.87771 33.0123 8.21795 33.0123 12.6641"/><path id="shape2" transform="translate(255.824712277963, 138.348808143207)" fill="none" stroke="#000000" stroke-width="0.7199989632" stroke-linecap="square" stroke-linejoin="bevel" d="M32.8953 15.7312C22.2833 15.7312 17.5161 4.44158 9.1353 0.251197C5.40068 -1.61612 -3.15924 7.39665 1.2153 11.7712"/><path id="shape3" transform="translate(289.987811159002, 153.736105870404)" fill="none" stroke="#000000" stroke-width="0.7199989632" stroke-linecap="square" stroke-linejoin="bevel" d="M1.25219 0.343899C-1.30045 -0.932424 0.75929 1.61228 1.25219 3.5839C2.89558 10.1575 -0.748001 28.4239 1.97219 28.4239C3.75968 28.4239 4.49219 26.0873 4.49219 24.4639"/><path id="shape4" transform="translate(336.239999824512, 162.719999869564)" fill="none" stroke="#000000" stroke-width="0.7199989632" stroke-linecap="square" stroke-linejoin="bevel" d="M0 0C27.9207 0 16.3589 15.84 2.16 15.84"/><path id="shape5" transform="translate(242.55612024968, 165.599999867848)" fill="none" stroke="#000000" stroke-width="0.7199989632" stroke-linecap="square" stroke-linejoin="bevel" d="M9.44388 0C-7.12772 0 0.391611 29.9323 14.4839 15.84"/><path id="shape6" transform="translate(305.099998495166, 157.278391746947)" fill="none" stroke="#000000" stroke-width="0.7199989632" stroke-linecap="square" stroke-linejoin="bevel" d="M0 4.7216C3.94903 0.772575 15.8688 -2.44958 20.88 2.5616"/><path id="shape7" transform="translate(306.959379425719, 159.839998765686)" fill="none" stroke="#000000" stroke-width="0.7199989632" stroke-linecap="square" stroke-linejoin="bevel" d="M0.480619 1.62C-1.59958 1.62 3.62042 5.04 5.70062 5.04C11.1298 5.04 15.8725 0 19.0206 0"/><path id="shape8" transform="translate(309.744021505811, 160.379998762601)" fill="none" stroke="#000000" stroke-width="0.7199989632" stroke-linecap="square" stroke-linejoin="bevel" d="M0.395977 0C-1.00886 0 1.65131 3.78 3.27598 3.78"/><path id="shape9" transform="translate(317.519998424193, 157.319998780087)" fill="none" stroke="#000000" stroke-width="0.7199989632" stroke-linecap="square" stroke-linejoin="bevel" d="M0 0C2.96179 0 1.82365 4.83635 0.72 5.94"/><path id="shape10" transform="translate(263.3399987338, 155.021316947147)" fill="none" stroke="#000000" stroke-width="0.7199989632" stroke-linecap="square" stroke-linejoin="bevel" d="M18.18 5.35868C18.1133 1.81763 1.03872 -3.58761 0 3.37868"/><path id="shape11" transform="translate(264.753202144793, 156.396305697377)" fill="none" stroke="#000000" stroke-width="0.7199989632" stroke-linecap="square" stroke-linejoin="bevel" d="M14.2553 2.92742C14.2553 7.02709 0.763675 8.01847 0 0"/><path id="shape12" transform="translate(268.317015853813, 156.650859835717)" fill="none" stroke="#000000" stroke-width="0.7199989632" stroke-linecap="square" stroke-linejoin="bevel" d="M0 0C0 6.44296 5.27784 6.46154 9.54594 4.32749"/><path id="shape13" transform="translate(288.555386143735, 147.486745927626)" fill="none" stroke="#000000" stroke-width="0.7199989632" stroke-linecap="square" stroke-linejoin="bevel" d="M0.16462 6.59326C-0.571377 4.91604 1.39909 2.25488 1.39909 0"/><path id="shape14" transform="translate(297.59122457158, 147.486745927626)" fill="none" stroke="#000000" stroke-width="0.7199989632" stroke-linecap="square" stroke-linejoin="bevel" d="M0 0C0 1.85497 2.80452 3.93909 2.03647 5.09117"/><path id="shape15" transform="translate(290.972714495942, 185.92893390834)" fill="none" stroke="#000000" stroke-width="0.7199989632" stroke-linecap="square" stroke-linejoin="bevel" d="M0 2.28717C0 -1.18747 4.07294 -0.449617 4.07294 2.79629"/><path id="shape16" transform="translate(311.760000924112, 204.120000890844)" fill="none" stroke="#000000" stroke-width="0.7199989632" stroke-linecap="square" stroke-linejoin="bevel" d="M5.76 0C3.16226 0 0 12.0027 0 14.04"/><path id="shape17" transform="translate(274.320000795969, 200.880000879755)" fill="none" stroke="#000000" stroke-width="0.7199989632" stroke-linecap="square" stroke-linejoin="bevel" d="M0 0C2.87268 0 2.4295 15.2105 0.36 17.28"/><path id="shape18" transform="translate(312.480000926576, 215.640000930273)" fill="none" stroke="#000000" stroke-width="0.7199989632" stroke-linecap="square" stroke-linejoin="bevel" d="M0 0C17.8427 0 30.5951 24.84 50.04 24.84"/><path id="shape19" transform="translate(362.147959882225, 240.299128574853)" fill="none" stroke="#000000" stroke-width="0.7199989632" stroke-linecap="square" stroke-linejoin="bevel" d="M0.372041 0.180873C-1.04522 -0.719877 2.01688 2.01722 2.39215 2.39249C6.92574 6.92608 12.4816 10.2597 14.611 16.6478C19.0787 30.0509 20.2112 46.8467 20.2112 61.45"/><path id="shape20" transform="translate(216.387093306306, 212.653717975888)" fill="none" stroke="#000000" stroke-width="0.7199989632" stroke-linecap="square" stroke-linejoin="bevel" d="M54.9846 0C54.9846 18.0539 0 35.087 0 44.2932"/><path id="shape21" transform="translate(196.573245828971, 256.864950030131)" fill="none" stroke="#000000" stroke-width="0.7199989632" stroke-linecap="square" stroke-linejoin="bevel" d="M19.8138 0.0819374C20.2035 -1.08712 17.2683 10.5704 17.2683 14.8463C17.2683 26.0528 14.0603 38.6763 12.1771 49.9754C8.58191 71.5465 -3.48463 97.9277 0.976522 120.234C2.7006 128.854 10.1406 139.417 10.1406 147.726"/><path id="shape22" transform="translate(345.528066980851, 274.903183788751)" fill="none" stroke="#000000" stroke-width="0.7199989632" stroke-linecap="square" stroke-linejoin="bevel" d="M0 0.582778C0 -0.822708 0.825464 0.706356 1.01823 1.0919C5.95644 10.9683 8.63085 20.8509 11.2006 31.1298C16.0542 50.5441 -10.4274 71.6141 5.60029 87.6418"/><path id="shape23" transform="translate(239.806460335948, 308.367675065653)" fill="none" stroke="#000000" stroke-width="0.7199989632" stroke-linecap="square" stroke-linejoin="bevel" d="M0 0C0 23.8751 16.1573 43.7598 11.7097 68.2217C7.09838 93.5839 -5.81823 134.989 6.61852 159.863"/><path id="shape24" transform="translate(271.371717437731, 212.653704333003)" fill="none" stroke="#000000" stroke-width="0.7199989632" stroke-linecap="square" stroke-linejoin="bevel" d="M5.88329e-12 1.36429e-05C-1.4957e-05 3.26726 28.8837 29.7154 29.5288 30.0379C35.4203 32.9837 48.4984 6.37397 45.3114 0"/><path id="shape25" transform="translate(270.343579615568, 216.217522382872)" fill="none" stroke="#000000" stroke-width="0.7199989632" stroke-linecap="square" stroke-linejoin="bevel" d="M0.519009 0.509117C-1.04638 2.0745 1.36374 5.02574 2.04636 6.61852C18.7429 45.577 51.9398 42.0107 51.9398 0"/><path id="shape26" transform="translate(226.060304864673, 252.8739366101)" fill="none" stroke="#000000" stroke-width="0.7199989632" stroke-linecap="square" stroke-linejoin="bevel" d="M0 0C15.2059 30.4119 15.7826 10.8405 15.7826 48.3661"/><path id="shape27" transform="translate(350.705737604302, 240.655131867691)" fill="none" stroke="#000000" stroke-width="0.7199989632" stroke-linecap="square" stroke-linejoin="bevel" d="M7.72495 0C-0.449555 0 -1.49597 38.0701 1.61555 44.2932"/><path id="shape28" transform="translate(251.999997869682, 106.681654587527)" fill="none" stroke="#000000" stroke-width="0.7199989632" stroke-linecap="square" stroke-linejoin="bevel" d="M0 42.3583C6.09314e-06 33.967 6.87699 2.83012 13.68 1.31834C37.374 -3.94698 62.6199 8.76505 84.96 1.31834C86.1067 0.936106 90.3873 -0.0670828 90.72 0.598345C99.4781 18.1146 84.0182 36.1547 92.16 52.4383"/><path id="shape29" transform="translate(236.026881596411, 5.90624984501975)" fill="none" stroke="#000000" stroke-width="0.7199989632" stroke-linecap="square" stroke-linejoin="bevel" d="M17.4131 92.0138C-16.9667 57.634 1.03073 -10.1907 58.4531 1.29375C84.0077 6.40467 86.9822 53.8075 98.0531 70.4138C108.218 85.6609 126.008 89.6667 136.213 104.974C158.414 138.275 143.824 182.734 101.653 182.734"/><path id="shape30" transform="translate(218.554254750997, 101.519999578572)" fill="none" stroke="#000000" stroke-width="0.7199989632" stroke-linecap="square" stroke-linejoin="bevel" d="M31.2857 0C24.5068 6.77892 3.23532 11.3721 1.04574 22.32C-3.25543 43.8258 4.95174 110.298 39.9257 98.64"/><path id="shape31" transform="translate(257.759999422701, 30.597352535194)" fill="none" stroke="#000000" stroke-width="0.7199989632" stroke-linecap="square" stroke-linejoin="bevel" d="M1.44 0.362647C1.44 -2.13955 0 8.68272 0 21.2426C0 37.8656 7.37469 47.3373 18.72 58.6826"/><path id="shape32" transform="translate(281.519999359198, 39.599999744064)" fill="none" stroke="#000000" stroke-width="0.7199989632" stroke-linecap="square" stroke-linejoin="bevel" d="M0 0C0 7.74446 2.54698 38.88 15.12 38.88"/><path id="shape33" transform="translate(305.999999293771, 44.6399997305937)" fill="none" stroke="#000000" stroke-width="0.7199989632" stroke-linecap="square" stroke-linejoin="bevel" d="M0 0C0 11.9355 1.06041 32.0204 10.08 41.04"/><path id="shape34" transform="translate(222.480002840784, 341.280006247462)" fill="none" stroke="#000000" stroke-width="0.7199989632" stroke-linecap="square" stroke-linejoin="bevel" d="M18.72 0C6.68608 36.1018 0.72 62.8039 0.72 102.24C0.72 103.852 1.16551 105.394 0 106.56"/><path id="shape35" transform="translate(200.768109794787, 386.640006960487)" fill="none" stroke="#000000" stroke-width="0.7199989632" stroke-linecap="square" stroke-linejoin="bevel" d="M0.831892 0C0.831892 23.3529 -3.42278 67.0906 7.31189 88.56"/><path id="shape36" transform="translate(205.920002580473, 447.335871084702)" fill="none" stroke="#000000" stroke-width="0.7199989632" stroke-linecap="square" stroke-linejoin="bevel" d="M16.56 0.504137C12.545 -2.17256 14.5468 6.55783 15.84 9.14414C23.8995 25.2631 6.04682 19.6573 0 25.7041"/><path id="shape37" transform="translate(208.080002614427, 467.212137856042)" fill="none" stroke="#000000" stroke-width="0.7199989632" stroke-linecap="square" stroke-linejoin="bevel" d="M0 7.98787C7.24245 24.0428 16.1984 10.3083 16.1984 0"/><path id="shape38" transform="translate(210.96000888353, 478.440028068174)" fill="none" stroke="#000000" stroke-width="0.7199989632" stroke-linecap="square" stroke-linejoin="bevel" d="M0 2.52C0 -0.711099 2.15501 8.63002 3.6 11.52C7.61105 19.5421 17.0506 24.9057 25.56 19.8C42.1293 9.85841 12.1576 4.87519 9.72 0"/><path id="shape39" transform="translate(378.795372730118, 301.749173744411)" fill="none" stroke="#000000" stroke-width="0.7199989632" stroke-linecap="square" stroke-linejoin="bevel" d="M3.56383 0C-2.15242 17.1483 13.0745 36.7976 8.65499 54.4755C6.08591 64.7518 0 76.5592 0 87.059"/><path id="shape40" transform="translate(351.128352491637, 362.544945848496)" fill="none" stroke="#000000" stroke-width="0.7199989632" stroke-linecap="square" stroke-linejoin="bevel" d="M0 0C2.88821 9.86091 24.2167 96.9169 13.4117 107.722"/><path id="shape41" transform="translate(251.007036543925, 467.721266675667)" fill="none" stroke="#000000" stroke-width="0.7199989632" stroke-linecap="square" stroke-linejoin="bevel" d="M0 0C22.7335 7.57784 97.2583 23.9115 118.624 2.54558"/><path id="shape42" transform="translate(244.897634017096, 459.066279762658)" fill="none" stroke="#000000" stroke-width="0.7199989632" stroke-linecap="square" stroke-linejoin="bevel" d="M121.679 1.52735C106.686 1.52735 77.9819 13.1901 50.9117 10.1823C35.0332 8.41806 15.2896 0 0 0"/><path id="shape43" transform="translate(245.666448773515, 468.230370555339)" fill="none" stroke="#000000" stroke-width="0.7199989632" stroke-linecap="square" stroke-linejoin="bevel" d="M0.758531 0C0.758561 12.0566 -2.75472 32.6341 5.34059 40.7294"/><path id="shape44" transform="translate(364.540100167515, 476.885370465912)" fill="none" stroke="#000000" stroke-width="0.7199989632" stroke-linecap="square" stroke-linejoin="bevel" d="M5.09117 0C3.5506 0 5.09117 10.4717 5.09117 12.2188C5.09117 24.4184 0 35.7548 0 46.8388"/><path id="shape45" transform="translate(277.199994599448, 327.239991205523)" fill="none" stroke="#000000" stroke-width="0.7199989632" stroke-linecap="square" stroke-linejoin="bevel" d="M21.6 0C21.0819 0 1.69977 19.9002 0 21.6"/><path id="shape46" transform="translate(354.2399942154, 339.839992669286)" fill="none" stroke="#000000" stroke-width="0.7199989632" stroke-linecap="square" stroke-linejoin="bevel" d="M0 0C0 23.3397 12.9672 55.4687 18.72 78.48C20.1045 84.0181 17.1482 100.668 20.88 104.4"/><path id="shape47" transform="translate(376.559993802214, 367.919992149472)" fill="none" stroke="#000000" stroke-width="0.7199989632" stroke-linecap="square" stroke-linejoin="bevel" d="M10.08 0C10.08 22.9795 29.9328 98.64 0 98.64"/><path id="shape48" transform="translate(370.854421106706, 440.639990803286)" fill="none" stroke="#000000" stroke-width="0.7199989632" stroke-linecap="square" stroke-linejoin="bevel" d="M0.665572 0C0.665572 6.36849 -3.23884 30.96 7.86557 30.96"/><path id="shape49" transform="translate(371.304428224441, 465.839990336786)" fill="none" stroke="#000000" stroke-width="0.7199989632" stroke-linecap="square" stroke-linejoin="bevel" d="M16.0556 0C16.0556 49.8332 -14.0024 25.0179 8.13556 2.88"/><path id="shape50" transform="translate(293.759987824815, 508.319972727586)" fill="none" stroke="#000000" stroke-width="0.7199989632" stroke-linecap="square" stroke-linejoin="bevel" d="M12.24 0C7.63503 0 1.60255 25.4323 0 30.24"/><path id="shape51" transform="translate(313.199986885587, 503.27997297109)" fill="none" stroke="#000000" stroke-width="0.7199989632" stroke-linecap="square" stroke-linejoin="bevel" d="M0 0C8.07601 0 6.37688 23.6569 10.8 28.08"/><path id="shape52" transform="translate(248.998695236034, 200.159999314938)" fill="none" stroke="#000000" stroke-width="0.7199989632" stroke-linecap="square" stroke-linejoin="bevel" d="M9.4813 0C9.48127 9.1377 -11.8516 22.9065 9.4813 12.24C12.4635 10.7489 18.1213 7.2 18.1213 7.2C18.1213 7.2 15.4389 13.4824 13.0813 15.84C1.60739 27.3139 10.6714 18 19.5613 18"/><path id="shape53" transform="translate(314.639996836588, 188.639999345728)" fill="none" stroke="#000000" stroke-width="0.7199989632" stroke-linecap="square" stroke-linejoin="bevel" d="M23.04 0C17.9519 5.08807 25.4703 17.1007 28.08 22.32C30.8499 27.8598 19.1537 11.52 12.96 11.52C10.9094 11.52 14.1242 15.4875 15.12 17.28C26.6248 37.9886 11.2541 27.227 0 21.6"/>
</svg>
