<?xml version="1.0" standalone="no"?>
<!DOCTYPE svg PUBLIC "-//W3C//DTD SVG 20010904//EN" "http://www.w3.org/TR/2001/REC-SVG-20010904/DTD/svg10.dtd">
<!-- Created using Krita: https://krita.org -->
<svg xmlns="http://www.w3.org/2000/svg" 
    xmlns:xlink="http://www.w3.org/1999/xlink"
    xmlns:krita="http://krita.org/namespaces/svg/krita"
    xmlns:sodipodi="http://sodipodi.sourceforge.net/DTD/sodipodi-0.dtd"
    width="600pt"
    height="600pt"
    viewBox="0 0 600 600">
<defs>
  <linearGradient id="gradient0" gradientUnits="objectBoundingBox" x1="0" y1="0" x2="1" y2="1" spreadMethod="pad">
   <stop stop-color="#ebebeb" offset="0" stop-opacity="1"/>
   <stop stop-color="#525252" offset="1" stop-opacity="1"/>
  </linearGradient>
  <radialGradient id="gradient1" gradientUnits="objectBoundingBox" cx="0.619430539170784" cy="0.887370419740409" fx="0.490320354464628" fy="0.256991432700865" r="1.1654459883235" spreadMethod="pad">
   <stop stop-color="#000000" offset="0" stop-opacity="0"/>
   <stop stop-color="#000000" offset="1" stop-opacity="1"/>
  </radialGradient>
 </defs>
<path id="shape0" transform="matrix(1.00000001691779 0 0 1.00000001691779 155.767957729114 -12.174376614966)" fill="#787878" fill-rule="evenodd" stroke="#000000" stroke-width="0.75" stroke-linecap="square" stroke-linejoin="bevel" d="M0 0L71.1399 108.971L228.447 106.246L291.01 3.98949L0 0" sodipodi:nodetypes="ccccc"/><path id="shape01" transform="matrix(1.00000000319884 0 0 1.00000000319884 151.953306804421 390.291194621296)" fill="#787878" fill-rule="evenodd" stroke="#000000" stroke-width="0.75" stroke-linecap="square" stroke-linejoin="bevel" d="M57.8825 0L204.159 7.58859L262.833 214.926L0 219.699Z" sodipodi:nodetypes="ccccc"/><path id="shape01" transform="translate(356.176596681749, 399.805388393582)" fill="#857863" fill-rule="evenodd" stroke="#000000" stroke-width="0.75" stroke-linecap="square" stroke-linejoin="bevel" d="M21.4612 73.2226L0 0.493817L25.6924 0L21.4612 73.2226" sodipodi:nodetypes="cccc"/><path id="shape1" transform="translate(362.41426808182, 420.546450360974)" fill="#594837" fill-rule="evenodd" stroke="#000000" stroke-width="0.75" stroke-linecap="square" stroke-linejoin="bevel" d="M0 0.832299L24.364 0L14.3111 51.4615Z" sodipodi:nodetypes="cccc"/><path id="shape2" transform="translate(290.95934884528, 176.299896035587)" fill="none" stroke="#000000" stroke-width="0.75" stroke-linecap="square" stroke-linejoin="miter" stroke-miterlimit="2" d="M1.55111 0L0 435.997" sodipodi:nodetypes="cc"/><path id="shape3" transform="translate(228.055861343811, 178.180387091152)" fill="none" stroke="#000000" stroke-width="0.75" stroke-linecap="square" stroke-linejoin="miter" stroke-miterlimit="2" d="M64.6426 0L0 431.296" sodipodi:nodetypes="cc"/><path id="shape4" transform="translate(198.813733425786, 177.428397828502)" fill="none" stroke="#000000" stroke-width="0.75" stroke-linecap="square" stroke-linejoin="miter" stroke-miterlimit="2" d="M93.9318 0L0 431.86" sodipodi:nodetypes="cc"/><path id="shape5" transform="translate(258.473101959462, 176.394153642889)" fill="none" stroke="#000000" stroke-width="0.75" stroke-linecap="square" stroke-linejoin="miter" stroke-miterlimit="2" d="M34.8365 0L0 425.56" sodipodi:nodetypes="cc"/><path id="shape6" transform="translate(292.134461542905, 180.202264557669)" fill="none" stroke="#000000" stroke-width="0.75" stroke-linecap="square" stroke-linejoin="miter" stroke-miterlimit="2" d="M0 0L58.6251 431.249" sodipodi:nodetypes="cc"/><path id="shape7" transform="translate(292.51045617423, 176.5350221549)" fill="none" stroke="#000000" stroke-width="0.75" stroke-linecap="square" stroke-linejoin="miter" stroke-miterlimit="2" d="M0 0L27.8319 429.322" sodipodi:nodetypes="cc"/><path id="shape8" transform="translate(292.933579609205, 175.688775284949)" fill="none" stroke="#000000" stroke-width="0.75" stroke-linecap="square" stroke-linejoin="miter" stroke-miterlimit="2" d="M0 0L87.209 433.741" sodipodi:nodetypes="cc"/><path id="shape9" transform="translate(199.447958962092, 509.390079113864)" fill="none" stroke="#000000" stroke-width="0.75" stroke-linecap="square" stroke-linejoin="miter" stroke-miterlimit="2" d="M0 0L21.6078 0.531737" sodipodi:nodetypes="cc"/><path id="shape10" transform="translate(242.098955737112, 509.822206740764)" fill="none" stroke="#000000" stroke-width="0.75" stroke-linecap="square" stroke-linejoin="miter" stroke-miterlimit="2" d="M0 0L24.9656 0.964231" sodipodi:nodetypes="cc"/><path id="shape11" transform="translate(291.896904009233, 511.052305638015)" fill="none" stroke="#000000" stroke-width="0.75" stroke-linecap="square" stroke-linejoin="miter" stroke-miterlimit="2" d="M0 0L23.2371 0.199218" sodipodi:nodetypes="cc"/><path id="shape12" transform="translate(337.240641835604, 510.985655444714)" fill="none" stroke="#000000" stroke-width="0.75" stroke-linecap="square" stroke-linejoin="miter" stroke-miterlimit="2" d="M0 0L22.4058 0.199584" sodipodi:nodetypes="cc"/><path id="shape13" transform="translate(292.914354257741, -11.2063666239483)" fill="none" stroke="#000000" stroke-width="0.75" stroke-linecap="square" stroke-linejoin="miter" stroke-miterlimit="2" d="M0 186.477L3.52586 0" sodipodi:nodetypes="cc"/><path id="shape14" transform="translate(234.994349318148, -12.0290490920741)" fill="none" stroke="#000000" stroke-width="0.75" stroke-linecap="square" stroke-linejoin="miter" stroke-miterlimit="2" d="M58.4136 187.041L0 0" sodipodi:nodetypes="cc"/><path id="shape15" transform="translate(204.247983925353, -6.62244309522258)" fill="none" stroke="#000000" stroke-width="0.75" stroke-linecap="square" stroke-linejoin="miter" stroke-miterlimit="2" d="M91.8398 185.09L0 0" sodipodi:nodetypes="cc"/><path id="shape16" transform="translate(264.024915518686, -10.0074305750273)" fill="none" stroke="#000000" stroke-width="0.75" stroke-linecap="square" stroke-linejoin="miter" stroke-miterlimit="2" d="M30.3937 188.427L0 0" sodipodi:nodetypes="cc"/><path id="shape17" transform="translate(292.585229480597, -13.4159824566574)" fill="none" stroke="#000000" stroke-width="0.75" stroke-linecap="square" stroke-linejoin="miter" stroke-miterlimit="2" d="M0 186.735L62.8797 0" sodipodi:nodetypes="cc"/><path id="shape18" transform="translate(292.749662394434, -11.7939229727608)" fill="none" stroke="#000000" stroke-width="0.75" stroke-linecap="square" stroke-linejoin="miter" stroke-miterlimit="2" d="M0 187.487L96.353 0" sodipodi:nodetypes="cc"/><path id="shape19" transform="translate(293.737036725867, -5.84688943074773)" fill="none" stroke="#000000" stroke-width="0.75" stroke-linecap="square" stroke-linejoin="miter" stroke-miterlimit="2" d="M0 180.976L30.7699 0" sodipodi:nodetypes="cc"/><path id="shape20" transform="translate(292.849832278689, -11.6744378394571)" fill="none" stroke="#000000" stroke-width="0.75" stroke-linecap="square" stroke-linejoin="miter" stroke-miterlimit="2" d="M0 185.889L135.068 0" sodipodi:nodetypes="cc"/><path id="shape02" transform="matrix(0.99999997091667 0 0 0.99999997091667 208.266486692191 83.0928599922309)" fill="#9b9b9b" fill-rule="evenodd" stroke="#000000" stroke-width="0.75" stroke-linecap="square" stroke-linejoin="bevel" d="M3.14505 0L0 319.261L181.683 319.059L200.325 1.32351L3.14505 0" sodipodi:nodetypes="ccccc"/><path id="shape011" transform="matrix(0.999999970066761 0 0 0.999999970066761 -11.0042204923883 -12.8526111143599)" fill="#9b9b9b" fill-rule="evenodd" stroke="#000000" stroke-width="0.75" stroke-linecap="square" stroke-linejoin="bevel" d="M179.579 0L242.877 95.5632L239.846 416.711L179.779 621.978L0 625.834L3.32445 0.664305L179.579 0" sodipodi:nodetypes="ccccccc"/><path id="shape02" transform="matrix(0.999999973268163 0 0 0.999999973268163 357.944223558443 271.349263610425)" fill="#9b494b" fill-rule="evenodd" stroke="#000000" stroke-width="0.75" stroke-linecap="square" stroke-linejoin="bevel" d="M4.83338 0.807391L34.1892 26.0899L33.6504 35.3448L3.85267 10.182C-2.16431 5.47637 -0.590086 -2.57661 4.83338 0.807391Z" sodipodi:nodetypes="ccccc"/><path id="shape11" transform="matrix(0.999999970066761 0 0 0.999999970066761 376.012988183799 -11.323318812735)" fill="#9b9b9b" fill-rule="evenodd" stroke="#000000" stroke-width="0.75" stroke-linecap="square" stroke-linejoin="bevel" d="M43.6141 5.5847L2.39314 67.474L0 481.36L41.3538 628.095L243.272 628.029L233.831 0L43.6141 5.5847" sodipodi:nodetypes="ccccccc"/><path id="shape03" transform="translate(474.115270481056, 24.4531206226987)" fill="#a9a9a9" fill-rule="evenodd" stroke="#000000" stroke-width="0.75" stroke-linecap="square" stroke-linejoin="bevel" d="M0 592.991L1.66259 63.4949L139.022 0L140.485 594.188L0 592.991" sodipodi:nodetypes="ccccc"/><path id="shape12" transform="translate(480.099139484059, 41.1413036378075)" fill="#848484" fill-rule="evenodd" stroke="#000000" stroke-width="0.75" stroke-linecap="square" stroke-linejoin="bevel" d="M0 559.216L1.32934 51.9256L127.719 0L126.257 571.515L0 559.216" sodipodi:nodetypes="ccccc"/><path id="shape21" transform="translate(492.797832357264, 47.7894773147064)" fill="#7c675f" fill-rule="evenodd" stroke="#000000" stroke-width="0.75" stroke-linecap="square" stroke-linejoin="bevel" d="M0 564.203L1.32934 45.6759L118.412 0L119.475 559.947Z" sodipodi:nodetypes="ccccc"/><path id="shape31" transform="translate(481.349489063699, 92.9511140576172)" fill="none" stroke="#000000" stroke-width="0.75" stroke-linecap="square" stroke-linejoin="miter" stroke-miterlimit="2" d="M0 0L12.8651 0.482115" sodipodi:nodetypes="cc"/><path id="shape41" transform="translate(476.113603686071, 88.4300703136403)" fill="none" stroke="#000000" stroke-width="0.75" stroke-linecap="square" stroke-linejoin="miter" stroke-miterlimit="2" d="M5.21922 4.33831L0 0" sodipodi:nodetypes="cc"/><path id="shape04" transform="translate(252.488574510614, 115.789420391315)" fill="url(#gradient0)" fill-rule="evenodd" stroke-opacity="0" stroke="#000000" stroke-width="0" stroke-linecap="square" stroke-linejoin="bevel" d="M0 89.7006L0.634685 0L82.2488 0.493817L81.6848 90.0297L0 89.7006" sodipodi:nodetypes="ccccc"/><path id="shape13" transform="translate(251.697234064762, 137.253842419879)" fill="#7e7e7e" fill-opacity="0.243137254901961" fill-rule="evenodd" stroke-opacity="0" stroke="#000000" stroke-width="0" stroke-linecap="square" stroke-linejoin="bevel" d="M0 56.0889C1.11022e-16 56.3973 1.20598 6.78316 1.63002 6.78316C5.11887 6.78316 20.7078 -0.927032 22.8806 0.0929603C30.7124 3.76941 37.4086 10.3678 46.209 12.2599C49.7925 13.0303 52.8001 8.68089 55.9575 7.8469C57.8493 7.34723 61.5281 10.4091 64.1437 10.0243C67.9297 9.46738 71.175 5.76734 74.5571 4.13198C76.798 3.04841 80.947 4.05034 82.602 6.03517C83.0082 6.52246 81.2056 53.9456 81.2462 53.8283" sodipodi:nodetypes="ccccccccc"/><path id="shape05" transform="translate(252.794215680337, 170.497067604319)" fill="#333333" fill-rule="evenodd" stroke-opacity="0" stroke="#000000" stroke-width="0" stroke-linecap="square" stroke-linejoin="bevel" d="M0 35.212L1.23557 10.7375L6.90358 10.1891L15.6298 11.286L16.8599 10.8539L16.9928 10.8539L17.0593 10.8372L17.292 10.8372L17.3585 10.8206L17.7575 10.9204L21.1315 14.5272L21.198 14.5272L21.2645 14.5936L21.3144 14.5936L21.3643 14.627L23.5251 14.7266L23.9074 14.7101L25.0375 14.7101L25.8022 14.6436L32.7001 15.3085L32.8497 15.2918L33.8137 15.325L34.3955 15.2585L34.5784 15.2585L34.9274 15.192L34.9939 15.192L35.0438 15.1754L35.0936 15.1089L35.1601 15.1089L38.5675 12.5493L38.5842 12.5493L38.684 12.4993L42.3572 12.5659L42.7894 12.5326L46.8949 12.3497L46.9283 12.3497L47.0112 12.2832L47.0779 12.2832L47.1443 12.2501L47.1775 12.2501L47.2606 12.1836L47.2606 12.167L47.0612 6.26622L47.0943 6.24974L55.0894 0.282531L55.6047 0.282531L55.8208 0.265868L56.0035 0.265868L56.5521 0.216064L56.7681 0.216064L56.9511 0.182739L57.1505 0.182739L57.3499 0.166259L57.6159 0.166259L58.1145 0.0831296L58.6131 0.0831296L59.145 0L59.6603 0L59.6769 0.033142L59.7932 0.0996091L59.8265 0.0996091L61.5552 10.0559L61.5884 10.0559L61.605 10.1224L61.6382 10.1224L63.9321 10.5214L64.1315 10.4883L64.3143 10.4883L64.597 10.4383L64.9626 10.4383L65.3781 10.3885L66.2424 10.4216L66.4086 10.4051L69.3008 10.6378L69.3507 10.6212L69.4005 10.6212L69.4005 10.6045L69.4172 10.5879L69.4337 10.5879L69.4837 10.5381L70.0654 7.11399L70.0821 7.11399L70.1152 7.09733L70.1485 7.03086L70.1817 7.03086L70.1817 6.98106L70.2317 6.98106L70.2648 6.9644L70.2815 6.9644L70.3148 6.94773L70.5309 6.94773L70.5807 6.89793L70.7136 6.89793L77.0465 2.69274L77.8776 2.69274L78.0603 2.67608L78.2266 2.67608L78.5424 2.60961L78.6754 2.60961L78.8416 2.55962L79.0077 2.55962L79.0077 2.54314L79.1242 2.54314L79.8057 5.43529L79.7394 34.3679" sodipodi:nodetypes="ccccccccccccccccccccccccccccccccccccccccccccccccccccccccccccccccccccccccccccccccccccccccccccccccccccccccc"/><path id="shape14" transform="translate(264.019253420774, 175.64964024032)" fill="#333333" fill-rule="evenodd" stroke-opacity="0" stroke="#000000" stroke-width="0" stroke-linecap="square" stroke-linejoin="bevel" d="M0.594325 16.048L0.710595 16.2141L0.710595 16.2807L1.61242 3.3576L1.6289 3.34093L1.6289 3.37426L1.46283 3.32427L1.4295 3.27447L0.332519 3.12487L0.199584 2.97527L0.166259 2.97527L0.166259 2.95861L0.132934 2.95861L0.132934 2.92547L0.0333251 2.92547L0 2.95861L0.0333251 2.01122L0.0333251 1.94476L0.0499876 1.94476L0.0664671 1.92809L0.0664671 1.91143L0.0831296 1.91143L0.0831296 1.89477L0.498778 1.89477L0.581724 1.87829L1.0805 1.87829L1.64556 2.04437L1.79516 0L2.02789 0L2.06121 0.0333251L2.17748 0.0333251L2.26061 0.0166625L2.89214 0.116272L2.94213 0.0997922L3.0086 0.0997922L3.12487 0.0166625L3.19134 0.0166625L3.17486 1.49597L3.14153 1.52911L3.14153 1.86163L3.30779 1.86163L3.3576 1.89477L4.55437 2.06103L4.55437 2.09435L4.57103 2.09435L4.50456 2.89214L4.47124 2.92547L4.47124 3.37426L4.4381 3.34093L4.4381 3.30761L4.30498 3.29113L4.30498 3.32427L3.97264 3.32427L3.90618 3.42406L3.27447 3.47387L3.24132 3.50719L2.25637 15.2335L2.22323 15.2667L2.02364 16.8624L1.9905 16.8956L1.9905 16.9621L2.17324 16.4468" sodipodi:nodetypes="cccccccccccccccccccccccccccccccccccccccccccccccccccccccccccccc"/><path id="shape22" transform="translate(272.121446660662, 168.960940097718)" fill="#333333" fill-rule="evenodd" stroke-opacity="0" stroke="#000000" stroke-width="0" stroke-linecap="square" stroke-linejoin="bevel" d="M6.29223 0.123106C7.74216 -0.74557 4.8913 3.21938 3.93201 4.61101C2.3004 6.97797 5.95184 2.77052 5.06214 4.72728C4.20437 6.61381 3.39191 8.50131 2.50251 10.3786C2.17951 11.0604 0.850503 12.4563 1.60493 12.4563C3.8425 12.4563 4.52669 9.37415 2.25312 14.8332C2.21864 14.916 1.4477 16.322 1.5218 16.3956C1.73833 16.611 3.8038 13.6446 3.56617 15.0328C3.20272 17.156 1.58342 19.1521 1.07301 21.1994C0.90452 21.8752 -0.504419 23.0942 0.192093 23.0942C0.571888 23.0942 2.5777 20.0778 2.85151 20.3516C3.12787 20.628 3.82026 24.3136 3.83222 24.3076C4.33393 24.0568 5.16948 20.5737 6.02618 21.0498C7.09147 21.6418 8.17436 25.4255 9.81591 24.9558C10.553 24.7449 8.26557 20.376 8.88518 20.1687C9.34115 20.0162 11.1567 22.4184 11.5613 22.0138C11.7763 21.7988 9.27476 15.6384 8.76873 15.1324C8.25344 14.6171 9.58596 16.6782 10.3147 16.6782C12.6195 16.6782 6.31558 8.55854 7.95428 10.1792C8.32507 10.5459 8.72077 10.9625 9.06792 11.3593C10.4718 12.9642 6.19738 3.60191 7.70507 5.1096C7.86635 5.27089 8.78798 6.43201 9.05144 6.27323C10.791 5.22492 4.77102 0.2868 6.77417 0.621884" sodipodi:nodetypes="ccccccccccccccccccccccc"/><path id="shape32" transform="translate(314.066773707922, 164.846750741224)" fill="#333333" fill-rule="evenodd" stroke-opacity="0" stroke="#000000" stroke-width="0" stroke-linecap="square" stroke-linejoin="bevel" d="M6.88145 29.8678C7.30308 31.1342 7.20318 27.2241 7.28025 26.6266C7.58428 24.2698 7.81059 21.5592 8.97562 19.4627C10.087 17.4626 12.4673 14.4234 14.1615 12.8972C15.1723 11.9868 18.8442 10.7779 17.5025 10.5535C16.7427 10.4264 14.8248 12.325 14.2115 11.9165C13.0952 11.173 16.8373 7.31005 15.8902 8.25974C15.5487 8.60218 9.02522 18.5652 8.87601 17.9667C8.25512 15.4763 10.3751 13.6453 12.0009 12.3153C12.1068 12.2287 14.0935 10.5671 13.9123 10.5368C12.549 10.3092 9.92059 14.1837 10.5381 12.947C10.6632 12.6965 15.851 5.64789 15.591 5.5172C14.5229 4.98021 11.4022 11.5746 10.5216 12.0161C8.88872 12.8348 10.7922 8.05537 12.0838 6.76378C12.9634 5.88423 11.2364 10.4923 10.1226 9.93845C9.67171 9.71426 10.4914 7.8325 10.5216 7.56157C10.7131 5.84209 13.5002 5.51845 14.5772 4.45336C14.7153 4.31678 13.8217 4.5071 13.9954 4.42022C14.7399 4.04789 16.7716 4.16864 15.7906 3.40618C15.4303 3.12617 16.9118 2.20959 16.4555 2.20959C14.7815 2.20959 13.6118 3.89862 12.4497 4.80254C11.7935 5.31295 10.464 7.00827 10.372 6.18205C10.2166 4.7868 11.9229 3.6026 12.2334 2.32586C12.4072 1.61159 12.5826 -0.586722 12.5826 0.148379C12.5826 4.719 7.00988 9.35263 8.27762 14.4097C8.60909 15.7319 8.30906 11.6835 8.34409 10.3208C8.41629 7.51199 9.91742 5.99941 10.7541 3.48931C11.144 2.31968 9.6255 7.74039 8.94248 6.71397C8.44425 5.96526 9.85136 3.86993 9.04209 2.85778C8.23578 1.84934 8.51642 5.43276 8.67643 6.71397C8.89212 8.44108 7.73698 11.4105 7.44651 13.2629C7.44054 13.301 7.30195 14.5289 7.18064 14.5593C7.05472 14.5909 6.77946 10.6477 6.74833 10.3208C6.6192 8.96438 6.14995 7.54114 6.14995 6.19872C6.14995 5.52416 7.34291 8.16424 7.64591 7.56157C8.30569 6.24926 7.20071 2.87155 5.88408 3.52264C3.82298 4.54186 6.22195 8.14149 5.9174 10.4206C5.78487 11.4124 6.3162 14.3965 6.3162 13.3958C6.3162 11.5695 5.18279 9.53057 4.7871 7.74449C4.65662 7.15555 5.92133 4.95606 5.58488 4.61962C5.53566 4.57039 4.75743 6.6864 4.65416 6.76378C3.7851 7.41498 3.99557 3.30295 3.09173 3.90496C2.98798 3.97406 5.36729 12.9387 5.50175 13.3958C5.63301 13.8421 5.80095 14.7589 5.80095 14.7589C5.80095 14.7589 4.39493 12.5109 3.3576 11.7336C2.09282 10.7859 5.06963 14.5746 5.06963 16.155C5.06963 16.2022 2.62629 14.2613 2.41021 14.044C1.85458 13.4853 2.27728 8.74965 2.27728 13.5786C2.27728 14.5193 0.768977 10.6756 0.349181 11.5175C-0.143861 12.5064 1.37953 15.0747 2.16082 14.2934C2.67447 13.7798 0 13.2845 0 14.0109C0 16.4086 6.76503 17.4182 5.06963 19.1137C5.05364 19.1296 3.18764 17.4625 3.15819 17.5512C2.57331 19.3123 5.78788 20.4946 6.00035 22.3381C6.23027 24.3331 6.86921 32.9294 6.91459 29.8511" sodipodi:nodetypes="ccccccccccccccccccccccccccccccccccccccccccccccccccccccc"/><path id="shape42" transform="translate(284.140443841673, 170.222285331514)" fill="#333333" fill-rule="evenodd" stroke-opacity="0" stroke="#000000" stroke-width="0" stroke-linecap="square" stroke-linejoin="bevel" d="M0.153955 28.6314C-0.146899 28.6314 0.0855866 22.6054 0.0874882 22.3151C0.126013 16.4353 1.14013 10.7624 2.51418 5.0619C2.56491 4.85143 4.00584 -0.782117 4.95771 0.0920693C6.98178 1.95095 3.39528 6.5802 3.39528 8.36969C3.39528 8.95719 4.60589 7.34286 5.04066 7.73798C5.87219 8.49369 3.89416 8.42839 4.75813 11.5942C5.36754 13.8272 2.60858 17.6913 4.25953 18.9077C5.58156 19.8818 2.76618 27.8768 3.84407 25.8223" sodipodi:nodetypes="ccccccccc"/><path id="shape51" transform="translate(253.840333514182, 169.610601122094)" fill="#333333" fill-rule="evenodd" stroke-opacity="0" stroke="#000000" stroke-width="0" stroke-linecap="square" stroke-linejoin="bevel" d="M0.38885 2.78124C0.742469 2.78124 0.909533 -0.141649 1.50249 0.00536558C2.65932 0.292182 0.543457 4.42179 1.38622 3.57902C1.48963 3.47561 2.22537 2.14925 2.25048 2.19951C2.56707 2.83339 1.09368 4.24991 1.80169 4.2772C2.41599 4.30089 3.26221 2.17558 4.04564 1.78386C5.26777 1.1728 1.72816 6.71241 2.4832 5.57359C2.64179 5.33439 3.98363 3.69041 4.11211 3.86156C4.75759 4.72141 2.41965 6.52119 3.38078 7.00309C6.15603 8.39453 5.57841 5.08581 6.57212 8.06693C6.73815 8.56501 4.95094 8.79034 4.67717 9.06412C4.24539 9.4959 6.68003 9.83037 6.15647 10.1446C3.2646 11.8804 5.27745 10.747 4.2617 14.9315C3.93476 16.2784 -0.759233 16.1637 0.106319 15.0811" sodipodi:nodetypes="cccccccccccccc"/><path id="shape23" transform="translate(254.788524978823, 176.272516187568)" fill="none" stroke="#2d2d2d" stroke-width="0.75" stroke-linecap="square" stroke-linejoin="bevel" d="M0.0410942 0.775683C-1.13096 4.29615 23.1271 4.75034 26.9207 4.97157C39.6971 5.71665 52.9471 6.27274 65.5888 3.80798C67.5216 3.43116 76.7754 2.46891 77.7652 0" sodipodi:nodetypes="cccc"/><path id="shape33" transform="translate(254.829619192988, 176.401731973402)" fill="none" stroke="#2d2d2d" stroke-width="0.75" stroke-linecap="square" stroke-linejoin="bevel" d="M0 0.646467C2.75785 -0.607478 14.1803 1.56671 18.8522 1.69249C35.9547 2.15294 59.7276 6.99425 75.9962 0" sodipodi:nodetypes="ccc"/><path id="shape43" transform="translate(254.810128369092, 176.272516187568)" fill="none" stroke="#2d2d2d" stroke-width="0.75" stroke-linecap="square" stroke-linejoin="bevel" d="M0.0194908 0.775683C-0.413939 1.37587 6.51709 2.74554 7.30646 2.78552C13.5682 3.10265 19.6864 3.29915 25.9001 4.05489C37.9351 5.51866 66.4994 5.79097 77.7436 0" sodipodi:nodetypes="cccc"/><path id="shape06" transform="translate(168.382116044223, 105.856845054899)" fill="#c3c3c3" fill-rule="evenodd" stroke="#000000" stroke-width="0.75" stroke-linecap="square" stroke-linejoin="bevel" d="M0 62.0316L0.465453 0L29.6861 15.724L29.0547 61.3669L0 62.0316" sodipodi:nodetypes="ccccc"/><path id="shape15" transform="translate(172.737083619726, 112.006973331303)" fill="#dddddd" fill-rule="evenodd" stroke="#000000" stroke-width="0.75" stroke-linecap="square" stroke-linejoin="bevel" d="M1.32971 0L22.1399 10.8372L21.7741 52.1252L0 51.3606L1.32971 0" sodipodi:nodetypes="ccccc"/><path id="shape24" transform="translate(174.931046850876, 80.5379861047212)" fill="none" stroke="#000000" stroke-width="0.75" stroke-linecap="square" stroke-linejoin="bevel" d="M0 26.2831C3.73607 22.547 14.1285 6.03929 11.336 0.586145C9.74666 -2.51753 12.0395 7.55372 12.9316 10.9246C15.156 19.3294 16.8292 27.7653 18.6496 36.2561C18.6585 36.2975 18.7799 37.495 18.8821 37.087" sodipodi:nodetypes="ccccc"/><path id="shape012" transform="matrix(1.00000001641999 0 0 1.00000001641999 251.066008798607 114.51100188027)" fill="#c4c4c4" fill-rule="evenodd" stroke="#000000" stroke-width="0.75" stroke-linecap="square" stroke-linejoin="bevel" d="M0.049 0.183L85.767 0L84.537 93.065L0 92.782L0.049 0.183M3.832 3.178L83.15 3.344L81.023 89.344L2.967 89.145L3.832 3.178" sodipodi:nodetypes="cccccccccc"/><path id="shape21" transform="matrix(1.00000004925997 0 0 1.00000004925997 291.048418783993 117.711233370338)" fill="#c4c4c4" fill-rule="evenodd" stroke="#000000" stroke-width="0.75" stroke-linecap="square" stroke-linejoin="bevel" d="M0.299193 0L0 85.8835L3.54033 85.8502L3.64013 0.664854L0.299193 0" sodipodi:nodetypes="ccccc"/><path id="shape07" transform="translate(177.811772797265, 131.953952035233)" fill="none" stroke="#000000" stroke-width="0.75" stroke-linecap="square" stroke-linejoin="bevel" d="M11.0616 0C11.2744 0 11.7421 4.07956 11.793 4.62084C12.0154 6.98797 10.9064 13.5943 8.61829 14.9013C7.05831 15.7923 0.0336387 14.3013 0 11.926" sodipodi:nodetypes="cccc"/><path id="shape16" transform="translate(186.392938130443, 135.664660723185)" fill="none" stroke="#000000" stroke-width="0.75" stroke-linecap="square" stroke-linejoin="bevel" d="M0.0204632 0.0873453C-0.0816143 0.116602 0.226173 -0.0259425 0.327988 0.00421561" sodipodi:nodetypes="cc"/><path id="shape25" transform="translate(180.10552821344, 135.361443167773)" fill="none" stroke="#000000" stroke-width="0.75" stroke-linecap="square" stroke-linejoin="bevel" d="M0 0.565062C0.174596 0.768837 0.369606 0.174583 0.573393 0" sodipodi:nodetypes="cc"/><path id="shape34" transform="translate(183.413227160955, 140.5224386304)" fill="none" stroke="#000000" stroke-width="0.75" stroke-linecap="square" stroke-linejoin="bevel" d="M0 0.407225C0 2.06802 2.07498 1.12316 2.38522 0" sodipodi:nodetypes="cc"/><path id="shape44" transform="translate(184.835432657461, 137.073474231974)" fill="none" stroke="#000000" stroke-width="0.75" stroke-linecap="square" stroke-linejoin="bevel" d="M0.0155344 0C0.0155344 0.60312 1.42989 1.05702 1.77746 1.52087C2.11976 1.97769 -0.488831 1.76184 0.0820015 1.76184" sodipodi:nodetypes="ccc"/><path id="shape52" transform="translate(176.867357832188, 127.449570839582)" fill="none" stroke="#000000" stroke-width="0.75" stroke-linecap="square" stroke-linejoin="bevel" d="M7.36032 0C6.29211 1.21017 5.66419 2.63683 5.20783 4.29665C5.16759 4.44299 4.72208 6.41016 4.69257 6.37434C4.05728 5.60309 5.20361 3.52634 4.21055 3.41573C2.82583 3.2615 2.47394 9.0098 2.43205 9.59891C2.37278 10.4325 2.26579 12.9362 2.26579 12.1005C2.26579 11.6077 1.73698 9.68016 1.67574 10.0394C1.4416 11.4127 2.2677 22.8686 1.6924 23.1787C0.596919 23.7691 0.438838 18.5824 0.129964 19.788C-0.21927 21.151 0.0975988 30.8009 1.5428 31.0906C2.32933 31.2482 0.280573 28.2794 0.221334 29.0794C0.165197 29.8374 1.05969 34.2409 1.90846 34.2737" sodipodi:nodetypes="cccccccccccc"/><path id="shape61" transform="translate(173.811404418882, 126.227894768956)" fill="none" stroke="#000000" stroke-width="0.75" stroke-linecap="square" stroke-linejoin="bevel" d="M9.90102 0C9.72832 0.2588 6.9424 1.30257 3.25238 4.55428C2.95691 4.81465 -1.45021 9.19134 0.493177 9.25815" sodipodi:nodetypes="ccc"/><path id="shape71" transform="translate(183.712420611105, 125.435737243432)" fill="none" stroke="#000000" stroke-width="0.75" stroke-linecap="square" stroke-linejoin="bevel" d="M0 0.792157C2.66858 -2.50595 7.95533 5.41106 8.86759 7.77321C9.38615 9.11596 10.8396 12.5695 9.49921 12.045C8.69356 11.7297 7.20921 9.56442 7.51289 10.3745C9.62512 16.0091 9.91097 22.3775 10.0644 28.9574C10.079 29.5837 9.24197 29.3192 8.97562 30.5281C8.62547 32.1174 8.73182 36.6273 7.82874 35.2736C7.60079 34.9318 7.61056 32.426 8.00324 32.1903C8.0273 32.1758 5.66162 39.4702 6.70677 35.4564" sodipodi:nodetypes="ccccccccc"/><path id="shape81" transform="translate(184.166616629197, 147.378802608903)" fill="none" stroke="#000000" stroke-width="0.75" stroke-linecap="square" stroke-linejoin="bevel" d="M0.21899 0C-0.877882 0 2.34486 5.92641 5.45478 4.37145" sodipodi:nodetypes="cc"/><path id="shape91" transform="translate(189.114382157207, 149.448162937466)" fill="none" stroke="#000000" stroke-width="0.75" stroke-linecap="square" stroke-linejoin="bevel" d="M0 0C0 2.35195 1.30481 11.9286 1.30481 11.444" sodipodi:nodetypes="cc"/><path id="shape101" transform="translate(177.420713969565, 152.406863894781)" fill="none" stroke="#000000" stroke-width="0.75" stroke-linecap="square" stroke-linejoin="bevel" d="M9.98997 0C8.81509 4.12182 3.6769 5.16221 0.989446 2.79235C0.773427 2.60186 -0.304544 1.74556 0.0835341 1.41275" sodipodi:nodetypes="ccc"/><path id="shape111" transform="translate(184.075137725065, 127.449570839582)" fill="none" stroke="#000000" stroke-width="0.75" stroke-linecap="square" stroke-linejoin="bevel" d="M0.15254 0C-0.810842 5.29754 3.01066 3.93467 5.39667 5.84242" sodipodi:nodetypes="cc"/><path id="shape121" transform="translate(177.103980624236, 127.981490651507)" fill="none" stroke="#000000" stroke-width="0.75" stroke-linecap="square" stroke-linejoin="bevel" d="M5.82722 0C5.82722 0.820326 0.505774 9.95892 0.142639 13.6795C-0.126483 16.4368 0.0678405 19.1382 0.0678405 21.8906C0.0678405 22.1859 -0.00501343 23.8251 0.134307 22.572" sodipodi:nodetypes="cccc"/><path id="shape131" transform="translate(175.200641016108, 127.913031185067)" fill="none" stroke="#000000" stroke-width="0.75" stroke-linecap="square" stroke-linejoin="bevel" d="M7.73056 0.0684595C3.56643 -1.3936 0.176559 21.003 0.00152037 25.1504C-0.0309498 25.9197 0.463931 32.763 0.791069 32.763" sodipodi:nodetypes="ccc"/><path id="shape141" transform="translate(174.083091081273, 127.765335285594)" fill="none" stroke="#000000" stroke-width="0.75" stroke-linecap="square" stroke-linejoin="bevel" d="M7.35215 0C1.8151 0 0.199083 21.8619 0.179925 25.7053C0.175654 26.5622 -0.499926 33.791 0.794975 33.7168" sodipodi:nodetypes="ccc"/><path id="shape151" transform="translate(174.225630676836, 130.150551612633)" fill="none" stroke="#000000" stroke-width="0.75" stroke-linecap="square" stroke-linejoin="bevel" d="M4.63323 0C2.05262 0.573293 -1.34625 10.6509 0.552643 11.1032" sodipodi:nodetypes="cc"/><path id="shape161" transform="translate(184.227677874705, 127.449570839582)" fill="none" stroke="#000000" stroke-width="0.75" stroke-linecap="square" stroke-linejoin="bevel" d="M0 0C2.18678 6.9981 6.08267 6.93222 6.32444 16.7878C6.37395 18.8059 4.7422 29.6073 6.17485 30.4673" sodipodi:nodetypes="ccc"/><path id="shape171" transform="translate(184.227677874705, 127.449570839582)" fill="none" stroke="#000000" stroke-width="0.75" stroke-linecap="square" stroke-linejoin="bevel" d="M0 0C6.86357 2.70755 6.64436 15.3669 7.37995 22.1649C7.64062 24.5738 8.01113 26.9663 8.1695 29.3869C8.20933 29.9957 7.9328 32.2917 8.16117 32.196" sodipodi:nodetypes="cccc"/><path id="shape181" transform="translate(185.765342785558, 128.063602894621)" fill="none" stroke="#000000" stroke-width="0.75" stroke-linecap="square" stroke-linejoin="bevel" d="M0.00810688 0.000925841C-0.158868 -0.0482034 2.30453 1.87202 2.69252 2.4028C4.27008 4.56095 5.61488 6.7496 6.39911 9.3173C7.76951 13.8042 7.93809 18.3379 7.79528 22.9802C7.73212 25.0338 7.38806 31.1848 7.38806 29.1303" sodipodi:nodetypes="ccccc"/><path id="shape191" transform="translate(185.773449665505, 127.588919220445)" fill="none" stroke="#000000" stroke-width="0.75" stroke-linecap="square" stroke-linejoin="bevel" d="M0 0.47561C2.65352 -2.61501 7.42631 10.3694 7.57111 10.3406" sodipodi:nodetypes="cc"/><path id="shape201" transform="translate(188.859683232959, 145.134851732777)" fill="none" stroke="#000000" stroke-width="0.75" stroke-linecap="square" stroke-linejoin="bevel" d="M0.204894 0C-0.12425 1.97125 -0.134688 7.37023 0.761716 6.6154" sodipodi:nodetypes="cc"/><path id="shape211" transform="translate(187.285987912118, 147.653093789029)" fill="none" stroke="#000000" stroke-width="0.75" stroke-linecap="square" stroke-linejoin="bevel" d="M0 0C0.635568 0 0.216304 4.02082 0.124694 4.75377" sodipodi:nodetypes="cc"/><path id="shape22" transform="translate(186.56698887441, 147.653093789029)" fill="none" stroke="#000000" stroke-width="0.75" stroke-linecap="square" stroke-linejoin="bevel" d="M0.718999 0C-0.411028 0.209706 0.128944 1.4678 0.128944 2.75912" sodipodi:nodetypes="cc"/><path id="shape23" transform="translate(173.716840140602, 161.199654025097)" fill="none" stroke="#000000" stroke-width="0.75" stroke-linecap="square" stroke-linejoin="bevel" d="M0.00601654 0C-0.204206 0 5.163 3.79062 5.38308 2.69265" sodipodi:nodetypes="cc"/><path id="shape24" transform="translate(175.999949548038, 158.897567334758)" fill="none" stroke="#000000" stroke-width="0.75" stroke-linecap="square" stroke-linejoin="bevel" d="M0 0C0 1.04408 4.52038 2.91788 5.28569 3.3077C5.51587 3.42495 7.92781 5.06134 8.1197 4.67897" sodipodi:nodetypes="ccc"/><path id="shape25" transform="translate(178.404665081422, 157.384937535682)" fill="none" stroke="#000000" stroke-width="0.75" stroke-linecap="square" stroke-linejoin="bevel" d="M0.00549461 0C-0.250782 0.238129 8.53469 6.42563 10.2527 6.74842" sodipodi:nodetypes="cc"/><path id="shape26" transform="translate(183.030904074104, 157.102465372637)" fill="none" stroke="#000000" stroke-width="0.75" stroke-linecap="square" stroke-linejoin="bevel" d="M0 0.0166038C0 -0.210143 2.51987 1.95639 2.81734 2.194C4.93687 3.88694 7.39452 4.94847 9.49921 6.63191" sodipodi:nodetypes="ccc"/><path id="shape27" transform="translate(186.224404972064, 156.098771788837)" fill="none" stroke="#000000" stroke-width="0.75" stroke-linecap="square" stroke-linejoin="bevel" d="M0.454956 0.00635386C-2.31444 -0.245913 8.50745 7.11215 7.46092 4.53573" sodipodi:nodetypes="cc"/><path id="shape28" transform="translate(187.410682367169, 152.406863894781)" fill="none" stroke="#000000" stroke-width="0.75" stroke-linecap="square" stroke-linejoin="bevel" d="M0 0C0.354155 0.360425 1.64388 2.03853 2.78411 1.99456" sodipodi:nodetypes="cc"/><path id="shape29" transform="translate(193.153402181771, 157.19386754472)" fill="none" stroke="#000000" stroke-width="0.75" stroke-linecap="square" stroke-linejoin="bevel" d="M0 0C0.604179 0.42162 1.26908 1.23956 2.14425 0.739652" sodipodi:nodetypes="cc"/><path id="shape30" transform="translate(176.160244882526, 118.604650530385)" fill="none" stroke="#000000" stroke-width="0.75" stroke-linecap="square" stroke-linejoin="bevel" d="M0.363293 0.392888C-0.358803 0.151527 -0.253373 6.68021 3.0228 4.20751C6.75096 1.39368 -0.76084 -1.22093 0.487988 0.608952" sodipodi:nodetypes="ccc"/><path id="shape31" transform="translate(181.833649052629, 123.260954089942)" fill="none" stroke="#000000" stroke-width="0.75" stroke-linecap="square" stroke-linejoin="bevel" d="M0.00881249 0C-0.148582 0 1.84907 0.325204 2.26933 0.240966" sodipodi:nodetypes="cc"/><path id="shape32" transform="translate(182.041954365254, 119.886788054054)" fill="none" stroke="#000000" stroke-width="0.75" stroke-linecap="square" stroke-linejoin="bevel" d="M0 0.731321C0 0.34124 1.64042 0.0745245 1.99456 0" sodipodi:nodetypes="cc"/><path id="shape33" transform="translate(180.781176426437, 117.833998721352)" fill="none" stroke="#000000" stroke-width="0.75" stroke-linecap="square" stroke-linejoin="bevel" d="M0.0972377 0.698088C-0.279998 0.66369 0.555195 0.0756064 0.65406 0" sodipodi:nodetypes="cc"/><path id="shape34" transform="translate(177.953038248177, 115.382315305939)" fill="none" stroke="#000000" stroke-width="0.75" stroke-linecap="square" stroke-linejoin="bevel" d="M0.506926 2.31866C0.175266 1.61643 0.190249 0.760998 0 0" sodipodi:nodetypes="cc"/><path id="shape35" transform="translate(175.401654200201, 115.731404848602)" fill="none" stroke="#000000" stroke-width="0.75" stroke-linecap="square" stroke-linejoin="bevel" d="M0.847684 1.32971C0.359537 1.24098 0 0.462239 0 0" sodipodi:nodetypes="cc"/><path id="shape36" transform="translate(174.994428843326, 124.042171259505)" fill="none" stroke="#000000" stroke-width="0.75" stroke-linecap="square" stroke-linejoin="bevel" d="M1.46264 0C0.70674 0.226438 0.142927 0.398741 0 1.28814" sodipodi:nodetypes="cc"/><path id="shape37" transform="translate(177.289333449739, 125.895467774619)" fill="none" stroke="#000000" stroke-width="0.75" stroke-linecap="square" stroke-linejoin="bevel" d="M0.0902201 0C0.0902201 0.440936 -0.215276 1.01734 0.298044 1.18844" sodipodi:nodetypes="cc"/><path id="shape38" transform="translate(179.281174873233, 125.27208705183)" fill="none" stroke="#000000" stroke-width="0.75" stroke-linecap="square" stroke-linejoin="bevel" d="M0.0847009 0C-0.286497 0.0464956 0.672528 1.40341 0.840924 1.64556" sodipodi:nodetypes="cc"/><path id="shape39" transform="translate(180.678921291253, 135.361443167773)" fill="none" stroke="#000000" stroke-width="0.75" stroke-linecap="square" stroke-linejoin="bevel" d="M1.30481 1.38784C1.4296 2.01043 0.4672 0.430006 0 0" sodipodi:nodetypes="cc"/><path id="shape40" transform="translate(180.678921291253, 134.67454865481)" fill="none" stroke="#000000" stroke-width="0.75" stroke-linecap="square" stroke-linejoin="bevel" d="M0 0.686894C0.532208 -0.179237 1.26097 -0.147346 2.59304 0.346136" sodipodi:nodetypes="cc"/><path id="shape41" transform="translate(185.133497946855, 133.840573646997)" fill="none" stroke="#000000" stroke-width="0.75" stroke-linecap="square" stroke-linejoin="bevel" d="M0 0.706419C0 0.590299 2.00167 0.0216054 2.16915 0" sodipodi:nodetypes="cc"/><path id="shape42" transform="translate(288.474971432909, 154.574962187437)" fill="#000000" fill-rule="evenodd" stroke-opacity="0" stroke="#000000" stroke-width="0" stroke-linecap="square" stroke-linejoin="bevel" d="M2.57465 0C2.57465 0.726928 0.375111 -0.015105 0.147957 0.440459C-0.437086 1.61378 0.964165 4.61899 0.056496 5.52666C-0.468625 6.05178 3.01809 5.32725 2.27545 5.32725" sodipodi:nodetypes="cccc"/><rect id="shape08" fill="url(#gradient1)" fill-rule="evenodd" stroke-opacity="0" stroke="#000000" stroke-width="0" stroke-linecap="square" stroke-linejoin="bevel" width="600" height="600"/>
</svg>
