<?xml version="1.0" standalone="no"?>
<!DOCTYPE svg PUBLIC "-//W3C//DTD SVG 20010904//EN" "http://www.w3.org/TR/2001/REC-SVG-20010904/DTD/svg10.dtd">
<!-- Created using Krita: https://krita.org -->
<svg xmlns="http://www.w3.org/2000/svg" 
    xmlns:xlink="http://www.w3.org/1999/xlink"
    xmlns:krita="http://krita.org/namespaces/svg/krita"
    xmlns:sodipodi="http://sodipodi.sourceforge.net/DTD/sodipodi-0.dtd"
    width="600pt"
    height="600pt"
    viewBox="0 0 600 600">
<defs/>
<rect id="shape0" fill="#6bbdff" fill-rule="evenodd" stroke-opacity="0" stroke="#000000" stroke-width="0" stroke-linecap="square" stroke-linejoin="bevel" width="600" height="600"/><path id="shape01" transform="translate(59.60396857425, -162.489996630628)" fill="#adbbc8" fill-rule="evenodd" stroke-opacity="0" stroke="#000000" stroke-width="0" stroke-linecap="square" stroke-linejoin="bevel" d="M0 280.948C0.536517 276.667 9.98725 278.146 12.4995 278.554C25.2416 280.624 37.4551 281.359 50.0645 277.757C70.2856 271.979 89.3394 262.265 109.303 255.683C124.223 250.764 140.179 249.68 155.644 247.771C178.976 244.892 200.442 237.757 218.873 222.64C231.97 211.897 242.293 198.549 254.908 187.335C273.641 170.683 300.174 164.49 320.464 149.837C342.029 134.264 357.813 112.087 380.967 98.4434C405.658 83.8936 429.748 65.2489 439.408 37.0103C441.23 31.6849 444.977 23.6613 444.727 17.9285C444.521 13.2154 430.47 12.8402 427.706 12.4764C407.527 9.82039 387.069 9.76988 366.805 7.95517C317.71 3.55856 268.932 -0.465029 219.538 0.0435707C196.757 0.278137 173.698 4.03313 150.858 5.16318C133.278 6.03297 115.678 4.65417 98.134 5.82822C72.9482 7.51369 48.389 9.98811 23.9355 16.4659C17.4738 18.1776 4.08856 20.1846 4.18871 20.7872" sodipodi:nodetypes="cccccccccccccccccc"/><path id="shape1" transform="translate(40.123801637544, -136.863169291576)" fill="#818a93" fill-rule="evenodd" stroke-opacity="0" stroke="#000000" stroke-width="0" stroke-linecap="square" stroke-linejoin="bevel" d="M21.4086 221.612C13.1155 219.837 29.436 217.889 36.035 217.889C45.6838 217.889 55.139 216.662 64.7576 216.293C93.8791 215.175 124.64 215.784 153.383 210.376C187.889 203.884 199.925 189.882 223.859 167.492C246.528 146.285 274.936 132.233 299.653 113.838C316.72 101.137 329.739 83.9455 348.786 73.8134C368.189 63.4923 384.032 55.9424 397.056 37.711C401.631 31.3067 407.068 24.0836 406.231 15.7047C405.137 4.76586 387.812 8.52406 380.899 8.52406C356.716 8.52406 332.318 10.6031 308.163 9.0558C235.811 4.42103 162.888 0.547982 90.3542 0.0133473C60.2661 -0.208426 30.0367 2.40689 0 2.40689" sodipodi:nodetypes="ccccccccccccc"/><path id="shape2" transform="translate(55.4159926918543, -139.818487300513)" fill="#6e767e" fill-rule="evenodd" stroke-opacity="0" stroke="#000000" stroke-width="0" stroke-linecap="square" stroke-linejoin="bevel" d="M0 205.353C0 201.472 20.1022 199.734 23.7355 198.971C48.2382 193.822 73.6381 191.449 97.8674 185.075C119.435 179.401 141.065 176.011 161.03 165.395C181.299 154.617 197.524 137.758 216.878 125.968C230.825 117.473 250.077 111.817 262.421 101.502C276.921 89.3842 283.737 71.2122 297.992 58.8179C312.239 46.4299 331.107 40.127 344.598 26.6383C348.889 22.3484 356.47 14.1348 354.903 7.09146C353.82 2.21915 345.766 2.55097 342.271 2.17106C327.836 0.601517 313.411 1.22551 298.922 1.44011C267.567 1.90449 236.201 -0.53753 204.911 0.110032C178.512 0.656365 152.365 2.92877 125.925 2.23771C98.6199 1.52405 71.4437 1.96678 44.1466 2.23771C32.85 2.34983 21.6059 3.30118 10.3051 3.30118C8.36132 3.30118 -0.29513 1.8218 3.2578 5.56216" sodipodi:nodetypes="cccccccccccccccc"/><rect id="shape02" transform="translate(-5.65432010279369, 397.320306263137)" fill="#666666" fill-rule="evenodd" stroke-opacity="0" stroke="#000000" stroke-width="0" stroke-linecap="square" stroke-linejoin="bevel" width="621.75" height="292.5"/><path id="shape03" transform="translate(100.227627601374, 127.233624680338)" fill="none" stroke="#000000" stroke-width="1.5" stroke-linecap="square" stroke-linejoin="bevel" d="M0 17.9516C1.61302 24.4096 17.4271 24.338 22.4055 24.9323C45.4308 27.6808 68.5506 30.1893 91.6843 32.0463C138.752 35.8245 186.256 36.0626 233.3 32.6447C254.887 31.0763 276.432 31.8746 297.792 28.0568C324.498 23.2835 347.547 6.84453 373.719 0" sodipodi:nodetypes="cccccc"/><path id="shape11" transform="translate(63.3942405559567, 145.78361858965)" fill="none" stroke="#000000" stroke-width="1.5" stroke-linecap="square" stroke-linejoin="bevel" d="M0 0C5.0918 9.39825 18.119 12.0804 27.2592 15.8232C49.3408 24.8654 74.1021 28.7641 97.4682 33.1764C165.081 45.944 238.061 48.3062 305.77 35.7025C343.929 28.5993 379.046 12.5098 417.134 6.18309" sodipodi:nodetypes="ccccc"/><path id="shape21" transform="translate(57.7428900997539, 147.512129097249)" fill="none" stroke="#000000" stroke-width="1.5" stroke-linecap="square" stroke-linejoin="bevel" d="M0 1.99438C7.38858 10.2345 21.6964 9.34827 31.8463 10.1059C55.0789 11.8402 78.5591 14.112 101.724 16.7541C118.338 18.6491 134.904 21.448 151.522 23.403C174.049 26.0533 197.003 25.0129 219.604 26.7934C244.262 28.736 269.927 33.8959 294.733 30.7829C321.514 27.4219 344.231 17.7831 369.53 9.64011C381.307 5.84947 394.643 4.82466 405.898 0" sodipodi:nodetypes="cccccccc"/><path id="shape3" transform="translate(69.7098956860548, 138.270457239244)" fill="none" stroke="#000000" stroke-width="1.5" stroke-linecap="square" stroke-linejoin="bevel" d="M0 0C0 4.18592 19.5189 8.5466 23.6696 10.2385C46.9353 19.7219 69.3269 30.4863 92.1501 40.8888C113.431 50.5883 136.664 55.0932 159.368 60.1697C197.934 68.793 238.945 76.5047 278.577 73.3343C289.401 72.4684 300.426 68.4671 310.69 65.2227C345.429 54.2418 370.929 40.1081 400.846 19.946C409.746 13.9481 421.356 10.7088 429.568 4.25463" sodipodi:nodetypes="cccccccc"/><path id="shape4" transform="translate(95.957594435048, 155.09120822125)" fill="none" stroke="#000000" stroke-width="1.5" stroke-linecap="square" stroke-linejoin="bevel" d="M3.53834 16.6882C-11.3979 25.8778 25.4989 32.2813 30.0666 33.2431C63.7666 40.3387 98.1461 47.4996 132.522 50.1305C158.731 52.1363 185.21 57.6056 211.507 53.9207C237.012 50.347 263.677 45.1504 287.9 36.3017C319.468 24.7695 348.974 10.2376 381.047 0" sodipodi:nodetypes="cccccc"/><path id="shape5" transform="translate(84.6695681935639, 399.227936605853)" fill="none" stroke="#000000" stroke-width="0.75" stroke-linecap="square" stroke-linejoin="bevel" d="M0 0C24.0227 4.44974 44.1291 21.7503 68.4805 26.5282C155.528 43.6077 245.049 46.9714 332.697 31.382C357.211 27.0219 380.965 20.5702 404.768 13.4304C411.956 11.2743 423.597 10.5471 428.836 4.65453" sodipodi:nodetypes="ccccc"/><path id="shape6" transform="translate(32.67729048044, 400.558010793057)" fill="none" stroke="#000000" stroke-width="0.75" stroke-linecap="square" stroke-linejoin="bevel" d="M0 0C6.32506 11.8617 20.172 12.0611 31.913 14.893C46.5663 18.4274 60.8025 25.9531 74.7302 31.6471C142.173 59.2196 211.237 57.6584 282.965 52.2581C311.412 50.1165 339.772 48.8588 367.935 44.014C396.536 39.0937 425.715 32.9589 453.103 23.1371C459.308 20.9122 476.03 17.805 475.642 10.8369" sodipodi:nodetypes="ccccccc"/><path id="shape7" transform="translate(70.774101519759, 408.203740110359)" fill="none" stroke="#000000" stroke-width="0.75" stroke-linecap="square" stroke-linejoin="bevel" d="M0 21.342C1.70977 30.6313 18.8448 30.8711 26.1291 31.6479C52.507 34.4606 77.6971 42.6858 104.383 44.8116C130.555 46.8965 156.226 52.6197 182.638 51.5272C207.168 50.5125 231.749 46.1607 256.039 42.8173C289.566 38.2022 323.862 35.3026 356.565 26.1957C377.268 20.4307 396.213 9.5006 415.339 0" sodipodi:nodetypes="ccccccc"/><path id="shape8" transform="translate(31.057072233129, 422.830894071067)" fill="none" stroke="#000000" stroke-width="0.75" stroke-linecap="square" stroke-linejoin="bevel" d="M1.75352 0C-3.5968 9.12049 4.30349 12.9103 11.9254 16.6215C25.4307 23.1976 39.1337 28.9485 54.0117 31.6471C59.5259 32.6473 65.0944 33.3205 70.6332 34.174C78.127 35.3287 85.6162 36.8452 93.1719 37.4984C148.543 42.2857 205.995 49.5386 261.847 47.2718C300.929 45.6857 339.505 35.9183 377.6 27.9242C400.331 23.1543 423.456 21.4777 445.748 14.7597" sodipodi:nodetypes="cccccccc"/><path id="shape9" transform="translate(65.453435081145, 369.176756043645)" fill="none" stroke="#000000" stroke-width="0.75" stroke-linecap="square" stroke-linejoin="bevel" d="M3.99059 37.3651C2.59989 38.4429 0.0991339 39.0654 0.00183453 40.8221C-0.241665 45.2186 23.8304 55.8127 27.1277 57.0452C31.1466 58.5475 35.1689 60.0435 39.228 61.4332C74.3915 73.4718 114.145 75.3948 151.125 74.7969C175.762 74.3985 200.38 69.1808 224.725 65.8877C255.375 61.7419 287.113 59.7647 317.074 51.7257C360.31 40.1251 399.523 20.6494 439.01 0" sodipodi:nodetypes="cccccccc"/><path id="shape04" transform="translate(389.387471996857, -26.7730260934287)" fill="#1d1217" fill-rule="evenodd" stroke="#20171b" stroke-width="1.5" stroke-linecap="square" stroke-linejoin="bevel" d="M1.96283 173.727L48.1236 15.4497L222.143 0L216.69 644.783L0 638.741" sodipodi:nodetypes="ccccc"/><path id="shape12" transform="translate(-11.58410869494, -11.6558567038222)" fill="#c3ced7" fill-rule="evenodd" stroke-opacity="0" stroke="#000000" stroke-width="0" stroke-linecap="square" stroke-linejoin="bevel" d="M156.085 557.291L159.529 156.482L115.999 0L1.86696 0.906709L0 557.333" sodipodi:nodetypes="ccccc"/><path id="shape22" transform="translate(-8.78624111139737, -27.0146979514338)" fill="#1d1217" fill-rule="evenodd" stroke="#20171b" stroke-width="1.5" stroke-linecap="square" stroke-linejoin="bevel" d="M157.166 634.311L156.58 326.929L7.88698 0L0 637.08" sodipodi:nodetypes="cccc"/><path id="shape05" transform="translate(113.125538634776, 45.5566411009414)" fill="#140b10" fill-rule="evenodd" stroke="#1b0a13" stroke-width="1.5" stroke-linecap="square" stroke-linejoin="bevel" d="M81.2093 267.279C78.8988 267.279 74.0286 282.784 73.866 284.393C72.6764 296.168 72.1217 308.219 69.7439 319.831C63.9002 348.367 57.7606 377.385 56.181 406.529C54.9815 428.66 57.5372 450.996 58.6412 473.081C59.5785 491.832 60.6365 510.556 62.0982 529.262C62.5736 535.346 63.6251 541.702 62.8958 547.812C62.6334 550.01 62.6152 557.182 63.255 556.321C63.8949 555.459 20.5034 559.12 16.8874 558.317C13.2714 557.513 14.2679 550.782 14.228 548.077C14.0896 538.691 11.7236 529.717 10.8376 520.42C7.14883 481.711 0 442.863 0 404.002C0 384.986 4.89585 366.398 6.78147 347.556C7.98947 335.484 7.83174 323.372 9.30832 311.321C11.4138 294.137 16.5913 277.288 20.4777 260.458C23.7019 246.497 26.7167 230.134 34.0407 217.641C44.0898 200.5 60.1679 196.424 75.6612 187.124C91.8415 177.412 106.324 161.634 114.622 145.039C121.226 131.83 116.712 112.008 114.622 97.8994C110.998 73.4298 114.985 40.775 127.653 19.2463C142.843 -6.56513 187.925 -4.55391 206.739 14.26C210.484 18.5087 212.862 25.4182 214.817 30.7482C218.049 39.557 215.482 49.4454 216.745 58.6065C221.129 90.4042 198.411 115.4 202.45 143.709C203.623 151.927 205.667 161.369 209.963 168.641C217.506 181.405 234.374 185.018 245.999 191.711C264.436 202.327 272.575 205.843 284.473 223.236C291.677 234.464 308.464 281.11 309.007 301.157C309.75 328.567 305.238 351.719 305.238 379.203C305.238 417.558 301.366 455.973 299.787 494.291C299.277 506.644 297.421 518.746 296.795 530.991C296.643 533.962 295.818 566.533 293.386 558.678C290.361 560.018 256.279 558.625 257.234 557.103C257.234 570.362 257.036 528.123 257.036 525.672C257.036 511.42 254.805 496.799 253.712 482.589C252.347 464.857 249.967 446.251 251.717 428.469C252.774 417.729 255.73 406.076 255.44 395.359C255.173 385.48 253.911 376.994 253.113 367.102C252.797 363.186 251.038 351.632 249.938 347.131C248.839 343.295 83.5198 267.279 81.2093 267.279Z" sodipodi:nodetypes="cccccccccccccccccccccccccccccccccccccccc"/><path id="shape13" transform="translate(178.840177376102, 308.346370373003)" fill="#140b10" fill-rule="evenodd" stroke="#1b0a13" stroke-width="1.5" stroke-linecap="square" stroke-linejoin="bevel" d="M188.728 295.46C188.063 295.46 188.686 294.131 188.662 293.466C188.585 291.31 188.537 289.161 188.33 287.017C187.775 281.28 187.103 275.684 185.736 270.063C181.77 253.759 173.037 237.761 173.037 220.929C173.037 168.941 178.862 117.462 190.058 66.7476C193.56 50.8868 193.249 34.8693 194.778 18.8115C194.926 17.2637 195.249 2.85424 196.706 2.85424C198.163 2.85424 5.72972 0 1.43782 0C-2.85407 0 3.83007 59.7962 3.83007 63.0247C3.83007 72.6213 4.54792 81.7786 5.82445 91.2815C11.1947 131.259 13.1998 176.792 11.4092 217.206C10.5859 235.787 7.08346 254.083 6.22362 272.522C5.93579 278.695 6.62279 284.783 6.62279 290.939C6.62279 293.158 6.48979 295.377 6.35619 297.588C6.29685 298.57 5.87588 301.494 5.95775 300.513C6.10187 298.787 6.10695 299.344 7.08788 297.056" sodipodi:nodetypes="ccccccccccccccccc"/><path id="shape06" transform="translate(299.884359409739, 104.630666286427)" fill="#59ff00" fill-rule="evenodd" stroke-opacity="0" stroke="#000000" stroke-width="0" stroke-linecap="square" stroke-linejoin="bevel" d="M0 2.9657C0 -0.152158 10.002 -1.41267 10.9037 2.18439C11.6007 4.96463 5.2387 4.8516 4.00579 4.32855C2.75332 3.79722 -0.0951809 1.17624 0.38214 2.45026" sodipodi:nodetypes="cccc"/><path id="shape14" transform="translate(257.13698012666, 99.1523914614795)" fill="#59ff00" fill-rule="evenodd" stroke-opacity="0" stroke="#000000" stroke-width="0" stroke-linecap="square" stroke-linejoin="bevel" d="M9.68705 3.83981C9.68705 4.18164 7.34419 1.50456 6.74492 0.997468C5.29409 -0.230205 1.09994 -0.594364 0.0630573 1.4794C-0.785612 3.17674 7.19509 4.83699 8.20775 4.83699C8.81592 4.83699 9.64031 3.33246 9.78666 3.92275" sodipodi:nodetypes="ccccc"/>
</svg>
