<?xml version="1.0" encoding="UTF-8" standalone="no"?>
<svg
   width="720"
   height="720"
   viewBox="0 0 190.49999 190.50001"
   version="1.1"
   id="svg8"
   inkscape:version="1.1.2 (0a00cf5339, 2022-02-04)"
   sodipodi:docname="daphne.svgz"
   xmlns:inkscape="http://www.inkscape.org/namespaces/inkscape"
   xmlns:sodipodi="http://sodipodi.sourceforge.net/DTD/sodipodi-0.dtd"
   xmlns="http://www.w3.org/2000/svg"
   xmlns:svg="http://www.w3.org/2000/svg"
   xmlns:rdf="http://www.w3.org/1999/02/22-rdf-syntax-ns#"
   xmlns:cc="http://creativecommons.org/ns#"
   xmlns:dc="http://purl.org/dc/elements/1.1/">
  <defs
     id="defs2" />
  <sodipodi:namedview
     id="base"
     pagecolor="#ffffff"
     bordercolor="#666666"
     borderopacity="1.0"
     inkscape:pageopacity="0.0"
     inkscape:pageshadow="2"
     inkscape:zoom="0.35"
     inkscape:cx="400"
     inkscape:cy="560"
     inkscape:document-units="px"
     inkscape:current-layer="layer1"
     inkscape:document-rotation="0"
     showgrid="false"
     units="px"
     inkscape:pagecheckerboard="true"
     width="720px"
     objecttolerance="3" />
  <metadata
     id="metadata5">
    <rdf:RDF>
      <cc:Work
         rdf:about="">
        <dc:format>image/svg+xml</dc:format>
        <dc:type
           rdf:resource="http://purl.org/dc/dcmitype/StillImage" />
      </cc:Work>
    </rdf:RDF>
  </metadata>
  <g
     inkscape:label="Layer 1"
     inkscape:groupmode="layer"
     id="layer1">
    <path
       style="fill:none;fill-opacity:1;stroke:#000000;stroke-width:0.529167;stroke-linecap:square;stroke-linejoin:round;stroke-miterlimit:4;stroke-dasharray:none;stroke-dashoffset:26.6835;stroke-opacity:1"
       d="m 69.177171,74.738591 c 2.300377,4.715015 3.808396,11.727599 6.162471,16.435748 2.487363,4.974728 5.971514,7.380786 10.535219,10.121801 10.74774,6.45523 10.149181,7.86996 22.144389,0.67283 3.80596,-2.283582 8.84133,-5.238399 11.34504,-8.979298 3.72263,-5.562134 3.74171,-12.172804 6.05648,-18.021638"
       id="path17738"
       sodipodi:nodetypes="cssssc" />
    <path
       style="fill:none;fill-opacity:1;stroke:#000000;stroke-width:0.529167;stroke-linecap:square;stroke-linejoin:round;stroke-miterlimit:4;stroke-dasharray:none;stroke-dashoffset:26.6835;stroke-opacity:1"
       d="m 77.596295,49.149454 c -0.436295,2.39966 2.030537,21.82231 4.367694,20.66127 1.069084,-0.531092 1.133364,-7.062374 2.629297,-7.118945 0.365435,-0.01381 3.507251,6.271805 3.937743,6.80992 4.045466,5.056833 1.488602,-3.201855 4.281909,-2.565217 3.097971,0.706075 4.211412,5.199586 6.531901,6.553604 0.530886,0.309774 3.530341,-4.895085 4.421431,-5.444627 1.54709,-0.954104 4.87637,4.313179 5.84048,4.858618 1.21602,0.687959 4.31551,-3.026103 5.15317,-3.686599 1.0748,-0.847476 3.73475,3.97546 4.15272,4.497917 1.39753,1.746917 3.14745,-2.677605 6.19083,1.604036"
       id="path18415" />
    <path
       style="fill:none;fill-opacity:1;stroke:#000000;stroke-width:0.529167;stroke-linecap:square;stroke-linejoin:round;stroke-miterlimit:4;stroke-dasharray:none;stroke-dashoffset:26.6835;stroke-opacity:1"
       d="m 75.868235,43.651082 c -6.097807,8.133763 -10.214176,32.988633 -6.03064,43.447477"
       id="path18429" />
    <path
       style="fill:none;fill-opacity:1;stroke:#000000;stroke-width:0.529167;stroke-linecap:square;stroke-linejoin:round;stroke-miterlimit:4;stroke-dasharray:none;stroke-dashoffset:26.6835;stroke-opacity:1"
       d="M 79.819417,27.246916 C 63.460841,29.115869 52.809944,57.247334 51.431486,71.181184 50.388694,81.722015 53.478183,107.0518 59.578792,116.17275"
       id="path18439" />
    <path
       style="fill:none;fill-opacity:1;stroke:#000000;stroke-width:0.529167;stroke-linecap:square;stroke-linejoin:round;stroke-miterlimit:4;stroke-dasharray:none;stroke-dashoffset:26.6835;stroke-opacity:1"
       d="m 90.319033,27.797786 c 5.089941,-3.052638 11.988927,-2.40552 17.772557,-1.88619 8.22296,0.738364 12.60944,2.424128 18.62109,7.96954 5.12258,4.725297 -1.20694,-1.643732 3.10885,1.71359 1.60748,1.250487 2.48981,3.524552 3.73724,5.076693 7.69197,9.570926 8.60338,20.467555 11.51144,32.214055 1.53392,6.195914 2.83137,11.958624 3.3538,18.327563 0.25682,3.130856 1.15266,14.818213 -1.63401,16.675983"
       id="path18443" />
    <path
       style="fill:none;fill-opacity:1;stroke:#000000;stroke-width:0.529167;stroke-linecap:square;stroke-linejoin:round;stroke-miterlimit:4;stroke-dasharray:none;stroke-dashoffset:26.6835;stroke-opacity:1"
       d="m 79.723299,49.582503 c -0.272545,4.849829 1.067205,9.523603 1.898592,14.23479"
       id="path18445" />
    <path
       style="fill:none;fill-opacity:1;stroke:#000000;stroke-width:0.529167;stroke-linecap:square;stroke-linejoin:round;stroke-miterlimit:4;stroke-dasharray:none;stroke-dashoffset:26.6835;stroke-opacity:1"
       d="m 82.266813,48.848697 c 1.415502,6.535156 4.308541,12.3205 7.965405,17.84594"
       id="path18447" />
    <path
       style="fill:none;fill-opacity:1;stroke:#000000;stroke-width:0.529167;stroke-linecap:square;stroke-linejoin:round;stroke-miterlimit:4;stroke-dasharray:none;stroke-dashoffset:26.6835;stroke-opacity:1"
       d="m 101.72066,84.850117 c 1.70147,-3.440978 6.54262,-4.743042 10.11179,-4.296894 1.28349,0.160435 0.97933,0.68984 1.68336,1.097605 0.49625,0.28742 2.11449,-0.140041 2.75254,-0.140041"
       id="path18541" />
    <path
       style="fill:none;fill-opacity:1;stroke:#000000;stroke-width:0.529167;stroke-linecap:square;stroke-linejoin:round;stroke-miterlimit:4;stroke-dasharray:none;stroke-dashoffset:26.6835;stroke-opacity:1"
       d="m 103.65362,83.033692 c -0.5106,2.742459 3.67799,3.476471 5.54152,2.233713 1.20691,-0.804868 1.72815,-3.335457 0.94749,-4.460711"
       id="path18553" />
    <path
       style="fill:none;fill-opacity:1;stroke:#000000;stroke-width:0.529167;stroke-linecap:square;stroke-linejoin:round;stroke-miterlimit:4;stroke-dasharray:none;stroke-dashoffset:26.6835;stroke-opacity:1"
       d="m 108.72721,80.77569 c 0.49293,0.431773 0.59893,1.123275 0.59893,1.761389 0,3.619537 -5.18676,2.962114 -5.18676,-0.391448"
       id="path18557" />
    <path
       style="fill:none;fill-opacity:1;stroke:#000000;stroke-width:0.529167;stroke-linecap:square;stroke-linejoin:round;stroke-miterlimit:4;stroke-dasharray:none;stroke-dashoffset:26.6835;stroke-opacity:1"
       d="m 108.98275,83.251248 c -0.117,-0.06204 -1.08598,1.97176 -1.39578,1.646669 -0.34108,-0.35791 0.38017,-2.849568 0.68058,-3.2737 0.068,-0.09601 -1.77294,2.520918 -1.46167,2.398561 0.50506,-0.198532 1.18586,-1.68802 1.65726,-2.157751 0.15302,-0.152463 -0.38128,0.208116 -0.54906,0.344165 -0.60188,0.488074 -1.40454,1.424855 -2.1655,1.69318 -0.35177,0.124042 0.31245,-0.678916 0.50281,-0.999681 0.18722,-0.31546 0.8925,-1.167262 0.91261,-1.635043 0.004,-0.085 -0.12755,0.113898 -0.18035,0.18061 -0.46277,0.584698 -0.85413,1.158796 -1.46864,1.614887 -1.05925,0.78617 0.52521,-0.9911 0.83896,-1.319556 0.13012,-0.136216 -0.36709,0.102864 -0.52865,0.199728 -0.48908,0.293227 -0.78041,0.461497 -0.39765,-0.112654"
       id="path18559" />
    <path
       style="fill:none;fill-opacity:1;stroke:#000000;stroke-width:0.529167;stroke-linecap:square;stroke-linejoin:round;stroke-miterlimit:4;stroke-dasharray:none;stroke-dashoffset:26.6835;stroke-opacity:1"
       d="m 92.200573,85.08576 c -0.05455,-1.35545 -2.012574,-3.162117 -3.1981,-3.821769 -1.999586,-1.11261 -6.237929,-2.052401 -8.477931,-1.0924 -0.403153,0.17278 -0.62116,0.538752 -0.961183,0.76972 -0.06064,0.04119 -3.195072,-0.845008 -2.941421,0.167431"
       id="path18565"
       sodipodi:nodetypes="csssc" />
    <path
       style="fill:none;fill-opacity:1;stroke:#000000;stroke-width:0.529167;stroke-linecap:square;stroke-linejoin:round;stroke-miterlimit:4;stroke-dasharray:none;stroke-dashoffset:26.6835;stroke-opacity:1"
       d="m 82.762388,80.472607 c -0.484595,0.396425 -0.606862,0.41846 -0.847492,1.206127 -1.113668,3.645437 5.561875,5.743993 7.680409,0.584203"
       id="path18567" />
    <path
       style="fill:none;fill-opacity:1;stroke:#000000;stroke-width:0.529167;stroke-linecap:square;stroke-linejoin:round;stroke-miterlimit:4;stroke-dasharray:none;stroke-dashoffset:26.6835;stroke-opacity:1"
       d="m 83.873691,80.368478 c -0.573482,0.429416 -0.810459,1.251384 -0.859896,1.951045 -0.311589,4.409707 6.318041,1.141262 4.446498,-1.666049"
       id="path18569" />
    <path
       style="fill:none;fill-opacity:1;stroke:#000000;stroke-width:0.529167;stroke-linecap:square;stroke-linejoin:round;stroke-miterlimit:4;stroke-dasharray:none;stroke-dashoffset:26.6835;stroke-opacity:1"
       d="m 83.177868,82.296785 c 0.209945,-0.647547 0.550471,-1.214914 0.876689,-1.8048 0.815076,-1.473864 -0.322775,2.212089 -0.542343,2.436802 -0.04224,0.04323 0.09656,-0.07527 0.132292,-0.124023 0.481505,-0.656918 0.912561,-1.398696 1.38157,-2.047161 0.184689,-0.25536 -0.267682,0.57064 -0.404109,0.854729 -0.393536,0.819462 -0.823831,1.674034 -1.044123,2.561857 -0.0777,0.313166 0.329227,-0.555302 0.48059,-0.840259 0.422039,-0.794533 0.778184,-1.768596 1.292685,-2.499587 0.489376,-0.695291 -0.590381,2.68588 -0.508236,2.68588 0.562745,0 2.965633,-4.280201 1.579489,-2.260068 -1.016074,1.480807 0.05866,-0.115226 -0.570765,1.305346 -0.580083,1.309208 0.283787,-0.53639 0.767652,-1.04567 0.536265,-0.564433 -0.502468,1.029784 -0.155027,1.491379 0.06368,0.0846 0.126669,-0.169754 0.192492,-0.252696 0.287393,-0.362122 0.948473,-1.10405 1.136623,-1.292428"
       id="path18571" />
    <path
       style="fill:none;fill-opacity:1;stroke:#000000;stroke-width:0.529167;stroke-linecap:square;stroke-linejoin:round;stroke-miterlimit:4;stroke-dasharray:none;stroke-dashoffset:26.6835;stroke-opacity:1"
       d="m 114.70049,77.623426 c -1.998,-0.700599 -4.25762,-0.94328 -6.41615,-1.154452 -2.15447,-0.210772 -5.7492,-0.391104 -7.8375,0.139785 -0.0993,0.02524 -2.233839,0.639372 -1.831156,0.983661 0.364556,0.31169 2.942286,-0.304923 3.377056,-0.449843 2.6391,-0.8797 6.35965,-0.403286 9.03097,-0.02455 1.37351,0.194733 2.68232,0.973325 3.99149,0.973325"
       id="path18579"
       sodipodi:nodetypes="csssssc" />
    <path
       style="fill:none;fill-opacity:1;stroke:#000000;stroke-width:0.529167;stroke-linecap:square;stroke-linejoin:round;stroke-miterlimit:4;stroke-dasharray:none;stroke-dashoffset:26.6835;stroke-opacity:1"
       d="m 75.145801,78.39599 c 3.737499,-1.985949 8.940086,-1.815764 13.024784,-0.943872 0.395724,0.08447 4.711436,0.997789 4.489649,0.153093 -0.135459,-0.515908 -1.424102,-0.517138 -1.795498,-0.623863 -2.853404,-0.819962 -10.625372,-0.50337 -13.753165,-0.124283 -0.888783,0.10772 -2.83055,0.88146 -2.330091,1.736588"
       id="path18589"
       sodipodi:nodetypes="cssssc" />
    <path
       style="fill:none;fill-opacity:1;stroke:#000000;stroke-width:0.529167;stroke-linecap:square;stroke-linejoin:round;stroke-miterlimit:4;stroke-dasharray:none;stroke-dashoffset:26.6835;stroke-opacity:1"
       d="m 92.728189,80.881883 c 0.671407,0.73506 0.783661,1.920502 1.019318,2.863133 0.402047,1.60819 0.888354,3.102221 0.597379,4.844666 -0.226682,1.35744 -2.210538,1.376715 -1.231448,3.107304"
       id="path19088" />
    <path
       style="fill:none;fill-opacity:1;stroke:#000000;stroke-width:0.529167;stroke-linecap:square;stroke-linejoin:round;stroke-miterlimit:4;stroke-dasharray:none;stroke-dashoffset:26.6835;stroke-opacity:1"
       d="m 101.9731,84.794049 c 0.17323,-1.341469 0.76852,-2.020166 1.71252,-3.200163 0.96485,-1.206063 6.95849,-2.119435 8.41942,-1.638301 0.73962,0.24358 1.00595,1.629791 1.58208,1.822111 0.88474,0.295339 2.15496,-0.93772 3.20729,-0.674637"
       id="path19207"
       sodipodi:nodetypes="csssc" />
    <path
       style="fill:none;fill-opacity:1;stroke:#000000;stroke-width:0.529167;stroke-linecap:square;stroke-linejoin:round;stroke-miterlimit:4;stroke-dasharray:none;stroke-dashoffset:26.6835;stroke-opacity:1"
       d="m 113.2683,81.782779 c -0.32836,1.712042 -1.15452,3.038131 -2.91869,3.401761"
       id="path19423" />
    <path
       style="fill:none;fill-opacity:1;stroke:#000000;stroke-width:0.529167;stroke-linecap:square;stroke-linejoin:round;stroke-miterlimit:4;stroke-dasharray:none;stroke-dashoffset:26.6835;stroke-opacity:1"
       d="m 79.331076,81.510549 c 0.436509,0.890318 0.706358,2.097712 1.421254,2.811812 0.2657,0.265406 0.659307,0.425667 0.937636,0.69738"
       id="path19425" />
    <path
       style="fill:none;fill-opacity:1;stroke:#000000;stroke-width:0.529167;stroke-linecap:square;stroke-linejoin:round;stroke-miterlimit:4;stroke-dasharray:none;stroke-dashoffset:26.6835;stroke-opacity:1"
       d="M 92.200573,85.085758 C 92.140803,83.743823 91.171738,82.3479 90.151708,81.517857 88.613365,80.266044 84.068271,78.739655 82.12352,79.06378 c -0.870173,0.145029 -1.392373,0.527735 -2.125941,0.894517 -0.229467,0.114734 -0.291478,0.278355 -0.495858,0.386418 -0.214754,0.113554 -4.461454,-0.784375 -2.819667,0.313704"
       id="path20162" />
    <path
       style="fill:none;fill-opacity:1;stroke:#000000;stroke-width:0.529167;stroke-linecap:square;stroke-linejoin:round;stroke-miterlimit:4;stroke-dasharray:none;stroke-dashoffset:26.6835;stroke-opacity:1"
       d="m 88.392816,103.43519 c 1.202492,2.78211 1.920632,5.64659 2.736903,8.57684"
       id="path20279" />
    <path
       style="fill:none;fill-opacity:1;stroke:#000000;stroke-width:0.529167;stroke-linecap:square;stroke-linejoin:round;stroke-miterlimit:4;stroke-dasharray:none;stroke-dashoffset:26.6835;stroke-opacity:1"
       d="m 112.51556,99.704373 c 0.0594,3.558077 0.0479,7.518507 1.66115,10.689637"
       id="path20283" />
    <path
       style="fill:none;fill-opacity:1;stroke:#000000;stroke-width:0.529167;stroke-linecap:square;stroke-linejoin:round;stroke-miterlimit:4;stroke-dasharray:none;stroke-dashoffset:26.6835;stroke-opacity:1"
       d="m 146.79,107.88902 c -1.48952,1.27928 -2.71602,2.45359 -4.31686,3.52082 -3.88346,2.58897 3.38237,-7.14934 -2.12229,-2.33276 -1.03255,0.90348 -2.07563,1.64663 -2.95103,2.52204 -0.62279,0.62279 -3.99943,2.60043 -4.92204,1.93666 -0.84074,-0.60486 0.83133,-4.07494 -0.16955,-4.80511 -0.44254,-0.32284 -3.52657,2.45848 -3.85651,2.74129 -2.86561,2.45623 -0.0293,-1.91368 -2.11718,-1.66845 -2.91235,0.34207 -1.49364,4.30872 -4.11375,0.89744"
       id="path21129" />
    <path
       style="fill:none;fill-opacity:1;stroke:#000000;stroke-width:0.529167;stroke-linecap:square;stroke-linejoin:round;stroke-miterlimit:4;stroke-dasharray:none;stroke-dashoffset:26.6835;stroke-opacity:1"
       d="m 59.578792,116.17275 c 4.259289,8.31923 2.68342,-2.55016 3.096641,-2.58727 0.34694,-0.0312 4.66018,5.60666 6.73081,6.14469 0.270732,0.0704 -0.09127,-6.20968 0.311327,-6.2302 0.374062,-0.0191 4.583446,3.49975 4.594632,3.18051 0.03641,-1.03912 0.986118,-1.83118 1.451401,-2.76102 3.295288,-6.58546 2.740271,1.49062 6.290125,0.9179 2.541069,-0.40996 0.52351,-6.26925 6.908395,-2.01266"
       id="path21131" />
    <path
       style="fill:none;fill-opacity:1;stroke:#000000;stroke-width:0.529167;stroke-linecap:square;stroke-linejoin:round;stroke-miterlimit:4;stroke-dasharray:none;stroke-dashoffset:26.6835;stroke-opacity:1"
       d="M 89.385996,27.897404 C 86.223477,27.745862 81.353484,27.000451 78.827909,27.622619"
       id="path21135" />
    <path
       style="fill:none;fill-opacity:1;stroke:#000000;stroke-width:0.529167;stroke-linecap:square;stroke-linejoin:round;stroke-miterlimit:4;stroke-dasharray:none;stroke-dashoffset:26.6835;stroke-opacity:1"
       d="m 88.623025,30.42164 c -5.169866,0.912742 -8.585438,4.613458 -12.060642,8.088662"
       id="path21137" />
    <path
       style="fill:none;fill-opacity:1;stroke:#000000;stroke-width:0.529167;stroke-linecap:square;stroke-linejoin:round;stroke-miterlimit:4;stroke-dasharray:none;stroke-dashoffset:26.6835;stroke-opacity:1"
       d="m 89.466371,109.80105 c -0.928378,4.01835 -16.877613,11.52738 -19.648133,14.92369 -7.474178,9.16242 -9.12995,22.03553 -11.627476,33.68213 -1.325192,6.1797 -0.550447,12.6854 -1.071769,18.94871 -0.314124,3.77398 -0.795809,7.10296 -0.05064,10.74146"
       id="path21476"
       sodipodi:nodetypes="csssc" />
    <path
       style="fill:none;fill-opacity:1;stroke:#000000;stroke-width:0.529167;stroke-linecap:square;stroke-linejoin:round;stroke-miterlimit:4;stroke-dasharray:none;stroke-dashoffset:26.6835;stroke-opacity:1"
       d="m 112.1668,105.90671 c 5.97692,8.88049 17.33582,9.92096 23.58822,17.54828 1.56141,1.90478 3.86057,1.97638 4.91133,4.59507 3.23993,8.07452 3.01024,15.89707 4.82761,24.48016 1.10447,5.21621 2.49217,10.84379 2.86908,16.23157 0.0669,0.95659 0.88589,11.85624 0.80098,12.06851 -0.83305,2.08262 -1.06824,4.59486 -0.49816,6.87917"
       id="path21480" />
    <path
       style="fill:none;fill-opacity:1;stroke:#000000;stroke-width:0.529167;stroke-linecap:square;stroke-linejoin:round;stroke-miterlimit:4;stroke-dasharray:none;stroke-dashoffset:26.6835;stroke-opacity:1"
       d="m 90.070039,111.50777 c 4.389798,8.01436 20.981191,11.15506 23.764641,0.20609"
       id="path21619" />
    <path
       style="fill:none;fill-opacity:1;stroke:#000000;stroke-width:0.529167;stroke-linecap:square;stroke-linejoin:round;stroke-miterlimit:4;stroke-dasharray:none;stroke-dashoffset:26.6835;stroke-opacity:1"
       d="m 87.383563,112.24882 c 3.881575,0.71735 5.205992,4.58348 8.316675,6.36101 6.464082,3.69376 15.437282,1.84743 18.444312,-5.42411"
       id="path21621" />
    <path
       style="fill:none;fill-opacity:1;stroke:#000000;stroke-width:0.529167;stroke-linecap:square;stroke-linejoin:round;stroke-miterlimit:4;stroke-dasharray:none;stroke-dashoffset:26.6835;stroke-opacity:1"
       d="m 76.482463,147.74534 c 2.136169,3.51175 0.692502,4.85229 1.339114,8.98673 0.88451,5.65556 4.142947,11.56633 3.079655,17.47671 -1.388726,7.71934 -6.92337,16.39011 -4.684525,24.73225"
       id="path21669"
       sodipodi:nodetypes="cssc" />
    <path
       style="fill:none;fill-opacity:1;stroke:#000000;stroke-width:0.529167;stroke-linecap:square;stroke-linejoin:round;stroke-miterlimit:4;stroke-dasharray:none;stroke-dashoffset:26.6835;stroke-opacity:1"
       d="m 132.3857,147.84097 c 2.20684,10.50822 -3.13521,21.1625 -1.12254,31.5376 1.00905,5.20152 4.33583,9.5651 5.19317,14.64553"
       id="path21673" />
    <path
       style="fill:none;fill-opacity:1;stroke:#000000;stroke-width:0.529167;stroke-linecap:square;stroke-linejoin:round;stroke-miterlimit:4;stroke-dasharray:none;stroke-dashoffset:26.6835;stroke-opacity:1"
       d="m 134.11334,164.20392 c -0.63052,8.45592 2.70694,16.08765 2.70694,24.30691"
       id="path21675" />
    <path
       style="fill:none;fill-opacity:1;stroke:#000000;stroke-width:0.529167;stroke-linecap:square;stroke-linejoin:round;stroke-miterlimit:4;stroke-dasharray:none;stroke-dashoffset:26.6835;stroke-opacity:1"
       d="m 136.19616,126.95939 c -1.96414,4.96115 -2.01704,10.66808 -2.01704,16.09182"
       id="path22260" />
    <path
       style="fill:none;fill-opacity:1;stroke:#000000;stroke-width:0.529167;stroke-linecap:square;stroke-linejoin:round;stroke-miterlimit:4;stroke-dasharray:none;stroke-dashoffset:26.6835;stroke-opacity:1"
       d="m 131.10432,136.07306 c -0.0436,4.89463 1.11912,9.30844 1.28138,11.76791"
       id="path22266"
       sodipodi:nodetypes="cc" />
    <path
       style="fill:none;fill-opacity:1;stroke:#000000;stroke-width:0.529167;stroke-linecap:square;stroke-linejoin:round;stroke-miterlimit:4;stroke-dasharray:none;stroke-dashoffset:26.6835;stroke-opacity:1"
       d="m 77.380289,151.91734 c -1.841211,12.20491 -4.990901,25.92204 -2.399855,38.68498"
       id="path22590" />
    <path
       style="fill:none;fill-opacity:1;stroke:#000000;stroke-width:0.529167;stroke-linecap:square;stroke-linejoin:round;stroke-miterlimit:4;stroke-dasharray:none;stroke-dashoffset:26.6835;stroke-opacity:1"
       d="m 72.607452,125.52205 c 2.553113,7.65006 5.630664,16.03976 5.630664,24.32307"
       id="path22876" />
    <path
       style="fill:none;fill-opacity:1;stroke:#000000;stroke-width:0.529167;stroke-linecap:square;stroke-linejoin:round;stroke-miterlimit:4;stroke-dasharray:none;stroke-dashoffset:26.6835;stroke-opacity:1"
       d="m 115.04388,80.089427 c -0.34169,0.701082 -1.56113,0.40005 -1.84382,1.00924"
       id="path23379" />
    <path
       style="fill:none;fill-opacity:1;stroke:#000000;stroke-width:0.529167;stroke-linecap:square;stroke-linejoin:round;stroke-miterlimit:4;stroke-dasharray:none;stroke-dashoffset:26.6835;stroke-opacity:1"
       d="m 95.418586,95.572127 c 0.763799,-0.975405 1.533778,0.558705 2.442365,0.454311 0.733311,-0.08426 1.655858,-0.868585 2.260329,-0.465606"
       id="path24211"
       sodipodi:nodetypes="csc" />
  </g>
</svg>
