<?xml version="1.0" standalone="no"?>
<!DOCTYPE svg PUBLIC "-//W3C//DTD SVG 20010904//EN" "http://www.w3.org/TR/2001/REC-SVG-20010904/DTD/svg10.dtd">
<!-- Created using Krita: https://krita.org -->
<svg xmlns="http://www.w3.org/2000/svg" 
    xmlns:xlink="http://www.w3.org/1999/xlink"
    xmlns:krita="http://krita.org/namespaces/svg/krita"
    xmlns:sodipodi="http://sodipodi.sourceforge.net/DTD/sodipodi-0.dtd"
    width="720pt"
    height="720pt"
    viewBox="0 0 720 720">
<defs/>
<path id="shape1" transform="matrix(1.0000000252491 0 0 1.0000000252491 196.642350161447 26.2500017573615)" fill="#5f3e3c" stroke="#000000" stroke-width="1.5" stroke-linecap="square" stroke-linejoin="bevel" d="M237.702 262.031C241.082 262.031 255.899 257.542 257.108 258.75C260.05 261.692 252.489 278.684 260.858 274.5C276.537 266.66 280.937 265.908 281.108 266.25C282.492 269.019 279.662 273.587 278.858 276C278.066 278.376 279.704 276.936 281.108 276C281.862 277.508 283.641 279.233 285.608 278.25C307.512 267.298 313.242 252.147 318.608 228C321.681 214.17 318.071 201.102 314.858 188.25C296.207 113.644 288.417 7.10543e-15 192.608 0C73.5223 3.55271e-15 46.2293 18.0741 14.1077 130.5C2.18056 172.245 -23.9023 282 52.3577 282C53.3148 279.129 41.8577 270.561 41.8577 264.75C41.8577 263.267 56.3133 273.206 57.6077 274.5C59.0083 275.901 61.8637 276.628 63.6077 277.5C78.7476 285.07 70.1952 263.946 74.8577 265.5C84.3023 268.648 86.8405 282.607 96.1114 273.336C109.701 258.779 114.317 274.341 118.733 275.812C123.487 277.397 130.098 266.099 133.92 264.187C138.591 261.852 143.518 276.638 150.608 275.625C160.155 274.261 167.901 264.02 176.858 260.437C180.735 258.886 187.198 275.437 193.545 275.437C202.488 275.437 208.725 261.375 216.045 261.375C219.902 261.375 220.748 266.193 223.732 267.187C228.526 268.785 233.071 262.031 237.702 262.031Z" sodipodi:nodetypes="ccccccccccccccccccccccccc"/><path id="shape0" transform="translate(125.306931522754, 607.960377394893)" fill="#fff9e5" fill-rule="evenodd" stroke="#000000" stroke-width="1.5" stroke-linecap="square" stroke-linejoin="bevel" d="M5.41944 10.5371C4.57364 10.5371 0.359526 2.69036 0.118892 1.72783C-1.24987 -3.74723 9.62721 5.53964 10.8181 5.53964" sodipodi:nodetypes="ccc"/><path id="shape11" transform="translate(429.064496958955, 378.749987230909)" fill="none" stroke="#000000" stroke-width="1.5" stroke-linecap="square" stroke-linejoin="bevel" d="M35.9355 0C35.9355 36.0799 18.0616 82.7831 6.9378 123.614C0.0216806 149.001 -2.03512 156.368 2.1855 173.25C8.05159 196.353 28.4352 292.616 26.5605 345.75" sodipodi:nodetypes="cccc"/><path id="shape2" transform="translate(86.1089423026111, 248.405115977857)" fill="#fff9e5" fill-rule="evenodd" stroke="#000000" stroke-width="1.5" stroke-linecap="square" stroke-linejoin="bevel" d="M355.126 107.446C354.376 115.674 327.962 255.748 357.512 255.674C389.959 255.674 414.329 110.857 406.568 81.4601C398.391 51.9821 375.412 56.2491 352.985 45.2307C338.431 38.0807 321.404 37.8111 320.654 11.4565C319.904 -14.8981 245.573 10.7625 245.573 23.3302C245.573 35.8979 245.499 42.9187 240.004 45.3389C235.502 47.7254 215.985 53.5297 212.997 55.2088C207.849 57.5164 188.864 64.1776 178.641 71.8448C135.83 103.953 130.507 203.498 108.891 231.595C93.4491 251.671 66.4471 347.258 44.766 378.689C30.0923 378.071 24.7945 386.133 11.016 380.845C-6.95296 372.935 -1.51218 390.112 17.0402 393.029C47.735 397.013 73.4191 406.101 80.5785 389.845C107.715 350.709 139.007 273.362 149.391 252.595C159.531 232.315 164.296 210.69 175.641 193.345" sodipodi:nodetypes="cccccccccccccccc"/><path id="shape3" transform="translate(260.586209533226, 373.499987234018)" fill="none" stroke="#000000" stroke-width="1.5" stroke-linecap="square" stroke-linejoin="bevel" d="M20.6638 0C17.3845 0 14.4073 11.7629 13.1638 14.25C-2.67248 45.9225 -8.1015 61.2347 19.1638 88.5" sodipodi:nodetypes="ccc"/><path id="shape4" transform="translate(227.111239507301, 457.49998436435)" fill="none" stroke="#000000" stroke-width="1.5" stroke-linecap="square" stroke-linejoin="bevel" d="M48.1387 0C48.1387 22.4992 51.2146 45.3706 46.6387 68.25C39.5324 103.782 -13.2505 228.972 3.13876 261.75" sodipodi:nodetypes="ccc"/><path id="shape7" transform="translate(107.350896616344, 600.559989346887)" fill="#fff9e5" fill-rule="evenodd" stroke="#000000" stroke-width="1.5" stroke-linecap="square" stroke-linejoin="bevel" d="M14.6913 20.9869C10.5782 17.2746 -4.0627 0.132583 1.08277 0C3.3093 0 9.60191 5.82167 14.7576 9.71734C17.848 12.0524 26.2221 18.4462 27.2867 19.8599" sodipodi:nodetypes="cccc"/><path id="shape8" transform="translate(90.194217119728, 598.910130642216)" fill="#fff9e5" fill-rule="evenodd" stroke="#000000" stroke-width="1.5" stroke-linecap="square" stroke-linejoin="bevel" d="M24.8874 27.1445C16.0146 23.2996 -8.17561 -5.11271 2.80578 0.808627C5.15065 1.8685 14.9817 9.0899 20.9099 13.4885C25.3841 16.8082 29.72 19.057 33.903 22.1064" sodipodi:nodetypes="cccc"/><path id="shape9" transform="translate(81.0548511191916, 605.344991461837)" fill="#fff9e5" fill-rule="evenodd" stroke="#000000" stroke-width="1.5" stroke-linecap="square" stroke-linejoin="bevel" d="M29.7292 24.726C22.0055 23.3663 -2.21304 5.34871 0.163321 0.595986C0.915028 -2.30477 10.7194 6.04742 21.3202 11.3425C24.3843 12.8731 34.4767 17.2461 35.8829 18.9198" sodipodi:nodetypes="cccc"/><path id="shape01" transform="matrix(0.999999926407247 0 0 0.999999926407247 224.329623306759 628.441131354037)" fill="#595959" fill-rule="evenodd" stroke="#000000" stroke-width="1.5" stroke-linecap="square" stroke-linejoin="bevel" d="M235.467 96.5201C231.224 34.8214 232.474 30.674 223.269 27.0468C204.171 22.2724 58.4389 0 38.7141 0C33.245 0 12.4784 1.1854 14.8492 0C5.70038 9.14886 -2.83329e-13 82.5365 0 100.232" sodipodi:nodetypes="ccccc"/><path id="shape01" transform="matrix(0.999999963203623 0 0 0.999999963203623 283.450300545527 290.13257953564)" fill="#f8f1cb" fill-rule="evenodd" stroke="#000000" stroke-width="1.5" stroke-linecap="square" stroke-linejoin="bevel" d="M37.3994 8.44327C33.2049 25.0628 18.846 84.7283 12.7997 102.867C-7.49895 163.763 23.9764 241.16 8.29969 303.867C4.37649 319.56 0.0496904 346.82 0.0496904 361.617C0.0496904 361.867 -0.062113 362.144 0.0496904 362.367C6.2425 374.753 94.8625 384.679 99.7997 369.867C106.801 348.863 92.8425 310.332 88.5497 288.867C82.4139 258.189 84.7916 188.424 89.2997 156.867C95.9149 110.561 112.441 60.9836 124.374 25.8116C124.374 13.7416 153.853 -6.08774 130.175 1.80493C121.648 9.20955 100.559 21.9667 85.9246 21.9667C73.2276 21.9667 62.8098 22.2167 51.7183 18.5195C47.1432 16.9945 39.2059 11.8904 37.3994 8.44327Z" sodipodi:nodetypes="ccccccccccccc"/><path id="shape12" transform="matrix(0.999999963203623 0 0 0.999999963203623 316.178206832864 328.352586200809)" fill="none" stroke="#000000" stroke-width="1.5" stroke-linecap="square" stroke-linejoin="bevel" d="M0.714342 4.4999C-3.01582 4.4999 8.94849 -0.789373 11.5861 1.84825C23.1303 13.3924 18.0678 -3.06225 28.8218 0.522421C32.7518 1.8324 34.0904 10.1342 39.9384 8.67218C43.4272 7.79998 48.1552 -2.46727 52.4012 0.717209C55.8649 3.31499 56.8466 10.2223 59.9468 11.7724C67.5718 15.5849 67.23 -0.0987205 79.9784 12.6497" sodipodi:nodetypes="ccccccc"/><path id="shape21" transform="matrix(0.999999963203623 0 0 0.999999963203623 289.874990689165 638.07726769057)" fill="none" stroke="#000000" stroke-width="0.75" stroke-linecap="square" stroke-linejoin="bevel" d="M0 3.54771C22.3758 -7.64021 2.73592 11.6357 16.875 6.92271C19.8217 5.94049 24.8733 -1.49506 28.5 0.922708C30.8706 2.50312 30.8028 12.9227 34.5 12.9227C39.9772 12.9227 42.3715 1.52201 46.875 2.42271C53.2125 3.69021 57.0473 21.1018 65.25 8.79771C67.7168 5.09746 68.1171 5.28984 71.625 8.79771C73.272 10.4447 75.7973 13.5781 77.625 9.92271" sodipodi:nodetypes="cccccccc"/><path id="shape011" transform="translate(111.722430517078, 318.728380369291)" fill="#b7a7ba" fill-rule="evenodd" stroke="#000000" stroke-width="1.5" stroke-linecap="square" stroke-linejoin="bevel" d="M150.261 0C124.746 31.113 108.907 73.7529 98.6526 114.772C87.7909 158.218 86.008 150.16 67.9026 190.897C63.2994 201.254 21.9016 301.493 17.1478 301.493C5.23681 301.493 -2.56521 311.743 0.777576 321.772C5.02177 334.504 37.9058 337.333 48.7776 331.897C57.4819 327.545 91.4583 249.179 129.047 177.13C157.421 122.745 188.961 59.7208 196.528 60.3966" sodipodi:nodetypes="cccccccc"/><path id="shape11" transform="translate(229.875006415758, 291.145820661183)" fill="#b7a7ba" fill-rule="evenodd" stroke="#000000" stroke-width="1.5" stroke-linecap="square" stroke-linejoin="bevel" d="M32.1081 27.5826C45.8315 10.9255 68.5997 15.8119 87.5698 3.52468C94.0817 0.0616682 97.4778 -3.44517 96.8083 6.63451C98.2549 15.6397 97.4432 42.0571 96 56.1042C92.6651 76.274 94.0684 84.7741 85.125 111.604C66.4147 167.735 87.6443 243.757 76.125 301.354C71.3166 325.396 68.8221 355.71 58.125 377.104C56.7924 391.529 6.0258 378.493 0 368.104C4.875 315.723 42.1843 261.219 42.1843 200.47C42.1843 179.848 23.6056 138.456 28.9261 127.815C35.1932 115.281 48.8135 81.2528 50.6696 65.7663" sodipodi:nodetypes="ccccccccccc"/><path id="shape21" transform="translate(355.605020560867, 283.737863396642)" fill="#b7a7ba" fill-rule="evenodd" stroke="#000000" stroke-width="1.5" stroke-linecap="square" stroke-linejoin="bevel" d="M124.344 90.6752C113.577 101.442 112.039 128.175 107.903 142.648C96.1724 183.706 74.0323 203.525 81.387 247.653C87.5774 284.795 112.541 361.575 105.645 399.137C100.915 413.328 24.5588 407.752 17.895 401.012C10.02 389.209 4.39495 341.671 4.39495 308.762C4.39495 238.929 -4.4015 166.573 2.89498 137.762C7.64734 118.753 17.3015 76.7774 28.02 52.2622C41.5717 26.6846 56.7389 7.13597 62.2951 1.57973C68.084 -3.83416 70.8552 5.97097 92.52 11.3872C105 14.507 127.838 17.7103 136.02 38.0121" sodipodi:nodetypes="ccccccccccc"/><path id="shape02" transform="matrix(1.0000000058657 0 0 1.0000000058657 420.235742601043 321.750015997403)" fill="#b7a7ba" fill-rule="evenodd" stroke="#000000" stroke-width="1.5" stroke-linecap="square" stroke-linejoin="bevel" d="M23.1202 38.8744C16.5141 70.2305 -11.1968 152.01 5.01426 173.625C6.92164 176.168 21.789 191.725 25.2642 188.25C35.397 182.387 36.4123 179.252 40.0908 175.169C59.4798 144.643 85.4249 42.107 71.3892 0" sodipodi:nodetypes="ccccc"/><path id="shape02" transform="matrix(0.999999990863684 0 0 0.999999990863684 268.347025164974 295.500001601591)" fill="none" stroke="#000000" stroke-width="1.5" stroke-linecap="square" stroke-linejoin="bevel" d="M47.403 0C48.5429 13.2184 47.3385 28.2022 45.2546 50.5445C42.2174 83.1065 37.8376 116.896 34.653 123C29.1901 133.926 32.3477 203.529 34.4715 214.148C39.2865 235.041 31.082 344.816 0 375.898" sodipodi:nodetypes="ccccc"/><path id="shape13" transform="matrix(0.999999990863684 0 0 0.999999990863684 364.710958575279 287.062509177981)" fill="none" stroke="#000000" stroke-width="1.5" stroke-linecap="square" stroke-linejoin="bevel" d="M63.3515 0C58.5771 0 31.391 54.049 20.839 75.153C-12.2142 143.902 3.44862 235.959 5.45942 320.696C6.39007 347.493 7.69317 376.605 20.3087 401.836" sodipodi:nodetypes="cccc"/><path id="shape011" transform="translate(374.441219306102, 368.180498082607)" fill="none" stroke="#000000" stroke-width="1.5" stroke-linecap="square" stroke-linejoin="bevel" d="M1.16508 0.00118093C-0.88973 -0.130964 -0.199406 10.8839 3.02121 4.44267C4.49952 1.48605 3.20736 0.00118093 1.16508 0.00118093Z" sodipodi:nodetypes="ccc"/><path id="shape111" transform="translate(360.221515107045, 422.52481304797)" fill="none" stroke="#000000" stroke-width="1.5" stroke-linecap="square" stroke-linejoin="bevel" d="M0.00245258 1.60669C-0.0836033 4.41919 2.10895 12.9355 4.37768 3.8606C5.37059 -0.11108 0.00245258 -1.28903 0.00245258 1.60669Z" sodipodi:nodetypes="ccc"/><path id="shape22" transform="translate(359.154723089868, 494.329711775066)" fill="none" stroke="#000000" stroke-width="1.5" stroke-linecap="square" stroke-linejoin="bevel" d="M0.00153311 1.2328C-0.0117473 3.93827 4.12653 13.5693 4.12653 2.9203C4.12653 -0.852005 -0.0920131 -0.4545 0.00153311 1.2328Z" sodipodi:nodetypes="ccc"/><path id="shape31" transform="translate(361.18268284116, 549.914227399161)" fill="none" stroke="#000000" stroke-width="1.5" stroke-linecap="square" stroke-linejoin="bevel" d="M1.56309 0.303228C-1.41124 0.303228 0.599564 8.47477 1.56309 7.99301C4.17526 6.68693 5.53498 -1.68272 1.56309 0.303228Z" sodipodi:nodetypes="ccc"/><path id="shape41" transform="translate(363.075116114848, 604.48746711919)" fill="none" stroke="#000000" stroke-width="1.5" stroke-linecap="square" stroke-linejoin="bevel" d="M1.32797 0.0225658C-1.3787 0.552896 0.40496 9.0331 3.51558 7.91123C6.34808 7.06747 4.17849 -0.463907 1.32797 0.0225658Z" sodipodi:nodetypes="ccc"/><path id="shape5" transform="translate(368.409983223953, 656.250039661165)" fill="none" stroke="#000000" stroke-width="1.5" stroke-linecap="square" stroke-linejoin="bevel" d="M0.215039 0.375C-0.122833 0.0371272 -0.764263 7.31987 4.67724 8.25357C6.40014 6.26416 2.27659 0 0.215039 0" sodipodi:nodetypes="ccc"/><path id="shape6" transform="translate(317.734269890748, 366.187503141421)" fill="none" stroke="#000000" stroke-width="1.5" stroke-linecap="square" stroke-linejoin="bevel" d="M0.265733 0C-0.189548 0 0.0782329 2.59055 0.0782329 3.375" sodipodi:nodetypes="cc"/><path id="shape71" transform="translate(306.187502626698, 420.187503604672)" fill="none" stroke="#000000" stroke-width="1.5" stroke-linecap="square" stroke-linejoin="bevel" d="M0.75 0C0.0944698 0 0 2.45566 0 3" sodipodi:nodetypes="cc"/><path id="shape81" transform="translate(304.05264762318, 496.654147330862)" fill="none" stroke="#000000" stroke-width="1.5" stroke-linecap="square" stroke-linejoin="bevel" d="M0.622 0C-0.326082 0 0.0916701 2.31334 0.0916701 3.18198" sodipodi:nodetypes="cc"/><path id="shape91" transform="translate(305.470122808197, 551.012947218257)" fill="none" stroke="#000000" stroke-width="1.5" stroke-linecap="square" stroke-linejoin="bevel" d="M0 0C0 1.06066 0 2.12132 0 3.18198" sodipodi:nodetypes="cc"/><path id="shape10" transform="translate(299.371347447608, 603.515665890838)" fill="none" stroke="#000000" stroke-width="1.5" stroke-linecap="square" stroke-linejoin="bevel" d="M0.53033 0C0.53033 1.27326 0.885959 3.35668 0 4.24264" sodipodi:nodetypes="cc"/><path id="shape111" transform="translate(287.437499382802, 650.249998603755)" fill="none" stroke="#000000" stroke-width="1.5" stroke-linecap="square" stroke-linejoin="bevel" d="M0.9375 0C0.514215 0.423285 0 2.40473 0 3" sodipodi:nodetypes="cc"/><path id="shape82" transform="translate(269.999552045024, 102.94960265992)" fill="#fff9e5" stroke="#000000" stroke-width="1.5" stroke-linecap="square" stroke-linejoin="bevel" d="M124.533 0C126.872 0.88814 136.39 47.4834 144.955 60.3307C146.74 63.0083 153.423 36.3513 153.955 36.7057C162.78 44.3129 164.051 76.4513 164.871 76.3019C167.257 75.639 167.865 70.4683 170.44 70.4683C171.711 70.4683 170.613 79.5542 169.627 80.5399C166.252 100.335 152.695 140.152 144.376 153.175C131.925 173.407 100.274 188.107 87.3754 188.05C74.2786 188.573 36.3536 169.268 25.5004 151.675C14.9463 135.844 8.26813 114.549 2.32494 96.7197C1.92382 95.5163 -1.44786 87.5252 0.722893 87.5252C3.50542 79.1772 61.242 52.5655 63.4127 52.8307C67.3282 54.1359 62.5955 70.8307 63.5795 70.8307C71.4641 70.8307 83.4662 57.9459 88.7045 53.5807C93.6618 49.4496 102.204 39.7057 102.204 39.7057C102.204 39.7057 96.9545 64.4557 96.9545 64.4557C96.9545 64.4557 101.582 58.8015 103.704 55.8307C114.454 40.7803 120.86 19.5901 124.533 0Z" sodipodi:nodetypes="cccccccccccccccccc"/><path id="shape23" transform="translate(371.238814646224, 189.618327211264)" fill="#ffffff" stroke="#000000" stroke-width="1.5" stroke-linecap="square" stroke-linejoin="bevel" d="M3.39391 15.8768C12.7304 27.0705 32.8948 21.6144 40.8277 13.233C29.8119 -12.2514 -1.28426 5.00163 0.041094 15.8895" sodipodi:nodetypes="ccc"/><path id="shape32" transform="translate(375.910794621241, 189.77014825398)" fill="#95b9b7" stroke="#000000" stroke-width="1" stroke-linecap="square" stroke-linejoin="bevel" d="M27.4505 5.87784C31.9349 22.8623 -1.79955 29.2104 0.0754512 8.31534C0.492045 4.25822 23.0987 -6.73144 27.4505 5.87784Z" sodipodi:nodetypes="ccc"/><path id="shape42" transform="translate(300.089791240386, 189.174779226072)" fill="#ffffff" stroke="#000000" stroke-width="1.5" stroke-linecap="square" stroke-linejoin="bevel" d="M41.361 16.1777C32.9238 -5.16949 -0.113569 -5.05811 0.000293601 14.5474C11.3737 26.7248 30.8194 26.2904 38.8812 16.1456" sodipodi:nodetypes="ccc"/><path id="shape61" transform="translate(307.901636532103, 190.075039405898)" fill="#95b9b7" stroke="#000000" stroke-width="1" stroke-linecap="square" stroke-linejoin="bevel" d="M0.76931 6.14709C-5.91448 29.3258 33.3264 26.1249 27.0206 7.20775C24.2945 -0.572462 3.74079 -3.64078 0.76931 6.14709Z" sodipodi:nodetypes="ccc"/><path id="shape13" transform="translate(348.060492466637, 221.140177337237)" fill="none" stroke="#000000" stroke-width="1.5" stroke-linecap="square" stroke-linejoin="bevel" d="M1.27085 0C-6.13345 7.4043 21.3986 8.75557 17.5834 1.125" sodipodi:nodetypes="cc"/><path id="shape03" transform="translate(351.375013744181, 244.659082641344)" fill="none" stroke="#000000" stroke-width="1.5" stroke-linecap="square" stroke-linejoin="bevel" d="M0 11.6534C0 -20.7789 25.5699 26.1259 0.375 13.5284" sodipodi:nodetypes="cc"/><path id="shape04" transform="matrix(0.999999965348966 0 0 0.999999965348966 371.90395355636 187.527089271131)" fill="#000000" fill-rule="evenodd" stroke-opacity="0" stroke="#000000" stroke-width="0" stroke-linecap="square" stroke-linejoin="bevel" d="M42.6816 18.9039C43.0829 18.9924 41.8777 14.5051 41.5907 13.8526C30.0805 -12.3197 -1.25426 4.70607 0.038855 15.329C0.698972 18.7807 6.73378 0.222478 26.634 3.69626C38.1539 6.00024 38.1051 20.1148 42.6816 18.9039Z" sodipodi:nodetypes="ccccc"/><path id="shape14" transform="matrix(0.999999965348966 0 0 0.999999965348966 298.76482671266 187.782642677972)" fill="#000000" fill-rule="evenodd" stroke-opacity="0" stroke="#000000" stroke-width="0" stroke-linecap="square" stroke-linejoin="bevel" d="M43.1548 15.3198C43.2965 16.2576 41.7901 17.7931 40.3289 15.1861C34.5165 2.56525 4.92015 -3.09841 2.53366 16.2657C2.52753 16.5257 2.2794 20.0304 0.391443 19.9674C-0.548787 19.8724 0.504088 14.5251 0.473926 14.0742C1.94515 -4.28236 34.9198 -5.51565 43.1548 15.3198Z" sodipodi:nodetypes="cccccc"/><path id="shape012" transform="matrix(0.999999990737535 0 0 0.999999990737535 369.034392724605 166.989849093803)" fill="#5f3e3c" fill-rule="evenodd" stroke="#000000" stroke-width="1.5" stroke-linecap="square" stroke-linejoin="bevel" d="M53.6387 18.7583C57.4047 5.10262 20.1921 -9.27877 3.15313 7.76016C-0.303182 11.2165 -1.81143 17.0921 3.34062 11.9401C39.8789 -9.61101 52.6506 21.7448 53.6387 18.7583Z" sodipodi:nodetypes="cccc"/><path id="shape112" transform="matrix(0.999999990737535 0 0 0.999999990737535 289.560614019758 165.930922863253)" fill="#5f3e3c" fill-rule="evenodd" stroke="#000000" stroke-width="1.5" stroke-linecap="square" stroke-linejoin="bevel" d="M0.529943 20.7452C-4.34232 13.0549 25.2913 -17.0535 52.0644 13.2414C53.8911 18.6733 36.9624 5.47049 25.3229 4.83537C12.0142 4.12211 2.27866 20.0148 0.529943 20.7452Z" sodipodi:nodetypes="cccc"/><path id="shape0111" transform="translate(411.829672314465, 217.875001892768)" fill="none" stroke="#000000" stroke-width="1.5" stroke-linecap="square" stroke-linejoin="bevel" d="M0.57658 0C0.793658 0.651233 -0.890737 -0.623567 0.67033 0.9375" sodipodi:nodetypes="cc"/><path id="shape51" transform="matrix(1.00000001546518 0 0 1.00000001546518 331.782221345343 237.587888115909)" fill="#fff8e2" fill-rule="evenodd" stroke="#000000" stroke-width="1.5" stroke-linecap="square" stroke-linejoin="bevel" d="M114.468 266.412C64.7028 266.412 65.5217 107.787 42.6308 73.4507C28.4917 57.4173 15.0716 62.7659 4.21779 55.0996C-5.09654 47.8276 1.60884 1.77265 18.5008 0C19.5532 0.80719 68.0867 14.6759 74.7158 47.7297C79.3322 67.4627 130.218 172.871 130.218 216.162" sodipodi:nodetypes="cccccc"/><path id="shape15" transform="matrix(1.00000001546518 0 0 1.00000001546518 290.411096967417 214.43087187277)" fill="#fff8e2" fill-rule="evenodd" stroke="#000000" stroke-width="1.5" stroke-linecap="square" stroke-linejoin="bevel" d="M60.5018 23.505C54.066 21.6222 5.87307 -1.59987 2.59625 0.0876275C-6.89426 5.12576 12.5396 14.8705 14.5287 15.7324C16.5093 16.4927 41.6895 27.932 50.4639 32.3191" sodipodi:nodetypes="cccc"/><path id="shape24" transform="matrix(1.00000001546518 0 0 1.00000001546518 278.212123031971 224.31971388041)" fill="#fff8e2" fill-rule="evenodd" stroke="#000000" stroke-width="1.5" stroke-linecap="square" stroke-linejoin="bevel" d="M60.9754 25.4303C49.2471 25.4303 2.42246 -0.686599 1.02157 0.0138413C-2.62972 7.37074 4.54556 12.9622 6.30995 13.7985C7.62752 14.851 24.5116 24.6956 33.5954 27.7235C41.6786 30.418 49.0408 35.3733 56.8504 38.5553" sodipodi:nodetypes="ccccc"/><path id="shape33" transform="matrix(1.00000001546518 0 0 1.00000001546518 276.115631845472 242.327838833374)" fill="#fff8e2" fill-rule="evenodd" stroke="#000000" stroke-width="1.5" stroke-linecap="square" stroke-linejoin="bevel" d="M57.8598 23.6327C50.1884 20.5832 49.6761 21.1714 32.6275 14.3519C31.9459 14.0793 2.33604 -0.790854 1.51218 0.0330062C-10.4481 11.9933 52.2475 33.745 59.4091 37.4213" sodipodi:nodetypes="cccc"/><path id="shape43" transform="matrix(1.00000001546518 0 0 1.00000001546518 291.15034981633 267.431912435142)" fill="#fff8e2" fill-rule="evenodd" stroke="#000000" stroke-width="1.5" stroke-linecap="square" stroke-linejoin="bevel" d="M43.9122 13.6306C32.0828 12.5056 0.188362 -3.36726 0.000862313 0.649941C-0.186638 11.3725 30.2471 19.1619 48.4121 27.6931" sodipodi:nodetypes="ccc"/><path id="shape05" transform="matrix(1.00000001546518 0 0 1.00000001546518 369.636936923493 210.805411956613)" fill="#fff8e2" fill-rule="evenodd" stroke="#000000" stroke-width="1.5" stroke-linecap="square" stroke-linejoin="bevel" d="M37.6131 76.8196C35.9016 68.9482 31.788 52.7751 25.2381 39.5071C19.5615 28.0081 12.0416 17.7137 9.81427 13.2591C9.48037 12.5912 6.3008 0.243861 5.57163 0.000805408C-7.58373 -0.196815 7.27207 36.0402 2.91998 34.2071" sodipodi:nodetypes="ccccc"/><path id="shape06" transform="translate(341.080297803836, 236.527229114061)" fill="#b6aab9" fill-rule="evenodd" stroke="#000000" stroke-width="1.5" stroke-linecap="square" stroke-linejoin="bevel" d="M104.795 273.253C65.7765 281.503 43.441 114.944 35.7192 84.0573C28.0018 58.8128 3.42491 65.7384 1.29473 59.7228C-5.355 39.7736 14.7217 1.71792 36.117 3.97747C40.9246 4.29039 44.6364 0 47.3865 0C55.602 8.21551 61.471 32.01 72.5447 61.2228C91.476 111.164 114.074 164.6 124.55 212.928" sodipodi:nodetypes="ccccccc"/><path id="shape07" transform="translate(367.887634931468, 306.240107917011)" fill="none" stroke="#000000" stroke-width="1.5" stroke-linecap="square" stroke-linejoin="bevel" d="M0.00220094 0C-0.188847 0 12.1167 8.13705 13.9234 12.9931" sodipodi:nodetypes="cc"/><path id="shape16" transform="translate(460.463013952159, 428.118396980043)" fill="none" stroke="#000000" stroke-width="1.5" stroke-linecap="square" stroke-linejoin="bevel" d="M0 0C3.99793 3.99793 6.49752 8.48724 9.01561 13.5234" sodipodi:nodetypes="cc"/><path id="shape25" transform="translate(460.463013952159, 427.241534294901)" fill="none" stroke="#000000" stroke-width="1.5" stroke-linecap="square" stroke-linejoin="bevel" d="M0 0.876863C3.7841 -1.96121 6.79469 2.99818 9.81111 2.99818" sodipodi:nodetypes="cc"/><path id="shape34" transform="translate(120.640170751133, 620.221015854378)" fill="none" stroke="#000000" stroke-width="1.5" stroke-linecap="square" stroke-linejoin="bevel" d="M8.76037 0C7.03679 4.03779 0 7.30863 0 7.97502" sodipodi:nodetypes="cc"/><path id="shape52" transform="translate(150.937500726397, 624.375003004847)" fill="none" stroke="#000000" stroke-width="1.5" stroke-linecap="square" stroke-linejoin="bevel" d="M0 23.25C3.97357 22.27 21.2871 5.0664 21.75 0" sodipodi:nodetypes="cc"/><path id="shape013" transform="translate(347.474277505218, 241.875006185006)" fill="none" stroke="#000000" stroke-width="0.75" stroke-linecap="square" stroke-linejoin="bevel" d="M1.46323 56.8125C-2.79777 56.8125 3.50832 36.4665 4.46323 34.875C24.4231 -5.48 32.1912 11.2771 44.0257 0" sodipodi:nodetypes="ccc"/><path id="shape113" transform="translate(117.365329483376, 628.196031875977)" fill="none" stroke="#000000" stroke-width="0.75" stroke-linecap="square" stroke-linejoin="bevel" d="M3.27484 0C-1.65504 7.3949 -0.241114 12.1141 2.44718 20.179" sodipodi:nodetypes="cc"/><path id="shape211" transform="translate(112.875005461935, 636.375030793701)" fill="none" stroke="#000000" stroke-width="0.75" stroke-linecap="square" stroke-linejoin="bevel" d="M0 0C1.22381 0 2.3686 1.875 3.75 1.875" sodipodi:nodetypes="cc"/><path id="shape31" transform="translate(113.625005498227, 627.392927969611)" fill="none" stroke="#000000" stroke-width="0.75" stroke-linecap="square" stroke-linejoin="bevel" d="M0 0.169603C0 -0.839247 4.62305 2.9821 5.0625 2.9821" sodipodi:nodetypes="cc"/><path id="shape44" transform="translate(119.812505797636, 623.789505372722)" fill="none" stroke="#000000" stroke-width="0.75" stroke-linecap="square" stroke-linejoin="bevel" d="M0 0.0230248C0 -0.281638 2.69021 2.52573 3.375 3.21052" sodipodi:nodetypes="cc"/><path id="shape51" transform="translate(379.318590310899, 239.97436157383)" fill="none" stroke="#000000" stroke-width="0.75" stroke-linecap="square" stroke-linejoin="bevel" d="M0 0C0 2.03226 4.50781 3.81751 4.50781 5.56847" sodipodi:nodetypes="cc"/><path id="shape62" transform="translate(369.776034902675, 242.758594498167)" fill="none" stroke="#000000" stroke-width="0.75" stroke-linecap="square" stroke-linejoin="bevel" d="M0.129196 0C-0.765321 0 3.25751 4.7193 3.84151 5.3033" sodipodi:nodetypes="cc"/><path id="shape72" transform="translate(360.664302074244, 248.989972947874)" fill="none" stroke="#000000" stroke-width="0.75" stroke-linecap="square" stroke-linejoin="bevel" d="M0.0927355 0C-0.764842 0 4.5938 4.89881 5.13087 5.43588" sodipodi:nodetypes="cc"/><path id="shape83" transform="translate(353.290516554935, 256.81234164006)" fill="none" stroke="#000000" stroke-width="0.75" stroke-linecap="square" stroke-linejoin="bevel" d="M0.439647 0C-2.54011 0 10.7114 5.17072 7.73168 5.17072" sodipodi:nodetypes="cc"/><path id="shape92" transform="translate(348.754339500335, 263.30888513018)" fill="none" stroke="#000000" stroke-width="0.75" stroke-linecap="square" stroke-linejoin="bevel" d="M0.0702711 0C-0.784365 0 6.42575 6.09031 7.09714 6.76171" sodipodi:nodetypes="cc"/><path id="shape101" transform="translate(344.566684499959, 272.722244064844)" fill="none" stroke="#000000" stroke-width="0.75" stroke-linecap="square" stroke-linejoin="bevel" d="M0.0152856 0C-0.338748 0 5.56521 5.41735 6.51183 6.36396" sodipodi:nodetypes="cc"/><path id="shape114" transform="translate(341.923991982235, 283.063680640954)" fill="none" stroke="#000000" stroke-width="0.75" stroke-linecap="square" stroke-linejoin="bevel" d="M0.536658 0C-1.87587 0 4.48809 3.44715 6.90062 3.44715" sodipodi:nodetypes="cc"/><path id="shape12" transform="translate(342.328067173276, 292.477039575618)" fill="none" stroke="#000000" stroke-width="0.75" stroke-linecap="square" stroke-linejoin="bevel" d="M0 0C0 2.09856 3.10149 2.78423 4.77297 2.78423" sodipodi:nodetypes="cc"/><path id="shape131" transform="translate(274.180645692199, 359.298621772659)" fill="none" stroke="#000000" stroke-width="1.5" stroke-linecap="square" stroke-linejoin="bevel" d="M3.18198 8.48528C3.18198 5.36615 1.32217 2.64433 0 0" sodipodi:nodetypes="cc"/><path id="shape14" transform="translate(439.874997443807, 355.499997934126)" fill="none" stroke="#000000" stroke-width="1.5" stroke-linecap="square" stroke-linejoin="bevel" d="M1.875 13.5C1.875 10.13 1.52171 3.04342 0 0" sodipodi:nodetypes="cc"/><path id="shape15" transform="translate(312.818607842845, 353.995327415633)" fill="none" stroke="#000000" stroke-width="0.75" stroke-linecap="square" stroke-linejoin="bevel" d="M0.341303 3.18198C-2.26877 0.571904 10.9479 3.69121 10.9479 0" sodipodi:nodetypes="cc"/><path id="shape16" transform="translate(314.750901604761, 338.085425059874)" fill="none" stroke="#000000" stroke-width="0.75" stroke-linecap="square" stroke-linejoin="bevel" d="M0 4.24264C3.41177 4.24264 8.85281 1.53981 11.9324 0" sodipodi:nodetypes="cc"/><path id="shape17" transform="translate(316.076726801075, 322.971017821904)" fill="none" stroke="#000000" stroke-width="0.75" stroke-linecap="square" stroke-linejoin="bevel" d="M0 4.50781C3.71869 4.50781 9.60632 3.59154 11.4021 0" sodipodi:nodetypes="cc"/><path id="shape18" transform="translate(315.546396722549, 306.265620348357)" fill="none" stroke="#000000" stroke-width="0.75" stroke-linecap="square" stroke-linejoin="bevel" d="M0 6.89429C3.50205 6.89429 10.8718 4.33324 10.8718 0" sodipodi:nodetypes="cc"/><path id="shape19" transform="translate(316.515731067313, 294.863523660063)" fill="none" stroke="#000000" stroke-width="0.75" stroke-linecap="square" stroke-linejoin="bevel" d="M0.621655 3.71231C-2.22467 3.71231 5.46512 0 8.31144 0" sodipodi:nodetypes="cc"/><path id="shape20" transform="translate(312.364411304604, 376.004019719804)" fill="none" stroke="#000000" stroke-width="0.75" stroke-linecap="square" stroke-linejoin="bevel" d="M0 0C2.82506 0 5.7273 0.265165 8.48528 0.265165" sodipodi:nodetypes="cc"/><path id="shape212" transform="translate(309.182430883844, 394.03524210411)" fill="none" stroke="#000000" stroke-width="0.75" stroke-linecap="square" stroke-linejoin="bevel" d="M0 0C2.20971 0 4.41942 0 6.62913 0" sodipodi:nodetypes="cc"/><path id="shape22" transform="translate(306.265615498148, 409.414814137783)" fill="none" stroke="#000000" stroke-width="0.75" stroke-linecap="square" stroke-linejoin="bevel" d="M0 0C2.22287 0 3.38516 1.85616 5.83363 1.85616" sodipodi:nodetypes="cc"/><path id="shape23" transform="translate(300.431984726754, 432.484172188293)" fill="none" stroke="#000000" stroke-width="0.75" stroke-linecap="square" stroke-linejoin="bevel" d="M0 0.265165C2.40925 0.265165 4.90521 0 7.15946 0" sodipodi:nodetypes="cc"/><path id="shape24" transform="translate(299.812501733739, 450.749998613975)" fill="none" stroke="#000000" stroke-width="0.75" stroke-linecap="square" stroke-linejoin="bevel" d="M0 1.125C3.00325 1.125 10.1283 0 7.125 0" sodipodi:nodetypes="cc"/><path id="shape25" transform="translate(300.937501740245, 466.312502696566)" fill="none" stroke="#000000" stroke-width="0.75" stroke-linecap="square" stroke-linejoin="bevel" d="M0 1.3125C1.78121 1.3125 4.97084 1.21666 6.1875 0" sodipodi:nodetypes="cc"/><path id="shape26" transform="translate(302.06250174675, 486.187502811498)" fill="none" stroke="#000000" stroke-width="0.75" stroke-linecap="square" stroke-linejoin="bevel" d="M0 1.6875C1.23412 1.6875 3.99377 0.881226 4.875 0" sodipodi:nodetypes="cc"/><path id="shape27" transform="translate(302.625017674277, 509.812529774695)" fill="none" stroke="#000000" stroke-width="0.75" stroke-linecap="square" stroke-linejoin="bevel" d="M0 0.5625C0 0.107881 5.01561 0 5.8125 0" sodipodi:nodetypes="cc"/><path id="shape28" transform="translate(303.375017718079, 525.750030705497)" fill="none" stroke="#000000" stroke-width="0.75" stroke-linecap="square" stroke-linejoin="bevel" d="M0 0C2.0625 0 8.25 0 6.1875 0" sodipodi:nodetypes="cc"/><path id="shape29" transform="translate(305.250017827585, 540.750031581545)" fill="none" stroke="#000000" stroke-width="0.75" stroke-linecap="square" stroke-linejoin="bevel" d="M0 0C1.46369 0 2.82745 0.1875 4.3125 0.1875" sodipodi:nodetypes="cc"/><path id="shape30" transform="translate(303.87914213694, 564.536381858242)" fill="none" stroke="#000000" stroke-width="0.75" stroke-linecap="square" stroke-linejoin="bevel" d="M0 0C1.73163 0 2.80776 1.72357 4.90555 1.72357" sodipodi:nodetypes="cc"/><path id="shape311" transform="translate(299.769083931772, 580.511768526734)" fill="none" stroke="#000000" stroke-width="0.75" stroke-linecap="square" stroke-linejoin="bevel" d="M0 0.19968C0 -0.629745 6.24491 1.39292 6.89429 1.39292" sodipodi:nodetypes="cc"/><path id="shape32" transform="translate(298.310676181551, 597.549430022333)" fill="none" stroke="#000000" stroke-width="0.75" stroke-linecap="square" stroke-linejoin="bevel" d="M0 0C0 1.35146 3.73686 1.06066 4.77297 1.06066" sodipodi:nodetypes="cc"/><path id="shape33" transform="translate(294.465788437672, 616.24357706362)" fill="none" stroke="#000000" stroke-width="0.75" stroke-linecap="square" stroke-linejoin="bevel" d="M0 0C1.82614 0 3.60839 1.06066 5.56847 1.06066" sodipodi:nodetypes="cc"/><path id="shape34" transform="translate(290.355730156912, 630.032159682944)" fill="none" stroke="#000000" stroke-width="0.75" stroke-linecap="square" stroke-linejoin="bevel" d="M0 0C0 0.938853 4.96382 3.18198 6.36396 3.18198" sodipodi:nodetypes="cc"/><path id="shape35" transform="translate(285.847924300595, 641.566839374109)" fill="none" stroke="#000000" stroke-width="0.75" stroke-linecap="square" stroke-linejoin="bevel" d="M0 0C0 3.73879 12.7574 7.77083 9.41336 6.0988" sodipodi:nodetypes="cc"/><path id="shape36" transform="translate(280.510873859209, 655.090268991437)" fill="none" stroke="#000000" stroke-width="0.75" stroke-linecap="square" stroke-linejoin="bevel" d="M0.0337547 0C-0.590163 0 7.63923 6.59309 7.85612 7.02687" sodipodi:nodetypes="cc"/><path id="shape37" transform="translate(275.241323950939, 663.575550759389)" fill="none" stroke="#000000" stroke-width="0.75" stroke-linecap="square" stroke-linejoin="bevel" d="M3.39702e-06 0C-0.0055946 0 6.90914 7.63092 9.1482 8.75045" sodipodi:nodetypes="cc"/><path id="shape38" transform="translate(418.6955951392, 285.847911057668)" fill="none" stroke="#000000" stroke-width="0.75" stroke-linecap="square" stroke-linejoin="bevel" d="M0 0C2.24207 0 4.35884 2.08855 5.3033 3.97748" sodipodi:nodetypes="cc"/><path id="shape39" transform="translate(413.392294377462, 290.620881743232)" fill="none" stroke="#000000" stroke-width="0.75" stroke-linecap="square" stroke-linejoin="bevel" d="M0 0C1.82773 0 5.3633 4.6278 6.0988 6.0988" sodipodi:nodetypes="cc"/><path id="shape40" transform="translate(377.595021180436, 356.912147829261)" fill="none" stroke="#000000" stroke-width="0.75" stroke-linecap="square" stroke-linejoin="bevel" d="M0 0C2.3505 2.3505 4.53759 4.53759 6.89429 6.89429" sodipodi:nodetypes="cc"/><path id="shape41" transform="translate(368.314244676704, 381.572496824893)" fill="none" stroke="#000000" stroke-width="0.75" stroke-linecap="square" stroke-linejoin="bevel" d="M0 0C2.8027 0 4.91232 2.65165 7.15946 2.65165" sodipodi:nodetypes="cc"/><path id="shape42" transform="translate(361.154788516681, 414.718127195367)" fill="none" stroke="#000000" stroke-width="0.75" stroke-linecap="square" stroke-linejoin="bevel" d="M0 0C2.14013 0 3.76132 2.65165 5.56847 2.65165" sodipodi:nodetypes="cc"/><path id="shape43" transform="translate(365.397429204102, 397.13637194901)" fill="none" stroke="#000000" stroke-width="0.75" stroke-linecap="square" stroke-linejoin="bevel" d="M0 0.611193C0 -0.969806 4.949 0.964373 5.83363 1.40669" sodipodi:nodetypes="cc"/><path id="shape44" transform="translate(356.812518345102, 436.74124190582)" fill="none" stroke="#000000" stroke-width="0.75" stroke-linecap="square" stroke-linejoin="bevel" d="M0 0.88378C1.17925 -1.47472 10.5119 1.63378 7.875 1.63378" sodipodi:nodetypes="cc"/><path id="shape45" transform="translate(356.625018335462, 451.68752322299)" fill="none" stroke="#000000" stroke-width="0.75" stroke-linecap="square" stroke-linejoin="bevel" d="M0 0C2.08522 0 4.03275 0.75 6.1875 0.75" sodipodi:nodetypes="cc"/><path id="shape46" transform="translate(355.875018296901, 464.595580603784)" fill="none" stroke="#000000" stroke-width="0.75" stroke-linecap="square" stroke-linejoin="bevel" d="M0 0.216943C0 -0.10969 6.7302 0.0294434 7.6875 0.0294434" sodipodi:nodetypes="cc"/><path id="shape47" transform="translate(357.750018393302, 483.375024852166)" fill="none" stroke="#000000" stroke-width="0.75" stroke-linecap="square" stroke-linejoin="bevel" d="M0 0C0 2.19552 5.01003 -0.989968 6.5625 0.5625" sodipodi:nodetypes="cc"/><path id="shape48" transform="translate(357.972796662964, 508.892465671385)" fill="none" stroke="#000000" stroke-width="0.75" stroke-linecap="square" stroke-linejoin="bevel" d="M0 0.356983C1.09784 0.356983 6.62913 -0.528414 6.62913 0.489566" sodipodi:nodetypes="cc"/><path id="shape49" transform="translate(358.237961697529, 524.098690818036)" fill="none" stroke="#000000" stroke-width="0.75" stroke-linecap="square" stroke-linejoin="bevel" d="M0 0.132583C0 0.285473 4.75266 0 5.70105 0" sodipodi:nodetypes="cc"/><path id="shape50" transform="translate(358.503126732095, 537.754690098142)" fill="none" stroke="#000000" stroke-width="0.75" stroke-linecap="square" stroke-linejoin="bevel" d="M0 0.397748C2.07525 0.397748 4.08171 0 6.23138 0" sodipodi:nodetypes="cc"/><path id="shape511" transform="translate(359.696394011406, 566.525135131124)" fill="none" stroke="#000000" stroke-width="0.75" stroke-linecap="square" stroke-linejoin="bevel" d="M0 0C0.942021 0 8.88303 1.49845 8.88303 1.85616" sodipodi:nodetypes="cc"/><path id="shape52" transform="translate(361.154801801353, 582.633714897549)" fill="none" stroke="#000000" stroke-width="0.75" stroke-linecap="square" stroke-linejoin="bevel" d="M0 0.199071C1.96464 -0.783247 5.87527 2.23328 7.5572 1.39231" sodipodi:nodetypes="cc"/><path id="shape53" transform="translate(360.937502331421, 598.578050984399)" fill="none" stroke="#000000" stroke-width="0.75" stroke-linecap="square" stroke-linejoin="bevel" d="M0 0.859453C0 -2.08601 5.49203 3.48445 8.4375 3.48445" sodipodi:nodetypes="cc"/><path id="shape54" transform="translate(361.500002335054, 617.812503990665)" fill="none" stroke="#000000" stroke-width="0.75" stroke-linecap="square" stroke-linejoin="bevel" d="M0 0C0 3.10305 11.9155 3 8.8125 3" sodipodi:nodetypes="cc"/><path id="shape55" transform="translate(362.812502343532, 633.5625040924)" fill="none" stroke="#000000" stroke-width="0.75" stroke-linecap="square" stroke-linejoin="bevel" d="M0 0C2.50879 0 4.91365 1.5 7.3125 1.5" sodipodi:nodetypes="cc"/><path id="shape56" transform="translate(364.312502353221, 649.875004197768)" fill="none" stroke="#000000" stroke-width="0.75" stroke-linecap="square" stroke-linejoin="bevel" d="M0 0C0 0.659492 7.76331 2.0246 8.8125 1.5" sodipodi:nodetypes="cc"/><path id="shape57" transform="translate(369.750027700354, 669.187550133146)" fill="none" stroke="#000000" stroke-width="0.75" stroke-linecap="square" stroke-linejoin="bevel" d="M0 0C2.61359 0 4.28654 2.0625 7.125 2.0625" sodipodi:nodetypes="cc"/><path id="shape58" transform="translate(372.017145511759, 680.030509985371)" fill="none" stroke="#000000" stroke-width="0.75" stroke-linecap="square" stroke-linejoin="bevel" d="M0.545382 0.032041C-2.22232 0.032041 6.31988 -0.268211 8.79538 0.969541" sodipodi:nodetypes="cc"/>
</svg>
