<?xml version="1.0" encoding="UTF-8" standalone="no"?>
<svg
   width="720"
   height="720"
   viewBox="0 0 190.49999 190.50001"
   version="1.1"
   id="svg8"
   inkscape:version="1.1.2 (0a00cf5339, 2022-02-04)"
   sodipodi:docname="andrea1.svgz"
   xmlns:inkscape="http://www.inkscape.org/namespaces/inkscape"
   xmlns:sodipodi="http://sodipodi.sourceforge.net/DTD/sodipodi-0.dtd"
   xmlns="http://www.w3.org/2000/svg"
   xmlns:svg="http://www.w3.org/2000/svg"
   xmlns:rdf="http://www.w3.org/1999/02/22-rdf-syntax-ns#"
   xmlns:cc="http://creativecommons.org/ns#"
   xmlns:dc="http://purl.org/dc/elements/1.1/">
  <defs
     id="defs2" />
  <sodipodi:namedview
     id="base"
     pagecolor="#ffffff"
     bordercolor="#666666"
     borderopacity="1.0"
     inkscape:pageopacity="0.0"
     inkscape:pageshadow="2"
     inkscape:zoom="0.35"
     inkscape:cx="400"
     inkscape:cy="560"
     inkscape:document-units="px"
     inkscape:current-layer="layer3"
     inkscape:document-rotation="0"
     showgrid="false"
     units="px"
     inkscape:pagecheckerboard="true"
     width="720px"
     objecttolerance="3" />
  <metadata
     id="metadata5">
    <rdf:RDF>
      <cc:Work
         rdf:about="">
        <dc:format>image/svg+xml</dc:format>
        <dc:type
           rdf:resource="http://purl.org/dc/dcmitype/StillImage" />
      </cc:Work>
    </rdf:RDF>
  </metadata>
  <g
     inkscape:groupmode="layer"
     id="layer2"
     inkscape:label="Layer 2"
     sodipodi:insensitive="true">
    <path
       style="fill:none;fill-opacity:0;stroke:#ffffff;stroke-width:12.7;stroke-linecap:square;stroke-linejoin:round;stroke-miterlimit:4;stroke-dasharray:none;stroke-dashoffset:26.6835;stroke-opacity:1"
       d="m 65.631136,46.522224 c 2.648156,-2.507303 4.650391,-5.733804 7.215063,-8.289933 3.462329,-3.450796 7.566583,-6.465469 11.18898,-9.779248 6.478135,-5.926214 12.029824,-11.77314 2.080493,-0.257347 -2.993792,3.465147 -20.092405,26.69523 -20.712946,32.578889 -0.146081,1.385054 2.379927,-1.495113 3.356901,-2.487706 7.363601,-7.481315 15.240987,-14.127403 22.018294,-22.241536 1.958351,-2.344637 3.564287,-5.033962 5.734016,-7.203694 0.985298,-0.985297 10.548533,-2.920396 9.626283,-1.875854 -3.88276,4.397609 -35.904604,39.513058 -36.103219,46.578036 -0.03745,1.3321 2.443813,-1.103926 3.531566,-1.873787 2.556494,-1.809374 5.081786,-3.668874 7.50652,-5.651336 9.039074,-7.390341 17.355177,-15.682277 26.577193,-22.833748 3.06352,-2.375696 6.5214,-4.569864 9.32862,-7.109642 1.36555,-1.235456 5.47759,-4.91948 4.17546,-3.617352 -3.4286,3.428601 -5.86197,7.762291 -8.9793,11.424627 -10.43315,12.257198 -22.644615,23.154888 -34.737928,33.725071 -0.732456,0.640207 -11.805819,13.069446 -9.603546,14.538648 1.404151,0.936755 12.25432,-6.544249 13.127878,-7.137548 3.275563,-2.224672 42.810756,-29.131834 43.225266,-34.599438 0.0173,-0.227848 4.20475,-4.280603 4.07314,-4.093807 -2.6643,3.781589 3.88511,6.452281 0.14676,10.97194 -6.38892,7.724198 -20.23104,13.998339 -26.86761,21.51083 -11.057059,12.516427 -23.822445,23.624871 -34.924999,36.191071 -0.2364,0.26757 -10.948411,13.98237 -9.506397,15.42439 1.310346,1.31034 7.151107,-7.5816 8.623762,-8.70646 3.522732,-2.69075 6.232391,-7.02584 9.75858,-9.71206 14.458749,-11.01454 29.242404,-21.646946 43.513624,-32.910654 0.10857,-0.08569 11.90236,-32.408674 14.67093,0.673863 0.12655,1.512192 -5.75221,3.581376 -6.8709,4.663281 -14.66267,14.180534 -31.271178,23.88393 -45.43081,38.56715 -3.658447,3.79373 -21.175403,22.74194 -22.222934,27.4805 -0.05903,0.26704 3.34314,-1.69769 6.886403,-4.43384 3.553539,-2.74409 6.967106,-5.6663 10.520288,-8.41086 16.120758,-12.45202 32.693813,-24.43294 49.133953,-36.45669 2.4989,-1.827608 6.67863,-2.320092 7.65638,-5.257557 0.0997,-0.299503 3.40754,-2.53945 3.40754,-1.873787 0,1.70847 -2.13244,2.672212 -3.27215,3.944979 -2.43787,2.722485 -5.00836,5.323445 -7.48481,8.010875 -16.63926,18.05684 -35.932066,33.2382 -54.774955,48.91898 -1.078963,0.8979 -21.646157,19.11602 -18.462955,19.98018 2.544529,0.69077 12.654891,-7.63026 13.540258,-8.24756 14.427324,-10.05912 28.941868,-19.93481 42.862502,-30.69167 8.29807,-6.41214 16.08599,-13.00405 23.87658,-19.93883 2.05581,-1.82998 4.43856,-3.58692 6.69209,-5.19658 0.27269,-0.19478 0.97067,-0.86059 0.84026,-0.55191 -3.15408,7.46579 -23.04462,22.75671 -28.87885,27.75748 -21.269708,18.23118 -0.49541,0.92474 -19.579171,18.52084 -10.494568,9.67646 -20.934084,18.62881 -30.644123,29.05352 -1.869321,2.0069 -12.477787,9.53504 -11.708847,12.95218 0.01378,0.0612 4.447,-1.22655 7.919931,-3.00654 4.135523,-2.11958 8.124593,-4.51505 12.135692,-6.86159 17.14646,-10.03089 31.676518,-26.34464 47.357318,-38.57233 4.75347,-3.7067 24.20436,-22.32558 25.65838,-22.42964 1.73318,-0.12403 6.42305,4.37676 5.24206,5.65134 -5.43693,5.86777 -9.22799,7.41151 -15.94942,13.05657 -6.46107,5.4264 -44.517499,34.41543 -49.040932,46.16669 -0.224379,0.58291 1.238073,-0.16792 1.854153,-0.27079 6.73645,-1.12473 12.67466,-4.66739 18.325499,-8.49663 6.59459,-4.46878 13.48484,-9.74492 19.78483,-14.61307 7.71823,-5.96404 14.98542,-15.65093 23.75463,-20.21685 0.26824,-0.13967 -0.35669,0.48982 -0.5085,0.75138 -3.43749,5.92268 -0.46122,1.70987 -5.04259,7.4352 -2.39201,2.98931 -29.47115,33.86176 -28.86025,36.37091 0.22531,0.92541 0.70544,-0.65065 3.53674,-3.29386 6.19765,-5.78594 13.08579,-10.7583 19.42207,-16.40623 0.0614,-0.0547 12.41412,-11.27949 12.84882,-9.54361 1.075,4.29266 -20.53677,22.19243 -22.73246,29.54755 -0.46565,1.55985 3.1457,-0.99224 4.50205,-1.89239 6.17489,-4.09797 14.06296,-8.32585 18.91254,-14.14384 5.30351,-6.36255 5.32633,-1.49473 2.12907,4.58577 -6.83597,13.00058 -6.32714,8.11662 3.67626,3.09542"
       id="path3585"
       sodipodi:nodetypes="cssssssssssssssssssscsssssssssssssssssssssssscssssssssssscsssssssssssssc" />
  </g>
  <g
     inkscape:label="Layer 1"
     inkscape:groupmode="layer"
     id="layer1">
    <path
       style="fill:none;fill-opacity:0;stroke:#000000;stroke-width:0.529167;stroke-linecap:square;stroke-linejoin:round;stroke-dashoffset:26.6835"
       d="m 75.627425,64.084977 c 4.609997,18.044361 6.495256,16.083314 20.793561,25.054801 1.759101,1.103749 5.657714,-2.219855 7.061064,-2.91972 11.28687,-5.628849 14.65854,-6.892803 14.65854,-21.368205"
       id="path907" />
    <path
       style="fill:none;fill-opacity:0;stroke:#000000;stroke-width:0.529167;stroke-linecap:square;stroke-linejoin:round;stroke-dashoffset:26.6835"
       d="m 77.573041,43.819029 c 0.09689,3.182512 0.74948,12.386895 3.824573,14.357265 3.624591,2.322457 8.692994,1.602486 12.956315,1.602486 8.526591,0 18.062741,-0.702363 25.367961,1.732711"
       id="path933" />
    <path
       style="fill:none;fill-opacity:0;stroke:#000000;stroke-width:0.529167;stroke-linecap:square;stroke-linejoin:round;stroke-dashoffset:26.6835"
       d="m 77.226294,35.155994 c -2.730344,7.375668 -5.775404,14.624775 -4.539258,22.748999 0.267081,1.75532 1.163646,3.318751 1.588532,5.018297"
       id="path937" />
    <path
       style="fill:none;fill-opacity:0;stroke:#000000;stroke-width:0.529167;stroke-linecap:square;stroke-linejoin:round;stroke-dashoffset:26.6835"
       d="M 91.30812,21.686531 C 70.131341,27.854124 57.410897,47.971836 66.105526,69.708405"
       id="path947" />
    <path
       style="fill:none;fill-opacity:0;stroke:#000000;stroke-width:0.529167;stroke-linecap:square;stroke-linejoin:round;stroke-dashoffset:26.6835"
       d="m 94.336358,21.560441 c 18.271362,0.0643 33.731262,12.320973 38.481372,29.861742 1.36244,5.031108 2.2215,10.22178 3.24115,15.319997 0.33341,1.667086 -0.19656,3.690066 0.27078,5.325771 1.23381,4.318336 2.13909,18.986055 0.81029,22.830647"
       id="path951" />
    <path
       style="fill:none;fill-opacity:0;stroke:#000000;stroke-width:0.529167;stroke-linecap:square;stroke-linejoin:round;stroke-dashoffset:26.6835"
       d="m 89.241511,84.777794 c 2.258319,3.153421 2.1137,6.814905 2.857706,10.446909"
       id="path969" />
    <path
       style="fill:none;fill-opacity:0;stroke:#000000;stroke-width:0.529167;stroke-linecap:square;stroke-linejoin:round;stroke-dashoffset:26.6835"
       d="m 109.21892,83.346907 c -0.31829,4.571095 0.67456,8.787239 1.66464,11.269567"
       id="path977"
       sodipodi:nodetypes="cc" />
    <path
       style="fill:none;fill-opacity:0;stroke:#000000;stroke-width:0.529167;stroke-linecap:square;stroke-linejoin:round;stroke-dashoffset:26.6835"
       d="m 89.181119,91.401137 c -4.440455,7.273324 -15.210735,4.832194 -20.287134,10.747663 -5.564549,6.48431 -6.716791,15.79769 -8.950359,23.77736 -4.042846,14.44355 -7.390569,29.0497 -10.044864,43.79578 -0.731427,4.06349 -0.369982,15.34684 -2.189014,18.07538"
       id="path1107" />
    <path
       style="fill:none;fill-opacity:0;stroke:#000000;stroke-width:0.529167;stroke-linecap:square;stroke-linejoin:round;stroke-dashoffset:26.6835"
       d="m 112.30012,90.68387 c 5.46597,5.447033 15.13067,3.001126 20.82457,7.606771 6.37731,5.158439 8.12888,19.478869 10.28464,27.408149 1.08868,4.00432 2.86278,7.94886 3.82613,11.98376 1.41815,5.93982 1.58724,13.01818 3.94291,18.6986 2.01022,4.84742 4.49573,9.12449 5.4715,14.40429 0.9934,5.37519 -1.64228,6.80389 -1.64228,10.59987"
       id="path1113" />
    <path
       style="fill:none;fill-opacity:0;stroke:#000000;stroke-width:0.529167;stroke-linecap:square;stroke-linejoin:round;stroke-dashoffset:26.6835"
       d="m 87.918146,94.275382 c 3.605707,4.254577 6.238182,10.472008 10.902693,13.803808 2.942491,2.10178 11.475021,-6.81531 13.206431,-8.542116 1.27786,-1.274469 1.70208,-4.114112 2.56522,-5.783625"
       id="path1232" />
    <path
       style="fill:none;fill-opacity:0;stroke:#000000;stroke-width:0.529167;stroke-linecap:square;stroke-linejoin:round;stroke-dashoffset:26.6835"
       d="m 74.786132,99.240453 c 2.661891,4.825557 4.559861,15.387177 11.006047,15.387177 1.088737,0 4.861137,-0.86647 5.136637,0.30592 0.690838,2.93986 -0.707208,6.105 -0.781349,8.80256 -0.03699,1.34591 10.395613,15.4472 11.252023,15.40785 0.22212,-0.0102 4.36094,-8.75516 6.01204,-9.89294 6.66333,-4.59171 3.11018,-9.67264 5.45703,-14.65337 0.76887,-1.63176 4.53754,-0.81836 5.71438,-2.23345 0.91232,-1.09702 1.39559,-3.27394 2.30374,-4.60644 2.68152,-3.93452 7.06966,-6.83852 9.03717,-11.054619"
       id="path1236" />
    <path
       style="fill:none;fill-opacity:0;stroke:#000000;stroke-width:0.529167;stroke-linecap:square;stroke-linejoin:round;stroke-dashoffset:26.6835"
       d="m 86.325479,94.960611 c 4.519771,4.78977 6.30034,15.136109 13.21263,17.664039 1.911471,0.69905 16.041751,-11.97782 17.392221,-14.854908 0.69519,-1.481053 0.4589,-3.186207 1.05833,-4.677751"
       id="path1240" />
    <path
       style="fill:none;fill-opacity:0;stroke:#000000;stroke-width:0.529167;stroke-linecap:square;stroke-linejoin:round;stroke-dashoffset:26.6835"
       d="m 155.66388,182.65551 c -2.04804,2.90805 -3.13824,6.11791 -5.70921,8.68888"
       id="path1250" />
    <path
       style="fill:none;fill-opacity:0;stroke:#000000;stroke-width:0.529167;stroke-linecap:square;stroke-linejoin:round;stroke-dashoffset:26.6835"
       d="m 66.105526,69.708405 c 2.189123,9.370822 6.15673,19.745168 6.15673,28.631845"
       id="path1254" />
    <path
       style="fill:none;fill-opacity:0;stroke:#000000;stroke-width:0.529167;stroke-linecap:square;stroke-linejoin:round;stroke-dashoffset:26.6835"
       d="m 137.13995,94.898598 c 0.83919,7.119462 5.03121,14.638992 5.03121,21.895302"
       id="path1258" />
    <path
       style="fill:none;fill-opacity:0;stroke:#000000;stroke-width:0.529167;stroke-linecap:square;stroke-linejoin:round;stroke-dashoffset:26.6835"
       d="m 100.57405,70.104354 c 0.71606,-3.408913 6.62782,-5.947998 9.85102,-5.142199 1.80943,0.452359 1.43787,1.969326 1.55133,2.09671 0.0222,0.0249 2.62349,-0.991992 2.72229,-1.057857"
       id="path1306" />
    <path
       style="fill:none;fill-opacity:0;stroke:#000000;stroke-width:0.529167;stroke-linecap:square;stroke-linejoin:round;stroke-dashoffset:26.6835"
       d="m 93.251643,70.329625 c -1.32176,-3.359144 -6.976776,-6.725012 -10.552422,-5.294754 -1.405276,0.56211 -1.409268,1.549175 -2.146771,2.095246 C 80.369692,67.265438 79.511442,66.937 79.195143,66.937"
       id="path1310" />
    <path
       style="fill:none;fill-opacity:0;stroke:#000000;stroke-width:0.529167;stroke-linecap:square;stroke-linejoin:round;stroke-dashoffset:26.6835"
       d="m 85.207379,65.502046 c -1.683253,0.866687 -0.990103,3.893092 0.311327,4.760711"
       id="path1330" />
    <path
       style="fill:none;fill-opacity:0;stroke:#000000;stroke-width:0.529167;stroke-linecap:square;stroke-linejoin:round;stroke-dashoffset:26.6835"
       d="m 91.12424,67.859838 c 0.07793,1.478105 -0.7419,2.79174 -1.972837,3.403586"
       id="path1332" />
    <path
       style="fill:none;fill-opacity:0;stroke:#000000;stroke-width:0.529167;stroke-linecap:square;stroke-linejoin:round;stroke-dashoffset:26.6835"
       d="m 102.80486,66.985416 c -0.77162,1.945783 0.24902,3.607716 2.28617,3.368326"
       id="path1334" />
    <path
       style="fill:none;fill-opacity:0;stroke:#000000;stroke-width:0.529167;stroke-linecap:square;stroke-linejoin:round;stroke-dashoffset:26.6835"
       d="m 108.56934,65.184506 c 0.9259,1.693331 0.0983,3.572531 -0.66924,4.723805"
       id="path1336" />
    <path
       style="fill:none;fill-opacity:0;stroke:#000000;stroke-width:0.529167;stroke-linecap:square;stroke-linejoin:round;stroke-dashoffset:26.6835"
       d="m 99.664717,64.007203 c 1.585893,-1.288712 3.591963,-1.926728 5.598883,-2.373498 2.21443,-0.492964 4.8876,-0.687872 7.15357,-0.404627 0.24987,0.03123 1.86226,0.334486 1.63194,0.787032 -0.63107,1.239946 -9.00166,0.392433 -10.47946,0.522708 -1.06758,0.09411 -2.73652,0.400323 -3.68376,0.855761 -0.276619,0.133 -0.269242,0.912294 -0.307215,1.149027"
       id="path1344" />
    <path
       style="fill:none;fill-opacity:0;stroke:#000000;stroke-width:0.529167;stroke-linecap:square;stroke-linejoin:round;stroke-dashoffset:26.6835"
       d="m 94.235592,64.573319 c -0.657014,-0.46844 -1.449668,-0.523965 -2.228289,-0.760162 -2.648374,-0.803383 -5.950829,-2.237893 -8.802304,-1.667597 -0.333264,0.06665 -2.41585,0.490194 -2.303735,0.984435 0.06221,0.274241 3.064314,0.256911 3.686336,0.188362 2.161106,-0.238159 4.441595,0.205833 6.5673,0.471546 1.045212,0.130651 2.085702,0.758333 3.080692,0.783416 z"
       id="path1352" />
    <path
       style="fill:none;fill-opacity:0;stroke:#000000;stroke-width:0.529167;stroke-linecap:square;stroke-linejoin:round;stroke-dashoffset:26.6835"
       d="m 94.792405,66.314039 c 0.655163,1.537501 1.290804,6.183436 0.448291,7.8897 -0.334211,0.676849 -0.78976,0.501978 -1.258062,1.342295"
       id="path1358" />
    <path
       style="fill:none;fill-opacity:0;stroke:#000000;stroke-width:0.529167;stroke-linecap:square;stroke-linejoin:round;stroke-dashoffset:26.6835"
       d="m 91.169915,92.110839 c -0.503272,1.273498 -1.554933,1.716135 -2.425211,2.58526"
       id="path2636" />
    <path
       style="fill:none;fill-opacity:0;stroke:#000000;stroke-width:0.529167;stroke-linecap:square;stroke-linejoin:round;stroke-dashoffset:26.6835"
       d="m 109.74066,90.024362 c 0.70152,2.062927 2.82026,2.581756 4.36844,3.613882"
       id="path2640" />
    <path
       style="fill:none;fill-opacity:0;stroke:#000000;stroke-width:0.529167;stroke-linecap:square;stroke-linejoin:round;stroke-dashoffset:26.6835"
       d="m 107.11356,65.317515 c 0.37556,0.119393 0.2255,0.447833 0.33837,0.746709 1.06712,2.825705 -3.9634,4.864804 -3.9634,0.629598"
       id="path2646" />
    <path
       style="fill:none;fill-opacity:0;stroke:#000000;stroke-width:0.529167;stroke-linecap:square;stroke-linejoin:round;stroke-dashoffset:26.6835"
       d="m 107.45905,67.083712 c -2.83199,3.798355 1.25149,-4.271262 -0.81979,-0.382583 -0.13638,0.256046 -0.32841,0.479351 -0.46918,0.733007 -0.21485,0.387133 -0.37656,0.955916 -0.693,1.288976 -0.0434,0.04569 0.0644,-0.109357 0.0848,-0.169 0.23559,-0.690197 0.51727,-1.296873 0.88538,-1.935747 0.12082,-0.209685 0.61745,-0.621376 0.37546,-0.621376 -0.52114,0 -1.7915,1.301538 -2.2226,1.6056 -0.076,0.05362 -0.49389,0.415851 -0.61351,0.559805 -0.0347,0.04174 -0.0894,0.190386 -0.0894,0.136115 0,-0.309266 1.00366,-1.315143 1.16913,-1.524847 0.41838,-0.530235 0.60106,-0.663606 1.10608,-1.106453 1.93154,-1.693738 -1.31158,1.999996 -1.53233,2.007182 -0.053,0.0019 0.66635,-1.904357 -0.58904,-0.648962"
       id="path2648" />
    <path
       style="fill:none;fill-opacity:0;stroke:#000000;stroke-width:0.529167;stroke-linecap:square;stroke-linejoin:round;stroke-dashoffset:26.6835"
       d="m 89.960965,66.722688 c 1.682599,2.26527 -1.828652,4.396798 -3.507182,2.718268 -0.715108,-0.715111 -1.072639,-4.089172 0.593786,-3.741775"
       id="path2727" />
    <path
       style="fill:none;fill-opacity:0;stroke:#000000;stroke-width:0.529167;stroke-linecap:square;stroke-linejoin:round;stroke-dashoffset:26.6835"
       d="m 86.15963,66.85789 c 1.806689,-2.057686 -1.095587,1.880994 0.72716,0.384955 0.509841,-0.418457 0.963146,-1.173866 0.964128,-1.155967 0.01894,0.345665 -0.877319,1.675993 -1.097502,1.9637 -0.02979,0.03893 -0.497028,0.463704 -0.379476,0.463704 0.262731,0 1.053624,-1.194284 1.264129,-1.424358 0.142597,-0.155855 0.511413,-0.664549 0.421132,-0.47357 -0.181989,0.38498 -0.174628,0.861772 -0.308587,1.260475 -0.560302,1.667611 0.0058,-0.205748 -0.372715,0.645856 -0.445016,1.001181 1.617151,-1.813441 1.880385,-1.997498 0.139288,-0.09739 -0.149304,0.305668 -0.213214,0.463153 -0.282284,0.695582 -1.075465,1.28351 -1.299573,1.929717 -0.04444,0.128162 0.202073,-0.181054 0.304933,-0.269488 0.304252,-0.261575 1.294524,-1.351304 1.798902,-1.396405 0.602332,-0.05386 -2.620211,3.718261 -0.312788,1.410838"
       id="path2729" />
    <path
       style="fill:none;fill-opacity:0;stroke:#000000;stroke-width:0.529167;stroke-linecap:square;stroke-linejoin:round;stroke-dashoffset:26.6835"
       d="m 76.107816,41.276071 c -0.299628,1.732812 -0.499878,4.022365 -0.499878,5.483307"
       id="path2844" />
    <path
       style="fill:none;fill-opacity:0;stroke:#000000;stroke-width:0.529167;stroke-linecap:square;stroke-linejoin:round;stroke-dashoffset:26.6835"
       d="m 78.787714,45.55536 c -0.09595,4.911749 1.046287,8.309533 3.854685,12.054064"
       id="path2854" />
    <path
       style="fill:none;fill-opacity:0;stroke:#000000;stroke-width:0.529167;stroke-linecap:square;stroke-linejoin:round;stroke-dashoffset:26.6835"
       d="m 81.638626,46.938062 c 0.824426,4.848698 3.132206,9.179962 5.769784,13.12069"
       id="path2856" />
    <path
       style="fill:none;fill-opacity:0;stroke:#000000;stroke-width:0.529167;stroke-linecap:square;stroke-linejoin:round;stroke-dashoffset:26.6835"
       d="m 85.522908,49.64427 c 1.353944,2.810119 2.281126,7.807463 5.346276,9.344568"
       id="path2858" />
    <path
       style="fill:none;fill-opacity:0;stroke:#000000;stroke-width:0.529167;stroke-linecap:square;stroke-linejoin:round;stroke-dashoffset:26.6835"
       d="m 89.57674,50.098838 c 1.434711,2.603804 1.992368,7.061456 4.626059,8.945906"
       id="path3087" />
    <path
       style="fill:none;fill-opacity:0;stroke:#000000;stroke-width:0.529167;stroke-linecap:square;stroke-linejoin:round;stroke-dashoffset:26.6835"
       d="m 93.938607,49.85036 c 0.68738,3.13877 2.162178,7.747666 4.565037,9.650047"
       id="path3089" />
    <path
       style="fill:none;fill-opacity:0;stroke:#000000;stroke-width:0.529167;stroke-linecap:square;stroke-linejoin:round;stroke-dashoffset:26.6835"
       d="m 98.22009,50.297254 c 1.464828,2.949112 3.31508,6.672419 5.25639,8.664908"
       id="path3091" />
    <path
       style="fill:none;fill-opacity:0;stroke:#000000;stroke-width:0.529167;stroke-linecap:square;stroke-linejoin:round;stroke-dashoffset:26.6835"
       d="m 102.72812,50.844269 c 1.1966,2.366471 3.20819,6.390188 5.50487,7.921305"
       id="path3093" />
    <path
       style="fill:none;fill-opacity:0;stroke:#000000;stroke-width:0.529167;stroke-linecap:square;stroke-linejoin:round;stroke-dashoffset:26.6835"
       d="m 108.43542,51.7545 c 2.15092,2.186315 3.11807,5.010986 4.25042,7.679769"
       id="path3095" />
    <path
       style="fill:none;fill-opacity:0;stroke:#000000;stroke-width:0.529167;stroke-linecap:square;stroke-linejoin:round;stroke-dashoffset:26.6835"
       d="m 112.08913,52.019784 c 2.9947,2.708611 5.44951,5.930926 7.22813,9.488173"
       id="path3099" />
    <path
       style="fill:none;fill-opacity:0;stroke:#000000;stroke-width:0.529167;stroke-linecap:square;stroke-linejoin:round;stroke-dashoffset:26.6835"
       d="m 94.300362,79.539176 c 1.199089,0.04463 2.391153,-0.05087 3.529472,-0.462241 0.764196,-0.276172 1.034286,-0.895852 1.034286,-0.797319"
       id="path3143"
       sodipodi:nodetypes="csc" />
    <path
       style="fill:none;fill-opacity:0;stroke:#000000;stroke-width:0.529167;stroke-linecap:square;stroke-linejoin:round;stroke-dashoffset:26.6835"
       d="m 74.575293,45.017666 c -1.234114,6.116283 1.50993,11.78343 2.893881,17.350102"
       id="path3276" />
    <path
       style="fill:none;fill-opacity:0;stroke:#000000;stroke-width:0.529167;stroke-linecap:square;stroke-linejoin:round;stroke-dashoffset:26.6835"
       d="m 96.576532,23.71018 c 25.630718,4.434999 33.096918,16.126822 35.431428,39.72729 0.84874,8.580231 -1.85926,25.529818 1.86552,32.979384"
       id="path3316" />
    <path
       style="fill:none;fill-opacity:0;stroke:#000000;stroke-width:0.529167;stroke-linecap:square;stroke-linejoin:round;stroke-dashoffset:26.6835"
       d="m 97.720133,27.713553 c 7.056097,-0.252309 12.599427,4.337056 18.038687,8.134387 1.49521,1.043853 3.01253,1.593197 4.25401,2.989482 7.12316,8.011406 10.39659,19.7617 9.30537,30.475658 -0.80722,7.925634 -1.73016,17.702675 0.83096,25.386048"
       id="path3318" />
    <path
       style="fill:none;fill-opacity:0;stroke:#000000;stroke-width:0.529167;stroke-linecap:square;stroke-linejoin:round;stroke-dashoffset:26.6835"
       d="m 98.631189,31.812529 c 9.870381,1.734065 20.882081,6.962399 23.881231,17.459398 0.57554,2.014384 0.37934,4.321895 0.81752,6.389791 0.43714,2.062999 1.68355,4.047823 2.00143,6.14381 0.37048,2.44289 0.62492,4.862468 0.83044,7.362344 0.65957,8.022931 -1.33357,15.938423 -0.42478,23.95099"
       id="path3320" />
    <path
       style="fill:none;fill-opacity:0;stroke:#000000;stroke-width:0.529167;stroke-linecap:square;stroke-linejoin:round;stroke-dashoffset:26.6835"
       d="m 107.57173,38.549069 c 10.1006,1.212114 15.00247,16.245631 16.81396,24.354067 1.66369,7.446886 0.38269,15.914415 -0.56018,23.348963 -0.29128,2.296774 0.27854,4.686139 0.27854,6.98717"
       id="path3322" />
    <path
       style="fill:none;fill-opacity:0;stroke:#000000;stroke-width:0.529167;stroke-linecap:square;stroke-linejoin:round;stroke-dashoffset:26.6835"
       d="M 91.476585,23.688993 C 86.658227,23.473667 83.401161,25.855704 79.815282,28.671633 67.054502,38.692462 63.352039,56.540092 65.947395,72.072602"
       id="path3332" />
    <path
       style="fill:none;fill-opacity:0;stroke:#000000;stroke-width:0.529167;stroke-linecap:square;stroke-linejoin:round;stroke-dashoffset:26.6835"
       d="M 74.611465,75.401598 C 74.20889,80.775079 73.853947,91.27774 76.645967,95.570909"
       id="path3338" />
    <path
       style="fill:none;fill-opacity:0;stroke:#000000;stroke-width:0.529167;stroke-linecap:square;stroke-linejoin:round;stroke-dashoffset:26.6835"
       d="m 78.995695,81.875105 c -0.43874,3.773789 0.02669,12.463801 1.933215,14.30352"
       id="path3340" />
    <path
       style="fill:none;fill-opacity:0;stroke:#000000;stroke-width:0.529167;stroke-linecap:square;stroke-linejoin:round;stroke-dashoffset:26.6835"
       d="m 81.931948,84.124063 c 0.444082,1.824668 0.390152,11.521488 3.116607,11.575005"
       id="path3342" />
    <path
       style="fill:none;fill-opacity:0;stroke:#000000;stroke-width:0.529167;stroke-linecap:square;stroke-linejoin:round;stroke-dashoffset:26.6835"
       d="m 85.399437,85.288333 c 1.409803,1.443027 2.760017,6.599195 1.514121,7.673433"
       id="path3344" />
    <path
       style="fill:none;fill-opacity:0;stroke:#000000;stroke-width:0.529167;stroke-linecap:square;stroke-linejoin:round;stroke-dashoffset:26.6835"
       d="m 120.83707,68.914139 c 1.46203,7.449624 0.52735,15.989458 -1.91462,22.919531"
       id="path3354" />
    <path
       style="fill:none;fill-opacity:0;stroke:#000000;stroke-width:0.529167;stroke-linecap:square;stroke-linejoin:round;stroke-dashoffset:26.6835"
       d="m 118.2672,78.728011 c -0.38889,3.315001 0.0857,8.689811 -1.6676,11.029817"
       id="path3356" />
    <path
       style="fill:none;fill-opacity:0;stroke:#000000;stroke-width:0.529167;stroke-linecap:square;stroke-linejoin:round;stroke-dashoffset:26.6835"
       d="m 115.2126,81.880272 c -0.36224,0.536742 -0.0359,8.223025 -1.73684,7.080705"
       id="path3358" />
    <path
       style="fill:none;fill-opacity:0;stroke:#000000;stroke-width:0.529167;stroke-linecap:square;stroke-linejoin:round;stroke-dashoffset:26.6835"
       d="m 112.2686,83.517382 c -0.874,2.067819 -1.66114,4.899588 0.42995,6.289537"
       id="path3360" />
    <path
       style="fill:none;fill-opacity:0;stroke:#000000;stroke-width:0.529167;stroke-linecap:square;stroke-linejoin:round;stroke-dashoffset:26.6835"
       d="m 72.003874,59.725554 c -0.685821,9.053541 -2.726052,19.006751 0.223758,27.85618"
       id="path3368" />
    <path
       style="fill:none;fill-opacity:0;stroke:#000000;stroke-width:0.529167;stroke-linecap:square;stroke-linejoin:round;stroke-dashoffset:26.6835"
       d="m 90.955171,28.333671 c -4.304908,1.084871 -11.258843,6.709658 -9.968902,11.924852"
       id="path3578" />
    <path
       style="fill:none;fill-opacity:0;stroke:#000000;stroke-width:0.529167;stroke-linecap:square;stroke-linejoin:round;stroke-dashoffset:26.6835"
       d="m 90.507652,32.159278 c -3.899336,2.090193 -5.540745,5.845948 -5.540745,9.999906"
       id="path3580" />
  </g>
  <g
     inkscape:groupmode="layer"
     id="layer3"
     inkscape:label="Layer 3" />
</svg>
